<?xml version="1.0" encoding="utf-8" standalone="yes"?>
<svg xmlns="http://www.w3.org/2000/svg" width="265" height="443">
	<path style="fill:#fff;" d="M190 52C186.917 53.734 184.779 56.2634 181.961 58.3704C177.935 61.3799 171.381 63.9945 169.607 69.1736C168.519 72.352 170.39 75.3689 171.965 77.9992C175.516 83.9277 180.024 93.0552 188 92.8982C194.878 92.7628 199.354 85.7752 203.594 81.25C205.423 79.2986 208.385 75.8862 211.409 76.9468C219.679 79.8473 219.751 94.4569 228.224 98.2569C233.466 100.608 239.37 96.6205 243.576 93.9128C246.345 92.1298 250.963 91.4362 252.817 88.581C255.339 84.698 252.489 80.4391 250.752 77C247.205 69.9762 243.627 63.0499 240 56C246.12 53.6157 250.552 48.9165 255.999 45.3866C259.334 43.226 262.762 42.0353 264.057 37.956C266.628 29.859 260.239 27.4118 255.859 21.9105C252.806 18.0763 251.762 11.7892 246.826 9.74615C239.369 6.65906 233.056 16.4771 228.579 20.7261C225.87 23.2981 223.37 24.4023 222 28L220 28C216.506 20.6754 210.402 14.1828 205.209 8.00076C203.226 5.64008 201.728 2.0596 198.787 0.742279C189.438 -3.44507 184.962 6.6853 179.671 11.7014C174.941 16.1858 169.475 17.0865 169.667 25C169.769 29.1777 173.157 32.0628 175.718 34.9992C180.671 40.6778 185.852 45.65 190 52z"></path>
	<path style="fill:#fff;" d="M62.4591 12.9915C56.1923 16.6254 54.4837 25.3952 50.4298 30.8302C39.1756 45.9188 32.8352 64.4992 26.0849 81.9992C22.7998 90.5156 17.9574 98.449 14.615 107C12.8201 111.592 12.1764 116.648 9.81173 121C7.4671 125.315 3.31931 128.542 1.37191 133.039C0.378363 135.333 -0.115372 140.296 3.96528 139.248C6.77614 138.527 8.50766 135.211 9.99923 132.999C14.5711 126.219 17.7195 118.395 21.2191 111C24.6497 103.751 26.6271 96.1433 29.4568 88.7145C32.8061 79.9216 37.7757 71.7617 41.1883 63C46.3016 49.8718 51.5938 35.752 61.0147 24.9691C67.586 17.4477 79.9979 17.9735 89 18.8302C105.854 20.4342 123.17 19.8091 140 20.2593C146.007 20.42 151.951 21.0125 158 21C160.2 20.9955 163.534 21.4852 165.377 19.9769C167.453 18.2785 165.925 15.9336 163.851 15.3179C159.244 13.9503 152.781 14.8975 148 15.0146C127.128 15.5261 106.052 12.0013 85 12C79.0269 11.9996 67.6993 9.95297 62.4591 12.9915z"></path>
	<path style="fill:#000;" d="M194 12C188.291 16.4901 183.971 20.6945 179 26C181.558 29.6452 184.58 33.5348 188.17 36.2361C191.902 39.0446 196.15 40.254 199.12 44.0941C201.525 47.2048 203.778 51.0682 201.816 54.9606C197.235 64.0533 184.672 64.2402 180 74L188 82C193.81 77.4717 199.465 72.7169 204.911 67.7299C206.878 65.9293 209.071 62.8661 212.024 62.8673C215.031 62.8685 216.881 65.7117 218.204 68.0154C219.957 71.0681 220.951 74.7284 223.073 77.5447C226.108 81.5716 229.547 84.4156 232 89C235.323 87.2607 238.29 85.6693 242 85C241.905 77.7979 238.979 72.2215 234.93 66.2855C232.81 63.1781 229.298 60.8801 228.478 57C227.559 52.6554 230.588 50.2452 233.73 48.0092C240.41 43.2555 247.343 36.9452 255 34C254.216 31.8629 253.397 29.8993 252.08 28.0108C243.552 15.7797 234.379 29.4891 226.259 35.2585C223.992 36.8696 222.197 40.3981 218.982 39.9406C214.627 39.3209 212.471 34.1982 210.356 31C206.046 24.4852 199.929 17.0278 194 12z"></path>
	<path style="fill:#fff;" d="M105 45.4244C96.264 46.5815 84.9667 44.764 77.2099 49.9383C71.4659 53.7698 66.7699 64.0351 63.4745 69.9854C58.0248 79.8256 52.4477 89.3464 48.6327 100C47.3463 103.592 47.6062 107.458 46.1968 111C44.5247 115.202 41.5102 118.716 39.9622 123C36.2472 133.28 33.3466 144.455 27.6366 153.985C25.8254 157.007 22.7122 158.572 20.7855 161.371C19.2832 163.554 19.8051 167.158 23.0664 167.052C26.2241 166.95 28.1136 163.391 29.3951 160.985C32.9951 154.226 37.4503 147.931 40.7369 141C45.0422 131.921 47.1324 121.446 50.7106 112.015C52.0733 108.423 54.5309 105.46 56.135 101.985C60.5738 92.3708 64.0218 82.8221 69.8117 73.8302C73.1581 68.6333 76.0148 60.506 81.108 56.8688C83.5354 55.1354 86.2484 55.0551 89 54.2369C93.0818 53.023 96.6401 50.7207 101 50.3896C106.837 49.9464 112.273 52.6379 118 52.9568C128.44 53.5381 139.574 54.6286 150 53.9105C154.426 53.6057 158.644 51.8288 163 51.5038C167.949 51.1347 173.637 54.9079 178.566 52.3966C181.393 50.9558 180.866 47.0989 177.851 46.3572C174.581 45.5526 170.372 46.9459 167 46.9969C155.996 47.1635 144.984 48.5735 134 48.4252C124.191 48.2927 115.107 44.0857 105 45.4244M97 75C95.4603 78.3222 92.8528 80.7772 91.1628 84C87.5034 90.9785 83.7919 97.9861 80.054 105C74.9054 114.661 71.3662 125.922 67.01 135.985C65.4359 139.622 62.4699 142.397 60.811 146.011C57.6041 152.997 56.9221 160.955 53.5108 168C49.2255 176.851 41.2011 183.707 38 193L39 194C52.8851 188.379 58.3078 168.506 63.784 156C65.154 152.871 67.3113 150.159 68.6096 147C69.8341 144.021 70.0038 140.862 71.5872 138C74.4686 132.792 78.38 128.149 81.1914 122.91C84.6084 116.544 86.782 109.5 90.0293 103C93.5309 95.9914 96.7294 85.0935 104.104 81.0278C107.421 79.1993 112.349 79.9832 116 80.0008C126.024 80.0491 138.268 79.683 148 82C147.058 89.9929 153.549 101.541 156.611 108.996C163.291 125.262 170.233 141.684 176.67 158C178.831 163.478 178.814 169.393 182.217 174.424C188.114 183.144 189.806 192.478 193.954 201.981C194.913 204.177 198.302 209.205 200.918 205.392C203.051 202.283 198.168 195.063 197.054 192C192.307 178.952 185.995 166.661 180.687 153.961C172.946 135.441 166.951 115.876 160.053 97C157.967 91.2921 156.064 85.9475 153.194 80.5795C152.199 78.7194 151.591 76.3636 149.687 75.1929C145.763 72.781 135.57 73.9088 131 74.2462C119.656 75.0835 108.393 73.5601 97 75M230 146C229.559 130.807 216.337 116.977 211.177 103C210.33 100.703 206.01 89.6064 202.042 94.6227C198.982 98.4927 204.872 104.956 206.691 108.09C211.957 117.158 216.485 126.667 221.258 136C223.502 140.389 224.747 145.127 230 146M58 224C57.2823 230.083 61.1395 236.854 64.2006 242C70.1339 251.974 76.5473 261.755 82 272C75.6864 275.463 74.1301 282.523 72.0008 289C70.4109 293.836 70.745 298.457 69.652 303.285C68.2854 309.323 65.334 314.915 64.2863 321C63.4113 326.081 64.0489 332.013 62.6821 336.892C61.6208 340.68 56.6953 342.479 54.0185 345.055C49.7142 349.197 46.7686 354.139 41.9992 357.877C37.8383 361.137 32.0516 361.99 28.2276 365.43C23.6387 369.558 23.5901 377.323 24.1728 382.999C24.8486 389.581 26.3781 395.596 27.8989 402C28.5148 404.593 28.2996 407.393 29.7662 409.715C39.3563 424.896 56.5469 428.918 72 434.89C77.9675 437.196 85.6178 442.832 92 442.887C96.632 442.928 101.645 439.938 106 438.485C119.723 433.905 133.649 430.612 147 425.008C150.936 423.356 157.106 418.194 153.968 413.318C151.354 409.257 139.237 411.767 135 412.17C126.295 412.998 118.657 411.682 110 411.09C105.936 410.811 101.044 411.864 97.1698 410.412C92.1366 408.526 88.4042 404.557 83 403C91.9567 400.737 101.87 405.762 111 405.985C116.482 406.12 122.598 406.641 128 405.625C132.193 404.836 136.341 402.493 140.576 402.147C144.343 401.84 148.128 403.25 152 402.896C157.399 402.402 162.702 400.155 168 399.015C173.246 397.885 178.86 397.902 184 396.366C189.545 394.708 194.935 391.352 200 388.618C202.132 387.467 204.834 386.879 206.682 385.273C212.496 380.221 203.668 365.968 200.555 361.09C197.35 356.067 196.325 351.219 193.843 346C191.168 340.373 187.21 335.365 185.069 329.424C183.85 326.041 183.846 322.384 182.532 319.004C181.256 315.723 178.992 313.071 177.525 309.91C175.243 304.99 173.943 299.192 172.348 294C170.201 287.013 173.407 272.552 165 270C171.173 259.154 177.602 248.231 183.042 237C185.016 232.927 188.38 229.654 188.891 225C189.931 215.524 184.555 208.115 180.693 200C173.961 185.854 165.191 171.149 161.117 156C158.975 148.038 154.738 141.59 152.109 134C150.529 129.44 150.5 124.594 148.795 120C147.698 117.047 145.924 110.636 141.947 110.636C135.716 110.636 134.245 120.548 133.127 125C128.867 141.961 125.195 158.633 123 176C120.279 170.347 121 164.151 121 158C121 146.334 121.865 134.698 122.004 123C122.08 116.588 124.988 108.724 119.271 103.742C116.825 101.611 112.318 101.524 110.433 104.434C106.953 109.806 106.653 117.407 103.292 123C100.849 127.066 99.8344 130.844 97.8364 135C95.7896 139.258 92.3094 142.632 90.348 147C83.0194 163.322 77.2258 179.919 69.5139 196C66.1467 203.022 60.884 208.582 56.6528 215C54.2319 218.672 54.1842 221.746 58 224M192 112C192.202 118.986 195.405 125.334 197.255 132C198.441 136.275 198.601 140.745 199.717 145C200.658 148.59 202.919 151.589 204.28 155C205.684 158.518 205.858 162.405 207.079 166C208.43 169.975 210.163 174.535 213.043 177.677C214.293 179.041 216.513 180.286 217.958 178.377C220.455 175.08 215.145 166.432 214 163C209.687 150.075 204.012 137.921 199.667 125C198 120.04 197.909 113.026 192 112z"></path>
	<path style="fill:#000;" d="M115 120C110.572 132.169 102.435 142.436 96.6574 154C94.2553 158.808 93.4391 164.039 91.5332 169C88.6487 176.508 84.0089 183.951 80.135 191C75.6974 199.075 71.1446 206.577 67.3781 215C66.2327 217.562 63.9824 220.057 64.0679 223C64.1749 226.682 67.3239 230.102 69.2577 233C73.1491 238.833 76.5931 244.989 80.1998 251C86.1756 260.96 91.7115 271.431 98.3549 280.961C103.723 288.66 110.125 295.997 114.996 304C119.338 311.133 122.311 319.015 127 326L129 326C141.225 298.558 158.983 273.384 169.24 245C172.042 237.246 178.28 229.462 178.62 221C178.801 216.519 176.719 212.185 175.435 208C170.296 191.245 158.501 177.859 151.633 162C146.816 150.876 147.329 139.524 141 129C136.991 137.327 136.388 147.035 135.676 156C134.962 164.993 133.55 174.07 132.271 183C131.168 190.698 130.081 201.652 124 207C124.543 216.453 111.198 229.755 101.434 222.972C98.3171 220.806 99.5024 216.692 102.149 214.742C104.705 212.859 107.993 213.027 111 213C111 198.752 113.298 185.008 114.871 171C115.65 164.067 114.613 156.96 115.09 150C115.696 141.136 118.518 128.383 115 120z"></path>
	<path style="fill:#fff;" d="M125 243L124 248C119.351 241.851 111.693 245.145 105 245.041C100.965 244.978 97.0564 244.025 93 244.001C90.2295 243.984 84.992 243.086 83.0324 245.6C80.6476 248.659 84.0088 252.633 85.7245 255.039C89.7421 260.675 94.1408 268.802 102 268C105.622 273.921 115.411 273.156 119.312 267.695C122.97 262.574 122.996 255.014 123 249L131 267C137.584 266.999 147.083 267.161 152.62 262.992C155.292 260.98 156.486 257.61 158.467 255.015C162.623 249.571 164.491 248.027 164 241C157.825 241.004 152.098 242.485 146 242.91C139.087 243.392 131.951 242.857 125 243z"></path>
	<path style="fill:#000;" d="M131 249C131.956 255.379 134.46 258.762 139 263C143.893 261.279 150.155 257.868 153.485 253.787C154.769 252.214 156.539 248.739 154.356 247.117C152.719 245.901 149.842 246.798 148 246.911C141.991 247.282 136.861 247.449 131 249M92 250C94.3237 255.488 105.613 270.83 113.273 264.971C117.132 262.02 116.988 254.305 117 250C108.788 251.955 100.353 250 92 250M87 280C84.5121 287.646 80.5505 295.265 78.6073 303C75.3115 316.119 75.5091 330.325 70.3958 343C67.8021 349.429 64.5627 356.152 63.2739 363C62.7149 365.97 63.2367 369.031 62.6103 372C61.7668 375.998 59.0882 379.776 60.6073 383.996C63.9025 393.15 71.8429 390.708 79 391.185C83.9911 391.518 89.0322 392.537 94 393.156C99.3668 393.824 104.598 395.534 110 395.91C118.869 396.529 129.106 395.636 138 394.907C142.164 394.565 145.857 392.496 150 392.104C161.991 390.97 173.496 391.47 184.961 386.856C189.669 384.962 193.682 380.71 198 378C195.545 373.609 192.666 368.771 191.068 364C190.32 361.768 190.5 359.312 189.458 357.17C188.147 354.472 185.567 352.645 184.16 349.985C177.499 337.396 173.153 322.508 168.667 309C165.711 300.099 160.2 290.348 160 281C151.137 296.664 143.27 312.808 135.373 329C133.564 332.708 132.422 343.364 127 343.364C124.971 343.364 123.459 341.737 122.831 339.941C121.114 335.033 122.195 329.996 119.559 325C116.398 319.012 110.554 315.306 106.647 309.961C99.6604 300.4 94.8645 289.011 87 280M54 358C48.3424 363.371 38.9284 368.501 35.0278 375.289C32.4175 379.832 34.1895 387.204 35.0494 392C35.9324 396.926 33.7711 401.31 36.3194 405.996C40.0226 412.805 45.4605 412.645 52 415.204C60.2788 418.445 67.4613 422.573 76 425.178C81.8667 426.968 87.8262 432.171 94 432.157C102.662 432.137 111.545 425.938 120 424C111.58 419.523 99.9449 422.17 91.0394 419.312C87.2464 418.094 83.7988 413.747 80.5748 411.385C73.3724 406.108 66.3856 400.805 59.8302 394.753C56.5408 391.716 53.1858 389.262 51.4383 384.996C47.5349 375.467 57.321 366.595 54 358z"></path>
</svg>