<?xml version="1.0" encoding="utf-8" standalone="yes"?>
<svg xmlns="http://www.w3.org/2000/svg" width="306" height="207">
	<path style="fill:#fff;" d="M288 60C288 71.1827 289.439 81.9097 290.211 93C290.922 103.201 289.267 113.717 290.093 124C290.84 133.292 293.389 142.72 294.738 151.985C295.397 156.508 296.13 161.883 296.06 166.424C296.012 169.57 294.553 172.793 295.333 175.941C296.079 178.956 298.983 180.34 301.942 179.663C306.075 178.717 306.008 174.439 305.988 171.004C305.942 163.069 303.656 156.694 302.425 149C301.605 143.876 300.196 138.351 300.063 133.17C299.808 123.234 301.451 113.08 300.96 103C300.742 98.5286 298.484 94.4426 298.47 90C298.425 76.3546 300.509 63.8288 293.416 51.429C291.426 47.9513 285.445 48.2945 282 47.841C273.328 46.6997 263.162 46.271 255 43.0046C241.698 37.6811 227.507 34.0178 214 29.1898C207.946 27.0259 202.772 23.2066 197 20.5532C192.884 18.6612 188.258 17.98 184 16.4591C180.243 15.1173 176.801 12.8605 173 11.6875C169.44 10.5888 165.628 11.3831 162.09 10.1497C158.489 8.89456 155.56 6.18021 151.999 4.77547C144.283 1.73193 130.286 -1.40659 122.059 0.228394C118.052 1.02461 117.541 5.12375 114.853 7.66049C110.85 11.4373 104.492 13.87 99.7145 16.625C82.9204 26.3089 65.3391 34.1817 48 42.7654C42.8386 45.3206 36.7971 49.2462 31.2855 50.7454C27.8957 51.6674 24.1686 50.5339 22.0278 54.1481C20.1677 57.2885 20.9303 62.0497 20.1512 65.5756C17.2775 78.5822 15.7958 92.3728 11.4568 105C5.99397 120.898 5.29388 138.514 1.78935 155C1.00753 158.678 -2.56253 169.668 3.27778 171.248C8.19437 172.579 10.7009 165.407 11.7022 162C15.2497 149.928 16.0308 136.428 18.2492 124C20.7586 109.942 23.4125 96.0242 26.1998 82C27.5719 75.0967 27.6378 67.1285 31.8804 61.2037C34.019 58.2172 36.8668 58.1687 40.0394 57.01C46.1473 54.7792 53.1374 52.3326 59 49.5864C64.1938 47.1535 67.7738 42.3877 72.8302 39.8218C77.1999 37.6043 82.4132 37.6682 86.9105 35.1798C92.4922 32.0913 97.5967 28.019 103.17 24.9414C106.267 23.2311 109.813 22.6767 112.791 20.6481C115.425 18.8539 117.162 16.2137 120.043 14.7184C130.913 9.07669 140.957 12.4287 152 16.0494C161.861 19.2825 171.439 22.7651 181 27.044C187.102 29.7749 193.809 30.1621 200 32.4645C208.647 35.6806 216.287 40.7567 225 43.7569C234.286 46.9545 244.512 47.4669 254 49.9236C265.517 52.9059 276.304 57.5988 288 60z"></path>
	<path style="fill:#fff;" d="M235 67L235 61C220.181 57.1612 204.869 55.6463 190 52.1011C174.478 48.4002 156.129 42.7159 142.054 35.1682C139.719 33.916 138.051 31.7979 135.741 30.5571C129.716 27.3215 120.673 26.0784 113.91 25.2199C111.682 24.937 107.607 24.4188 106.086 26.5841C104.452 28.9116 107.095 30.514 109.059 30.8519C118.469 32.4708 127.938 34.63 136.996 37.9691C143.904 40.5158 149.879 45.3359 157 47.9468C169.502 52.5307 182.877 57.0181 196 59.3843C201.94 60.4552 208.053 60.3763 214 61.304C221.645 62.4966 227.174 67.8004 235 67M76 47C92.351 46.8773 106.966 55.2642 122 61.1049C135.233 66.2462 149.588 68.4296 163 72.8495C169.993 75.1539 176.131 79.9288 183 82.6512C187.137 84.291 191.736 84.6483 196 86L196 88C191.358 89.1026 187.437 91.4121 183 93.0386C180.839 93.8306 178.215 94.0086 176.434 95.5995C174.108 97.6786 173.549 101.922 176.434 103.806C181.604 107.18 193.077 100.02 198 98C195.116 106.06 190.271 114.296 190 123C195.853 122.948 200.804 121.31 206 118.605C208.91 117.09 212.314 113.808 215.715 113.639C218.101 113.52 220.092 115.665 222.015 116.785C227.566 120.018 232.456 123.923 239 124C239.504 120.012 240.344 116.038 239.791 112C239.439 109.428 237.465 105.832 239.071 103.372C241.978 98.9184 252.44 106.355 256.768 105.049C260.188 104.016 259.102 100.307 257.877 97.9992C254.485 91.6108 249.861 84.3093 245 79C251.58 74.2489 260.522 75.0062 267.985 71.7955C271.069 70.4686 274.808 68.2356 273.214 64.2245C271.756 60.5568 267.09 60.9612 264 61.7855C254.294 64.3745 244.292 67.8251 235 71.6042C227.174 74.787 220.05 77.1918 212 79.6219C209.306 80.4351 206.883 81.8994 204 81.9444C198.239 82.0345 194.037 79.1672 188.91 77.314C179.183 73.7977 169.651 69.8905 160 66.2099C156.761 64.9747 153.262 64.9824 150 63.8156C143.962 61.6559 138.195 58.4251 132 56.7569C124.305 54.6847 117.366 54.1185 110 50.7052C102.802 47.3702 95.5286 44.9245 88.0895 42.3318C81.806 40.1419 76.2855 38.305 76 47M159 113C162.035 111.327 165.217 106.084 160.682 103.742C157.732 102.218 153.25 102.532 150 101.904C144.742 100.889 140.455 98.1806 135 99C131.361 92.3645 125.376 92.7294 119 90.2245C113.834 88.1951 109.107 85.066 104 82.8727C99.112 80.7735 93.9019 79.65 89 77.6551C83.0935 75.2514 77.5075 71.2295 71 73C68.4628 68.1495 61.5326 64.9341 56.0046 65.1019C51.4873 65.2389 48.3671 69.5205 51.6042 73.4676C56.0813 78.9268 63.8885 77.4932 69.5756 80.213C81.1282 85.7379 93.2195 89.3324 105 94.3333C110.854 96.8185 115.86 101.148 122 102.84C125.198 103.722 128.727 103.486 131.83 104.559C135.712 105.9 138.99 108.621 143 109.907C145.316 110.65 149.469 110.504 151.049 112.603C152.394 114.389 151.407 117.019 151.194 119C150.803 122.624 150.961 126.36 151.004 130C151.225 148.691 147.287 167.275 145.946 185.985C145.562 191.338 140.649 199.581 144.029 204.682C145.891 207.493 150.122 207.232 152.062 204.682C154.831 201.041 154.998 192.495 155.741 188C158.263 172.735 158.197 157.252 159.529 142C160.395 132.076 162.538 122.708 159 113z"></path>
	<path style="fill:#000;" d="M199 115C204.319 112.675 210.185 105.34 215.999 105.362C222.658 105.387 227.949 114.442 234 117C233.947 112.19 227.637 97.7981 234.148 95.5687C237.626 94.3779 244.066 96.9887 248 97C246.521 93.0917 242.658 82.3071 238.722 80.6181C231.064 77.3313 221.791 86.3068 216 89.6373C212.96 91.3858 207.188 91.8338 205.023 94.5887C201.508 99.0622 200.801 109.466 199 115z"></path>
	<path style="fill:#fff;" d="M247 110C246.798 112.584 245.628 116.32 247.067 118.682C249.032 121.907 254.825 121.128 258 120.91C262.717 120.588 269.529 121.359 273.91 119.917C278.114 118.533 281.696 115.469 286 114C284.408 109.252 281.065 110.92 277 111.857C269.946 113.483 252.777 121.145 251 110L247 110M97 148C104.044 150.932 111.971 158.039 119.961 156.772C123.043 156.284 134.716 151.226 130.214 146.782C126.665 143.279 121.858 149.79 117.985 149.462C110.732 148.848 105.884 141.34 98.0039 142.204C91.782 142.887 88.1008 150.995 82 150.848C77.4641 150.738 73.7499 144.914 70.9105 142.035C61.1168 132.107 43.5981 113.919 33.4136 133C31.9111 135.815 30.4094 139.698 30.4483 142.941C30.4804 145.617 32.8863 147.634 35.1505 145.377C39.036 141.504 38.3481 129.011 46.0401 129.427C50.6927 129.678 54.7072 134.649 57.3202 138.001C62.288 144.374 66.5358 150.762 74 154.581C81.9303 158.638 92.6905 155.582 97 148M125 172C121.558 172.385 119.763 172.976 118 176C112.221 174.149 106.184 171.932 100 172.093C93.515 172.262 87.7666 175.052 80.9961 175.003C77.8711 174.981 74.014 175.561 71.1736 173.972C63.3084 169.571 60.7538 159.612 52.0039 155.577C46.0732 152.842 37.8059 159.773 34.1489 164.015C32.8132 165.564 29.6501 170.177 33.3225 171.248C39.5974 173.079 41.9515 161.236 48.0394 162.596C58.2271 164.872 60.0314 176.742 68.3002 180.91C78.1287 185.866 90.0485 178.446 100 178.343C106.763 178.274 115.258 182.296 121.89 179.972C125.621 178.665 125.427 175.232 125 172z"></path>
	<path style="fill:#000;" d="M305 165L306 166L305 165z"></path>
</svg>