<?xml version="1.0" encoding="utf-8" standalone="yes"?>
<svg xmlns="http://www.w3.org/2000/svg" width="198" height="135">
	<path style="fill:#fff;" d="M104 6C96.9087 3.92896 92.8108 8.77833 86.0895 9.89507C66.3837 13.1692 47.2945 19.3908 28 24.8596C21.5723 26.6814 8.9569 27.8875 5.30324 34.1327C1.12688 41.2714 3.72008 50.3191 3.54475 58C3.42987 63.0329 3.66645 68.9777 2.73688 73.9105C2.20516 76.7321 0.572271 79.1309 0.188272 82.0147C-0.313291 85.7813 -0.314287 92.5432 5 92.5432C10.6437 92.5432 10.9467 85.0279 10.9961 81C11.0775 74.3751 10.525 67.6056 10.9884 61C11.51 53.5649 13 46.6403 13 39C38.3659 35.5843 63.6543 24.7161 88 17.3256C91.9678 16.1212 96.0324 16.5797 99.9961 15.6906C107.026 14.1138 113.462 10.2663 121 10.3434C137.604 10.5131 150.618 20.4126 165.09 26.8958C171.616 29.8197 179.985 30.8123 187 32C185.371 40.7749 186.58 49.2065 186.58 58C186.58 65.6858 185.289 73.3033 186.505 81C187.172 85.2218 185.406 95.5432 192 95.5432C199.582 95.5432 196.048 84.7867 195.9 80.5756C195.437 67.3515 196.068 54.2119 195.997 41C195.976 37.1189 197.92 31.6309 197.038 28.044C195.278 20.8854 179.766 20.6981 174 19.24C163.738 16.6448 153.647 12.981 144 8.46142C137.632 5.47807 132.025 1.95465 125 0.514664C118.607 -0.795868 107.872 0.162903 104 6z"></path>
	<path style="fill:#fff;" d="M107 73C114.212 74.0508 121.262 68.5491 128 66.3989C131.984 65.1274 136.047 66.3239 140 65.0409C150.224 61.7223 159.697 56.278 170.001 53.125C173.311 52.1121 187.444 45.0639 178.682 40.7461C174.533 38.7012 171.965 42.1287 168.741 43.8688C166.642 45.0013 164.183 45.1735 162 46.1173C157.348 48.1285 152.957 51.168 148 52.4429C145.021 53.209 141.946 52.9674 139 53.9552C134.135 55.5862 129.918 58.7444 125 60.2145C120.761 61.4816 116.244 61.5367 112 62.7847C106.068 64.5289 100.317 67.1125 94 67.3164C84.0591 67.6372 74.4414 63.8631 65 61.2824C59.7335 59.8429 54.6579 58.0588 50.0394 55.0494C47.2576 53.2368 45.0074 50.634 41.9606 49.2284C39.2297 47.9685 34.9449 47.3437 33.0324 50.3179C27.4683 58.9711 44.7674 60.3621 49 62.2346C63.0969 68.4709 74.319 75.4931 90 77.1659C95.7849 77.783 103.251 78.3782 107 73M97.314 92.0864C94.135 93.8954 95.7517 98.1529 95.6211 101C95.4647 104.413 94.0031 107.523 94.0548 111C94.1391 116.677 95.7422 122.293 96.0185 127.999C96.1574 130.867 97.5821 136.234 101.687 133.914C104.767 132.172 104.051 126.934 103.985 124C103.774 114.571 103.321 105.321 102.683 96.0193C102.499 93.3343 100.276 90.401 97.314 92.0864z"></path>
</svg>