<?xml version="1.0" encoding="utf-8" standalone="yes"?>
<svg xmlns="http://www.w3.org/2000/svg" width="482" height="506">
	<path style="fill:#fff;" d="M292 7C290.566 16.8346 302.851 26.6389 300.049 36.1158C297.023 46.3545 280.4 45.4901 276.288 54.1983C274.882 57.1757 277.359 59.6248 280.044 60.4861C283.824 61.6987 288.104 60.7877 292 61.6805C297.49 62.9386 302.482 65.7229 308 67C302.452 77.5814 304.405 89.8374 300.836 101C300.066 103.409 299.672 106.647 298.062 108.667C296.426 110.721 294.263 110.379 291.999 109.752C285.556 107.969 261.734 98.4219 269.328 113C270.419 115.095 271.79 117.011 273.055 119C274.745 121.659 276.207 124.409 278 127C274.116 128.617 270.963 131.431 266.999 132.906C260.298 135.399 252.895 135.929 246 137.756C242.669 138.639 238.111 141.74 234.73 141.593C227.844 141.294 225.746 128.078 221.674 124.019C218.865 121.219 215.973 119.433 212.576 122.323C210.967 123.69 209.545 125.405 208.17 127.001C206.237 129.244 204.539 131.668 202.718 134C200.19 137.239 198.175 140.044 197 144C188.293 137.939 181.077 130.035 173.754 122.424C171.08 119.646 167.212 116.316 168.292 112.004C169.867 105.717 178.72 99.055 182.735 94C184.277 92.0583 187.74 88.3134 185.914 85.6072C184.283 83.1887 180.151 84.6263 178 85.2855C173.625 86.6262 164.648 90.0323 160.213 88.3565C156.452 86.9353 155.259 81.3931 154.178 78C151.039 68.1461 148.841 56.2994 148 46L144 46C143.221 55.8796 145.199 64.2507 146.736 73.9854C147.579 79.3221 147.812 84.9196 150.584 89.7137C151.711 91.6618 153.158 94.4348 155.299 95.4005C160.482 97.7386 171.833 95.6224 175 91C174.146 95.9685 168.342 102.15 164.887 105.91C162.674 108.319 159.551 110.436 159.362 114.015C159.123 118.529 163.247 122.235 166.004 125.285C172.123 132.055 178.053 138.622 185 144.576C187.976 147.126 191.635 151.363 195.999 150.427C199.944 149.582 202.319 145.983 204.579 142.996C208.51 137.802 212.441 132.658 217 128C218.532 135.945 225.117 141.864 226 150C231.153 150.499 234.197 148.757 239 147.3C249.439 144.135 259.486 139.813 270 136.881C273.72 135.844 282.692 134.637 284.382 130.721C286.618 125.54 281.272 117.441 279 113C283.963 115.602 288.557 116.605 294 115C296.474 117.831 301.253 117.565 302.982 113.852C304.823 109.899 304.76 105.195 305.668 101C307.413 92.9398 309.954 85.0228 311.974 77.0394C313.017 72.9174 317.597 68.7672 314.968 64.3295C310.832 57.346 295.207 56.4875 288 55C294.497 51.3029 303.874 48.292 307.337 40.9599C309.016 37.4056 307.522 33.463 306.302 30.0008C303.964 23.3632 302.121 16.6636 299.837 10C298.77 6.8848 298.094 2.2774 294.772 0.742279C290.549 -1.20978 286.021 1.06586 282 2.25076C276.571 3.85068 271.301 3.86469 266.004 6.3125C263.455 7.4903 257.024 11.0138 261.362 14.2955C264.186 16.4323 268.336 13.5775 271 12.4244C277.915 9.43045 284.331 6.61905 292 7M235 21C236.394 29.8491 247.856 34.4008 251.338 43C252.638 46.2102 251.397 49.7112 250.95 53C250.15 58.8781 247.29 69.5141 242.853 73.6096C236.009 79.9254 225.555 81.6258 218 87C214.697 81.1352 208.297 75.614 203 71.483C201.283 70.1437 197.042 66.8612 195.086 69.6227C192.824 72.8142 198.111 77.8934 200.09 79.8302C206.432 86.0358 213.285 95.1034 223 91.8958C229.759 89.6642 235.897 86.1533 242 82.5934C244.524 81.1209 247.419 80.13 249.297 77.7755C253.348 72.6961 253.842 64.0769 255.725 58C256.981 53.9442 259.456 50.2177 260.133 46C260.863 41.4628 258.347 38.463 255.734 35.0394C250.749 28.5088 244.364 18.8337 235 21C233.29 10.755 221.421 19.3418 216 21.2508C213.715 22.0554 211.306 22.4749 209 23.2276C206.378 24.0833 202.731 24.6042 200.699 26.5887C195.977 31.1995 197.784 40.0725 196.675 46C195.771 50.8335 193.149 55.0769 192.444 59.9992C192.106 62.364 192.51 68.3452 196.52 65.9136C199.232 64.2693 199.777 59.7873 200.421 57C202.131 49.5919 201.564 39.6055 206.008 33.1327C211.727 24.8043 226.454 24.8061 235 21M395 122L393 111C399.492 111.549 400.814 106.254 402.692 101C406.167 91.2802 409.73 79.3839 409.985 69C410.107 64.0367 411.603 56.8596 406 55C402.739 64.127 403.294 73.6845 401.14 83C399.241 91.2128 394.907 98.7589 393 107C391.512 98.2387 390.475 87.9721 391.09 79C391.596 71.6034 394.11 63.2042 392 56C385.702 59.4729 388.041 70.5988 387.285 77C384.987 96.4798 388.117 116.85 391.975 135.999C392.759 139.891 395.359 143.135 395.867 147.039C396.96 155.43 391.538 174.285 405 174.242C415.24 174.209 419.392 163.391 420.497 155C421.154 150.008 419.625 145.072 420.44 140C421.787 131.611 425.235 124.069 427.181 115.985C430.073 103.972 430.403 91.1708 430.961 79C431.28 72.0145 432.29 65.0082 431.981 58.0046C431.889 55.9249 430.899 50.7588 427.584 53.0864C424.846 55.0095 426.085 61.1545 425.961 64C425.515 74.1675 425.796 85.153 423.285 95C420.794 104.773 421.137 115.23 418.846 125C416.908 133.267 417.216 141.826 415.482 150C414.145 156.307 410.766 161.866 409 168C400.558 165.461 403.76 160.064 402.812 153.015C402.464 150.432 401.072 148.321 400.505 145.83C398.984 139.14 398.706 133.599 396 127C404.557 126.366 409.363 117.963 412.958 111C417.13 102.918 416.662 92.8163 418.146 84C418.791 80.1655 420.621 76.7642 421.471 73C423.069 65.928 423.85 57.264 424 50C417.398 51.0985 418.925 56.629 417.531 61.8302C416.465 65.8067 415.078 68.7495 415.003 73C414.858 81.2336 411.884 89.1578 409.569 97C406.187 108.458 407.454 116.5 395 122M343 55C341.722 60.1149 343.872 64.9901 345.127 70C347.635 80.0216 350.373 89.9786 352.873 100C353.996 104.499 353.531 111.212 356.448 114.87C360.328 119.736 369 123.466 375 122C375.058 124.785 375.352 127.291 376 130C371.756 130.434 367.221 133.422 363 132.138C358.317 130.713 355.374 126.705 352.35 123.169C347.776 117.82 345.775 112.256 342.742 106C338.478 97.2069 334.283 91.1073 333.986 81C333.788 74.2439 331.641 67.7244 330.945 61.0193C330.745 59.0917 329.985 55.8719 327.259 56.7515C324.339 57.6938 325.328 61.8308 325.657 64C326.725 71.0579 325.712 77.7675 328.543 84.5756C331.038 90.5742 331.125 96.9445 333.045 103C335.165 109.688 340.351 116.496 344.36 122.17C346.772 125.585 348.395 129.611 351.515 132.505C358.612 139.087 367.686 139.387 376 136C376.692 144.763 377.376 154.473 379.514 163C381.162 169.572 384.68 175.92 387.755 181.91C388.992 184.319 389.394 187.213 391.444 189.11C399.479 196.54 417.05 190.773 422.687 182.829C440.042 158.373 436.213 125.195 440.13 97C441.195 89.3403 441 81.7226 441 74C441 71.3513 441.79 66.8377 439.977 64.6227C438.371 62.6602 435.809 63.9248 435.447 66.1489C435.017 68.7865 436.749 71.3316 436.612 74C436.282 80.4214 435.243 87.5355 434.425 94C433.906 98.1047 435 101.933 434.791 106C433.758 126.101 431.086 148.06 424.308 167C421.314 175.365 410.51 188.53 400 185.282C390.076 182.215 387.171 167.948 385.87 159C384.221 147.655 381.28 136.427 380.17 125C378.974 112.689 378.735 100.284 377.285 88C376.274 79.4273 377.462 71.3914 378.671 63.0008C378.972 60.9103 379.139 56.6358 376 56.6358C372.297 56.6358 373.005 62.6812 373 65C372.981 74.0707 373.028 82.9793 372.17 92C371.389 100.206 373 108.727 373 117C370.863 116.396 367.794 116.462 365.988 115.089C359.705 110.312 357.66 101.147 355.873 94C352.748 81.4983 350.777 66.5073 345 55L343 55M50 175C37.1523 171.717 26.5458 185.547 15 190.023C10.9704 191.585 2.26289 192.363 0.697531 197.133C-0.272031 200.089 1.82371 203.323 2.02238 206.285C2.57568 214.535 3.34211 222.746 3.91049 231C4.33425 237.153 6.10179 243.903 5.79089 250C5.3596 258.458 3.41634 268.537 5.50849 276.907C6.54186 281.04 11.7996 281.945 12.5123 286.104C14.1432 295.621 10.9426 305.257 13.5756 315C16.7511 326.75 20.9787 337.717 21 350C21.0073 354.189 20.672 360.524 25.2137 362.717C30.9571 365.489 37.7036 358.871 39.3156 354C40.9454 349.075 39.7781 344.922 40.2485 340C41.1697 330.358 42.9729 320.812 43 311L37 311C36.961 315.707 36.0595 320.3 36.0039 325C35.9208 332.016 36.7145 339.096 35.1111 346C34.655 347.964 31.9415 357.568 28.3171 354.94C25.5838 352.958 26.963 344.068 26.5764 341C25.726 334.253 29.3084 330.294 30.7099 324C32.7728 314.735 32.1919 306.299 32 297C40.7457 310.638 55.266 312.396 70 308C70.1174 310.73 70.4992 313.314 71 316C67.7747 317.266 60.9463 319.23 58.6034 321.603C56.3621 323.873 57.019 328.096 56.8696 331C56.4123 339.89 61.1508 347.891 59.3627 357C57.5875 366.042 51.2194 374.42 47.8002 383C42.9305 395.22 40.3422 408.529 36 421C33.1577 429.163 29.2148 436.967 25.9861 445C24.3705 449.02 21.7335 453.233 27 455C29.3335 449.557 32.8028 444.547 34.8711 439C40.1564 424.826 44.1054 409.92 50.1728 396C54.1593 386.855 57.8721 377.944 61.2361 368.576C62.5477 364.923 65.0112 361.925 65.6667 358C66.3506 353.904 64.9995 350.015 64.4529 346C63.5811 339.595 63.0536 332.481 63 326C67.6841 325.191 75.3597 323.819 77.3819 318.79C78.7773 315.32 76.8854 310.422 76 307C79.578 306.97 84.483 305.19 87.8519 306.067C91.5035 307.018 94.2688 317.632 93.7276 320.981C92.8863 326.189 83.6087 329.544 79 329.98C75.7875 330.284 70.4498 327.858 70.3573 333.059C70.305 335.998 71.8137 339.127 72.385 342C73.572 347.968 74.4956 354.01 75.5756 360C79.1754 379.966 82.5413 399.996 85.919 420C87.1805 427.471 88.1952 434.448 88.2245 441.981C88.2317 443.819 88.6685 446.364 91.0394 446.364C97.1213 446.364 93.7714 435.147 93.2469 432C90.5218 415.649 87.4832 399.349 84.7531 383C82.447 369.19 78.6393 354.977 77.6489 341.015C76.9182 330.714 94.6193 333.513 99.3927 327.683C102.807 323.513 97.482 309.877 96 305C104.125 304.192 111.73 303.695 120 303.884C123.336 303.96 128.533 304.98 131.454 302.976C139.474 297.477 137.774 283.153 138.243 275C138.571 269.31 136.786 263.793 137.039 258C138.012 235.746 139 213.262 139 191C128.893 187.39 115.768 186.851 105 186C106.58 181.664 106.413 177.329 107.684 173C108.34 170.763 110.38 167.882 108.917 165.564C107.759 163.728 104.901 163.378 102.999 162.85C97.2305 161.245 91.7646 158.143 86 157C88.1544 150.636 87.3725 144.507 88.3002 138C89.1284 132.19 91.6059 126.841 90 121C103.03 115.214 116.494 114.056 130 110C130.5 98.3628 133.903 87.2775 135.667 76.0008C136.1 73.2262 134.609 66.8535 130.737 70.6227C128.919 72.3918 128.813 75.6721 128.259 78C126.564 85.1326 128.372 96.5934 124.062 102.657C121.982 105.583 118.238 106.257 115 107.15C110.362 108.43 105.765 110.265 101 110.981C96.4289 111.669 91.2052 110.814 87.3951 113.971C84.0879 116.711 84.9088 120.215 84.625 124C84.2643 128.811 83.6046 133.162 83.5856 138C83.5585 144.92 77.7818 151.793 79.3573 158.956C80.0947 162.309 83.1304 163.59 86.0008 164.796C91.9547 167.296 97.6778 168.809 104 170C101.836 174.952 99.3484 179.53 99 185L90 183C91.9086 180.207 95.7049 174.997 93.7168 171.434C91.7291 167.871 85.3385 169.231 82 168.391C74.1835 166.426 65.4924 161.21 62.75 171.976C62.3202 173.664 62.1506 175.272 62 177L56 177C56.1361 160.563 60.5454 143.215 63.2469 127C64.274 120.835 64.1729 111.452 68.0046 106.299C72.8396 99.7963 84.6261 98.2736 92 96.615C94.7035 96.0068 98.2521 95.8815 100.486 94.0617C103.656 91.4793 103.663 84.7012 105.143 81C106.331 78.029 108.98 73.4319 108.048 70.1489C106.978 66.3806 102.781 67.504 101.175 70.1489C97.5443 76.1281 101.122 83.9341 94.7014 89.0062C90.4408 92.3719 84.9642 92.3599 80 93.7184C76.8714 94.5746 74.071 96.2993 71 97.3349C67.6604 98.461 63.2309 99.2626 61.0239 102.299C57.9252 106.563 58.6187 116.709 57.7539 122C54.9444 139.188 50.1441 157.59 50 175M295 229C288.801 227.525 282.336 228.159 276 228.151C269.711 228.144 263.275 227.521 257 228.104C254.3 228.355 251.713 229.582 249 229.582C246.287 229.582 243.7 228.355 241 228.104C235.175 227.563 228.841 227.718 223 228.043C218.592 228.289 214.371 229.937 210 230.572C199.472 232.1 188.607 233.062 178 233.914C171.327 234.451 164.674 235.453 158 235.91C154.772 236.132 151.191 235.486 148.04 236.318C145.118 237.09 142.605 239.781 142.427 242.897C142.26 245.813 145.025 247.443 147.019 249.039C151.832 252.892 156.373 257.082 161 261.155C177.261 275.47 193.335 289.644 211.001 302.065C214.905 304.81 220.134 304.935 223.772 307.738C227.535 310.639 226.912 315.82 228.055 319.961C229.585 325.506 232.764 330.167 233.896 336C234.677 340.027 233.303 346.321 238.21 348.214C241.327 349.416 244.465 347.245 244.558 343.96C244.676 339.796 240.786 335.944 239.644 331.996C237.296 323.889 239.74 311.418 234.976 304.314C233.46 302.053 230.273 301.577 228 300.37C221.146 296.731 213.291 294.051 207.039 289.363C204.015 287.095 201.753 283.959 198.961 281.424C189.769 273.082 180.258 265.101 171 256.834C165.934 252.311 161.064 247.142 155 244C162.909 241.64 171.803 241.712 180 240.834C195.862 239.136 211.13 237.975 227 238C231.624 238.007 236.393 238.324 241 237.896C244.035 237.614 246.925 236.192 250 236.479C261.398 237.545 273.185 236.754 284.576 238.019C289.373 238.551 296.199 241.279 300.87 239.393C303.251 238.432 304.344 236.089 305.82 234.165C308.915 230.133 312.112 226.018 315.336 222.09C327.214 207.619 337.215 189.686 351 177C349.103 183.917 353.784 188.435 354.787 195C355.694 200.94 354.614 207.047 355.171 213C356.139 223.356 358.73 233.767 360.576 244C366.515 276.929 370.882 310.088 376.924 343C378.183 349.854 381.736 355.978 382.795 363C384.253 372.673 383.778 382.244 385.414 392C388.209 408.667 389.995 425.577 394.035 442C395.096 446.311 395.665 458.17 402.853 455.377C406.253 454.056 406.048 449.993 405.714 447C404.818 438.967 403.019 431.674 400.594 424C397.618 414.582 397.812 404.668 396.246 395C395.224 388.686 394.438 382.225 392.961 376C391.781 371.031 389.619 366.224 389.853 361C390.085 355.832 392.422 350.035 393.715 345C394.552 341.736 394.782 338.081 396.453 335.094C398.363 331.682 401.876 330.234 405 328.18C411.304 324.033 417.301 318.371 424.039 315.04C429.169 312.505 435.201 312.06 437 306C441.654 305.984 447.616 305.81 448.624 299.995C449.345 295.84 445.647 290.776 444.193 287C440.403 277.157 437.505 266.875 433.66 257.105C432.317 253.695 428.702 251.626 425.015 252.361C421.094 253.143 419.779 256.931 417.521 259.715C413.18 265.066 409.073 271.367 404 276C405.782 271.38 407.224 266.38 409.879 262.17C413.007 257.208 417.347 253.172 420.204 248C423.395 242.225 424.921 234.216 430 230C432.936 236.144 438.496 240.928 441.79 247C448.848 260.008 454.651 274.422 460.576 288C463.182 293.972 469.206 302.369 469.011 309C468.794 316.378 461.66 320.178 457.3 325.039C449.773 333.432 442.236 341.216 433.576 348.502C428.125 353.087 421.086 356.455 417.649 363.209C415.368 367.691 416.588 372.291 416.91 377C417.314 382.905 417.22 389.088 416.961 395C415.808 421.316 414 447.619 414 474C405.548 472.063 400.821 479.302 393 481.572C374.646 486.899 355.713 492.627 337 496.485C318.783 500.242 300.689 498.678 283 493.197C274.759 490.643 267.55 485.334 259 483C259.889 478.857 259.196 476.562 257 473C261.34 471.969 266.206 468.275 270.576 468.275C273.826 468.275 276.845 470.913 280 471.61C285.546 472.836 291.384 472.65 296.91 474.184C302.871 475.839 307.503 478.867 314 478.83C319.501 478.799 331.692 482.964 334.381 475.891C335.853 472.02 332.997 468.065 330.996 465C326.658 458.354 321.861 451.936 318 445L319 444C328.611 445.012 331.631 433.687 330.575 426C329.813 420.454 327.484 416.215 325.75 411C321.616 398.564 318.761 390.314 304 390C303.77 382.215 297.03 374.266 298.336 366.424C299.535 359.222 308.441 355.889 311.005 349C313.043 343.523 309.021 337.438 303.185 341.604C297.912 345.369 296.934 353.09 293 358C292.041 353.804 289.102 347.282 291.117 343.108C293.463 338.248 300.373 339.624 302.914 335.509C304.365 333.159 302.162 331.419 299.941 331.333C296.148 331.185 291.663 333.05 288 334C286.999 332.076 286.922 331.902 285 331C296.063 310.005 294.535 279.909 317 267C320.717 278.191 315.447 286.453 311.836 297C310.026 302.286 309.414 306.938 306.787 312C305.288 314.889 299.493 326.554 302.618 328.953C304.803 330.63 307.635 328.782 308.836 326.852C311.189 323.069 310.425 318.124 311.637 314C312.782 310.106 315.763 307.456 317.309 303.83C318.635 300.719 318.31 297.189 319.424 294C322.593 284.926 327.817 274.676 322.682 265.059C316.654 253.769 303.185 267.248 299.146 273.455C296.667 277.264 295.737 282.706 294.33 287C291.169 296.653 288.211 306.365 285 316C283.616 320.153 282.869 326.13 280.146 329.606C276.596 334.139 267.938 336.008 263 339C264.637 334.702 266.661 330.665 267.164 326C267.759 320.485 266.725 314.618 267 309C267.145 306.042 269.052 301.139 267.637 298.434C266.282 295.845 262.452 296.027 260 295.489C252.991 293.952 248.163 289.553 241 289L240 290C241.547 295.845 243.121 301.995 243.882 308C244.307 311.355 243.522 314.644 244.174 317.999C244.892 321.701 247.033 324.572 248.076 328.09C249.772 333.809 250.433 340.137 252 346C245.515 347.54 239.336 353.691 232.996 354.041C218.271 354.854 203.816 347.008 189 348.122C186.586 348.303 184.387 349.349 182 349.621C178.078 350.069 169.102 347.445 167.828 353.11C166.752 357.894 173.5 364.41 175.975 368C184.292 380.067 195.618 392.865 200 407C194.547 410.575 194.952 417.126 195.117 423C195.379 432.397 199.65 449.063 209.039 453.501C211.61 454.716 214.293 454.062 217 454C212.768 460.384 212.158 468.016 209.451 475C208.326 477.902 205.989 480.11 204.858 483C203.709 485.936 203.82 489.993 207.148 491.393C210.323 492.728 213.889 491.022 217 490.36C227.266 488.178 235.996 482.882 246 480C241.975 487.591 247.324 490.45 254 492.95C263.525 496.517 273.847 498.367 283 502.575C292.823 507.09 302.691 505.05 313 505.001C321.506 504.96 330.571 505.914 339 504.7C347.386 503.492 355.825 500.365 364 498.151C375.298 495.091 386.857 492.557 398 488.971C405.562 486.537 412.185 480.159 420 479C421.545 470.677 420.515 462.388 421.09 454C422.412 434.689 422.588 415.31 423.91 396C424.385 389.072 423.023 381.765 424.876 375C425.686 372.04 426.215 367.836 427.988 365.302C429.616 362.978 432.683 362.397 435 360.999C437.877 359.264 440.485 356.93 442.999 354.714C447.001 351.187 449.723 346.965 453.209 343.015C458.662 336.837 464.673 331.312 470.084 325.019C473.192 321.406 478.699 319.274 480.806 314.981C482.765 310.99 480.017 308.183 478.089 304.91C475.691 300.842 473.782 296.313 471.861 292C463.907 274.141 455.977 256.14 446.603 239C442.351 231.225 440.013 223.162 431 220.04C422.567 217.119 422.259 225.666 418.22 230.576C407.72 243.339 401.159 259.162 394.22 274C392.177 278.369 383.998 288.029 387.032 292.682C389.712 296.793 395.187 293.888 398 291.656C401.983 288.496 405.357 284.604 409.282 281.366C414.742 276.86 421.652 272.317 425 266C428.188 273.158 430.661 280.666 433.424 288C434.401 290.593 436.372 294.042 435.454 296.891C434.197 300.795 427.208 302.471 424 304.499C412.455 311.797 391.994 316.73 387 331C382.845 321.169 382.857 309.416 380.715 299C376.469 278.359 372.488 257.725 368.611 237C366.616 226.333 365.434 215.42 362.344 205C358.845 193.201 365.61 179.809 354.356 171.164C352.638 169.845 351.125 167.936 348.897 167.492C342.441 166.203 336.541 176.697 333.365 180.961C327.566 188.746 321.202 196.123 315.49 204C312.964 207.483 311.358 211.599 308.613 214.91C304.534 219.832 298.454 223.778 295 229z"></path>
	<path style="fill:#000;" d="M69 172C68.3521 174.709 68.0583 177.216 68 180C73.6482 180.714 79.3083 181.756 85 182C85.0654 179.556 85.4681 177.39 86 175C80.3316 173.839 74.7588 172.766 69 172M10 274C16.054 277.604 20.7169 282.913 26.1698 287.29C30.1962 290.523 34.758 292.756 38.9606 295.672C42.9766 298.458 46.082 302.169 51 303.502C56.2606 304.927 60.8679 302.59 66 302.104C72.9754 301.444 80.0406 301.525 87 300.829C91.0515 300.424 94.9535 298.965 99 298.633C106.969 297.981 115.014 298.555 123 298.086C125.238 297.954 129.217 298.633 130.651 296.397C132.024 294.255 130.966 290.385 130.888 288C130.694 282.067 130.717 275.931 130.802 270C130.947 259.987 131.951 249.965 131.999 240C132.053 228.779 131.083 217.143 131.758 206C131.984 202.283 132.968 198.78 133 195C130.092 194.917 128.308 194.759 126 193C110.38 195.9 94.9225 189.364 80 185.704C70.1309 183.284 60.953 183.973 51 184L51 181C44.1601 181.08 40.0677 184.739 34 187.333C27.8492 189.962 22.1606 193.641 16 196.215C13.5946 197.22 9.70312 197.522 8.03164 199.728C6.49812 201.751 7.45151 204.735 7.71451 207C8.33618 212.353 8.04395 217.648 8.91975 223C10.2863 231.351 9.80829 239.576 10.0147 248C10.2333 256.926 11.1323 265.04 10 274z"></path>
	<path style="fill:#fff;" d="M46.5841 192.086C45.0746 193.147 45.0667 195.367 45.1088 197.005C45.2353 201.928 46.034 207.121 46.7292 212C49.5186 231.577 50.8108 251.345 53.4244 271C54.168 276.592 53.2982 282.439 54.159 287.941C54.4681 289.918 56.1007 292.54 58.4159 290.914C59.9166 289.859 59.9491 287.628 59.8873 285.995C59.7026 281.109 58.2261 275.891 57.5756 271C54.9168 251.005 54.5292 230.971 52.8264 211C52.3875 205.852 52.3928 200.05 51.0216 195.059C50.5009 193.164 48.9383 190.432 46.5841 192.086M119 207C119 215.101 119.689 222.908 118.897 231C118.529 234.752 116.903 238.211 116.725 242C116.421 248.444 117.988 254.657 117.917 261C117.836 268.297 117.016 275.574 117 283C109.3 283 102.524 285.106 94.9992 285.802C89.6261 286.299 84.4664 285.49 79 286.271C76.2193 286.668 67.2142 286.695 68.7515 291.698C69.9293 295.53 78.2801 292.033 81.0895 291.95C84.8613 291.838 88.2864 290.547 92 290.22C98.9909 289.604 106.027 290.374 113 289.246C116.015 288.758 121.159 288.8 123.378 286.4C126.199 283.35 122.486 275.201 123.529 270.91C125.449 263.019 123.495 254.944 123.26 247C123.031 239.259 123.696 230.824 124.039 223C124.288 217.339 127.036 208.683 124.397 203.318C122.696 199.862 114.379 200.315 111 199.576C98.0694 196.745 85.0657 195.064 72 192.92C68.9804 192.424 58.1014 189.097 56.7515 193.26C55.1922 198.069 68.3334 197.483 71 197.92C77.6443 199.007 84.4737 199.586 91 201.286C100.32 203.715 109.233 206.919 119 207M87 214C92.2272 221.971 105.228 215.983 113 215C111.01 208.852 100.828 206.251 97 212C92.2887 209.706 84.8801 204.038 81 210L78 210C75.273 204.221 69.6953 201.012 64 205C62.5774 202.589 58.2512 199.716 56.9552 204.232C56.2599 206.655 57.9846 210.617 59.3904 212.566C62.8599 217.374 66.6241 211.388 70.561 211.675C73.0756 211.858 74.8316 214.632 77.1705 215.432C80.5047 216.572 83.8891 215.134 87 214M81 230C78.2139 222.65 71.4151 224.382 66 228C65.4305 226.129 64.9788 224.081 63.3511 222.782C61.1361 221.013 57.9714 222.133 57.8488 225.11C57.6666 229.529 62.2086 236.232 67 235.664C69.8553 235.325 72.0977 232.54 75.0502 233.001C79.1085 233.635 81.3413 236.557 85.9113 235.852C88.6107 235.435 90.8953 232.459 93.5756 232.676C98.4355 233.069 100.597 240.566 106.316 236.566C108.559 234.996 111.915 229.161 107.685 227.743C105.376 226.969 103.129 228.859 100.715 228.093C97.6558 227.122 95.417 225.124 92.0039 225.203C87.9285 225.297 84.6621 228.533 81 230M88 255C84.4185 251.019 79.2572 245.341 73.1713 247.603C70.8956 248.449 68.9389 250.586 67 252L67 247L60 247C60.077 249.645 59.9966 251.266 62 253C61.6149 256.012 61.9081 260.133 66.0432 260.133C70.4412 260.132 72.009 254.354 76.0895 254.167C80.6289 253.96 83.5063 259.858 87.9992 260.423C92.9681 261.047 94.6464 255.912 98.2353 253.848C104.237 250.396 110.625 257.605 114 248C110.789 247.117 108.263 247.73 105 247.646C102.295 247.576 99.712 246.241 97.0039 246.413C92.2437 246.715 89.8189 251.188 88 255M87 270C80.9857 268.619 76.4382 270.447 71 273C69.7774 269.313 67.6916 269.12 64 269C63.3979 273.501 64.7869 276.737 66 281C68.7164 281.263 71.2677 281.682 73.6752 280.071C75.5532 278.814 76.7108 276.418 78.8989 275.63C81.9046 274.548 85.5714 276.588 88.7909 275.683C91.4925 274.923 93.4923 272.266 96 271C98.8764 275.436 102.21 272.566 106.486 273.563C109.642 274.299 111.538 275.886 115 276C114.963 272.897 115.053 269.687 112.682 267.318C108.652 263.29 103.138 264.787 102 270C96.7393 265.989 90.0458 261.537 87 270z"></path>
	<path style="fill:#000;" d="M 17 287 C 18.834 296.877 17.74 307.027 19 317 C 22.477 308.713 18.889 297.866 21 289 L 17 287 M 24 292 L 24 321 C 26.977 316.667 27.254 310.167 26.911 305 C 26.64 300.921 25.16 297.499 29 295 L 24 292 M 248 297 C 248 305.183 249.831 311.126 251.583 318.961 C 253.078 325.649 253.854 332.214 258 338 C 260.268 329.641 260.316 321.525 260.043 313 C 259.95 310.081 261.312 306.014 259.883 303.34 C 257.94 299.705 251.629 298.21 248 297 M 181 357 C 183.258 364.085 188.517 369.917 192.656 376 C 197.111 382.548 201.154 390.532 207.576 395.411 C 210.597 397.706 214.661 397.449 217.7 399.728 C 222.901 403.627 226.685 410.759 230.421 416 C 232.413 418.794 234.75 421.596 235.58 425 C 237.619 433.361 231.661 441.746 228.452 449 C 224.07 458.906 221.783 469.851 218 480 C 222.438 479.087 227.967 479.172 232 477.161 C 239.84 473.252 247.559 467.522 255 462.824 C 258.887 460.37 264.35 456.581 269 456.027 C 275.4 455.264 282.384 461.456 288 463.802 C 294.87 466.673 300.92 466.516 308 467.63 C 312.464 468.333 316.568 470.237 321 471 C 318.469 465.649 314.78 461.042 311.711 456 C 310.328 453.729 309.678 450.693 308.016 448.653 C 306.258 446.495 303.304 446.303 301 445.015 C 297.678 443.159 294.7 439.992 292.394 437 C 288.912 432.482 289.524 428.277 288.791 423 C 287.334 412.517 287.397 401.016 298 395 C 291.357 385.114 289.138 374.297 286.239 363 C 284.279 355.36 281.167 349.096 281 341 C 275.797 342.081 272.38 346.099 267.715 348.436 C 262.494 351.051 257.093 352.272 252 355.547 C 247.934 358.162 243.818 362.514 238.961 363.569 C 234.018 364.643 228.935 361.454 224 361.09 C 209.7 360.037 195.319 357.615 181 357 Z"></path>
	<path style="fill:#fff;" d="M131 352.429C123.413 353.491 115.559 353.9 108.039 355.223C103.386 356.042 99.9241 357.814 95.0147 358.019C92.758 358.112 85.2884 360.539 89.6219 363.821C91.8109 365.479 95.5768 364.357 98 363.905C104.985 362.603 111.978 361.188 119 360.209C124.66 359.421 132.975 357.827 138.576 359.127C146.604 360.99 155.278 368.008 161.227 373.446C166.147 377.944 164.002 383.892 164 390C163.994 404.31 163.355 417.822 161.425 432C160.788 436.684 160.24 442.23 160.434 446.941C160.502 448.595 161.118 450.364 163.09 450.364C166.83 450.364 166.945 445.634 166.995 443C167.163 434.26 168.997 425.743 169 417C169.005 404.225 169.976 391.789 169.34 379C169.202 376.235 171.13 372.923 170.268 370.302C169.263 367.251 162.6 365.322 160.015 363.731C149.98 357.555 143.65 350.658 131 352.429M156 379L156 373C149.286 373.075 143.363 375.719 137 377.52C130.076 379.48 122.927 379.724 116.09 381.414C113.279 382.109 110.88 383.523 107.985 384.074C105.986 384.455 93.0768 387.927 98.6227 391.919C101.524 394.007 110.728 389.542 114 388.711C122.095 386.653 130.833 386.866 139 384.625C144.79 383.036 149.966 379.409 156 379M66 397C70.2212 410.892 69.9243 427.552 71.0856 442C71.5193 447.395 70.5509 455.88 77 457C77 438.821 74.7923 420.025 72.4244 402C71.8342 397.507 73.838 386.37 67.8657 384.752C62.1458 383.202 61.1489 397.622 60.0262 401C55.1839 415.569 47.4775 430.62 45.6173 446C45.15 449.863 41.9167 454.876 43.7431 458.677C44.7925 460.862 47.1903 460.777 48.2623 458.677C49.2792 456.686 48.975 454.167 49.5563 452.039C50.2571 449.474 51.8548 447.323 52.9136 444.91C55.7726 438.395 55.9878 431.651 58.0548 425C61.0554 415.344 65.1619 407.345 66 397z"></path>
	<path style="fill:#000;" d="M319 439C322.925 429.737 319.4 417.928 315.571 409C313.71 404.661 310.739 399.653 305.174 401.569C301.16 402.95 299.219 407.235 298.159 411.001C295.681 419.804 296.365 427.041 303.213 433.852C306.919 437.538 314.001 438.154 319 439M208 407C207.851 411.695 205.589 415.432 204.972 420C203.8 428.684 208.889 442.949 217 447C219.671 441.602 225.205 435.2 225.592 429C225.783 425.931 223.805 423.358 222.111 421C218.427 415.874 214.635 408.073 208 407M248 478L247 480L249 480C249 478.147 249.3 478.65 248 478z"></path>
</svg>