<?xml version="1.0" encoding="utf-8"?>
<svg xmlns="http://www.w3.org/2000/svg" width="512" height="512">
	<path style="fill: #ffffff; stroke: none; opacity: 0.73;" d="M 15 512 L 512 512 C 512 505.165 516.737 514.839 516.549 506.974 C 516.417 501.445 503.836 480.29 500.529 476 C 495.172 469.05 491.76 460.584 487.421 453 C 470.611 423.612 458.576 392.019 441.2 363 C 433.132 349.525 426.425 336.263 413 327.356 C 403.547 321.084 393.16 316.658 383 311.742 C 369.396 305.159 355.863 298.456 342 292.424 C 331.637 287.916 313.999 282.035 307.858 271.985 C 301.629 261.792 308.19 248.805 313.397 240 C 315.167 237.006 319.671 228.6 319.671 228.6 C 319.671 228.6 321.967 228.567 322.355 228.581 C 327.664 228.772 332.64 228.237 336.727 222.393 C 341.489 215.585 345.555 208.701 348.308 201 C 351.913 190.915 353.405 179.727 351.787 169 C 351.267 165.55 348.874 163.369 348.684 159.847 C 348.337 153.408 350.763 143.877 350.828 137.436 C 350.91 129.348 353.852 129.031 353.106 124.436 C 351.68 115.659 346.29 108.268 341.694 101 C 334.006 88.842 326.027 79.024 316.529 68.975 C 313.645 65.924 310.525 62.042 307.325 59.17 C 298.613 51.351 292.268 38.066 282.999 31.352 C 276.291 26.493 267.331 24.566 258.954 24.692 C 256.953 24.722 254.836 23.113 252.97 22.673 C 251.107 22.233 249.282 24.926 247.58 24.075 C 242.336 21.451 238.973 20.648 235.457 22.695 C 234.567 23.213 233.982 24.069 232.835 24.233 C 231.046 24.489 228.925 24.06 227.015 24.803 C 225.718 25.307 224.033 26.881 222.147 28.935 C 220.426 30.81 218.681 33.703 216.765 35.928 C 214.156 38.959 210.559 41.726 208.583 43.866 C 206.782 45.816 204.91 47.01 203.223 48.712 C 200.018 51.947 197.526 54.522 194.52 57.704 C 181.911 71.056 172.024 86.007 165.862 104 C 161.655 116.285 160.843 130.262 163.084 143 C 164.16 149.115 166.595 154.863 167.561 161 C 168.618 167.715 168.663 175.198 168.961 182 C 169.248 188.566 168.757 196.677 168.823 204.17 C 168.863 208.831 168.487 213.212 170.573 216.956 C 174.299 223.643 181.728 222.309 187.628 222.576 C 188.678 222.624 188.401 222.397 189.284 223.134 C 190.475 224.128 191.005 225.848 191.678 227.698 C 192.727 230.582 193.693 233.88 194.753 236 C 198.956 244.406 204.918 251.739 207.116 261 C 207.877 264.206 208.88 267.793 207.454 270.961 C 205.991 274.21 202.723 276.319 199.999 278.421 C 193.312 283.581 185.708 287.821 178 291.269 C 151.469 303.138 121.889 308.47 98 325.745 C 78.285 340.002 69.322 365.325 60.348 387 C 59.001 390.254 58.634 393.84 57 396.981 C 56.343 398.244 56.071 400.167 55.431 401.701 C 55.093 402.512 55.755 401.924 52.983 402.159 C 52.044 402.239 50.27 402.107 50.25 402.443 C 49.746 411.072 49.322 412.612 49.322 412.612 C 49.322 412.612 42.473 412.82 40 413.214 C 35.809 413.882 31.394 416.561 29.09 420.174 C 26.423 424.355 27.898 435.908 27.898 435.908 C 27.898 435.908 22.975 439.384 21.654 443 C 20.214 446.942 21.817 450.215 22.82 454.346 C 23.228 456.028 21.276 457.037 19.687 458.83 C 18.001 460.733 16.656 463.442 16.606 466 C 16.532 469.784 19.23 472.967 20.938 476.368 C 21.2 476.89 21.805 477.716 21.783 478.46 C 21.745 479.776 20.965 484.086 20.965 484.086 C 20.965 484.086 15.46 501.458 15 512 Z"/>
</svg>