<?xml version="1.0" encoding="utf-8" standalone="yes"?>
<svg xmlns="http://www.w3.org/2000/svg" width="130" height="136">
	<path style="fill:#fff;" d="M60 1.03241C52.0504 4.86938 49.1497 13.3201 44.4823 20C40.5277 25.6596 35.979 28.6606 31.0386 33.1435C27.8552 36.0322 25.6167 39.8356 22.4097 42.6821C17.4472 47.0867 9.60576 43.4178 4.43441 47.027C1.60846 48.9993 0.92699 56.7345 0.425154 60C-0.710874 67.3923 4.00246 75.8499 5.48148 83C6.83786 89.5572 5.3542 97.1767 6.00309 103.999C6.34077 107.55 6.15702 115.665 9.43364 117.806C13.7802 120.646 21.1426 116.724 26 117.252C34.3158 118.156 42.5389 123.885 50.7145 125.915C61.0827 128.49 68.2666 139.6 80 133.715C87.4354 129.986 90.2703 124.504 94.8032 118C97.3511 114.344 101.04 109.545 101.643 105C102.212 100.703 98.8749 96.2897 98.2901 92C97.0743 83.0811 97.2484 73.873 95.5316 65C94.7637 61.0308 92.1593 57.8769 91.3025 54C90.1021 48.5685 89.5996 41.5456 90.1042 36C90.4106 32.6318 92.0938 29.3223 90.6389 26.0046C88.418 20.9403 83.1201 20.0287 79.1042 17.0077C73.3979 12.7152 69.5245 -3.56471 60 1.03241z"/>
	<path style="fill:#000;" d="M 8 56 C 11.932 66.208 10.673 75.595 12.429 86 C 13.615 93.024 16.285 99.815 17 107 C 22.484 105.982 27.638 105.634 33 107.549 C 42.943 111.1 51.103 118.625 61 122.421 C 64.788 123.873 71 126.216 74.999 124.756 C 79.189 123.227 82.705 118.938 85.43 115.575 C 88.02 112.378 90.799 108.28 90.711 104 C 90.597 98.479 88.181 92.548 87.425 87 C 86.453 79.859 86.569 72.857 84 66 C 78.917 75.543 81.091 92.285 68 96 C 68.886 99.83 70.888 103.855 70.964 107.811 C 71.006 109.978 69.635 112.043 67.18 111.263 C 62.201 109.682 60.796 96.391 59.576 92 C 57.7 85.253 54.657 77.983 54.093 71 C 52.932 56.625 55.998 42.317 56 28 L 60 28 C 60.002 44.078 58.994 59.996 61.3 76 C 62.14 81.831 64.677 87.282 66 93 C 76.062 83.928 82.473 68.652 74.857 56 C 71.355 50.184 65.179 46.816 62 41 C 69.669 39.593 71.739 45.788 76.005 50.982 C 78.428 53.933 81.389 56.247 84 59 C 84.844 55.406 82.418 51.661 81.759 48 C 79.985 38.155 80.238 27.003 71.96 20.139 C 69.679 18.247 66.304 13.535 62.965 14.331 C 60.138 15.005 57.839 18.071 55.754 19.911 C 49.08 25.797 44.948 32.119 39.688 39 C 31.368 49.883 21.658 55.414 8 56 Z"></path>
	<path style="fill:#fff;" d="M98.4491 23.135C92.5878 26.4089 102.775 32.723 105 34.2801C108.813 36.9487 114.299 39.0887 117.437 42.4954C121.732 47.1591 121.212 56.1101 122.144 62C122.562 64.6402 123.518 67.327 122.821 70C121.29 75.8729 115.694 80.9873 112.762 86.2855C111.492 88.5792 110.334 94.4195 115.015 93.2485C118.763 92.3108 120.87 86.8109 123.024 84C127.175 78.5825 130.675 72.0229 129.815 65C129.351 61.2119 127.542 57.7984 127.09 54C126.51 49.137 127.096 41.4952 124.062 37.4151C122.195 34.9051 118.603 33.7476 116 32.1744C112.323 29.9518 103.056 20.562 98.4491 23.135M97.6188 39.0856C96.053 40.1915 96.6303 42.2791 97.6227 43.5347C100.55 47.2387 104.934 48.185 106.852 53.0039C109.308 59.1755 109.012 68.6722 106.427 74.7909C104.999 78.1699 101.171 80.0346 100.647 83.9452C100.276 86.7195 102.538 88.0274 104.976 86.9136C114.458 82.5826 111.719 72.8801 112.843 65C113.491 60.4583 115.371 54.5028 112.972 50.1698C110.919 46.4614 105.917 42.7975 102.576 40.233C101.241 39.2081 99.2884 37.9065 97.6188 39.0856M27.5988 55.0471C24.6886 57.2175 26.2697 63.1168 26.8843 66C28.7733 74.862 29.5561 84.0295 31.2608 93C31.679 95.2006 33.303 103.893 37.4005 100.914C40.6011 98.5865 37.0274 91.705 36.0864 89C34.0709 83.2061 32.3175 76.1356 32.0394 70C31.8543 65.9169 33.2371 61.0849 32.5123 57.1481C32.0947 54.8796 29.6032 53.5522 27.5988 55.0471z"/>
</svg>