<?xml version="1.0" encoding="utf-8" standalone="yes"?>
<svg xmlns="http://www.w3.org/2000/svg" width="208" height="303">
	<path style="fill:#fff;" d="M154 6C151.125 -3.91193 139.385 1.26636 132 1.98148C129.019 2.27017 125.994 2.02762 123 2.24615C117.284 2.66333 111.712 1.60538 106 2.61496C99.7851 3.7135 94.2109 6.92282 88 7.77545C84.2767 8.28659 80.7286 6.95834 77 7.30093C65.2897 8.37692 53.6317 11.0104 42 12.7284C35.4304 13.6987 29.3614 15.6002 23 17.4421C20.3429 18.2115 16.5621 18.5582 15.0818 21.2785C13.5691 24.0584 15.714 27.969 15.5216 31C14.9128 40.5926 14.0863 50.5083 12.5617 60C10.0154 75.853 8.66157 92.9059 8.78472 109C8.83336 115.357 10.2443 121.521 9.96065 128C9.70904 133.746 9.67769 140.366 8.625 146C7.44266 152.328 5.32606 158.51 5.03935 165C4.40943 179.26 4.98341 194.012 2.375 208C1.2258 214.163 2.23394 220.759 1.96065 227C1.71375 232.638 0.0426683 238.362 0.148148 243.999C0.219493 247.812 3.62038 252.554 7.68287 249.377C11.3869 246.481 10.8914 239.176 11.0139 235C11.3142 224.759 10.5442 212.997 12.0795 202.91C12.6006 199.487 14.3592 196.44 14.8117 193C16.4696 180.398 16.5574 166.708 16.8711 154C17.1653 142.087 15.4558 130.019 16.0401 118C16.7006 104.412 19.3594 90.7094 19.9606 77C20.4947 64.8206 22.2123 53.0733 23.7153 41C24.2425 36.7647 24.3472 29.9514 27.5988 26.7276C32.1223 22.2427 44.9223 22.5657 51 21.5895C60.3159 20.0932 69.7377 19.0456 79 17.2315C82.052 16.6337 84.9288 15.0449 88 14.6999C96.372 13.7594 104.513 14.2421 113 12.8549C118.467 11.9613 123.58 12.4397 129 11.8148C133.085 11.3438 136.811 9.45166 141 9.83875C147.004 10.3936 150.769 12.8138 156.086 14.9846C159.098 16.2144 162.141 16.0311 165.089 17.6343C168.368 19.4182 170.938 22.2609 174.17 23.9915C176.207 25.0822 178.758 24.8763 180.682 26.1783C184.258 28.5982 182.928 35.2627 183.424 39C185.093 51.5538 185.583 64.3591 186.015 77C186.388 87.9308 189.445 98.9304 189.741 110C190.032 120.923 188.487 131.989 189.04 143C189.269 147.561 191.68 151.48 191.942 156C192.252 161.338 190.806 166.617 191.039 172C191.79 189.29 192.907 206.731 194.09 224C194.409 228.67 195.616 233.318 195.741 238C195.884 243.354 194.476 248.585 195.188 254C195.815 258.762 198.896 262.944 198.921 267.83C198.935 270.345 197.357 272.504 197.368 274.995C197.383 278.528 200.639 280.526 203.787 278.802C209.737 275.542 206.009 266.331 206 261C205.987 253.464 204.652 246.378 204.274 239C203.694 227.663 205.235 217.373 203.095 206C201.336 196.653 201.723 187.38 200.83 178C200.174 171.1 197.962 163.87 198.033 157C198.069 153.511 199.487 150.419 199.871 147C200.45 141.842 200.212 136.182 199.96 131C199.537 122.293 196.324 113.684 195.285 105C193.711 91.832 193.996 78.2386 193.09 65C192.587 57.6629 191.835 49.291 192.209 42C192.523 35.8927 194.785 28.0222 192.812 22.0586C191.614 18.4336 188.188 18.0331 185 16.9151C178.898 14.7754 172.871 13.6422 167.039 10.6258C162.201 8.12296 159.828 4.57932 154 6z"/>
	<path style="fill:#fff;" d="M93 39C100.891 39.5522 108.11 36.8085 116 36.0749C121.355 35.5769 126.641 34.283 132 33.9236C138.39 33.4951 144.783 33.4729 150.98 31.4421C153.055 30.7621 156.771 28.1473 153.623 26.0625C150.141 23.7559 141.832 26.9786 138 27.6219C127.149 29.4436 115.856 28.9924 105 30.9846C99.2493 32.0399 94.0643 32.3069 93 39M124 51C115.891 51.4386 112.13 57.2331 105.999 61.7461C101.955 64.7235 97.2278 66.7804 93.0008 69.5262C91.4431 70.5381 81.8631 76.1951 88.2647 78.2492C90.6859 79.0261 92.5471 76.1496 94.2593 74.9854C98.37 72.1902 102.902 69.9157 107.09 67.1142C111.51 64.1569 116.635 62.311 120.961 59.2052C124.941 56.3479 129.643 50.8889 135 50.9244C140.85 50.9631 148.193 56.0153 153 58.9383C155.21 60.282 164.763 66.7221 166.248 61.6821C167.754 56.5733 159.259 54.0733 156.001 52.7708C147.543 49.3899 127.411 34.1406 124 51M72 45C72 63.708 73.03 82.3444 73 101C72.9844 110.692 71.566 120.247 72.0401 130C72.223 133.763 73.6062 137.262 73.9066 141C74.7296 151.239 74.5284 161.732 75.0401 172C75.5502 182.236 75.7417 191.698 75.0903 202C74.9524 204.181 74.4935 210.364 78 210.364C81.7939 210.364 80.9286 203.293 81.0895 201C81.7675 191.336 82.195 181.711 81.9846 172C81.7257 160.056 78.1781 147.996 77.7245 136C76.5803 105.735 76 75.3377 76 45L72 45M164 66C163.456 72.5313 166.374 76.8678 166.959 83.0147C167.577 89.5135 165.759 95.5639 166.041 102C166.231 106.332 168.559 110.695 167.287 115C165.559 120.846 161.597 123.228 157.665 127.274C154.216 130.824 151.612 134.981 148 138.424C144.304 141.948 138.083 151.674 132.41 151.695C127.379 151.714 122.805 145.049 118.911 142.513C110.702 137.167 99.9548 131.043 95.314 121.985C93.839 119.106 94.2509 116.08 93.7407 113C92.6345 106.321 91.6545 99.7658 90.8449 93C90.4784 89.9368 90.7373 84.9277 88.973 82.3225C87.9021 80.7412 85.429 79.8395 84.0664 81.6227C82.7805 83.3055 83.6214 86.1187 83.8704 88C84.6207 93.6696 85.3292 99.3892 86.4491 105C87.9112 112.326 86.454 122.332 90.1644 128.91C94.893 137.294 105.393 140.185 112.139 146.118C116.743 150.167 123.805 158.839 130.04 159.76C139.338 161.134 146.863 148.854 152.586 143.274C157.326 138.652 161.555 133.992 166.134 129.174C168.587 126.593 172.126 124.371 173.411 120.91C175.844 114.361 172.561 107.458 172.119 101C171.319 89.3294 171.515 77.7375 170 66L164 66M114 88C114.141 94.8227 115.806 101.31 116.912 108C117.567 111.961 117.29 116.115 118.316 120C119.22 123.428 121.024 127.489 125.043 127.748C129.35 128.024 133.533 125.079 137 122.934C142.849 119.315 148.194 115.347 155 114C154.959 99.8769 148.574 86.4753 145 73C133.119 73.288 125.553 85.9087 114 88z"/>
	<path style="fill:#000;" d="M120 92C122.935 101.403 122.035 112.391 127 121C132.25 117.589 142.186 115.214 146.063 110.441C148.324 107.658 146.347 104.003 145.68 101C144.176 94.2349 144.346 88.3491 141 82C133.38 84.3312 127.913 90.3038 120 92z"/>
	<path style="fill:#fff;" d="M101 196C105.994 197.155 109.729 194.691 114 192.189C120.345 188.473 126.501 184.333 133 180.89C142.053 176.093 147.809 177.388 156.961 181.139C160.337 182.523 166.462 189.004 170.377 185.954C173.085 183.846 170.006 180.675 167.941 179.724C164.708 178.235 161.229 177.564 158 175.905C153.526 173.606 148.998 170.088 144 169.023C139.141 167.988 135.445 171.9 131.83 174.495C122.808 180.971 106.182 185.857 101 196M179 245C186.075 244.186 185.002 238.902 185 233C184.996 222.589 179.986 212.991 177.03 203.004C175.856 199.036 177.333 193.843 174.767 190.434C172.587 187.537 168.472 188.173 168.256 192.059C167.997 196.728 171.375 203.446 172.721 208L176.765 221.715C179.156 229.823 179.006 236.695 179 245M99 197L98 198C99.7622 207.353 101.019 217.467 100.37 227C100.001 232.428 97.5644 241.712 99.9421 246.715C101.573 250.146 104.968 252.99 107.258 256C112.899 263.411 120.215 278.267 131.039 278.492C137.971 278.636 147.837 271.278 153.985 268.235C159.966 265.274 168.775 264.132 171 257C175.017 257.552 179.732 255.923 182.377 252.545C185.223 248.91 181.354 246.857 177.995 247.633C173.298 248.717 170.71 252.366 166.83 254.776C158.817 259.756 148.991 265.412 140 268.282C135.466 269.729 131.197 273.125 126.83 269.837C119.121 264.032 114.025 256.505 109.63 248.039C108.085 245.064 106.241 242.432 106.069 238.985C105.899 235.571 107.126 232.372 107.236 229C107.447 222.512 105.715 213.31 104.139 207C103.072 202.728 103.452 198.79 99 197M128 245C136.118 244.999 152.079 242.752 156.683 234.776C158.374 231.845 157.769 228.197 158.455 225C159.17 221.674 161.066 217.769 158.972 214.529C156.403 210.554 150.793 209.835 146.715 208.367C142.426 206.824 138.973 204.236 135 202.123C132.79 200.947 129.754 199.875 127.623 201.87C125.039 204.288 128.823 209.944 128.992 213C129.572 223.534 128 234.368 128 245z"/>
	<path style="fill:#000;" d="M135 209L134 239C138.376 237.077 144.885 235.624 148.686 232.988C150.396 231.801 150.934 229.852 151.61 227.995C155.942 216.105 143.962 213.048 135 209z"/>
	<path style="fill:#fff;" d="M14.0586 255.617C6.99441 257.368 12.6293 264.059 16.0401 266.285C20.6035 269.264 26.2108 270.13 30.9992 272.796C35.7862 275.461 39.4269 279.648 44.0039 282.655C50.1378 286.685 56.8655 289.28 63 293.41C67.3265 296.322 75.052 303.551 80.7716 301.218C86.4727 298.892 82.4416 291.833 78.8951 289.72C75.2525 287.55 70.8089 286.928 67 285.029C60.1336 281.607 54.6394 276.234 48 272.468C43.1447 269.715 37.8009 268.71 33.0008 265.68C27.8858 262.451 20.7164 253.966 14.0586 255.617M81 258C78.5446 266.326 81.5412 277.38 82.2539 286C82.4225 288.041 83.2008 294.459 86.6744 293.248C89.8114 292.155 88.4042 287.207 87.794 285C85.354 276.175 85.6009 266.718 83 258L81 258M184.996 279.638C177.045 280.96 168.956 280.714 161 282.209C157.89 282.794 155.116 284.356 152 284.957C137.527 287.746 122.603 289.1 108 291.13C102.681 291.87 95.9349 291.16 91.0154 293.37C88.6736 294.423 85.4325 296.657 87.0864 299.621C90.6015 305.922 105.415 299.646 111 298.87C124.881 296.94 139.024 294.048 153 293.09C161.375 292.515 169.627 292.139 177.985 291.145C181.244 290.757 184.817 290.999 187.906 289.725C194.259 287.106 191.848 278.499 184.996 279.638z"/>
</svg>