<?xml version="1.0" encoding="utf-8" standalone="yes"?>
<svg xmlns="http://www.w3.org/2000/svg" width="391" height="363">
	<path style="fill:#fff;" d="M70 185C66.5874 182.237 65.2247 178.428 62.3171 175.224C60.1689 172.856 57.0197 171.637 55.3025 168.867C53.7477 166.36 53.346 163.432 51.5671 161C46.5512 154.142 40.615 148.04 35.7207 141C31.9759 135.613 28.9985 127.737 23.6258 123.747C19.7685 120.883 15.3267 124.021 14.304 128.171C13.113 133.003 14.9028 141.142 19 144C17.706 152.614 23.801 161.401 27.2045 169C28.5187 171.934 29.1027 175.13 30.5532 178C32.462 181.777 37.1699 187.012 36.6242 191.561C36.169 195.356 30.5787 200.366 28.7531 204C23.4996 214.456 19.4746 225.858 13.5864 235.961C9.89195 242.3 3.00433 246.756 0.74537 254.17C-0.388198 257.89 1.79074 263.229 2.43519 267C3.59952 273.813 6.32988 279.578 8.61343 286C11.3602 293.725 12.9035 300.017 17.2106 307.075C20.9388 313.184 19.1966 331.009 30.8519 330.404C36.2497 330.123 33.4325 320.704 32.1998 318C30.0599 313.305 26.1153 309.695 24.0895 305C22.7361 301.863 22.894 298.273 21.9599 295C20.3232 289.265 17.4447 283.871 16.311 278C15.2001 272.247 13.3634 266.754 12.1559 261.039C11.7823 259.271 10.8573 256.781 11.483 255C12.3303 252.588 14.9792 250.993 16.4414 248.961C18.495 246.109 20.1432 242.795 22.0779 239.83C29.1793 228.947 34.0075 215.788 39.439 204C41.964 198.52 45.2154 194.222 45.5965 187.961C46.1203 179.353 39.9649 172.738 35.8032 166C32.6852 160.952 30.8952 154.602 29 149C33.7878 154.614 36.8932 161.285 41.4151 166.981C43.7711 169.949 47.1612 171.542 49.6975 174.259C51.77 176.48 52.6059 179.481 54.2585 181.985C56.6583 185.622 61.6612 189.148 61.2377 194.001C60.9447 197.356 58.4558 200.899 57.2006 204C54.2469 211.297 51.8062 219.065 48.0648 226C45.4545 230.839 41.2993 237.374 41.1597 242.999C40.9334 252.121 53.0874 257.976 52.8673 267.17C52.6988 274.206 45.4349 283.582 42.5648 290C41.3801 292.649 38.3491 296.706 40.0826 299.677C41.6202 302.314 44.7866 301.374 46.6103 299.677C50.4948 296.064 52.9017 289.678 55.2469 285C65.9128 263.723 79.7042 243.019 86 220C89.1934 225.471 91.3195 231.387 94.2731 236.961C95.7248 239.7 97.8669 242.024 98.7407 245.039C99.8386 248.828 100.196 255.51 105.093 256.458C112.418 257.876 118.235 246.338 122.17 242.001C128.214 235.338 135.647 230.247 141.946 223.946C146.004 219.887 148.842 214.913 153.17 211.043C157.209 207.431 162.266 205.506 165.566 200.996C169.035 196.255 166.668 189.048 159.999 192.194C153.409 195.304 151.258 203.019 145.981 207.556C140.725 212.076 134.818 213.908 130.876 220.001C124.791 229.406 117.027 236.318 109 244C95.6338 215.633 81.1792 187.849 71.3295 158C67.915 147.653 60.608 136.531 62.1628 125.039C63.2437 117.05 74.2292 111.715 79 105.985C87.1056 96.2478 96.0758 88.7653 104.996 79.9846C108.494 76.5411 110.688 71.7191 114.274 68.5447C116.301 66.7505 118.854 65.7813 120.816 63.8565C126.292 58.4811 128.615 51.5263 135 47C137.17 56.114 133.902 65.1641 136 74C131.154 76.0488 126.287 79.614 123.618 84.3001C121.442 88.1216 123.254 92.1784 128.005 91.3873C137.281 89.8426 141.915 81.2038 148.129 75.4645C154.321 69.7455 162.309 66.4902 168.999 61.5054C174.44 57.4517 177.848 51.3967 183 47C183.702 54.6578 187.59 65.4242 184.4 72.8156C181.741 78.9801 172.69 79.3162 169.02 84.6342C167.632 86.6461 167.637 89.666 167.196 92C165.823 99.2691 164.899 107.598 165.054 115C165.385 130.853 178.901 140.55 188.004 152C191.194 156.012 197.421 164.256 202.914 164.642C207.887 164.992 212.512 160.013 216 157.208C221.249 152.988 228.189 150.455 232.346 144.871C234.915 141.421 233.95 137.874 233.965 133.91C233.987 127.9 234.998 122.019 235 116C235.002 110.679 234.807 105.316 235.039 100C235.164 97.1631 236.292 93.9121 235.643 91.108C234.753 87.2637 230.13 87.1371 228.6 83.7755C226.975 80.2063 228.082 75.7414 226.96 72C225.358 66.6579 222.127 61.9624 220.146 56.8302C218.962 53.7641 219.285 50.2041 218.567 47C217.706 43.1569 215.863 39.7126 214.615 36C212.049 28.3691 209.602 20.7066 207.28 13C206.214 9.46112 205.251 4.28809 202.351 1.74307C198.938 -1.25214 192.145 0.931152 188 1.01004C173.856 1.27924 160.111 5.34174 146 5.96063C134.45 6.46719 122.529 6.66049 111 6.66049C106.581 6.66049 99.4974 4.20764 95.5494 7.02777C92.9664 8.87283 92.3457 13.136 90.9838 15.8302C85.1516 27.3676 85.0184 41.005 80.0486 53C78.2917 57.2406 75.6956 61.7437 71.7099 64.2353C68.9934 65.9335 64.8902 66.1027 63.2693 69.2276C61.6334 72.3816 63.6727 76.6906 63.9097 80C64.202 84.0803 63.179 87.9634 63.179 92C63.179 96.3369 64.5596 100.607 63.8519 104.981C62.8016 111.471 53.2657 113.079 52.1481 120.104C50.719 129.088 55.1466 139.685 57.8958 148C61.9679 160.316 64.6553 172.999 70 185z"/>
	<path style="fill:#000;" d="M 99 12 C 98.18 15.199 96.332 17.849 95.39 21 C 92.862 29.451 90.84 37.821 88.1 46.17 C 86.401 51.349 86.183 58.127 83.842 62.907 C 81.084 68.536 73.557 69.034 69.858 73.613 C 64.593 80.131 69.682 92.61 70 100 C 77.63 93.376 85.8 87.149 91.86 79 C 93.532 76.752 96.698 74.004 97.08 71.104 C 97.494 67.967 93.426 66.241 93.277 62.996 C 93.167 60.583 94.546 58.281 94.876 55.911 C 95.897 48.575 97.612 41.366 98.701 34 C 99.29 30.015 98.827 25.838 103.109 23.879 C 107.518 21.861 113.258 21.72 118 20.919 C 126.943 19.409 135.91 17.423 145 17.039 C 149.701 16.841 154.353 18 159 17.1 C 165.352 15.871 176.767 10.818 182.606 15.603 C 188.193 20.183 185.982 30.718 187.035 37 C 188.131 43.54 190.382 50.133 191.045 56.715 C 191.359 59.836 190.388 62.884 190.455 66 C 190.544 70.109 191.64 74.051 189.543 77.907 C 186.517 83.471 176.738 88.589 171 91 C 171 101.772 169.487 115.045 174.017 125.17 C 180.49 139.638 193.995 148.555 204 160 C 213.441 153.951 220.315 145.966 229 139 C 228.56 135.394 229.607 132.54 229.833 129 C 230.157 123.9 229.289 119.19 230 114 C 230.718 108.753 232.101 102.293 230.682 97.055 C 229.436 92.454 223.632 92.502 222.282 87.945 C 221.445 85.117 222.079 81.914 221.532 79 C 220.667 74.382 218.144 70.451 216.764 66.015 C 215.86 63.108 216.122 59.982 215.126 57.13 C 209.348 40.598 201.982 24.213 198 7 C 192.594 7 186.278 5.812 181 6.588 C 177.453 7.109 174.67 9.621 171 9.853 C 159.675 10.567 148.428 9.603 137 10.019 C 133.204 10.157 129.764 11.689 126 11.946 C 117.154 12.55 107.885 11.976 99 12 M 105 27 C 104.695 31.65 102.295 35.45 101.465 40.001 C 100.561 44.955 101.446 49.992 100.871 54.961 C 100.356 59.409 99.182 61.613 101 66 C 108.352 63.678 109.322 60.596 114.069 55 C 119.296 48.839 124.291 43.568 128.976 37 C 131.213 33.864 134.666 25.848 139.772 28.288 C 143.639 30.135 142.834 35.531 143.17 39 C 144.038 47.967 142.01 58.606 145 67 C 149.871 63.994 155.518 60.868 159.561 56.791 C 166.41 49.884 172.399 39.075 182 36 C 180.693 30.693 180.015 25.464 180 20 C 173.098 20.005 166.786 22.228 160 22.545 C 141.441 23.411 123.413 24.661 105 27 Z"></path>
	<path style="fill:#fff;" d="M275 57C268.326 56.3694 259.275 63.2714 258.302 70C257.711 74.0844 259.41 77.1259 259.871 81.0394C260.416 85.6676 259.914 90.3987 260.067 95.0394C260.276 101.35 261.507 106.675 260 113C255.773 109.25 252.538 108.234 247 108C248.455 117.428 259.211 122.902 268 123C267.999 113.015 267.42 101.796 265.624 92C264.552 86.1491 262.138 78.0399 264.603 72.1852C266.709 67.1847 273.436 66.0154 276 61C282.102 61.7044 286.112 56.9449 285 51C280.936 52.0247 277.32 53.397 275 57M302 111C312.326 116.999 325.575 121.754 337 125C336.598 126.944 336.598 127.057 337 129C328.451 133.852 326.28 147.482 323 156C318.928 153.05 314.242 149.53 312 145L305 145C304.244 150.716 306.431 156.236 306.622 162C306.739 165.527 304.795 168.548 304.754 172C304.714 175.311 305.921 178.629 306 182C313.925 181.94 321.252 180.824 329 180.144C331.996 179.88 335.873 181.541 338.606 179.933C342.717 177.514 343.371 170.134 344.558 166C346.934 157.725 348.133 149.123 351.015 141C352.736 136.153 355.855 131.906 357.377 127C358.529 123.29 362.071 115.107 360.381 111.43C358.607 107.569 349.609 107.073 346.09 104.91C333.109 96.9341 318.071 92.8696 304 87.1613C298.916 85.0987 293.112 79.338 287.133 80.4221C281.454 81.452 284.066 90.2621 284.575 94C286.512 108.24 285.879 124.933 282.891 138.956C281.56 145.203 268.444 146.491 263 146.231C260.011 146.089 255.301 145.229 254.473 149.148C254.096 150.931 254.409 153.193 254.544 155C255.62 169.432 270.188 167.583 280.985 171.615C286.721 173.757 293.565 179.391 299.581 174.272C305.417 169.305 299.305 164.493 299.802 158.961C300.106 155.574 301.632 152.421 301.907 149C302.909 136.534 302 123.529 302 111M208.019 86.6566C205.166 87.2793 203.431 89.3918 200.91 90.5826C195.972 92.915 187.136 95.6079 184.742 101.13C181.229 109.235 184.542 120.713 188.115 127.996C190.197 132.241 193.237 135.161 195.856 139.015C199.709 144.682 200.365 150.525 208.985 148.467C212.856 147.543 220.66 143.322 222.397 139.61C223.562 137.12 222.809 133.93 222.9 131.285C223.076 126.22 223.816 121.109 224.039 116C224.255 111.066 225.817 105.938 224.697 101.001C223.308 94.8787 214.91 85.1523 208.019 86.6566z"/>
	<path style="fill:#000;" d="M290 86C289.706 100.24 287.766 114.715 289.282 129C289.792 133.809 290.617 143.763 286.682 147.301C280.286 153.051 267.954 150.995 260 152C261.069 154.753 261.86 157.049 262 160C274.06 161.532 284.119 168.418 296 170C292.8 158.793 295.642 148.24 296.482 137C296.967 130.508 296 123.562 296 117C296 113.594 294.494 101.408 300.005 101.191C302.058 101.111 303.732 103.595 305.259 104.653C308.965 107.218 313.14 109.416 317 111.768C324.137 116.116 336.603 119.442 345 120C345.106 127.035 339.652 132.686 336.86 139C333.693 146.164 330.693 167.215 319.039 162.374C316.355 161.259 314.26 158.761 312 157C312.696 160.751 313.041 164.186 312.656 168C312.439 170.143 311.539 173.487 313.053 175.357C314.443 177.073 317.141 176.312 319.001 176.165C324.26 175.749 332.115 175.472 335.717 171.022C339.302 166.591 338.821 160.229 340.519 154.999C342.768 148.069 344.303 140.902 346.597 134C348.753 127.514 351.987 121.888 353 115C343.919 109.402 334.727 107.218 325 103.124C313.227 98.1697 301.189 92.1059 290 86M205 142C210.17 140.863 215.968 137.688 217.106 131.961C217.82 128.373 216.651 124.649 217.34 121.015C217.811 118.525 219.35 116.341 219.647 113.83C220.384 107.607 217.533 98.2883 211.791 95.0316C207.301 92.4851 202.531 95.819 198.91 98.2222C196.247 99.9901 192.718 101.438 191.028 104.304C187.813 109.755 191.699 120.709 194.1 125.91C196.822 131.806 201.293 136.752 205 142z"/>
	<path style="fill:#fff;" d="M146.001 110.711C137.086 111.629 133.596 118.874 129.833 126C126.588 132.146 122.482 139.074 121.263 146C119.604 155.429 120.969 166.452 121.03 176C121.082 184.087 126.027 198.825 136 198.3C143.971 197.881 149.778 189.521 153.215 182.996C155.442 178.766 156.026 174.093 158.049 169.83C160.143 165.42 163.139 161.887 164.18 157C165.129 152.543 164.075 148.464 164.019 144C163.972 140.31 164.948 136.676 164.675 133C163.828 121.585 159.692 109.302 146.001 110.711z"/>
	<path style="fill:#000;" d="M260 113L261 114L260 113M146.001 117.538C140.423 118.341 137.475 123.819 134.486 128C126.967 138.518 127.143 147.644 126.996 160C126.944 164.386 125.89 168.651 126.847 173C128.05 178.467 131.24 192.55 138.959 191.549C143.857 190.913 145.604 181.73 147.784 178.039C152.879 169.412 158.251 158.176 159.787 148C160.533 143.059 159.638 137.94 159.385 133C159.034 126.133 154.31 116.342 146.001 117.538z"/>
	<path style="fill:#fff;" d="M85.1481 125.028C80.3178 127.885 81.7387 137.302 82.2855 142C82.952 147.727 81.4601 153.334 82.3009 158.999C82.9746 163.538 85.7311 166.062 87.5201 170.039C89.202 173.779 88.9378 178.103 90.581 182C92.3202 186.125 94.4288 190.329 97.2323 193.851C98.4175 195.34 100.387 197.292 102.413 195.914C105.349 193.915 105.532 184.333 105.78 181.039C106.114 176.61 106.511 171.406 105.66 167.039C105.113 164.226 103.486 161.831 103.13 158.961C102.022 150.036 101.695 141.72 99.1566 133C97.4547 127.153 91.6838 121.161 85.1481 125.028z"/>
	<path style="fill:#000;" d="M100 182C100.365 177.473 99.2559 173.474 99.0401 169C98.4055 155.839 97.4012 141.768 91 130C84.7834 133.135 85.9328 138.97 86.7184 145C88.1516 156.002 90.3194 174.903 100 182z"/>
	<path style="fill:#fff;" d="M360 144C356.917 143.509 354.104 143.781 351 144C351.013 148.714 351.922 153.308 351.981 158C352.073 165.229 351.08 171.722 352 179L345 179L345 185C349.37 187.059 351.976 188.941 357 189C356.995 181.814 357.496 174.112 356.83 167C356.392 162.31 354.691 156.568 357.514 152.301C361.277 146.613 371.707 144.495 378 143C378 150.008 379.612 159.338 377.273 166C374.63 173.529 367.268 177.728 367 186C371.242 185.34 372.945 183.34 375.731 180.204C378.899 176.639 383.084 173.819 384.486 169C386.81 161.015 381.625 152.133 382.653 144.015C383.175 139.889 392.501 135.397 389.914 131.603C388.262 129.181 384.089 130.629 382.015 131.532C379.437 132.656 377.353 134.581 374.83 135.791C369.613 138.293 363.421 138.915 360 144z"/>
	<path style="fill:#000;" d="M231 138L232 139L231 138M28 147L29 148L28 147z"/>
	<path style="fill:#fff;" d="M220.589 158.086C217.526 160.183 219.75 166.218 220.339 169C222.609 179.726 224.997 190.347 227.626 201C228.71 205.393 229.427 209.85 231.313 213.996C232.69 217.022 235.16 219.821 235.88 223.09C240.595 244.488 241.226 266.67 246.579 288C249.036 297.79 250 307.918 250 318C250 321.963 250.583 326.423 248.486 329.981C244.819 336.204 237.995 333.981 232 335.785C227.31 337.197 224.365 340.963 219.961 342.752C213.306 345.454 207.838 344.823 201 345.21C189.563 345.857 178.437 350.652 167 352.041C162.657 352.568 158.342 351.707 154 352.104C146.986 352.746 140.158 354.71 133 354.726C129.639 354.733 126.337 353.368 123 352.954C113.163 351.732 102.594 350.667 93 348.24C78.7774 344.642 64.3857 341.516 50.0394 338.041C46.0317 337.07 39.4471 332.43 36.1944 337.433C34.0276 340.766 36.6342 344.153 40.044 344.747C51.1639 346.684 62.09 348.027 73 351.618C80.3822 354.048 87.3708 358.2 95 359.877C103.413 361.725 114.394 363.211 123 362.942C126.427 362.835 129.583 361.266 133 361.274C140.919 361.291 149.092 363.709 157 362.892C161.223 362.456 164.809 359.965 169 359.304C176.602 358.106 184.447 358.696 192.004 357.558C201.676 356.101 210.611 352.21 220 349.579C224.605 348.289 229.497 348.4 234 346.895C238.161 345.504 241.774 342.642 246 341.498C249.458 340.563 254.638 342.156 257.397 339.397C261.649 335.143 256.933 329.356 256.363 324.91C255.414 317.493 258.199 309.738 257.285 302C256.302 293.664 257.784 285.269 255.866 277C253.553 267.033 248.862 257.223 247.503 247C246.612 240.302 248.01 233.832 246.317 227.015C243.87 217.16 239.191 207.898 236.63 198C233.764 186.926 230.787 175.977 227.614 165C226.908 162.556 224.496 155.412 220.589 158.086M279 219C269.296 214.879 255.522 213.029 245 213L245 219C251.048 219.125 257.103 221.621 263 220C265.963 224.194 274.364 224.171 279 223C278.722 226.403 276.644 231.512 278.407 234.677C281.891 240.932 285.24 230.707 285.275 228C285.464 213.797 281.116 200.06 281 186C292.672 187.768 303.577 198.427 313.17 204.648C318.484 208.095 325.19 209.145 330.83 212.032C335.454 214.398 338.638 217.418 344 218C344.229 224.097 343.703 230.02 342.424 236C341.738 239.208 340.622 244.535 343.023 247.379C344.782 249.463 348.003 247.922 350.285 248.828C354.165 250.368 357.305 253.961 360 257C353.119 256.995 346.724 254.013 340 256C336.15 250.942 324.024 251.253 318 250.247C303.261 247.786 288.712 244.867 274 242.699C266.12 241.538 260.152 238.992 252 240L252 244C256.125 244.618 259.909 246.283 264 247.066C291.599 252.347 320.009 259.007 348 261.053C354.578 261.534 360.275 264.904 367 264C366.195 282.796 363.486 301.167 362 320L338 320C335.192 320.004 330.885 320.958 328.303 319.687C322.391 316.776 323.63 304.844 315.91 302.956C312.809 302.198 309.686 304.659 307 305.827C300.393 308.702 293.28 308.457 293 317C287.761 315.545 282.372 316.615 277 316.507C274.687 316.46 272.357 315.427 270.044 315.862C266.708 316.49 263.57 321.713 268.232 323.045C270.527 323.7 272.815 322.152 275 321.722C278.302 321.072 282.641 321.502 286 321.799C305.137 323.487 323.596 326.43 343 325.985C348.985 325.848 367.11 329.272 365 320C369.551 317.128 369.569 311.018 369.91 306C370.565 296.388 369.877 286.588 371.209 277C372.165 270.124 374.539 264.532 370.562 258.015C365.656 249.976 354.397 246.442 350.215 237.896C348.151 233.68 350.329 226.646 350.884 222.17C351.128 220.205 352.186 217.372 350.922 215.584C349.621 213.744 346.291 213.259 344.424 212.062C336.672 207.09 328.014 204.167 319.91 199.781C312.373 195.701 305.255 191.757 298.09 186.955C295.264 185.062 293.276 182.142 290.075 180.808C286.902 179.485 280.358 177.76 277.618 180.603C275.287 183.022 276.817 188.023 277.025 191C277.448 197.059 279.476 202.911 279.791 209C279.963 212.328 279.143 215.672 279 219z"/>
	<path style="fill:#000;" d="M72 189C71.6894 193.169 69.6312 196.109 68.3603 200C64.817 210.85 59.8935 221.188 56.2353 232C55.1984 235.065 53.399 237.882 52.5679 241C50.8394 247.486 54.157 253.962 58 259C63.2716 249.968 67.051 240.293 71.8056 231.039C75.2127 224.408 80.5238 216.673 81.0656 209C81.4451 203.625 76.3923 191.957 72 189z"/>
	<path style="fill:#fff;" d="M287 192C287.325 207.721 293.678 222.424 294 238L300 238L300 229C308.18 231.662 318.392 232.524 325.941 236.569C328.766 238.082 329.961 244.364 333.004 244.364C335.295 244.364 336.079 241.765 336.532 239.981C337.615 235.712 341.234 224 337.551 220.763C335.547 219.002 332.322 218.746 330 217.447C322.535 213.271 314.809 208.84 306.996 205.334C300.238 202.301 293.274 200.383 293 192L287 192z"/>
	<path style="fill:#000;" d="M296 209C296.742 214.605 298.47 219.61 300 225C305.546 224.224 309.704 226.236 315 227.497C320.625 228.837 326.459 229.403 332 231C331.613 224.023 327.421 224.241 322 221.27C313.492 216.607 305.269 211.97 296 209z"/>
	<path style="fill:#fff;" d="M267.329 255.032C263.959 257.042 263.97 260.638 263.214 264C262.183 268.581 259.59 273.048 259.878 277.91C260.008 280.109 261.317 281.955 261.726 284.09C262.592 288.607 260.026 293.496 261.742 297.83C264.064 303.695 271.501 310.095 278 310.154C280.743 310.179 283.334 308.692 286 308.174C289.565 307.48 293.584 307.465 296.79 305.547C300.843 303.123 302.392 298.086 304.144 294C305.827 290.076 309.787 285.293 309.737 280.91C309.696 277.361 307.137 273.91 305.117 271.171C298.898 262.736 293.118 258.811 283 256.661C278.792 255.767 271.311 252.657 267.329 255.032z"/>
	<path style="fill:#000;" d="M271.189 263.032C265.956 265.996 267.568 272.285 266.91 277.17C266.323 281.531 265.192 286.364 266.495 290.715C270.203 303.087 283.837 305.084 293.775 298.583C295.873 297.211 296.779 295.153 298.015 293.074C300.062 289.636 302.709 286.279 302.282 282C301.404 273.206 289.113 263.736 281 262.926C277.892 262.616 274.101 261.382 271.189 263.032z"/>
	<path style="fill:#fff;" d="M326 281C319.73 282.046 321 287.805 321 293C321 295.982 320.399 299.814 321.589 302.625C323.607 307.392 332.272 313.423 337.17 314.687C342.454 316.051 346.744 314.275 351.17 311.731C354.179 310.001 358.806 309.173 360.987 306.312C363.5 303.016 362.994 296.897 363 293C363.007 288.368 363.959 282.396 362.258 278.004C360.609 273.748 353.857 268.52 349.871 266.314C341.486 261.672 323.26 270.934 326 281z"/>
	<path style="fill:#000;" d="M326 281C327.292 286.428 325.363 293.66 327.603 298.625C328.598 300.828 331.033 302.411 332.719 304.06C334.341 305.647 335.83 307.438 338.039 308.218C357.968 315.259 365.631 276.418 345.985 273.066C338.843 271.847 332.597 279.303 326 281M299 318C306.678 318.005 313.516 320.088 321 321C319.741 318.063 318.27 313.668 315.529 311.777C311.143 308.75 301.137 314.087 299 318M127 362C133.202 364.603 142.298 363 149 363C143.247 360.586 133.047 360.564 127 362z"/>
</svg>