<?xml version="1.0" standalone="yes"?>
<svg xmlns="http://www.w3.org/2000/svg" width="256" height="256">
	<path style="fill:#ffffff; stroke:none;" d="M233 180C223.835 181.24 215.173 185.128 206 186.561C195.167 188.253 183.853 187.113 173 188.104C165.347 188.803 157.732 190.777 150 191.201C134.059 192.074 117.858 188.005 102 189.09C91.9902 189.774 80.966 191.86 71 190.576C67.5003 190.125 62.2399 189.337 61.3765 194.054C59.7683 202.841 76.1905 198.945 81 199.576C86.429 200.288 90.7451 198.607 96 198.379C100.981 198.163 106.005 199.863 111 199.985C118.027 200.157 124.994 198.453 132 199.104C137.893 199.652 146.739 204.031 151 198C158.436 201.578 164.37 198.242 172 198.015C180.781 197.755 190.035 198.198 198.715 196.718C204.581 195.717 209.934 193.84 216.004 193.141C222.455 192.398 233.447 190.527 238.096 185.525C243.433 179.783 242.502 174.803 240.593 168C236.831 154.592 228.983 144.777 214 144C214 123.852 219.699 99.7108 209.363 81.2091C207.916 78.6202 205.281 77.1358 203.41 74.8958C201.73 72.8838 200.776 70.2826 198.726 68.5841C196.801 66.989 194.162 66.2934 192 65.0656C178.129 57.1874 167.679 55.8907 152.039 57.0108C147.708 57.321 143.304 56.6119 139 57.2091C130.992 58.3202 123.445 61.5905 116.09 64.7562C112.921 66.12 109.434 65.8961 106.424 67.6103C100.205 71.1515 92.5617 75.7928 87.1698 80.3927C81.1783 85.5042 76.596 92.4319 70.625 97.4444C60.8197 105.676 46.3387 110.514 34 113.377C28.2314 114.716 20.9667 113.581 16.3179 118.314C12.0483 122.661 13.2999 135.546 14.7847 141C19.0097 156.519 27.8152 175.955 40.0154 186.791C43.8691 190.214 49.471 195.584 54.9815 195.551C59.2534 195.525 61.1862 190.526 64.0579 188C71.0899 181.813 77.6267 176.267 86.1698 172.285C93.3496 168.939 100.586 167.516 108 164.991C119.966 160.916 131.328 157.282 144 155.665C154.005 154.389 164.013 154.828 174 154.39C178.793 154.179 183.323 152.078 188 151.255C200.394 149.075 217.958 149.797 226.08 161.3C229.97 166.809 231.069 173.727 233 180z"/>
	<path style="fill:#000000; stroke:none;" d="M56 187C72.2419 167.398 97.9179 158.665 122 153.496C130.083 151.761 139.395 152.071 147 149C141.763 142.795 133.101 136.762 132.108 128C131.297 120.84 132.729 112.402 136.134 106C138.61 101.345 142.861 94.1328 147.209 91.071C159.356 82.5182 185.955 82.9082 195.697 95.0185C198.361 98.3305 198.485 102.077 199.539 106C200.265 108.706 201.555 111.184 201.87 114C202.868 122.921 197.988 139.38 190 144C193.987 144.958 198.824 144 203 144C203.997 138.628 203.656 133.396 204.17 128C205.501 114.012 207.176 96.5616 199.287 84.0039C195.602 78.1372 189.839 75.9262 184 72.8326C174.179 67.6292 160.354 63.4566 149 64.9198C146.196 65.2811 143.734 66.8218 141 67.4676C131.56 69.697 122.104 71.7635 113 75.4815C94.7665 82.9275 83.488 101.069 67.9853 112.362C60.5553 117.774 47.1156 121.951 38 121.999C33.6716 122.022 26.1113 120.804 24.4336 126.133C22.5453 132.132 25.2225 138.349 26.8457 144C28.2011 148.719 30.5587 152.537 32.483 157C34.6248 161.967 35.5049 166.572 39.0401 170.91C44.0102 177.01 50.6302 181.394 56 187M189 146C187.212 144.578 186.294 144.303 184 144C184.974 140.248 187.514 138.087 189.613 134.907C192.474 130.571 195.28 124.197 195.87 119C196.57 112.832 194.958 103.166 190.362 98.6489C182.346 90.771 164.82 89.8705 155 94.3549C145.538 98.6761 141.149 107.285 139.258 117C138.53 120.743 137.233 125.167 138.588 128.91C140.565 134.371 145.77 138.74 149.871 142.513C151.599 144.103 152.747 146.666 154.684 147.958C157.474 149.821 162.813 148.057 166 148.003C173.216 147.882 182.049 147.804 189 146z"/>
	<path style="fill:#ffffff; stroke:none;" d="M165 131L159 133L158 142C163.225 141.289 167.142 137.797 172 135.954C175.716 134.545 179.895 134.552 183.227 132.2C189.282 127.925 184.589 124.243 179 125C178.444 118.198 174.558 112.768 174 106C177.627 105.717 183.046 100.628 176.852 99.4877C169.149 98.0694 159.328 101.237 153.005 105.404C151.105 106.657 146.834 108.814 147.752 111.736C149.233 116.452 155.197 111.196 157.722 113.041C159.355 114.234 159.735 117.225 160.358 119.001C161.784 123.069 163.741 126.864 165 131z"/>
	<path style="fill:#000000; stroke:none;" d="M172 129C173.666 121.708 168.477 113.348 168 106C159.521 107.416 166.021 115.521 168.24 120.17C169.658 123.141 170.288 126.128 172 129z"/>
</svg>