<?xml version="1.0" standalone="yes"?>
<svg xmlns="http://www.w3.org/2000/svg" width="256" height="256">
	<path style="fill:#ffffff; stroke:none;" d="M232 105C224.606 109.495 224.354 118.299 221.795 126C214.919 146.691 212.782 168.779 208.269 190.039C206.359 199.033 205.855 216.098 194 217L194 214L188 214C189.914 208.875 192.031 204.663 194.863 200.001C195.88 198.326 196.992 196.364 195.914 194.429C194.674 192.205 191.128 191.393 189 190.335C182.432 187.067 175.947 184.789 169 182.485C162.121 180.202 155.015 179.147 148 177.266C128.615 172.07 108.32 165.834 90 157.63C82.565 154.3 75.3216 150.841 68 147.244C65.1954 145.866 61.4298 143.149 58.1481 143.531C54.7433 143.927 54.8517 148.45 54.2554 151C52.9523 156.573 53.597 161.391 53.4059 167C53.3042 169.983 52.5535 173.062 54.6034 175.61C58.5876 180.561 66.3386 181.113 72 182.386C78.6999 183.892 85.2513 186.044 92 187.517C97.7123 188.764 102.556 192.036 108 193.985C115.198 196.563 122.703 197.484 130 199.721C134.834 201.203 138.485 204.147 143.015 206.19C152.121 210.297 162.217 213.198 171.985 215.325C176.653 216.341 180.08 217.983 185 218C172.061 222.503 155.577 213.652 143 210.676C125.152 206.453 107.681 201.888 90 197.093C86.0611 196.025 81.9251 196.016 78 194.896C70.0131 192.617 61.2547 190.318 53.4244 187.667C46.9782 185.485 41.963 182.885 35 182C42.5764 161.71 44.8604 140.942 49.3889 120C50.3474 115.568 52.5669 111.48 53.4853 107C54.4386 102.35 53.4754 97.6589 54.0332 93C54.8754 85.9659 58.0059 79.5255 60.4668 73C63.3834 65.2663 65.2327 57.3195 64.9846 49C64.8856 45.6832 64.2641 41.2963 60 41.2963C55.751 41.2963 55.1555 45.7511 54.5872 49C53.1789 57.0504 52.6959 65.0243 50.8881 73C49.7053 78.2185 49.6721 83.8418 47.8573 88.9105C46.6858 92.1824 44.0628 94.5067 43.3441 98.0039C42.0021 104.534 43.1786 111.477 42.2415 118C41.4532 123.488 39.0592 128.689 37.5941 134C35.7938 140.527 35.2523 147.409 33.6258 154C32.1225 160.092 30.863 166.281 28.2191 172C26.7062 175.273 24.2771 179.013 26.1752 182.625C27.4723 185.094 30.2037 189.644 32.3133 191.401C37.0039 195.308 45.3537 195.161 51 196.608C59.1985 198.709 66.5656 201.133 75 202.184C96.9612 204.919 116.808 213.496 138 219.077C151.705 222.687 165.193 222.9 179 225.223C183.22 225.933 186.61 227.87 191 228C184.941 236.663 196.166 240.075 203 241L199.728 243.629C196.792 246.114 195.013 251.498 201.019 250.523C205.474 249.8 210.811 246.806 215 245C216.015 248.056 220.309 250.92 222.397 246.682C229.115 233.046 207.318 230.223 199 229C201.664 227.497 205.138 226.531 207.39 224.44C218.103 214.496 216.072 198.246 218.037 185.424C218.965 179.374 222.251 173.128 223.664 167C225.722 158.082 226.383 148.82 228.785 140C230.408 134.039 229.89 127.773 231.546 122C233.06 116.72 238.52 110.634 232 107C234.286 106.047 237.19 105.299 238.218 102.772C239.414 99.8355 237.657 96.6156 238.475 93.5756C240.683 85.3674 251.285 74.1337 246.171 65.1705C241.196 56.4529 230.914 56.0144 223 51.2261C217.678 48.0057 212.389 43.6726 206.83 40.9915C204.638 39.9341 201.658 39.8788 199.858 41.7423C197.226 44.4669 198.155 49.5663 197.535 53C195.829 62.4611 193.216 71.3791 192 81C185.327 75.8717 178.328 74.8227 171 71.1682C155.848 63.6119 140.465 55.6741 124 51C124.729 47.6576 124.163 44.2976 124.878 41C126.418 33.9 133.014 25.8466 127.825 18.4329C124.646 13.8912 114.855 15.0316 110 13.4807C104.18 11.6214 97.6298 11.3781 92 9.2662C88.9494 8.12184 86.4789 5.32211 83.0394 5.37114C73.4114 5.50838 70.5207 16.0663 67.652 23C66.4134 25.9937 64.6938 28.7407 64.2137 32C62.7647 41.8373 71.0507 48.2018 80 49.6674C83.6732 50.269 87.3182 49.2417 91 49.9282C95.5567 50.7779 99.6076 53.0397 104 54.4066C121.442 59.8347 137.985 68.8576 155 75.5216C158.24 76.7906 161.732 77.0548 164.996 78.2461C168.559 79.5466 171.532 81.8994 175.039 83.2932C187.53 88.2572 200.471 92.1195 213 96.8002C219.462 99.2144 225.359 102.953 232 105z"/>
	<path style="fill:#000000; stroke:none;" d="M79 13C80.2915 20.9652 75.3253 28.1777 74 36C80.9088 37.2277 86.4399 41.5776 93 43.7546C99.6684 45.9676 107.121 46.048 114 48L121 26C111.533 23.7399 101.243 22.9354 92.0895 19.4799C87.5565 17.7687 83.6404 14.6607 79 13M207 53C204.338 63.2888 204.086 72.9857 200 83C207.18 84.661 214.065 87.7181 220.961 90.064C223.083 90.7857 225.48 93.0307 227.862 92.2639C230.349 91.4631 231.123 88.179 231.818 85.9992C233.777 79.8581 235.802 74.0496 238 68C226.977 64.2711 216.68 59.369 207 53z"/>
	<path style="fill:#ffffff; stroke:none;" d="M79 106C73.9528 108.946 73.6996 115.688 74.8202 121C77.0978 131.796 84.6902 142.202 96 144.61C106.185 146.779 114.544 141.427 119.259 132.996C121.344 129.269 125.423 126.555 127.11 122.741C128.836 118.84 128.52 112.232 128.414 108C128.024 92.3113 112.746 82.5606 98 84.108C87.6234 85.1969 77.5291 95.3303 79 106z"/>
	<path style="fill:#000000; stroke:none;" d="M97 91.6489C83.5595 95.7048 83.4379 109.841 83.7407 121C83.8228 124.023 82.6323 127.107 84.0424 129.985C87.4028 136.841 98.1452 139.58 105 137.298C116.93 133.326 122.499 121.939 121.61 110C120.639 96.9567 110.277 87.6425 97 91.6489z"/>
	<path style="fill:#ffffff; stroke:none;" d="M151 138C146.052 137.509 144.941 140.793 147.19 145.001C150.05 150.353 154.753 155.242 160.09 158.179C165.327 161.061 174.153 163.325 179.896 160.852C186.832 157.864 190.885 144.916 188.944 138C186.138 127.999 171.95 121.016 162.09 124.994C156.224 127.36 153.305 132.469 151 138z"/>
	<path style="fill:#000000; stroke:none;" d="M154 144C156.221 147.079 158.596 149.382 162 151.175C164.512 152.498 167.284 153.547 170 154.369C177.619 156.673 183.647 149.641 182.512 142C181.394 134.473 170.899 124.823 163.39 130.742C159.414 133.877 157.463 140.142 154 144M60 152C59.1407 156.628 56.9095 164.549 59.1937 168.896C62.2637 174.739 71.427 175.73 77 178C78.0074 171.626 81.8466 166.053 84 160L60 152M87 162C86.8021 167.584 84.2626 172.94 82 178C88.6493 180.127 94.4313 183.735 101 185.91C117.999 191.54 135.801 195.761 152 203C155.408 197.795 159.1 192.871 164 189L164 187C152.492 182.85 139.979 179.771 128 177C127.259 179.321 122.288 191.481 118.624 188.248C115.223 185.248 120.567 177.016 122 174C110.148 172.158 98.6182 165.297 87 162M158 206C162.432 206.652 166.837 207.909 171 209.576C173.27 210.484 176.098 212.185 178.625 211.302C183.113 209.735 186.187 201.984 188 198C183.751 195.765 178.087 191.55 173.09 191.682C166.883 191.846 160.67 201.249 158 206z"/>
	<path style="fill:#ffffff; stroke:none;" d="M21 209C26.6348 217.737 32.4285 227.068 39.8735 234.409C41.9307 236.437 47.6324 242.164 49.7438 236.84C50.9913 233.695 47.2907 230.815 45.4097 228.87C39.5269 222.784 35.4068 217.207 31 210C38.086 210.146 44.9921 212.999 52 212.872C56.9386 212.782 61.1165 213.513 66 213.907C69.5976 214.197 75.535 215.429 78.9414 214.307C82.5534 213.117 83.7238 208.526 80.5656 206.14C77.1533 203.561 71.9883 204.184 68 203.91C60.9567 203.428 54.0253 202.582 47 202.09C43.2738 201.828 39.6012 202.267 36 201.035C30.1687 199.039 23.2704 195.79 17.2894 199.499C11.713 202.957 12.0693 206.308 11.0316 212C10.0093 217.608 8.74315 222.142 9.04012 228C9.20265 231.206 11.469 239.469 16.3935 235.802C18.5772 234.176 17.5163 230.323 17.8796 228C18.8788 221.613 19.2404 215.262 21 209z"/>
</svg>