<?xml version="1.0" standalone="yes"?>
<svg xmlns="http://www.w3.org/2000/svg" width="256" height="256">
	<path style="fill:#ffffff; stroke:none;" d="M155.227 42.7577C151.774 44.2291 149.387 50.8064 147.86 54.0147C145.584 58.7964 142.398 63.1213 140.349 68C138.326 72.8152 137.608 78.084 135.899 83C133.793 89.0565 129.394 93.9263 127.44 100C124.232 109.969 123.826 120.013 121.535 130C117.765 146.44 112.794 163.073 107.633 179C106.052 183.878 105.758 189.15 104.197 193.996C102.547 199.118 97.1882 201.831 95.7469 207C93.9664 213.385 100.287 214.463 104.981 213.137C110.234 211.654 110.51 207.143 112.92 203C114.565 200.17 117.072 197.945 118.543 195C121.413 189.255 122.119 181.274 123.579 175C124.754 169.957 127.377 165.83 129.031 161.001C130.065 157.982 129.68 154.808 130.875 151.83C132.638 147.438 135.435 143.54 136.83 139C143.308 117.915 146.773 95.9304 153.671 75C156.004 67.9189 158.04 60.9239 160.143 53.804C160.738 51.7866 162.196 50.0361 162.477 47.9259C163.024 43.8185 158.946 41.1728 155.227 42.7577M81 82C78.3036 73.9096 68.5525 83.3897 65.108 86.7191C62.6325 89.112 61.1692 92.2465 58.7261 94.6111C54.7821 98.4283 50.0413 101.004 46.3789 105.285C44.4275 107.567 43.4061 110.413 41.5015 112.715C37.7695 117.225 33.1087 120.483 30.6235 126C20.4557 148.571 52.1011 155.272 66.7145 162.88C71.8589 165.558 83.5081 175.345 89.3958 169.397C93.6196 165.129 86.9572 158.271 83.7407 155.623C77.7393 150.683 69.8399 150.278 63.1327 147.262C60.2849 145.981 59.1489 142.84 56.7762 140.954C54.3683 139.039 49.2784 137.511 48.9622 133.907C48.6207 130.014 53.8551 125.725 56.0139 122.914C64.6905 111.62 74.778 102.381 84.8519 92.5363C89.8644 87.6375 87.4894 82.495 81 82M169 89C162.079 91.1011 163.536 99.6331 169.105 102.992C176.807 107.636 184.464 112.406 191.833 117.835C195.157 120.283 197.675 123.614 201.075 125.984C203.848 127.917 211.223 132.456 209.794 136.722C208.815 139.645 202.432 141.303 200 142.896C190.987 148.798 181.356 154.536 173.174 161.595C169.828 164.482 166.194 169.201 167.333 173.941C169.401 182.546 177.807 174.272 181.17 172.073C187.56 167.895 194.428 163.391 201 159.498C207.374 155.724 213.339 154.234 215 146C222.133 145.353 231.33 137.101 226.971 129.104C223.81 123.303 214.286 119.458 209.27 115.201C203.988 110.717 200.065 103.948 194.985 99.0432C191.712 95.8822 187.574 94.3934 184.213 91.5015C181.719 89.3551 180.676 85.7072 177.787 84.0285C173.159 81.34 169.697 84.6305 169 89z"/>
	<path style="fill:#000000; stroke:none;" d="M176 94C176.97 96.4917 177.475 97.1456 180 98C178.67 96.2475 177.753 95.3303 176 94z"/>
</svg>