<?xml version="1.0" standalone="yes"?>
<svg xmlns="http://www.w3.org/2000/svg" width="256" height="256">
	<path style="fill:#ffffff; stroke:none;" d="M153.232 32.071C149.815 33.9475 150.493 38.1103 152.518 40.7145C155.867 45.0206 161.09 47.7205 164.273 52.1698C166.966 55.9334 167.203 60.8127 168.879 65C170.77 69.7235 173.904 74.1158 175.352 79C176.58 83.1453 175.853 87.7377 176.039 92C176.439 101.12 177.008 109.884 177.015 118.996C177.023 129.353 179.222 139.666 178.985 150C178.657 164.359 174.843 179.139 168.598 192C166.089 197.166 162.139 201.981 157.985 205.907C155.805 207.967 152.56 209.684 151.032 212.324C147.939 217.669 153.876 219.471 158 218.386C170.696 215.047 180.784 198.285 185.598 187C186.984 183.75 186.829 180.4 187.514 177C190.433 162.511 188.68 147.639 188.039 133C187.145 112.568 190.67 93.0231 184.434 73C182.71 67.4653 180.075 62.3525 177.923 57C175.119 50.0271 172.906 42.3306 166.981 37.2631C164.015 34.726 157.338 29.816 153.232 32.071M33.2091 35.0285C23.9631 40.3388 23.1869 56.1892 19.8673 64.9606C17.2574 71.8567 14.0041 77.5721 12.5139 85C7.43679 110.307 12.6162 137.41 17.9367 162C19.0664 167.221 18.077 172.787 19.6474 178C21.3861 183.772 24.8186 189.442 27.216 195C29.8649 201.141 31.7928 206.964 35.2045 212.83C37.1591 216.191 40.682 222.982 45.5671 219.806C49.8168 217.043 47.1258 210.476 45.51 207C43.5811 202.851 40.5474 199.233 38.8272 195C35.5402 186.912 33.6907 178.283 30.9259 170C23.2048 146.868 24.4263 122.035 26.831 98C27.6751 89.5636 27.6841 80.2471 29.4552 72C30.54 66.9489 31.5796 60.8097 33.8827 56.1698C36.3402 51.2189 40.2269 46.5186 41.4823 41.0008C42.6428 35.8999 37.8145 32.3836 33.2091 35.0285M208.004 36.5733C198.913 39.1682 195.955 53.5124 203.468 59.3966C206.524 61.7899 212.448 61.4469 216 60.4275C232.529 55.6841 222.774 32.3573 208.004 36.5733M80 80C77.558 79.8905 75.3772 79.572 73 79C73.6058 72.5886 67.8112 70.0126 65 65C53.2547 65.0416 48.5772 77.7202 39 83C39.0845 90.1275 43.4323 93.7695 48.2955 98.615C49.7663 100.08 53.5887 102.91 52.0787 105.397C50.5466 107.922 46.0457 106.658 44 109C29.4958 105.384 34 131.419 34 140C41.7206 140 50.2888 137.836 54 146C49.3094 148.393 47.5543 153.548 43 156C43.2642 164.313 48.7995 166.012 53.2006 172.039C55.9443 175.797 60.1153 182.476 65.8704 180.932C70.6944 179.638 73.5576 172.158 75 168C76.8006 168.562 78.1219 168.824 80 169C80.014 174.071 79.61 184.3 83.0131 188.397C84.952 190.73 89.3288 189.999 92 190C98.4276 190.003 104.602 190.772 111 190.05C113.567 189.761 117.269 189.757 118.971 187.436C121.348 184.196 119.215 175.81 118.82 172.004C118.623 170.099 117.376 166.783 119.502 165.507C121.992 164.013 124.716 166.379 126.24 168.134C130.277 172.784 132.971 179.368 139.985 179.872C146.058 180.308 147.5 175.031 151.144 171.421C154.064 168.526 159.816 165.526 161.377 161.625C164.311 154.295 151.176 147.74 146 146C147.573 143.885 148.352 142.53 149 140C153.29 139.659 163.197 139.877 166.397 136.976C170.194 133.534 168.086 120.774 167.995 116.004C167.956 113.946 168.066 111.533 166.397 110.024C161.536 105.63 149.787 113.188 146.646 105.852C144.281 100.33 151.805 96.6565 153.199 92.0039C154.84 86.5274 144.658 77.0172 140.7 73.9537C137.842 71.7415 133.632 68.8193 130 70.7106C126.49 72.5383 121.977 80.5226 117.264 77.9174C109.392 73.5663 118.54 61.3709 113.972 55.6034C112.255 53.4355 108.42 54.005 106 54C100.19 53.9881 85.7725 51.6132 82.0278 57.314C80.6256 59.4486 80.9942 62.5768 81.0008 65C81.0151 70.3111 81.0287 74.7786 80 80z"/>
	<path style="fill:#010101; stroke:none;" d="M63 73C57.2215 76.3904 49.0605 82.001 46 88C54.3624 91.7582 69.3653 104.836 55.7106 112.012C51.3869 114.284 45.0933 111.176 41.6034 115.318C38.1689 119.394 40 128.973 40 134L57 133C57.9082 137.71 61.7122 141.998 60.9167 146.957C60.1598 151.675 55.0507 152.25 53.0432 156.105C49.3041 163.286 59.5607 170.697 65 173C66.2263 170.75 67.7509 168.523 68.3403 165.999C68.7216 164.366 68.272 161.977 69.6921 160.747C71.288 159.365 73.4032 160.679 75.0008 161.306C78.3851 162.635 83.8541 162.324 85.5355 166.123C87.6533 170.909 84.6223 178.221 88.7415 182.397C90.5975 184.278 93.5954 183.923 96 184.169C102.537 184.837 107.946 184.964 114 182C112.369 173.222 106.906 156.173 122 158.599C123.678 158.868 125.452 159.177 126.957 160.013C132.749 163.232 134.963 170.481 141 174C143.795 169.461 151.364 166.066 151.965 160.09C152.61 153.662 141.802 150.321 140.163 144.816C139.089 141.208 143.09 137.384 144 134C148.225 133.913 158.163 134.095 160.972 130.411C162.442 128.484 162.01 125.263 161.999 123C161.989 120.793 162.358 117.581 160.397 116.028C156.685 113.088 149.396 115.815 145.015 114.682C131.652 111.225 141.596 96.9462 146 91C142.23 85.8205 138.377 81.5885 134 77C130.054 78.8788 127.877 83.1463 123.961 84.8025C122.373 85.4738 120.665 85.2641 119.001 85.1458C106.608 84.2654 109.403 69.3835 109 60C103.922 60 92.7429 57.9004 88.6034 61.179C86.8596 62.5601 87.091 65.023 86.9653 67.0039C86.7037 71.127 86.9205 77.12 85.3966 80.9452C83.8126 84.9212 75.4185 89.4745 71.5849 86.2176C68.3433 83.4637 65.5043 76.6665 63 73z"/>
	<path style="fill:#ffffff; stroke:none;" d="M95 104.432C87.0187 105.496 76.8705 113.194 76.733 122.13C76.5387 134.76 88.5255 145.805 101 143.642C111.755 141.777 112.925 133.936 113.848 125C114.335 120.288 114.845 115.244 112.146 111.043C108.596 105.519 101.18 103.608 95 104.432M209.147 185.028C204.356 187.845 204.623 195.28 204.915 200C205.735 213.27 219.121 221.156 231 224.411C234.699 225.425 240.084 227.38 243.682 224.972C247.763 222.242 244.855 216.843 242.517 214.054C240.207 211.299 236.855 209.695 234.652 206.871C233.041 204.806 232.407 202.3 231.247 200C227.832 193.233 218.33 179.628 209.147 185.028z"/>
</svg>