<?xml version="1.0" standalone="yes"?>
<svg xmlns="http://www.w3.org/2000/svg" width="256" height="256">
	<path style="fill:#ffffff; stroke:none;" d="M181 44C172.74 48.2066 160.242 56.5766 158 66C162.001 68.0114 168.728 71.2983 170 65L172 65L171 63C173.629 60.8971 175.86 58.6755 178 56L179 57C179 55.2032 178.986 55.4785 178 54C184.385 53.193 190.561 53 197 53C197.07 56.8952 196.849 61.1607 197.454 65C198.12 69.2251 200.007 72.6056 200 77L196 77L196 81L199 81L199 89C191.279 86.7178 182.025 88 174 88C180.445 90.7044 190.032 89 197 89C197.354 94.852 197.461 100.154 197 106L174 106L174 101C173.315 102.248 173.251 102.548 173 104C171.448 99.0908 171.462 93.8997 170 89C171.195 90.2228 171.316 90.42 172 92C173.015 90.8607 173.309 90.3884 174 89C172.521 88.0143 172.797 88 171 88L172 85C168.894 83.3378 165.264 81.0879 161.83 80.2986C156.808 79.1443 151.157 80.0053 146 79.2708C142.113 78.7172 136.497 79.1902 134 76C123.419 81.8929 108.571 78.5191 97 78.7106C70.5609 79.1482 44.4488 81 18 81C20.0521 81.8742 21.7472 81.9528 24 82C17.6433 83.8839 11.6183 83.7785 8.85417 91.1698C6.35785 97.8448 10.7875 104.632 5 110C5.19247 115.389 0.536181 123.536 5 128C2.47521 129.786 4.16856 133.367 7 134C5.46609 135.023 5.59771 134.805 5 136C9.18362 140.656 6.45423 146.391 8 152C6.36484 151.455 6.54505 151.635 6 150C4.04413 154.319 -0.823764 167.099 3.76543 170.972C5.3647 172.322 8.07474 171.977 10 172C9.90113 176.79 10.2924 184.218 6 187C7.90404 188.884 9.53368 189.953 12 191C10.5215 191.986 10.7968 192 9 192C13.4827 195.062 19.7542 194 25 194L60 194C58.692 197.924 58.4542 198.963 61 201C55.0993 202.405 49.0321 202 43 202C48.2224 204.191 55.3678 203 61 203C56.2021 208.325 50.5292 206.8 43.9961 207.042C39.969 207.192 36.0482 207.966 32 208C35.6975 209.552 40.0168 209 44 209C38.2737 210.693 31.9428 210 26 210C30.974 212.087 37.6381 211 43 211C37.2737 212.693 30.9428 212 25 212L25 218C29.3481 215.101 43.8449 214.11 47 219L42 218L42 221L46 220C45.1007 222.124 45.1236 222.101 43 223C46.1752 231.829 53.9378 227.793 61 227.874C68.5901 227.961 75.3251 230.062 83 229.133C91.6661 228.085 100.376 229.544 109 229.776C112.43 229.868 115.596 228.322 119 228.05C124.249 227.631 129.861 228.586 134.996 227.848C140.1 227.115 143.208 222.06 148.09 220.546C152.499 219.177 157.482 220.35 162 220.29C171.262 220.167 180.002 219.386 189 222C187.466 223.023 187.598 222.805 187 224C190.491 225.273 194.64 225.499 197.91 227.163C200.424 228.441 202.185 230.889 205.039 231.524C208.356 232.261 211.72 230.413 215 230.104C220.85 229.553 226.241 230.964 232 230.971C238.815 230.979 247.378 231.152 248 223L256 223C254.752 222.315 254.452 222.251 253 222L256 220L256 214L249 214C251.418 213.278 253.472 213.052 256 213C254.936 209.796 253.353 208.694 250 209C250.674 206.703 250.965 206.226 253 205C252.339 203.604 252.036 203.186 251 202L253 202C252.35 200.7 252.853 201 251 201L253 200C252.35 198.7 252.853 199 251 199L253 198C252.302 196.433 252.126 195.714 252 194L247 194L247 192L252 192C251.824 190.122 251.562 188.801 251 187C255.75 185.982 255 176.258 255 172L247 172C248.64 166.399 247.54 159.882 248 154C248.957 155.517 249.387 156.339 250 158C252.029 156.514 253.575 155.641 256 155L256 153C254.122 153.176 252.801 153.438 251 154C251.305 151.285 251.159 148.728 251 146L256 146C253.423 144.783 251.58 144.464 250 142C252.106 142.644 253.795 142.906 256 143L256 141L252 141L250 134L254 134C252.231 133.221 250.964 133.088 249 133L249 121C247.733 119.457 247.511 118.952 247 117C248.023 118.534 247.805 118.402 249 119L250 115C248.521 114.014 248.797 114 247 114C249.106 113.356 250.795 113.094 253 113L253 110C250.283 109.903 247.695 109.702 245 110C246.724 108.944 246.921 108.964 249 109C250.789 107.578 251.706 107.303 254 107C251.668 106.015 249.543 106.019 247 106L248 102C246.604 102.661 246.186 102.964 245 104C244.041 99.0856 244.997 94.006 245 89C245.562 90.8005 245.824 92.1219 246 94C247.996 92.0386 249.511 90.295 252 89C250.231 88.2211 248.964 88.0876 247 88L247 86L252 86C250.231 85.2211 248.964 85.0876 247 85L247 82L253 82C250.814 80.8839 249.451 80.7734 247 81L248 78L246 78C246.81 75.271 246.979 72.8495 247 70L256 70C252.837 68.6726 249.414 69.0004 246 69C246.57 65.2971 245.832 61.7336 246 58L252 58C249.749 56.9115 247.465 56.4813 245 56C246.757 54.2666 247.642 53.6591 250 53L250 51L245 51L245 49L250 49C248.494 48.317 247.685 48.1741 246 48L250 47C248.983 44.5186 248.562 43.7356 246 43C246.985 37.6184 248.444 30.0294 243 27C242.594 18.182 228.792 21.497 223 22.0262C212.178 23.0151 199.876 20.828 191.019 28.4707C188.544 30.6057 187.364 33.3397 185.471 35.9105C183.289 38.8726 181.175 40.2257 181 44M57.6667 29.3333C57.2222 29.7778 58.2778 29.7222 58.3333 29.6667C58.7779 29.2221 57.7222 29.2778 57.6667 29.3333M37.6667 30.3333C37.2223 30.7778 38.2778 30.7222 38.3333 30.6667C38.7778 30.2222 37.7222 30.2778 37.6667 30.3333z"/>
	<path style="fill:#000000; stroke:none;" d="M210 43L209 46L236 46C235.518 43.636 235.364 43.4825 233 43L233 39C236.431 37.771 237.242 35.4519 238 32C229.963 31.5948 221.923 31.0889 214 32.6111C211.854 33.0233 209.114 32.4868 207.111 33.3333C202.825 35.1453 206.86 42.3306 210 43M193 42L194 43L193 42M196 43C194.814 44.1863 194.472 44.5838 194 46L198 46C197.316 44.42 197.195 44.2228 196 43z"/>
	<path style="fill:#ffffff; stroke:none;" d="M105 46L106 47L105 46z"/>
	<path style="fill:#000000; stroke:none;" d="M179 46C180.506 46.683 181.315 46.8259 183 47C181.494 46.317 180.685 46.1741 179 46M199 46C200.248 46.6848 200.548 46.7488 202 47C200.752 46.3152 200.452 46.2512 199 46M237 46C238.248 46.6848 238.548 46.7488 240 47C238.752 46.3152 238.452 46.2512 237 46M184 52C189.046 52 195.762 53.4897 199 49C196.821 48.2736 197.22 48.5605 198 47C192.325 47.0006 186.664 46.1183 184 52M206 48L206 53C207.015 51.8607 207.309 51.3884 208 50C216.566 52.532 227.091 51 236 51L236 47C226.503 47 215.127 45.3021 206 48M209 53L209 57L236 57L236 53L209 53M244 57L245 58L244 57z"/>
	<path style="fill:#ffffff; stroke:none;" d="M177 58L174 62C175.756 60.6231 176.54 60.1059 177 58z"/>
	<path style="fill:#000000; stroke:none;" d="M207 58L206 62C214.561 59.0861 225.989 61 235 61L235 58C225.734 58 216.231 58.6352 207 58z"/>
	<path style="fill:#ffffff; stroke:none;" d="M246 61C248.613 62.0977 251.164 61.9928 254 62C251.387 60.9023 248.835 61.0072 246 61z"/>
	<path style="fill:#000000; stroke:none;" d="M 208 62 C 208.251 64.224 208.379 66.577 210.434 67.974 C 212.742 69.543 216.364 68.999 219 69 L 238 69 C 236.086 66.569 234.987 65.138 235 62 L 208 62 M 208 81 C 215.926 80.49 224.047 81 232 81 L 232 77 L 236 77 L 236 70 C 229.667 70 223.333 69.957 217 70.001 C 214.671 70.017 211.62 69.7 209.883 71.603 C 207.798 73.888 208.127 78.128 208 81"/>
	<path style="fill:#ffffff; stroke:none;" d="M143 73L143 78C143.83 75.9695 143.83 75.0305 143 73M105.333 76.6667C105.278 76.7222 105.222 77.7778 105.667 77.3333C105.722 77.2777 105.778 76.2223 105.333 76.6667M30 78L31 79L30 78M32 78L33 79L32 78M36 78L37 79L36 78M215 78L216 79L215 78M14 79L15 80L14 79M17 79L18 80L17 79M43 79L44 80L43 79M210 79L211 80L210 79M178 80L179 81L178 80M165 81L166 82L165 81z"/>
	<path style="fill:#000000; stroke:none;" d="M236 81C228.25 83.685 218.172 82 210 82L210 85L237 85C236.826 83.3148 236.683 82.506 236 81z"/>
	<path style="fill:#ffffff; stroke:none;" d="M235 83L236 84L235 83z"/>
	<path style="fill:#000000; stroke:none;" d="M209 87C210.184 88.8948 210.435 89.7398 210 92C209.014 90.5215 209 90.7968 209 89C207.124 93.4714 208 99.1833 208 104C209.195 103.402 208.977 103.534 210 102L210 106C218.581 105.418 227.388 106 236 106C235.67 100.028 235.705 93.7543 234 88L237 88L237 86C228.091 86 217.566 84.468 209 87M124 87L124 89C119.336 87.74 114.551 89.258 109.714 89.1165C93.1728 88.6327 76.429 90.0763 60 88C59.1083 89.9385 58.5982 90.519 57 92L57 89L55 89L55 101C72.2294 101.072 89.6256 98.7757 107 98.3333C111.575 98.2168 121.818 100.543 123 95C125.88 98.8098 129.579 98.9103 134 100L133 98C138.781 100.906 145.328 98.9441 150 104C150.479 102.502 150.4 102.65 150 101L153 102L152 106L162 106L162 95C160.7 95.6498 161 95.1468 161 97C160.735 94.6123 160.857 92.4063 161 90C160.315 91.2483 160.251 91.5485 160 93C159.014 91.5215 159 91.7968 159 90C155.637 90 151.731 90.6383 149 89L150 88C141.64 89.0749 132.269 88.9632 124 87z"/>
	<path style="fill:#ffffff; stroke:none;" d="M212 88L213 89L212 88M214 88C218.974 90.0872 225.638 89 231 89C226.026 86.9128 219.362 88 214 88M232 88L233 89L232 88z"/>
	<path style="fill:#000000; stroke:none;" d="M42 89L43 90L42 89M247 89L248 90L247 89z"/>
	<path style="fill:#ffffff; stroke:none;" d="M2.33333 90.6667C2.27778 90.7222 2.22222 91.7778 2.66667 91.3333C2.72221 91.2778 2.7778 90.2222 2.33333 90.6667z"/>
	<path style="fill:#000000; stroke:none;" d="M20 96C19.8163 93.7769 19.7604 93.8103 21 92C16.9516 91.3326 17.5847 100.9 17 104C19.8719 104 19.5186 107.387 20 110L28 110C28.8175 99.2826 44.8676 101 53 101L53 90C44.3777 90.0057 24.3699 87.3357 20 96z"/>
	<path style="fill:#ffffff; stroke:none;" d="M86 90L87 91L86 90M122 90C122.545 91.6352 122.365 91.4549 124 92C123.455 90.3648 123.635 90.5451 122 90M133 90L134 91L133 90M211 91L212 92L211 91M218.667 91.3333C218.222 91.7778 219.278 91.7222 219.333 91.6667C219.778 91.2222 218.722 91.2777 218.667 91.3333M250 91L251 92L250 91M29 92L30 93L29 92M39 92L39 95C39.6961 93.4463 39.6961 93.5537 39 92M87.6667 92.3333C87.2222 92.7778 88.2778 92.7222 88.3333 92.6667C88.7777 92.2222 87.7222 92.2778 87.6667 92.3333M96.6667 92.3333C96.2222 92.7778 97.2778 92.7222 97.3333 92.6667C97.7778 92.2222 96.7222 92.2778 96.6667 92.3333M58 93L58 100C59.0594 97.4657 59.0595 95.5343 58 93M68 93L68 99C68.9511 96.7147 68.9511 95.2853 68 93M172 93L173 100C174.015 98.8607 174.309 98.3884 175 97L172 93M125 94L126 95L125 94M136 94L137 95L136 94M209 94C209.674 96.2974 209.965 96.7741 212 98L209 94M227 94L228 95L227 94M2.33333 95.6667C2.27778 95.7222 2.22222 96.7778 2.66667 96.3333C2.72222 96.2778 2.77778 95.2222 2.33333 95.6667M133.333 95.6667C133.278 95.7222 133.222 96.7778 133.667 96.3333C133.722 96.2777 133.778 95.2223 133.333 95.6667M211 95L212 96L211 95M221 95L222 96L221 95M248.333 95.6667C248.278 95.7222 248.222 96.7778 248.667 96.3333C248.722 96.2777 248.778 95.2223 248.333 95.6667M65 96L66 97L65 96M189 96L190 97L189 96M246 96C246.406 98.0924 246.217 98.0198 248 99C247.309 97.6116 247.015 97.1393 246 96M45 98C46.2483 98.6848 46.5485 98.7488 48 99C46.7516 98.3152 46.4516 98.2512 45 98M56 98L57 99L56 98M144 98L145 99L144 98M150 98L151 99L150 98M155 98L156 99L155 98M180 98L181 99L180 98M182 98L183 99L182 98M215 98L216 99L215 98M222 98L223 99L222 98M38.3333 99.6667C38.2777 99.7223 38.2223 100.778 38.6667 100.333C38.7222 100.278 38.7778 99.2222 38.3333 99.6667M180 100L180 102L187 102C185.071 99.442 183.095 99.7729 180 100M210.333 99.6667C210.278 99.7222 210.222 100.778 210.667 100.333C210.722 100.278 210.778 99.2223 210.333 99.6667M212 99L213 100L212 99M153 100C155.332 100.985 157.457 100.981 160 101C157.668 100.015 155.543 100.019 153 100M188 100L189 101L188 100M190 100L190 102L195 102L195 100L190 100M246 100L247 101L246 100M2 101L3 102L2 101M19 101L20 102L19 101z"/>
	<path style="fill:#000000; stroke:none;" d="M144 101L145 102L144 101z"/>
	<path style="fill:#ffffff; stroke:none;" d="M250 101L251 102L250 101M212.333 102.667C212.278 102.722 212.222 103.778 212.667 103.333C212.722 103.278 212.778 102.222 212.333 102.667M222 102L223 103L222 102M227.333 102.667C227.278 102.722 227.222 103.778 227.667 103.333C227.722 103.278 227.778 102.222 227.333 102.667z"/>
	<path style="fill:#000000; stroke:none;" d="M93 104C95.2757 106.604 98.6832 105.999 102 106L124 106C116.706 100.474 101.795 104.605 93 104z"/>
	<path style="fill:#ffffff; stroke:none;" d="M160 104L161 105L160 104M175 104L176 105L175 104z"/>
	<path style="fill:#000000; stroke:none;" d="M198.333 104.667C198.278 104.722 198.222 105.778 198.667 105.333C198.722 105.278 198.778 104.222 198.333 104.667z"/>
	<path style="fill:#ffffff; stroke:none;" d="M222 104L223 105L222 104M224 104L225 105L224 104M248 104L249 105L248 104M2 105L3 106L2 105z"/>
	<path style="fill:#000000; stroke:none;" d="M76.6667 105.333C76.2222 105.778 77.2778 105.722 77.3333 105.667C77.7778 105.222 76.7222 105.278 76.6667 105.333M81 105C84.4324 106.44 88.2998 106 92 106C88.5676 104.56 84.7002 105 81 105M125 105L126 106L125 105M127 105C128.769 105.779 130.036 105.912 132 106C130.231 105.221 128.964 105.088 127 105M59 109C56.74 107.048 55.6499 106.909 55 110C59.7481 109.681 64.2697 110.875 69 110.985C80.6449 111.257 92.3458 111 104 111C99.5065 113.851 94.2033 113 89 113C81.4033 113 73.4959 112.962 66 112.528C60.3726 112.202 56.7926 110.41 51 112.167C46.7492 113.456 38.0895 110.915 37 116C36.0143 114.521 36 114.797 36 113C34.6859 113.768 34.7679 113.686 34 115C32.8137 113.964 32.3964 113.661 31 113C31 119.968 31.5582 127.055 31 134C32.761 133.209 32.5454 133.038 34 134C34.4477 130.507 33.0405 126.667 33 123C34.9825 127.072 36.5298 127.93 41 127C38.8339 128.195 37.4471 128.691 35 129C35.6617 131.498 36.3696 133 38 135L35 135C35.7679 136.314 35.6858 136.232 37 137C36.4382 138.801 36.1759 140.122 36 142C37.0501 140.265 37.0462 140.068 37 138L41 138C39.4661 139.023 39.5977 138.805 39 140C40.1863 141.186 40.5279 141.584 41 143L36 143C38.0521 143.874 39.7472 143.953 42 144C40.1994 144.562 38.8782 144.824 37 145C37.5977 146.195 37.4661 145.977 39 147C37.1302 148.229 36.7765 148.868 36 151L42 150C40.4833 150.957 39.6615 151.387 38 152L39 159L38 157C37.0759 158.648 36.5506 160.175 36 162C38.5505 161.775 38.6069 161.841 40 164L34 163L37 155L33 155C32.8432 160.054 32.9224 165.014 32 170L35 170L35 165C41.3631 173.474 54.8544 169.708 64.0895 169.95C67.4758 170.038 71.0739 169.506 74.4244 169.99C77.367 170.415 79.9588 171.888 83 171.853C86.077 171.816 88.966 170.547 92 170.184C97.5253 169.523 103.454 170.057 109 170.3C121.751 170.858 134.212 172.514 147 172C147 165.954 147.795 160.871 149 155L144 155C145.801 154.438 147.122 154.176 149 154C149 151.915 148.862 152.276 151 152L151 145L147 146C148.543 144.733 149.048 144.511 151 144C149.494 143.317 148.685 143.174 147 143L147 141L151 141C150.061 138.363 149.42 137.382 147 136L149 135C147.192 134.033 145.582 133.302 144 132C145.915 133.277 145.085 133.277 147 132C146.445 130.196 146.166 128.873 146 127L144 127C144.954 123.679 145.936 116.438 142.596 114.028C139.249 111.611 131.952 113 128 113C133.371 111.139 139.362 112 145 112L145 107C123.849 108.075 102.247 107.04 81 107C75.3362 106.989 62.982 104.443 59 109M34 110C40.2805 109.596 46.698 110 53 110L53 107C48.5043 107.003 36.609 106.268 34 110M153 107C155.613 108.098 158.165 107.993 161 108C158.022 109.254 153.684 110.013 151 108C150.782 109.687 150.776 110.316 151 112C148.145 114.591 148.05 124.419 151 127C149.6 134.486 158.924 132.997 164 133C162.324 126.396 161.503 119.825 162 113C158.199 113 154.657 112.919 151 114C154.688 111.206 159.519 112 164 112C162.825 110.121 162.869 109.285 163 107L153 107M175 107L175 112C181.748 111.801 188.074 110 195 110L195 107L175 107M196 107L196 110L198 110L198 107L196 107M207 111C209.852 110.155 211.364 109.982 212 107C209.433 107.949 208.468 108.694 207 111M213 107L213 110L237 110C233.435 104.501 219.091 107 213 107z"/>
	<path style="fill:#ffffff; stroke:none;" d="M0 108C2.05211 108.874 3.74717 108.953 6 109C3.94788 108.126 2.25284 108.047 0 108z"/>
	<path style="fill:#000000; stroke:none;" d="M16 108L16 110L19 110L19 108L16 108z"/>
	<path style="fill:#ffffff; stroke:none;" d="M21 108C23.0521 108.874 24.7472 108.953 27 109C24.9479 108.126 23.2528 108.047 21 108M46 108C48.0521 108.874 49.7472 108.953 52 109C49.9479 108.126 48.2528 108.047 46 108M60 108C64.9741 110.087 71.638 109 77 109C72.0259 106.913 65.362 108 60 108M80 108C82.8897 109.213 85.8741 108.998 89 109C86.1103 107.787 83.1259 108.002 80 108M92 108C95.6975 109.552 100.017 109 104 109C100.303 107.448 95.9832 108 92 108M122 108L123 109L122 108M126 108C130.217 109.769 135.459 109 140 109C135.783 107.231 130.541 108 126 108M143 108L144 109L143 108z"/>
	<path style="fill:#000000; stroke:none;" d="M173 108C172.045 109.767 171.434 110.607 170 112C171.163 116.398 172.021 120.328 172.066 124.91C172.085 126.772 171.298 129.776 172.37 131.425C173.635 133.372 177.189 132.874 179.17 132.895C185.111 132.957 191.057 133 197 133C196.02 131.217 196.092 131.406 194 131C195.71 125.189 197.663 119.086 197 113C190.426 113.45 183.579 113.357 177 113C176.745 115.906 176.295 118.129 177 121C175.686 121.768 175.768 121.686 175 123C173.997 119.241 174.861 116.654 176 113L172 113C173.342 111.118 173.864 110.172 173 108z"/>
	<path style="fill:#ffffff; stroke:none;" d="M176 108C181.222 110.191 188.368 109 194 109C188.778 106.809 181.632 108 176 108M214 108C216.89 109.213 219.874 108.998 223 109C220.11 107.787 217.126 108.002 214 108M228 108C230.332 108.985 232.457 108.981 235 109C232.668 108.015 230.543 108.019 228 108M250 108C251.248 108.685 251.549 108.749 253 109C251.752 108.315 251.452 108.251 250 108M78 109L79 110L78 109M124 109L125 110L124 109M154 110C156.332 110.985 158.457 110.981 161 111C158.668 110.015 156.543 110.019 154 110M176 110C177.506 110.683 178.315 110.826 180 111C178.494 110.317 177.685 110.174 176 110z"/>
	<path style="fill:#000000; stroke:none;" d="M244 110L245 111L244 110z"/>
	<path style="fill:#ffffff; stroke:none;" d="M0 111C1.24839 111.685 1.5484 111.749 3 112C1.75166 111.315 1.45156 111.251 0 111z"/>
	<path style="fill:#000000; stroke:none;" d="M16 111C19.9587 112.661 24.7366 112 29 112C25.0413 110.339 20.2634 111 16 111M33.6667 111.333C33.2222 111.778 34.2778 111.722 34.3333 111.667C34.7778 111.222 33.7222 111.278 33.6667 111.333M36 111C38.3316 111.985 40.4566 111.981 43 112C40.6684 111.015 38.5433 111.019 36 111z"/>
	<path style="fill:#ffffff; stroke:none;" d="M127 111L128 112L127 111z"/>
	<path style="fill:#000000; stroke:none;" d="M197 111L198 112L197 111M205 113C204.422 115.964 204.497 117.229 207 119C204.48 122.916 205.641 130.056 208 134C208.986 132.521 209 132.797 209 131C213.44 133.266 218.103 132.99 223 133L223 128C223.562 129.801 223.824 131.122 224 133L238 133C236.94 130.654 236.425 129.482 237 127L234 126C234.598 122.457 234.081 119.425 233 116C234.572 115.169 234.604 114.827 235 113L224 113L224 118C223.438 116.199 223.176 114.878 223 113L205 113M14 113C13.2429 122.941 14.587 131.25 16 141C20.3754 140.745 24.6133 141.909 29 142C29 139.019 26.7649 135.431 30 135C27.7606 132.849 25.4472 131.05 27 128C24.8237 124.526 26.2502 118.911 22 118C24.4461 116.504 25.6733 115.521 27 113C23.9059 113.01 21.104 112.591 19 115C17.1745 113.664 16.2472 113.31 14 113z"/>
	<path style="fill:#ffffff; stroke:none;" d="M171 113L172 114L171 113z"/>
	<path style="fill:#000000; stroke:none;" d="M243.333 113.667C243.278 113.722 243.222 114.778 243.667 114.333C243.722 114.278 243.778 113.222 243.333 113.667M245 113C245 116.261 245.143 116.536 243 116L246 129L244 128C245.174 130.966 246.204 132.465 249 134C246.553 127.285 247.587 119.324 245 113z"/>
	<path style="fill:#ffffff; stroke:none;" d="M46 114L47 115L46 114M82 114L83 115L82 114M134 114C134.724 117.04 134.974 119.878 135 123C136.378 119.709 136.148 116.836 134 114M160 114L161 115L160 114M173 114L174 115L173 114M181.333 114.667C181.278 114.722 181.222 115.778 181.667 115.333C181.722 115.278 181.778 114.222 181.333 114.667M189 114C189.545 115.635 189.365 115.455 191 116L191 114L189 114M195.333 114.667C195.278 114.722 195.222 115.778 195.667 115.333C195.722 115.278 195.778 114.222 195.333 114.667M208 114L209 115L208 114M212 114C213.226 116.035 213.703 116.326 216 117L212 114M229 114L230 115L229 114M0 115L1 116L0 115M34 115C33.0143 116.479 33 116.203 33 118C34.2892 116.557 34.4009 116.766 34 115M153 115C152.354 117.458 152.354 118.542 153 121C153.951 118.715 153.951 117.285 153 115M206 115L207 116L206 115z"/>
	<path style="fill:#000000; stroke:none;" d="M247.667 115.333C247.222 115.778 248.278 115.722 248.333 115.667C248.778 115.222 247.722 115.278 247.667 115.333z"/>
	<path style="fill:#ffffff; stroke:none;" d="M16 116L15 120L18 119C17.3087 117.612 17.0154 117.139 16 116M18 116L19 117L18 116M39 116C40.769 116.779 42.0359 116.912 44 117C42.2309 116.221 40.9641 116.088 39 116M90 116L91 117L90 116M96 116L97 117L96 116M208 116C207.014 117.478 207 117.203 207 119C208.289 117.557 208.401 117.766 208 116M0.333333 117.667C0.277799 117.722 0.222213 118.778 0.666667 118.333C0.722246 118.278 0.777764 117.222 0.333333 117.667M37 117L38 118L37 117M160.333 117.667C160.278 117.722 160.222 118.778 160.667 118.333C160.722 118.278 160.778 117.222 160.333 117.667M195.333 117.667C195.278 117.722 195.222 118.778 195.667 118.333C195.722 118.278 195.778 117.222 195.333 117.667M252.667 117.333C252.222 117.778 253.278 117.722 253.333 117.667C253.778 117.222 252.722 117.278 252.667 117.333M39.3333 118.667C39.2778 118.722 39.2222 119.778 39.6667 119.333C39.7222 119.278 39.7778 118.222 39.3333 118.667M224 118C222.196 121.38 222.013 124.199 222 128C223.254 125.045 223.925 121.208 224 118M34 119L34 122C34.6961 120.446 34.6961 120.554 34 119M178.333 119.667C178.278 119.722 178.222 120.778 178.667 120.333C178.722 120.278 178.778 119.222 178.333 119.667M211 119L212 120L211 119M213.333 119.667C213.278 119.722 213.222 120.778 213.667 120.333C213.722 120.278 213.778 119.222 213.333 119.667M220 119L221 120L220 119M17 120L15 128L18 127L17 120M36.6667 120.333C36.2223 120.778 37.2778 120.722 37.3333 120.667C37.7778 120.222 36.7222 120.278 36.6667 120.333M42 120L43 121L42 120M181 120C182.788 121.422 183.706 121.697 186 122C184.352 121.076 182.825 120.551 181 120M189 122L192 122L191 120C189.365 120.545 189.545 120.365 189 122M194.667 120.333C194.222 120.778 195.278 120.722 195.333 120.667C195.778 120.222 194.722 120.278 194.667 120.333M151 121L151 125C151.71 123.241 151.71 122.759 151 121M20 122L20 125C20.6961 123.446 20.6961 123.554 20 122M36 122L37 123L36 122M40 122L40 125C40.6961 123.446 40.6961 123.554 40 122M178 122L176 127C177.693 125.218 178.375 124.419 178 122M187.333 122.667C187.278 122.722 187.222 123.778 187.667 123.333C187.722 123.278 187.778 122.222 187.333 122.667M208 122L208 126C209.081 124.542 209.436 123.752 210 122L208 122M212 122L213 123L212 122M228 122L228 125L233 123C231.231 122.221 229.964 122.088 228 122M250 122L250 130C251.161 127.23 251.161 124.77 250 122M159 123L159 126C159.696 124.446 159.696 124.554 159 123M194 123L195 124L194 123M35 124C35.4057 126.092 35.2167 126.02 37 127C36.3087 125.612 36.0154 125.139 35 124M135.333 124.667C135.278 124.722 135.222 125.778 135.667 125.333C135.722 125.278 135.778 124.222 135.333 124.667M174.333 124.667C174.278 124.722 174.222 125.778 174.667 125.333C174.722 125.278 174.778 124.222 174.333 124.667M212 124L212 126L215 126L215 124L212 124M220.333 124.667C220.278 124.722 220.222 125.778 220.667 125.333C220.722 125.278 220.778 124.222 220.333 124.667M1.33333 125.667C1.2778 125.722 1.22221 126.778 1.66667 126.333C1.72226 126.278 1.77778 125.222 1.33333 125.667M153 125C152.635 127.416 152.938 129.561 153 132L156 132C155.241 129.397 154.574 127.195 153 125M181 126L182 132C183.039 129.471 183.093 127.824 181 126M232 126L233 127L232 126M131 130C133.092 129.594 133.02 129.783 134 128C137.01 128.331 139.964 128.055 143 128C139.003 126.323 133.507 126.133 131 130z"/>
	<path style="fill:#000000; stroke:none;" d="M153 127L154 128L153 127z"/>
	<path style="fill:#ffffff; stroke:none;" d="M156 127L156 130L158 130L158 127L156 127M174 127L174 132C175.381 129.859 175.346 129.176 174 127M188.667 127.333C188.222 127.778 189.278 127.722 189.333 127.667C189.778 127.222 188.722 127.278 188.667 127.333z"/>
	<path style="fill:#000000; stroke:none;" d="M196 127L197 128L196 127z"/>
	<path style="fill:#ffffff; stroke:none;" d="M228 127L229 128L228 127M17 128L18 129L17 128M159 128L159 131C159.696 129.446 159.696 129.554 159 128M180 128L181 129L180 128M208 128L208 131C208.696 129.446 208.696 129.554 208 128M213.333 128.667C213.278 128.722 213.222 129.778 213.667 129.333C213.722 129.278 213.778 128.222 213.333 128.667M233.333 128.667C233.278 128.722 233.222 129.778 233.667 129.333C233.722 129.278 233.778 128.222 233.333 128.667M177.667 129.333C177.222 129.778 178.278 129.722 178.333 129.667C178.778 129.222 177.722 129.278 177.667 129.333M1 130C1.54505 131.635 1.36484 131.455 3 132C2.45495 130.365 2.63516 130.545 1 130M36 130L37 131L36 130M40 130L41 131L40 130M229 130L230 131L229 130M178 131L179 132L178 131M180 131L181 132L180 131M192 131L193 132L192 131M212 131L213 132L212 131M215.667 131.333C215.222 131.778 216.278 131.722 216.333 131.667C216.778 131.222 215.722 131.278 215.667 131.333M234 131L235 132L234 131M251 131L252 132L251 131M0 132C0.980241 133.783 0.907592 133.594 3 134C1.86062 132.985 1.38845 132.691 0 132M37 132L38 133L37 132M39 133C40.2483 133.685 40.5484 133.749 42 134C40.7517 133.315 40.4516 133.251 39 133z"/>
	<path style="fill:#000000; stroke:none;" d="M155 141L166 141C165.799 138.923 165.13 136.814 166 135C164.353 133.802 158.145 132.796 156.5 135.167C155.732 136.273 155.456 139.581 155 141M174 135C175.011 137.085 175.784 138.711 176 141C181.999 140.598 187.966 141.996 194 142L194 139C194.986 140.479 195 140.203 195 142L200 142L199 134C194.062 134.335 188.216 132.54 185 137C184.415 135.246 184.332 136.005 185 134C181.249 134.021 177.67 134.199 174 135M209 134L209 140L212 139C212.606 142.636 222.083 141.626 224 139C228.951 141.089 233.702 141 239 141C238.965 138.718 238.642 136.803 240 135C236.669 133.081 224.888 132.855 224 137C223.014 135.521 223 135.797 223 134L209 134M33 135L34 136L33 135M153.667 135.333C153.222 135.778 154.278 135.722 154.333 135.667C154.778 135.222 153.722 135.278 153.667 135.333z"/>
	<path style="fill:#ffffff; stroke:none;" d="M161 135L161 140C162.381 137.859 162.346 137.176 161 135M190 135L191 136L190 135M197 135C197.684 136.58 197.805 136.777 199 138C198.309 136.612 198.015 136.139 197 135z"/>
	<path style="fill:#000000; stroke:none;" d="M207 135L208 136L207 135M248 135L249 136L248 135z"/>
	<path style="fill:#ffffff; stroke:none;" d="M1 136C1.54506 137.635 1.36483 137.455 3 138C2.45495 136.365 2.63516 136.545 1 136M157 136C157.545 137.635 157.365 137.455 159 138C158.455 136.365 158.635 136.545 157 136M178.667 136.333C178.222 136.778 179.278 136.722 179.333 136.667C179.778 136.222 178.722 136.278 178.667 136.333M233 136C234.769 136.779 236.036 136.912 238 137C236.231 136.221 234.964 136.088 233 136M195 137L196 138L195 137M211 137L212 138L211 137M224 137C224.545 138.635 224.365 138.455 226 139C225.455 137.365 225.635 137.545 224 137M231.333 137.667C231.278 137.722 231.222 138.778 231.667 138.333C231.722 138.278 231.778 137.222 231.333 137.667M17 138L18 139L17 138M23.3333 138.667C23.2778 138.722 23.2222 139.778 23.6667 139.333C23.7222 139.278 23.7778 138.222 23.3333 138.667M179 140C180.58 139.316 180.777 139.195 182 138C180.42 138.684 180.223 138.805 179 140M185.667 138.333C185.222 138.778 186.278 138.722 186.333 138.667C186.778 138.222 185.722 138.278 185.667 138.333z"/>
	<path style="fill:#000000; stroke:none;" d="M249 138C249.684 139.58 249.805 139.777 251 141C250.316 139.42 250.195 139.223 249 138z"/>
	<path style="fill:#ffffff; stroke:none;" d="M157 139L158 140L157 139M213 139L214 140L213 139M254 139L255 140L254 139M185 140L186 141L185 140M5 142L6 143L5 142z"/>
	<path style="fill:#000000; stroke:none;" d="M 178 142 C 183.051 145.881 190.935 144.001 197 144 C 190.891 145.932 185.243 146.534 179 145 C 177.849 149.444 178.507 152.745 180 157 C 178.175 155.664 177.247 155.31 175 155 L 174 159 C 176.513 157.743 176.497 156.999 179 158 L 178 159 L 180 158 C 178.777 159.195 178.58 159.316 177 160 L 179 164 L 177 163 C 178.317 164.94 178.621 164.973 181 165 L 180 169 C 178.104 166.63 178.896 166.63 177 169 C 176.352 166.606 175.968 165.464 174 164 C 173.942 166.784 173.648 169.291 173 172 L 180 172 C 179.894 177.128 179.661 184.063 175 187 L 176 192 C 172.828 192.211 170.08 193.5 166.961 193.871 C 158.344 194.897 149.675 195 141 195 C 146.222 197.191 153.368 196 159 196 C 152.986 197.778 146.243 197 140 197 C 144.72 198.981 150.92 198 156 198 L 187 198 C 192.151 198 198.75 199.597 201 194 L 196 194 L 196 192 L 201 192 C 200.59 190.013 200.465 189.299 199 188 C 203.083 185.312 203.757 176.818 204 172 L 196 172 C 196.644 168.515 196.105 164.76 196.861 161.389 C 197.266 159.583 198.636 158.261 198.556 156.333 C 198.501 155.023 196.754 155.162 196 155 C 195.817 157.428 195.577 158.17 194 160 L 195 155 C 192.908 155.406 192.98 155.217 192 157 C 190.406 155.703 189.982 155.465 188 155 C 189.036 153.814 189.339 153.396 190 152 C 193.918 154.737 196.724 152.953 201 152 C 201.114 149.706 201.907 146.505 200.208 144.603 C 198.494 142.686 195.308 143.017 193 143.001 C 187.908 142.966 182.982 143.186 178 142 M 211 142 L 211 144 L 218 144 L 218 142 L 211 142 M 219 142 L 219 144 L 224 144 L 224 142 L 219 142 M 225 142 L 225 144 L 239 144 C 233.525 146.49 226.019 144.99 220 145 C 216.07 145.007 212.415 144.581 210 148 L 212 147 L 211 153 C 215.769 153 220.3 153.127 225 154 C 222.048 155.096 219.717 154.653 219 158 C 218.014 156.521 218 156.797 218 155 L 208 155 C 209.036 153.814 209.339 153.396 210 152 C 204.837 155.651 207.223 166.288 205 172 L 213 172 C 211.825 176.953 213.731 183.934 209 187 L 210 192 L 205 192 L 205 194 L 209 194 L 208 198 L 240 197 L 240 200 L 209 200 C 212.699 201.552 217.017 201 221 201 L 241 201 C 240.959 198.409 241.107 196.432 242 194 L 238 194 L 238 192 L 242 192 C 241.824 190.122 241.562 188.801 241 187 C 245.639 186.006 244.854 176.263 246 172 L 238 172 L 239 168 L 237 169 L 238 155 C 234.806 155.013 232.729 154.597 232 158 C 231.014 156.521 231 156.797 231 155 L 225 154 C 229.265 153.35 233.673 153.991 238 154 L 237 152 L 241 152 C 240.232 150.686 240.314 150.768 239 150 C 239.705 147.334 239.713 144.738 240 142 L 225 142 M 18 143 C 21.698 144.552 26.017 144 30 144 C 26.303 142.448 21.983 143 18 143 M 157 143 C 160.163 144.327 163.586 144 167 144 C 163.837 142.673 160.414 143 157 143 Z"/>
	<path style="fill:#ffffff; stroke:none;" d="M5 144L6 145L5 144M198 144L197 146L199 146C199 144.147 199.3 144.65 198 144M0 145C1.50606 145.683 2.31478 145.826 4 146C2.49396 145.317 1.68521 145.174 0 145z"/>
	<path style="fill:#000000; stroke:none;" d="M18 145C18 146.797 18.0143 146.521 19 148L17 148L18 152C15.2828 150.913 17.0864 150.914 15 153L14 152C15.314 153.618 15.8772 153.693 18 154C16.0978 154.804 15.0549 155.049 13 155C13.1893 161.083 11.7918 165.864 13 172L20 172C19.9406 174.877 18.3853 179.947 20.0671 182.436C21.6544 184.785 25.5049 184.78 28 185C34.6733 185.588 41.3898 184.375 48 185.356C53.9024 186.233 59.0219 183.697 65 184.09C75.0798 184.751 85.0053 186.982 95 187.896C101.052 188.449 107.01 187.207 113 187.354C115.735 187.421 118.276 188.587 121 188.726C126.53 189.009 132.399 188.009 138 188C145.436 187.988 152.631 186.174 160 185.285C162.486 184.986 166.049 185.5 167.86 183.397C170.299 180.565 169.971 175.48 170 172L163 172C164.315 166.477 164.287 160.641 165 155C162.125 155.032 159.926 154.792 158 157C156.814 155.964 156.396 155.661 155 155C153.457 160.832 153 165.968 153 172L160 172C153.899 182.241 137.352 177.802 127 177.09C112.562 176.095 98.4729 176.435 84 176.429C67.7509 176.423 52.0812 174.835 36 177L37 173C34.7202 172.318 31.5208 172.352 29.5085 171.062C24.891 168.103 27.5928 159.015 29 155L23 155L30 152C30.1095 149.558 30.428 147.377 31 145L18 145M35 145L36 146L35 145M157 145C156.903 148.33 156.184 150.91 155 154C159.716 153.823 163.535 153.593 168 152L168 145C164.086 145.929 160.914 145.929 157 145z"/>
	<path style="fill:#ffffff; stroke:none;" d="M179.333 146.667C179.278 146.722 179.222 147.778 179.667 147.333C179.722 147.278 179.778 146.222 179.333 146.667M192 146C193.724 147.056 193.921 147.036 196 147C194.494 146.317 193.685 146.174 192 146M200 146L201 147L200 146M215.667 146.333C215.222 146.778 216.278 146.722 216.333 146.667C216.778 146.222 215.722 146.278 215.667 146.333z"/>
	<path style="fill:#ffffff; stroke:none;" d="M5 147L6 148L5 147M22 147L23 148L22 147M39 147C40.2483 147.685 40.5484 147.749 42 148C40.7517 147.315 40.4516 147.251 39 147M43 147L44 148L43 147M182 147L183 148L182 147M225 147L226 148L225 147M230 147L230 150L235 148C233.231 147.221 231.964 147.088 230 147M236 147L237 148L236 147M161.333 148.667C161.278 148.722 161.222 149.778 161.667 149.333C161.722 149.278 161.778 148.222 161.333 148.667M218.333 148.667C218.278 148.722 218.222 149.778 218.667 149.333C218.722 149.278 218.778 148.222 218.333 148.667M252.333 148.667C252.278 148.722 252.222 149.778 252.667 149.333C252.722 149.278 252.778 148.222 252.333 148.667M21 149L22 150L21 149M185.333 149.667C185.278 149.722 185.222 150.778 185.667 150.333C185.722 150.278 185.778 149.222 185.333 149.667M225 149L226 150L225 149M43 150L44 151L43 150M180 150C180.215 154.674 183.827 153.523 185.366 157.028C186.154 158.822 185.107 162.081 185 164C189.508 155.961 184.933 155.392 180 150M236 150L237 151L236 150z"/>
	<path style="fill:#000000; stroke:none;" d="M249 150L247 154C249.242 152.748 250.344 152.28 249 150z"/>
	<path style="fill:#ffffff; stroke:none;" d="M19 151L20 152L19 151M158 151L157 153L159 153C159 151.147 159.3 151.65 158 151M192 151C193.248 151.685 193.548 151.749 195 152C193.752 151.315 193.452 151.251 192 151M215.667 151.333C215.222 151.778 216.278 151.722 216.333 151.667C216.778 151.222 215.722 151.278 215.667 151.333M221 151L222 152L221 151M224.333 151.667C224.278 151.722 224.222 152.778 224.667 152.333C224.722 152.278 224.778 151.222 224.333 151.667z"/>
	<path style="fill:#000000; stroke:none;" d="M33 152L33 154L37 154L37 152L33 152z"/>
	<path style="fill:#ffffff; stroke:none;" d="M45 152C43.0998 153.286 41.3154 153.036 39 153C40.8084 153.967 42.4176 154.698 44 156L50 155L45 152z"/>
	<path style="fill:#000000; stroke:none;" d="M175 152L175 154L177 154L177 152L175 152z"/>
	<path style="fill:#ffffff; stroke:none;" d="M185 152C186.248 152.685 186.548 152.749 188 153C186.752 152.315 186.452 152.251 185 152M231.667 152.333C231.222 152.778 232.278 152.722 232.333 152.667C232.778 152.222 231.722 152.278 231.667 152.333M234.667 152.333C234.222 152.778 235.278 152.722 235.333 152.667C235.778 152.222 234.722 152.278 234.667 152.333M0 153C1.50605 153.683 2.31478 153.826 4 154C2.49397 153.317 1.6852 153.174 0 153z"/>
	<path style="fill:#000000; stroke:none;" d="M 198 153 L 199 154"/>
	<path style="fill:#ffffff; stroke:none;" d="M225 155L225 158C225.696 156.446 225.696 156.554 225 155M183 156L184 157L183 156M210.333 156.667C210.278 156.722 210.222 157.778 210.667 157.333C210.722 157.278 210.778 156.222 210.333 156.667M214 156L215 157L214 156M233 156L234 157L233 156M236 156L237 157L236 156M253.333 156.667C253.278 156.722 253.222 157.778 253.667 157.333C253.722 157.278 253.778 156.222 253.333 156.667M45.6667 157.333C45.2222 157.778 46.2778 157.722 46.3333 157.667C46.7778 157.222 45.7222 157.278 45.6667 157.333M180 157L181 158L180 157M189 157L190 158L189 157M41 158L42 159L41 158M208 158L209 162C210.428 159.908 210.057 159.406 208 158M217 158L218 159L217 158M230 158L231 159L230 158M234 158L235 159L234 158M45.3333 159.667C45.2778 159.722 45.2222 160.778 45.6667 160.333C45.7222 160.278 45.7778 159.222 45.3333 159.667M156 159C156.684 160.58 156.805 160.777 158 162C157.309 160.612 157.015 160.139 156 159M160 159L160 162C160.696 160.446 160.696 160.554 160 159M182 159L183 160L182 159M190 159L191 164C191.479 162.502 191.4 162.65 191 161L194 161C193.014 162.479 193 162.203 193 164C195.648 161.478 192.489 160.051 190 159M249.333 159.667C249.278 159.722 249.222 160.778 249.667 160.333C249.722 160.278 249.778 159.222 249.333 159.667M252 159L252 163C252.71 161.241 252.71 160.759 252 159M53 160C53.0313 161.832 52.9205 161.559 54 163C53.7488 161.548 53.6848 161.248 53 160z"/>
	<path style="fill:#000000; stroke:none;" d="M173 160L173 163C174.924 161.999 175.098 161.923 176 160L173 160z"/>
	<path style="fill:#ffffff; stroke:none;" d="M222.667 160.333C222.222 160.778 223.278 160.722 223.333 160.667C223.778 160.222 222.722 160.278 222.667 160.333M229 160L230 161L229 160M231.667 160.333C231.222 160.778 232.278 160.722 232.333 160.667C232.778 160.222 231.722 160.278 231.667 160.333M41 161L42 162L41 161M137 161L137 167C137.951 164.715 137.951 163.285 137 161M234.667 161.333C234.222 161.778 235.278 161.722 235.333 161.667C235.778 161.222 234.722 161.278 234.667 161.333M15 162C14.1117 165.451 13.2941 168.522 17 170C16.2951 167.356 16.0739 164.473 15 162M44.6667 162.333C44.2222 162.778 45.2778 162.722 45.3333 162.667C45.7778 162.222 44.7222 162.278 44.6667 162.333M57 162L58 163L57 162M187.333 162.667C187.278 162.722 187.222 163.778 187.667 163.333C187.722 163.278 187.778 162.222 187.333 162.667M250 162L251 163L250 162M41 163L42 164L41 163M72 163C73.2228 164.195 73.42 164.316 75 165C73.8607 163.985 73.3884 163.691 72 163M76 163L77 164L76 163M127 163L128 164L127 163M218 163L219 164L218 163M231 163L232 164L231 163M43 164L44 165L43 164M50 164L51 165L50 164M54 164C55.2483 164.685 55.5484 164.749 57 165C55.7516 164.315 55.4516 164.251 54 164M58 164L59 165L58 164M65 164L66 165L65 164M67 164L68 165L67 164M110 164L110 169C110.83 166.97 110.83 166.03 110 164M155 164L155 170C155.951 167.715 155.951 166.285 155 164M160 164L160 169C160.83 166.969 160.83 166.03 160 164M189.333 164.667C189.278 164.722 189.222 165.778 189.667 165.333C189.722 165.278 189.778 164.222 189.333 164.667M209 164L208 168C209.797 168 209.522 167.986 211 167C210.309 165.612 210.015 165.139 209 164M234.667 164.333C234.222 164.778 235.278 164.722 235.333 164.667C235.778 164.222 234.722 164.278 234.667 164.333M251 164C250.356 166.106 250.094 167.795 250 170L252 170C251.953 167.747 251.874 166.052 251 164M76 165L77 166L76 165M84 165L85 166L84 165M116 165L116 169C116.71 167.241 116.71 166.759 116 165M127.333 165.667C127.278 165.722 127.222 166.778 127.667 166.333C127.722 166.278 127.778 165.222 127.333 165.667M184 165L184 169C185.073 167.118 185.084 166.862 184 165M222 165L223 166L222 165M229 165L230 166L229 165M231.333 165.667C231.278 165.722 231.222 166.778 231.667 166.333C231.722 166.278 231.778 165.222 231.333 165.667M12 166L13 167L12 166M23 166L23 169C23.6961 167.446 23.6961 167.554 23 166M38 166L38 168C39.6351 167.455 39.455 167.635 40 166L38 166M41 166L42 167L41 166M52 166C53.4498 167.608 54.0514 168.064 56 169C54.6879 167.541 53.7691 166.843 52 166M57 169C58.5127 168.429 59.4272 168.136 61 168C59.4279 165.258 57.6088 166.159 57 169M64 166L64 169L66 169L66 166L64 166M214.667 166.333C214.222 166.778 215.278 166.722 215.333 166.667C215.778 166.222 214.722 166.278 214.667 166.333M227 166L228 167L227 166z"/>
	<path style="fill:#000000; stroke:none;" d="M205.333 167.667C205.278 167.722 205.222 168.778 205.667 168.333C205.722 168.278 205.778 167.222 205.333 167.667z"/>
	<path style="fill:#ffffff; stroke:none;" d="M234 167L234 170C235.015 168.861 235.309 168.388 236 167L234 167M21 168L22 169L21 168M43.6667 168.333C43.2222 168.778 44.2778 168.722 44.3333 168.667C44.7778 168.222 43.7222 168.278 43.6667 168.333M67 168L68 169L67 168M78.3333 168.667C78.2778 168.722 78.2222 169.778 78.6667 169.333C78.7222 169.278 78.7778 168.222 78.3333 168.667M84.3333 168.667C84.2778 168.722 84.2222 169.778 84.6667 169.333C84.7222 169.278 84.7778 168.222 84.3333 168.667M211 168L212 169L211 168M223 168L224 169L223 168M228 169C229.769 169.779 231.036 169.912 233 170C231.072 168.909 230.23 168.835 228 169M208.667 169.333C208.222 169.778 209.278 169.722 209.333 169.667C209.778 169.222 208.722 169.278 208.667 169.333z"/>
	<path style="fill:#000000; stroke:none;" d="M150 172L151 173L150 172z"/>
	<path style="fill:#ffffff; stroke:none;" d="M92.6667 186.333C92.2222 186.778 93.2778 186.722 93.3333 186.667C93.7778 186.222 92.7222 186.278 92.6667 186.333z"/>
	<path style="fill:#000000; stroke:none;" d="M65 193L66 194L65 193M70 194L71 201L110 201C104.249 194.095 90.2982 197 82 197C90.2848 194.551 100.386 196 109 196C104.718 194.203 99.5933 195.141 95 194.961C86.6448 194.635 78.3742 194 70 194M117 195C118.769 195.779 120.036 195.912 122 196C120.231 195.221 118.964 195.088 117 195M117 197L118 201L201 201C197.516 199.538 193.739 200.124 190 199.961C184.628 199.725 179.41 199 174 199C155.166 199 135.542 200.684 117 197M201 198L202 199L201 198M225 198C226.248 198.685 226.548 198.749 228 199C226.752 198.315 226.452 198.251 225 198M229 198L230 199L229 198M231 198L232 199L231 198M233.667 198.333C233.222 198.778 234.278 198.722 234.333 198.667C234.778 198.222 233.722 198.278 233.667 198.333M236 198C237.248 198.685 237.548 198.749 239 199C237.752 198.315 237.452 198.251 236 198z"/>
	<path style="fill:#ffffff; stroke:none;" d="M72 199C80.3668 202.511 93.9239 200 103 200C94.6332 196.489 81.0762 199 72 199M54 200C55.506 200.683 56.3148 200.826 58 201C56.494 200.317 55.6852 200.174 54 200z"/>
	<path style="fill:#000000; stroke:none;" d="M94 202C97.4112 203.965 108.899 207.139 110 202C104.755 203.14 99.3539 202.004 94 202M120 202C126.141 205.703 132.383 202.845 139 204C137.521 204.986 137.797 205 136 205C142.55 207.744 152.898 206 160 206C158.192 205.033 156.582 204.302 155 203C157.106 203.644 158.795 203.906 161 204L161 202C147.24 202 133.724 202.58 120 202M171 202C174.042 204.305 177.255 203.998 181 204C187.238 204.003 193.989 204.777 200 203C192.112 199.69 179.551 202 171 202M210 202L210 204C220.081 204 229.973 203.431 240 203L240 205L209 205C215.645 207.788 225.816 206.049 233 205.999C236.958 205.972 239.664 206.025 241 202L210 202M70 208C82.4258 205.042 96.32 208 109 208L109 206C103.563 206 98.3877 206.319 93 207L93 203C86.3489 203 71.7837 199.826 70 208z"/>
	<path style="fill:#ffffff; stroke:none;" d="M153 203L154 204L153 203z"/>
	<path style="fill:#000000; stroke:none;" d="M171 205C178.649 208.21 190.712 206 199 206C191.351 202.79 179.288 205 171 205z"/>
	<path style="fill:#ffffff; stroke:none;" d="M251.667 206.333C251.222 206.778 252.278 206.722 252.333 206.667C252.778 206.222 251.722 206.278 251.667 206.333z"/>
	<path style="fill:#000000; stroke:none;" d="M138 207C144.202 209.603 153.298 208 160 208C153.798 205.397 144.702 207 138 207M173 207C180.169 210.008 191.239 208 199 208C191.831 204.992 180.761 207 173 207M209 207C217.367 210.511 230.924 208 240 208C231.633 204.489 218.076 207 209 207M69 209C73.2151 210.769 78.4645 210 83 210L109 210C104.785 208.231 99.5355 209 95 209L69 209M139 209C140.72 213.279 143.747 212.991 148 213L167 213C161.75 210.777 155.616 211.526 150.039 210.871C146.274 210.429 142.851 209.246 139 209M147.667 209.333C147.222 209.778 148.278 209.722 148.333 209.667C148.778 209.222 147.722 209.278 147.667 209.333M151.667 209.333C151.222 209.778 152.278 209.722 152.333 209.667C152.778 209.222 151.722 209.278 151.667 209.333M154 209C155.248 209.685 155.548 209.749 157 210C155.752 209.315 155.452 209.251 154 209M158 209C159.248 209.685 159.548 209.749 161 210C159.752 209.315 159.452 209.251 158 209M176.667 209.333C176.222 209.778 177.278 209.722 177.333 209.667C177.778 209.222 176.722 209.278 176.667 209.333M179 209L179 211C180.635 210.455 180.455 210.635 181 209L179 209M208 209L209 210L208 209M239 209L240 210L239 209M250.333 210.667C250.278 210.722 250.222 211.778 250.667 211.333C250.722 211.278 250.778 210.222 250.333 210.667M69 211C73.7199 212.981 79.9198 212 85 212C94.0537 212 102.956 213 112 213C107.939 210.226 102.761 211 98 211L69 211z"/>
	<path style="fill:#ffffff; stroke:none;" d="M141 211C142.506 211.683 143.315 211.826 145 212C143.494 211.317 142.685 211.174 141 211z"/>
	<path style="fill:#000000; stroke:none;" d="M 199 211 C 193.717 213.819 188.72 212.723 183 212 C 188.434 215.255 197.704 214.73 204 215 C 202.231 214.221 200.964 214.088 199 214 C 199.216 212.577 199.273 212.328 199 211 M 208 211 C 212.077 216.654 225.579 214.012 232 214 C 235.106 213.994 237.897 214.407 240 212 C 230.824 214.185 216.737 214.702 208 211 M 30 214 C 34.724 215.982 40.91 215 46 215 C 41.276 213.018 35.09 214 30 214 M 54 214 C 54.176 215.878 54.438 217.199 55 219 C 62.47 217.929 70.558 218.002 78 219.328 C 81.116 219.883 84.483 222.34 87 220 C 92.767 221.901 96.319 219.685 102 219.104 C 111.319 218.152 120.656 219.056 129.906 218.697 C 133.092 218.573 134.219 216.765 135 214 L 80 214 C 71.171 214.001 62.783 215.631 54 214 M 145 214 C 145.936 219.61 150.123 218.998 155 219 L 179 219 C 177.762 217.35 176.334 217.667 179 217 C 173.062 214.545 161.082 215.202 155 217 C 160.281 212.999 170.557 215 177 215 C 173.301 213.448 168.983 214 165 214 L 145 214 M 224 218 C 220.841 215.788 217.78 216.003 214 216 C 216.171 219.349 219.213 218.992 223 219 C 229.35 219.013 235.788 218.521 242 220 L 240 216 L 245 215 C 242.102 214.046 239.958 215.26 237 215.741 C 232.788 216.425 227.008 214.558 224 218 Z"/>
	<path style="fill:#ffffff; stroke:none;" d="M102 215C105.432 216.44 109.3 216 113 216C109.568 214.56 105.7 215 102 215M116 215C119.959 216.661 124.737 216 129 216C125.041 214.339 120.263 215 116 215M132.667 215.333C132.222 215.778 133.278 215.722 133.333 215.667C133.778 215.222 132.722 215.278 132.667 215.333M146 215C148.613 216.098 151.165 215.993 154 216C151.387 214.902 148.835 215.007 146 215M56 216L57 217L56 216M58 216L59 217L58 216M114 216L114 218L116 218C115.455 216.365 115.635 216.545 114 216M130 216L131 217L130 216z"/>
	<path style="fill:#000000; stroke:none;" d="M197 216C198.441 217.079 198.168 216.969 200 217C201.54 218.803 202.598 218.832 205 219C202.84 216.004 200.574 216.042 197 216M242 216C243.226 218.035 243.703 218.326 246 219L245 216L242 216M255.333 216.667C255.278 216.722 255.222 217.778 255.667 217.333C255.722 217.278 255.778 216.222 255.333 216.667z"/>
	<path style="fill:#ffffff; stroke:none;" d="M156 217L157 218L156 217M234 217L235 218L234 217M26 218L27 219L26 218M26 220L27 221L26 220M39 220L40 221L39 220z"/>
	<path style="fill:#000000; stroke:none;" d="M 201 220 C 202.648 220.924 204.175 221.449 206 222 M 216 222 C 214.521 222.986 214.797 223 213 223 C 220.657 226.212 231.066 221.691 239 221 C 237.288 219.755 235.371 220 233 220 C 227.926 220 219.829 218.468 215.167 220.5 C 213.298 221.314 215.798 221.912 216 222"/>
	<path style="fill:#ffffff; stroke:none;" d="M36 221L37 222L36 221M185 221L184 223C185.263 222.029 185.392 222.306 185 221M225.667 221.333C225.222 221.778 226.278 221.722 226.333 221.667C226.778 221.222 225.722 221.278 225.667 221.333M25 222L26 223L25 222M167 222C170.959 223.661 175.737 223 180 223C176.041 221.339 171.263 222 167 222z"/>
</svg>