<?xml version="1.0" standalone="yes"?>
<svg xmlns="http://www.w3.org/2000/svg" width="256" height="256">
	<path style="fill:#ffffff; stroke:none;" d="M211 163C211.148 154.71 212.35 147.123 202 147C201.999 134.489 205 122.533 205 110C211.326 114.775 218.179 118.417 226 119.996C228.212 120.443 234.364 122.012 234.364 117.996C234.364 114.527 228.324 114.055 226.234 112.297C223.59 110.074 220.735 103.955 219.052 100.834C216.735 96.5388 221.41 91.7634 221 87C227.911 84.6964 222.26 78.5048 217 79C213.717 73.2725 207.774 70.2471 205.005 63.9992C203.598 60.8255 201.977 57.4835 201.557 54C201.194 50.9831 202.109 48.0062 201.452 45C200.088 38.7571 194.519 31.9317 189 29C193.558 26.9416 200.862 25.0828 204.254 21.3009C206.497 18.7997 205.86 14.2114 202.721 12.7461C199.288 11.1432 194.627 12.9707 191 12.9707C186.98 12.9707 183.025 11.7285 179 12.1327C169.978 13.0389 161.036 16.3413 152 17.5748C146.681 18.301 141.328 17.6607 136 18.1698C126.484 19.079 116.61 21.2184 107 20.3249C103.885 20.0353 101.158 18.3055 98 18.1451C94.8566 17.9853 91.8577 19.1678 88.7145 19.0864C82.6901 18.9305 75.9672 18.7677 70 18.1204C65.1817 17.5977 60.8503 16.3173 56 17.7292C49.5914 19.5947 45.4723 24.8678 39.9992 28.385C36.5454 30.6046 32.7767 32.9036 29 34.5208C26.571 35.561 23.5707 35.9843 22.0285 38.3943C19.7448 41.9632 22.6264 45.4959 23.2855 49C24.6449 56.2279 23.6736 64.6135 23.9614 72C24.1426 76.6487 23.6735 81.3651 24.1042 86C24.3542 88.691 25.5985 91.2919 25.5316 94C25.4728 96.3811 24.3935 98.6349 24.1289 101C23.4485 107.081 24.2654 113.325 24.1381 119.424C24.0572 123.303 23.0402 127.132 23.0895 130.996C23.2428 143.016 26.7133 155.172 28.0162 167C28.3762 170.268 27.0599 173.683 27.0046 177C26.827 187.666 27.1684 198.337 27.1512 209C27.142 214.768 25.7575 220.24 26.5864 225.996C27.3386 231.219 25.1374 240.69 31.1088 243.258C35.083 244.967 39.9141 243.559 44 243.17C50.4979 242.551 57.4832 242.633 64 242.965C67.7339 243.154 71.3022 244.561 75 244.646C78.0288 244.715 80.97 243.626 84 243.688C86.7158 243.743 89.2779 244.782 92 244.896C111.692 245.723 131.402 244.394 151 244.871C154.413 244.954 157.622 243.488 161 243.559C164.039 243.624 166.924 244.87 170 244.981C177.56 245.256 184.547 243.976 192 243.166C195.717 242.762 201.534 243.145 204.396 240.262C206.885 237.753 205.173 234.017 205.117 231C205.012 225.244 207.18 218.713 208.147 213.043C209.187 206.949 216.1 208.165 218.951 203.671C220.948 200.525 219.943 196.407 219.723 192.996C219.345 187.119 219.862 180.907 219.975 175C220.031 172.1 220.672 167.867 218.972 165.318C217.236 162.713 213.733 163.032 211 163z"/>
	<path style="fill:#010101; stroke:none;" d="M60 27C69.015 30.7913 80.4551 29.1102 90 30.0185C107.822 31.7146 127.142 34.1412 145 31.8194C154.29 30.6117 163.005 26.8951 172 24.6088C174.998 23.8468 178.025 23.8813 181 23C173.469 19.8398 165.34 23.5464 158 25.3912C152.587 26.7519 145.575 27.2209 140 27.7515C129.606 28.7407 118.485 27.6519 108 27.3896C104.908 27.3123 102.079 28.8414 99 28.686C95.8989 28.5294 93.1308 26.8714 90 26.7539C85.963 26.6023 82.0258 27.9213 78 27.9213C72.0233 27.9213 66.0307 27 60 27M58 28L57 30C58.2628 29.0286 58.3919 29.3062 58 28M57 41C61.3359 41.1043 64.8344 43.1687 69 43.5563C71.6681 43.8046 74.3077 42.9427 77 43.1991C95.961 45.0047 115.822 46.6802 135 44.8958C139.75 44.4539 144.281 42.4509 149 41.7045C154.702 40.8026 160.254 40.78 165.996 39.4823C171.409 38.2592 175.268 36.0196 181 36C180.105 33.9583 179.464 32.1722 179 30C167.427 31.1521 156.709 36.4308 145 37.7106C139.017 38.3646 132.968 37.3372 127 37.3395C113.675 37.3446 100.3 37.7167 87 36.1944C78.2042 35.1877 61.6404 31.594 57 41M38 234C48.9764 236.038 59.9698 234.741 71 234.609C75.6411 234.553 80.1741 237.027 84.8302 236.556C87.7013 236.266 90.0569 234.362 93.0039 234.123C104.02 233.227 115.865 235.739 127 235.505C133.076 235.378 138.743 233.659 145 234.09C150.057 234.438 154.98 236.347 160 236.596C165.17 236.852 170.663 235.025 176 234.999C181.719 234.971 190.028 234.912 194.725 231.181C199.456 227.424 197.484 222.976 197.167 218C196.975 214.977 197.807 212.041 197.536 209C196.892 201.773 194.862 194.697 194.849 187.424C194.813 168.071 193.462 149.159 193.093 130C192.975 123.906 196.515 118.883 196.945 113C197.49 105.548 197.742 97.409 196.711 90C196.192 86.2702 194.426 82.7425 194.168 79C193.983 76.309 194.891 73.6871 194.701 71C194.484 67.9165 193.057 65.1481 193.217 62C193.508 56.279 195.099 48.6678 190.976 43.6034C189.242 41.4725 185.409 41.9205 183 42.1736C175.58 42.9531 168.521 45.7651 161 45.9861C154.499 46.1772 149.225 49.0809 143 49.7477C138.409 50.2395 133.678 48.7707 129 49.0895C111.046 50.3132 93.9914 52.5087 76 49.7948C68.6737 48.6896 61.8449 47.3197 54.8302 45.1798C52.1551 44.3637 47.6378 43.7628 47.6358 40.0347C47.6341 36.8134 52.2295 33.474 54 31C50.3295 31.5815 48.0866 33.588 44.9853 35.5409C40.85 38.1449 35.4231 40.5052 33.027 45.0394C31.2016 48.4935 31.6751 53.2423 31.8696 57C32.322 65.7394 34.242 74.2196 33.9846 83C33.8746 86.7494 32.1616 90.2992 32.233 94C32.2985 97.3923 33.8563 100.561 33.9815 104C34.2972 112.676 32.9184 121.389 33.1952 130C33.4747 138.692 35.4766 147.269 35.8017 156C35.928 159.392 34.586 162.628 34.7785 166C34.9748 169.437 36.7083 172.538 36.946 176C37.6991 186.966 36.571 198.048 36.571 209C36.571 217.406 37.93 225.653 38 234z"/>
	<path style="fill:#ffffff; stroke:none;" d="M181 136C180.954 130.83 179.262 126.115 179 121L172 116C173.017 108.505 167.034 102.677 166.035 95.4244C165.227 89.5641 168.227 83.5942 169.5 78C170.225 74.812 171.436 70.1067 168.552 67.6181C165.195 64.7222 155.117 67.2384 151 67.8742C143.238 69.0731 135.697 71.9529 128 73.4159C118.944 75.1371 109.236 74.122 100 75.561C89.1883 77.2454 77.9189 75.8485 67 77.1551C64.242 77.4851 57.8435 77.133 56.0671 79.6034C54.2007 82.1991 56.5163 86.4058 57.2901 89C59.174 95.3157 63.2641 103.435 63.1134 110C63.0314 113.572 60.8944 116.755 59.6157 120C57.5726 125.185 56.4849 130.836 53.9691 135.83C52.5464 138.654 48.6231 143.046 52.4097 145.77C57.1647 149.191 63.9629 143.143 68 141.174C72.305 139.075 76.3142 138.971 81 138.997C95.3044 139.076 109.639 140.894 124 139.91C130.127 139.491 136.993 139.748 143 138.625C147.398 137.803 151.614 135.655 156.039 135.129C164.31 134.146 172.723 135.835 181 136z"/>
	<path style="fill:#010101; stroke:none;" d="M62 85C63.6595 89.519 64.1024 94.5189 65.9792 98.9105C67.7203 102.985 70.8767 106.214 70.6026 110.985C70.4315 113.965 68.4595 116.403 67.3727 119.09C64.7536 125.564 62.2036 131.765 59 138C61.183 136.533 63.4317 134.419 66.0015 133.688C73.6812 131.504 82.2768 135.469 90 134.826C102.269 133.806 114.737 134.998 127 133.83C136.215 132.953 145.894 132.135 155 130.675C160.611 129.776 166.315 128.009 172 128C173.27 122.46 169.989 119.208 166.884 114.91C163.852 110.714 159.702 103.897 158.514 98.8302C157.791 95.748 159.918 92.8493 160.74 90C162.339 84.456 163.737 77.7611 164 72C155.443 72.3731 147.364 75.9685 139 77.5324C135.025 78.2756 131.003 77.7732 127 78.0934C119.981 78.6548 113.027 80.0663 106 80.6713C91.8778 81.8872 75.5999 79.9068 62 85M204 77C204.135 87.8623 203.846 102.966 215 108C213.588 104.442 209.608 99.8311 209.627 96.0394C209.647 92.199 214.82 87.9685 217 85C212.422 82.6204 208.799 79.077 204 77z"/>
	<path style="fill:#ffffff; stroke:none;" d="M119 88L119 94C126.071 93.9415 132.942 92.1457 140 92C137.627 98.8461 133.606 101.993 128.576 106.884C126.487 108.916 122.634 111.599 122.636 114.856C122.637 118.383 127.639 118.047 130 117.96C138.356 117.651 146.593 117 155 117L155 110C146.97 110.166 139.039 111.933 131 112C137.174 108.336 141.854 101.2 145.366 95C146.916 92.2625 148.477 88.4956 144.768 86.7423C141.643 85.2651 138.175 86.5868 135 87.0046C129.862 87.6808 124.199 87.8927 119 88M74 126L80 126C80.8017 122.972 81.6887 120.124 82 117C85.6497 116.635 88.6822 115.543 92 114C92.3137 116.339 97.0015 125.869 99.2932 119.677C100.165 117.322 98.5442 114.175 97.75 112C95.926 107.005 93.7756 102.08 92.2052 97C91.351 94.2363 90.976 90.5679 88.5741 88.6227C84.9918 85.7215 82.0702 89.7739 81.2392 93.0046C79.5435 99.5967 78.5635 106.449 76.6991 113C75.3482 117.747 73.3208 120.922 74 126z"/>
	<path style="fill:#010101; stroke:none;" d="M86 101L87 102L86 101z"/>
	<path style="fill:#ffffff; stroke:none;" d="M104 104L104 110C109.655 109.953 114.696 108.948 120 107C117.843 99.8995 109.703 102.938 104 104z"/>
	<path style="fill:#010101; stroke:none;" d="M87 103C85.3559 105.604 84.0654 108.111 83 111C85.0417 110.105 86.8278 109.464 89 109C88.6951 106.598 88.4063 104.962 87 103M203 154C201.251 157.712 200.625 160.543 205 162C204.928 158.884 204.768 156.585 203 154M201 167C201 179.149 202.954 190.228 206 202C209.021 201.041 211.839 200.276 215 200C214.451 189.652 214.007 179.375 214 169C209.64 168.656 205.252 168.024 201 167z"/>
</svg>