<?xml version="1.0" standalone="yes"?>
<svg xmlns="http://www.w3.org/2000/svg" width="256" height="256">
	<path style="fill:#ffffff; stroke:none;" d="M97 212C90.3579 217.303 83.8624 216.142 76 217.21C72.5838 217.674 69.4938 218.882 66 218.985C62.7339 219.08 58.316 219.661 55.6343 217.411C52.1325 214.473 51.368 209.724 49.0671 206.053C46.5199 201.99 41.5912 198.93 37 198C36.9995 193.39 36.1303 188.561 36.5285 184C36.8088 180.791 38.3742 177.292 37.6427 174.059C36.5067 169.037 30.3799 169.572 27.858 173.148C22.8915 180.191 27.5195 194.315 28.74 202C29.5376 207.022 28.3078 212.969 27.7145 218C27.3901 220.751 26.468 224.065 28.1798 226.566C31.0412 230.745 40.7503 228.789 45.1698 228.92C59.6777 229.349 73.8858 228.425 88 225.608C91.3515 224.939 95.6657 225.593 98.7724 224.233C101.376 223.093 102.325 219.902 104.093 217.861C108.576 212.687 113.19 207.013 118.104 202.282C128.29 192.475 138.944 183.046 148.611 172.741C152.745 168.334 155.636 162.735 159.861 158.299C162.401 155.633 166.072 154.64 168.505 151.811C175.419 143.771 179.565 132.634 187.185 125.325C189.549 123.057 192.345 121.381 194.532 118.907C197.901 115.096 200.192 110.583 204.015 107.133C212.338 99.6231 224.846 92.1365 229.111 80.9606C231.89 73.6799 227.141 67.3552 224.343 61C222.189 56.1056 219.221 53.468 215.706 49.6258C204.927 37.8436 192.141 29.0699 176 28.5448C172.063 28.4166 167.876 26.5781 164 27.8827C158.476 29.7423 155.741 34.405 152.407 38.7145C147.978 44.4392 143.725 50.6565 138.826 55.9846C130.329 65.2265 120.362 73.2024 112.329 83C109.419 86.5495 108.47 91.1223 105.574 94.5756C99.7664 101.501 92.2714 106.402 86.2855 113.015C79.9529 120.01 75.6009 128.261 68.9853 134.999C61.297 142.831 53.2872 149.514 46.0949 157.96C43.6593 160.82 38.7187 164.639 39.5417 168.906C40.187 172.252 44.1492 173.457 47.0008 174.275C54.7099 176.488 61.8785 175.807 69 180.17C76.2397 184.605 80.8072 190.306 84.8418 197.83C88.44 204.54 86.0901 214.34 97 212z"/>
	<path style="fill:#000000; stroke:none;" d="M155 53C167.631 54.3621 177.422 64.6435 186.17 72.7407C189.552 75.8716 192.782 77.8372 195.134 81.9614C197.476 86.0673 204.852 96.4697 197.853 99.9136C194.272 101.676 191.121 97.9305 189.853 94.9954C187.027 88.4485 184.729 81.3587 178.945 76.5285C170.365 69.3635 156.972 66.8031 150 58C145.152 60.8117 143.322 64.6267 139.59 68.4715C132.115 76.1722 125.943 84.9845 118.575 92.946C114.144 97.7336 108.621 101.448 104.316 106.424C101.587 109.579 100.976 113.676 98.0309 116.83C92.3756 122.887 85.6535 127.437 79.8449 133.144C70.394 142.428 61.312 154.944 54 166C71.3893 166.048 80.5632 176.045 89.5 190C93.2069 195.788 97.6367 202.012 98 209C105.281 201.031 113.944 194.762 121.505 187.139C124.789 183.828 126.895 179.499 130.286 176.213C132.49 174.077 135.408 172.838 137.505 170.61C148.219 159.233 158.001 146.879 168.118 135C171.599 130.913 176.022 127.654 179.441 123.625C181.322 121.408 182.212 118.621 184.188 116.424C188.69 111.42 194.351 107.826 198.867 102.957C201.679 99.925 203.259 96.056 206.108 93.0432C210.855 88.0235 217.801 83.3231 219.337 76C221.101 67.5959 209.773 57.0382 204.086 52.2708C196.502 45.9137 189.37 41.5547 180 38.2176C176.445 36.9514 171.907 35.21 168.171 36.7461C162.494 39.0802 157.518 47.708 155 53M97 210L98 211L97 210z"/>
</svg>