<?xml version="1.0" standalone="yes"?>
<svg xmlns="http://www.w3.org/2000/svg" width="256" height="256">
	<path style="fill:#ffffff; stroke:none;" d="M70 13C53.453 36.8901 51.109 64.9232 42.8094 92C40.8931 98.2519 39.8615 104.701 38.1389 111C36.9837 115.224 35.2696 119.791 37.5764 123.942C41.227 130.511 51.2439 131.493 57.561 134.061C60.1735 135.123 61.8451 137.424 64.1705 138.93C68.6136 141.806 74.116 143.967 79 146C71.5261 150.596 68.1209 156.906 61.8302 162.625C53.5749 170.131 44.6841 176.471 35.9853 183.456C33.5466 185.414 23.8588 193.382 29.4491 196.651C34.8364 199.801 43.585 196.391 49 195.251C52.7264 194.466 56.2607 195.114 60 194.932C65.6256 194.659 70.259 193.643 76 193.896C78.7709 194.018 82.1354 192.762 84.7901 193.693C88.487 194.989 91.1215 200.849 93.8704 203.561C100.324 209.927 107.373 215.897 113.6 222.455C115.982 224.964 117.342 227.983 120.051 230.254C123.068 232.783 130.261 240.733 134.686 237.957C138.909 235.307 137.035 223.107 136.34 219C135.047 211.36 134.856 203.652 133.812 196C133.344 192.561 131.516 189.503 131.427 186C131.254 179.125 132.947 171.991 133 165C143.086 170.765 153.771 173.418 164 178.706C167.715 180.626 174.739 184.615 178.996 183.342C182.104 182.412 184.244 179.388 186.196 176.999C191.114 170.98 194.347 165.302 196.949 158C202.294 142.998 205.352 126.5 211.883 112C215.738 103.441 218.689 94.5665 222.41 86C225.506 78.8764 228.829 73.0136 229 65C224.328 63.176 219.632 62.8187 215 61.1998C205.958 58.04 196.815 53.5514 188 49.7253C182.139 47.1815 176.602 42.391 170 44C164.072 33.75 150.629 36.6967 141.09 34.0602C137.206 32.9868 133.923 30.1189 130 28.9043C116.838 24.8297 103.248 21.594 90.0394 17.6211C86.8129 16.6507 84.3556 14.0379 80.9853 13.4823C77.4509 12.8996 73.6214 13.4277 70 13z"/>
	<path style="fill:#000000; stroke:none;" d="M75 22C73.0878 28.7044 69.6066 34.5374 67.3256 41C64.5911 48.7476 61.5136 57.0192 59.598 65C58.7287 68.6216 59.1185 72.3653 58.2508 76C56.793 82.1057 54.305 87.8859 52.8873 94C51.6037 99.5363 50.2599 104.698 48.1427 110C47.2304 112.285 45.6443 115.185 46.6466 117.698C47.7539 120.473 52.6488 121.957 55 123.515C63.4864 129.137 71.4865 132.492 81 136.189C99.5032 143.38 117.553 151.987 136 159.085C141.242 161.102 146.837 160.957 152 162.723C160.826 165.741 169.69 170.822 178 175C182.238 164.67 187.852 154.974 192.394 144.83C195.385 138.151 197.126 130.846 199.706 124C201.245 119.917 203.736 116.18 205.009 112C205.809 109.375 205.558 106.608 206.441 104C208.653 97.4648 212.715 91.5947 214.896 85C216.268 80.8518 216.204 76.2901 217 72C209.049 67.7316 201.45 63.06 193 59.7593C187.452 57.592 181.413 56.8614 176.001 54.6474C172.048 53.0304 168.992 49.6906 164.961 48.3896C159.773 46.7157 154.219 46.1558 149 44.5571C145.601 43.516 142.502 41.4714 139 40.7971C136.336 40.284 133.65 40.7674 131 40.0571C122.795 37.8581 115.064 33.267 106.91 31.3017C101.467 29.9895 95.1182 31.6462 90 30.108C84.4255 28.4327 80.4063 23.6268 75 22M79.6667 147.333C79.2222 147.778 80.2778 147.722 80.3333 147.667C80.7778 147.222 79.7222 147.278 79.6667 147.333M82 148C83.4331 154.946 78.6845 156.042 74.375 160.443C65.3668 169.642 55.3266 179.139 45 187C49.9025 187.764 54.2104 185.667 59 185.129C64.9938 184.456 70.9765 184.825 77 184C81.2904 183.412 86.7116 181.955 90.892 183.742C95.9792 185.917 98.2626 194.755 101.528 199C109.37 209.194 116.824 218.4 128 225C128.038 220.291 128.705 215.692 127.981 211C127.503 207.903 125.931 205.086 125.559 202C124.925 196.75 125.718 191.276 124.726 186C123.439 179.156 120.616 168.752 126 163C122.836 161.669 119.301 161.893 116 160.757C109.386 158.482 103.536 154.575 97 152.247C92.0311 150.477 86.9689 150.024 82 148z"/>
</svg>