<?xml version="1.0" standalone="yes"?>
<svg xmlns="http://www.w3.org/2000/svg" width="256" height="256">
	<path style="fill:#ffffff; stroke:none;" d="M32 62C27.0874 62 19.9588 60.436 17 65C28.4924 67.5615 38.5057 63.8247 50 62.2091C54.6708 61.5526 60.1189 63.444 63 59C66.9253 59.7287 70.9764 60.4415 74.9606 59.6605C78.1445 59.0364 80.7148 56.9551 84.0147 56.7639C91.618 56.3233 97.9538 58.7791 105 61C100.06 62.4602 94.94 61.5398 90 63C95.9482 67.5819 104.837 67 112 67C109.68 65.129 107.092 64.1796 105 62L118 62C115.437 58.8112 112.805 56.5467 109 55C109.986 53.5215 110 53.7968 110 52C101.876 48.5217 95.2684 45.6338 86.0394 47.2238C83.0159 47.7447 80.6555 49.8708 77.561 50.0841C72.4041 50.4396 67.1112 48.1703 62.0394 49.5687C58.1533 50.6401 54.9257 53.4345 50.9992 54.5972C45.9852 56.082 28.9023 53.2931 32 62z"/>
	<path style="fill:#000000; stroke:none;" d="M27 64L28 65L27 64z"/>
	<path style="fill:#ffffff; stroke:none;" d="M35 67C37.0342 70.2547 35.5433 73.3329 35 77C39.2485 79.2106 43.304 79 48 79C46.7772 77.8048 46.58 77.6836 45 77C45.5839 73.4343 45.1837 71.8053 42 70C43.5339 68.9774 43.4023 69.1954 44 68C40.9605 67.2757 38.1217 67.0262 35 67M113 67C114.248 67.6848 114.548 67.7488 116 68C117.547 80.066 129.519 76.8728 138 77.615C160.92 79.6208 184.001 78.9975 207 79C202.147 80.4345 197.036 80 192 80C197.065 82.1451 204.463 83.8393 210 84C210.482 86.364 210.636 86.5175 213 87L204 90L204 94C208.475 95.3195 213.725 95.7372 214 90L224 88C222.922 86.1525 223.051 86.0338 224 84L220 84C220.575 81.6038 220.475 81.513 218 81C223.263 79.4438 229.494 79.1136 235 79C229.106 74.2864 222.147 72.9375 215 71.4861C201.19 68.6818 187.1 68.5218 173 69.044C169.942 69.1572 167.038 70.3164 164 70.375C159.024 70.471 153.99 68.4331 149 68.0895C144.288 67.765 139.671 68.6731 135 68.544C127.639 68.3404 120.449 67 113 67M16 80C16.6977 81.5671 16.8739 82.2858 17 84L21 84C19.439 86.3076 19.1168 86.6505 22 87L12 90L12 95C17.0044 95 24.6948 93.3771 25 100C27.6336 102.066 28.8088 103.892 30 107C28.2032 107 28.4785 107.014 27 108C28.4219 110.275 29.2996 112.574 26 113C27.1075 114.772 28.1544 115.974 26 117L26 119L28 120C26.3648 120.545 26.5451 120.365 26 122C27.1002 124.197 27.2355 125.557 27 128L29 128L28 132C37.4204 132.306 37.4149 141.715 34 149C35.8811 151.135 33.0612 151.65 31 152C30.9522 154.228 30.6577 155.866 30 158C33.6567 159.081 37.1992 159 41 159C40.9121 156.274 42.1789 155.385 39 155C40.9044 153.451 47.041 151.061 44 149C47.2602 144.268 45.3614 137.449 45 132L38 132L39 128L37 128C37.4682 125.379 37.6803 124.071 36 122L38 120L36 117L39 115C38.3501 113.7 38.8532 114 37 114C38.551 111.506 38.551 110.494 37 108L40 107L40 104C37.7897 101.241 38.1242 99.3264 39 96C34.4419 94.6527 29.7302 95 25 95C25.194 93.1434 25.2104 91.8467 25 90C27.9941 89.1579 30.9174 88.4158 34 88C33.3023 86.4329 33.1261 85.7142 33 84L28 84C27.5943 81.9076 27.7833 81.9803 26 81C29.0408 80.1004 31.8309 80.008 35 80C29.2967 77.6068 22.0712 79.9832 16 80M218 95C217.256 99.584 217.769 104.73 216 109C217.797 109 217.522 109.014 219 110C218.66 111.423 218.963 112.06 218 113C219.637 115.183 218.238 115.448 221 116C219.763 117.949 219.763 118.051 221 120C219.365 120.545 219.545 120.365 219 122C220.1 124.197 220.236 125.557 220 128L222 128L221 132L228 132C228.527 136.457 228.423 140.535 228 145C229.512 146.258 230.466 146.679 229 148L232 150C227.868 152.391 225.962 153.529 224 158C227.657 159.081 231.199 159 235 159C235.181 157.462 235.226 157.366 236 156L234 152C236.692 151.249 237.083 150.768 237 148C238.797 148 238.521 147.986 240 147L240 142L237 140C238.888 137.199 238.579 135.283 238 132L231 132L232 128L230 128C230.468 125.379 230.68 124.071 229 122C230.186 120.814 230.528 120.416 231 119C229.324 117.994 228.414 117.991 230 117C228.363 114.817 229.762 114.552 227 114C228.551 111.506 228.551 110.494 227 108L230 107C228.338 104.341 226.133 100.653 228 98C225.033 94.9699 222.114 95.0145 218 95z"/>
	<path style="fill:#000000; stroke:none;" d="M34 154L35 155L34 154M37 154L38 155L37 154M228 154L229 155L228 154z"/>
	<path style="fill:#ffffff; stroke:none;" d="M19 159C22.3266 160.413 26.4339 161.162 30 162C29.2176 165.352 29.2533 168.796 28 172C30.8759 175.264 22.9926 175 21 175C21.062 176.737 21.02 176.64 20 178C23.6912 179.776 26.9394 179.988 31 180C31.5797 178.194 31.9626 176.865 32 175L39 175C37.3626 172.817 38.762 172.552 36 172C37.8717 168.861 37.1394 166.389 36 163L38 163C34.3561 157.947 24.7325 159.001 19 159M213 159L223 162C222.213 165.218 222.215 167.028 225 169L224 172C225.169 173.01 225.315 173.484 226 175L218 175C218.062 176.739 217.522 177.375 217 179C220.96 180.171 224.887 180 229 180C228.528 178.584 228.186 178.186 227 177C228.537 176.31 228.338 176.672 228 175L234 175C233.466 172.33 234.785 172.557 232 172C232.989 168.634 232.761 165.466 233 162C226.989 158.871 219.649 159.001 213 159M37 181L37 185C40.6567 186.081 44.1992 186 48 186C46.8763 184.131 45.795 182.869 47 181C43.6501 179.597 40.4789 180.172 37 181M228 186C235.536 186 239.39 186.159 245 181C238.889 178.436 231.233 180.008 228 186M19 187C19.2305 189.126 19.2465 190.879 19 193L21 193C20.5018 195.494 20.7781 197.479 21 200C33.6953 205.168 44.8131 203.443 58 205C50.5616 207.199 41.7292 206 34 206C38.4687 207.875 44.1913 207 49 207C59.5934 207 70.4321 206.332 81 207.054C85.1084 207.335 88.829 208.945 93 208.995C97.8589 209.052 102.233 207.684 107 207.174C113.233 206.506 119.736 207 126 207L218 207C209.882 203.593 196.797 206 188 206L119 206C122.68 204.912 126.209 205.191 130 204.83C136.816 204.181 144.158 202.672 151 203.058C154.102 203.233 156.922 204.621 160 204.832C164.018 205.107 167.934 203.803 172 204.171C185.401 205.381 201.539 206.525 214 201C213.894 198.044 216.639 195.484 219 194C218.907 191.406 221.151 188.689 222 186C217.239 186 212.655 185.892 208 187L209 191C205.609 192.071 202.54 194.119 199.039 194.826C192.691 196.107 185.464 194.856 179 195.015C161.367 195.447 143.624 194.938 126 195.03C117.481 195.074 109.456 200.707 100.985 200.907C93.8314 201.075 86.1593 198.762 79 198.129C73.0109 197.599 67.0735 199.437 61 198.829C56.394 198.369 52.4241 196.522 48 195.47C42.3051 194.116 35.8428 193.989 30 193L30 186C26.1993 186 22.6567 185.919 19 187z"/>
</svg>