<?xml version="1.0" standalone="yes"?>
<svg xmlns="http://www.w3.org/2000/svg" width="256" height="256">
	<path style="fill:#ffffff; stroke:none;" d="M49 93C36.9233 93.1 22.6444 98.6211 17.0579 110.09C13.6311 117.124 13.8139 128.388 14.7145 136C15.1527 139.704 14.8018 143.465 16.287 146.981C19.1455 153.747 30.5347 155.141 36 151C42.6501 154.549 51.7222 153.147 59 152.285C67.9689 151.224 77.0173 151.025 86 150.17C96.5958 149.161 107.378 150.548 118 149.957C122.997 149.679 127.688 147.286 132.715 147.201C137.8 147.114 142.818 148.265 148 147.91C162.605 146.91 177.207 143.184 191.83 142.934C204.358 142.721 219.542 143.755 231 138.039C233.972 136.557 238.944 136.227 240.396 132.852C243.191 126.352 238.929 115.697 238.34 109C237.599 100.586 236.744 88.6947 232.544 81.1698C230.798 78.0413 227.678 76.0096 225.298 73.4205C222.337 70.2001 220.663 66.6828 216.995 64.0432C211.874 60.3566 205.477 56.6409 199 56.3935C189.763 56.0407 176.272 61.6211 169 67C166.519 58.3214 160.985 52.3497 156.075 45C149.609 35.321 144.942 23.5205 133.999 17.723C129.523 15.3512 124.821 15.9777 120.09 14.8457C113.339 13.2305 108.287 11.3103 101 12.1289C92.618 13.0704 86.5991 17.3068 79.9105 21.9113C72.7197 26.8615 65.1745 31.9057 59.7531 38.929C55.857 43.9762 55.201 48.9681 53.8835 55C52.7369 60.2493 50.8279 65.6937 50.1844 71C49.2776 78.4777 50.2607 85.525 49 93z"/>
	<path style="fill:#000000; stroke:none;" d="M25 143C29.1112 143.003 32.329 143.041 36 145C46.856 140.4 60.4773 144.134 72 143.996C79.03 143.912 85.1517 140.744 92 140.104C104.575 138.93 117.418 140.634 130 140.436C133.214 140.385 135.859 138.572 139 138.144C143.614 137.514 148.365 138.327 153 137.896C159.027 137.335 164.872 135.524 171 135.209C178.317 134.833 185.602 136.872 193 135.675C205.388 133.671 218.507 129.266 231 129C230.343 113.688 230.932 92.8465 220.867 80.1435C218.786 77.5166 215.592 76.0024 212.996 73.9498C208.038 70.0302 202.669 66.0658 196 66.1944C187.807 66.3525 182.173 70.6474 176 75.3171C172.949 77.6248 168.109 80.9842 164.133 78.9321C158.554 76.0528 157.85 65.1983 155.171 60C150.05 50.0664 144.63 37.5928 135.572 30.588C133.342 28.8634 130.425 28.2078 128 26.777C125.103 25.0675 122.319 22.6441 119 21.7886C115.854 20.9776 112.218 21.9529 109 21.9961C88.7775 22.2679 63.8747 40.5528 59.8079 61C58.8103 66.0158 59.3125 70.9504 58.9066 76C58.6616 79.0484 57.3711 81.9514 57.2886 85C57.1548 89.9424 59.5967 93.9573 57.2971 98.9059C53.5152 107.044 42.4476 101.632 36 105.599C21.3529 114.61 24.5855 128.329 25 143z"/>
	<path style="fill:#ffffff; stroke:none;" d="M98.9961 43.5772C81.8229 47.4207 83.4912 79.0969 103 74.4969C108.874 73.1118 116.684 69.6474 118.1 63C120.055 53.8257 108.197 41.5179 98.9961 43.5772z"/>
	<path style="fill:#000000; stroke:none;" d="M98 70C103.613 67.132 116.398 63.7705 109.485 55.1435C107.443 52.5947 104.226 51.3757 102 49C91.7443 53.038 91.2059 62.3544 98 70z"/>
	<path style="fill:#ffffff; stroke:none;" d="M132.439 76.8619C127.555 79.1385 122.652 88.6186 125.696 93.6705C129.05 99.2354 137.817 99.2214 142.996 96.7986C146.158 95.3195 149.661 92.7885 150.069 88.9992C150.855 81.696 138.955 73.8245 132.439 76.8619z"/>
	<path style="fill:#000000; stroke:none;" d="M132 91C136.882 91.6563 142.289 91.2099 144 86C137.942 84.2936 132.633 82.967 132 91z"/>
	<path style="fill:#ffffff; stroke:none;" d="M87 97C86.7118 95.1336 86.5381 93.6303 85.3966 92.034C73.9018 75.9593 54.7835 109.308 75 110.941C77.329 111.129 79.767 110.943 82 110.246C87.6531 108.483 96.4923 100.12 87 97z"/>
	<path style="fill:#000000; stroke:none;" d="M85 102C84.3018 100.362 83.7369 98.9332 82.4869 97.6103C74.2061 88.8469 69.1626 107.406 79.9761 104.252C81.7412 103.737 83.3676 102.818 85 102z"/>
	<path style="fill:#ffffff; stroke:none;" d="M106 128C109.483 128 113.605 128.555 116.91 127.262C119.466 126.263 121.52 124.19 124 123C124 118.564 123.811 114.369 123 110C119.229 109.723 115.71 106.914 112 107.402C101.314 108.808 103.007 121.312 106 128z"/>
	<path style="fill:#000000; stroke:none;" d="M109 122C115.225 121.794 116.941 119.032 116 113C110.338 113.922 109.133 116.499 109 122z"/>
	<path style="fill:#ffffff; stroke:none;" d="M167 220C178.827 223.386 187.043 219.566 197 213C201.544 222.662 219.915 230.16 229.996 225.517C237.296 222.155 241.263 213.722 241.816 206C242.129 201.617 241.696 194.142 239.988 190.09C238.708 187.051 236.011 184.742 234.244 181.985C231.763 178.116 231.958 173.917 229.978 170.039C228.643 167.427 226.069 165.726 224.777 163.08C223.505 160.474 224.244 157.009 221.566 155.178C217.509 152.405 212.232 155.341 208 155.875C199.917 156.895 194.813 160.158 187.791 163.466C181.408 166.473 172.917 168.088 166 169.381C160.452 170.418 156.35 168.452 151 168.218C140.696 167.768 122.577 171.206 117.584 181.414C114.618 187.479 117.321 193.876 117.931 200C119.237 213.099 114.482 227.966 124.38 238.71C139.491 255.113 161.477 235.504 167 220z"/>
	<path style="fill:#000000; stroke:none;" d="M127 182C128.635 192.995 128.183 204.846 127.986 216C127.884 221.758 127.552 228.586 132.634 232.525C140.687 238.768 151.912 228.356 155.992 221.575C158.185 217.929 158.37 214.685 162.044 211.863C168.403 206.979 173.13 213.876 179.91 211.641C185.931 209.657 189.805 202.062 195.995 200.751C200.51 199.794 201.95 205.131 203.874 207.996C206.508 211.917 212.086 217.157 217 217.817C225.362 218.94 229.748 211.841 231.334 205C232.998 197.828 230.975 188.225 226.775 182C222.827 176.147 216.985 171.42 214 165C209.991 165.679 203.902 166.007 200.299 167.742C197.63 169.027 196.798 172.212 193.942 173.412C190.487 174.863 186.58 174.05 183 174.712C178.511 175.542 174.483 178.324 170 179.402C162.509 181.202 155.378 179.151 148 179.263C140.925 179.37 134.016 181.442 127 182z"/>
	<path style="fill:#ffffff; stroke:none;" d="M139 186C139.028 189.422 139.375 192.637 140 196L146 196L145 186L139 186M149 197L149 203C151.412 202.942 154.527 203.156 156.377 201.262C158.629 198.958 156.657 196.497 153.966 196.317C152.337 196.208 150.586 196.711 149 197M131 209C134.07 209.403 142.732 207.809 138.928 202.618C134.981 197.232 131.1 205.985 131 209M143 204L143 213L149 213L149 204L143 204z"/>
</svg>