<?xml version="1.0" standalone="yes"?>
<svg xmlns="http://www.w3.org/2000/svg" width="256" height="256">
	<path style="fill:#ffffff; stroke:none;" d="M91 15C76.7806 20.6046 61.6491 28.5271 51.4938 40.3002C42.3779 50.8683 37.5924 61.6552 32.6142 74.4244C28.9626 83.7908 24.6131 93.8387 23.2894 104C22.1386 112.833 22.9784 122.197 23.8302 131C25.2801 145.983 28.0463 161.263 36.5602 173.999C43.1712 183.889 54.2568 191.38 63.831 197.985C77.4305 207.368 91.6298 216.348 108 219.22C113.701 220.22 117.032 222.416 123 221C124.478 227.208 124 233.654 124 240C115.758 240.001 108.964 242.774 101 240.031C94.7445 237.876 86.4404 238.676 80.0046 239.734C76.7931 240.262 72.0464 242.434 76.3225 245.787C84.9298 252.536 97.4901 248.869 107 248.147C111.091 247.837 114.914 249.833 119 249.981C132.931 250.488 147.152 250.1 161 249.594C166.854 249.38 172.166 248.86 178 248.166C180.771 247.836 184.172 247.955 185.377 244.853C188.786 236.08 175.946 238.982 171.91 239.039C168.798 239.084 166.049 239.836 163 240.236C156.425 241.099 147.561 241.32 141 240.424C138.627 240.099 135.419 240.217 133.603 238.397C131.558 236.346 131.96 232.642 132.005 230.001C132.031 228.442 131.946 226.686 132.603 225.228C134.837 220.274 143.652 222.245 148 221.561C156.374 220.243 165.562 216.596 173.961 216.434C177.129 216.373 181.687 221.025 184.269 217.627C185.747 215.682 184.571 213.021 183.926 211C182.198 205.586 180.045 200.3 178 195C192.66 191.828 203.937 181.769 212.799 170.285C234.23 142.512 237.407 104.679 225.781 72C222.718 63.3897 220.186 55.5177 214.32 48.2091C205.635 37.3887 192.592 30.7315 180 25.4144C173.846 22.8158 165.594 22.502 159 21.8295C146.196 20.5237 134.983 18.6346 122.005 20.1088C117.352 20.6373 113.885 27.1852 109.224 26.1327C106.883 25.6041 106.012 22.8338 104.973 20.9954C102.895 17.3191 99.3498 7.85278 94.9144 6.75156C89.7262 5.46347 90.1681 12.0709 91 15z"/>
	<path style="fill:#000000; stroke:none;" d="M94 24C84.3117 31.2123 72.6433 35.4306 63.4244 43.4691C44.5207 59.9525 34.7682 87.4863 33.0895 112C31.976 128.26 33.9406 147.524 41.9406 162C50.5639 177.604 66.4434 189.429 82 197.439C86.2825 199.644 89.7841 203.282 94.1698 205.189C116.994 215.114 148.949 215.958 172 206L170 199C156.253 203.359 138.332 206.428 124 203.521C111.518 200.989 100.73 195.688 89.5756 189.883C86.7699 188.423 83.6839 187.924 81 186.146C76.9671 183.474 74.1229 179.593 70.5756 176.39C68.0733 174.132 64.7748 172.99 62.3904 170.61C54.1293 162.362 47.3949 149.234 44.3009 138C42.3014 130.74 43.6259 123.339 43.6613 116C43.7876 89.7965 57.6564 60.209 78.0147 43.2593C83.6387 38.5768 90.6274 35.4902 97 32C96.3276 29.1005 95.5852 26.5197 94 24M100 42C99.943 45.6552 99.1415 47.1256 96 49C96.1668 53.3649 92.0681 60.6223 95.0285 64.3966C98.9423 69.3864 108.397 62.3304 113.715 65.6991C117.111 67.851 121.436 70.7768 123.728 74.1049C128.35 80.8173 129.426 89.2158 137.09 93.7716C143.523 97.5961 149.867 93.1386 155.535 99.1782C160.286 104.24 167.465 111.881 168.52 119C168.909 121.626 166.697 128.426 171.093 128.744C174.925 129.02 177.405 122.787 178.331 119.91C180.908 111.904 176.489 93.1116 189 93.0239C191.087 93.0093 193.061 93.8159 195 94.4861C196.983 95.1717 199.018 95.8046 200.815 96.9159C209.976 102.582 204.748 112.808 207 121C211.948 119.587 216.896 119.999 222 120C225.967 87.4131 213.081 52.9843 182.715 37.26C175.041 33.2867 165.378 33.0187 157 31.7253C151.184 30.8275 144.921 28.929 139 29.2191C135.428 29.3941 132.381 31.461 129 32.3912C119.066 35.1245 109.735 38.4949 100 42M89 48C71.8949 60.6697 56.1221 82.0907 55 104C59.3797 100.93 64.0002 95.3643 70 96.2654C73.7354 96.8265 76.8278 100.255 79.1235 103C84.8532 109.852 91.6778 120.905 92 130C96.5938 131.358 101.674 130.568 106 132.924C113.749 137.143 123.95 149.006 116.427 157.775C114.04 160.559 110.309 161.714 107 163C108.269 170.804 115.656 170.778 118.972 177.043C121.397 181.624 119.102 188.079 119 193C123.731 193.039 128.297 194.168 133 194.286C139.714 194.456 146.329 193.286 153 193C149.893 180.072 153.877 167.89 167 162.978C171.446 161.314 176.515 162.205 180.91 160.415C183.596 159.322 185.377 156.869 188.039 155.702C195.041 152.634 201.965 153.745 208 158C216.711 151.423 218.571 136.081 221 126C215.209 126.004 206.969 128.899 202.318 124.431C198.192 120.467 201.246 114.833 200.751 110.001C200.309 105.693 197.677 103.086 195 100C192.195 100.046 189.738 99.6098 187 99C183.316 109.411 189.041 131.278 173.985 135.092C162.562 137.986 164.122 126.705 162.262 120C160.862 114.951 158.121 109.361 154.266 105.823C148.627 100.647 141.836 104.428 136.325 100.312C132.187 97.2221 126.573 92.3617 123.843 87.9992C120.134 82.0704 118.755 75.1302 111.791 71.652C104.068 67.795 95.4929 76.2882 89.6034 67.8951C85.201 61.6212 90.3373 54.3443 89 48M113 190C113.026 186.79 114.228 182.159 112.307 179.375C109.052 174.657 102.41 172.411 101.407 166C99.7557 155.442 115.212 157.546 111.628 147.999C111.101 146.595 110.238 145.214 109.362 144.005C107.47 141.393 105.141 139.205 102 138.279C96.9286 136.782 90.3561 137.874 87.0201 132.867C82.243 125.696 80.9497 116.345 75.9066 109.001C73.2607 105.147 70.0194 101.598 65 103.363C49.1987 108.921 50.4255 128.234 56.1042 141C60.6777 151.282 65.4733 162.052 73.6798 170.156C77.2226 173.654 81.8249 175.074 85.9853 177.604C94.4142 182.731 103.297 187.555 113 190M193 158C189.21 161.617 185.189 165.407 180 166.812C173.902 168.462 165.874 167.956 161.321 173.147C157.911 177.033 158.103 186.021 158 191C170.91 190.337 187.008 180.922 196.91 172.995C200.774 169.903 205.772 166.143 206 161C201.07 161.193 197.441 160.082 193 158z"/>
	<path style="fill:#ffffff; stroke:none;" d="M187 199L188 200L187 199z"/>
</svg>