<?xml version="1.0" standalone="yes"?>
<svg xmlns="http://www.w3.org/2000/svg" width="256" height="256">
	<path style="fill:#ffffff; stroke:none;" d="M122 146C118.886 151.154 115.197 156.094 113.606 162C111.125 171.209 112.083 180.712 110.867 190C110.254 194.677 106.895 197.602 104.175 201.17C97.5353 209.88 86.4064 222.171 90.8966 234.004C98.5507 254.174 123.938 246.666 139 241.689C148.552 238.533 158.469 232.858 167 227.618C173.366 223.708 180.602 222.14 187 218.471C203.496 209.013 219.277 194.856 229.709 179C234.2 172.174 242.627 164.099 240.671 155.001C239.411 149.138 232.938 145.815 229.554 141.246C227.878 138.984 227.389 135.505 225.401 133.603C222.542 130.868 217.285 132.662 214 133.555C207.046 135.445 200.875 137.707 193.996 134.873C180.422 129.28 164.634 126.176 150 128C151.817 125.264 152.688 122.127 154.495 119.424C156.817 115.949 159.708 113.014 161.186 109C162.93 104.262 162.962 98.874 164.367 94C166.51 86.5589 169.193 79.7957 168.285 72C167.37 64.1303 167.622 57.5729 160 53C167.813 46.3289 175.232 37.1683 169.076 27.0147C166.996 23.5839 163.472 21.5024 161.029 18.385C156.816 13.0094 156.653 9.80923 149 8.46527C136.795 6.32204 126.629 12.279 115.91 16.3156C107.116 19.6279 98.4795 21.5555 90.0039 25.9668C86.4715 27.8053 84.1334 30.9096 80.7909 32.8519C78.0903 34.4211 74.8705 34.7021 72.1698 36.3634C66.7275 39.711 61.8192 44.1344 56.5756 47.794C44.2284 56.4114 34.5492 63.0406 26.1512 76C21.6166 82.9977 15.6149 91.2875 15.1728 99.9961C14.8141 107.063 26.0041 120.108 33 120.732C37.4932 121.133 42.3434 116.597 46.625 118.194C54.5489 121.149 60.689 131.329 67.1289 136.455C71.2338 139.723 76.2083 141.086 81 142.859C94.5347 147.867 107.733 149.515 122 146z"/>
	<path style="fill:#010101; stroke:none;" d="M33 110C38.7815 108.927 45.1383 108.256 51 108.035C54.4786 107.903 57.5733 108.658 61 107.479C70.4048 104.243 78.1092 96.7704 87 92.3866C91.6498 90.0939 97.1519 89.3761 102 87.3951C110.146 84.0662 117.846 79.2518 124.996 74.1651C132.419 68.8847 138.4 61.2785 145 55.0432C149.33 50.9523 152.31 47.9387 155.704 43.1281C157.008 41.2811 159.266 39.9201 160.052 37.7407C161.866 32.7184 156.192 28.4232 153.683 24.8457C152.619 23.3286 151.988 21.2997 150.441 20.1782C148.921 19.0766 146.803 18.9663 144.999 18.8194C137.422 18.2024 131.195 20.7359 124 22.2122C107.701 25.5564 93.6053 34.8668 79.8958 43.6381C72.244 48.5338 63.289 51.8894 56.1049 57.4606C53.2571 59.6691 51.5652 62.8189 48.7878 65.0502C41.2017 71.1447 34.4916 80.223 30.1389 89.0394C28.5979 92.1606 26.4339 95.3096 26.6451 98.9606C26.8804 103.031 31.026 106.583 33 110z"/>
	<path style="fill:#ffffff; stroke:none;" d="M71 84C65.6175 83.2698 62.7539 86.3146 57.9105 87.8997C49.9117 90.5174 41.2598 92.3972 33 94L33 100C56.8848 99.8023 79.1969 86.2153 99.1698 74.8295C112.245 67.3758 124.792 61.2334 133.273 48.0895C138.244 40.3857 151.954 33.2998 149 23C138.973 25.2329 136.224 35.0051 129.938 41.9105C119.955 52.8776 109.058 61.9196 96 69.1235C90.1281 72.3629 84.4268 75.8448 78.6343 79.189C75.4365 81.0352 73.0079 80.5251 71 84z"/>
	<path style="fill:#010101; stroke:none;" d="M153 61C143.155 70.8449 132.953 81.3757 121 88.6798C110.761 94.9363 99.0263 98.3056 88 102.861C82.8501 104.989 78.9512 108.646 73.9961 110.943C69.2533 113.141 64.1166 113.417 59 114C66.2884 121.885 73.4132 129.951 83.2855 134.726C94.7726 140.282 109.271 138.588 121 135.204C125.762 133.831 131.416 133.379 135.296 129.983C139.11 126.645 141.775 121.239 144.471 117C152.294 104.699 159.374 93.0262 159.335 78C159.316 70.7249 159.312 65.7626 153 61z"/>
	<path style="fill:#ffffff; stroke:none;" d="M132 127C131.919 124.546 132.105 120.902 128.852 120.532C126.151 120.224 123.62 122.227 121 122.607C110.896 124.073 99.32 125.731 90.0185 120.272C86.6159 118.274 81.2102 111.314 76.6227 115.028C74.7021 116.583 76.0169 118.891 77.233 120.385C80.1431 123.959 84.6115 127.367 89 128.831C93.5661 130.355 99.2329 129.992 104 130C113.721 130.016 122.533 129.426 132 127z"/>
	<path style="fill:#010101; stroke:none;" d="M113 207C109.694 212.23 105.856 217.033 104 223C105.967 222.078 107.916 221.084 110.005 220.459C112.027 219.854 120.172 218.272 118.654 222.919C116.686 228.948 105.666 229.917 102 226L99 227C101.069 231.052 104.325 236.635 109.015 238.002C112.377 238.981 115.777 236.829 119 236.123C122.487 235.36 126.327 235.561 129.715 234.502C136.978 232.232 143.904 227.063 151 224.104C164.096 218.643 178.236 213.543 189.961 205.096C198.598 198.874 206.599 190.048 213.985 182.381C219.132 177.039 229.817 167.075 229.944 159.09C230.049 152.561 221.986 148.707 220 143L216 143C219.438 146.341 219.958 149.306 220 154L217 154C216.738 157.429 215.49 161.805 210.995 159.914C204.504 157.182 199.164 149.653 193 145.863C188.839 143.305 183.688 142.056 179 140.845C166.379 137.585 148.123 132.763 137.325 143.329C123.683 156.678 119.321 176.504 121.171 195C121.61 199.398 122.587 204.011 124.514 208C125.774 210.608 128.218 213.75 126.716 216.768C122.26 225.718 115.137 209.579 113 207M211 145C212.103 146.457 212.543 146.897 214 148L215 144L211 145z"/>
	<path style="fill:#ffffff; stroke:none;" d="M127 204C148.168 203.942 169.232 188.299 185.985 176.5C189.609 173.948 203.28 163.858 198.253 158.603C195.845 156.086 190.215 156.562 187 155.88C182.291 154.88 177.829 151.895 173 151.688C164.483 151.322 159.536 156.518 152 158.896C146.166 160.736 141.753 153.818 136.093 155.786C132.106 157.173 129.073 162.456 127.345 166.039C122.2 176.709 124.446 192.828 127 204M204.981 161.917C200.384 163.453 198.038 168.214 194.961 171.557C191.207 175.634 186.194 178.538 181.715 181.75C171.752 188.893 162.12 195.997 151.015 201.272C145.921 203.691 140.082 204.52 135.055 207.062C132.32 208.444 129.627 212.48 134.149 213.667C139.997 215.201 145.839 210.078 151 208.336C160.563 205.108 167.738 199.505 176 193.838C184.615 187.929 193.099 183.062 200.718 175.741C203.467 173.1 207.392 169.557 208.914 166.019C210.229 162.96 208.027 160.899 204.981 161.917z"/>
</svg>