<?xml version="1.0" standalone="yes"?>
<svg xmlns="http://www.w3.org/2000/svg" width="256" height="256">
	<path style="fill:#ffffff; stroke:none;" d="M219 109C220.414 103.844 218.176 99.2307 218.014 94C217.799 87.0679 217.293 79.7102 215.444 73C214.009 67.788 211.235 62.6614 210.177 57.4244C209.188 52.5209 209.5 47.016 208.91 42C208.429 37.905 207.167 34.1627 206.988 30C206.719 23.7105 205.453 16.2025 204.223 10.0046C203.773 7.73616 203.142 5.60136 200.852 4.60339C196.282 2.61215 190.514 4.57532 186 5.54475C180.389 6.7498 174.727 7.40564 169.09 8.70526C165.752 9.4747 162.348 8.74416 158.999 9.45602C142.291 13.0078 125.03 16.3124 108 17.8958C95.2284 19.0833 82.7305 20.995 70 22.8302C58.3054 24.5162 45.9992 25.2723 35 29.6559C29.3773 31.8967 21.0122 29.621 16.7461 34.6381C14.6201 37.1384 15.623 40.2154 16.5116 43C18.5129 49.2715 20.8752 55.4283 21.7909 62C24.5055 81.4823 25.6485 101.471 29.0841 121C30.8487 131.03 35.0836 140.769 35.9066 151C37.9368 176.238 48.0999 200.533 50.0895 226C50.6333 232.96 51.2269 248.629 59.044 251.195C64.1646 252.876 68.3108 250.19 73 248.539C78.5546 246.582 85.1782 245.086 91 244.205C110.02 241.329 129.293 237.624 148 233.61C154.592 232.195 161.097 229.559 167.715 228.445C170.414 227.991 173.224 229.031 176.001 228.706C183.319 227.85 189.476 225.042 197 224.999C201.793 224.972 204.95 223.06 209.424 222.134C216.504 220.67 223.879 220.364 231 218.745C234.089 218.043 238.995 218.655 240.972 215.682C242.936 212.729 241.574 208.214 241.151 205C240.578 200.646 239.792 195.525 238.198 191.424C235.935 185.606 231.651 180.339 231.04 174C230.235 165.649 230.946 157.372 229.866 149C229.12 143.221 226.473 137.681 226.055 132C225.624 126.138 223.666 122.51 222.309 117C221.469 113.586 222.065 111.166 219 109z"/>
	<path style="fill:#000000; stroke:none;" d="M54 36L47 37C48.8858 49.6748 52.216 62.1694 53.9452 74.8302C54.9367 82.0892 54.6147 89.8634 55.9583 97C57.9678 107.673 61.8641 118.141 63.75 129C64.7955 135.02 64.4466 141.01 65.3002 147C67.1095 159.698 69.5998 172.332 71.6875 185C72.2367 188.333 71.7368 191.676 72.213 195C73.5467 204.31 76.8275 214.116 79.8248 223C80.8964 226.176 80.5472 232.94 83.564 234.929C85.7331 236.359 88.7865 234.846 91 234.285C96.673 232.85 102.34 231.842 108 230.4C117.153 228.068 126.807 228.206 136 226.37C147.308 224.113 157.334 219.889 169 221C173.066 217.19 177.807 218.333 183 217.83C191.108 217.046 198.853 213.128 207 215C211.938 209.953 224.106 209.415 231 208C229.638 200.77 226.754 194.113 225.303 187.015C223.096 176.218 220.609 164.917 219.285 154C218.494 147.474 218.96 140.399 217.61 134C216.095 126.816 212.965 120.05 211.285 113C206.709 93.8056 205.355 74.0965 200.409 55C196.9 41.4529 200.367 27.175 195 14C186.554 15.8653 177.587 16.5627 169 17.4136C165.594 17.7511 162.446 19.2203 159 19.5139C153.408 19.9903 147.521 19.3537 142 20.2593C136.491 21.1629 131.451 23.991 126 24.9066C119.266 26.0376 112.641 25.9776 106 27.5594C103.601 28.1308 100.563 28.0254 98.4491 29.4336C95.0591 31.6915 97.8036 37.031 98.7168 40C99.9098 43.8784 100.52 48.4212 102.185 52.0895C104.413 56.997 110.227 63.009 106.011 68.6674C103.662 71.8198 99.7691 69.7119 97 68.4205C92.7272 66.4279 88.3076 64.8634 84 62.9738C82.1832 62.1768 80.1605 60.7285 78.0694 61.0216C75.1104 61.4364 74.4336 64.744 73.3557 66.9969C71.5698 70.7298 66.8031 80.2484 62.9113 81.8241C58.1777 83.7405 57.1224 76.0024 56.9506 73C56.2415 60.6092 54.9762 48.3693 54 36M58 35C58.2599 47.5935 62.9986 59.3176 63 72C66.2882 67.2576 68.6056 59.2139 73.2276 55.7384C80.5734 50.2149 94.7221 61.1764 102 64C98.8563 56.296 94.1003 48.9684 91.7747 41.0039C90.9442 38.1595 91.51 32.768 88.5556 31.1034C86.0543 29.6942 82.5952 31.3572 80 31.696C76.9977 32.0879 73.9687 31.2821 71 31.8032C66.5885 32.5776 62.5178 34.4161 58 35M27 40C32.2885 62.2029 33.1145 84.5133 36.7191 107C38.4983 118.099 41.8849 128.95 43.9923 140C44.6441 143.418 43.9943 146.618 44.3488 150C44.98 156.023 47.0532 163.021 48.3858 169C49.7354 175.056 52.2312 180.852 53.3812 187C56.7513 205.017 58.3858 223.165 63 241C67.378 239.541 71.7803 237.871 76 236C73.7085 224.224 69.2699 212.764 67.186 201C62.9529 177.104 61.4041 152.922 57.5617 129C56.5106 122.456 54.3874 116.399 52.9583 110C52.1399 106.335 52.5727 102.635 51.9059 99C50.8155 93.0563 48.6668 88.1316 50 82C46.6604 77.7569 47.4775 72.9909 46.716 67.9606C45.2315 58.1532 40.7608 47.9413 41 38C36.3342 38.3682 31.553 38.913 27 40z"/>
	<path style="fill:#ffffff; stroke:none;" d="M160 96.4321C156.197 96.9331 152.374 98.5881 148.576 98.7076C144.034 98.8504 138.378 96.9339 134.043 98.6042C130.173 100.095 129.101 105.155 125.242 106.407C122.906 107.165 120.22 105.245 117.996 104.711C114.892 103.966 111.582 104.302 108.576 105.367C103.23 107.263 101.77 117.02 96.017 116.948C88.8569 116.859 90.9655 106.993 91.4275 103.019C91.6623 101 91.021 97.9035 88.2199 98.7516C84.9109 99.7534 85.2885 104.39 85.5941 107C86.3484 113.443 88.1277 123.018 96 124.353C103.598 125.641 105.769 114.821 111.015 111.643C116.826 108.122 122.161 114.493 127.985 113.551C133.696 112.627 132.711 106.587 137.133 104.583C141.324 102.683 144.858 106.482 149.001 106.318C152.759 106.169 155.361 103.643 158.715 102.421C162.884 100.901 168.735 101.455 173 102.2C175.659 102.664 185.311 105.152 186.654 101.687C187.692 99.0114 183.892 97.5812 181.995 97.2284C175.721 96.0611 166.293 95.6029 160 96.4321M110 165C108.161 160.298 105.931 155.617 105.927 150.424C105.926 148.064 107.826 143.799 105.387 142.086C102.147 139.812 100.193 144.608 100.148 147.005C100.043 152.673 101.995 158.654 103.638 163.999C104.267 166.044 104.631 168.643 106.514 169.971C116.671 177.138 117.983 158.824 123.275 156.313C125.863 155.085 129.229 156.264 132 155.57C134.484 154.949 136.52 153.239 139 152.649C141.654 152.017 144.336 153.086 147 152.451C150.174 151.696 152.666 149.491 156 149.148C163.628 148.363 171.282 154.746 176.101 145.755C176.765 144.515 176.796 143.361 177 142C180.313 142.781 182.724 142.942 186 142C184.591 137.955 181.008 133.574 176.044 134.927C171.237 136.238 172.203 143.012 167.853 144.072C163.943 145.024 158.218 142.859 154 143.019C146.539 143.302 138.292 146.668 131 148.447C127.797 149.228 124.079 148.487 121.133 150.179C115.943 153.16 115.155 161.17 110 165z"/>
</svg>