<?xml version="1.0" standalone="yes"?>
<svg xmlns="http://www.w3.org/2000/svg" width="256" height="256">
	<path style="fill:#ffffff; stroke:none;" d="M95.2739 9.74306C88.9764 12.6749 88.9207 23.2794 86.5941 28.8302C79.9636 44.6499 70.9823 60.6735 63.0162 75.8302C51.6038 97.544 41.6736 120.462 28.2932 140.961C26.5008 143.707 23.8482 146.035 22.51 149.039C21.4105 151.508 21.3718 154.297 20.1049 156.715C16.9017 162.827 11.7833 167.406 12.652 175C13.0216 178.231 14.8707 181.043 16.0802 184C19.6812 192.804 22.6641 199.679 28.8596 207C30.989 209.516 32.1533 213.776 35.2276 215.262C47.7871 221.336 63.6551 221.471 77 224.529C82.0923 225.696 86.9534 228.184 92 229.633C104.717 233.286 118.045 236.719 131 239.372C142.061 241.637 152.85 244.314 164 246.25C168.109 246.964 173.728 249.118 177.772 247.257C180.399 246.048 180.665 243.377 181.694 240.996C183.33 237.21 185.703 233.844 187.305 230C193.59 214.917 199.758 198.952 207.198 184.424C211.45 176.119 214.73 167.227 218.965 159C222.039 153.03 226.52 147.792 229.625 141.91C233.303 134.944 234.511 127.402 236.886 120C238.821 113.968 244.067 105.344 243.597 99.044C243.193 93.6263 237.557 95.1808 234.912 91.8526C232.922 89.3485 233.174 83.0887 233.039 80C232.636 70.7712 235.642 63.6766 238.12 55C238.977 52.001 240.093 46.4527 237.972 43.7276C236.11 41.3339 231.709 41.1865 229 40.4452C221.237 38.3212 213.963 36.9882 206 36.2037C196.537 35.2715 187.845 30.6261 179 27.6944C174.529 26.2123 169.573 25.8811 165 24.6111C161.643 23.6787 158.461 21.6993 155 21.2415C151.99 20.8434 149.068 22.213 146.09 21.7523C143.237 21.3111 140.766 19.2916 137.985 18.4931C129.433 16.0376 120.584 14.6548 112 12.3951C107.061 11.0948 100.426 7.34438 95.2739 9.74306z"/>
	<path style="fill:#000000; stroke:none;" d="M100 20C99.083 24.5472 95.6619 26.9258 94.1628 31.0895C92.2915 36.2869 91.2748 41.8294 89.0965 47C84.5081 57.8911 77.9655 67.6689 72.3449 78C66.7068 88.3633 63.003 99.7039 57.2955 110C53.2821 117.24 46.9494 123.864 43.4985 131.285C41.3129 135.986 41.1296 141.267 38.6906 145.999C34.7715 153.603 28.0673 158.747 25 167C43.0734 175.552 61.7843 177.864 81 182.525C84.0993 183.277 86.89 184.916 90 185.614C100.773 188.033 111.476 188.801 122 192.547C130.978 195.742 140.523 199.971 150 201.154C153.307 201.567 157.553 202.866 160.624 200.972C164.929 198.318 167.912 191.322 170.22 187.001C173.237 181.352 176.601 175.919 179.096 170C181.434 164.454 182.305 158.591 184.312 153C186.148 147.886 188.861 144.386 191.59 139.83C193.635 136.417 194.644 132.478 196.677 129.039C198.509 125.94 201.175 123.378 202.579 120.025C203.823 117.054 203.128 114.028 203.878 110.985C204.849 107.049 206.562 102.845 207.915 99C209.622 94.1482 213.52 90.6652 215.532 86C216.91 82.8072 216.728 79.2677 217.84 76C220.561 67.9981 224.601 59.8067 228 52C220.903 48.6999 211.759 48.5874 206 43C192.954 44.9685 178.999 37.4929 167 33.9637C164.425 33.2065 161.635 33.569 159 33.0733C154.385 32.205 150.488 29.6159 146 28.5718C140.574 27.3094 134.609 27.8323 129 26.6397C119.482 24.6157 109.675 20.4165 100 20z"/>
	<path style="fill:#ffffff; stroke:none;" d="M110 46C105.33 36.4098 95.4626 47.2341 93.7423 54.0347C91.9896 60.9632 98.2953 59.6538 102 57C101.824 57.966 101.522 59.1486 101.438 60.1559C101.199 63.0201 102.769 67.506 106.237 64.3773C109.171 61.7305 109.784 57.6441 113 55C111.853 58.1031 108.02 63.4964 108.956 66.7716C110.972 73.824 118.73 64.6993 120 62C120.871 65.4468 119.934 68.5238 120.344 72C121.027 77.7833 125.199 80.9836 129.61 75.9367C134.422 70.4301 134.248 62.7958 139 57C138.993 59.6965 138.915 62.322 138.576 65C138.21 67.8981 138.82 78.1569 144.24 73.3773C149.121 69.073 150.909 61.6074 156 57C156.121 62.8604 156.491 69.1956 157.29 74.9992C157.572 77.044 157.912 79.6961 159.589 81.1235C162.099 83.2602 165.208 81.7794 167.096 79.652C170.845 75.4272 174.071 69.268 176 64C178.177 71.1807 177.481 79.5141 178.086 87C178.286 89.482 178.29 94.3413 180.599 95.9282C186.596 100.05 188.614 86.8186 190.843 84.2917C192.982 81.8656 195.343 83.6722 197.995 83.1173C202.571 82.1599 203.429 77.8935 203 74C198.611 74.4412 189.958 72.7108 187.024 76.4336C184.728 79.346 185.375 84.4737 185 88C183.483 82.8792 182.578 76.3611 182.746 71C182.87 67.0527 184.208 60.9898 182.397 57.3179C178.763 49.9534 169.716 60.8556 167.8 64.0039C166.016 66.9355 164.357 69.8507 163 73C160.398 66.039 161.929 58.3546 161 51C158.652 50.4699 155.617 49.1756 153.214 49.9267C149.357 51.1319 147.301 59.5324 146 63C144.865 59.1615 146.218 52.5667 143.258 49.6073C141.062 47.4125 137.601 48.4313 135.688 50.4336C131.694 54.6126 129.17 61.7002 127 67C126.061 61.453 128.952 54.422 127.227 49.152C125.532 43.975 121.102 48.1218 120 51C119.396 47.4325 121.049 42.615 119.397 39.3225C116.218 32.989 110.968 43.5629 110 46z"/>
	<path style="fill:#000000; stroke:none;" d="M118.333 51.6667C118.278 51.7222 118.222 52.7778 118.667 52.3333C118.722 52.2778 118.778 51.2222 118.333 51.6667M121.333 60.6667C121.278 60.7222 121.222 61.7778 121.667 61.3333C121.722 61.2777 121.778 60.2223 121.333 60.6667M144 63C143.014 64.4785 143 64.2032 143 66C144.082 64.6156 144.191 64.6617 144 63M125 67L126 68L125 67M222 88C219.272 99.4196 214.328 108.583 209.613 119.17C207.524 123.859 207.418 129.228 205.42 134C203.448 138.707 200.137 142.471 197.904 147C192.305 158.359 188.342 170.488 183.131 182C181.965 184.577 181.804 187.452 180.548 190C177.978 195.214 173.746 199.745 170.546 204.576C168.053 208.337 168.205 211.545 164 214C165.201 217.92 165.398 221.716 168 225C172.142 217.1 174.467 208.133 178.32 200C183.47 189.13 189.872 178.888 195.015 168C196.821 164.178 197.442 159.925 199.015 156C202.529 147.229 206.7 138.534 210.745 130C214.023 123.082 217.657 116.069 220.587 109C222.675 103.962 221.776 100.031 227 97C226.261 93.8823 225.151 90.9873 224 88L222 88z"/>
	<path style="fill:#ffffff; stroke:none;" d="M79.6227 93.0671C77.2902 94.7755 79.461 97.4907 81.1489 98.5826C84.9519 101.043 90.3936 101.532 94.7145 102.696C101.943 104.643 108.45 107.548 116 108.725C127.78 110.562 142.204 110.221 153.015 115.519C159.132 118.516 165.805 120.373 171.576 123.999C173.665 125.312 176.9 127.591 179.381 125.779C181.889 123.946 179.696 120.677 177.786 119.477C172.659 116.254 165.631 113.22 159.985 110.951C150.9 107.298 141.748 104.719 132 103.684C126.683 103.119 121.336 103.655 116 102.626C110.173 101.501 105.515 98.356 99.9853 96.6296C95.3388 95.1791 90.6587 94.7212 86 93.4815C84.1074 92.9778 81.4574 91.7234 79.6227 93.0671M78.1674 102.302C75.0679 103.489 76.2934 106.843 78.1674 108.487C81.0406 111.007 86.3772 112.307 90 113.381C101.609 116.822 113.2 120.98 125 123.764C133.079 125.67 142.36 125.492 150 128.883C155.976 131.537 162.114 132.212 168 134.857C170.346 135.912 173.921 137.919 176.377 135.972C179.091 133.821 175.862 131.094 173.941 130.058C169.161 127.479 163.223 126.248 158 124.865C145.19 121.472 131.716 119.622 119 115.791C111.909 113.654 105.276 110.305 98 108.254C93.6869 107.038 89.1803 105.632 85 104.026C82.9561 103.241 80.455 101.427 78.1674 102.302z"/>
	<path style="fill:#000000; stroke:none;" d="M176 232C176.533 224.801 182.421 219.578 184.671 212.91C186.558 207.319 187.691 201.443 190.133 196.015C194.586 186.117 201.24 176.848 205.732 166.91C209.116 159.424 210.966 151.305 214.76 144.039C221.615 130.911 229.074 117.87 232 103C221.762 105.943 222.897 118.982 219.019 127.004C207.047 151.763 196.632 177.189 184.889 202C181.989 208.126 179.647 214.786 176.476 220.715C174.376 224.64 171.22 228.984 176 232z"/>
	<path style="fill:#ffffff; stroke:none;" d="M76 170C78.6615 176.409 84.1687 175.668 90 177.599C99.9286 180.887 107.246 185.94 118 186C116.736 179.922 110.908 177.27 105 178C100.422 170.767 83.8557 167.7 76 170z"/>
	<path style="fill:#000000; stroke:none;" d="M25 178C28.7261 182.464 33.6218 183.873 39 185.667C48.4932 188.832 57.1663 190.64 67 192.285C83.5212 195.051 98.8987 201.646 115 205.752C118.289 206.591 121.697 206.46 125 207.309C134.761 209.817 142.718 212.999 153 213C148.41 207.071 144.538 207.985 138 206.482C132.391 205.193 126.537 203.712 121 202.128C99.831 196.071 78.4191 193.147 57 188.112C52.4031 187.031 48.4789 184.609 44 183.304C40.7399 182.354 37.1977 182.499 34 181.42C30.7801 180.333 28.4292 178.517 25 178M29 188L31 193C45.6775 190.58 58.715 200.859 72 204.791C81.9764 207.744 92.8938 207.706 103 209.913C121.835 214.026 139.79 221.413 159 224C156.205 217.852 152.967 218.646 147 217.675C140.469 216.613 133.368 215.46 127 213.705C117.21 211.008 107.794 207.104 98 204.425C87.9054 201.664 77.2268 200.54 67 198.116C54.2345 195.09 41.7422 190.948 29 188M36 199C37.4611 203.568 41.7251 205.491 46 207.232C53.7556 210.391 60.9571 211.279 69 213.336C80.6432 216.312 92.3733 218.66 104 221.924C124.587 227.703 145.546 234.307 167 236C163.414 232.406 158.765 231.138 154 229.648C145.217 226.902 135.99 224.688 127 222.718C116.164 220.344 105.73 216.307 95 213.609C91.7151 212.783 88.3103 213.183 85 212.522C75.9568 210.716 67.0256 207.511 58 205.486C50.4243 203.787 43.8298 199.64 36 199z"/>
</svg>