<?xml version="1.0" standalone="yes"?>
<svg xmlns="http://www.w3.org/2000/svg" width="256" height="256">
	<path style="fill:#ffffff; stroke:none;" d="M119 49C95.3619 48.9974 71.7288 47.4368 48.0394 48.0501C42.9432 48.1821 35.9276 47.5145 31.2284 49.7415C28.3918 51.0858 27.4545 54.921 29.7461 57.2577C33.4385 61.0228 45.0016 57.9244 50.0147 57.9892C65.7137 58.192 81.3045 57.5009 97 57.9198C101.47 58.039 108.784 56.0567 112.848 57.6427C115.592 58.7138 115.612 61.5124 115.158 64.0008C114.069 69.9703 110.529 74.7322 110.09 81C109.81 84.9924 110.568 89.0373 110.197 93C109.909 96.0768 108.555 98.9293 108.184 102C107.408 108.432 108.552 116.76 110.14 123C111.11 126.814 111.059 131.481 114.394 134.157C119.461 138.222 129.077 136.202 135 135.424C139.625 134.817 143.72 135.059 148 133C147.327 136.621 147.236 140.467 146.211 144C144.141 151.133 141.001 155.239 141 163C119.145 163 97.2639 165.2 78 152.41C73.8442 149.65 63.6752 141.183 58.6227 146.603C56.4556 148.928 58.315 151.921 60.1489 153.74C64.2965 157.853 70.8186 161.363 76 164.019C81.3533 166.763 86.362 167.025 92 168.417C97.234 169.71 101.413 172.411 107 172.816C110.707 173.084 114.299 171.865 118 172.119C126.773 172.72 133.087 174.196 142 172C142.561 176.164 143.795 179.997 145.031 183.999C145.521 185.588 146.47 187.861 145.187 189.343C143.497 191.294 140.016 189.624 138 189.219C132.548 188.125 126.555 187.439 121.004 188.14C103.464 190.355 84.9698 189.428 67 191.17C59.1582 191.93 51.798 195.224 44 196C46.8959 183.836 43.2703 170.033 41.2585 158C40.3731 152.704 41.6227 147.257 40.74 142C39.7067 135.846 36.8007 130.338 36.169 124C35.4981 117.269 37.2347 110.742 36.9815 104C36.7657 98.2534 35.3027 94.7933 36.5301 89C37.7535 83.2257 36.8871 72.875 35.7716 67.0193C35.3544 64.829 33.9243 61.9782 31.1844 62.7516C27.8986 63.679 28.0696 68.3466 27.7184 71C27.12 75.5199 25.9191 80.4374 26.1435 85C26.3102 88.3882 27.8567 91.5061 27.9977 94.9105C28.2058 99.9343 26.6794 104.865 27.0548 110C27.3157 113.569 29.2616 116.517 29.7623 120C31.028 128.803 30.1324 138.124 31.1289 147C31.5483 150.736 33.0291 154.214 33.3302 158C33.8645 164.716 32.9282 171.225 33.8696 178C34.3281 181.3 35.0389 184.656 34.8958 188C34.682 192.998 32.3739 200.296 35.858 204.682C37.8132 207.143 41.141 207.049 44 206.984C50.7867 206.829 57.3679 203.107 64 201.594C77.9876 198.403 92.7824 199.605 107 198.961C117.883 198.467 129.064 196.754 140 197.022C156.628 197.431 157.213 218.592 168.289 227.347C171.333 229.753 180.867 232.001 179.627 225.11C179.157 222.498 176.614 221.134 174.985 219.296C173.066 217.13 172.048 214.42 170.37 212.089C166.929 207.306 164.66 203.737 163 198C170.718 197.841 178.26 198 186 198C191.074 198 195.963 197.88 201 197.285C204.317 196.894 207.666 197 211 197C213.893 197 218.145 197.698 220.677 195.972C225.112 192.95 220.393 189.36 216.995 189.059C204.623 187.961 191.428 187.5 179 188.039C173.198 188.291 164.728 189.862 159.228 187.397C155.54 185.744 154.21 178.59 153.407 175.005C152.046 168.931 157.809 169.099 162 167.123C172.474 162.186 181.759 156.586 191.17 149.864C194.478 147.501 203.609 142.854 198.396 137.603C195.071 134.255 189.964 137.226 187.17 139.634C176.332 148.977 165.568 156.524 151 159C151.165 155.167 151.352 150.655 152.723 147.039C154.339 142.778 157.293 139.609 158.402 135C159.052 132.299 159.966 127.044 157.397 125.029C155.395 123.458 152.296 124.317 150 124.407C143.995 124.64 137.986 124.638 132 125.424C128.6 125.871 123.347 127.083 121.024 123.682C117.545 118.589 118.746 109.725 118.96 104C119.089 100.54 117.83 96.7966 118.394 93.4244C120.242 82.3556 124.514 71.2935 125 60C136.083 59.1254 146.941 60.1593 158 59.946C172.34 59.6694 186.61 58.5479 201 58.571C206.694 58.5801 212.275 59.9842 218 60C218 67.0729 219.236 73.9403 218.595 81C218.012 87.4224 215.958 93.4415 216.005 100C216.057 107.397 218.073 114.577 217.996 122C217.937 127.708 216.81 133.259 217.019 139C217.131 142.089 218.316 144.948 218.455 148C218.631 151.849 217.903 155.151 218.861 159C220.596 165.969 219.107 173.023 220.468 179.999C220.999 182.717 221.966 186.027 225.093 186.623C229.321 187.429 230.779 183.391 230.952 179.999C231.355 172.111 228.052 164.801 227.999 157C227.892 141.337 225.495 125.652 225.263 110C225.17 103.698 227.175 97.4919 226.985 91C226.885 87.5984 225.653 84.378 225.633 81C225.596 74.3728 227.636 67.6602 228.09 61C228.255 58.5714 229.295 55.5894 228.357 53.2284C225.654 46.4239 210.357 51.1892 205 50.6605C195.124 49.6857 184.963 48.0076 174.985 48.3858C163.489 48.8215 152.49 50.4126 141 50.1289C138.081 50.0568 134.939 51.3034 132.062 50.6427C123.355 48.643 134.37 37.6966 135.417 34.0008C136.377 30.6095 134.634 27.4713 130.985 27.2068C121.951 26.552 119.967 42.5458 119 49z"/>
	<path style="fill:#000000; stroke:none;" d="M43 196L44 197L43 196z"/>
</svg>