<?xml version="1.0" standalone="yes"?>
<svg xmlns="http://www.w3.org/2000/svg" width="256" height="256">
	<path style="fill:#ffffff; stroke:none;" d="M89 72C100.386 66.5208 113.315 71.6277 125 71.9846C135.142 72.2943 144.741 70.8634 154.715 70.3202C170.689 69.4503 187.024 70.7389 203 70.0394C211.342 69.6741 219.639 71.0005 228 71C231.101 70.9998 235.971 71.8225 238.397 69.3966C241.229 66.5644 240.138 59.5884 239.715 56C239.092 50.7254 238.577 45.3138 238.455 40C238.289 32.7225 240.664 25.5145 231.961 22.26C220.757 18.0703 209.142 23.5986 198 22.8156C186.987 22.0416 176.027 22.5715 165 21.9568C161.564 21.7652 158.407 20.421 155 20.1042C148.795 19.5272 142.229 19.8621 136 20.0147C126.791 20.2403 117.118 23.1809 108 22.7816C103.596 22.5888 99.4611 20.4039 95 20.0895C88.5237 19.6331 83.2046 21.4717 77 21.9915C71.5862 22.4451 66.5797 20.3302 61 21.5941C58.4093 22.181 52.7313 22.3975 51.0316 24.6034C48.5494 27.8249 51.7901 33.3984 51.7369 37C51.6531 42.6659 49.7139 48.3854 49.7886 54C49.8516 58.7311 51.6162 63.1807 50.9537 68C50.0955 74.2429 46.4741 79.9659 44.7847 86C41.6319 97.2615 38.8627 108.799 35.7106 119.985C34.8705 122.967 32.5 125.145 31.554 128.09C28.9824 136.093 29.6495 145.312 26.652 153C23.1531 161.973 21.2749 170.757 18.8573 180C17.9412 183.502 15.9103 189.332 18.0316 192.697C20.0335 195.872 25.6882 196.34 29 197.291C39.0219 200.168 49.0621 201.929 59 204.912C65.7384 206.935 72.0382 210.091 79 211.485C84.718 212.63 90.2307 211.722 96 213.393C100.384 214.662 103.691 217.847 108 219.196C115.32 221.488 123.498 221.664 131 223.259C141.366 225.463 151.539 228.871 162 231.004C170.946 232.828 179.956 233.889 189 234.961C192.429 235.368 196.41 237.765 199.852 236.381C203.389 234.959 202.723 231.066 202.709 228C202.682 221.822 205.121 215.822 206.985 210C209.835 201.094 214.579 192.813 217.43 184C221.85 170.332 224.557 156.429 229.986 143C232.593 136.553 238.992 122.737 233.991 116.419C232.053 113.972 228.8 113.545 226.17 112.174C221.028 109.495 216.462 109.213 211 107.544C207.241 106.395 203.927 104.515 200 103.823C197.007 103.295 193.951 103.901 191 103.298C186.983 102.477 183.915 99.4772 180 98.4252C154.933 91.6895 130.355 82.6145 105 76.7014C99.1934 75.3472 95.2731 72.1336 89 72z"/>
	<path style="fill:#000000; stroke:none;" d="M63 31C67.8033 39.2424 74.7724 45.0009 81.3812 51.615C84.6692 54.9056 87.6085 59.73 92.1705 61.4151C100.475 64.4827 113.582 62.6585 122 61C116.758 57.3192 110.879 54.27 106.3 49.6998C99.2996 42.7124 92.2435 31.5241 82 29.1088C76.0312 27.7014 69.2175 30.9952 63 31M162 28C166.164 36.0051 173.928 39.3654 180.957 44.3588C188.522 49.7335 195.75 56.5757 205 59.3511C208.576 60.424 212.342 59.6398 216 59.9738C220.644 60.3978 224.421 61.3505 229 60C225.961 55.5014 221.861 52.7316 218.223 48.8264C216.075 46.5199 214.907 43.5304 212.73 41.2593C209.255 37.6335 205.268 35.6826 203 31C198.344 31.0128 193.617 32.1496 189 31.8156C179.972 31.1625 171.108 28.7188 162 28M98 31C101.291 40.682 112.377 48.0337 120.17 54.1273C123.552 56.7722 127.764 58.289 130 62C139.043 61.9251 147.21 59.7964 156 63C153.097 57.0438 146.704 53.826 141.83 49.537C137.809 45.9985 133.059 43.3356 129.17 39.696C126.11 36.8331 123.814 32.5988 119.83 30.8927C112.465 27.7386 105.354 30.1038 98 31M130 30C133.051 34.6137 136.664 40.0938 141.09 43.49C144.641 46.2159 149.27 47.3484 153 49.9043C157.228 52.8012 160.56 57.2971 165.09 59.6975C171.643 63.1704 185.22 63.5816 192 61C188.682 55.1134 183.393 53.731 178.015 50.2863C172.86 46.9848 168.564 42.0768 164 38.0147C161.047 35.3869 157.862 33.5056 156 30L130 30M211 31C213.519 37.3456 216.834 39.2888 221.91 43.4105C225.096 45.9964 227.033 48.623 231 50C232.165 43.7262 231.495 38.2746 231 32C224.278 31.4695 217.766 31 211 31M58 38C59.1895 44.3845 59.8357 50.7499 60.6605 57.1705C60.974 59.6111 60.8945 63.1102 63.4336 64.3966C68.4595 66.9429 77.4436 63.0043 83 63C75.822 53.9834 68.5317 43.2391 58 38M60 75C58.0074 79.7937 56.1241 83.7233 56 89C64.2923 86.0336 75.206 79.985 84 82C81.285 88.5596 77.2045 87.703 71.2855 89.4946C67.1276 90.7532 63.2435 92.7953 59 94C64.7877 97.7944 74.1773 99.0545 81 100.25C83.7964 100.74 86.9841 101.861 89.8302 101.285C101.3 98.9617 112.029 93.4889 124 93C119.498 88.7776 112.67 89.2784 107 87.466C91.3956 82.4783 76.3949 77.2077 60 75M131 94C128.281 99.0525 123.211 99.209 118 100.17C111.533 101.362 105.32 103.276 99 105C108.547 110.197 119.786 110.92 130 113.613C134.163 114.71 137.777 117.429 142 118.302C146.253 119.181 150.698 118.51 155 119.525C160.231 120.758 165.976 121.93 171 123.815C174.453 125.11 178.218 127.548 182 127.458C185.118 127.385 187.966 125.593 191 125.019C200.595 123.204 210.316 122.219 220 121L220 119C213.042 118.799 204.381 116.26 198 113.448C193.935 111.656 189.708 108.195 185 108.508C181.369 108.749 177.674 110.9 174 111.535C168.033 112.567 161.875 112.429 156 114.114C152.507 115.116 145.883 118.071 142.377 115.887C139.724 114.236 142.069 112.017 144.063 111.475C151.108 109.558 159.769 105.741 167 106C162.286 101.153 157.151 100.911 151 99.216C144.401 97.3979 137.882 94.3532 131 94M52 98C45.2912 113.064 42.7274 130.047 38.9606 146C35.767 159.526 30.5773 172.297 28 186C33.545 186.819 39.8547 188.502 44.9853 190.799C47.4702 191.911 49.5147 193.988 52.1698 194.688C60.9766 197.008 70.1889 197.169 79 200.029C86.0591 202.321 91.5243 206.597 99 208.097C102.39 208.777 105.627 207.955 109 208.364C115.124 209.106 121.013 211.929 127 213.346C132.318 214.604 137.745 214.272 143 215.39C159.155 218.825 175.292 225.237 192 226C194.713 208.531 202.872 191.379 209.232 175C213.131 164.96 217.11 156.956 218 146C213.623 145.342 210.149 143.258 206 141.914C197.738 139.24 189.285 137.604 181 135.212C175.859 133.728 171.152 130.976 166 129.414C151.517 125.024 136.483 120.703 121.83 117.259C117.951 116.348 113.865 116.429 110 115.394C104.53 113.93 99.4611 111.133 94 109.593C84.7892 106.996 75.1917 105.821 66.0147 103.111C61.1685 101.68 57.0215 99.2418 52 98M225 124C215.831 130.784 202.669 128.24 192 131C194.873 132.358 197.972 132.377 201 133.316C207.755 135.409 214.709 138.785 221 142C221.313 135.887 225.493 129.915 225 124z"/>
</svg>