<?xml version="1.0" standalone="yes"?>
<svg xmlns="http://www.w3.org/2000/svg" width="256" height="256">
	<path style="fill:#ffffff; stroke:none;" d="M80 162C70.843 159.82 55.6235 159.042 47 163.239C34.3565 169.393 23.0181 186.277 32.5625 199.714C37.1973 206.239 41.9541 206.647 49 208.494C52.4687 209.403 55.2823 211.058 58.9961 210.941C62.6463 210.825 64.8586 208.793 68.0895 207.515C75.45 204.605 82.3113 201.412 86.1806 194C88.4507 189.651 91.3025 184.973 91.8002 180C92.2142 175.861 90.37 171.943 91.2924 167.83C92.7935 161.137 96.955 154.65 97.8565 148C98.3973 144.01 97.3954 139.999 97.6659 136C98.6746 121.088 100.338 106.682 102.741 92C103.554 87.0328 103.071 82.0054 104 77C115.718 79.1754 126.396 76.0787 138 76.0787C148.971 76.0787 159.946 77.4447 171 76.9606C177.26 76.6865 183.736 74.9533 190 75.2739C198.695 75.719 207.135 77 216 77C215.352 80.7461 213.791 84.2715 213.22 88C212.523 92.5495 213.257 97.2538 213.026 101.83C212.455 113.15 211.691 124.659 210.91 136C210.461 142.534 207.823 148.684 207.302 155C206.854 160.447 208 166.458 208 172C200.109 168.86 192.813 166.944 184.424 165.982C179.476 165.415 175.724 164.32 174 170C169.067 170.212 163.698 170.669 159 172.232C143.183 177.494 138.384 193.704 151.209 205.184C160.808 213.776 179.829 216.988 192 213.316C199.295 211.114 203.642 207.271 209.169 202.378C211.617 200.21 214.791 198.84 216.347 195.815C218.12 192.369 217.394 188.807 217.918 185.17C218.278 182.672 219.696 180.553 219.853 177.985C220.223 171.912 218.69 165.587 218.863 159.424C219.009 154.258 220.557 149.162 220.91 144C221.753 131.703 220.962 119.284 222.104 107C222.483 102.922 223.799 99.1353 224.035 95C224.63 84.6154 225.726 74.1849 227.625 64C228.514 59.2297 228.501 54.4818 224 52C224.576 49.976 225.464 47.5173 223.969 45.6019C222.438 43.6398 219.19 44.0284 217 43.7006C210.819 42.7755 205.315 41.806 199 42.1304C190.676 42.5581 182.324 43.9147 174 44.0764C164.589 44.2591 155.355 42.4513 146 42.4699C141.927 42.478 138.136 44.1555 134 44.1119C125.983 44.0273 117.9 45.0992 110 45.0316C105.954 44.997 102.128 43.6804 98.189 45.564C91.995 48.5263 93.3214 59.4005 92.3395 65C91.8566 67.7539 90.4179 70.2095 89.9776 73C88.2243 84.1114 88.1124 95.8945 87.6211 107C87.4279 111.368 85.4907 115.587 85.1852 120C84.9902 122.816 86.1967 125.673 85.7755 128.424C85.3731 131.053 83.7023 133.372 83.1489 136C81.3859 144.371 80.0009 153.433 80 162z"/>
	<path style="fill:#000000; stroke:none;" d="M219 52C210.046 56.1242 197.622 52.3292 188 53.4645C180.382 54.3634 172.716 57.0258 165 56.9915C154.079 56.9431 143.082 54.1887 132 54.7994C122.596 55.3176 113.502 57 104 57C104.024 58.988 103.689 61.7232 105.028 63.3981C106.594 65.3578 109.791 64.9464 112 65.3742C118.516 66.6363 124.449 65.9854 131 66.7137C135.652 67.2309 139.474 65.5175 144 65.1042C148.517 64.6917 152.634 66.6234 157 66.4159C162.638 66.148 168.276 64.2632 174 64.0401C179.45 63.8278 184.622 65.3015 190 65.8302C195.171 66.3386 199.927 65.4272 205 65.3897C209.002 65.3601 212.928 66.9133 217 67C217.003 61.7412 218.736 57.0186 219 52M66 167C60.853 170.01 55.0322 171.041 50.0008 174.345C45.8006 177.103 40.4804 180.757 39.3187 186.001C36.8512 197.139 53.7465 202.033 61.9606 201.11C70.4732 200.154 74.6249 190.604 77.3974 184C78.8401 180.563 81.3832 176.198 78.9722 172.533C76.4526 168.704 69.9295 168.668 66 167M206 196C203.37 191.94 203.297 189.304 207 186L207 184C202.192 181.293 195.359 177.427 190 176.306C182.658 174.772 173.886 177.993 167.001 180.1C162.497 181.477 157.793 181.852 154.929 186.21C152.217 190.336 154.779 194.517 158.189 197.16C164.5 202.05 173.009 204.762 181 204.867C190.873 204.997 197.01 197.001 206 196z"/>
</svg>