<?xml version="1.0" standalone="yes"?>
<svg xmlns="http://www.w3.org/2000/svg" width="256" height="256">
	<path style="fill:#ffffff; stroke:none;" d="M101 86C91.0358 78.8463 85.8183 64.9418 73 62C72.267 57.4934 69.5541 56.3287 66.2847 53.4753C61.5922 49.38 57.0264 45.4685 52.0394 41.7068C49.495 39.7876 47.1383 37.1201 43.9606 36.3133C38.2057 34.852 33.5294 37.1572 28 37.8079C24.6076 38.2071 15.3098 34.2886 13.6937 38.3218C12.4153 41.5119 14.8604 47.138 16.2384 50C20.9314 59.7469 27.2747 68.7899 32.9259 78C37.8988 86.1045 46.4872 92.2399 48.0185 102.285C48.7883 107.335 47.0739 112.003 47.0193 117C46.8265 134.636 45.6765 152.293 47.0656 170C47.4869 175.371 46.0738 181.883 47.6535 187C49.0445 191.506 53.0421 195.578 56.2816 198.87C60.0953 202.746 65.079 205.191 68.9614 209.043C75.1149 215.148 80.5838 224.214 89 227.527C96.3734 230.43 105.724 227.36 113.169 226.971C124.78 226.363 136.429 226.699 148 225.91C158.325 225.206 168.662 223.493 179 223.039C191.193 222.505 203.053 220.152 215 218.194C219.542 217.45 225.387 217.493 227.972 212.891C229.87 209.514 228.852 204.714 229.089 201C229.671 191.854 229.947 183.19 229.735 174.116C229.655 170.678 230.86 167.405 230.803 164C230.678 156.486 229.041 148.819 228.885 141.17C228.694 131.761 229.849 122.517 228.826 113C227.56 101.213 223.34 88.9205 223.314 77C223.306 73.4444 225.444 70.3329 226.402 67C227.794 62.1554 227.702 57.3694 230.519 53C233.57 48.2655 240.684 39.5139 238.168 33.304C236.637 29.5242 231.093 30.9272 228 30.9498C218.827 31.0171 205.605 25.0188 197.005 29.1937C193.349 30.9681 191.507 34.5436 189.461 37.8302C183.953 46.6787 179.853 57.1814 175.209 66.5756C173.723 69.5819 173.588 73.1821 170.772 75.4005C168.395 77.272 164.807 77.578 162 78.5347C154.386 81.1301 146.828 84.506 138.989 81.2963C132.614 78.6861 130.028 73.2345 122.576 73.1474C114.94 73.0581 102.424 77.5712 101 86z"/>
	<path style="fill:#000000; stroke:none;" d="M181 80C184.89 80.3181 189.595 80.8512 192.59 83.652C195.047 85.9488 195.508 90.0655 191.876 91.4961C186.088 93.7753 177.994 88.1793 172 88.054C162.29 87.8511 153.904 94.0287 144 93.2454C140.354 92.957 137.135 92.7443 134.005 90.6559C129.301 87.5179 126.463 82.0961 120 83.314C114.333 84.382 109.405 89.7588 105.9 93.9961C103.475 96.9266 100.449 100.82 96.054 99.3526C92.4828 98.1601 91.4182 94.0764 89.6767 91.1698C86.8631 86.4737 82.9906 82.0847 79.2708 78.0934C73.4526 71.8504 66.4986 66.6459 61.0039 60.2662C57.0682 55.6967 52.636 47.7777 46.8711 45.483C42.5386 43.7585 38.4541 44.788 34 44.9599C29.9465 45.1162 26.0183 44.3171 22 44C24.6151 49.6917 29.5096 53.9658 33.142 59.0394C38.1663 66.057 41.8412 73.9279 46.7577 80.9961C49.5335 84.9867 55.7541 89.6685 56.8218 94.4637C57.3609 96.8854 56.4026 99.5861 56.1698 102C55.6669 107.212 55.5587 112.766 55.456 118C55.1519 133.509 54.9527 148.462 56.0077 164C56.4958 171.187 53.9141 177.148 57.6844 183.91C64.1535 195.514 74.5565 200.135 84.9414 207.209C91.0653 211.381 91.1626 218.013 100 218.895C109.348 219.829 116.907 217.287 126 216.184C133.944 215.221 142.033 215.635 150 215.09C162.682 214.221 175.325 213.229 188 212.174C194.549 211.628 198.624 212.338 205 210.049C209.855 208.306 217.383 210.455 220.237 204.853C223.127 199.178 221.498 189.148 221.09 183C220.843 179.294 221.669 175.677 221.541 172C221.252 163.687 219.615 155.313 219.094 147C218.343 135.002 219.126 123.027 217.834 111C216.652 99.9951 213.118 89.1042 214.309 78C214.65 74.8245 216.494 72.0623 217.292 69C219.877 59.088 223.361 50.4939 227 41C221.883 40.7803 215.999 40.655 211 39.6103C208.481 39.0838 205.719 37.2285 203.105 38.2407C199.462 39.6512 197.844 44.9563 195.91 48C189.74 57.7136 184.401 68.9628 181 80z"/>
	<path style="fill:#ffffff; stroke:none;" d="M203 96.429C183.271 99.124 162.846 97.0296 143 97.3627C136.962 97.464 131.097 98.9977 125 99C118.891 99.0023 112.027 98.0079 106.005 98.7423C103.812 99.0097 101.207 100.404 101.207 102.957C101.207 105.089 103.189 105.969 105.02 105.972C111.895 105.982 119.007 105 126 105C140.889 104.999 155.04 104.174 170 103.996C175.427 103.932 180.558 102.712 186 103.424C192.331 104.253 197.779 103.673 203.999 102.459C205.847 102.098 208.707 102.149 209.914 100.417C212.892 96.1404 205.028 96.1519 203 96.429M143 107C142.876 113.19 144.309 118.001 144.895 124C145.376 128.92 144.328 134.069 145.148 138.945C145.637 141.852 147.867 143.887 150.961 143.069C157.836 141.25 157.627 128.665 165.428 128.275C171.02 127.995 176.077 134.083 180.576 136.606C182.635 137.761 186.1 138.739 187.802 136.397C189.864 133.559 186.898 129.722 186.013 127C184.03 120.899 184.004 113.373 184 107L178 107C178 113.854 178.731 120.266 180 127C174.686 123.979 165.249 118.789 159.174 122.179C155.804 124.059 153.48 128.135 151 131C150.972 122.905 149.411 115.043 149 107L143 107M92 210L94 210C98.6031 199.091 96.8427 184.114 96.8488 172.424C96.8513 167.606 98.9259 163.612 99.277 159C99.9698 149.901 99.2644 140.796 101.04 131.83C102.072 126.618 101.425 119.339 100.941 114.019C100.779 112.233 100.331 109.636 98 109.636C95.6687 109.636 95.2211 112.233 95.0586 114.019C94.5079 120.072 93.8966 126.811 93.7986 132.83C93.5048 150.883 91.1925 168.732 91.1497 186.996C91.1309 195.031 88.7283 202.247 92 210z"/>
</svg>