<?xml version="1.0" standalone="yes"?>
<svg xmlns="http://www.w3.org/2000/svg" width="256" height="256">
	<path style="fill:#ffffff; stroke:none;" d="M41 33.439C37.4153 33.9954 33.2552 34.5962 30.0154 36.3032C18.1046 42.5791 20.2653 58.0606 18.561 69C17.1105 78.3097 14.6729 87.5941 14.0926 96.9992C13.5397 105.96 14.2662 115.138 13.6103 124C12.4803 139.269 8.52599 153.513 9.67515 169C10.3063 177.505 7.99613 186.409 8 195C8.00172 198.821 7.64702 202.723 10.3179 205.812C20.968 218.127 39.8485 209.318 53 213.519C66.7468 217.911 81.6686 218.512 96 218.863C99.3599 218.946 102.633 219.97 106 219.791C109.77 219.591 113.292 217.945 117 217.664C122.205 217.27 127.577 219.282 133 218.91C143.316 218.204 153.635 216.585 164 217.039C169.469 217.279 174.637 218.841 180 219.539C187.526 220.52 195.159 220.326 202.715 221.031C212.342 221.928 221.265 223.573 231 221.621C247.309 218.351 244.469 197.409 247.509 185C249.721 175.974 247.138 167.807 247.033 159C246.954 152.314 248.375 145.76 247.947 139C247.167 126.696 247.328 114.375 246.875 102C246.702 97.2797 245.763 92.7711 246.09 88C246.853 76.8351 250.574 59.4191 242.316 50.3048C233.408 40.4722 221.797 42.2755 210 42.5448C203.163 42.7008 195.846 42.6094 189 42.2014C150.317 39.8957 111.901 34 73 34C62.4319 34 51.5215 31.806 41 33.439z"/>
	<path style="fill:#000000; stroke:none;" d="M28 76C34.8896 79.3155 44.4007 78.4744 52 79.0856C60.9331 79.8042 70.1172 80.2226 79 81.1736C82.3692 81.5343 85.5978 82.77 89 82.8704C92.6966 82.9795 96.2809 81.8658 100 82.0941C112.492 82.8612 124.576 86.672 137 87.8264C143.271 88.409 149.755 87.4689 156 88.1451C159.082 88.4788 161.847 89.8789 165 89.9174C171.658 89.9988 178.261 88.7417 185 89.0394C189.061 89.2188 192.955 90.5683 197 90.7438C210.609 91.3345 224.354 91 238 91C237.966 86.949 237.216 83.0301 237.039 79C236.721 71.738 239.393 61.5774 232.772 56.3981C227.517 52.2874 222.287 52.341 216 51.9105C205.696 51.2048 195.374 51.6972 185 51.4437C148.273 50.5463 111.885 44.0023 75 44C62.3607 43.9992 46.6504 39.3956 35.1049 46.4167C25.2136 52.4318 30.2411 66.5868 28 76z"/>
	<path style="fill:#ffffff; stroke:none;" d="M185 77C180.116 78.9893 174.265 78 169 78C169 75.6658 169.008 73.3321 168.95 70.9985L168.842 66.0046C168.777 63.8773 167.083 57.7971 164.034 61.6227C162.723 63.2673 163.179 66.0555 163.14 68C163.045 72.6906 161.534 80.2318 166.148 83.3071C169.818 85.753 176.633 83.8234 181 84.9228C183.089 85.4487 185.577 86.702 187.768 86.0486C192.914 84.5135 188.737 80.05 186 79C188.519 78.2533 193.244 78.5804 194.972 76.3966C196.777 74.1162 196.027 69.6509 195.715 67C195.406 64.3813 195.664 59.7399 193.972 57.6034C192.161 55.3161 182.829 53.2885 180.054 53.8318C173.121 55.1888 172.032 68.7305 175.179 73.7215C177.254 77.0133 181.572 76.9266 185 77M213 65C210.475 62.0578 208.923 59.6715 205 59C205.153 64.2645 206.768 67.8713 210 72C208.215 72.9344 206.624 73.739 205.204 75.2276C203.497 77.0168 200.362 84.7006 205.888 83.2484C209.06 82.415 210.801 78.6796 212 76L214 76C215.604 80.6274 218.583 83.9079 223 86C224.328 82.6848 225.032 79.5973 222.911 76.375C221.732 74.5838 219.244 73.2622 219.164 70.8997C219.028 66.8914 224.427 65.0453 224.368 61.1096C224.331 58.6732 221.876 58.3239 219.995 58.8272C216.647 59.7231 214.716 62.2229 213 65z"/>
	<path style="fill:#000000; stroke:none;" d="M181 61C178.96 69.5953 182.323 70.5686 190 72C189.42 64.6573 188.704 61.4967 181 61M26 83C24.852 87.8355 25.9611 92.1667 25.5363 97C24.4172 109.731 22.6405 122.331 21.6752 135C20.6364 148.633 16.4356 163.403 19 177C20.1942 183.332 15.0399 194.121 19.6034 199.276C22.3606 202.391 27.2244 202.061 31 202.576C36.5847 203.339 42.4547 205.189 48 205.571C51.7039 205.826 55.241 204.931 59 205.424C72.3911 207.183 85.5745 209.315 99 210.367C102.722 210.658 106.303 209.223 110 209.379C112.731 209.494 115.241 210.814 118 210.687C124.649 210.381 131.284 207.56 138 207.09C144.042 206.666 149.141 208.546 155 208.946C163.573 209.531 172.521 208.65 181 209.764C193.952 211.465 206.896 212.901 220 211.438C223.761 211.018 228.363 212.195 231.442 209.432C235.449 205.837 235.744 199.887 236.35 195C236.655 192.543 237.945 190.419 238.336 188C238.897 184.52 238.011 180.542 238 177C237.98 170.624 236.76 164.391 237.039 158C237.414 149.423 239.41 140.466 239.416 132C239.42 125.519 236.801 118.529 236.17 112C235.654 106.665 236.651 102.101 238 97C227.756 97 217.211 97.7273 207 96.9066C203.941 96.6608 201.056 95.4303 198 95.2739C191.095 94.9205 184.002 96.3002 177 95.9599C172.917 95.7614 169.091 94.0736 165 94.0826C162.307 94.0885 159.692 95.0377 157 94.8441C141.636 93.7397 126.515 89.169 111 88.375C82.7122 86.9272 54.1847 86.7019 26 83z"/>
</svg>