<?xml version="1.0" standalone="yes"?>
<svg xmlns="http://www.w3.org/2000/svg" width="256" height="256">
	<path style="fill:#ffffff; stroke:none;" d="M122 17.7145C115.457 19.6442 109.649 24.3626 103.17 26.6319C96.0338 29.1315 88.1847 29.9738 81 32.409C65.5337 37.6509 50.2925 44.742 35.5756 51.8302C29.6143 54.7015 23.1728 57.156 17.0008 59.5725C14.4008 60.5905 10.9525 61.3516 9.78164 64.2245C8.90675 66.3712 9.67161 68.7863 9.74537 71C9.94748 77.0656 11.0191 82.9687 11.2762 89C12.3605 114.434 14.5368 139.749 16.9252 165C17.2365 168.292 17.9528 171.694 17.8711 175C17.7157 181.297 15.2535 191.26 20.5887 196.397C22.8527 198.576 27.1486 198.235 30 199.327C38.7817 202.69 47.0391 207.044 56 210.045C59.4482 211.199 63.5442 210.477 66.7407 212.317C69.8588 214.112 71.7534 217.387 75.0046 219.201C86.2769 225.489 99.1009 229.627 111 234.593C119.813 238.272 128.32 241.605 137.996 238.721C141.924 237.551 143.79 234.039 147.09 231.923C155.962 226.233 164.416 220.744 173.001 214.49C177.982 210.861 183.764 208.726 189 205.536C193.148 203.01 196.653 199.133 201 197.009C203.896 195.594 207.156 195.661 209.999 193.995C213.727 191.81 216.503 188.36 220.09 185.978C228.388 180.465 242.858 176.557 246.293 166C247.682 161.731 245.608 157.101 244.449 153C242.389 145.708 240.775 138.314 238.725 131C233.488 112.311 235.441 91.8835 231.255 73C229.589 65.4831 234.202 53.3457 227.606 47.564C224.637 44.962 220.628 45.3636 217 44.8711C212.462 44.2552 207.511 43.0178 203 42.0586C199.126 41.2348 195.761 39.0817 192 37.9236C181.073 34.5587 170.117 32.1604 159.015 29.5355C150.726 27.5757 142.031 23.3679 134 20.3164C130.161 18.8577 126.215 16.4712 122 17.7145z"/>
	<path style="fill:#000000; stroke:none;" d="M107 34C112.317 38.38 119.117 37.7387 124 43C129.279 39.0031 134.334 35.1882 141 34C137.977 30.5542 131.82 26.4584 127 26.9113C120.07 27.5623 114.174 33.266 107 34M144 35L144 40C139.587 40.7866 135.852 42.7521 132 45C135.836 49.8271 148.615 56.0802 155 55.7477C159.387 55.5192 162.424 52.0702 167 52C169.211 49.4211 172.337 46.6956 175.952 46.3997C178.488 46.1921 180.429 48.3034 179.029 50.7377C177.295 53.7553 172.966 53.8405 170.091 55.0131C167.823 55.938 165.965 57.5792 164 59C170.394 64.3526 184.318 71.3416 193 69.9174C199.246 68.8927 202.093 62.319 207.015 59.1636C209.645 57.478 213.041 57.0317 214.777 60.2284C216.191 62.8324 214.801 65.363 212.771 67.0957C208.068 71.1087 201.441 74.7035 196 77.6412C180.757 85.8716 167.341 96.4652 152 104.486C147.576 106.799 139.453 112.708 134.167 109.883C130.001 107.656 133.538 103.844 136.02 102.105C143.809 96.6458 152.906 92.4677 161 87.348C164.559 85.0968 168.35 84.6546 172 82.8287C175.905 80.875 178.943 77.7841 183 76C178.209 70.7589 168.625 68.9399 162 66.5309C159.268 65.5376 156.096 64.316 153.17 65.1219C150.51 65.8543 148.241 68.0788 145.985 69.5764C141.067 72.8418 135.862 75.7141 131 79C137.489 82.4591 148.692 82.7264 150 91C144.128 91.1465 139.342 89.1355 134 86.8434C130.994 85.5534 127.402 83.0847 124 83.8596C112.919 86.3834 106.134 98.2839 94 98C95.4157 91.1328 100.56 90.5134 105.83 87.2006C110.315 84.3815 113.788 81.5014 119 80C110.426 72.5494 96.6623 64.0485 85 68.4676C77.7843 71.2018 70.0303 74.8511 63.1698 78.3418C60.9947 79.4485 58.0263 82.6549 55.3727 80.9807C52.6362 79.2543 55.1842 76.3956 57.0594 75.4059C64.2977 71.5855 71.3471 67.1862 79 64C73.2324 60.3706 66.3953 59.2946 60 57.3565C57.6968 56.6585 55.4901 55.0668 53 55.1968C47.8384 55.4663 41.4167 59.9384 37 62.385C30.2528 66.1226 24.4073 68.216 17 70C17.7622 74.4292 19.7268 78.5244 20.3449 83C21.9413 94.5581 22 106.277 22 118C30.2047 118.091 41.1519 120.408 48 125C50.6411 116.065 46.001 107.134 46 98L52 98C52.5624 105.076 53.3912 112.045 54.6898 119C55.3059 122.299 55.2758 126.017 57.564 128.722C61.919 133.87 75.5432 136.353 82 137C82.9257 129.675 81.3344 122.078 83 115L85 115C86.5173 121.355 84.9267 133.129 89.0131 138.297C91.281 141.166 96.6601 141.542 100 141.95C107.396 142.852 114.709 144.481 122 146C121.957 140.834 120.197 134.957 122.653 130.109C124.146 127.159 127.731 125.336 130.254 128.333C133.724 132.455 129.942 143.749 130.004 149C130.06 153.754 131.366 158.286 131.624 163C132.298 175.307 132.631 187.662 134.015 200C134.642 205.592 139.211 213.408 135.972 218.851C130.975 227.25 126.573 215.151 126.17 211C125.346 202.527 123.588 193.432 123.263 185C123.095 180.65 124.304 176.403 123.896 172C123.229 164.798 121.068 159.413 122 152C110.385 151.219 99.6403 145.098 88 145C88.309 152.198 88.4725 159.865 89.4244 167C89.7422 169.382 89.68 172.534 91.027 174.606C97.3076 184.27 112.383 178.147 119.623 184.737C124.05 188.766 116.399 189.335 114 189.161C106.264 188.601 99.4371 184.762 92 183C92.579 190.336 93.4077 197.657 93.9105 205C94.1532 208.545 93.3732 212.624 94.9383 215.941C96.8323 219.955 101.182 220.444 105 221.591C113.093 224.023 124.24 231.545 133 229.415C138.908 227.979 142.339 223.254 147.015 219.901C154.116 214.808 162.758 210.852 171 208C165.086 199.809 167 184.79 167 175C159.133 179.46 151.039 183.61 142.835 187.073C140.15 188.207 136.936 186.215 138.752 183.211C141.186 179.184 151.603 175.436 156 174.186C158.923 173.355 163.053 173.018 164.357 169.736C165.616 166.569 163.708 162.212 163.289 159C162.343 151.734 162 144.324 162 137C154.744 143.622 143.133 151.7 133 152C133.686 143.111 143.451 142.875 149.715 138.787C153.419 136.369 155.397 133.469 160 133C161.648 127.424 161.305 120.796 160.91 115C160.734 112.409 159.416 108.728 161.038 106.377C163.557 102.725 165.894 107.889 166.366 110.005C167.722 116.086 167 122.805 167 129C177.679 124.525 185.569 117.056 197 114C197 106.561 198.008 98.2896 196.407 91C195.936 88.8569 194.218 84.5159 197.263 83.3457C200.436 82.1265 200.899 87.1277 200.981 89.0008C201.285 95.9739 201 103.02 201 110C206.339 108.259 211.491 104.511 217 104C219.057 102.418 220.388 102.174 223 102L223 108C219.133 108.293 217.216 109.936 213.961 111.871C211.153 113.54 207.191 113.719 205.033 116.317C202.392 119.498 203.659 123.304 203.91 127C204.361 133.619 204 140.367 204 147C211.804 143.75 218.285 138.205 227 138L227 144C223.763 144.734 220.96 146.078 218 147.591C214.501 149.38 209.926 151.127 207.357 154.213C201.417 161.349 209.708 172.75 211 180C216.597 177.832 220.732 173.342 226 170.489C229.15 168.783 233.262 167.532 234.802 163.956C237.034 158.775 233.155 150.344 232.425 145C231.287 136.659 231.296 128.295 229.621 120C227.896 111.457 224.289 103.831 223.286 95C221.998 83.6575 225.327 74.2035 220.861 63C219.893 60.5702 219.308 57.5156 217.437 55.5833C215.243 53.3176 211.736 53.1409 209 51.8218C197.778 46.4116 185.911 46.7516 174 43.5748C163.726 40.8345 154.909 35.861 144 35M65 50L65 52C71.7556 53.7523 79.2202 58.8234 86 59.2685C89.1651 59.4763 92.0874 57.7331 95 56.7454C102.49 54.2053 111.822 50.9913 118 46C115.11 44.1534 112.262 41.8514 108.961 40.7994C93.5606 35.8912 78.7229 43.8762 65 50M97 63C101.335 65.3085 106.48 65.3486 111 67.3488C115.574 69.3726 121.721 75.3273 127 74.304C135.499 72.6563 141.133 63.6002 150 62C147.283 57.8568 143.339 58.1314 139.09 56.4329C134.062 54.4233 128.624 49.7841 123 49.6651C119.71 49.5955 116.721 52.0205 114 53.5725C108.415 56.7574 102.713 60.1039 97 63z"/>
	<path style="fill:#ffffff; stroke:none;" d="M27.3179 75.0285C24.52 76.8822 24.7521 81.1021 27.3179 83.0154C32.472 86.8589 39.5931 87.5075 45 91.5008C53.8787 98.0582 64.9221 100.54 75 104.324C84.2692 107.805 93.2033 113.049 102.961 114.378C108.054 115.072 115.67 121.96 120.393 117.258C122.504 115.156 121.681 111.75 119.566 110.009C116.238 107.269 109.087 105.861 105 104.124C97.9255 101.119 89.3792 102.604 82.0008 99.3812C77.5024 97.4164 74.2132 94.1354 69.9853 91.7994C66.9327 90.1126 63.4001 89.4829 60.4244 87.7122C55.7506 84.9311 52.3011 81.5699 47 79.8588C41.6996 78.1479 33.0259 71.247 27.3179 75.0285z"/>
	<path style="fill:#000000; stroke:none;" d="M171 168C176.63 164.542 182.253 160.828 188.039 157.675C191.061 156.029 195.087 154.78 196.972 151.671C198.609 148.972 198 145.014 198 142C198 134.565 197.932 127.375 197 120C190.279 122.404 184.413 125.804 177.996 128.7C175.099 130.007 170.959 130.872 169.028 133.637C167.324 136.076 167.971 140.194 168.004 143C168.101 151.245 168.934 160.015 171 168M22 124C21.1647 134.584 22.2748 142.704 25 153C34.3294 154.211 42.4074 157.994 52 158C52.5752 153.322 51.4369 149.563 51.4105 145C51.3901 141.47 52.2533 137.552 50.0116 134.418C48.6528 132.519 46.2333 131.667 44.2847 130.526C36.921 126.214 30.6024 124.178 22 124M58 137C57.4616 143.822 55.2097 153.113 58.5887 159.581C59.9415 162.17 63.5026 162.829 66 163.812C72.0551 166.194 77.4573 170.184 84 171C82.9158 165.16 82.302 158.935 82.0394 153C81.9253 150.423 82.5962 146.883 80.9722 144.653C79.1779 142.189 75.6866 142.235 73 141.687C67.8658 140.64 63.1212 138.185 58 137M26 157C26.5473 163.935 28.1673 171.035 27.9568 178C27.8665 180.987 26.5468 184.786 28.7569 187.301C34.2353 193.535 46.788 194.37 54 198C51.1342 190.134 53.5214 182.212 52.4244 174C52.1219 171.735 52.3821 168.623 50.973 166.698C46.2365 160.229 33.0763 159.228 26 157M174 206C184.884 199.933 195.086 191.52 205 184C203.409 175.702 201.126 167.359 200 159C192.252 161.231 185.674 165.16 179 169.522C176.882 170.906 172.707 171.904 171.693 174.429C170.589 177.178 172.343 181.204 172.711 184C173.672 191.308 174 198.635 174 206M58 168C59.9919 176.367 56.5081 184.828 58.2986 192.91C60.6795 203.658 68.286 204.749 77 207.99C80.761 209.389 84.2511 211.523 88 213C88 208.443 88.8363 203.496 88.3125 199C87.9545 195.927 86.5595 193.084 86.1844 190C85.8203 187.007 86.6544 183.129 84.821 180.51C83.3595 178.422 80.3669 177.771 78.2847 176.483C71.8473 172.5 65.6236 169.126 58 168z"/>
</svg>