<?xml version="1.0" standalone="yes"?>
<svg xmlns="http://www.w3.org/2000/svg" width="256" height="256">
	<path style="fill:#ffffff; stroke:none;" d="M220 213C227.2 208.692 224.829 201.965 225.549 195C226.269 188.027 228.409 181.136 229.035 174C230.371 158.786 233.556 144.057 235.777 128.91C236.823 121.775 235.788 113.959 237.305 107C239.065 98.9256 242.21 90.2974 242.691 82C243 76.6555 241.532 70.896 241.031 65.5756C240.489 59.8285 240.892 55.1361 237.196 50.1736C230.388 41.0316 216.991 41.3343 207 39.9421C201.343 39.1539 195.717 37.7266 190 36.9352C180.495 35.6193 171.471 30.9171 162 29.2863C154.805 28.0473 147.292 26.5069 140 26.0934C136.995 25.9229 133.982 26.727 131 26.375C123.467 25.4857 116.489 21.8849 109.001 21.1736C102.437 20.5502 95.4952 21.4014 89 20.4128C85.7934 19.9248 83.0614 17.7776 80 16.7855C69.2985 13.3174 50.7605 9.76636 41.3295 17.8001C36.1051 22.2505 36.2881 28.9317 34.7855 35C33.8528 38.7666 32.2882 42.1362 31.5409 46C28.8333 59.9988 29.1295 74.2442 26.9414 88.2847C26.3849 91.8556 24.271 94.6717 23.4144 98.0895C21.4383 105.974 20.8181 114.893 19.8449 123C17.8794 139.373 18.3145 155.642 16.9568 172.015C16.5351 177.1 14.4203 181.853 14.0903 187C13.2851 199.559 17.9299 213.049 27.5949 221.302C34.4369 227.144 42.7836 226.375 51 227.17C59.0462 227.948 66.9457 229.4 75 230.17C86.2551 231.245 97.8285 231.549 109 233.209C112.43 233.719 115.532 235.473 119 235.797C129.791 236.804 141.143 235.096 152 236.2C167.325 237.758 182.299 244.749 198 243.891C210.893 243.187 223.611 225.244 220 213z"/>
	<path style="fill:#000000; stroke:none;" d="M157 40C157 45.376 155.692 49.8964 155.133 55.0895C154.668 59.3985 156.095 63.6745 155.957 68C155.69 76.3611 154.512 84.5699 155.09 93C155.337 96.62 159.058 110.043 152 108C145.275 109.792 136.931 111.257 130.039 109.586C126.636 108.76 123.4 106.984 119.996 106.004C115.485 104.705 111.142 104.327 107 101.907C103.518 99.8716 96.5095 96.4323 95.8457 91.9853C95.2739 88.1552 99.4368 83.655 100.451 80C105.243 62.7247 116.304 47.8437 126 33C113.76 32.0341 102.061 28.7441 90 27.2986C85.9643 26.8149 82.0903 28.2767 78 27.5316C67.7883 25.6714 56.7703 20.7045 47.0193 27.26C40.7373 31.4833 42.3616 37.4131 41.9105 44C41.1984 54.3983 38.5427 64.5698 38.8056 75C39.0158 83.3407 34.1727 91.609 33.1551 100C31.7791 111.347 29.2681 122.65 28.1698 134C27.151 144.528 28.153 155.616 26.3843 166C24.5327 176.87 23.2588 189.348 25.5895 200C26.2974 203.235 25.4527 206.873 27.6034 209.671C30.5151 213.458 36.5488 215.258 41 216.324C51.4395 218.824 61.3956 219.089 72 220.075C87.3921 221.506 102.666 223.5 118 225.108C120.773 225.399 123.249 226.937 126 227.13C128.984 227.341 131.969 226.038 135 226.051C143.728 226.089 153.283 227.442 162 228.284C165.81 228.652 169.307 230.516 173 231.402C178.728 232.776 186.119 233.72 192 234.199C204.027 235.178 207.736 225.224 211.409 216C214.781 207.53 211.985 198.779 213.133 190C213.69 185.742 216.98 182.961 218.025 178.91C219.072 174.854 220.49 170.153 220.856 166C221.19 162.216 220.051 158.762 221.104 155C225.155 140.531 225.338 125.83 227.184 111C228.348 101.649 230.198 92.415 231.103 83C231.929 74.4167 234.404 63.3568 227.772 56.1744C220.826 48.6531 210.154 50.8497 201 49.8256C194.926 49.146 188.833 46.5653 183 44.8349C174.587 42.3389 165.781 40.6929 157 40M102 93C107.448 94.7203 117.092 96.9701 120 102C130.379 102.086 139.586 103.777 150 102L149.022 88.0039L150.931 77.9606L150.029 67L151 38C145.721 36.5091 136.461 33.4906 131.133 36.1173C126.859 38.2242 125.334 45.1328 122.91 48.9105C114.041 62.7386 106.783 77.3793 102 93z"/>
	<path style="fill:#ffffff; stroke:none;" d="M143 51C140.876 50.1007 140.899 50.1236 140 48C136.391 48 131.806 47.2591 128.681 49.4336C121.608 54.3545 118.273 68.9819 117.505 77C117.226 79.9078 115.958 83.1774 117.694 85.8565C121.556 91.8186 140.233 97.0003 144.821 89.7215C147.72 85.1223 145.196 76.1032 144.565 70.9853C143.748 64.362 143.525 57.65 143 51z"/>
	<path style="fill:#000000; stroke:none;" d="M139 54C129.853 54.2995 126.303 64.3265 124.781 72.1698C124.278 74.7583 122.754 78.0783 124.118 80.6204C125.74 83.6433 136.198 88.9777 138.933 85.3812C140.408 83.4411 139.421 79.2675 139.326 77C138.996 69.1436 137.593 61.9039 139 54z"/>
	<path style="fill:#ffffff; stroke:none;" d="M44.6034 159.028C41.1998 161.73 44.1547 167.83 45.1003 171C47.7635 179.928 48.7837 189.623 53.446 197.83C54.5669 199.803 55.6297 202.657 57.5494 203.991C62.534 207.454 70.4407 205.385 76 206.728C94.3578 211.161 113.228 215.569 132 217.816C136.966 218.41 142.021 217.693 147 218.093C155.231 218.755 166.719 223.654 173.938 217.606C176.569 215.401 177.426 212.515 179.167 209.715C182.991 203.566 187.472 197.991 191.44 192C192.867 189.845 194.601 186.043 192.933 183.564C191.156 180.923 186.745 181.239 184 180.91C178.796 180.288 173.149 178.723 168 177.611C152.595 174.286 136.765 171.222 121 169.286C111.53 168.123 102.412 167.947 93 165.765C85.3857 163.999 77.6493 162.997 70 161.338C65.6654 160.398 61.421 158.517 57 158.104C53.8313 157.808 47.2574 156.92 44.6034 159.028z"/>
	<path style="fill:#000000; stroke:none;" d="M51 164C51.2902 171.579 52.6327 178.902 55.4645 185.996C57.277 190.537 59.9456 194.142 61 199C66.3047 198.657 70.0654 201.23 75.0895 201.87C96.4803 204.596 117.686 208.634 139 211.184C146.146 212.039 152.759 212.737 160 213.039C162.406 213.14 165.48 214.083 167.725 212.883C170.437 211.433 171.61 207.382 173.354 205C177.695 199.07 183.554 194.045 186 187C173.151 186.735 160.615 181.953 148 179.758C135.801 177.634 123.117 177.939 111 175.66C106.142 174.747 101.857 171.907 97 170.815C90.2677 169.301 83.7293 169.67 77 168.7C68.2663 167.441 59.829 165.116 51 164z"/>
</svg>