<?xml version="1.0" standalone="yes"?>
<svg xmlns="http://www.w3.org/2000/svg" width="256" height="256">
	<path style="fill:#ffffff; stroke:none;" d="M115 35C115 43.0566 116.229 51.6392 115.776 59.5756C115.118 71.1283 113.414 82.447 112.461 94C111.266 108.486 112.161 122.591 102.401 134.714C94.8736 144.064 86.1818 153.477 76.7106 160.868C73.8252 163.12 70.1544 163.877 67.4429 166.394C63.6176 169.946 62.1011 175.084 58.6204 178.856C56.5072 181.147 53.5691 182.213 51.3002 184.298C46.9303 188.314 43.2764 193.395 39.3349 197.831C32.5206 205.499 27.549 211.69 22.8835 220.83C21.0176 224.486 18.9346 227.702 19.0988 231.999C19.3304 238.062 24.8904 240.812 30 242.476C37.3631 244.874 44.1013 244.186 51.5756 245.019C56.4514 245.562 61.0384 246.937 66 246.996C86.666 247.242 107.323 246.758 128 247.004C135.694 247.095 143.25 248.175 151 247.985C160.697 247.748 170.266 246 180 246C191.643 246 203.651 245.904 215 243.356C220.319 242.163 226.722 240.621 230.815 236.772C247.009 221.542 228.416 203.979 219.201 191.001C216.542 187.257 212.835 184.569 209.901 181.08C200.221 169.57 190.071 158.269 178.545 148.58C176.261 146.661 173.336 145.916 171.09 143.853C167.409 140.469 164.895 135.98 161.551 132.285C158.664 129.096 155.428 126.31 154.264 122C152.754 116.41 153.3 110.689 152.91 105C151.964 91.1734 152.763 76.9185 152.975 62.9606C153.085 55.6448 150.171 47.2123 151.813 40.0193C153.105 34.3609 158.117 36.208 161.682 33.2577C164.229 31.1499 163.781 27.9325 164.208 25C164.845 20.638 167.684 15.2104 163.566 11.6026C161.395 9.70032 157.701 9.64307 155 9C147.557 7.22816 136.581 7.02342 129 8.22299C126.255 8.65732 123.803 9.9911 121 10.1505C115.922 10.4391 109.64 8.86234 105.434 12.7029C101.661 16.1475 102.799 30.0424 106.514 33.3966C108.743 35.4093 112.228 34.9902 115 35z"/>
	<path style="fill:#000000; stroke:none;" d="M123 17C119.944 19.1999 117.752 19.8815 114 20L114 25C116.426 24.2515 119.363 22.8051 121.852 24.0818C124.879 25.6347 124.89 29.0665 124.799 32C124.625 37.6575 125.066 43.3299 124.996 49C124.791 65.7158 122.956 82.3365 120.842 99C120.499 101.705 121.683 104.289 121.61 107C121.395 115.043 119.374 124.593 116.197 132C111.75 142.369 102.239 149.811 94.5795 157.598C88.322 163.96 82.038 172.011 74.8302 177.277C71.5746 179.656 67.9027 180.974 64.7724 183.66C60.0157 187.742 57.1801 193.768 52.5764 198.246C47.8238 202.869 44.1397 208.011 39.7261 212.91C35.7792 217.292 30.0238 222.536 29.8588 228.945C29.7075 234.822 36.9306 234.349 41 234.661C52.4257 235.538 63.4682 237 75 237C99.6062 237 124.403 237.821 149 237.821C158.68 237.821 168.406 236.364 178 236.019C191.968 235.516 210.925 237.766 222.941 229.3C228.132 225.643 226.876 220.144 223.954 215.17C218.522 205.919 211.73 198.046 204.579 190.039C192.218 176.197 179.285 162.981 165.961 150.09C157.391 141.799 147.365 136.559 144.452 124C141.022 109.211 143.09 93.9369 143.29 79C143.428 68.7163 141.411 58.1985 142.09 48C142.505 41.7484 141.561 35.1907 142.613 29.0046C143.024 26.5887 144.143 23.7235 147.019 23.6204C149.469 23.5325 151.966 25.8678 154 27C154.49 25.374 155.626 23.0523 155.137 21.3133C154.452 18.8726 151.012 18.9047 148.999 18.5764C146.079 18.1 142.973 17.2534 140 17.3789C136.584 17.5229 133.487 19.0702 130.002 18.9306C127.444 18.8281 125.321 17.9835 123 17z"/>
	<path style="fill:#ffffff; stroke:none;" d="M190 35.4684C172.144 38.9358 172.688 71.8164 193 68.196C204.37 66.1695 211.021 59.5598 210.961 48C210.942 44.3942 210.448 40.3022 207.581 37.7685C203.294 33.9804 195.253 34.4482 190 35.4684z"/>
	<path style="fill:#000000; stroke:none;" d="M184 49C184.846 52.0119 185.106 55.8997 186.564 58.652C188.119 61.5877 191.139 61.2507 194 61.1111C205.471 60.5514 209.928 40.2897 196 41.0448C193.938 41.1566 191.934 41.5005 190.133 42.5725C187.57 44.0974 186.081 46.9473 184 49z"/>
	<path style="fill:#ffffff; stroke:none;" d="M212 73L212 76C202.144 77.6436 208.041 89.8807 216.999 87.6813C222.329 86.3728 227.087 78.076 221.682 73.9329C219.016 71.8894 215.092 72.8778 212 73z"/>
	<path style="fill:#000000; stroke:none;" d="M213 82L217 81C214.954 80.2489 214.404 80.3444 213 82z"/>
	<path style="fill:#ffffff; stroke:none;" d="M68.0895 92.7222C61.2734 92.8385 52.9457 100.573 51.321 107.09C49.3877 114.843 56.5582 121.937 64 121.913C78.2419 121.867 88.58 92.3728 68.0895 92.7222z"/>
	<path style="fill:#000000; stroke:none;" d="M64 115C65.8055 114.305 67.3807 113.665 68.9699 112.516C70.0967 111.702 71.3824 110.726 72.1412 109.535C79.0045 98.7651 58.0534 98.4259 61.1829 109.975C61.6648 111.754 63.0459 113.461 64 115z"/>
	<path style="fill:#ffffff; stroke:none;" d="M43.6026 134.028C35.5722 140.34 47.9391 152.563 55.5556 146.11C63.085 139.731 50.5527 128.565 43.6026 134.028z"/>
	<path style="fill:#000000; stroke:none;" d="M49 140L50 141L49 140z"/>
	<path style="fill:#ffffff; stroke:none;" d="M94 167.908C88.1498 169.519 81.9093 176.49 77.5594 180.579C67.0109 190.495 56.4993 200.19 46.6188 210.71C42.6869 214.896 37.2421 224.58 43.2323 229.262C47.0867 232.274 53.3904 231.985 58 232C62.4261 232.015 66.6559 233.353 71 233.366C74.6967 233.376 78.2861 232.281 82 232.514C94.0985 233.273 105.987 231.779 118 232.015C128.679 232.226 139.299 234.335 150 234.281C152.846 234.266 155.218 232.806 158 232.584C161.01 232.344 163.979 233.507 167 233.389C169.703 233.284 172.304 232.337 175 232.09C185.797 231.097 198.801 232.861 209 228.86C219.547 224.722 217.861 216.732 212.41 209C204.105 197.221 193.495 182.901 181.572 174.56C169.859 166.366 156.606 180.059 145 180.91C137.335 181.472 129.869 179.303 123.039 175.899C114.271 171.528 104.473 165.025 94 167.908z"/>
	<path style="fill:#000000; stroke:none;" d="M211 221C206.718 208.543 194.498 197.517 185.742 187.92C182.053 183.877 177.897 179.21 172 179.098C165.889 178.982 160.581 183.151 155 185.061C148.049 187.44 140.235 187.622 133 186.461C121.181 184.566 109.219 170.845 97 174.514C92.727 175.797 90.1982 179.528 86.8341 182.166C76.3104 190.417 66.467 199.879 57.4198 209.769C54.8645 212.562 46.7516 218.354 48.3719 222.775C50.1649 227.668 60.0514 226.004 64 225.954C79.1384 225.76 94.8887 227.885 110 226.282C123.632 224.835 137.27 228.731 151 227.549C161.931 226.609 172.99 225.843 184 225.09C193.707 224.425 201.728 224.57 211 221z"/>
</svg>