<?xml version="1.0" standalone="yes"?>
<svg xmlns="http://www.w3.org/2000/svg" width="256" height="256">
	<path style="fill:#ffffff; stroke:none;" d="M210 27.7785C205.2 28.5341 197.609 31.3491 195.603 36.1736C194.63 38.5162 194.904 41.509 194.576 44C194.181 46.9939 192.997 51.7157 195.603 54.0617C200.031 58.0463 206.125 53.4612 210.91 55.4877C214.887 57.1717 218.118 64.1161 223.024 62.9144C225.896 62.2108 227.764 59.4301 229.5 57.2708C234.556 50.9835 235.956 40.3324 230.258 33.4182C226.34 28.6627 215.785 26.868 210 27.7785z"/>
	<path style="fill:#000000; stroke:none;" d="M200 49C208.747 48.2909 214.643 46.6759 220 55L222 55C223.542 52.8616 225.486 50.6729 225.974 47.9985C228.483 34.2456 209.31 30.5055 201.742 39.5579C199.595 42.1262 200.009 45.8784 200 49z"/>
	<path style="fill:#ffffff; stroke:none;" d="M126 55.4252C106.575 58.0693 89.041 67.3025 77.0463 82.8696C75.2013 85.2641 72.7671 87.177 71.5625 90.0147C67.5944 99.3624 63.6327 107.909 61.6659 118C60.9577 121.633 60.7719 127.704 66.0039 127.704C74.2672 127.704 72.927 111.314 74.5486 106C75.8015 101.894 78.8288 98.4634 81.2338 95C87.4854 85.9971 95.8306 76.3461 106.09 71.7955C116.275 67.2776 129.71 63.3636 141 65.3287C151.208 67.1055 160.502 72.4644 168.996 78.0502C176.029 82.6752 180.765 90.0964 185.419 96.9846C187.299 99.7678 190.097 102.828 193.852 101.377C197.407 100.003 196.961 95.9074 195.89 93C193.449 86.3686 187.158 81.1402 182.424 76.0934C168.342 61.0813 146.554 52.6273 126 55.4252M22 58C21.2462 62.5257 21.4546 68.8295 19.4275 72.8958C16.9526 77.8603 3.52525 85.138 14.0193 88.7631C15.2961 89.2042 16.6531 89.3532 17.9954 89.3665C19.9821 89.3862 22.0116 89.0797 24 89C24.1937 92.2856 24.5267 106.562 31.4545 101.953C35.1472 99.4961 35.0063 93.741 39.0579 91.0502C43.1813 88.3116 53.8878 91.0257 55.2485 85.8495C55.9911 83.0244 52.9238 80.9436 51.5448 78.9105C49.5466 75.9644 49.1239 72.3125 48 69C50.7821 66.5689 49.9996 62.5094 50 59C44.3588 59.0504 39.2756 60.1398 35 64C30.8574 60.5448 27.4863 58.1657 22 58z"/>
	<path style="fill:#000000; stroke:none;" d="M27 67C26.9401 73.7024 24.5859 77.5038 21 83L29 83L30 89C35.1868 85.7368 39.8041 83.972 46 84C43.3665 77.5555 43.0887 73.852 44 67C36.831 71.2456 34.4742 69.9839 27 67z"/>
	<path style="fill:#ffffff; stroke:none;" d="M148 79C149.41 72.7538 142.356 70.7531 140.904 77.0193C139.017 85.1638 153.679 91.365 159.98 89.2654C163.579 88.0663 165.61 83.2554 160.937 81.9545C159.043 81.4274 156.944 81.7933 155.002 81.3372C152.623 80.7785 150.325 79.746 148 79M225 105C215.865 110.021 207.645 114.191 197 116C199.076 114.818 211.555 109.922 206.377 106.07C203.756 104.12 198.566 107.247 196 108.177C188.13 111.027 180.036 113.088 172 115.504C168.252 116.631 164.203 116.599 162 120C153.382 118.471 144.463 121.508 136 123.2C129.831 124.433 122.973 124.092 117 125.768C105 129.134 93.5043 133.382 80.9992 134.846C74.4516 135.612 67.5101 136.047 61.0586 137.148C59.0933 137.484 56.4531 139.09 58.0864 141.416C59.6211 143.601 63.7232 143.006 66 142.999C74.178 142.977 82.0397 140.914 90 139.372C111.698 135.17 133.272 130.655 155 126.042C164.467 124.032 174.322 120.422 184 120C170.676 127.118 155.573 130.198 141 133.39C137.092 134.246 133.889 136.842 130 137.765C115.927 141.102 101.17 141.805 87 144.665C81.1716 145.842 75.7812 148.367 70.0039 149.543C58.0979 151.967 45.5773 151.044 35 145C37.4752 142.192 39.7874 139.276 43.0147 137.286C45.8717 135.525 50.0311 135.07 52.2539 132.428C54.0735 130.265 53.9961 126.857 51.5656 125.179C46.6981 121.818 40.2529 126.424 36.4205 129.282C33.8038 131.234 30.1813 132.754 28.2137 135.394C22.5759 142.957 25.4665 153.494 34 157.347C40.4155 160.244 47.3055 159.177 54 159.179C57.0376 159.18 59.9476 160.112 63 159.657C66.427 159.145 69.5171 157.484 72.9853 157.079C76.6519 156.651 80.3531 157.197 84.0039 156.697C94.0153 155.324 103.862 152.201 113.715 150.187C116.123 149.694 118.609 150.169 121.004 149.568C123.83 148.858 126.165 146.999 128.999 146.285C138.186 143.968 147.832 143.434 157 140.907C165.788 138.486 174.082 132.679 183 131.209C195.48 129.152 209.142 125.359 221 120.777C225.886 118.889 232.009 115.521 233.388 109.985C236.462 97.6495 227.981 90.9455 217 89.9252C214.602 89.7023 211.561 88.7143 209.228 89.6427C206.26 90.8243 205.546 95.008 207.745 97.2546C209.444 98.9902 212.249 98.7981 214.424 99.4522C218.484 100.672 221.777 102.265 225 105z"/>
	<path style="fill:#000000; stroke:none;" d="M195.667 116.333C195.222 116.778 196.278 116.722 196.333 116.667C196.778 116.222 195.722 116.278 195.667 116.333M184 119C187.532 120.437 190.528 119.265 194 118C190.468 116.563 187.472 117.735 184 119z"/>
	<path style="fill:#ffffff; stroke:none;" d="M196.318 131.032C193.695 132.721 194.052 136.302 193.997 139C193.915 143.012 193.29 146.504 191.201 150C187.063 156.922 182.766 164.064 176.715 169.521C169.377 176.138 155.557 181.616 146 183.961C139.24 185.619 132.863 185.62 126 186.09C122.996 186.295 120.014 187.171 117 186.595C104.758 184.253 94.8329 175.371 87.3735 166.001C84.5579 162.464 78.9892 157.039 74.7469 162.318C71.2052 166.725 76.0565 169.639 78.9614 172.259C85.252 177.933 89.4388 186.011 97.0039 190.295C107.921 196.477 116.009 196.308 128 196.015C143.53 195.634 158.224 192.454 171.985 184.826C185.52 177.324 198.749 162.83 204.031 148C205.587 143.632 205.294 125.252 196.318 131.032M204 185C210.23 185.641 214.211 181.541 220.004 181.721C225.134 181.88 229.513 184.981 235 185C235 180.453 234.3 175.259 236.228 171.015C238.281 166.495 242.502 164.273 242 159C246.254 158.072 246.861 156.172 247 152C243.247 151.998 238.574 152.549 235.39 150.142C232.604 148.034 231.94 143.527 227.934 143.207C222.599 142.781 218.462 149.839 214.91 152.891C211.676 155.671 204.072 154.604 202.086 157.603C199.846 160.985 205.301 165.768 205.968 169C206.577 171.947 204.795 174.285 204.055 177C203.338 179.632 203.813 182.326 204 185z"/>
	<path style="fill:#000000; stroke:none;" d="M226 151C223.47 154.235 221.598 156.898 221 161C217.878 161.026 215.039 161.276 212 162C214.705 167.886 212.785 171.069 212 177C219.068 173.721 221.658 173.395 229 176C229 173.208 228.55 169.86 229.588 167.209C230.415 165.098 233.243 163.495 232.968 161.025C232.653 158.196 227.71 153.515 226 151z"/>
	<path style="fill:#ffffff; stroke:none;" d="M56 177L56 181C50.2057 181.967 47.2207 187.058 42.8302 190.519C39.9772 192.769 36.2449 193.799 33.5139 196.185C31.8101 197.674 30.7298 200.265 32.0679 202.363C34.8428 206.713 46.2503 207.704 51 209C50.2112 212.771 45.5057 220.992 48.0432 224.397C49.7102 226.633 53.721 226.012 56 225.362C61.9444 223.667 69.7886 220.699 74.9807 217.336C76.9094 216.086 79.2521 214.464 79.534 211.968C79.8993 208.732 76.5067 207.744 73.9954 207.301C69.8021 206.561 60.5416 206.963 58.1173 202.686C57.0225 200.755 57.7347 198.074 57.9267 196C58.547 189.299 61.9423 183.884 62 177L56 177M189 189.515C184.598 190.373 177.569 190.987 175.027 195.214C173.484 197.779 173.606 201.236 172.319 204C171.047 206.734 168.682 209.748 168.819 212.91C169.066 218.567 175.237 220.259 178.701 223.309C181.399 225.685 183.518 229.733 187.791 228.664C191.99 227.613 194.015 220.431 195.64 216.999C198.106 211.792 203.138 205.719 204.049 200.001C205.221 192.644 194.705 188.402 189 189.515z"/>
	<path style="fill:#000000; stroke:none;" d="M53 190C50.8353 192.536 49.3038 193.516 46 194C44.6724 195.61 43.617 196.701 42 198C44.9781 200.458 48.358 201.76 52 203C52.8602 199.098 54.1638 193.806 53 190M176 213C178 214.458 179.799 215.889 182 217C182.314 219.719 183.386 219.992 186 221C188.828 216.013 196.768 206.83 196.069 201.055C195.194 193.812 184.154 196.484 180.573 199.727C177.299 202.692 177.143 208.933 176 213M56 220L69 214C61.7876 210.945 57.501 212.425 56 220z"/>
</svg>