<?xml version="1.0" standalone="yes"?>
<svg xmlns="http://www.w3.org/2000/svg" width="256" height="256">
	<path style="fill:#ffffff; stroke:none;" d="M165 181C166.745 184.614 169.388 187.535 171.306 191.039C173.75 195.506 174.864 200.004 178.3 203.961C184.758 211.397 192.835 216.493 199.83 223.181C207.442 230.46 213.815 239.083 221.59 246.177C227.844 251.883 232.349 249.541 238.074 244.741C240.866 242.4 243.899 240.054 243.744 236.014C243.448 228.32 232.418 221.188 227.59 216.13C224.867 213.277 222.685 209.878 219.872 207.143C217.426 204.764 214.249 203.505 212.039 200.856C206.688 194.442 202 186.691 195.699 181.139C189.903 176.032 182.926 174.693 178 168C185.423 163.735 188.719 155.232 192.549 148C195.834 141.796 199.394 135.787 201.43 129C205.727 114.677 204.58 98.4053 201.35 84C200.32 79.41 200.287 74.4187 198.671 70C196.085 62.9288 191.467 56.6789 188.08 49.9961C186.036 45.962 184.695 40.5301 181.687 37.1435C179.082 34.2109 175.069 33.0234 172.09 30.5185C159.867 20.2415 145.144 11.0215 129 8.32562C118.15 6.51379 106.841 7.54764 96 8.84491C87.247 9.89232 76.8301 10.2238 69.0147 14.5949C44.8575 28.1058 22.9038 49.9637 15.1034 77C10.5608 92.7446 12.9711 106.453 15.6713 122C16.2459 125.308 15.7193 128.703 16.3789 132C17.6634 138.421 21.4432 147.24 24.9691 152.741C27.1052 156.073 31.021 158.616 33.8056 161.41C39.1186 166.742 43.637 171.738 49.5795 176.405C54.1061 179.961 57.8767 185.149 63 187.836C66.7121 189.782 71.1181 189.441 74.9606 190.99C81.4498 193.605 87.9208 197.708 95 198.787C110.291 201.118 126.592 196.124 141 192.035C145.323 190.808 149.871 190.944 153.999 188.851C158.054 186.796 161.002 183.162 165 181z"/>
	<path style="fill:#000000; stroke:none;" d="M98 27.4252C75.2318 30.5244 59.202 42.8545 45.6644 60.7153C41.1578 66.6609 36.9231 71.6998 34.6798 79C33.3575 83.303 34.1041 87.6223 33.6752 92C32.7851 101.083 31.0503 109.786 32.429 119C35.3983 138.844 53.3097 159.406 70 169.374C73.7199 171.596 78.1002 172.187 82 173.951C90.6831 177.877 101.266 181.304 111 179.971C122.013 178.462 132.682 173.408 142 167.877C144.807 166.211 148.206 166.071 150.91 164.258C153.99 162.195 156.23 158.872 159.015 156.428C169.754 147.003 178.284 137.467 181.541 123C182.493 118.773 181.815 114.295 182.089 110C182.549 102.764 183.056 94.1611 181.621 87C180.668 82.2444 177.763 78.4093 175.978 74C169.551 58.123 159.575 43.1705 144 34.8002C136.484 30.7608 128.093 30.8944 120 29.3812C112.367 27.9539 105.887 26.3516 98 27.4252z"/>
</svg>