<?xml version="1.0" standalone="yes"?>
<svg xmlns="http://www.w3.org/2000/svg" width="256" height="256">
	<path style="fill:#ffffff; stroke:none;" d="M76 35C73.8435 31.6764 69.7645 31.2711 67.5725 35.1481C65.6961 38.4672 65.6856 43.281 65.2894 47C64.9773 49.9287 65.8501 52.9608 65.3356 55.8302C64.8324 58.637 63.1743 61.1461 62.6196 64.0039C61.4016 70.2782 61.6433 79.7713 63.3187 85.9414C64.4859 90.24 70.5076 91.1949 72.3966 86.8519C74.0727 82.9983 72.1957 77.9934 72.0401 74C71.87 69.6351 72.7502 65.3513 72.885 61C73.0886 54.4328 75.1664 47.596 76 41C82.7997 44.6145 92.4033 44.2729 100 45.1844C107.021 46.0269 113.962 47.3647 121 47.9028C125.647 48.258 130.357 47.4726 135 48.1404C140.291 48.9015 145.629 51.0023 151 52C149.225 54.4418 148.432 56.0225 148 59C140.824 60.1192 135.541 63.9784 128 64C125.884 57.6251 111.923 59.068 106 57.6258C103.47 57.0096 99.8862 55.5318 97.3187 56.6427C95.1698 57.5726 94.8127 60.4964 96.608 61.9768C98.8723 63.8439 104.162 64.0095 107 64.5401C110.299 65.1572 113.672 65.579 117 66C111.127 69.6602 111.122 74.6081 115 80C111.503 80.0501 108.344 79.8166 104.961 78.8403C101.9 77.9571 98.45 75.6189 95.1489 76.3619C92.1986 77.026 91.9564 80.2097 94.3225 81.8225C97.6252 84.0737 105.57 85.1635 109.576 85.7207C111.875 86.0404 114.617 85.8145 116.398 87.6026C118.356 89.5687 118.378 93.4245 119 96C112.024 94.8189 104.132 91.3929 97.0147 91.7415C93.8088 91.8985 91.0481 94.1763 88 95C87.1748 92.0946 85.6507 88.6593 82.01 88.635C78.0508 88.6087 75.3606 92.8385 70.9961 92.9769C60.7568 93.3013 51.8675 89.9057 42 88.8341C36.9288 88.2834 32.7428 87.259 31 93C24.6091 93.4979 23.779 99.1983 24.375 104.961C24.8547 109.599 26.197 114.387 26.4159 119C26.5609 122.056 25.0912 124.926 25.0864 128C25.0817 131.057 26.2601 133.939 26.1798 137C26.0563 141.705 23.8538 145.56 23.2384 150.039C22.8659 152.751 23.84 155.312 23.8079 158C23.7634 161.717 22.1581 165.247 22.044 169C21.8269 176.142 22.9376 182.754 21.7407 190C20.7101 196.239 18.9439 204.87 23.0131 210.682C25.1389 213.719 29.788 212.992 33 213C40.1941 213.018 46.6565 215.613 53.9105 215.975C57.2461 216.141 59.7705 218.216 63.0039 218.773C67.0239 219.465 71.0385 218.049 75 218.584C77.7706 218.958 80.204 220.491 83 220.871C91.9814 222.093 101.069 221.864 110 222.814C117.522 223.614 123.219 225.204 131 224.285C136.171 223.675 146.499 226.857 150.501 223.396C155.857 218.763 153.062 210.988 153.448 205.09C154.239 193.015 159.384 181.048 160.845 169C161.363 164.727 160.577 155.93 163.603 152.7C167.38 148.667 174.195 150.38 179 148.956C185.995 146.884 192.795 143.305 200 141.958C203.588 141.287 207.365 142.19 211 141.946C216.428 141.582 223.746 139.854 228.981 138.276C234.684 136.557 239.531 124.911 234 121C234.892 115.27 231.607 112.297 230.568 107C229.141 99.7247 229.29 92.2622 227.391 85C225.499 77.7619 221.213 71.1953 218.875 64.0147C217.302 59.1837 217.892 47.8063 211.941 46.3326C207.746 45.2935 202.171 47.2095 198 47.9205C184.586 50.2072 171.768 55.9474 158 55C161.467 52.8394 165.71 47.4164 160.682 44.027C155.193 40.3268 145.007 41.7117 138.715 41.0255C133.312 40.4362 128.335 37.9487 123 37.2091C119.57 36.7336 116.386 37.6868 113 37.6813C109.15 37.6751 104.487 36.3888 100.715 35.5008C92.0402 33.4588 83.9061 29.1551 76 35M82.3187 54.0285C77.1434 57.472 83.4946 67.0936 88.6829 63.2137C94.1161 59.1507 88.2445 50.0857 82.3187 54.0285z"/>
	<path style="fill:#000000; stroke:none;" d="M123 76C125.395 85.5047 131.71 92.6602 131 103C138.194 103 144.932 105.164 152 105.339C156.984 105.462 160.937 103.809 166 105C165.617 103.76 164.954 102.259 164.77 100.96C163.484 91.8775 173.912 97.729 178 99.3194C181.25 100.584 187.218 102.273 188.263 106.13C189.497 110.681 183.266 117.324 180.331 120.222C178.995 121.542 177.323 123.241 175.248 122.694C170.412 121.419 169.325 112.976 169 109C161.79 116.37 154.262 114.364 145 112.94C138.489 111.938 132.494 111.137 126 109.68C118.44 107.984 110.656 110.09 103 108.626C88.1077 105.777 73.0995 101.237 58 99.554C54.3345 99.1456 50.6889 100.254 47 99.8912C42.074 99.4063 38.0902 97.8382 33 98C33.5742 102.544 34.8215 107.411 34.6211 112C34.5019 114.73 33.1863 117.241 33.3133 120C33.4555 123.088 35.0067 125.845 34.7477 129C33.9508 138.709 31.7926 148.231 31.7492 158C31.7073 167.452 31.0158 176.481 30.1705 186C29.5944 192.488 30.4444 196.737 28 203C31.3101 204.322 34.3993 206.359 38 206.807C42.692 207.391 47.2926 205.545 52 206.144C61.1869 207.311 70.7193 210.742 80 210.985C86.7869 211.163 92.4322 212.296 99 213.22C103.493 213.852 106.4 212.627 110 216C120.9 212.545 132.657 216 144 216C144.103 211.146 145.861 207.122 146.639 202.424C147.265 198.644 146.714 194.789 147.185 191C147.57 187.91 148.98 185.13 149.541 182.09C150.994 174.203 150.147 165.913 151.188 158C151.784 153.469 153.924 149.679 153.995 145C154.099 138.154 153.053 131.858 153.835 125C154.13 122.413 154.053 119.405 156.318 117.623C159.381 115.212 162.922 117.688 163.643 121.019C164.927 126.955 162.477 134.953 162 141C170.887 140.974 178.358 136.817 187 135.39C190.642 134.788 194.311 135.564 198 134.958C207.738 133.36 217.456 130.369 227 128C226.736 119.679 222.827 111.021 220.633 103C217.859 92.8555 217.677 82.7705 213.514 72.9105C211.563 68.2897 212.064 61.1369 207.387 58.0316C204.98 56.4331 201.622 57.5182 199 57.8688C191.98 58.8076 186.739 60.0043 180 62.0949C168.118 65.7814 155.142 65.3289 143 68.0154C136.207 69.5185 129.358 73.1683 123 76z"/>
	<path style="fill:#ffffff; stroke:none;" d="M202 70.6343C183.837 75.436 165.321 79.2105 147 83.5363C142.636 84.5667 138.037 84.703 134.149 87.2639C132.563 88.3086 130.702 90.4107 132.086 92.3866C133.169 93.9316 135.421 93.604 137.005 93.3511C141.813 92.5831 146.282 90.2171 150.996 89.0285C164.222 85.6942 177.755 84.156 191 81.1042C195.937 79.9666 203.641 79.1645 207.677 75.9259C212.909 71.7285 205.554 69.6946 202 70.6343M81.1435 73.0471C75.4556 76.1946 80.037 84.0526 85.6813 81.392C90.4134 79.1614 86.3852 70.1465 81.1435 73.0471z"/>
	<path style="fill:#000000; stroke:none;" d="M121 99L116 102C118.332 102.985 120.457 102.981 123 103C122.404 101.44 121.911 100.377 121 99M174 105C174.427 107.79 175.082 110.331 176 113L178 113C179.261 110.99 180.19 109.222 181 107C178.674 106.12 176.436 105.507 174 105z"/>
	<path style="fill:#ffffff; stroke:none;" d="M122.301 130.938C108.586 137.876 118.659 160.967 132.98 153.682C143.974 148.09 134.679 124.677 122.301 130.938z"/>
	<path style="fill:#000000; stroke:none;" d="M124.4 137.086C119.447 140.093 123.052 151.718 129.838 147.806C135.215 144.705 129.276 134.127 124.4 137.086z"/>
	<path style="fill:#ffffff; stroke:none;" d="M86 150C91.1397 156.669 92.9627 165.29 96.1582 173C97.4585 176.137 99.3066 180.901 103.104 181.588C107.052 182.302 110.62 179.087 113.999 177.63C116.65 176.487 118.815 175.909 121 174C126.358 181.593 128.33 191.632 132.364 199.999C133.413 202.175 135.944 208.314 139.411 205.914C142.503 203.773 139.909 198.791 138.65 196.424C135.241 190.012 133.215 182.737 130.508 176C129.184 172.706 127.953 168.323 123.946 167.492C117.702 166.195 109.434 177.754 104.014 172.512C98.5014 167.181 97.3864 156.806 94.4205 150.001C92.9146 146.545 91.4163 142.939 86.9853 143.542C81.7762 144.25 79.568 149.023 75.8958 152.101C65.4397 160.866 54.8797 169.236 45.51 179.267C43.0233 181.929 32.7731 187.181 35.2878 191.552C38.5408 197.206 47.139 186.994 49.4429 184.755C61.5483 172.995 75.8347 163.686 86 150z"/>
</svg>