<?xml version="1.0" encoding="utf-8"?>
<svg xmlns="http://www.w3.org/2000/svg" width="256" height="256">
	<path style="fill:#ffffff; stroke:none;" d="M99 92C83.4062 100.112 89.91 115.216 94.1466 128C95.5524 132.242 94.3897 136.766 97.4028 140.467C99.9816 143.634 104.268 144.801 108 146C105.853 150.627 100.077 161.279 108.999 162.593C110.313 162.787 111.752 162.268 113 162C113.445 172.365 115.351 184.274 119 194C112.331 194.014 100.775 194.863 98.9282 185.999C97.6315 179.775 101.126 172.64 99.5856 166C97.2915 156.109 90.1819 147.598 82 142C85.9019 134.641 80.4764 128.526 77.0409 122C75.6449 119.348 74.8394 116.443 72.7222 114.224C70.3354 111.721 66.8928 110.671 64.7685 107.867C60.2168 101.86 63.3596 94.8184 61.6968 88.1698C61.0032 85.3966 58.8346 83.2697 56.9151 81.2716C48.8475 72.8735 41.2282 71.2827 30 73.669C25.7667 74.5687 20.9051 75.722 19.0093 80.0548C15.9281 87.0966 22.2987 96.1777 17.9722 102.683C14.3272 108.164 4.73136 103.807 1.02778 110.189C-2.05278 115.497 -1.70231 129.537 5 131C3.59095 133.983 1.42223 136.816 0.510031 140C-1.86465 148.289 0 159.402 0 168C0 173.286 -1.03235 179.827 0.317901 184.96C1.68818 190.169 7.09752 193.165 8.62423 198.91C10.6788 206.642 10.9304 215.098 12.9198 223C14.0871 227.637 16.7804 232.311 17.4159 237C18.0987 242.037 14.5931 250.123 19.4336 253.91C22.561 256.358 27.2782 255.994 31 256C39.6699 256.014 49.4657 257.254 58 255.66C61.3279 255.039 64.5243 252.681 67.9606 252.792C70.6626 252.879 72.5445 255.057 75.0895 255.687C78.7978 256.604 83.1985 256 87 256L79 245C84.7707 242.71 90.6927 239.574 92.2269 232.996C93.0602 229.423 91.1517 227.157 89.919 224C88.7123 220.909 88.2234 217.085 87.4552 213.83C84.3539 200.689 84.9753 186.768 79.946 173.999C78.3359 169.911 74.8514 165.406 71.6759 162.39C70.0635 160.858 67.1462 159.756 66.2523 157.61C65.1832 155.045 67.7118 151.362 70.0957 150.454C73.2122 149.266 77.7052 153.224 79.9969 154.927C86.8482 160.02 91.4302 168.26 89.4699 177C88.2964 182.233 83.808 188.358 87.0278 193.786C89.1015 197.282 93.4338 197.68 97 198.498C105.562 200.464 114.226 202.308 123 203C123.033 212.679 126.605 220.89 129.073 230C130.483 235.21 130.143 240.768 131.41 246C132.259 249.504 133.757 252.337 134 256L146 256C144.926 249.954 142.665 244.088 141.449 238C140.396 232.727 140.107 227.138 138.471 222C137.26 218.199 134.037 215.279 133.127 211.424C132.4 208.342 133.111 205.136 132.286 202C130.426 194.927 127.115 188.316 126.114 181C125.226 174.512 123.167 169.222 121.495 163C120.297 158.545 121.018 155.523 116 154C117.43 151.267 119.595 148.245 119.562 145.039C119.477 136.657 111.739 138.134 107.318 134.397C104.567 132.071 104.411 126.569 105.16 123.285C106.867 115.81 115.649 110.655 120.576 105.486C126.159 99.6268 132.179 92.7364 139.015 88.3279C149.237 81.7356 162.253 80.0567 174 78.429C177.765 77.9074 181.133 76.8277 185 77.091C190.031 77.4336 195.053 79.0407 200 80C193.254 81.994 185.906 80.7754 179 82.6049C160.907 87.3982 142.637 99.0853 129.9 112.551C126.35 116.304 120.133 122.437 118.248 127.184C115.902 133.091 123.953 142.311 125.471 148C127.077 154.019 129.44 159.874 130.575 166C131.658 171.852 131.015 178.128 132.278 183.83C133.312 188.501 137.231 194.147 140.005 197.985C143.912 203.393 148.049 209.068 155 210C155.777 214.535 159.171 216.451 163 218.688C173.391 224.757 184.81 220.776 196 221C184.728 227.781 177.689 243.081 181 256L189 256C187.385 250.081 184.532 245.57 190 241C191.016 245.279 193.023 253.342 197.39 255.397C200.093 256.668 204.087 256 207 256C202.777 249.928 187.531 232.133 201 228C201.069 236.182 208.13 247.126 217.985 243.142C222.169 241.45 225.858 237.22 228.885 233.986C234.678 227.798 238.815 223.754 240 215C243.229 215.983 251.42 216.259 252.234 220.591C252.748 223.332 246.65 229.057 244.985 230.985C236.72 240.556 225.792 247.126 216 255C225.712 259.075 231.001 251.371 238 246.185C244.26 241.547 252.544 236.564 255.436 228.715C256.729 225.205 257.222 215.557 254.397 212.738C251.063 209.412 244.06 209.811 240 211C241.591 203.276 248.686 202.958 253.276 197.671C256.005 194.527 255.986 190.93 256 187C248.448 189.616 245.549 197.526 238.945 201.096C232.028 204.835 224.281 206.935 217.004 209.812C213.302 211.275 209.908 213.699 205.985 214.521C200.446 215.682 194.571 214.826 188.961 215.114C183.016 215.42 176.833 217.139 171 215.03C167.253 213.675 164.75 211.032 161.715 208.618C154.934 203.227 148.209 197.054 143.019 189.985C137.532 182.513 137.704 172.926 137 164C148.734 167.036 160.129 164.741 168.995 155.985C171.604 153.408 175.31 150.114 174.623 146.019C174.135 143.106 171.579 141.542 169.705 139.546C158.788 127.911 141.149 130.395 129 139C132.909 131.001 145.974 125.117 154 121.718C157.092 120.409 163.94 121.467 165.339 117.697C166.222 115.316 164.535 112.957 163.421 111C161.241 107.172 159.663 103.075 158 99C170.224 94.619 180.639 88.0559 194 87C187.434 91.0841 180.566 93.9427 177.728 102C173.887 112.908 186.122 122.34 196 120.786C201.24 119.962 204.833 115.898 209 113C204.645 117.5 197.594 129.377 201.785 135.867C203.59 138.661 206.986 139.676 210 140.535C217.424 142.654 226.604 143.338 234 140.532C244.24 136.648 263.538 119.471 248.981 109.689C247.411 108.634 245.791 107.658 244 107.028C240.19 105.687 235.972 106 232 106C236.294 104.609 252.208 105.359 249.012 98.3056C248.321 96.7818 246.97 95.3469 246 94L256 97C256 90.8513 256.811 84.0629 255.737 78C254.693 72.1083 250.961 66.3903 248.417 61.0394C246.7 57.4286 245.806 53.6026 244 50L256 59C256 55.1439 256.624 50.6212 255.062 47C252.557 41.1966 246.679 37.8599 242.974 32.9614C237.355 25.5323 229.41 16.733 220.91 12.4414C217.764 10.8528 214.311 11.2821 211 10.3657C207.928 9.51562 205.171 7.8846 202 7.3287C195.256 6.14659 188.659 7.57533 182 8.12036C170.437 9.06686 158.956 9.56625 148.015 14.3889C138.568 18.5526 130.747 25.8662 122.741 31.9661C117.508 35.9532 111.722 39.0904 107.26 44.0895C101.317 50.7485 97.0762 61.475 95.1127 70C94.3046 73.5082 92.774 77.3472 93.2677 81C93.8216 85.0981 97.1707 88.4111 99 92z" transform="matrix(1, 0, 0, 1, 0, 7.105427357601002e-15)"/>
	<path style="fill:#000000; stroke:none;" d="M 107 87 C 111.38 85.715 113.226 82.52 116.261 79.289 C 119.156 76.207 122.608 73.775 125.579 70.791 C 129.179 67.176 132.514 62.367 137.17 60.009 C 144.238 56.43 155.391 59.059 163 58.871 C 174.587 58.585 186.368 57.288 198 58.09 C 203.742 58.485 209.291 60.256 215 60.83 C 226.952 62.029 238.993 63.068 246 74 C 246.314 70.689 244.188 67.988 242.795 65 C 240.158 59.345 238.506 53.314 235.59 47.83 C 231.27 39.709 229.226 30.376 221.561 24.41 C 218.106 21.721 213.978 21.368 210 19.9 C 199.465 16.011 189.066 16.773 178 17.83 C 170.775 18.521 162.714 19.055 156 22.159 C 145.89 26.834 136.931 33.717 127.001 38.725 C 122.122 41.185 119.5 44.704 116.34 49 C 108.891 59.126 99.626 74.879 107 87 M 244 50 C 247.03 58.987 250.937 67.426 255 76 C 259.635 64.954 253.979 54.971 244 50 M 100 117 C 106.208 112.854 109.624 106.859 114.403 101.464 C 120.32 94.783 127.462 88.13 135 83.37 C 159.063 68.173 192.547 68.472 218.999 76.804 C 222.133 77.791 224.302 80.254 227.285 81.413 C 230.009 82.471 233.176 82.215 236 83.09 C 241.173 84.693 245.88 87.383 251 89 C 240.397 63.958 204.875 63.977 182 63.455 C 178.664 63.379 175.354 64.051 172 63.985 C 164.589 63.839 158.387 64.088 151 64.829 C 148.022 65.128 144.869 64.691 142.004 65.728 C 135.031 68.251 130.165 76.483 124.572 81.14 C 121.678 83.549 118.186 85.165 115.375 87.63 C 111.506 91.023 108.585 95.53 105.219 99.386 C 103.11 101.802 100.317 103.807 99.438 107.039 C 98.566 110.243 99.595 113.795 100 117 M 116 154 C 120.765 156.403 120.239 159.326 121.495 164 C 123.245 170.514 125.077 176.292 126.255 183 C 127.532 190.268 131.048 196.834 132.54 204 C 133.159 206.974 132.302 210.099 133.258 213 C 134.445 216.597 137.307 219.344 138.471 223 C 141.854 233.624 142.926 245.221 146 256 L 181 256 C 179.442 245.524 181.833 240.577 187.007 231.715 C 189.696 227.109 190.74 224.21 196 222 C 192.537 220.124 188.841 221.873 185 221.985 C 175.042 222.273 158.659 221.738 155 210 C 145.932 207.838 140.005 197.752 135.885 190.039 C 134.637 187.702 132.845 185.545 132.278 182.91 C 130.737 175.748 131.653 168.268 129.711 161 C 128.01 154.638 126.403 146.827 123.37 141 C 121.525 137.454 117.517 132.378 118.554 128.093 C 119.191 125.464 121.858 123.708 123.456 121.679 C 127.48 116.57 131.01 111.877 136.014 107.586 C 154.288 91.92 175.594 81 200 81 C 192.716 75.938 182.297 76.865 174 78.021 C 162.121 79.676 148.281 81.59 138.039 88.328 C 131.223 92.813 125.567 99.69 119.91 105.486 C 115 110.518 107.524 114.87 105.259 122.004 C 104.217 125.286 104.14 132.823 107.318 134.973 C 111.781 137.993 116.766 136.661 118.845 143.17 C 120.034 146.894 117.23 150.612 116 154 M 202 80 C 205.835 82.62 210.495 82 215 82 C 211.015 79.613 206.527 80.001 202 80 M 42 81 C 38.434 82.716 32.383 82.022 29.603 84.742 C 27.175 87.12 28 91.923 28 95 C 31.521 94.203 39.736 95.069 35.378 100.684 C 33.701 102.845 30.746 102.958 29 105 C 36.53 103.602 44.346 103.001 52 103 C 51.306 99.26 52.01 94.465 50.687 91 C 49.195 87.094 45.007 83.78 42 81 M 158 99 C 159.173 103.112 160.742 107.252 162.819 111 C 163.89 112.934 165.929 115.341 164.828 117.693 C 163.221 121.124 157.002 120.018 154 121.224 C 146.393 124.278 131.408 130.815 129 139 C 131.867 137.622 134.112 135.26 137.039 134.005 C 147.701 129.433 161.313 131.338 168.999 139.546 C 170.804 141.473 173.66 143.272 174.249 146.019 C 175.101 149.989 170.472 153.572 167.999 155.985 C 159.007 164.759 148.772 166.283 137 164 C 137.282 170.562 137.265 178.793 139.524 185 C 141.414 190.193 145.608 193.824 149.335 197.665 C 155.159 203.668 161.086 211.178 169.004 214.633 C 175.636 217.526 183.112 215.338 190 215.22 C 195.519 215.126 201.533 215.682 206.961 214.521 C 211.172 213.62 214.978 210.951 219 209.425 C 226.033 206.757 234.45 204.857 240.726 200.587 C 242.947 199.076 244.259 196.583 246.184 194.742 C 248.948 192.098 252.915 189.665 254.976 186.406 C 257.015 183.182 256 177.649 256 174 L 256 144 L 256 111 C 256 107.377 257.253 100.773 254.972 97.699 C 253.08 95.149 248.894 94.498 246 94 C 246.957 95.931 249.475 98.613 249.083 100.891 C 248.809 102.486 247.398 103.291 245.941 103.593 C 241.754 104.463 236.34 104.725 232 105 C 238.641 107.788 244.749 106.439 250.853 111.715 C 257.856 117.768 251.182 126.574 246.281 131.421 C 237.023 140.574 225.832 144.135 213 141.035 C 208.806 140.022 203.076 138.654 201.554 133.981 C 200.616 131.1 201.967 126.866 202.63 124 C 203.649 119.6 206.497 116.614 209 113 C 202.474 116.024 198.058 122.347 190 120.721 C 183.004 119.309 174.968 109.184 178.144 102 C 181.348 94.75 187.164 91.052 194 88 C 189.763 86.346 185.198 88.177 181 89.41 C 172.682 91.852 165.748 95.019 158 99 M 204 87 C 199.341 92.348 192.281 94.439 187.188 99.274 C 181.39 104.779 185.642 115.055 194.001 114.483 C 200.345 114.049 208.246 105.959 214 103.031 C 222.113 98.902 230.112 99.006 239 99 C 237.235 96.301 235.685 94.147 235 91 C 226.165 86.748 213.737 88.808 204 87 M 242 92 L 243 93 L 242 92 M 152 103 C 142.527 109.888 129.507 119.2 126 131 C 133.39 126.92 138.982 120.318 147.004 116.88 C 149.486 115.816 155.272 115.609 156.289 112.683 C 157.449 109.344 153.994 105.298 152 103 M 221 107 C 224.325 108.019 227.31 107.117 230 105 C 226.768 104.966 224.11 106.12 221 107 M 18 134 L 15 134 C 14.042 138.045 11.594 141.203 10 145 C 16.649 146.961 21.712 144.181 28 142.178 C 33.138 140.542 38.631 139.658 44 139.171 C 54.295 138.237 64.955 143.391 75 142 C 72.161 135.444 69.344 128.056 65.077 122.274 C 63.546 120.198 61.085 119.277 59.208 117.586 C 56.299 114.963 54.127 111.256 52 108 C 45.916 109.448 39.988 107.384 34 108.849 C 23.197 111.491 18.655 124.031 18 134 M 219 108 L 220 109 L 219 108 M 216 109 L 217 110 L 216 109 M 209 112 L 210 113 L 209 112 M 229 120 C 233.719 118.692 236.943 115.381 242 115 C 242.028 118.422 242.375 121.637 243 125 C 246.012 122.41 247.293 119.904 248 116 C 243.804 115.003 235.651 109.712 231.924 113.603 C 230.389 115.205 229.763 117.978 229 120 M 13 126 C 14.06 122.335 15.361 118.76 16 115 C 13.537 115.486 10.267 115.744 8.373 117.589 C 4.536 121.326 9.81 124.863 13 126 M 208 127 C 208.258 130.182 208.419 132.044 211 134 C 210.181 131.504 209.401 129.214 208 127 M 153 138 C 152.942 140.784 152.648 143.291 152 146 C 157.858 143.59 165.084 140.205 164 150 C 172.869 144.914 157.916 138.432 153 138 M 137 141 C 133.005 147.929 132.639 155.048 141 158 C 138.05 152.265 139.626 146.511 137 141 M 17 153 C 18.188 162.75 19.35 172.035 18.996 182 C 18.798 187.579 16.985 193.43 17.433 199 C 17.824 203.863 20.412 209.251 21.706 214 C 23.98 222.347 25.634 230.703 28 239 C 33.04 239.398 37.911 240.322 43 239.83 C 50.806 239.075 57.566 236.074 65 234.05 C 70.534 232.544 78.926 231.504 81.972 225.906 C 84.899 220.525 81.597 212.513 80.576 207 C 77.978 192.965 77.607 165.082 58 164 C 58.177 157.938 61.504 153.088 62 147 C 48.003 139.966 31.114 150.877 17 153 M 79 245 C 80.683 248.674 83.394 252.988 87.09 254.972 C 91.134 257.144 97.55 256 102 256 L 134 256 C 133.879 251.914 132.351 248.885 131.41 245 C 130.144 239.768 130.483 234.21 129.073 229 C 126.708 220.271 123.102 212.271 123 203 C 114.572 201.935 106.277 200.399 98 198.498 C 94.239 197.635 90.101 197.128 87.603 193.786 C 83.675 188.532 88.742 182.35 89.671 177 C 91.254 167.888 87.427 159.45 79.997 154.22 C 77.608 152.539 73.259 148.868 70.096 149.875 C 67.15 150.813 64.333 155.467 66.072 158.367 C 67.114 160.105 69.359 161.052 70.82 162.39 C 74.286 165.564 78.203 170.532 79.75 174.996 C 84.252 187.986 84.255 201.496 87.455 214.715 C 88.675 219.754 93.017 228.12 91.833 232.996 C 90.314 239.251 84.12 242.153 79 245 M 7 152 C 5.47 159.52 5.914 163.117 13 167 C 12.876 160.789 14.61 152.876 7 152 Z" transform="matrix(1, 0, 0, 1, 0, 7.105427357601002e-15)"/>
	<path style="fill:#ffffff; stroke:none;" d="M 234.965 159.346 C 231.712 160.312 229.457 164.562 227.385 166.981 C 224.3 170.584 220.193 173.83 216 176.081 C 212.284 178.076 207.955 178.302 204 179.598 C 199.919 180.935 196.157 183.115 192 184.275 C 184.287 186.427 175.923 186.757 168.005 187.023 C 165.783 187.098 159.91 188.939 163.623 191.977 C 167.175 194.884 174.909 192.219 179 192.039 C 194.913 191.342 213.544 186.876 225.715 175.742 C 229.195 172.557 234.976 169.309 236.922 164.957 C 237.754 163.095 238.678 158.243 234.965 159.346 M 203.981 162.346 C 199.502 163.525 197.686 168.986 192.961 170.097 C 188.448 171.158 180.137 165.466 176.786 168.782 C 174.412 171.131 176.936 174.043 179.11 175.235 C 183.3 177.535 188.45 177.943 192.961 176.47 C 196.998 175.151 203.95 171.031 206.623 167.738 C 208.518 165.405 207.632 161.384 203.981 162.346" transform="matrix(1, 0, 0, 1, 0, 7.105427357601002e-15)"/>
	<path style="fill:#000000; stroke:none;" d="M 13 183 C 12.833 179.748 12.114 177.054 11 174 C 3.994 176.749 6.234 182.625 13 183 M 255 195 C 249.911 200.699 240.941 202.722 240 211 C 245.711 209.688 250.595 211.015 256 213 C 256 207.368 257.191 200.222 255 195 M 157 207 L 158 208 L 157 207 M 206 221 C 207.199 226.032 207.423 231.025 209 236 C 221.383 235.934 232.389 222.905 234 211 C 224.309 212.431 215.377 218.117 206 221 M 240 215 C 238.189 223.657 233.941 227.721 228.12 233.986 C 225.101 237.235 221.239 241.546 216.996 243.127 C 208.145 246.426 201.154 235.186 201 228 C 193.953 229.185 194.606 234.454 196.684 240 C 199.111 246.477 202.984 255.533 211 255.923 C 216.7 256.2 219.877 252.169 224.039 249.011 C 231.726 243.178 239.518 238.476 245.83 230.985 C 247.651 228.824 253.465 223.214 252.539 220.124 C 251.248 215.812 243.514 215.847 240 215 M 254 230 C 246.379 240.04 236.798 247.193 227 255 C 229.891 256.213 232.869 255.999 236 256 C 239.778 256.001 245.146 256.952 248.675 255.397 C 257.918 251.323 256 237.962 256 230 L 254 230 M 85 232 L 78 237 C 81.465 237.696 84.178 235.335 85 232 M 54 244 C 60.35 245.524 72.479 242.67 77 238 C 69.117 238.645 61.609 241.969 54 244 M 196 256 L 190 241 C 185.187 243.654 184.884 251.531 189.647 254.972 C 191.419 256.252 193.945 255.976 196 256 M 28 245 C 32.2 250.518 47.158 248.014 53 246 C 49.346 244.481 45.842 245.648 42 245.91 C 37.245 246.236 32.693 245.593 28 245 Z" transform="matrix(1, 0, 0, 1, 0, 7.105427357601002e-15)"/>
	<path style="fill:#ffffff; stroke:none;" d="M255 247C253.166 249.985 251.259 252.725 250 256L256 256C255.998 252.874 256.213 249.89 255 247z" transform="matrix(1, 0, 0, 1, 0, 7.105427357601002e-15)"/>
</svg>