<?xml version="1.0" standalone="yes"?>
<svg xmlns="http://www.w3.org/2000/svg" width="256" height="256">
	<path style="fill:#ffffff; stroke:none;" d="M51 55C62.0366 55 73.0215 54.0134 84 54C90.1829 53.9924 96.2789 55.7374 102 53C102.295 55.9678 103.571 59.0278 103.415 62C103.059 68.8052 100.643 74.9197 101.093 82.0039C103.309 116.957 103.305 152.012 103.004 187C102.957 192.411 104.11 197.593 104 203C101.991 202.522 100.074 202.094 97.9954 202.055C86.0073 201.831 88.1512 211.791 88.1512 220.576C88.1512 227.375 86.8726 238.412 96.0039 239.852C106 241.429 117.972 238.767 128 237.951C134.626 237.411 141.332 239.075 148 238.996C153.098 238.936 161.61 238.764 165.682 235.272C171.647 230.158 165.155 219.01 164.248 213C163.745 209.661 165.19 206.178 162.551 203.434C159.642 200.409 154.81 201.003 151 201C151.885 189.784 149.243 180.095 148.17 169C147.052 157.451 147.883 145.593 147.09 134C146.599 126.836 146.599 119.164 147.09 112C147.344 108.282 148.303 104.739 147.624 101C145.781 90.8548 143.446 80.3601 143.039 70C142.907 66.6538 142.176 61.2379 144.742 58.6026C148.166 55.0878 155.811 57.206 160 57.7137C165.86 58.424 172.162 59.769 178 59.9815C185.409 60.2511 192.625 59.0203 200 59C200.004 65.2388 201.13 70.9233 202.346 77.0147C202.739 78.9817 202.706 81.7709 204.024 83.3966C205.925 85.7407 210.355 84.9978 213 85C220.414 85.0062 233.133 88.4135 239.529 83.436C244.398 79.647 243.938 73.4664 244.004 68C244.048 64.3248 245.007 60.6573 244.846 57C244.504 49.2048 242.168 41.7332 241.168 34.0895C240.633 30 243.513 25.1282 240.972 21.3179C238.648 17.8323 231.599 18.8083 228 19.054C224.948 19.2624 222.052 20.7423 219 20.662C215.884 20.5801 213.194 19.1204 210 19.5069C203.783 20.2593 198.418 22.4385 192 21.8302C177.561 20.4618 163.427 24.1122 149 23.9174C145.093 23.8647 141.825 21.5957 138 21.3827C133.717 21.1442 129.344 22.1506 125 21.9606C102.353 20.9704 79.6049 19.9183 57 17.831C46.2209 16.8357 35.7618 16.9245 25 17.9252C20.8321 18.3127 14.8801 18.047 12.4568 22.1481C9.16529 27.7185 12.1385 36.0203 12.6998 42C13.0473 45.7009 12.0651 49.3025 12.0185 53C11.9347 59.65 12.4037 66.3513 12.5448 73C12.6364 77.3185 10.0902 84.8916 13.6034 88.3958C15.5921 90.3795 18.8842 89.8336 21.4236 89.858C28.6239 89.9272 35.6945 89.007 42.8302 88.9375C46.5586 88.9012 50.3834 90.2321 52.2577 85.8904C54.7208 80.1848 51.521 72.7494 50.7639 67C50.2539 63.1273 50.9974 58.9215 51 55z"/>
	<path style="fill:#000000; stroke:none;" d="M21 29C18.9684 39.9431 22.2281 51.0151 22.9097 62C23.2971 68.2427 21.2018 73.6451 22 80C28.7899 80.3957 35.2693 79.8506 42 79C41.5919 69.47 37.9697 54.8691 45.5486 47.2785C49.1802 43.6414 56.3107 45 61 45C70.7063 45 80.2871 46.386 90 45.9606C96.9943 45.6544 105.079 43.9196 110.258 50.429C113.113 54.0172 110.138 58.0575 110.313 62C110.419 64.3861 111.489 66.5933 111.492 69C111.5 76.2966 109.586 83.7243 109.718 91C109.807 95.8898 112.577 100.165 112.656 105C112.722 109.025 111.231 112.982 111.299 117C111.35 120.072 112.736 122.926 112.946 126C113.462 133.56 113.171 141.425 112.985 149C112.837 155.052 111.672 160.896 112.09 167C112.331 170.52 112.573 174.609 113.544 178C114.22 180.359 115.714 182.469 115.713 185C115.712 188.257 113.339 190.852 112.848 194C112.27 197.71 114.378 201.228 113.847 204.996C112.743 212.839 104.16 212.996 98 213L98 230C106.469 229.93 115.576 229.83 124 228.871C127.06 228.523 129.886 227.11 133 227.147C141.273 227.247 148.594 230.485 157 228C156.226 223.818 157.775 215.89 155.008 212.603C153.128 210.37 149.501 211.254 147.019 210.258C142.974 208.634 141.958 204.917 141.251 201C140.27 195.568 140.662 190.419 140.157 185C138.306 165.169 136.493 144.971 137.015 125C137.122 120.875 138.664 117.079 138.892 113C139.08 109.635 137.95 106.354 138.248 103C138.46 100.603 139.351 98.4438 139.081 96C137.773 84.1488 134.98 73.0122 135 61C135.009 55.634 135.406 49.5816 141.093 47.0278C145.636 44.988 151.408 48.2655 156 48.8156C167.091 50.1442 178.829 50.8933 190 49.8302C195.3 49.3259 202.292 47.3764 206.721 51.4336C213.693 57.8196 205.978 68.8997 211.934 75.3966C215.215 78.9749 223.846 76.4451 227.995 75.9954C229.733 75.8071 231.772 75.7418 232.972 74.2577C234.939 71.8265 233.944 66.8996 234.015 64C234.108 60.1675 235.004 56.4182 234.688 52.5756C234.337 48.3283 232.546 44.2059 232.38 40C232.227 36.142 235.004 30.9402 229.927 29.2994C226.133 28.0733 220.964 26.6881 217 27.3804C211.761 28.2954 207.131 31.8734 202 32.6111C194.979 33.6205 187.075 30.8278 180 30.5949C175.608 30.4503 171.402 32.0306 167 31.946C160.974 31.8301 155.037 30.0014 149 30.0301C145.927 30.0447 143.029 31.2488 140 31.25C137.621 31.2509 135.396 30.2206 133 30.2886C129.936 30.3755 127.077 31.7547 124 31.8673C119.643 32.0267 115.352 30.5616 111 30.4552C106.656 30.3491 102.38 31.2172 98 30.9105C84.3448 29.9543 70.7245 28.7157 57 27.9568C53.9474 27.788 51.0536 26.6557 48 26.6335C38.9704 26.5679 30.0465 28.975 21 29z"/>
	<path style="fill:#ffffff; stroke:none;" d="M186.044 201.858C183.767 202.841 182.103 204.641 181.438 207.04C180.726 209.606 181.326 212.385 181.29 215C181.209 220.955 179.547 230.774 184.563 235.396C186.886 237.536 190.186 236.644 192.961 236.235C199.373 235.29 205.791 236.606 211.891 233.775C213.68 232.945 215.015 231.876 215.527 229.891C216.181 227.357 215.263 224.549 215.09 222C214.748 216.988 216.471 209.572 213.142 205.314C211.436 203.132 208.568 202.69 206 202.275C200.109 201.324 191.759 199.39 186.044 201.858z"/>
	<path style="fill:#000000; stroke:none;" d="M192 228C193.665 228.134 195.353 228.361 197.025 228.197C206.608 227.257 205 219.443 205 212C201.501 211.971 192.516 209.304 189.886 212.028C188.546 213.416 189.72 215.506 190.168 217.005C191.235 220.568 191.708 224.3 192 228z"/>
</svg>