<?xml version="1.0" standalone="yes"?>
<svg xmlns="http://www.w3.org/2000/svg" width="256" height="256">
	<path style="fill:#ffffff; stroke:none;" d="M140 236L140 234C144.524 231.787 148.659 228.545 154 229.159C159.765 229.822 164.612 235.097 170.853 232.397C174.055 231.011 175.423 226.016 176.559 223C178.405 218.101 178.386 212.841 180.133 208C182.575 201.233 186.672 195.53 186 188C193.689 182.963 196.334 169.883 200.123 162C201.648 158.828 204.108 156.208 205.583 153C208.144 147.431 209.348 141.555 212.262 136C219.038 123.079 226.194 110.823 230.648 97C232.348 91.7233 236.681 86.6673 239.857 82.1698C241.586 79.7219 244.082 77.294 242.953 74.0401C241.435 69.6678 234.836 67.2739 230.961 65.5039C219.695 60.3585 208.09 52.8732 196 50C198.074 47.7732 200.538 45.5033 201.864 42.7145C203.424 39.4358 203.359 36.7237 206 34C206 36.7031 205.231 41.1286 207.028 43.3966C208.355 45.0725 210.921 45.0443 212.831 44.7361C219.409 43.6749 225.226 43 232 43C230.278 44.3112 228.59 45.608 226.995 47.0756C225.131 48.7895 218.342 58.8635 226.058 57.2631C230.877 56.2636 234.697 50.6066 237.579 47.0502C239.022 45.2683 242.693 42.1945 240.914 39.5887C239.307 37.2361 235.279 38.2809 233 38.5756C226.093 39.4687 218.955 39 212 39C212.159 35.3565 214.456 29.6465 212.592 26.3218C210.791 23.1098 205.973 24.5039 203.836 26.564C199.048 31.1797 194.273 39.8015 192 46C186.857 43.2584 181.259 42.097 176.09 39.7338C173.699 38.6411 172.049 36.4411 169.91 34.9653C167.204 33.0977 164.022 32.0864 161.285 30.2747C157.542 27.796 154.605 24.2738 151 21.6088C144.115 16.5188 135.469 12.6868 127 11.26C115.741 9.36334 104.789 14.8889 95 19.7523C85.4018 24.5212 76.5106 30.5747 68.5756 37.7052C66.0145 40.0067 62.8697 41.2349 60.7539 44.0579C55.1195 51.575 56.3098 59.7357 53.409 68C51.5568 73.2765 49.8553 79.0428 47.1759 83.9606C45.2198 87.5511 42.1749 90.251 40.4429 94.0039C38.0267 99.2392 37.3481 104.695 35.4159 109.961C34.4543 112.581 32.287 114.487 31.2623 117.09C25.2214 132.435 22.5783 150.094 18.3951 166C16.6982 172.452 10.8958 182.342 14.4344 188.852C16.7272 193.07 21.5097 191.234 25.2855 192.519C32.1456 194.852 37.4801 200.083 44 203.1C51.1147 206.392 57.1603 211.4 64.0895 214.84C66.6019 216.087 69.3821 215.662 71.9606 216.587C74.6009 217.534 76.5489 219.722 79.0895 220.892C84.8693 223.553 91.1598 225.056 96.9992 227.77C103.679 230.875 108.999 234.991 116 237.544C123.872 240.415 132.95 247.322 141.852 244.682C147.716 242.943 143.546 237.304 140 236z"/>
	<path style="fill:#000000; stroke:none;" d="M217 104C219.527 99.7379 223.187 96.1642 225.559 91.9105C228.141 87.2786 229.213 81.033 231 76C224.979 75.0922 215.76 71.5951 213 66C207.226 65.4315 202.32 60.9648 197 58.6759C179.512 51.152 164.069 40.191 147 31.6289C141.141 28.6897 131.925 20.2856 125.043 21.4221C119.202 22.3867 115.528 35.0573 113.985 39.9846C113.269 42.2735 113.396 44.0637 115.322 45.6512C123.39 52.3024 133.15 56.1502 141.999 61.4529C145.733 63.6902 148.456 67.5386 152.209 69.5046C173.654 80.739 196.724 90.7578 217 104M113 22C108.367 25.0996 102.98 26.4345 98 28.9035C84.4168 35.6384 68.1767 46.7352 64 62C71.058 60.3235 75.8507 56.2333 82 52.7276C85.4426 50.7651 89.2912 50.0407 92.8302 48.3673C96.2296 46.7599 98.1012 45.0521 102 45C102.93 39.7852 105.534 34.5773 108.348 30.0895C110.09 27.3115 112.797 25.3371 113 22M109 50C103.995 57.8335 102.774 65.8704 98.7523 74C97.3691 76.7959 93.9114 81.4098 94.8164 84.7006C95.413 86.8701 98.2007 87.6682 100.005 88.4838C104.602 90.5626 109.524 92.0123 114 94.3233C120.228 97.5392 126.012 101.656 132.17 104.88C135.703 106.729 139.5 107.595 142.961 109.735C145.868 111.533 148.104 114.196 151.039 115.915C156.411 119.062 162.416 119.367 167 124C176.383 124.735 184.18 132.374 192.17 136.628C194.866 138.063 199.602 140.627 202.61 138.929C207.825 135.983 209.159 126.07 211.285 121C213.11 116.647 214.756 112.756 215 108C206.183 106.938 196.834 99.6951 189 95.5563C173.103 87.1582 157.222 78.9079 142 69.304C131.145 62.4557 121.626 53.6444 109 50M99 52C89.3864 55.6332 80.2735 59.5045 71 64C67.8143 65.5443 62.4506 66.9416 60.0748 69.588C55.8067 74.3422 52.6254 85.7603 52 92C60.5846 91.602 67.9704 87.3023 76 84.5424C79.1145 83.472 82.9562 83.1009 85.2724 80.5008C88.542 76.8304 89.0536 70.3425 91.4097 66C93.8532 61.4964 98.8421 57.3044 99 52M26 175C31.5058 174.871 41.087 173.604 45.216 169.687C48.6057 166.471 48.1996 162.979 49.7168 158.985C51.3688 154.637 55.0265 151.375 56.8341 147.09C58.1895 143.876 57.8041 140.282 58.9653 136.999C60.8179 131.762 64.5731 127.824 67.1026 123C69.227 118.949 69.6258 114.176 71.5178 110C74.6966 102.984 78.4934 97.7423 80 90C72.1382 91.9958 65.013 93.7748 57.7145 97.3673C55.4386 98.4875 52.5411 98.8098 50.6489 100.589C48.578 102.536 47.9463 105.58 46.5872 107.985C45.1578 110.515 42.6898 112.473 41.5957 115.17C40.0126 119.073 40.1795 123.905 38.9637 128C34.4408 143.235 26.0106 158.932 26 175M90 93C89.2415 99.8517 84.0082 104.731 81.4537 111C78.7597 117.611 76.9706 124.503 73.9306 131C72.2599 134.57 69.5005 137.473 67.7461 141C62.3145 151.919 57.8394 163.216 55 175C60.293 176.077 62.2058 179.736 66.1844 182.96C70.0665 186.106 74.5567 188.515 79 190.752C96.2978 199.464 114.724 204.37 133 210.864C144.588 214.982 154.263 221.443 167 222C167.171 214.724 171.602 210.638 173.752 204.039C176.224 196.454 177.26 188.434 180.348 181C185.46 168.692 193.382 158.035 199 146C194.306 144.779 191.211 141.488 187 139.249C179.909 135.479 171.75 133.93 166 128C158.369 127.618 153.308 122.142 146.91 118.745C141.483 115.864 136.319 111.876 130.91 109.21C127.405 107.482 123.525 107.07 120 105.138C110.289 99.8173 101.283 93.5741 90 93z"/>
	<path style="fill:#ffffff; stroke:none;" d="M40 169L40 165C37.3672 164.793 33.7595 163.621 31.233 164.643C28.6813 165.674 28.1069 169.301 31.1636 170.072C33.7414 170.722 37.3496 169.231 40 169z"/>
	<path style="fill:#000000; stroke:none;" d="M45 182C52.2942 191.711 65.3557 196.178 76.0147 201.394C82.4266 204.532 87.6779 207.843 95 208C91.7198 205.994 87.5616 205.593 84.0147 203.741C74.8233 198.941 66.3503 192.984 57.0039 188.505C52.3759 186.287 50.4297 182.418 45 182M29 186C35.7244 190.06 43.645 194.307 51 197C46.416 191.998 35.9424 181.957 29 186M53 198C54.2228 199.195 54.42 199.316 56 200C54.8607 198.985 54.3884 198.691 53 198M61 202C62.988 204.061 64.157 204.579 67 205C65.0775 203.707 63.1601 202.858 61 202M73 207C75.4099 209.734 77.3817 210.599 81 211C78.5041 209.193 75.8949 208.053 73 207M96 208L97 209L96 208M99 209C101.244 211.116 102.931 211.668 106 212C103.786 210.599 101.496 209.819 99 209M82 211C84.2143 212.401 86.5037 213.181 89 214C87.1357 211.356 85.17 211.173 82 211M108 212C111.076 215.42 114.92 216.59 119 218.546C124.49 221.179 131.06 226.983 137 223C127.584 218.538 117.899 215.221 108 212M90 214C94.2602 222.119 108.404 222.497 116 226.402C120.933 228.938 124.199 232.413 130 231C123.953 228.492 118.883 224.43 113 221.49C105.839 217.911 97.7233 215.861 90 214z"/>
</svg>