<?xml version="1.0" standalone="yes"?>
<svg xmlns="http://www.w3.org/2000/svg" width="256" height="256">
	<path style="fill:#ffffff; stroke:none;" d="M88 95C83.6993 97.6008 78.1662 100.346 75.0463 104.376C71.2168 109.322 70.0223 115.167 68.4059 121C64.7613 134.151 64.7108 149.649 68 163C61.8945 165.414 53.7242 169.273 49.2091 174.093C45.6655 177.877 43.641 183.1 39.6752 186.49C36.5557 189.157 32.299 191.167 28.9105 193.611C23.0489 197.84 15.6655 197.251 15 206L11 206C10.8579 212.886 10.4692 220.138 9.83025 227C9.57977 229.69 8.42596 233.168 10.6034 235.386C13.5663 238.403 21.1041 236.654 24.9105 236.883C28.081 237.073 30.8534 238.632 34.0039 238.878C42.2651 239.523 50.7615 238.654 59 238.09C69.4989 237.371 80.4283 238.922 91 238.997C122.067 239.217 152.893 240 184 240C195.171 240 206.569 239.253 217.715 239.951C224.175 240.355 230.436 241.508 236.996 240.941C242.459 240.469 247.938 235.699 247.902 229.996C247.878 226.169 245.883 222.738 245.304 219C244.825 215.905 245.589 212.194 243.4 209.634C236.799 201.913 223.54 200.957 215.188 195.725C207.4 190.847 204.862 179.65 198.385 173.414C195.435 170.574 191.593 167.199 187.957 165.324C184.379 163.479 179.225 162.509 177.028 158.787C175.256 155.785 176.058 151.355 175.572 148C175.05 144.398 173.418 140.621 173.418 137C173.418 134.283 174.659 131.706 174.893 129.001C175.81 118.371 175.953 102.837 166.956 95.3935C164.325 93.2171 161.182 92.0857 158 91C162.961 82.0354 167.988 74.761 168 64C168.009 55.9163 165.969 46.9768 161.66 40C157.765 33.6942 152.273 26.7619 145.91 22.8704C140.823 19.7589 134.95 16.3716 129 15.3287C112.502 12.4369 91.54 22.3349 82.3596 36.2091C77.7679 43.1485 77.0031 51.9345 77 60C76.9946 74.0529 78.2287 84.1767 88 95z"/>
	<path style="fill:#000000; stroke:none;" d="M120 25.4398C109.97 26.9741 96.8908 32.5148 91.0887 41.3002C89.0716 44.3544 88.6655 48.4946 87.8843 52C84.7826 65.917 86.4939 82.0865 99.0008 90.8912C105.411 95.4037 112.621 94.0005 120 94C124.566 93.9997 129.487 94.5076 134 93.74C148.618 91.2538 159.374 74.3423 157.892 60C156.094 42.6025 138.77 22.5685 120 25.4398M141 179C152.855 177.386 153.429 162.687 166 162C166 156.677 165.065 151.262 165.194 146C165.269 142.912 166.792 140.09 166.792 137C166.792 133.246 165.062 129.821 165.146 126C165.29 119.455 165.953 109.354 160.656 104.498C151.575 96.1734 142.107 103.514 132 103.961C125.189 104.262 117.765 104.589 111 103.711C106.923 103.181 102.109 101.049 98 101.874C82.7924 104.928 77.6491 120.803 75.8943 134C75.0322 140.483 75.6177 148.488 76.2716 155C76.4751 157.026 76.3152 159.855 77.2986 161.683C79.0882 165.01 86.7758 166.133 90 168.13C96.8421 172.367 100.409 179.919 107 184.606C115.89 190.927 136.785 190.962 141 179z"/>
	<path style="fill:#ffffff; stroke:none;" d="M137.585 124.086C134.065 126.587 138.328 132.989 138.946 136C141.01 146.056 139.212 155.047 138.498 164.981C138.339 167.192 139.534 170.819 142.455 168.914C144.836 167.361 145.348 162.557 145.697 160.001C146.863 151.459 145.843 142.295 143.715 134C143.155 131.82 141.861 121.049 137.585 124.086M99 126C94.8032 135.482 96 145.847 96 156C96 162.638 94.8508 168.729 103 169C103.576 163.566 102.068 158.428 102.004 153C101.901 144.346 103.463 134.332 101 126L99 126z"/>
	<path style="fill:#000000; stroke:none;" d="M165.015 168.652C158.446 170.724 158.378 177.238 153.736 181.2C150.164 184.249 145.155 184.416 142.062 188.144C140.085 190.529 138.395 194.553 141.518 196.821C147.264 200.994 157.061 194 164 197.032C174.118 201.452 183.635 211.647 195.955 207.056C203.811 204.129 201.243 194.74 197.829 189.576C191.559 180.09 178.363 164.442 165.015 168.652M107 192C97.1773 185.856 90.482 171.504 78 170.313C65.0064 169.073 57.5172 179.017 50.2045 187.701C46.5208 192.076 40.0028 195.648 44.8935 202.245C56.0706 217.322 77.2864 199.746 90 196.745C95.8991 195.353 104.777 199.033 107 192M132 193C127.177 194.426 121.671 192.894 117.039 194.742C113.432 196.182 111.483 199.899 107.985 201.567C101.851 204.494 94.3164 202.177 88 201C85.1855 204.09 81.72 205.226 78.1698 207.315C75.6656 208.788 73.669 210.979 70.9853 212.16C64.201 215.148 51.484 215.652 45.0154 211.772C42.6826 210.372 40.7585 208.469 39.6073 205.986C38.632 203.883 38.6356 200.478 35.8565 199.832C32.6686 199.091 30.7221 202.658 28.625 204.316C25.3087 206.939 21.1286 208.033 17 208C17.192 212.472 16.4743 222.996 19.6034 226.298C23.7289 230.651 29.0777 227.898 34 228.262C44.9967 229.076 56.8517 230.891 68 229.83C88.89 227.842 111.026 228.404 132 229.058C135.065 229.153 137.938 230.343 141 230.367C172.965 230.611 205.077 231 237 231C237.183 225.732 237.797 219.888 234.101 215.498C231.258 212.122 225.871 211.336 222 209.664C216.79 207.413 212.905 203.613 208 201C206.326 204.265 204.876 208.24 201.87 210.537C199.482 212.363 196.812 212.082 194 212.39C187.971 213.052 182.927 214.121 177 211.788C171.31 209.547 166.81 204.545 161 202.786C152.653 200.26 143.833 209.005 136.314 201.47C134 199.151 133.644 195.722 132 193z"/>
</svg>