<?xml version="1.0" standalone="yes"?>
<svg xmlns="http://www.w3.org/2000/svg" width="256" height="256">
	<path style="fill:#ffffff; stroke:none;" d="M33.1481 26.0324C27.8445 29.0609 30.5567 38.9517 29.1157 44C27.4901 49.6954 28.717 54.9487 28.3202 60.7145C27.4416 73.4809 25.7855 86.2107 24.9105 99C24.5738 103.921 22.5763 113.41 26.6034 117.396C28.8476 119.617 32.2447 118.512 35 118.455C40.9804 118.331 46.061 117.886 52 117.184C60.5293 116.177 69.6172 118.546 78 119.535C80.6797 119.852 83.3172 119.062 86 119.129C94.0438 119.331 101.893 120.113 110 119.808C114.771 119.628 121.343 122.73 125.721 119.972C130.889 116.717 128.018 110.415 126.835 106C125.626 101.486 127.037 97.4732 126.701 93C126.339 88.1918 123.937 83.9625 123.852 79C123.681 68.9854 122.375 59.0018 122.004 49C121.86 45.1353 123.129 38.6638 120.971 35.3032C118.272 31.0983 109.406 31.5282 105 30.5764C97.8784 29.0381 91.2053 29.4344 84 29.0656C77.9745 28.7572 72.0085 27.3214 66 27.054C61.3278 26.8461 56.6848 27.9551 52 28C49.2139 28.0267 45.8901 28.754 43.1698 28.1304C39.6167 27.3159 37.0769 23.789 33.1481 26.0324M219 43C219.074 51.9814 221.36 60.6811 222.062 69.5756C222.523 75.4218 220.776 81.2191 221.184 87C221.438 90.5923 221.696 94.4482 222.258 98C222.589 100.085 223.9 102.623 222.843 104.683C220.389 109.467 210.38 108.997 206.004 109.165C201.924 109.322 198.905 107.349 194.985 107.198C180.975 106.657 167.032 108.602 153 108C154.811 98.2457 151.865 89.6057 151.093 80C149.911 65.2905 151.358 51.1712 147 37L141 37C140.14 57.0314 139.841 78.2077 143.626 98C144.485 102.494 142.437 111.951 145.743 115.257C148.923 118.436 156.804 115.943 161 116.59C173.614 118.535 185.408 116.181 198 116.796C203.026 117.042 206.734 120.459 212 119.671C216.569 118.988 229.415 117.996 230.667 112.941C231.397 109.997 230.066 106.971 230.349 104C230.904 98.1604 232.457 93.0381 231.896 87C230.99 77.2541 227.576 67.588 227.885 57.7145C228.067 51.8923 231.737 40.4998 227.258 35.7029C223.892 32.0987 217.374 33.2503 213 32.0725C204.95 29.9047 197.433 27.001 189 26.1991C185.263 25.8437 181.71 27.3185 178 27.1057C174.589 26.9101 171.482 25.7597 168 26.1296C163.651 26.5916 152.342 27.4808 150.623 32.1049C149.201 35.9283 152.289 38.8403 156.005 38.5123C163.609 37.8411 171.149 34.6948 179 34.8781C182.105 34.9506 184.949 36.3812 187.999 36.7878C192.703 37.4148 197.299 37.0804 201.961 38.4028C207.962 40.1048 212.516 42.4883 219 43z"/>
	<path style="fill:#000000; stroke:none;" d="M40 36C39.6027 38.8013 38.2828 41.2418 37.8302 44C37.2896 47.2955 38.2964 50.665 37.74 54C37.1695 57.4189 35.5635 60.5217 35.1744 64C34.1848 72.8445 35.102 82.1052 34.9961 91C34.9177 97.5939 33.7754 103.404 35 110C41.6429 108.875 48.1724 107.029 55 107.029C64.7817 107.029 74.326 110.123 84 110.892C88.6445 111.261 93.3341 110.023 98 110.001C102.569 109.979 115.993 113.117 118.628 108.682C121.034 104.633 117.039 96.3941 116.53 92C115.209 80.5946 113.465 69.5193 112.961 58C112.729 52.7158 111.749 48.2582 113 43C102.563 37.7712 92.2077 39.2603 81 38.8711C76.5368 38.7162 72.502 36.7061 68 36.8187C58.1852 37.0642 49.667 38.7166 40 36z"/>
	<path style="fill:#ffffff; stroke:none;" d="M173 137C166.052 134.946 152.895 132.95 150 141C141.646 139.085 141.7 146.681 142.05 152.996C142.901 168.336 143.621 183.585 144.051 199C144.185 203.794 143.555 212.82 146.742 216.682C149.039 219.465 152.805 218.852 156 218.848C163.009 218.84 169.997 218.803 177 218.71C183.199 218.627 191.797 220.942 197 217C203.559 221.717 210.637 218.836 218 217.421C221.722 216.705 226.549 216.022 229.811 213.991C234.778 210.898 235.705 202.393 231 199C232.889 191.067 231.834 182.531 231.849 174.424C231.86 168.25 232.928 162.181 233.004 156C233.058 151.631 235.39 145.196 232.972 141.228C230.328 136.889 224.036 138.46 219.83 137.415C215.273 136.283 211.522 137.193 207 136.828C204.148 136.598 201.741 135.058 199 134.414C193.593 133.142 187.475 132.83 182 133.576C178.367 134.071 175.217 133.862 173 137M111 148C111.103 152.363 112.922 155.808 113.521 160C114.26 165.174 113.481 170.689 114.181 176C114.669 179.709 116.294 183.261 116.548 187C116.739 189.81 115.398 192.247 115.179 195C114.818 199.541 115.997 204.39 116 209C112.182 209.198 108.763 210.735 105 211.035C97.3708 211.643 89.6344 210.564 82 211.09C78.0204 211.364 73.981 212.875 70 212.76C66.6164 212.662 63.4431 211.158 60 211.012C55.3705 210.815 42.8803 211.711 40.0278 207.566C37.5241 203.929 39.0196 196.226 38.9992 192C38.9667 185.246 38.6788 177.791 37.8711 171.09C37.1855 165.4 35.3173 160.942 36.5139 155C37.4562 150.321 42.6133 137.169 34.9066 135.492C28.1764 134.028 27.6953 144.734 28.1852 149C28.6963 153.451 30.1263 157.431 29.9807 161.996C29.878 165.216 28.507 167.952 28.1289 171.09C27.4824 176.454 28.5466 181.686 28.9105 187C29.2788 192.378 28.5438 197.716 29.8611 203C30.9395 207.326 29.5787 216.022 34.2284 218.262C38.4636 220.302 44.4179 219.794 49 220.425C56.7899 221.498 65.1632 222.914 73.0147 222.614C82.4302 222.254 91.6944 219.399 101 218.992C106.934 218.732 121.155 223.243 123.542 214.891C124.6 211.188 123.669 206.824 124.126 203C125.608 190.576 126.186 179.533 123.726 167C123.111 163.865 121.223 161.186 120.773 158C120.144 153.54 123.647 142.305 118.682 139.742C113.984 137.316 106.146 138 101 138C90.5177 137.999 80.3064 139.173 70 139.621C66.979 139.753 64.0532 138.894 61.0039 139.184C56.4155 139.622 44.2963 136.954 44.2963 144.015C44.2963 152.352 54.5764 148.868 59.4244 148.865C76.5406 148.855 93.7307 147.904 111 148z"/>
	<path style="fill:#000000; stroke:none;" d="M152 145C152 149.908 150.688 155.211 151.121 160C151.639 165.719 153.733 171.226 153.96 177C154.174 182.452 153.087 187.533 153.715 193C154.165 196.921 152.096 203.099 154.333 206.486C157.66 211.526 169.988 209.126 175 208.754C183.023 208.158 191.107 210.347 199 210.031C203.331 209.857 207.798 208.548 212 207.594C215.105 206.889 218.935 207.504 221.687 205.683C223.636 204.393 224.543 201.758 226 200C219.896 183.253 223 164.404 223 147C211.661 146.765 200.455 142.954 189 143.259C176.702 143.587 164.227 147.81 152 145z"/>
</svg>