<?xml version="1.0" encoding="utf-8" standalone="yes"?>
<svg xmlns="http://www.w3.org/2000/svg" width="256" height="256">
	<path style="fill:#fff;" d="M128 14.4715C123.088 15.3297 118.663 17.9143 114 19.5602C105.908 22.4166 97.995 25.0478 90 28.2855C74.1313 34.7118 57.5593 39.724 42 46.9198C36.1247 49.6369 29.8746 51.5527 24.0008 54.3495C21.7478 55.4223 18.6402 56.2558 17.179 58.429C13.9465 63.2369 16.0552 74.4993 16.5363 80C16.8596 83.6976 15.8494 87.2996 16.0579 91C16.2128 93.7512 17.3844 96.275 17.571 99C18.1301 107.165 17.5315 115.645 18.037 123.91C18.2954 128.135 16.2255 131.801 16.0679 135.985C15.6285 147.655 15.8267 159.375 15.4059 171C15.1444 178.224 12.4426 187.041 15.7029 193.892C17.1527 196.939 20.2512 198.127 23.0008 199.745C28.6008 203.042 34.3608 205.966 40 209.186C52.8864 216.545 67.0135 223.244 81 228.211C84.6572 229.51 88.5901 229.465 92.1698 231.049C100.531 234.748 108.154 238.114 117 240.593C122.013 241.998 126.672 243.765 131.999 242.725C135.157 242.109 137.402 240.016 140.285 238.814C145.91 236.469 152.228 235.103 158 232.908C177.093 225.648 195.519 218.254 214 209.799C220.169 206.976 226.794 205.165 232.999 202.383C235.715 201.165 238.829 200.529 240.427 197.772C243.232 192.936 241.596 186.31 242.13 181C243.937 163.054 242.21 143.754 239.897 126C239.35 121.802 238.803 116.193 239.252 112C239.587 108.878 241.504 106.158 241.603 103C241.732 98.8357 239.931 95.2947 240.598 91C241.969 82.1777 245.803 69.8933 242.396 61.0185C240.749 56.7285 236.83 56.4426 233 55.2762C228.115 53.7885 223.43 51.5731 219 49.0718C200.652 38.7121 180.024 33.9243 161 25.2454C153.579 21.8599 146.833 18.7663 139 16.5208C135.102 15.4035 132.196 13.7383 128 14.4715z" transform="matrix(1, 0, 0, 1, 0, -3.552713678800501e-15)"/>
	<path style="fill:#000;" d="M 26 64 C 24.524 77.956 25.954 92.036 26.911 106 C 27.41 113.295 24.839 120.866 25.853 128 C 26.373 131.653 28.605 134.611 29.871 138 C 32.115 144.003 33.616 150.118 36.309 156 C 41.181 166.64 48.23 177.191 54.872 186.83 C 58.924 192.712 65.41 199.727 66 207 C 69.869 209.217 72.17 213.071 76.015 215.363 C 81.279 218.5 87.604 219.028 93 222 C 91.112 217.191 87.353 213.546 84.887 208.999 C 82.262 204.161 80.486 198.769 77.729 194.039 C 71.791 183.853 64.561 174.371 58.735 164 C 51.471 151.067 46.548 136.498 40.22 123 C 36.523 115.114 31.524 106.413 29.38 97.999 C 28.884 96.055 27.417 88.875 31.846 90.346 C 35.726 91.634 36.465 98.375 37.153 101.715 C 39.268 111.984 44.992 121.398 48.988 131 C 51.987 138.205 54.283 146.283 58.349 152.961 C 61.536 158.194 65.839 162.596 68.899 168 C 74.792 178.407 79.874 188.978 86.413 199.015 C 90.266 204.929 93.02 213.464 97.8 218.505 C 100.871 221.743 106.009 224.113 110 226 C 108.553 221.275 107.972 216.44 105.677 212 C 102.073 205.029 96.746 199.138 93.478 192 C 89.599 183.525 87.003 174.402 83.085 166 C 80.537 160.535 76.019 156.335 73.27 150.985 C 68.606 141.908 65.569 132.257 61.406 123.039 C 55.827 110.689 49.94 98.656 45.042 86.001 C 42.443 79.288 34.494 78.228 33 71 C 41.997 70.785 50.749 75.958 59 79.041 C 66.762 81.941 74.499 84.894 82 88.414 C 85.522 90.066 88.396 92.831 92 94.316 C 98.828 97.128 106.084 98.999 113 101.558 C 118.116 103.451 123.393 107.525 129 107.825 C 131.779 107.974 134.402 106.284 137 105.503 C 143.539 103.537 149.646 101.875 156 99.302 C 159.189 98.01 162.705 97.835 165.83 96.446 C 177.485 91.265 188.799 85.437 201 81.41 C 205.597 79.892 213.075 74.685 217.847 75.149 C 223.102 75.66 218.039 81.278 216.07 82.387 C 209.276 86.214 200.84 89.787 193 90 C 189.538 93.345 185.491 93.298 181.285 95.209 C 173.507 98.744 165.31 103.694 156.999 105.76 C 149.689 107.578 141.075 107.64 135.148 112.975 C 129.489 118.068 130.726 129.045 130.707 136 C 130.652 155.396 132.228 174.477 131.996 194 C 131.921 200.351 132.084 207.748 131.397 213.991 C 131.187 215.897 129.69 218.734 127.282 217.793 C 124.637 216.76 126.415 212.863 126.721 211 C 127.691 205.094 126.867 197.797 123.865 192.576 C 121.355 188.21 120.093 183.392 117.637 179.09 C 111.691 168.675 104.156 159.34 98.093 149 C 95.864 145.197 94.814 140.911 92.819 137 C 89.342 130.185 85.233 123.638 81.428 117 C 77.876 110.805 73.891 104.493 70.924 98.001 C 70.142 96.291 68.92 92.355 72.07 92.167 C 74.296 92.035 76.168 94.588 77.286 96.174 C 80.983 101.419 83.199 108.308 86.305 114 C 96.079 131.913 104.977 150.797 116.953 167.09 C 120.714 172.206 119.946 178.852 126 182 C 126 173.93 125.483 166.202 125.051 158.285 C 124.729 152.39 125.652 146.76 123.437 141.004 C 121.431 135.793 116.796 132.087 114.399 127 C 111.549 120.952 110.628 112.425 105.582 107.637 C 101.842 104.089 96.564 103.201 92.17 100.883 C 86.413 97.848 81.025 93.634 75 91.085 C 72.436 90 69.614 89.963 67 89.035 C 60.397 86.691 56.3 82.582 49 82 C 52.137 90.181 57.027 97.972 60.691 106 C 63.35 111.822 64.25 118.177 67.029 123.91 C 76.755 143.972 87.828 163.487 96.573 184 C 98.652 188.879 99.662 194.263 101.995 199 C 105.24 205.586 109.877 211.606 113.512 218 C 115.713 221.871 117.673 228.409 121.471 230.976 C 129.413 236.345 141.789 228.366 149 225.119 C 169.875 215.719 192.851 211 213 199.923 C 218.144 197.095 227.636 195.708 230.987 190.62 C 234.998 184.531 232.706 175.496 232.104 169 C 231.225 159.51 231.906 149.53 232.004 140 C 232.119 128.847 230.046 118.175 231.104 107 C 231.496 102.86 233.708 99.179 233.867 95 C 234.034 90.627 232.443 86.39 232.594 82 C 232.742 77.72 234.066 72.269 232.258 68.189 C 230.726 64.733 227.141 64.347 224 63.144 C 218.882 61.183 213.959 58.165 209 55.795 C 193.996 48.623 178.259 43.612 163 37.157 C 153.861 33.291 143.825 26.869 134 25.261 C 123.033 23.465 112.802 30.586 103 34.201 C 86.692 40.215 70.071 45.492 54 52.394 C 45.183 56.181 35.587 63.131 26 64 M 114 110 C 116.53 117.429 120.703 123.938 124 131 C 128.257 120.856 125.329 111.571 114 110 M 26 144 C 26 152.511 26.598 160.805 24 169 C 30.607 170.917 31.39 178.581 34.626 184 C 40.619 194.037 48.189 203.961 60 207 C 55.966 200.457 52.858 193.619 49.046 187 C 46.111 181.903 42.27 177.345 39.738 172 C 35.608 163.281 32.461 151.156 26 144 M 25 178 C 24.969 181.735 24.467 185.305 24 189 C 27.599 191.064 30.987 192.891 35 194 C 32.557 188.131 29.801 182.276 25 178 Z" transform="matrix(1, 0, 0, 1, 0, -3.552713678800501e-15)"/>
</svg>