<?xml version="1.0" encoding="utf-8" standalone="yes"?>
<svg xmlns="http://www.w3.org/2000/svg" width="256" height="256">
	<path style="fill:#fff;" d="M154 15.0085C148.678 17.4396 140.73 20.4484 137.259 25.375C124.93 42.8747 127.042 71.4684 146.019 83.811C152.981 88.3392 160.982 88.8951 169.015 88.8495C173.946 88.8216 179.404 88.7618 184 86.723C192.137 83.1131 202.25 73.7711 204.401 65C205.393 60.9554 204.571 57.0725 204.571 53C204.571 47.8624 205.111 43.8831 202.9 39.0147C199.434 31.3786 191.019 24.54 183.999 20.2554C175.871 15.294 163.533 10.6537 154 15.0085z"/>
	<path style="fill:#000;" d="M160 24.429C139.711 27.2769 134.328 53.6161 145.315 68.7106C150.865 76.3356 162.92 80.2582 172 79.1412C175.631 78.6945 178.771 76.9775 182 75.3704C185.008 73.8734 187.992 72.2696 190.211 69.6744C206.829 50.233 181.788 21.3707 160 24.429z"/>
	<path style="fill:#fff;" d="M26.0046 40.7832C22.5817 41.3922 17.5491 46.0833 23.1489 48.0023C26.1863 49.0432 29.8954 47.2149 33 47.0432C37.2895 46.806 42.1597 46.4514 46.4244 46.9653C50.9891 47.5153 56.1332 49.7236 60.6775 47.4012C67.2695 44.0324 55.8993 41.5705 54 41.1782C48.3747 40.0165 41.7916 41.0287 36 40.9992C32.7614 40.9828 29.1969 40.2152 26.0046 40.7832M153 178C152.296 184.832 148.986 189.811 149 197C149.007 200.41 148.925 203.853 150.608 206.942C156.417 217.605 171.76 211.606 178.787 206.126C186.292 200.274 185.648 190.23 187.456 182C189.232 173.913 197.008 159.619 191.987 151.598C189.679 147.912 184.933 146.068 180.999 144.862C178.044 143.956 175.058 143.395 172 143C171.895 139.954 171.661 137.031 172 134C175.399 134.84 178.6 133.818 182 134.518C189.747 136.113 197.296 136.345 205.17 136.959C214.287 137.67 223.625 139.356 231.829 133.856C238.241 129.559 237.462 125.452 239.465 119C243.33 106.548 251.873 88.8931 245.66 76.0008C239.003 62.1885 217.109 63.6982 209.344 76.0185C204.506 83.6958 205.216 93.7604 202 102C197.315 99.5936 183.498 90.8126 179.194 97.4329C177.768 99.6275 178.538 102.387 180.434 103.995C184.449 107.4 192.968 110.446 198 112.011C200.903 112.913 204.891 113.588 207.772 112.258C212.58 110.039 213.878 101.823 211 98C214.575 92.9358 215.605 85.5849 220.144 81.3796C225.155 76.7379 234.051 75.1935 236.852 83.0185C238.837 88.5652 235.673 93.568 237 99C234.07 101.07 234.283 103.712 233.275 107C232.152 110.664 229.87 113.572 228.295 117C226.662 120.552 226.649 124.512 222.891 126.682C216.476 130.388 206.588 127.95 200 126.459C197.355 125.86 194.601 126.135 192 125.302C187.605 123.894 183.877 120.943 179.004 121.224C175.641 121.417 173.677 123.682 170.83 125.082C165.062 127.919 161.392 128.488 163 136C160.86 137.87 160.896 140.154 161.044 143.001C161.602 153.765 174.408 155.23 183 157C181.441 162.891 179.424 169.082 178.312 175C176.484 184.733 176.703 197.116 165.09 201.157C160.007 202.926 159.087 197.848 159.004 193.999C158.849 186.849 160.885 181.818 162.323 175.004C162.783 172.823 162.532 170.542 160.566 169.179C156.499 166.36 149.855 168.494 145.424 168.981C139.704 169.611 132.273 168.522 127.214 171.938C123.619 174.366 123.841 178.429 122.028 181.907C120.469 184.895 117.486 186.719 116.562 190.093C115.672 193.342 116.644 196.725 115.856 200C115.019 203.478 112.791 206.44 112.227 210C111.682 213.441 112.429 216.684 111.006 220C108.032 226.931 97.5616 236.307 89.3179 230.821C86.3202 228.826 87.1346 224.937 87.8611 222C89.718 214.492 89.4665 206.171 92.6304 199C94.4287 194.924 97.1281 191.211 98.591 187C100.327 182.002 100.666 176.507 102.356 171.576C103.76 167.477 106.797 164.063 108.344 160C111.773 150.995 113.797 141.462 115.485 132C116.537 126.1 121.691 115.401 118.272 110.171C116.837 107.976 114.637 106.286 112.843 104.4C110.812 102.264 109.173 99.6003 106.66 97.9853C95.7319 90.9622 84.1108 97.2513 74.7106 103.33C68.2085 107.535 53.551 120.016 47.304 108.895C44.4376 103.792 46.8316 97.7226 49.5679 93.0895C51.6588 89.5492 55.0442 86.9219 57.9568 84.0856C65.7321 76.514 74.4085 66.0199 86 66.0795C98.0289 66.1413 105.563 77.2391 115.039 82.7438C117.918 84.4158 130.503 93.9567 130.718 85.9414C130.916 78.6064 119.18 71.3516 113.996 67.49C103.79 59.8876 88.2401 51.2153 75.1698 56.6628C65.9001 60.5263 57.8532 69.7254 49.99 75.8735C40.8792 82.9969 38.3556 90.9702 36.8542 102C36.0305 108.051 35.3223 114.935 40.3434 119.57C52.2615 130.573 71.5268 119.193 82 112.205C89.7212 107.053 97.654 102.9 104.513 112.174C109.64 119.105 106.484 131.602 104.279 139C102.308 145.615 99.1365 151.554 96.8495 158C95.5878 161.556 95.5341 165.561 94.0671 168.985C93.1078 171.224 91.3477 173.002 90.4738 175.285C86.5568 185.519 85.2532 196.567 82.0239 207C80.1594 213.024 75.2933 222.627 76.5185 228.961C76.9649 231.268 78.5748 233.147 79.669 235.17C81.2792 238.147 82.6217 241.105 86.0154 242.397C88.7222 243.427 92.1574 243.043 95 242.995C112.737 242.699 118.866 228.072 122.589 213C123.807 208.068 123.489 202.811 125.34 198C127.102 193.421 130.478 186.957 133.559 183.144C138.28 177.304 146.686 179.788 153 178M30 74L30 72C25.1057 70.1671 20.2174 69.7897 15.0046 70.0193C13.0462 70.1055 9.6358 70.2656 9.6358 73C9.6358 75.7344 13.0462 75.8945 15.0046 75.9807C20.2174 76.2103 25.1057 75.8329 30 74M18 132L18 138C30.3896 138 42.6416 136.335 55 136.34C61.3278 136.342 67.689 138.204 74 138.675C78.9005 139.041 84.0412 138.001 89 138L89 132C85.621 132.097 82.3346 133.315 79 133.277C73.6669 133.216 68.3846 131.158 63 131.054C48.0206 130.764 33.0541 132 18 132M80.956 149.823C77.3196 150.001 73.6638 151.475 70 151.83C64.3131 152.381 58.6802 151.801 53.0046 152.734C50.6218 153.125 44.3018 155.943 49.3225 158.397C51.8927 159.653 55.3341 158.6 58 158.285C62.8267 157.716 68.172 156.939 73 156.839C76.0638 156.775 79.9041 158.263 82.7677 156.731C86.6231 154.67 85.3046 149.609 80.956 149.823M36 184L37 185C50.2547 182.541 64.592 186.889 78 187L78 183C67.9678 180.263 59.1907 181.277 49 180.385C44.0103 179.948 38.1876 178.558 36 184M19 211C25.5295 212.926 32.2514 210.583 38.9853 211.054C48.0101 211.685 55.6415 215.203 65 213C63.2248 207.152 59.0343 208.747 54 207.969C49.9893 207.349 45.9966 207.346 42 206.791C34.4365 205.739 22.5159 201.352 19 211z"/>
</svg>