<?xml version="1.0" encoding="utf-8" standalone="yes"?>
<svg xmlns="http://www.w3.org/2000/svg" width="256" height="256">
	<path style="fill:#fff;" d="M165 14.6775C161.106 15.5963 158.298 18.3833 154.83 20.1173C143.805 25.6302 131.911 33.4714 127.421 46C125.373 51.712 124.123 58.9449 124.015 65C123.973 67.4007 123.753 70.5464 125.603 72.3966C128.115 74.908 133.83 74.2037 137 73.6744C156.771 70.3728 167.699 52.6119 175.287 36C179.07 27.7194 180.97 17.1346 170 14.7654C168.306 14.3996 166.703 14.2756 165 14.6775z"/>
	<path style="fill:#000;" d="M135 63C154.082 61.7216 161.69 39.5831 168 25C150.946 28.9116 135.369 45.1416 135 63z"/>
	<path style="fill:#fff;" d="M135 81C122.264 75.6362 109.01 70.4023 95 69.1042C81.704 67.8722 68.2617 72.5295 57 79.1782C54.2915 80.7773 50.8758 81.9052 48.5093 83.9907C45.6634 86.4987 42.796 91.6959 40.9298 95C35.3297 104.915 34.5766 118.906 33.2855 130C32.7694 134.434 33.7264 138.597 33.9645 143C34.5163 153.204 35.3088 162.295 38.966 171.996C40.0878 174.972 42.2765 177.287 43.5332 180.17C46.474 186.916 48.3049 194.581 51.973 201C53.6778 203.983 56.3667 206.228 58.3657 209C65.0557 218.275 70.5675 226.837 79.7145 234.211C90.1682 242.637 108.693 238.561 120 233.973C125.92 231.571 132.446 227.796 139 228.774C144.779 229.636 148.14 233.23 153 236.005C157.656 238.664 164.657 240.276 170 239.945C183.303 239.121 192.726 227.537 200.371 218C207.706 208.85 213.841 202.226 217.754 191C219.298 186.571 222.803 181.841 222.682 177.019C222.534 171.106 212.421 166.799 208.05 163.842C201.064 159.115 194.702 150.318 192.557 142C189.001 128.212 192.051 116.117 200.68 105C205.195 99.1828 217.993 90.8412 212.272 82.1736C204.305 70.1044 184.711 70 172 70C167.741 70 163.19 69.5767 159 70.483C156.011 71.1295 153.759 72.8764 151 74.0301C145.523 76.3204 137.406 74.0807 135 81z"/>
	<path style="fill:#000;" d="M211 179C207.009 177.632 205.035 175.075 201.83 172.491C199.721 170.79 197.181 169.742 195.274 167.776C189.695 162.025 187.301 154.363 184.95 147C181.612 136.549 178.756 126.178 181.471 115C183.973 104.695 192.085 94.6718 200 88L200 86C186.209 78.7237 167.016 77.7744 152 82.1443C146.08 83.8671 141.444 88.4691 135 88.8735C130.145 89.1781 123.931 85.7824 119 84.8002C100.769 81.1686 85.9546 77.4814 68 84.7778C48.5466 92.6832 44.0927 111.946 44.0008 131C43.9691 137.576 42.5312 145.607 43.6983 152C47.2568 171.493 57.736 188.401 68.6358 204.424C73.9246 212.199 78.8559 221.133 87.1698 226.273C90.6536 228.427 95.0709 228.226 99 228.142C102.346 228.071 105.705 228.808 109 227.983C114.487 226.61 118.842 222.993 124.004 220.951C131.493 217.988 140.988 216.976 148.981 217.434C153.283 217.68 154.285 221.617 156.725 224.387C159.469 227.504 164.833 229.477 168.961 229.451C175.451 229.409 182.85 221.641 186.709 217.158C196.751 205.492 207.01 194.322 211 179z"/>
</svg>