<?xml version="1.0" encoding="utf-8" standalone="yes"?>
<svg xmlns="http://www.w3.org/2000/svg" width="256" height="256">
	<path style="fill:#fff;" d="M49 51C49.4832 57.7248 52.9189 64.3291 54.331 71C55.5209 76.6212 55.0972 82.3821 56.5833 88C57.6344 91.9734 61.6666 97.9316 60.5864 102C59.2606 106.994 54.3945 112.765 51.4792 117C47.396 122.932 43.9192 129.241 39.392 134.91C34.8571 140.59 29.6484 145.578 25.9946 152C24.1754 155.197 24.715 158.584 23.3981 161.83C22.0129 165.245 18.5314 167.024 18.2623 171.001C17.7577 178.46 21.3823 185.686 22.091 193C23.3273 205.758 24.1614 218.726 28.4097 231C30.5229 237.105 29.7883 244.284 33.9699 249.682C36.986 253.575 43.009 251.314 47 250.615C57.1649 248.835 68.699 248.206 79.0147 247.975C85.3284 247.833 90.7249 244.148 97 243.633C103.92 243.066 111.068 243.765 118 242.791C129.016 241.242 139.927 238.436 150.999 237.126C156.104 236.522 160.934 238.305 166 237.713C174.394 236.731 182.697 233.573 191 232.9C196.675 232.441 202.444 231.85 208 230.471C211.811 229.526 215.01 227.365 219 227.054C223.643 226.692 233.813 226.933 237.258 223.397C241.045 219.507 237.384 212.445 236.88 208C236.1 201.115 237.758 193.859 236.783 187C236.045 181.81 232.795 177.021 231.289 172C228.885 163.986 228.804 156.108 227.405 148C226.756 144.237 224.492 140.769 224.233 137C223.618 128.046 223.812 119.054 222.715 110C221.571 100.566 220.49 90.2016 218.316 81C216.413 72.9448 213.114 65.1312 211.478 57C210.68 53.0311 211.335 48.9862 210.812 45C210.406 41.9081 208.859 39.1268 208.684 36C208.291 29.0084 208.036 19.3691 203 14C206.208 7.94914 203.887 4.05595 197 4.00848C190.848 3.96608 185.048 5.92508 179 6.71065C173.706 7.3983 168.318 6.7816 163 7.04013C151.385 7.60475 139.628 10.2883 128 10.7369C123.678 10.9036 119.374 9.84949 115 10.0394C98.7342 10.7453 82.0631 12.411 66 14.6998C55.1696 16.2431 43.6031 15.267 33.0046 18.5139C24.1088 21.2392 28.1867 28.8627 29.7407 35C30.9646 39.8332 31.3679 45.8067 35.554 49.2577C38.9463 52.0544 44.9022 51 49 51z"/>
	<path style="fill:#000;" d="M37 28C38.6841 31.0868 40.1376 37.8857 42.7415 39.9722C44.4505 41.3416 46.9933 40.8443 49 41.2276C52.0836 41.8167 54.3936 43.5693 56.2762 46.044C59.7822 50.6525 58.8197 56.6392 60.2948 62C61.6253 66.8356 64.1981 71.2675 65.446 76.0394C66.3873 79.6389 66.149 83.3885 67.2091 87C69.1578 93.6386 71.9954 102.005 69.4005 108.961C68.219 112.127 65.1853 114.245 63.375 117.039C55.9257 128.538 48.554 139.837 40.5448 150.91C35.5236 157.853 29.5693 165.171 28.2585 174C27.814 176.994 29.2962 180.002 29.4799 183C30.2801 196.058 33.6861 209.216 36.375 222C37.7396 228.488 39.8606 234.247 40 241C59.5697 240.838 80.6535 239.077 100 236.497C105.235 235.799 109.886 233.005 115 232.228C118.645 231.674 122.322 232.658 126 232.206C131.435 231.538 136.497 229.289 142 229.039C146.929 228.816 152.123 229.694 157 229.081C167.709 227.736 179.336 226.52 190 224.334C196.764 222.948 203.21 220.017 210 219C209.828 215.377 210.251 211.554 209.468 208C208.759 204.784 206.299 201.354 207.954 198.058C211.107 191.783 220.357 191.385 226 189C223.352 176.334 219.25 163.739 217.225 151C216.696 147.678 217.527 144.328 217.085 141C215.164 126.544 211.618 112.352 209.44 98C208.882 94.3231 209.55 90.6395 208.732 87C207.465 81.3557 205.145 75.6376 204.224 70C203.574 66.0245 204.184 61.9861 203.37 58C201.922 50.9195 198.225 46.0739 202 39C198.183 31.4477 196.085 22.3937 195 14C157.909 16.9272 121.134 19.2964 84 22.8302C79.3076 23.2768 74.6503 22.2754 70 22.6126C66.549 22.8629 63.4216 24.4802 60 24.8711C52.1634 25.7666 44.6697 25.9709 37 28z"/>
	<path style="fill:#fff;" d="M123 22C123.04 26.8573 124.024 31.268 125 36C130.046 36.3982 134.908 37.0515 139.996 36.9892C142.403 36.9597 145.717 36.2635 147.736 37.9475C151.183 40.8226 150.269 47.9801 151.599 52C152.855 55.7987 155.495 59.0554 156.312 63C157.735 69.8596 157.396 77.1905 159.013 84C160.37 89.7108 164.17 95.253 162.914 101.424C161.114 110.265 153.15 118.251 147.861 125.17C144.84 129.122 142.401 133.369 138.957 136.999C135.452 140.693 129.281 144.226 127.283 149.015C125.915 152.293 127.86 156.494 128.065 159.91C128.569 168.313 129.231 175.799 131.492 184C132.631 188.133 135.148 191.688 135.791 196C136.924 203.604 139.242 210.477 140.614 218C141.072 220.509 141.226 225.334 143.569 226.914C145.878 228.47 147.569 226.01 147.762 223.941C148.194 219.312 146.074 213.952 144.775 209.576C142.538 202.035 141.306 194.45 139.417 186.961C138.608 183.752 136.405 181.163 135.509 178C134.597 174.775 135.179 171.302 134.819 168.004C134.325 163.475 132.747 157.9 134.413 153.424C136.471 147.896 141.978 142.336 145.835 138C152.815 130.153 159.27 123.327 164.295 114.001C165.848 111.117 168.111 108.118 168.711 104.845C170.482 95.19 166.692 87.0998 164.602 78C163.764 74.354 164.66 70.6504 163.791 67C160.913 54.9105 156.092 43.3568 154 31C144.792 31.0193 130.378 34.3613 129 22L123 22M63 48C69.9127 47.7959 76.9634 45.5003 84 44.8302C89.0016 44.3539 93.9873 43.4347 99 43.0895C104.649 42.7005 110.447 42.8143 115.941 41.1381C118.056 40.4929 121.032 38.1886 118.377 36.0231C115.078 33.332 107.719 36.0393 104 36.5718C93.7393 38.041 82.9848 37.4857 73 40.4861C67.1697 42.2381 63.2483 40.5337 63 48M139.995 44.4591C134.573 45.1065 129.484 47.2989 124 47.8302C112.332 48.9609 100.651 48.6555 89 49.9853C83.9827 50.558 75.3688 49.5988 71.6034 53.6559C68.8759 56.5946 70.4213 61.5086 70.8449 65C72.1537 75.7868 76.7081 86.1853 78.6073 97C79.4237 101.649 78.6613 107.867 85.0046 107.656C92.0027 107.423 99.1041 105.525 106 104.439C111.274 103.609 116.808 103.52 122 102.222C126.547 101.086 130.264 97.729 135 97.0856C140.12 96.39 152.482 98.869 155.917 93.436C157.673 90.6595 154.454 85.9577 154.104 83C152.914 72.9459 150.143 62.5371 147.325 52.8302C145.977 48.1879 146.208 43.7173 139.995 44.4591z"/>
	<path style="fill:#000;" d="M76 59C77.4248 64.916 79.8371 70.9467 80.9313 76.8341C81.6687 80.8014 80.6788 85.0917 81.5949 88.9606C82.6357 93.356 85.5698 96.2365 86 101C100.646 100.879 115.737 96.6161 130 93.7106C135.775 92.5343 141.019 89.9472 147 90C150.411 75.674 142.602 64.0116 142 50C136.302 50.9647 130.756 53.1265 125 53.8156C108.492 55.792 92.2209 54.4542 76 59z"/>
	<path style="fill:#fff;" d="M130.603 113.082C128.132 114.872 130.918 118.713 133.397 116.918C135.868 115.128 133.082 111.287 130.603 113.082M74.3171 115.782C67.7558 118.704 75.0902 126.261 77.0355 129.085C78.3808 131.038 79.5613 134.447 82.6975 133.288C84.8646 132.487 84.6861 129.964 84.1103 128.165C82.7438 123.896 81.3645 112.644 74.3171 115.782M119.622 118.028C116.259 120.703 121.625 124.163 124.378 121.972C127.741 119.297 122.375 115.837 119.622 118.028M136 117C135.792 118.19 135.318 119.748 135.434 120.986C136.234 129.507 148.042 120.494 139.897 117.318C138.765 116.877 137.162 117.038 136 117M123 125C123.104 133.795 128.896 133.795 129 125L123 125M117.996 148.558C114.238 149.416 110.879 151.187 107 151.71C98.7885 152.817 90.1591 151.885 82 153.26C72.8489 154.802 64.3109 158.198 55 159.424C50.0568 160.076 44.9441 160.042 40.0586 161.109C38.315 161.49 36.0234 162.479 36.7515 164.741C37.5362 167.178 40.9931 166.966 43.0008 166.995C48.6386 167.074 53.6058 165.695 59 164.285C65.704 162.532 73.1981 160.083 80 159.188C86.2702 158.363 92.705 159.567 98.9853 158.892C101.935 158.575 104.266 156.938 107.09 156.235C111.346 155.175 120.059 156.703 123.381 153.973C127.769 150.366 120.963 147.88 117.996 148.558M96 226C101.779 226 106.464 224.801 112.039 224.013C119.71 222.929 124.784 223.764 132 220C131.108 210.591 127.097 201.319 125.238 192.015C124.487 188.252 125.865 182.692 123.062 179.604C121.052 177.39 117.551 178.342 115 178.754C108.072 179.872 100.829 180.93 94.0008 182.515C91.715 183.045 88.6165 183.823 87.6929 186.278C86.2585 190.09 88.6303 195.48 89.5486 199.17C91.7636 208.07 93.8873 217.105 96 226z"/>
	<path style="fill:#000;" d="M124 216C120.236 205.75 122.666 195.059 119 185C113.315 185.719 107.662 186.684 102 187.576C99.7994 187.922 96.5659 187.835 95.0278 189.742C93.538 191.59 93.9707 194.847 94.3256 197C95.1225 201.833 97.4874 206.238 98.6759 210.961C99.4945 214.214 99.6039 217.904 103.192 219.4C109.208 221.91 118.322 218.085 124 216z"/>
	<path style="fill:#fff;" d="M67.9568 188.757C65.2427 188.878 62.6931 190.399 60 190.79C54.2621 191.624 42.9244 189.457 39.3187 195.302C36.4515 199.951 40.3095 206.328 41.4051 211C42.6978 216.513 41.3298 228.294 46.5131 231.972C49.7374 234.26 57.2289 233.202 61 232.946C64.9077 232.681 72.514 232.19 75.679 229.838C82.3357 224.892 78.7969 212.379 77.1142 206C75.8033 201.031 75.5147 188.42 67.9568 188.757z"/>
	<path style="fill:#000;" d="M44 200C45.0713 205.17 48.1165 209.86 48.8117 215.004C49.3011 218.624 48.1714 224.487 52.2785 226.397C59.9421 229.959 68.5307 224.229 76 224C73.4162 217.644 72.9491 210.522 70.564 204C69.7135 201.674 68.8091 198.443 66.5818 197.042C64.3464 195.636 61.3825 196.551 59 197C53.8746 197.965 48.936 198.201 44 200M214 199C214.589 205.178 215.414 211.006 217 217C220.892 216.909 224.261 215.989 228 215L227 196C222.688 196.73 218.177 197.728 214 199z"/>
</svg>