<?xml version="1.0" encoding="utf-8" standalone="yes"?>
<svg xmlns="http://www.w3.org/2000/svg" width="256" height="256">
	<path style="fill:#fff;" d="M133 112C129.173 113.567 127.749 116.274 124.816 118.985C119.62 123.787 114.256 125.112 114 133C105.094 134.387 98.9286 148.201 93.8573 154.996C87.0362 164.135 76.2438 170.24 68.4144 178.299C62.8863 183.988 58.5507 191.24 52.787 196.725C47.2514 201.994 35.3102 205.92 33.3943 214.015C31.0319 223.997 38.2092 228.587 45 234.14C48.8627 237.299 54.4284 241.504 58 236C59.9552 237.687 62.0096 239.308 64.7762 238.214C67.2242 237.246 68.0394 234.39 69.4691 232.421C73.2389 227.228 77.2717 221.909 82 217.576C86.397 213.546 89.0151 208.288 93.1844 204.133C96.082 201.245 99.9921 199.792 102.892 196.892C105.516 194.268 106.864 190.822 109.274 188.054C111.682 185.29 115.104 183.695 117.432 180.871C119.369 178.522 120.296 175.55 122.21 173.174C127.402 166.728 134.05 161.505 139.309 155C142.037 151.626 144.246 147.433 147.273 144.375C150.199 141.419 156.037 138.34 154.302 133.148C152.947 129.092 147.78 130.254 145.058 132.009C142.042 133.954 140.98 137.234 138.701 139.83C135.814 143.121 132.144 145.603 129.329 149.001C125.031 154.187 122.538 160.672 118.367 165.942C115.916 169.038 112.118 170.217 109.553 173.144C107.42 175.579 106.06 178.566 103.87 180.985C100.901 184.266 97.1345 186.712 94.2238 190.039C91.8362 192.768 90.5272 196.268 87.8673 198.772C85.2863 201.203 81.7661 202.022 79.0941 204.302C75.9549 206.981 74.4111 210.849 71.7407 213.91C66.2632 220.19 58.9153 225.136 58 234C54.8134 230.084 51.3658 226.478 48.0085 222.718C46.5631 221.1 44.3506 218.963 44.5733 216.576C45.0608 211.353 52.0819 210.007 54.9691 206.607C60.9758 199.534 68.0636 193.946 74.7724 187.545C77.5879 184.858 78.5737 180.935 81.1443 178.015C84.5677 174.126 89.0691 171.472 92.7145 167.83C100.229 160.324 108.481 153.546 114.862 145C116.805 142.398 117.47 138.869 119.588 136.495C121.875 133.93 125.301 132.514 127.715 129.957C130.545 126.958 133.359 122.874 137.424 121.417C141.7 119.884 144.987 124.005 148.285 125.951C152.569 128.477 159.05 130.092 164 129.956C171.545 129.749 177.227 126.675 184 123.979C189.167 121.923 195.005 122.687 199.985 120.161C215.725 112.177 219.753 94.2713 222.13 78.4244C222.938 73.0412 224.718 66.4033 223.725 61C220.252 42.0959 207.453 23.8406 188 19.7153C183.942 18.8548 176.371 16.0232 172.604 19.0278C168.89 21.9897 173.338 25.8571 175.049 28.2593C178.284 32.8006 179.713 40.1937 175.438 44.571C169.519 50.6328 157.53 50.6962 150.015 53.7785C142.486 56.8661 133.139 63.3275 129.92 71C126.411 79.3618 128.281 89.5447 130.215 98C131.464 103.458 129.446 107.054 133 112z"/>
	<path style="fill:#000;" d="M152 64C149.826 64.8406 147.166 65.4096 145.297 66.8549C132.693 76.6023 139.425 92.8016 144.562 104C146.153 107.467 145.834 111.555 148.573 114.467C160.12 126.743 181.824 115.998 193.999 110.719C198.889 108.599 202.673 106.207 206 102C195.432 105.268 189.181 99.9511 188 89C183.829 91.6089 178.019 99.3645 173.019 99.3642C170.927 99.364 169.328 97.7933 168.617 95.9414C166.711 90.9731 167.024 83.4301 166 78C163.166 78.2881 159.834 79.957 157.044 79.6242C149.715 78.7501 153.08 68.4969 152 64z"/>
</svg>