<?xml version="1.0" encoding="utf-8" standalone="yes"?>
<svg xmlns="http://www.w3.org/2000/svg" width="256" height="256">
	<path style="fill:#fff;" d="M242 206C244.775 197.247 245.555 185.229 244.945 176.039C244.761 173.257 243.398 170.751 243.414 167.961C243.464 159.643 245.343 151.289 245.91 143C246.479 134.698 245.378 126.288 246.17 118C247.353 105.613 249.303 94.2466 246.089 82C244.211 74.8449 244.542 67.5476 239.671 61.4252C231.234 50.8205 222.11 47.3576 210 42.7716C206.098 41.2941 202.781 38.6635 198.91 37.2485C188.324 33.3784 176.713 32.0872 166.004 28.0995C155.971 24.3636 147.098 16.6109 137 12.8897C124.089 8.13171 106.585 10.8344 95.0185 17.7284C83.4185 24.6424 87.3224 38.9581 86.1204 50C85.3829 56.7744 83.5117 63.0847 84.1698 70C84.6837 75.4003 87.4879 85.9191 83.3966 90.4506C80.1227 94.0768 74.3017 93.6136 70 94.7847C61.1307 97.1994 52.0847 99.7763 43 101.385C38.2586 102.225 32.3683 101.801 28.054 104.175C24.9018 105.91 23.6079 109.23 21.4475 111.91C17.327 117.022 10.4277 124.136 9.49769 131.015C9.12792 133.75 10.4216 136.335 10.7909 139C11.4981 144.104 11.243 149.859 10.9568 155C10.4691 163.758 8.89732 172.044 9.00386 181C9.08257 187.617 9.83889 194.594 11.4105 201C12.1646 204.074 12.3342 207.158 15.1481 209.142C19.4841 212.198 26.06 211.173 31 212.564C36.2542 214.044 40.4921 217.362 46 218.38C55.9324 220.217 66.078 219.396 76 221.261C83.2142 222.617 92.2952 225.037 99 227.931C102.913 229.619 105.947 232.862 110 234.312C121.404 238.395 133.167 239.35 145 241.326C156.85 243.304 165.767 245.886 178 243.539C189.115 241.407 199.608 237.127 210 232.914C213.559 231.472 217.46 231.138 221 229.541C225.475 227.522 229.411 224.696 234 222.796C239.801 220.395 249.326 212.401 242 206z"/>
	<path style="fill:#000;" d="M18 188C21.0751 191.536 20.9875 195.471 21 200C30.5088 201.851 38.0739 207.567 48 208C47.9885 190.586 43.6056 173.24 47.6651 156C48.786 151.24 49.9894 143.161 53.588 139.589C55.5048 137.686 58.6089 137.599 61 136.61C65.8827 134.591 69.9329 132.773 75 131.266C78.1266 130.336 80.8633 128.417 84 127.496C94.027 124.551 104.123 122.006 113 116C108.888 113.485 104.252 111.57 101 108C96.9873 107.773 94.4586 105.845 91 104L91 102C97.4159 100.348 99.4202 102.887 105.09 105.057C110.935 107.295 116.321 108.864 117 116C124.024 118.168 123.506 126.738 124 133C129.195 133.831 130.275 137.642 124.98 140.072C120.712 142.03 115.499 141.428 111 142.721C97.3472 146.642 83.9183 152.376 70 155C81.8885 160.175 99.4732 159.706 108 171C103.047 172.033 99.6588 170.087 95 168.59C85.8288 165.642 76.6734 161.027 67 161C64.9214 177.433 66.3757 192.667 68 209C82.1719 209.302 96.1337 216.424 110 219C107.026 206.508 109.063 191.329 112 179L114 179C116.584 189.848 114.604 200.965 115.039 212C115.191 215.874 114.697 222.467 117.568 225.44C121.431 229.439 128.113 228.46 133 229.785C137.748 231.072 149.067 236.724 152.413 230.768C153.933 228.061 153.25 224.922 153.086 222C152.742 215.888 151.993 210.074 151.287 204C150.578 197.899 154.387 186.734 158.344 182.043C168.771 169.684 186.23 167.768 200 161.425C203.507 159.81 207.733 159.298 210.931 157.114C215.682 153.87 217.176 147.36 217.844 142C218.785 134.45 217.244 127.085 217.951 119.576C219.629 101.745 226.928 76.1671 206.91 65.4491C199.906 61.6987 190.516 61.1134 183 58.4799C174.948 55.6588 167.127 51.9774 159 49.2677C149.994 46.2653 140.54 43.7442 132 39.4699C126.837 36.886 121.557 35.7662 116.005 34.3804C114.297 33.9542 111.207 33.3197 111.207 31.0008C111.207 28.1659 115.116 28.2242 117.001 28.4838C123.278 29.3482 129.999 32.3382 136 34.2361C154.638 40.131 172.296 48.9813 191 54.7469C198.951 57.1979 210.889 56.8091 217.644 61.973C220.02 63.7897 219.384 67.3996 220.133 69.9961C221.794 75.7594 224.771 79.9892 225.64 86.0895C229.004 109.686 220.842 134.115 224 158C213.545 162.723 202.993 168.914 192 172.251C180.989 175.593 166.552 176.685 161.283 189.015C159.186 193.923 157.548 200.672 157.812 206C158.306 216.003 162.103 224.235 159 234C168.902 236.357 176.761 233.342 186 230.311C196.231 226.955 206.383 224.524 216.17 219.941C221.309 217.535 230.194 215.538 232.812 209.811C234.221 206.728 233.142 203.224 233.175 200C233.226 195.056 233.822 189.966 234.039 185C234.279 179.519 236.531 174.236 236.782 168.91C237.059 163.012 235.295 156.901 235.039 151C234.723 143.716 235.836 136.305 236.015 129C236.489 109.657 243.196 86.205 233.292 68.0903C230.842 63.6096 226.023 61.2779 222.004 58.4097C218.004 55.5552 214.593 51.8338 209.996 49.9298C205.126 47.9125 200.066 47.4838 195 46.321C188.282 44.7788 181.748 42.4098 175 40.8881C172.086 40.2311 168.8 40.3451 166.015 39.2593C162.922 38.0536 160.852 35.2772 157.91 33.7886C148.807 29.1816 138.689 24.7005 129 21.4946C121.818 19.1181 109.065 21.0365 103.019 25.5718C96.913 30.1528 96.4521 38.0037 95.8349 45C94.9407 55.1352 93.127 65.8225 93.0779 76C93.0471 82.3934 94.8516 91.1792 91.4776 96.956C87.8997 103.082 77.4724 104.46 71 105.166C61.5852 106.193 53.1124 109.364 44 111.576C39.2862 112.72 32.0737 113.459 28.3133 116.703C25.9487 118.742 25.0318 122.364 23.4622 125C21.1982 128.802 18.3478 132.598 17.3904 137C13.7146 153.903 22.0456 171.007 18 188z"/>
	<path style="fill:#fff;" d="M47 136C45.3272 130.18 40.0547 128.228 35 125.595C33.0929 124.601 30.6136 123.067 28.4491 124.287C21.5241 128.19 35.2992 134.596 38 135.363C40.9098 136.189 44.0077 135.998 47 136z"/>
	<path style="fill:#000;" d="M60 142C59.4173 147.584 53.9029 151.431 52.2407 157C51.301 160.148 51.9848 163.756 51.9992 167C52.038 175.742 53.2103 184.268 52.9853 193C52.8834 196.956 50.7016 202.859 52.6034 206.562C54.1398 209.554 58.3714 208.309 61 208C60.5217 191.64 61.7007 175.32 61 159L58 159L58 153C62.7141 152.474 65.5635 149.258 70.0147 148.138C74.2645 147.069 78.8332 147.59 83 146.352C87.5543 144.999 91.463 141.96 96 140.461C103.449 137.999 111.321 137.489 119 136C117.976 131.748 117.344 127.36 117 123C111.036 124.417 105.849 127.673 100 129.43C86.5484 133.47 73.0877 136.911 60 142z"/>
	<path style="fill:#fff;" d="M198 137C199.47 141.999 207.993 148.395 213.677 146.293C218.297 144.585 212.86 140.327 210.981 139.235C209.362 138.294 207.698 137.324 206.002 136.529C203.664 135.434 201.541 135.137 199 135L199 131C187.106 131.098 176.603 135.395 165.83 139.674C153.395 144.614 140.932 148.806 129.001 155.329C123.15 158.528 117.184 162.292 113.484 168.004C112.194 169.994 110.077 173.972 113.319 175.353C115.39 176.235 117.646 175.086 119.035 173.567C120.707 171.737 121.524 169.338 123.39 167.637C126.951 164.393 132.172 162.183 136.17 159.394C141.355 155.776 147.346 154.441 153 151.931C167.234 145.61 182.571 139.657 198 137M123.623 170.024C121.411 171.815 123.293 174.018 125.149 174.942C128.598 176.66 140.129 182.241 143.377 179.218C145.479 177.263 143.849 174.661 141.866 173.481C138.477 171.464 127.019 167.274 123.623 170.024z"/>
	<path style="fill:#000;" d="M110 220L111 221L110 220z"/>
</svg>