<?xml version="1.0" encoding="utf-8" standalone="yes"?>
<svg xmlns="http://www.w3.org/2000/svg" width="256" height="256">
	<path style="fill:#fff;" d="M27 30C22.2409 30 13.2641 28.8415 9.60417 32.5995C5.16833 37.1543 14.5602 50.5672 18 54C12.1809 62.8148 12.8814 73.7041 9.96605 83.4244C5.4634 98.4369 5.83892 114.311 6.40586 130C6.58641 134.996 5.50576 139.99 6.18904 145C6.73464 149.001 9.24485 152.164 10.2809 156C11.1664 159.279 10.8804 162.72 11.7855 166C14.1826 174.688 19.5199 183.847 24.8735 191C32.6657 201.411 43.9193 212.892 57 216C52.6912 219.796 45.8804 224.773 45.287 230.995C44.4632 239.635 58.8764 237.125 63 234C69.6497 238.993 78.7329 249.49 87.9853 248.794C91.8655 248.502 93.9846 244.927 97.0394 243.005C100.164 241.038 103.878 240.409 107 238.387C110.701 235.991 113.795 232.446 118 230.89C122.109 229.369 126.725 230.232 130.999 229.907C137.469 229.416 146.234 226.443 152.576 228.163C156.001 229.092 158.766 232.161 162 233.648C168.821 236.784 176.016 239.48 183 242.265C189.506 244.861 193.602 243.199 194 236C196.621 235.615 199.35 234.579 202 234.584C206.668 234.593 215.515 238.899 218.971 233.683C222.083 228.989 217.123 226.187 213.995 223.816C208.718 219.814 204.82 215.944 207.586 209C211.116 200.136 221.618 195.404 226.088 186.999C232.138 175.622 239.382 163.393 243.093 151.001C243.828 148.544 243.513 146.009 244.16 143.576C244.962 140.557 247.037 138.121 247.657 135C248.505 130.729 247.592 126.295 248.21 122C248.656 118.897 250.136 116.083 250.671 113C251.558 107.892 250.179 103.061 250.179 98C250.179 94.587 251.052 91.4399 250.557 88C249.599 81.3422 247.008 76.2016 244.875 70C243.244 65.2579 243.841 59.8757 242.6 55C241.825 51.9539 239.94 49.2597 240.707 46C242.167 39.7939 246.485 35.728 247.278 29C247.601 26.258 248.215 23.0134 245.566 21.179C240.768 17.8577 232.305 21.7687 227 22C226.993 19.9032 227.312 17.3019 226.397 15.3426C222.79 7.62639 208.582 14.6516 203 15.6759C197.579 16.6707 192.404 16.4813 187 18C184.216 13.9932 178.57 13.185 174 12.2353C170.57 11.5226 167.437 9.78549 164 9.22377C158.801 8.37402 153.222 9.12009 148 9.32022C144.244 9.46414 140.763 7.95589 137 8.10493C132.296 8.29124 127.699 9.70944 123 10.0409C118.028 10.3916 112.933 9.45554 108 10.3295C105.078 10.8472 102.495 12.4906 99.5756 12.929C93.0218 13.9133 86.632 13.5964 80.0895 15.3997C73.5478 17.2028 67.9955 21.1908 61.8302 23.4082C53.8551 26.2764 42.9601 19.9127 35 19.2523C27.7518 18.651 25.6025 23.9023 27 30z"/>
	<path style="fill:#000;" d="M41 29C41.8112 29.9827 42.9432 31.0711 43.5301 32.223C45.3722 35.8387 44.2313 39.6624 39.9807 40.6674C34.7609 41.9017 27.4778 40 22 40C24.0187 44.872 27.9563 49.463 27.9406 55C27.9112 65.3719 18.3231 74.9082 16.3758 85C14.5446 94.4896 15.9533 104.472 15.9992 114C16.0265 119.651 15.217 125.402 15.3542 131C15.4453 134.72 16.9044 138.232 16.9846 142C17.069 145.965 15.8368 150.089 16.4151 154C17.1804 159.174 19.8209 164.115 21.561 169C23.0738 173.247 23.8448 177.202 26.4429 181C30.649 187.149 35.665 194.169 42 198.273C47.4483 201.803 54.1852 204.859 59.9992 207.884C63.4057 209.657 67.4456 211.565 67.5579 216.004C67.6505 219.664 64.7871 223.028 63 226C66.9173 226.011 70.5749 225.895 73.8302 228.419C77.7539 231.461 82.5952 238.521 88.169 238.447C92.0684 238.395 94.5865 234.547 97.1698 232.198C100.664 229.021 105.097 226.231 109 223.557C116.45 218.454 125.617 220.666 134 220.201C139.954 219.87 146.104 217.722 151.985 216.7C156.131 215.979 160.558 211.965 164.852 213.758C169.067 215.518 167.306 219.893 166 223C171.139 225.514 177.065 230.496 183 230.654C186.987 230.76 190.391 227.774 194 226.483C197.351 225.284 200.541 225.756 204 226C201.622 222.969 195.761 220.653 194.812 216.895C193.513 211.744 198.849 206.4 201.696 202.831C204.852 198.874 208.704 195.214 211.48 190.985C213.56 187.816 214.557 184.13 216.785 181.015C219.041 177.862 221.961 175.315 223.957 171.961C226.789 167.2 227.344 162.026 229.348 157C231.553 151.47 235.596 145.84 236.725 140C237.49 136.045 236.597 131.954 237.532 128C238.287 124.81 240.157 122.095 241.15 119C242.41 115.076 241.652 111.01 242.209 107C242.577 104.351 243.854 101.795 243.763 99.0895C243.638 95.3552 241.052 91.7691 240.44 88C239.154 80.0884 239.58 72.919 236.776 65.1698C234.553 59.0258 229.573 55.1608 229.239 48C228.986 42.5677 233.277 37.0605 235 32C225.629 33.1843 214.154 37.0141 214 24C210.097 24 205.808 23.5159 202 24.4946C197.953 25.5347 194.366 27.7669 190 27.2994C182.353 26.4807 174.521 22.4037 167 20.598C160.799 19.1092 152.332 16.419 146 16.4182C143.267 16.4179 140.753 17.7333 138 17.7261C133.318 17.7137 128.702 15.8535 124 16.3403C118.826 16.8759 114.121 19.6186 109 20.446C106.309 20.8808 103.683 20.1307 101 20.4182C96.8716 20.8607 93.0266 23.1237 89 24.1003C85.8174 24.8722 82.3951 24.5609 79.2855 25.4954C72.833 27.4344 67.7878 33.9056 60.9992 34.5771C54.0902 35.2606 47.4859 30.4697 41 29z"/>
	<path style="fill:#fff;" d="M136 78C133.727 73.4952 132.714 68.4162 130.247 64.0008C126.584 57.4438 118.191 48.3331 111.91 44.213C104.159 39.1279 97.2931 40.4974 89 42.3009C86.5902 42.825 84.312 42.4499 82.0895 43.767C76.8021 46.9004 73.2983 53.1622 69.1952 57.5756C63.5658 63.6308 60.2157 74.1996 57.6698 82C55.4586 88.7747 52.5624 95.9887 51.3218 103C48.738 117.601 53.4175 133.245 62 145C57.5526 146.388 56.0301 150.046 53.9228 154C49.7 161.924 47.4936 170.079 49.6836 179C51.7837 187.554 58.0842 194.461 63.4205 201.09C67.2815 205.886 71.6511 211.471 77.1551 214.523C82.4413 217.455 89.1729 217.914 95 219L96 218C93.2493 212.754 87.9739 213.15 83.4244 210.072C72.4723 202.662 56.4469 189.119 55.3256 175C54.5038 164.651 62.16 156.515 64 147C71.3409 157.272 88.2454 154.021 99 152.246C104.798 151.289 109.891 150.376 113 145C117.792 151.596 121.326 158.991 125.456 166C126.725 168.154 127.95 173.363 131.086 173.364C134.582 173.366 137.681 166.622 138.896 163.91C141.435 158.243 141.966 151.936 143.466 146C144.595 141.532 146.964 137.426 148.239 133.004C149.162 129.803 149.404 125.113 146.57 122.752C144.054 120.656 140.423 121.308 137.41 121.123C127.137 120.496 117.526 124.446 111.023 132.73C108.155 136.384 108.248 140.845 104.262 143.713C95.6698 149.896 80.38 147.816 71.0039 144.772C58.9949 140.873 56.1305 120.616 57.5764 110C60.673 87.2638 68.4569 57.9623 91 47.1636C93.7497 45.8464 97.0541 45.7098 100 45C103.722 50.6182 112.832 52.6583 117.867 57.4429C123.581 62.873 125.472 70.8082 127.745 78C128.724 81.0965 129.977 88.1973 134.105 88.4035C141.195 88.7578 141.495 79.694 142.265 74.9606C143.875 65.0789 149.586 49.2618 159.665 44.9923C169.328 40.8991 183.022 44.946 189.4 53.304C191.106 55.5389 191.351 58.5458 192.684 61C196.255 67.5787 197.153 72.897 198.843 80C199.908 84.4792 202.211 88.3299 202.862 93C204.578 105.313 200.512 116.802 195.907 128C190.312 141.605 176.672 144.773 163 143.266C160.257 142.964 148.636 138.689 148.636 144.015C148.636 147.545 154.457 148.344 157 148.699C160.07 149.128 162.947 148.525 166 148.455C171.957 148.32 182.001 151.661 186 146C203.087 150.188 202.402 174.047 196.292 186.961C194.365 191.036 191.388 195.304 188.779 198.985C185.414 203.734 180.409 205.03 176.608 208.894C175.127 210.398 174.865 213.46 177.279 214.253C180.902 215.443 189.074 209.255 191.699 207.099C195.558 203.929 197.538 199.4 199.637 195C204.459 184.896 208.591 170.217 204.942 159.015C203.169 153.57 197.097 148.344 197.352 142.285C197.465 139.591 199.876 137.375 200.916 134.996C202.039 132.427 202.156 129.575 203.274 127C204.92 123.21 207.434 120.071 208.506 116C212.593 100.482 207.535 86.393 202.695 72C200.898 66.6546 200.95 61.1591 198.176 56.0394C189.634 40.2726 165.858 28.8859 150.17 42.3896C141.235 50.0803 136.507 66.3697 136 78M108.108 78.0864C104.717 79.674 104.173 83.864 103.064 87C100.366 94.6292 98.6669 106.051 101.044 114C102.502 118.877 106.885 125.628 112.957 122.778C117.876 120.469 118.929 114.845 118.996 110C119.103 102.351 119.441 95.4604 117.276 88C116.179 84.2165 113.841 75.4029 108.108 78.0864M150 117C153.198 118.024 157.449 120.432 160.775 118.731C169.454 114.293 165.427 97.288 164.304 90C163.856 87.0931 163.328 83.6015 161.297 81.3187C154.215 73.3568 149.403 85.7051 148.834 91C148.472 94.3649 148.002 97.6024 148.002 101C148.002 106.472 149.304 111.611 150 117z"/>
	<path style="fill:#000;" d="M132 161C135.149 153.694 138.473 146.645 140.594 139C141.388 136.136 143.667 132.316 141.932 129.398C137.798 122.448 120.556 130.748 118.216 136.21C117.088 138.843 118.975 141.752 120.179 144C123.416 150.044 126.628 156.624 132 161z"/>
	<path style="fill:#fff;" d="M79 176C85.9309 180.91 91.1822 183.383 100 182.767C103.527 182.521 106.359 179.953 110 180.695C115.69 181.856 119.927 186.636 125.285 188.451C135.021 191.748 148.368 185.972 151 176C154.563 177.512 159.075 179.164 163 179.154C170.356 179.135 180.752 172.474 181 165C172.688 163.911 167.805 171.26 160 172.709C155.909 173.469 152.006 171.095 148 173.025C142.169 175.833 137.915 182.24 131 182.847C126.147 183.273 121.625 179.977 118.285 176.796C115.676 174.31 113.192 170.647 109.054 171.572C105.471 172.373 103.77 176.125 99.9815 176.769C93.8423 177.812 81.698 167.951 79 176M96 193L96 199C102.281 200.741 106.609 205.973 113 207.259C120.943 208.858 124.089 202.935 131 201.621C135.79 200.71 141.73 204.198 147 203.961C151.902 203.74 157.384 202.502 160.596 198.471C161.792 196.97 163.22 194.476 161.917 192.607C160.821 191.035 158.672 191.322 157.165 192.004C152.702 194.022 150.305 197.59 145 197.944C139.279 198.327 135.425 193.81 130.014 194.233C124.728 194.646 121.503 200.491 116 199.971C108.772 199.288 103.74 193.087 96 193z"/>
</svg>