<?xml version="1.0" encoding="utf-8" standalone="yes"?>
<svg xmlns="http://www.w3.org/2000/svg" width="256" height="256">
	<path style="fill:#fff;" d="M113 5.42438C91.7072 8.25438 69.4717 16.9485 53.0394 31.2593C42.0778 40.8056 32.9614 53.7003 25.456 66C17.7396 78.6455 10.1129 93.285 7.46451 108C5.43122 119.297 6.13427 130.665 6.91049 142C7.64301 152.697 7.70795 162.6 11.0509 173C13.5884 180.894 19.074 187.826 23.9105 194.424C26.8926 198.493 28.7159 203.213 32.1852 206.957C38.26 213.512 46.6054 218.866 53.8302 224.086C60.6197 228.991 66.6701 235.867 74 239.89C96.2449 252.1 122.117 254.625 147 250.695C150.272 250.179 153.116 248.553 156.285 247.713C193.179 237.928 224.555 209.832 239.875 175C242.879 168.171 246.949 162.442 248.487 155C249.609 149.572 249.098 144.425 249.375 139C251.374 99.895 238.6 59.5383 209.571 32.0957C206.708 29.3887 203.187 27.9458 200.17 25.5054C191.816 18.7485 182.361 12.7337 172 9.05402C167.144 7.32933 162.047 7.25456 157 6.57562C142.85 4.67226 127.225 3.5338 113 5.42438z"/>
	<path style="fill:#000;" d="M37 67C44.6214 81.4668 53.0542 95.1347 61.5363 108.999C66.0555 116.386 70.8582 126.084 77 132C72.9927 111.465 93.1754 86.669 111 78.7847C118.287 75.5615 124.256 75.4408 132 74.9105C148.371 73.7894 163.712 75.7911 180 76.4059C185.698 76.621 191.342 75.2051 197 75.1327C200.118 75.0928 202.925 76.4865 206 76.6211C212.937 76.9249 220.01 75.0046 227 75C223.776 66.4941 217.656 58.9091 211.92 51.9599C206.013 44.8039 200.314 37.1365 192.741 31.5802C178.513 21.1418 163.104 17.4854 146 15.8302C132.838 14.5565 118.06 13.7663 105 16.3789C95.7967 18.2199 85.2206 23.3282 77 27.8017C59.4287 37.3636 49.7464 52.483 37 67M31 77C28.3079 83.8262 24.2562 90.1122 21.7091 97C16.9427 109.889 14.488 126.259 15.429 140C15.981 148.06 17.1105 158.277 19.6728 166C27.3707 189.201 47.0055 206.575 65.9853 220.572C82.602 232.826 99.9036 241.998 121 242C125.43 233.954 132.911 227.344 137.367 219C140.179 213.732 141.095 207.51 143.345 202C146.867 193.374 151.636 185.208 156 177C143.288 181.145 131.848 187.562 118 185.815C110.68 184.891 103.585 179.402 98 174.906C94.2938 171.922 89.8821 169.308 86.6698 165.791C76.817 155.002 71.293 141.064 63.4591 129.039C60.7838 124.933 58.3237 120.306 55.3904 116.424C53.0087 113.273 49.9225 110.598 48.1605 107C47.0914 104.817 46.9948 102.313 45.8395 100.17C43.5129 95.8546 39.703 92.3858 37.3125 88C35.2447 84.2064 34.1942 79.9946 31 77M159 85C162.753 89.2717 167.954 91.9555 171.571 96.1844C177.065 102.607 181.08 111.7 182.536 120C184.801 132.904 177.444 147.333 172.874 159C161.826 187.206 149.34 214.118 136 241C158.444 240.938 178.975 227.976 196 214.4C203.259 208.611 210.377 202.359 216.076 194.961C221.828 187.493 225.55 179.339 229.589 171C234.324 161.222 240.073 152.267 240.787 141C240.978 137.986 240.171 135.006 240.039 132C239.552 120.885 238.747 110.732 236.109 100C235.14 96.0598 233.687 88.6318 230.276 86.0278C226.263 82.9635 217.692 86.1409 213 85.9599C201.666 85.5226 190.285 87.4003 179 86.9599C172.328 86.6995 165.625 83.8835 159 85M121 85.5579C109.426 88.4818 100.053 98.4772 93.9853 108C91.6131 111.723 88.6381 115.608 87.6528 120C87.055 122.664 87.7625 125.314 87.625 128C87.3684 133.014 86.2425 138.066 87.8503 143C92.9439 158.63 111.517 180.256 130 175.505C137.913 173.472 148.165 170.328 154.711 165.298C162.105 159.616 165.071 150.333 168.204 142C170.34 136.322 172.448 131.21 172.428 125C172.373 107.918 160.65 99.455 147 92.1211C139.614 88.1524 129.74 83.3499 121 85.5579z"/>
</svg>