<?xml version="1.0" encoding="utf-8" standalone="yes"?>
<svg xmlns="http://www.w3.org/2000/svg" width="256" height="256">
	<path style="fill:#fff;" d="M121 168C104.979 168.318 93.873 153.828 83.9144 143C79.9561 138.696 73.3277 128.753 66.1474 131.619C57.129 135.218 67.5326 148.297 71.0934 151.91C83.4521 164.451 96.7055 174.651 111.004 184.652C115.464 187.772 122.065 193.718 127.961 192.644C130.302 192.217 132.051 190.476 134.17 189.526C138.226 187.708 143.029 186.71 146.715 184.147C154.468 178.754 159.412 170.084 165.609 163.263C167.706 160.954 170.608 159.627 172.996 157.66C177.058 154.316 180.534 150.299 184.564 146.884C186.264 145.444 188.401 143.954 189.222 141.791C190.645 138.043 189.533 129.491 184.942 128.488C179.055 127.203 173.39 135.191 170.116 139.021C164.893 145.129 157.85 149.586 152.227 155.325C147.79 159.853 145.154 164.83 140 169C138.202 154.323 133.594 139.904 132.17 125C131.191 114.755 130.613 102.207 131.545 92C131.825 88.9361 132.926 86.1254 132.981 83C133.063 78.2954 131.923 73.7038 131.847 69C131.763 63.7633 130.352 58.9483 129.737 53.8302C128.998 47.6854 129.71 40.6007 122 40C121.916 36.0586 118.801 19.845 111.743 26.7469C109.098 29.3341 110.69 33.8321 110.91 37C111.581 46.6204 112.465 56.3974 113.571 65.9992C114.211 71.5549 112 77.275 112 83C112 89.7517 114.662 95.4564 114.959 102C115.322 109.991 113.536 117.923 114.09 126C115.065 140.244 119.598 153.916 121 168M210 220C211.619 216.945 213.128 212.415 208.852 210.607C203.745 208.449 198.086 212.58 193 212.582C184.848 212.585 176.067 210.747 168 209.44C161.49 208.384 155.188 209.541 148.715 209.097C144.247 208.791 140.467 206.314 136 206.044C126.374 205.462 116.641 206.222 107 205.985C102.637 205.878 98.383 204.821 94 205.044C85.9074 205.456 78.2651 207.062 69.9961 207.003C60.7051 206.937 49.0346 206.53 40 208.594C37.311 209.209 33.459 209.756 31.3179 211.6C27.5126 214.876 28.7587 222.041 34.044 222.682C38.8797 223.269 44.1418 221.389 49 221.259C57.2124 221.04 65.5516 222.092 73.8302 221.884C91.2735 221.447 108.661 226.564 126 227.629C145.105 228.802 163.878 226.349 183 228.17C192.974 229.12 202.966 230.988 213 231C217.176 231.005 222.273 231.48 225.566 228.347C228.563 225.495 228.045 220.713 223.891 219.434C219.529 218.09 214.385 219.446 210 220z"/>
</svg>