<?xml version="1.0" encoding="utf-8" standalone="yes"?>
<svg xmlns="http://www.w3.org/2000/svg" width="256" height="256">
	<path style="fill:#fff;" d="M59 47.9769C49.862 51.7544 39.9573 61.0211 35.6335 70.0394C32.486 76.604 34.882 83.7639 32.0563 90C29.0609 96.6105 25.9168 103.057 23.6983 110C22.656 113.262 23.2883 116.739 22.196 120C18.7024 130.43 13.2318 140.418 10.108 151C6.0819 164.638 7.23721 179.677 13.7801 192C16.7475 197.589 19.3786 201.526 25 204.829C38.6391 212.845 54.0817 209.033 65.2701 198.115C73.7064 189.882 78.8591 178.985 86.598 170.209C95.513 160.099 110.168 152.623 124 152.998C132.894 153.24 140.92 157.023 149.001 159.945C156.444 162.637 164.438 164.312 170.715 169.49C181.827 178.657 188.578 191.674 202.039 198.085C206.912 200.405 212.727 200.665 218 201.421C223.649 202.229 229.702 202.589 235 200.08C250.109 192.926 249.965 172.184 248.285 158C246.767 145.172 244.12 133.174 239.293 121.039C237.339 116.127 233.904 112.032 232.09 107C230.211 101.785 229.975 96.1491 228.187 91C223.786 78.3246 214.937 61.8608 205.251 52.4298C198.832 46.1806 186.433 47.1529 179.09 50.9769C172.804 54.2499 167.961 59.169 161 61.4051C141.031 67.8199 118.306 64.4421 98 60.5394C85.5353 58.1437 72.5081 42.3928 59 47.9769z"/>
	<path style="fill:#000;" d="M64.0008 57.6181C59.8569 57.8772 57.8323 60.2511 54.831 62.7168C52.7696 64.4104 49.9459 65.2382 48.3403 67.429C44.266 72.9884 44.332 79.8329 41.4969 85.7145C38.8666 91.1712 39.0576 96.287 37.5926 102C36.4051 106.631 34.5535 111.379 33.1659 116C31.9882 119.922 31.1696 124.216 29.6481 128C21.7644 147.605 6.66153 181.291 31.0154 196.312C46.0741 205.6 59.33 189.627 67.3202 179C75.4955 168.127 81.8329 157.447 94 150.223C120.937 134.229 156.55 148.192 179.946 164.031C185.696 167.923 189.715 174.674 194.375 179.715C202.119 188.092 212.522 193.814 223.999 191.854C240.634 189.013 238.155 170.323 238.004 158C237.886 148.381 234.491 141.887 231.45 133C229.637 127.701 227.307 122.371 225.789 117C224.953 114.042 225.181 110.918 224.196 108C221.554 100.177 216.693 92.5432 213.258 85C209.793 77.3886 208.072 67.9986 201.381 62.3287C188.882 51.7364 176.049 68.0116 164 71.6312C156.566 73.8645 149.636 73.705 142 74.0394C124.44 74.8083 106.019 73.7573 89 69.2924C80.3019 67.0105 73.3308 57.0345 64.0008 57.6181z"/>
	<path style="fill:#fff;" d="M106 110C101.534 116.539 97.0586 123.602 91 128.79C85.8296 133.218 78.5893 134.35 78 142C89.485 143.299 97.7495 129.76 104.999 122.715C108.128 119.674 113.035 114.823 112.563 110.004C112.228 106.58 109.216 104.106 106.949 101.845C101.98 96.8884 96.6775 92.6266 91.9128 87.463C89.8338 85.2099 88.46 81.2743 85.8465 79.6975C82.9613 77.9568 79.412 80.4075 81.0864 83.6906C82.4004 86.2669 85.5752 87.8526 87.3912 90.0934C92.8506 96.8297 97.3951 106.752 106 110M117 134L117 138C125.529 139.078 133.456 137.997 142 138C149.146 138.002 155.867 139.127 163 138.285C165.913 137.942 177.364 139.634 177.364 135C177.364 130.373 165.844 131.899 163 132.09C147.681 133.114 132.375 132.057 117 134z"/>
</svg>