<?xml version="1.0" encoding="utf-8" standalone="yes"?>
<svg xmlns="http://www.w3.org/2000/svg" width="256" height="256">
	<path style="fill:#fff;" d="M66 62C59.7569 63.1094 53.9555 66.2388 48 68.3588C43.6001 69.925 39.3811 71.9573 35 73.4946C31.0284 74.8882 26.6083 75.3107 23.0394 77.7269C16.1863 82.3664 10.5973 91.8714 9.2608 100C8.39244 105.281 8.23546 113.94 10.0286 119C11.1617 122.198 13.7189 124.691 14.5633 128C15.3226 130.975 14.0779 134.072 14.912 137C15.9867 140.772 20.2889 145.895 23.2593 148.427C36.6616 159.855 55.1581 133.108 65.8557 151.001C67.1519 153.169 67.9596 155.573 68.6111 158C69.2134 160.244 69.8814 162.661 69.5154 165C67.9075 175.278 55.6839 178.301 47 178.91C42.4109 179.232 37.7487 178.338 34.314 182.148C29.4485 187.546 30.4934 198.422 31.706 205C34.613 220.769 38.4816 241.193 56 246.986C70.4137 251.753 87.9613 244.051 101 238.467C106.869 235.954 113.163 236.318 115.276 228.999C116.491 224.79 116.52 219.122 115.009 215C113.467 210.792 110.089 206.636 109.908 202C109.763 198.286 112.873 193.782 115.34 191.213C116.945 189.54 118.903 188.314 121.001 187.353C128.209 184.049 136.535 184.754 139.852 193.015C143.353 201.735 137.688 215.302 148.093 220.972C152.499 223.373 159.231 221.789 164 221.593C180.918 220.899 202.62 216.582 214.316 202.871C221.117 194.897 219.935 172.137 211 166C211.968 161.533 211.228 156.395 209.911 152C209.159 149.49 207.415 145.898 209.758 143.657C211.719 141.781 214.764 143.39 217 143.742C220.702 144.323 225.388 144.433 229 143.351C246.038 138.246 249.723 118.845 244.272 103.44C239.991 91.3431 225.744 86.1064 214 88.5147C206.375 90.0781 200.11 96.4946 193.264 89.8256C187.312 84.0275 187.885 75.4241 185.367 68.0394C184.132 64.4154 181.518 61.3722 179.76 57.9961C176.174 51.1098 173.28 45.3886 166.985 40.2785C156.586 31.8368 139.091 36.4521 128 40.5448C123.762 42.1086 117.924 47.1814 113.152 45.3565C109.194 43.8427 110.91 38.2498 110.561 35C109.699 26.9651 108.333 17.8465 101.285 12.6335C85.8588 1.22162 55.9639 13.5132 55.0401 33C54.7174 39.8073 57.0428 46.1467 60.5285 51.9606C62.6961 55.5759 65.3341 57.6968 66 62z"/>
	<path style="fill:#000;" d="M42 189C39.7098 201.336 41.0411 211.886 46.7423 223C49.8554 229.069 53.0483 234.738 60 236.826C69.5625 239.697 78.0025 235.568 87 232.876C92.613 231.196 99.2167 230.533 103.681 226.271C108.963 221.229 100.522 210.917 99.598 205C97.5641 191.983 109.956 178.968 122 175.719C136.242 171.878 148.527 179.761 150.572 194C151.226 198.558 149.23 207.758 153.514 210.821C157.572 213.723 164.563 212.04 169 211.407C171.998 210.979 175.003 211.506 178 210.921C186.864 209.19 202.433 202.575 206.581 193.907C210.292 186.151 205.171 177.959 207 170C204.097 166.923 201.994 162.995 200.548 159C199.175 155.207 196.512 150.009 196.434 146C196.299 139.154 202.337 132.794 209 132.148C215.048 131.562 220.708 135.32 226.91 133.683C238.717 130.567 238.268 114.705 233.396 106.171C222.604 87.2646 203.588 111.175 189.039 100.306C179.163 92.9267 179.573 82.7835 176.367 72C173.283 61.6281 164.808 50.4052 155 45.6852C149.44 43.0098 143.32 46.5457 138 48.5756C127.241 52.6803 116.552 59.8416 105.043 53.1998C92.6371 46.0401 108.315 24.5154 90.9815 19.9035C88.7125 19.2999 86.348 18.9903 84 19.1049C81.2829 19.2375 78.525 19.8866 76.0147 20.9306C73.3033 22.0581 71.2167 23.6139 69.6335 26.1049C67.3828 29.6463 64.2889 34.589 65.7392 38.9105C68.0838 45.8965 79.9286 56.3845 74.4213 63.8148C70.7314 68.7932 63.4579 71.5238 58 73.9344C54.515 75.4737 51.5728 77.9171 48 79.2863C38.7239 82.8412 26.6201 83.9631 21.3179 94.0147C19.9917 96.5287 20.1297 99.276 19.6759 102C19.2873 104.333 18.3744 106.6 18.5633 109C19.191 116.976 22.8145 129.745 28.0548 135.857C29.6601 137.73 31.4359 141.042 34.1327 141.339C39.1436 141.891 45.3433 135.91 50.0039 134.247C61.1773 130.259 72.7857 138.839 76.9252 149C77.9811 151.592 77.8562 154.298 78.3742 157C79.0382 160.463 80.1436 163.403 79.706 167C77.4816 185.284 57.0183 189 42 189z"/>
</svg>