<?xml version="1.0" encoding="utf-8" standalone="yes"?>
<svg xmlns="http://www.w3.org/2000/svg" width="256" height="256">
	<path style="fill:#000;" d="M0 0L0 256L256 256L256 0L0 0z"/>
	<path style="fill:#fff;" d="M144 32L141 32C141 26.7877 141.655 20.5717 137.271 16.7423C135.496 15.192 133.243 15.0863 130.999 15.0154C125.81 14.8515 114.262 12.8881 111.18 18.1481C108.612 22.5299 111.594 29.5916 113 34L109 35C108.668 30.7947 108.599 23.8253 105.297 20.7423C100.606 16.3616 89.2219 19.3505 84.0008 21.1188C81.5268 21.9567 78.7492 22.5069 77.6034 25.1474C75.6367 29.6795 77.2656 36.2827 77.625 41C77.9524 45.2974 77.7676 49.6645 78.0455 54C78.4266 59.9446 78.0251 66.0298 78.2554 72C78.5236 78.952 80.1128 86.0508 79.9452 93C79.8227 98.0829 78.0432 102.849 78 108C74.0398 106.829 70.1129 107 66 107C65.9315 98.7271 65.0951 90.2567 65.6605 82C65.9342 78.0033 68.414 73.204 65.821 69.4336C64.088 66.9138 60.717 67.0431 58 67.0039C55.7191 66.9709 53.3405 67.1807 51.0895 66.7261C46.493 65.7977 39.9494 61.2686 36.0278 66.6528C32.837 71.0335 36.1525 79.034 36 84L32 84C31.9067 80.4275 32.7069 72.3357 30.8056 69.4329C26.4436 62.7733 13.7008 69.6923 8 70C6.33496 78.9686 7.52969 87.9581 6.91049 97C6.32379 105.568 6.8264 114.491 5.87114 123C5.4475 126.773 4.06147 130.14 4.00463 134C3.92775 139.221 5.79474 143.869 5.98148 149C6.20662 155.186 6.73612 161.848 6.45525 168C6.3005 171.39 5.06099 174.549 5.00463 178C4.88978 185.032 5.99728 191.954 6 199C6.00399 209.347 8.53023 218.884 9.93519 229C10.2619 231.352 10.5794 238.578 14.74 237.248C18.1261 236.166 16.9095 229.627 17.0895 227C17.7792 216.938 16.1374 207.999 15.1698 198C14.4636 190.703 15.4449 183.306 14.946 176C14.5756 170.576 12.2811 165.512 12.0394 160C11.675 151.691 13.8731 144.095 13.9954 136C14.2972 116.022 13 96.0727 13 76C15.5593 76.7873 19.3512 76.8892 20.9722 79.3179C24.7892 85.0368 20.9881 94.0138 31.0008 94.8765C34.832 95.2067 44.7269 94.5334 46.7315 90.7677C48.8377 86.8112 40.8077 72.2182 50.9861 75.3958C56.6292 77.1576 56.4643 82.1224 56.071 87C55.4724 94.4236 54.4677 101.187 56.0856 108.576C56.7296 111.517 57.4604 115.283 60.2747 116.968C62.8257 118.495 65.3801 117.175 68 116.741C73.1254 115.891 85.8406 117.524 87.6829 110.941C89.3307 105.053 88.168 98.9285 88.054 93C87.9381 86.9696 89.3967 81.0974 88.9066 75C88.3704 68.3282 86.2389 61.7353 85.9691 55C85.64 46.7838 86.9991 38.3214 87 30C90.6954 29.533 94.2648 29.0309 98 29C98.0122 33.4303 97.8302 39.0386 100.843 42.6821C104.285 46.8432 117.25 46.2142 120.307 41.7716C123.085 37.7351 120.096 29.646 120 25L131 25C131 29.4305 129.552 37.0609 132.603 40.6821C137.024 45.9289 150.01 42.0751 152.972 36.8256C155.149 32.9688 153.965 27.0537 153 23C157.491 23.1051 161.572 24.5592 166 25C165.942 32.0362 164.875 38.9247 165.093 46C165.178 48.7353 166.304 51.2975 166.366 54C166.428 56.7265 165.149 59.2448 165.224 62C165.427 69.4446 167.074 76.6508 167.826 84C168.503 90.6245 164.891 99.6192 169.024 105.682C171.826 109.792 180.914 109.196 185 108C187.517 112.564 193.914 113.201 194.848 106.981C195.35 103.636 194.211 100.326 194.129 97C193.953 89.8603 194.347 80.9442 196 74C199.657 75.0809 203.199 74.9996 207 75C206.634 76.9762 206.153 78.9821 206.183 81.0046C206.327 90.8153 214.483 90.5058 222 89.9877C225.034 89.7785 229.196 90.1814 231.357 87.5556C233.605 84.8248 232.027 79.3027 232 76L242 76C240.613 83.4693 241.408 90.7614 241.112 98.2855C240.751 107.445 239.641 116.858 238.907 126C238.633 129.402 237.367 132.598 237.093 136C236.426 144.297 237.513 152.698 236.946 161C236.712 164.428 235.288 167.572 235.054 171C234.332 181.568 235 192.407 235 203C235 213.141 234.01 223.936 235.326 233.999C235.83 237.859 238.641 244.014 243.567 240.806C246.905 238.632 245.423 234.174 245.054 231C244.073 222.564 245 213.504 245 205C245 189.719 243.692 174.184 244.015 159C244.103 154.869 245.579 151.081 245.907 147C246.52 139.366 245.554 131.641 246.09 124C246.486 118.348 247.818 112.629 248.576 107C249.627 99.1877 252.013 91.93 252 84C251.993 79.557 252.146 76.2859 248 74C250.299 63.6523 229.211 63.3094 223.603 68.1397C220.549 70.7706 222 78.3621 222 82C211.563 79.8298 219.723 70.6454 213.486 66.179C210.567 64.0885 205.377 65.0168 202 64.9992C197.97 64.9782 191.914 62.3342 188.225 63.7855C184.748 65.153 184.183 69.7807 184.041 73C183.645 81.9382 187.025 91.1894 185 100C182.25 98.6707 180.05 98.1535 177 98C176.718 84.349 171.787 70.3735 172.928 56.7145C173.671 47.8241 175.565 39.0321 175.961 30C176.094 26.9582 176.786 22.2352 175.397 19.429C174.416 17.4478 171.881 16.61 169.995 15.7585C164.864 13.4412 150.123 10.8628 145.804 15.4336C141.526 19.9617 143.887 26.5103 144 32M121.101 52.8611C116.168 55.0658 114.81 61.2218 113.91 65.9606C113.305 69.149 111.318 71.8008 110.853 75.0147C110.236 79.2881 111.37 83.7689 111.855 88C112.211 91.1057 111.235 95.8777 113.039 98.5664C114.557 100.83 117.557 100.908 120 100.985C126.017 101.174 135.261 102.401 140.852 99.9676C146.139 97.6668 143.16 90.3466 143.375 86C143.508 83.308 144.09 80.7164 143.903 78C143.172 67.3813 135.826 46.2809 121.101 52.8611z"/>
	<path style="fill:#000;" d="M118 97C123.692 97 131.746 97.946 136.436 93.9144C138.589 92.0633 138.973 88.6645 138.776 86C138.255 78.9567 136.944 68.0059 132.273 62.3904C127.405 56.538 121.825 60.2573 119.37 65.9992C118.435 68.1878 118.364 70.2597 118.123 72.5748C117.768 75.9693 115.385 78.7215 115.226 82.0895C115.004 86.8052 117.122 92.3385 118 97z"/>
	<path style="fill:#fff;" d="M193 200C197.173 199.902 200.898 198.486 205 198.104C210.264 197.615 215.714 198 221 198L221 192C213.309 192 205.533 193.869 198 193C198 171.59 193.005 146.131 210 130C210.482 135.893 213.202 141.165 213.826 147C214.299 151.412 213.231 155.622 213.039 160C212.801 165.434 213.723 170.615 213.961 176C214.206 181.561 213.119 188.809 220 190C220 173.317 217.402 156.581 218.196 140C218.451 134.672 217.863 125.319 211.895 123.099C203.311 119.905 196.966 131.243 195.518 138C191.315 157.6 189.323 180.194 193 200M39 202C45.0303 201.876 50.9161 200.629 56.9853 201.054C60.7848 201.32 64.1382 202.886 68 203L71 195L67 194C67.7434 187.176 65.8205 179.838 65.1698 173C64.0986 161.744 63.9652 151.179 61.6497 140.001C60.5122 134.509 55.799 126.575 49.0648 127.203C42.196 127.844 41.8725 138.247 40.3248 143.17C38.4365 149.176 38.8928 155.355 37.9954 161.576C36.0243 175.239 34.8113 188.576 39 202z"/>
	<path style="fill:#000;" d="M50 133C48.3083 139.472 45.4746 146.406 44.6242 153C43.8009 159.384 45.585 168.107 41 173C42.3096 178.316 42.9541 183.529 43.0008 188.999C43.0195 191.199 42.6516 194.275 44.6034 195.821C49.0075 199.309 56.299 195.599 61 195C58.617 182.164 60.2386 168.91 59.1196 156C58.427 148.01 55.2279 140.237 52 133L50 133z"/>
	<path style="fill:#fff;" d="M88 242L90 242C92.8438 232.4 90.9299 223.366 90.8989 213.715C90.8667 203.671 92.4837 193.961 94.5239 184.17C95.3184 180.357 95.2843 175.698 96.9336 172.17C101.278 162.875 109.304 156.935 118 152.407C123.724 149.426 129.367 146.691 136 147.265C141.714 147.758 147.493 148.161 152.715 150.789C173.381 161.186 177.824 191.205 180.285 212C180.944 217.566 180.216 223.468 181.148 228.941C181.483 230.907 183.091 233.547 185.416 231.914C187.953 230.132 187.004 224.636 187 222C186.986 212.631 184.619 204.131 183.3 195C180.626 176.493 176.964 158.925 160.791 147.133C155.59 143.34 148.177 142.515 142 141.97C121.949 140.2 101.356 147.607 91.659 167C86.6352 177.048 86.4955 190.013 85.9614 201C85.2899 214.815 84.0012 228.502 88 242M133 151C133 174.405 128.486 197.378 130.155 221C130.528 226.272 130.648 231.443 131.104 236.714C131.299 238.964 131.091 242.175 134.09 242.535C136.963 242.88 137.646 240.254 137.513 237.981C137.171 232.142 135.427 226.924 135.845 221C136.755 208.103 135.85 194.934 136.004 182C136.061 177.218 137.524 172.728 137.79 168C138.102 162.455 137 156.618 137 151L133 151M139 196C139.198 204.421 146.333 217.079 155.125 207.096C157.13 204.82 158.08 201.824 159 199C153.489 197.622 151.563 200.731 147 203L146 196L139 196M117 204C114.203 200.484 112.542 199.151 108 199C108.107 203.462 109.529 206.857 111 211C113.473 211.099 116.509 211.833 118.91 211.088C124.588 209.325 126.845 202.225 127 197C121.204 197.069 119.259 198.675 117 204z"/>
</svg>