<?xml version="1.0" encoding="utf-8" standalone="yes"?>
<svg xmlns="http://www.w3.org/2000/svg" width="256" height="256">
	<path style="fill:#fff;" d="M45 157C34.3367 158.637 30.4232 168.085 23.5324 174.698C20.6202 177.492 16.408 178.219 13.2901 180.789C10.4903 183.098 6.40372 188.021 10.4383 191.215C14.2856 194.26 19.9393 189.411 22.7909 186.985C25.0655 185.049 26.6997 182.486 29.1003 180.694C36.8684 174.898 48.6438 169.978 49 159C53.742 158.244 57.02 153.904 53.3966 149.39C51.3242 146.809 47.6989 145.792 45 144.034C41.4819 141.742 38.2467 138.681 35.2855 135.715C22.8065 123.213 14.0782 105.436 12.8449 88C12.4875 82.9471 11.5608 74.9062 13.5494 70.1698C20.8848 52.6978 45.5417 49.2234 61 42.6374C66.648 40.231 71.719 36.1261 77 33C74.3354 38.0545 70.5956 41.4963 67.4668 46.1042C62.858 52.8918 59.3194 60.6193 55.8302 68C53.0985 73.7785 50.007 79.4432 49.5926 86C49.4172 88.7743 50.6491 91.2682 50.8318 94C51.3977 102.463 49.9521 107.743 56.3789 114.816C63.6383 122.804 73.9789 125.077 83 130.237C85.3465 131.579 88.4547 132.386 90.2577 134.499C92.2422 136.826 91.9497 140.217 92.7994 143C94.1268 147.349 96.8886 152.214 99.7886 155.71C108.944 166.747 122.491 164.922 135 165.874C140.973 166.329 144.073 168.852 150 166C151.034 169.889 150.702 174.301 152.37 177.961C154 181.534 157.057 182.973 159.914 185.386C166.625 191.052 171.036 193.236 179.999 193.815C184.686 194.118 191.638 191.167 195.851 189.121C197.493 188.324 199.262 186.485 197.914 184.589C195.801 181.617 189.867 184.357 187 184.414C181.073 184.53 171.01 182.69 166.105 179.262C162.33 176.623 159.14 170.464 158.275 166C157.455 161.77 158.874 157.204 153.941 155.167C148.755 153.026 143.52 157.992 138.424 158.687C131.438 159.639 123.251 155.092 117 152.601C114.132 151.458 110.72 150.613 108.39 148.49C101.411 142.129 104.438 129.104 96.9414 123.818C90.4932 119.271 81.9271 120.277 75 116.737C68.4708 113.4 65.7162 107.861 61.9213 102C59.9199 98.9088 57.178 95.9244 57.4838 92C58.7041 76.3418 69.2111 66.3038 75.7261 53C80.3236 43.6118 82.5639 32.9236 90.7577 25.5571C94.4824 22.2085 99.6663 20.6775 104 18.2593C106.526 16.8497 108.975 15.0172 112 15.1782C120.78 15.6457 129.646 23.5803 135.715 29.3248C138.616 32.0715 141.038 35.8829 145 37.2184C149.44 38.7152 153.605 35.5008 158 35.5093C167.045 35.5267 175.116 38.7981 181.961 44.5139C188.442 49.9269 194.838 59.6224 196.609 68C197.435 71.9106 194.672 78.156 197.746 81.2546C200.544 84.0748 205.547 82.2171 208.83 84.5787C212.507 87.2239 215.346 91.583 218.271 95L233.729 113C236.141 115.818 240.97 119.72 241.505 123.576C242.235 128.844 235.284 134.231 233.698 139.001C230.444 148.791 228.28 158.781 222.725 167.871C220.776 171.062 217.264 172.969 215.044 176.019C212.653 179.303 211.532 183.41 208.983 186.532C205.936 190.265 200.643 193.079 196.576 195.597C190.694 199.238 183.752 202.493 177 204.101C173.587 204.914 168.417 204.102 165.514 206.179C162.833 208.097 163.324 211.292 164 214C156.66 216.295 152.365 228.155 148.637 234.424C147.102 237.007 146.307 241.029 149.318 242.968C154.165 246.089 157.112 240.522 159.03 237.169C162.974 230.274 170.372 224.718 168 216C174.535 214.786 181.795 214.992 188 212.482C201.314 207.098 214.56 196.541 222.956 184.981C225.202 181.89 226.079 178.387 227.968 175.17C230.063 171.602 232.904 168.811 234.738 165C237.061 160.171 238.063 154.884 240.246 150C243.461 142.809 249.1 136.747 251.201 129C253.893 119.072 248.327 113.077 242.271 106L224.271 85C219.484 79.4077 215.857 73.4304 208 73C205.635 57.7732 198.155 40.3304 184 32.6481C179.288 30.0907 172.224 28.3096 167 26.9282C161.112 25.3714 154.898 27.4353 149.001 25.4398C144.424 23.8912 142.019 19.8107 138.675 16.6651C133.473 11.7712 123.386 6.17137 116 6.38272C109.884 6.55774 101.221 6.31795 96.0154 9.76466C90.8331 13.1959 87.8029 20.1491 81.9105 22.4151C74.3849 25.3092 66.3878 27.2025 59 30.821C55.2275 32.6687 52.4193 35.6861 48.8302 37.74C44.8764 40.0026 40.2248 41.5047 36 43.1998C30.9857 45.2118 26.1081 48.2483 21 49.8673C17.6875 50.9171 14.0453 50.7574 11.3904 53.3171C6.09001 58.4276 7.72156 65.5681 6.25463 72C-0.351842 100.966 11.1619 127.6 32.0895 147.895C35.9013 151.592 40.9083 153.638 45 157M107 87C101.082 91.1286 99.4536 105.22 99.294 112C99.2387 114.347 98.176 119.255 101.259 120.248C103.972 121.122 104.775 117.931 104.867 115.981C105.315 106.376 111.852 97.6126 111 88C115.855 84.6768 116.114 77.1528 118.338 72C121.688 64.2373 127.283 57.3044 132.869 51.0394C134.463 49.2512 141.021 43.6929 137.377 41.0818C133.026 37.9637 126.265 46.2399 124.13 49.0039C116.709 58.6118 105.868 74.2234 107 87M191 88C190.106 94.0279 185.612 99.7599 182.594 105C177.806 113.315 174.354 121.615 167.715 128.83C164.706 132.1 154.308 139.617 155.752 144.681C156.378 146.878 159.073 146.834 160.715 145.953C164.284 144.038 167.095 139.257 169.315 136C173.827 129.381 178.134 122.415 182.927 116.015C189.417 107.35 196.869 99.6495 197 88L191 88M106 170L105 169C96.6584 172.729 91.6751 185.335 97.0895 193.714C100.564 199.09 108.5 201.414 106.747 209C105.09 216.168 101.936 222.605 98.1435 228.834C96.9381 230.814 94.2971 233.983 96.071 236.385C98.946 240.278 103.705 234.166 105.073 231.985C107.829 227.59 108.934 222.831 110.809 218.09C112.481 213.863 114.746 210.8 113.965 206C113.243 201.57 111.556 197.66 108.571 194.3C106.074 191.49 101.857 188.907 101.067 184.985C100.096 180.162 104.304 174.306 106 170M113 173C111.223 177.273 108.202 181.052 109.318 186C110.973 193.337 120.184 196.805 121.844 204.09C123.061 209.428 119.159 214.651 119 220C131.093 219.865 135.685 212.527 139 202C132.884 200.642 130.573 205.815 127 210C126.958 204.915 127.385 198.479 124.736 194.004C122.811 190.752 117.65 187.788 116.657 184.32C115.814 181.379 117.232 176.316 117 173L113 173M142.325 204.137C137.897 206.279 136.478 213.818 133.076 217.316C127.84 222.699 119.472 221.571 115.72 229.015C113.797 232.83 112.737 237.725 112.487 241.981C112.361 244.127 113.033 247.06 115.91 246.248C120.456 244.966 118.891 236.505 120.988 233.133C123.723 228.736 129.756 228.176 133.91 225.74C138.668 222.949 141.534 218.673 144.165 214C145.428 211.757 149.886 200.478 142.325 204.137z"/>
</svg>