<?xml version="1.0" encoding="utf-8" standalone="yes"?>
<svg xmlns="http://www.w3.org/2000/svg" width="256" height="256">
	<path style="fill:#fff;" d="M53 135C42.9591 135.228 29.8337 136.462 21.0008 141.519C16.6691 143.998 11.4732 149.531 15.7423 154.566C18.331 157.62 23.4832 157.26 27 156.471C36.6315 154.311 45.8688 149.633 55 146C55.031 149.698 56.0796 153.356 56.0309 157C55.9521 162.886 53.3426 171.222 57.027 176.682C59.3291 180.093 66.4187 179.102 70 181.258C73.0745 183.11 75.7004 185.714 79 187.182C83.6323 189.244 89.0743 189.635 94 190.615C99.3297 191.675 104.577 193.509 110.039 193.871C121.483 194.63 133.675 192.998 145.075 191.846C147.917 191.558 150.283 189.987 153.09 189.609C165.056 187.994 186.09 188.199 185.903 171C185.872 168.217 184.817 165.62 184 163C188.627 167.378 194.251 170.22 198.896 174.58C202.406 177.876 204.609 182.052 208.965 184.39C212.019 186.031 217.109 189.364 220.257 186.254C224.417 182.144 219.23 174.21 217.695 170C215.437 163.806 211.86 158.143 209.684 152C206.324 142.52 203.931 133.872 199 125C210.469 122.364 222.443 126.79 234 123.114C236.556 122.301 241.27 121.652 242.972 119.411C244.617 117.246 244.114 113.263 242.972 111.004C240.141 105.4 232.516 98.5364 227.91 94.1844C224.091 90.575 219.482 88.7438 215.17 85.9336C207.316 80.815 196.025 72.4676 186 73.1921C178.329 73.7466 173.602 78.4206 168 83C167.256 79.1617 167.214 71.3687 163.683 69.0278C158.241 65.4198 149.68 69.6884 144 70.294C139.933 70.7275 136.046 69.223 132 69.0394C123.163 68.6382 114.652 69.5146 106 70.5355C102.989 70.8908 100.023 69.8923 97.0008 70.1219C94.4001 70.3195 92.123 71.5612 89.5756 71.9298C83.5679 72.7991 77.9206 72.3726 72 74.4082C66.8338 76.1844 63.284 79.5814 58.8302 82.4406C56.2576 84.0921 52.6544 83.8605 50.6042 86.3179C48.219 89.1767 49.5189 93.596 49.0262 97C47.1832 109.733 48.8914 122.831 53 135z"/>
	<path style="fill:#000;" d="M81 83C81.8732 89.6478 81.3508 96.4115 82.3002 103C83.0135 107.951 84.9727 111.944 84 117C86.6692 120.469 87.3646 125.678 88 130C92.4876 128.969 96.5634 130.343 101 129.726C114.555 127.84 127.216 127 141 127C141.945 120.766 147.377 112.873 153 110C153.393 102.25 160.314 99.6301 163 93C158.49 88.8037 157.751 83.9143 157 78C151.376 78.9976 146.512 76.9905 141 77.3896C120.854 78.8483 101.033 79.2234 81 83M155 112C154.523 117.916 150.408 121.481 147 126C155.796 130.375 160.997 140.445 169.285 145.853C174.093 148.989 180.221 145.268 184.455 148.728C191.943 154.847 197.277 164.472 206 169C205.194 165.093 204.705 160.482 203.161 156.804C202.119 154.32 200.053 152.456 199.002 149.961C197.6 146.636 197.486 143.192 195.615 140C192.76 135.129 186.099 128.277 187.916 122.044C189.501 116.607 195.58 117.241 200 116.91C210.644 116.112 221.258 114.461 232 114C227.834 105.784 217.854 97.663 209.83 93.2639C207.344 91.9008 204.472 91.5728 202 90.1582C194.699 85.9799 189.177 80.5837 180.304 85.2778C169.54 90.9721 164.506 104.943 155 112M56 95C58.4732 103.801 56.0288 112.305 58.8372 121C59.7361 123.783 60.4755 128.003 63.3943 129.397C68.4689 131.82 75.6764 128.913 81 129C79.812 113.947 77.78 98.6102 74 84C67.5901 86.8342 61.7749 91.0434 56 95M84 135C86.802 139.808 90.9445 144.029 95.088 147.745C96.7094 149.199 99.8863 150.68 100.23 153.085C100.579 155.531 97.9477 157.008 95.9838 157.566C91.8399 158.745 87.1253 156.994 83.0934 158.603C78.8654 160.291 75.942 165.481 72 168C76.4468 176.697 89.251 179.309 98 181.211C105.458 182.833 113.294 185.58 121 185.657C125.185 185.698 128.954 183.929 133 183.259C138.485 182.351 144.693 183.477 150 182.246C152.485 181.67 154.53 179.954 157 179.274C164.201 177.291 168.751 177.487 175 173C173.574 169.446 170.611 166.688 169.569 162.985C168.626 159.636 169.846 155.515 167.972 152.468C166.194 149.577 162.517 147.956 160 145.791C155.46 141.886 151.716 135.873 145.985 133.628C140.947 131.654 134.325 133 129 133C114.185 133 98.7712 133.767 84 135M53 135L54 136L53 135M62 136C62 141.563 62.7444 146.531 63.4977 152C64.2017 157.111 63.2047 160.82 68 164C73.9568 155.811 79.9648 152.001 90 152C86.637 146.667 81.4851 142.853 79 137C73.2271 135.934 67.8638 135.999 62 136M179 158C179.948 161.05 181.003 161.912 184 163C182.67 160.403 181.564 159.409 179 158z"/>
</svg>