<?xml version="1.0" encoding="utf-8" standalone="yes"?>
<svg xmlns="http://www.w3.org/2000/svg" width="256" height="256">
	<path style="fill:#fff;" d="M229 168C223.682 170.214 219.181 174.44 213.961 176.427C205.658 179.586 195.665 179.807 187 181.823C183.14 182.72 179.918 185.295 176 185.856C168.643 186.909 161.243 186.614 154 188.644C149.465 189.916 145.44 192.384 141 193.921C132.669 196.804 123.551 199.04 115 201.241C103.483 204.205 91.516 205.157 80 207.899C73.0903 209.544 67.623 213.535 61 215.556C56.0746 217.058 51.0312 216.108 46 217C45.9921 206.832 41.3542 197.044 39.4529 187C38.2672 180.736 39.2675 174.328 38.9599 168C38.3973 156.426 34.3298 144.285 31.8148 133C30.627 127.67 30.6497 122.3 29.6605 117C29.0833 113.908 27.4982 111.148 27.1296 108C26.6203 103.65 27.2035 99.3382 26.3349 95C25.7172 91.915 25.1369 83.4192 20.1289 84.7516C16.9809 85.5891 17.0357 89.4411 17.2901 92C17.9503 98.6402 18.3745 104.598 20.2508 111C21.5917 115.575 20.5025 120.361 21.375 125C25.7473 148.247 28.2359 171.544 31.1559 195C31.8667 200.71 34.0572 205.543 35.5062 211C37.1489 217.186 38.4983 224.659 46.0046 226.346C51.7699 227.642 57.6546 223.336 63 221.761C68.2273 220.22 73.6925 221.217 79 219.845C86.3888 217.935 92.7257 213.899 100 211.749C103.597 210.686 107.396 211.121 111 210.012C121.966 206.637 132.519 201.552 144 199.705C148.684 198.952 153.264 200.303 158 199.334C165.184 197.864 171.884 194.565 179 192.969C186.756 191.23 194.135 193.01 202 189.91C207.75 187.645 213.232 184.71 218.884 182.406C224.932 179.94 231.079 178.752 236.941 175.319C243.397 171.54 240.493 165.495 234 165C233.482 160.774 231.617 157.104 230.598 153C229.751 149.588 229.791 146.227 228.161 143.015C225.276 137.327 221.037 133.214 218.829 127C216.465 120.349 216.156 112.851 214.255 106C209.743 89.7391 203.538 73.6022 201.823 56.9961C201.212 51.0728 197.027 48.4063 195.294 43.2461C194.165 39.8839 196.128 35.6461 193.972 32.5725C192.709 30.7722 190.178 29.962 188.058 30.3727C184.783 31.0073 183.976 34.0739 184.324 37C184.796 40.9707 187.589 43.4854 188.856 47.0895C190.712 52.3664 190.033 57.8394 192.583 63C194.843 67.5752 194.673 71.1153 195.475 76C196.458 81.9934 198.186 88.071 199.514 94C202.995 109.541 210.104 124.162 215.676 139C219.313 148.686 221.829 160.007 229 168M173.981 32.7569C170.63 32.9092 167.21 34.9413 164 35.8449C157.396 37.7041 150.545 38.94 144 40.9383C140.855 41.8984 138.178 43.8953 135 44.7369C123.402 47.8086 111.616 48.0739 100 50.3789C89.3259 52.4969 78.5943 56.0422 68.0008 58.4043C63.9751 59.302 61.5075 62.5011 57.9105 64.2006C53.1026 66.4723 48.1395 66.0134 43 66.0039C35.6603 65.9902 26.8754 68.3593 20.0586 71.1335C17.0137 72.3727 15.1828 75.6289 18.3225 78.0617C22.4895 81.2905 28.4991 79.2001 33 78.1304C37.5391 77.0517 42.6514 77.7996 47 76.2731C51.51 74.69 55.1619 71.6634 59.9105 70.4375C62.9114 69.6628 66.0393 70.2391 69.0039 69.3449C78.817 66.3851 88.6821 63.2869 99 61.4637C102.631 60.8221 106.417 61.4274 110 60.5849C115.234 59.3542 119.802 55.8806 125 54.4946C134.217 52.0368 143.8 51.0871 153 48.5748C160.234 46.5993 169.467 45.6043 175.887 41.5833C180.08 38.9575 179.822 32.4916 173.981 32.7569M146.005 98.8117C133.674 101.702 137.541 120.577 150.996 116.486C161.925 113.163 155.28 96.6378 146.005 98.8117M79 115.572C66.6906 119.05 69.5945 137.071 83 133.211C88.6817 131.574 95.925 122.455 90.2569 116.742C87.7513 114.217 82.1165 114.691 79 115.572M161.996 134.601C156.322 135.941 151.615 139.435 146 140.865C137.788 142.957 129.23 141.823 121 143.227C113.656 144.479 106.58 147.188 99 147.896C91.08 148.635 83.5417 148.461 76 151.241C73.6161 152.119 70.3521 152.45 68.6227 154.514C64.3822 159.574 78.0878 169.557 82.0039 171.543C85.0857 173.106 88.6767 173.111 92 173.819C96.0273 174.677 99.8693 176.464 104 176.812C109.207 177.25 114.726 176 120 176C125.709 176 132.432 176.959 138 175.581C143.293 174.271 146.921 169.894 151.039 166.665C157.826 161.345 165.866 157.184 170.91 150.003C172.898 147.171 176.41 143.572 176.664 139.976C177.177 132.701 166.689 133.493 161.996 134.601z"/>
	<path style="fill:#000;" d="M82 160C92.1756 166.757 108.759 171.523 121 169.699C125.37 169.048 128.853 166.617 133 165.375C137.746 163.953 143.581 163.136 147.91 160.686C152.933 157.844 156.362 151.93 159 147C148.692 147.449 139.185 152.249 129 153.7C124.171 154.388 119.694 152.821 115 153.089C104.276 153.701 92.4156 157.237 82 160z"/>
</svg>