<?xml version="1.0" encoding="utf-8" standalone="yes"?>
<svg xmlns="http://www.w3.org/2000/svg" width="256" height="256">
	<path style="fill:#fff;" d="M199 17C198.187 23.1107 196.674 28.9094 195.792 35C195.452 37.3403 193.846 40.3307 194.708 42.6813C195.74 45.4969 198.901 44.559 201 44C204.381 48.9717 210.481 49.0163 216 49.4398C218.829 49.6569 221.905 50.5379 224.246 48.3966C228.321 44.6701 229.884 35.2259 231 30C233.489 32.5118 236.131 34.9704 238.005 38C245.565 50.2203 234.256 60.8636 225.155 67.9421C222.853 69.7324 219.722 70.9533 217.914 73.2847C214.301 77.9421 213.205 86.3311 212.989 92C212.858 95.4488 209.774 102.455 212.038 105.377C214.111 108.054 216.645 105.036 217.262 102.941C219.227 96.2732 217.607 88.5033 220.287 82.0046C222.395 76.8924 226.724 76.2857 230.715 73.2006C237.354 68.0681 245.867 59.7044 247.147 51C248.416 42.3797 245.913 32.2735 238.896 26.6134C236.082 24.344 230.941 21.646 227.434 24.0285C224.265 26.1808 225.362 30.8015 224.582 34C223.727 37.5044 221.691 40.4169 221 44C213.898 43.6316 207.229 40.5635 200 40C202.224 32.9837 202.142 26.4518 205.572 19.8302C206.576 17.8913 208.376 14.743 206.918 12.6034C205.285 10.2055 200.452 10.997 198 11C187.655 11.0126 178.363 18.7455 175.613 29C173.841 35.609 173.035 49.7449 177.046 55.5409C179.226 58.6904 183.104 59.7113 185.516 62.4946C187.195 64.4321 186.425 76.1267 191.434 72.9174C192.649 72.1396 193.158 70.5005 193.737 69.2662C198.195 59.752 187.682 56.7963 182.789 49.9498C176.645 41.3534 178.352 27.1767 187.044 20.5725C190.496 17.9498 194.883 17.7674 199 17M143 53.5725C134.57 55.9732 128.191 63.6511 120.996 68.186C114.773 72.1086 107.191 73.6637 100 74.6998C92.5344 75.7756 86.2994 74.345 79 74.1296C72.4837 73.9373 66.5961 74.7531 60 73.7029C45.9272 71.4624 34.7457 66.7253 23.1296 78.2863C10.4658 90.8901 13.9082 110.282 12.8318 126C11.463 145.988 4.56619 166.779 8.88426 187C11.2666 198.156 15.8267 213.115 29 215.66C32.2021 216.278 35.7531 216.101 39 215.981C60.1728 215.203 70.3796 190.843 78.7878 175C80.1599 172.415 80.82 169.48 82.5563 167.09C90.3242 156.397 102.658 149.844 116 150.26C123.464 150.493 136.494 153.07 142.91 156.934C145.234 158.333 146.877 160.576 149.09 162.127C166.093 174.043 189.862 190.979 212 182.529C228.325 176.298 223.834 151.029 219.246 138C215.096 126.214 212.105 114.083 205.674 103.09C199.963 93.3257 192.609 84.3042 186.242 74.9606C177.289 61.8208 160.159 48.6859 143 53.5725z"/>
	<path style="fill:#000;" d="M146.004 63.7145C138.685 65.6996 135.142 71.8352 128.985 75.6528C118.69 82.0364 105.109 85.1342 93 85.9097C88.9342 86.1701 85.0358 85.2161 81 85.0394C70.9875 84.6009 61.891 84.5327 52 82.5509C46.3661 81.4221 38.5855 78.118 33.5988 82.564C24.9923 90.2374 23.9007 102.456 22.8295 113C21.7451 123.674 21.8448 134.339 20.8302 145C19.6883 157 17.505 167.815 18.0394 180C18.4659 189.727 23.0419 203.513 34 205.506C53.5382 209.06 63.4044 181.23 70.2724 168.004C74.6891 159.499 82.453 149.313 91.0008 144.72C98.4848 140.699 109.638 139.8 118 140.015C129.489 140.31 140.041 145.872 150 150.983C155.505 153.808 160.927 156.061 166 159.725C177.63 168.124 191.556 178.291 206.957 172.802C220.005 168.153 211.81 147.211 209.391 138C207.565 131.048 204.33 125.286 201.145 119C193.258 103.435 185.855 88.8568 174.071 75.7184C167.148 67.9996 156.972 60.7397 146.004 63.7145z"/>
	<path style="fill:#fff;" d="M145 187C130.338 190.062 123.408 207.267 127.407 220.981C128.257 223.899 130.288 225.725 131.77 228.259C134.608 233.111 137.116 237.728 143.155 239.254C150.44 241.094 149.766 228.116 153.495 224.318C157.235 220.509 163.374 222.415 168 223C168.29 228.038 166.36 233.15 166.869 237.999C168.05 249.249 185.67 246.491 191.231 240.775C201.096 230.636 198.478 212.561 193.055 201C191.775 198.271 193.516 186.061 187.379 189.288C184.188 190.965 183.842 195.847 184.062 198.985C184.318 202.653 186.581 204.902 188.165 208.039C190.06 211.793 191.45 217.241 191.954 221.424C193.471 234.009 182.408 237.161 173 241C174.01 235.776 173.672 231.241 173.818 226C173.881 223.722 174.519 220.559 172.972 218.603C171.595 216.862 168.976 217.062 166.999 216.835C162.29 216.295 151.635 213.725 147.9 217.603C144.918 220.7 144.219 227.928 143 232C139.206 226.619 134.387 221.68 133.005 215C131.655 208.47 136.279 198.291 142.001 194.978C144.199 193.705 147.39 194.532 149.298 192.948C150.957 191.569 151.055 188.931 151.583 186.999C152.766 182.668 156.033 177.598 155.747 173.059C155.461 168.525 151.256 169.29 149.144 172.149C146.371 175.903 144.441 182.471 145 187z"/>
</svg>