<?xml version="1.0" encoding="utf-8" standalone="yes"?>
<svg xmlns="http://www.w3.org/2000/svg" width="256" height="256">
	<path style="fill:#fff;" d="M124 19.8434C119.446 21.5752 112.411 26.3526 110.603 31.0394C109.167 34.7625 110.435 39.1319 109.853 43C109.209 47.2747 105.269 53.3564 102.312 56.5046C97.7404 61.374 90.3578 64.3288 85.0895 68.51C73.4325 77.7617 62.2198 90.408 48 95.9946C41.6782 98.4783 34.5021 96.0918 27.9992 97.2647C20.2136 98.6689 10.5041 109.221 9.27855 117C6.94991 131.782 15.1005 148.73 20.3711 162C27.3777 179.641 33.619 198.054 41.7647 215.17C44.2968 220.49 45.0407 226.219 48.6844 230.999C58.739 244.189 75.4859 248.857 91 243.525C93.6946 242.599 95.7839 240.84 97.9992 239.115C113.651 226.925 107.555 209.367 108.609 192C109.173 182.701 113.69 172.046 118.927 164.428C130.655 147.367 148.206 130.819 170 131.354C176.647 131.517 183.407 134.575 190 135.558C208.764 138.356 238.55 136.113 246.262 115C251.375 101.003 242.031 85.5566 231.996 76.7184C217.651 64.0841 202.588 53.2236 186 43.6721C178.872 39.5679 171.162 36.362 164 32.1852C153.443 26.0282 137.04 14.8844 124 19.8434z"/>
	<path style="fill:#000;" d="M18 122C20.7715 128.237 20.3722 134.673 22.5093 141C26.3229 152.291 32.472 163.002 37.01 174C43.6068 189.988 47.8576 206.759 56.26 221.996C60.7316 230.105 72.1206 238.487 82 236.265C86.4043 235.275 92.4516 230.101 95.3866 226.741C103.853 217.049 98.3709 197.795 99.4645 186C100.96 169.871 111.836 153.931 123.138 142.861C137.065 129.22 153.726 118.845 174 121.129C185.558 122.431 195.117 127.522 207 125.87C219.188 124.175 237.622 121.711 236.894 105C236.382 93.234 227.64 87.7238 220.166 80.0285C212.146 71.7715 201.686 66.043 192 59.9853C188.546 57.825 185.539 54.5387 181.83 52.8712C170.469 47.7622 159.629 42.3593 149 35.6713C145.077 33.203 140.968 31.6128 138 28C132.735 28.6689 127.053 29.1149 123.148 33.1335C119.993 36.3804 120.419 39.9395 119.391 44C117.506 51.4494 115.063 58.1723 109.791 63.9568C104.391 69.8813 96.2889 73.6602 90 78.6613C86.6326 81.3391 84.0606 84.8474 80.7415 87.4907C74.2314 92.6754 66.3048 96.3833 59.2855 100.806C56.7611 102.396 54.7329 104.754 51.9961 106.012C45.5086 108.993 37.4389 105.578 31 107.642C24.3171 109.784 21.3663 116.612 18 122z"/>
	<path style="fill:#fff;" d="M122 49L122 55C133.192 54.9073 144.853 52.4087 156 51C154.083 45.0837 149.069 46.5624 144 46.9691C136.463 47.574 129.498 47.5459 122 49M147 71L147 65C145.136 65.0066 142.954 64.7681 141.144 65.3179C138.614 66.0865 137.581 69.0285 140.321 70.3974C142.232 71.3518 144.937 70.9927 147 71M162 65L162 71L169 71L169 65L162 65M138 81L138 88C143.31 87.8256 144.826 86.3101 145 81L138 81M153 84L152 89C155.041 89.8996 157.831 89.992 161 90L161 84L153 84M96 100C93.9346 99.1412 92.0235 97.7423 89.909 97.0301C77.1428 92.7302 81.758 118.257 93.196 108.968C94.1542 108.189 94.8558 106.962 95.2971 105.83C96.023 103.969 95.9528 101.957 96 100M129.015 102.873C122.53 105.037 116.115 115.598 121.657 121.566C125 125.167 133.777 124.686 138.13 123.268C141.272 122.245 148.236 118.261 149.029 114.812C149.621 112.242 147.584 109.857 146.06 108.044C142.1 103.333 135.129 100.834 129.015 102.873z"/>
	<path style="fill:#000;" d="M141 116C140.132 110.683 131.967 107.277 127.623 111.656C123.892 115.415 129.841 118.091 133.001 117.595C135.783 117.158 138.152 116.134 141 116z"/>
	<path style="fill:#fff;" d="M48 117L47 116C39.3681 119.021 35.1762 128.061 31.4753 135C30.4496 136.923 27.6386 141.205 29.7323 143.263C32.4513 145.936 36.3255 140.777 37.652 138.96C42.6715 132.085 46.2715 125.352 48 117M68 133C65.6629 137.362 61.8312 140.184 60 145C67.6081 147.159 74.7482 140.577 75 133L68 133M81 141C73.8864 142.035 68.1914 150.281 73.2284 156.711C80.1733 165.575 92.4475 166.108 100.995 159.571C104.549 156.853 106.844 153.771 105.569 149.09C103.299 140.751 85.1405 128.18 81 141M54 147C53.8817 145.701 53.9091 144.259 53.4275 143.014C50.6648 135.869 44.0906 143.029 50.1034 146.397C51.2289 147.027 52.7869 146.907 54 147z"/>
	<path style="fill:#000;" d="M77 151C80.1562 155.746 86.1444 159.519 91.9892 157.937C94.7909 157.178 97.9957 155.252 98.1682 151.985C98.2697 150.062 97.1041 148.462 95.9367 147.059C90.1788 140.135 82.1402 146.003 77 151z"/>
	<path style="fill:#fff;" d="M37 163C41.0623 163.533 52.6515 158.133 47.2145 152.782C41.9981 147.649 37.1197 159.376 37 163M55.6026 154.086C51.1567 157.135 57.5242 168.192 62.6389 164.296C66.7003 161.201 59.4653 151.438 55.6026 154.086z"/>
</svg>