<?xml version="1.0" encoding="utf-8" standalone="yes"?>
<svg xmlns="http://www.w3.org/2000/svg" width="256" height="256">
	<path style="fill:#fff;" d="M155 19C158.901 19 163.222 18.5095 167 19.6489C172.017 21.1622 175.816 25.1285 180 28.0648C182.44 29.7768 185.367 30.8257 187.675 32.6983C197.367 40.5627 205.498 53.5543 212.193 63.9853C215.561 69.2326 220.013 73.5452 223.127 79C226.398 84.729 227.949 91.1087 230.9 96.9606C233.934 102.975 237.714 108.395 239.645 115C243.402 127.85 241.008 142.182 238.449 155C237.365 160.428 238.275 166.162 237.069 171.424C236.283 174.859 233.944 177.755 232.633 181C231.161 184.645 230.661 188.489 228.803 191.996C224.303 200.49 215.107 209.272 207 214.343C203.415 216.586 200.783 215.001 197 215.543C192.948 216.125 187.828 218.757 184 220.348C178.21 222.755 172.916 226.34 167 228.453C150.095 234.49 131.718 236 114 236C107.895 236 100.992 236.884 95 235.61C87.357 233.986 79.9698 229.631 73 226.258C65.4402 222.601 57.5971 219.681 51.1327 214.102C48.6407 211.951 47.1034 209.055 44.7762 206.754C41.1754 203.194 36.1823 201.161 33.26 196.946C31.3617 194.208 30.611 190.916 29.0494 188C23.3799 177.414 16.7286 164.058 15.1489 152.015C14.0634 143.739 15.3462 135.241 15.9105 127C16.899 112.565 17.615 98.2959 20.4637 84C21.4173 79.2148 23.6159 74.8033 24.5394 70C26.2055 61.334 26.9565 52.322 30.2454 44.0394C31.4085 41.1101 33.6019 38.8228 34.8989 35.9606C36.6268 32.1477 37.2315 26.4732 41.1443 24.1782C48.7299 19.7291 57.6706 25.6017 64 29.3997C75.6177 36.3709 85.4232 44.5219 94.6242 54.4244C99.3493 59.5096 103.751 67.6578 110.054 70.9722C113.931 73.0108 118.213 71.0885 122 69.8858C127.213 68.2304 133.528 66.7934 139 67.4429C144.365 68.0797 149.993 68.9438 155 71.0193C158.344 72.4057 161.428 74.9692 165 75.6929C168.599 76.4219 172.478 75.1372 172.793 71.0247C173.126 66.6774 169.349 66.5261 166.285 65.2006C159.087 62.0875 153.134 58.4651 145 58.1042C138.716 57.8254 131.25 58.5768 125 59.4252C121.371 59.9178 116.689 61.2278 113.209 59.527C109.361 57.6463 107.255 52.5711 103.91 49.8611C87.5891 36.6412 73.5991 22.2531 53 15.9576C46.7678 14.0529 42.6893 12.2704 36.0046 13.9784C30.4987 15.3852 30.4875 19.2509 29.24 24C27.6368 30.103 25.9725 37.4082 23.1103 43.0147C14.7677 59.3562 12.3045 76.1277 9.72917 94C8.52588 102.351 6.18128 110.696 5.18441 119C4.25983 126.702 3.7213 137.398 5.29861 145C5.94403 148.11 7.63443 150.843 8.22377 154C8.90763 157.664 8.18435 161.388 9.08256 165C10.6899 171.464 13.7787 177.739 16.0463 184C17.3345 187.557 17.9569 191.738 20.0077 194.946C22.0542 198.148 25.5656 199.936 27.7407 203.054C29.4503 205.505 30.2316 208.465 32.3025 210.674C36.3185 214.96 42.2667 216.397 46.7145 220.051C62.0067 232.614 76.8238 243.581 97 246.696C120.531 250.329 144.412 243.914 167 238.374C179.545 235.298 190.998 230.508 203 225.603C209.885 222.79 217.274 220.702 222.83 215.56C228.9 209.942 231.548 203.668 235.915 197C238.739 192.688 242.086 189.151 243.39 184C244.405 179.986 242.798 175.954 243.889 172C248.445 155.496 253.171 140.312 250.556 123.001C250.049 119.642 248.52 116.978 247.454 113.83C244.284 104.464 241.067 94.9024 236.63 86C233.629 79.9809 229.443 74.7901 226.105 69C221.433 60.8974 218.53 52.4177 212.331 45.0895C206.272 37.9264 198.006 32.6677 191.799 25.6644C182.942 15.6701 171.641 9 158 9C154.81 9 150.218 8.2625 147.434 10.179C144.477 12.2137 144.998 16.8882 144.251 20C142.485 27.3575 142.188 34.6276 140.597 42.0008C139.878 45.3351 137.686 49.5099 138.372 52.9414C139.4 58.0894 146.38 57.6516 147.682 52.9414C149.338 46.9489 148.869 41.0016 151.273 35C153.345 29.8259 154.3 24.5116 155 19M150 126C140.634 108.344 118.474 91.0179 97.169 98.8248C86.4133 102.766 77.7816 111.713 71.4784 121.015C62.1422 134.792 61.1069 152.908 62.841 169C63.2324 172.631 62.7897 176.436 63.6343 180C65.4993 187.87 71.0829 192.059 77 196.985C89.0168 206.988 107.093 213.489 122.961 210.776C125.809 210.289 128.213 208.581 131.039 207.967C134.262 207.266 137.885 208.004 140.961 206.822C150.384 203.2 157.193 191.543 167 188.353C171.478 186.896 176.591 191.274 181 191.931C196.244 194.203 205.927 192.047 215.424 179.285C217.375 176.663 219.722 174.254 220.56 171.003C224.438 155.959 222.587 142.815 219.389 128C217.806 120.665 217.165 113.629 212.767 107.17C208.442 100.818 201.811 92.1097 194.999 88.4383C180.194 80.4585 163.618 88.1008 155.638 102C151.776 108.727 151.423 118.449 150 126z"/>
	<path style="fill:#000;" d="M178 91.4684C159.195 95.0825 158.104 116.662 155.6 132.039C154.784 137.049 155.38 141.066 155.481 145.98C155.509 147.366 155.226 149.081 153.737 149.654C151.358 150.571 150.573 147.635 150.326 145.98C149.233 138.667 146.504 131.429 142.768 125C131.851 106.213 106.911 95.6477 88.2855 110.637C77.8476 119.036 69.1143 131.347 67.304 145C66.8097 148.729 68.1018 152.304 67.7515 156C66.4667 169.556 67.4997 181.549 78.2091 191.738C81.828 195.181 86.5587 196.391 90.9992 198.337C94.4192 199.836 97.4831 202.62 101.09 203.583C109.8 205.908 121.143 204.995 130 203.812C137.883 202.759 148.244 196.198 154 190.907C157.409 187.774 161.424 181.535 166 180.191C168.538 179.446 170.838 181.448 173 182.451C177.023 184.319 181.686 185.414 186 186.405C199.211 189.44 210.201 178.16 215.191 167C217.939 160.857 216.601 153.415 216.086 147C214.789 130.872 211.1 109.513 197.996 98.6157C191.838 93.4945 186.26 89.8808 178 91.4684z"/>
	<path style="fill:#fff;" d="M169.355 122.052C164.456 125.281 166.184 133.187 166.486 138C166.822 143.346 165.577 148.626 166.614 154C167.734 159.8 171.922 166.058 175.103 170.957C178.041 175.481 187.117 182.077 192.671 178.471C201.601 172.672 198.684 158.635 198.09 150C197.865 146.739 198.433 143.173 196.836 140.174C194.906 136.55 190.884 133.879 188.075 130.965C184.279 127.027 175.798 117.807 169.355 122.052M109 191C111.167 194.905 119.021 198.775 123.454 195.972C126.097 194.302 128.343 189.691 129.724 186.985C138.54 169.707 132.202 146.53 113.996 138.425C109.761 136.54 99.9332 131.804 95.6991 135.618C91.6399 139.274 92.2768 146.132 92.0355 151C91.7211 157.341 90.0632 163.686 91.7091 170C92.8473 174.366 95.6685 178.201 98.0039 182C100.697 186.38 103.492 191.082 109 191z"/>
</svg>