<?xml version="1.0" encoding="utf-8" standalone="yes"?>
<svg xmlns="http://www.w3.org/2000/svg" width="256" height="256">
	<path style="fill:#fff;" d="M191 156C187.338 165.42 181.685 174.857 174.532 182.076C167.276 189.4 158.402 192.616 149 195.559C138.051 198.985 127.686 201.752 116 198.764C109.16 197.015 102.054 192.496 96 188.95C91.7748 186.475 86.9065 184.683 83.2747 181.296C72.1158 170.886 67.4742 153.251 65.2431 138.996C64.4028 133.627 62.7221 127.439 63.2485 122C63.8666 115.612 67.7334 111.494 69.7971 105.91C70.7283 103.391 69.7196 100.607 70.3287 98C71.3805 93.4977 75.5588 86.8931 78.5594 83.375C83.0716 78.0846 89.2946 76.2094 95 72.8681C111.866 62.9907 131.123 57.1971 151 61.1605C157.027 62.3622 164.226 67.1096 168.572 71.3241C171.305 73.9746 173.831 78.3456 178.025 78.6628C182.346 78.9897 184.839 74.9084 187.439 72.1659C190.657 68.7715 194.558 66.0948 197.776 62.7145C200.142 60.229 201.505 57.1263 204.132 54.8611C207.358 52.0792 212.267 48.9999 211.458 44C210.618 38.8096 205.039 35.8153 201.514 32.588C197.714 29.1084 194.375 24.6528 189.985 21.8974C179.949 15.598 167.195 14.0893 156 11.402C142.325 8.11963 125.051 6.0869 111 8.61574C104.863 9.72023 99.8453 12.7542 94.0008 14.517C80.6929 18.5307 67.6338 23.9981 57.0008 33.2894C37.3324 50.4758 24.3848 74.5479 15.9653 99C8.64478 120.26 11.1549 144.342 18.75 165C27.9953 190.146 39.2146 212.861 62.0039 228.25C67.7199 232.11 75.5241 236.865 82 239.182C85.2113 240.331 88.7266 240.072 92 241.09C101.558 244.063 110.871 247.959 121 248.812C128.879 249.475 135.959 247.962 143.576 246.978C148.66 246.321 153.927 247.705 159 246.61C164.128 245.503 169.096 242.49 174 240.612C187.249 235.539 202.237 228.863 212.714 218.907C219.025 212.909 222.804 205.063 227.77 198C230.974 193.444 234.811 189.13 237.116 184C244.23 168.165 244.843 149.968 244.455 133C244.369 129.225 245.131 125.785 244.445 122C243.549 117.05 245.815 108.263 240.772 105.179C236.912 102.819 230.336 104 226 104C219.717 104 213.258 103.574 207 104.17C201.156 104.726 194.865 106.11 189 105.675C174.972 104.634 160.04 102.204 146 103.246C142.06 103.539 136.831 102.107 133.303 104.318C129.865 106.474 130.118 111.464 129.989 115C129.648 124.372 129.999 133.575 130 143C130 147 129.129 152.163 133.148 154.543C137.892 157.352 145.701 156.051 151 155.996C164.32 155.859 177.681 155.762 191 156z"/>
	<path style="fill:#000;" d="M35 79C43.3532 84.4563 50.323 92.911 60 96C68.6354 76.1025 84.7423 62.5579 105 55.1319C109.816 53.3665 115.056 53.5502 120 52.4066C129.14 50.2927 145.394 46.8718 153 54C163.818 53.44 170.592 58.6171 178 66C183.887 61.8529 196.966 53.0694 197.069 45.0039C197.146 39.0201 190.465 34.9762 185.985 32.2886C174.083 25.1467 157.868 20.0445 144 19.0895C134.842 18.4589 124.077 16.8133 115 18.3256C81.219 23.9536 49.227 47.3549 35 79M33 86C30.2845 93.4621 25.5321 100.214 23.598 108C19.9477 122.696 20.8559 140.521 25.1042 155C26.84 160.916 30.3822 165.956 32 172C41.587 168.821 47.2478 157.978 57 156C55.7725 145.927 51.947 134.222 53.2485 124C53.8378 119.371 54.2024 114.555 55.2353 110C55.7708 107.639 57.0963 104.722 55.8789 102.376C54.7401 100.181 51.9132 98.7606 49.9992 97.3387C44.8255 93.4953 38.9355 88.3986 33 86M138 113C138.014 117.904 139.45 122.203 139.896 127C140.477 133.246 140 139.728 140 146C154.656 146 169.375 146.879 184 146.545C188.794 146.435 196.507 144.181 200.552 147.742C203.971 150.753 201.929 157.383 200.602 161C196.358 172.567 187.869 182.732 179 191C188.466 197.594 197.823 205.439 209 209C211.255 199.592 221.785 192.958 225.93 184C235.454 163.416 237.707 136.098 234 114L191 114.079C187.977 114.079 185.024 115.005 182 114.856C167.602 114.148 152.539 110.421 138 113M59 161C50.9473 166.202 44.2534 173.013 36 178C41.1646 196.192 53.8902 209.508 69.0008 220.209C72.3118 222.554 75.2638 225.677 79 227.348C86.4136 230.664 94.2874 231.838 102 233.865C115.816 237.497 130.599 241.268 145 239.126C152.31 238.038 159.959 234.818 167 232.594C174.158 230.334 181.827 228.6 188.576 225.206C193.299 222.831 197.336 219.403 202 217L202 214C200.247 212.67 199.33 211.753 198 210C188.547 209.449 182.888 197.477 174.004 197.554C170.285 197.586 167.316 200.471 163.961 201.69C158.031 203.844 152.07 204.254 146.17 206.104C142.66 207.205 139.723 209.144 136 209.699C122.189 211.759 110.553 207.48 99 200.723C94.2343 197.936 88.6542 197.815 84.0394 194.363C72.0823 185.417 66.213 173.509 59 161z"/>
</svg>