<?xml version="1.0" encoding="utf-8" standalone="yes"?>
<svg xmlns="http://www.w3.org/2000/svg" width="256" height="256">
	<path style="fill:#fff;" d="M177 20C177.709 28.9894 177.094 41.8202 187 45C186.501 37.6409 185.738 30.9279 183 24C191.568 23.9991 199.451 21.0805 208 20C208 48.2401 211.941 77.053 215.87 105C217.648 117.655 217.992 131.729 221.45 144C224.517 154.884 228.505 166.706 233.184 177C235.407 181.89 238.863 186.047 241 191C239.306 191.454 237.622 191.882 235.995 192.555C233.719 193.496 228.297 198.495 233.319 200.045C237.521 201.341 248.292 195.203 249.249 190.981C250.283 186.42 243.283 179.044 241.248 175C235.171 162.925 230.217 149.086 226.756 136C223.945 125.369 223.296 113.873 221.729 103C217.464 73.4005 215 43.8283 215 14C210.746 14 206.198 13.5576 202 14.3395C197.245 15.2253 192.988 17.7097 188.015 17.7716C184.134 17.8199 181.703 14.7078 177.985 14.1474C171.797 13.2144 166.744 15.7958 161 17.3665C156.692 18.5447 146.718 17.0585 144.086 21.4144C141.591 25.5451 147.637 25.7525 150.001 25.3804C159.057 23.955 168.163 22.4843 177 20M26 58C22.6369 55.4155 13.1661 47.9429 8.60417 51.0818C6.1735 52.7543 7.34504 57.5333 7.25463 60C6.97008 67.7632 5.56896 77.4735 8.09336 84.9606C9.85166 90.1756 13.2125 94.4006 14.3704 100.015C15.606 106.005 14.8217 115.594 18.9375 120.548C22.6471 125.013 30.0207 119.574 32 116C35.391 123.294 33.201 129.486 34.8194 137C36.1314 143.09 38.7064 148.884 40.1127 155C43.7867 170.978 47.0182 186.982 50.5756 203C53.2034 214.832 55.0133 229.937 62.4784 239.861C67.5626 246.62 76.9432 238.986 83 237.745C86.6051 237.006 90.3547 237.997 94 237.992C100.831 237.983 108.148 237.414 115 236.946C121.059 236.532 126.865 233.736 133 233.586C146.228 233.262 157.927 230.314 170.83 227.26C174.495 226.393 178.302 227.42 182 226.772C185.224 226.208 187.742 224.097 190.83 223.171C198.154 220.977 204.988 221.814 212.116 218.684C217.335 216.393 228.397 218.233 231.968 212.682C234.624 208.552 229.781 199.94 228.039 196C226.842 193.295 224.967 190.908 224.252 188C223.366 184.394 224.123 180.633 223.237 177C221.498 169.871 218.306 163.094 216.681 156C214.596 146.905 215.698 137.256 213.497 128C210.953 117.305 205.873 107.162 205.09 96C204.329 85.1671 205.012 75.5884 202.47 65C201.907 62.6571 202.411 59.7401 200.976 57.6844C198.719 54.452 193.757 52.6589 190.421 50.8341C180.436 45.3741 169.355 41.8868 159 37.135C150.004 33.0065 141.681 21.5511 131 23C129.29 17.3669 125.054 18.0643 120 18.7184C115.395 19.3145 110.511 19.4323 106 20.5525C103.396 21.199 100.853 22.84 98.0895 22.5718C90.4341 21.8288 83.9234 14.892 76 15.1335C70.3782 15.3048 65.2606 18.2671 60.1698 20.2924C57.5515 21.3341 54.7999 21.702 52.6057 23.6165C49.8158 26.0508 49.0893 30.0302 46.4406 32.4005C42.8061 35.6528 35.6629 33.7044 31.1852 35.6636C23.7838 38.902 26 51.4152 26 58z"/>
	<path style="fill:#000;" d="M57 82L59 82C60.4464 79.4133 62.1721 73.3587 65.1883 72.3418C67.1658 71.6751 68.7639 73.3998 70.2855 74.3364C73.5579 76.3506 77.445 77.5493 81 79L82 78C81.1458 74.6985 80.7057 71.277 79.7909 68C76.1917 55.1074 65.9962 27.5756 87 25C79.2006 17.6613 59.5446 22.4842 55.1319 32.1042C48.2331 47.1441 50.9171 67.1692 57 82M80 36C80 45.6458 80.3889 55.8828 83.8688 65C85.4896 69.2463 90.8558 77.4531 88.2539 81.9807C85.1439 87.3924 78.4996 85.7521 74.1698 83.0255C72.6491 82.0679 71.0007 80.119 69.0432 80.1913C64.4015 80.3629 64.7748 90.0416 59.2739 88.6937C55.4994 87.7688 52.7033 82.2176 51.3488 78.9992C47.0702 68.8335 45.4489 53.7151 48 43C44.017 44.0305 40.1158 44.8228 36 45C38.0675 61.3596 39.1634 78.5936 39.9599 95C40.3946 103.954 39.7017 113.054 40.8588 121.961C41.3598 125.817 43.5495 129.144 44.2415 133.001C47.1242 149.067 48.5381 166.167 52.5532 182C54.6221 190.158 59.168 197.837 61.561 206C62.8572 210.422 62.3606 214.554 62.9992 219C63.6262 223.365 65.1078 227.675 66 232C70.5496 230.929 74.4972 232.189 79 231.752C83.5195 231.312 87.4871 228.643 92 228.129C101.885 227.003 112.263 228.524 122 227.245C140.828 224.773 159.392 219.724 178 216.34C182.321 215.554 186.659 216.693 191 215.746C195.118 214.848 198.88 212.821 203 211.914C205.619 211.338 208.472 211.746 211 210.85C214.23 209.706 216.558 207.692 220 207C216.571 187.692 208.687 169.284 205.329 150C202.57 134.155 202.238 117.837 199.675 102C198.553 95.0654 195.629 88.7411 194.34 82C193.075 75.3816 193.374 68.6906 192 62C182.506 60.1586 174.947 54.2018 166.83 49.5255C158.081 44.485 148.899 40.3526 140 35.6798C136.014 33.5869 132.302 30.082 128 28.7307C122.684 27.0609 116.229 29.4407 111 30.4861C100.737 32.5378 90.3758 34.0451 80 36z"/>
	<path style="fill:#fff;" d="M112 79C109.434 74.4906 107.671 69.6043 105.243 65.0154C104.252 63.1419 103.109 60.5501 100.831 59.9707C96.9211 58.976 95.7339 64.3278 95.0154 67.0008C92.9742 74.5951 94 83.1912 94 91C89.7086 89.3112 87.7021 92.0272 91.0779 95.6566C93.6161 98.3855 96.4699 98.893 100 99C101.527 90.7737 101 82.3388 101 74C104.18 80.7103 107.28 87.0715 111.865 92.9799C113.79 95.4604 117.553 98.9854 119.954 94.8326C121.395 92.3393 120.072 89.486 119.365 87C118.051 82.381 117.1 77.8037 117 73C121.331 78.4055 123.588 85.6813 128.418 90.7215C130.172 92.5514 133.919 94.7 136.397 92.9321C138.196 91.6477 137.922 88.8983 137.706 86.9992C137.085 81.5251 134.739 76.4577 134 71C137.115 76.088 139.807 82.3183 143.684 86.8364C145.085 88.4688 147.422 89.9298 149.383 88.1991C152.158 85.7493 150 76.5175 150 73C151.76 75.3741 153.549 77.7172 155.426 80.0008C156.754 81.6163 158.069 83.326 159.59 84.767C160.294 85.433 161.188 86.4038 162.166 86.6728C169.864 88.7912 168.415 77.2535 166.277 73.3225C164.818 70.6395 162.476 71.6699 161.434 73.9884C161.057 74.8255 161.094 76.1816 161 77C157.511 73.3525 154.701 68.5163 150.827 65.3225C149.294 64.0585 146.646 62.6375 145.042 64.6227C142.924 67.2452 144.991 74.7059 145 78C142.023 73.5015 139.024 68.8843 136.709 64.0039C135.63 61.7277 134.735 58.6479 131.935 57.9707C128.09 57.0406 127.686 61.0534 127.897 63.7184C128.409 70.1737 129.219 75.7243 131 82C125.14 75.8304 124.047 65.703 118.046 59.4491C111.095 52.2059 110.41 66.3571 110.845 70L112 79z"/>
	<path style="fill:#000;" d="M12 58C13.0319 63.5583 13.5598 69.3704 14.0502 75C14.2363 77.1366 13.7722 79.6927 14.7531 81.6821C16.7098 85.6503 26.7932 82.0273 26.7932 87C26.7932 90.6687 20.2766 89.992 18 90C18.645 98.1732 19.6494 106.46 23 114C26.3198 113.291 28.7037 113.126 32 114C31.9376 108.344 29.3193 103.558 29.0401 98C28.46 86.4489 30.5822 72.8593 26 62C20.3385 63.1711 17.1265 59.8251 12 58M116.333 71.6667C116.278 71.7222 116.222 72.7778 116.667 72.3333C116.722 72.2777 116.778 71.2223 116.333 71.6667M112 79L113 83C113.393 81.076 113.146 80.6405 112 79z"/>
	<path style="fill:#fff;" d="M81 97C74.7239 93.9479 69.3111 90.7307 66 99C65.0451 98.5435 63.9431 97.8015 62.8441 97.5988C60.6838 97.2004 56.8215 97.541 57.7515 100.799C59.2148 105.926 66.2108 106.873 69.8511 104.077C71.409 102.88 72.0992 101.67 73 100C74.981 101.219 76.7478 102.187 79.0046 102.83C81.1886 103.453 84.3778 104.429 86.4321 102.958C89.6239 100.671 88.4676 90.1838 85.4198 88.0864C82.1697 85.8499 80.9928 90.8418 80.7724 92.9599C80.6268 94.3585 80.8463 95.6148 81 97z"/>
	<path style="fill:#000;" d="M66 99L67 100L66 99z"/>
	<path style="fill:#fff;" d="M83 204C93.2079 203.886 104.169 197.675 114 194.785C119.196 193.257 124.703 193.189 130 192.196C134.586 191.337 138.604 189.483 143.039 188.414C146.288 187.632 149.71 188.213 153 187.675C156.741 187.064 160.32 185.628 164 184.749C171.455 182.969 185.837 185.603 189 177C191.458 177.646 192.542 177.646 195 177C193.441 172.642 191.192 168.597 190.311 164C189.171 158.048 189.603 151.88 188.33 146C186.541 137.737 183.046 130.671 183.001 122C182.973 116.735 182.02 112.154 181.165 107.005C180.865 105.199 180.891 102.443 178.741 101.752C176.52 101.037 175.431 103.284 175.152 105.059C174.41 109.781 175.937 115.196 176.004 120C176.097 126.689 178.936 132.539 180.338 139C183.014 151.333 185.2 163.751 188 176C172.636 176.042 158.862 180.898 144 183.738C138.315 184.825 132.67 184.49 127 185.3C121.404 186.1 116.391 188.445 111 189.907C102.813 192.127 94.8631 193.501 87 197C81.7691 184.436 78.3298 171.53 73.3727 158.961C71.5249 154.275 71.2233 146.971 67 144C67.7447 137.157 65.0572 129.09 62 123C74.667 119.688 87.2637 118.22 100 115.622C123.924 110.742 147.41 105 172 105L172 99C149.186 99 127.462 105.054 105.17 108.826C98.9147 109.885 92.3495 109.885 86 110.831C79.8719 111.744 74.0516 113.672 68 114.985C63.4787 115.966 59.3534 116.02 57.6883 121.019C54.7628 129.803 60.0511 138.948 62.5093 147.17C68.2485 166.367 78.3439 184.398 83 204z"/>
	<path style="fill:#000;" d="M188 176L189 177L188 176z"/>
	<path style="fill:#fff;" d="M177 202C172.345 200.892 167.761 201 163 201L163 205C158.911 203.3 154.639 200.517 150.015 201.244C146.016 201.872 140.965 207.41 143.283 211.677C145.952 216.59 149.985 210.534 151 208C157.048 210.99 160.202 212.272 167 212C169.123 204.7 176.922 207.996 183 208L185 201C191.083 203.278 197.322 204.3 201 198C203.118 199.218 203.845 199.867 205 202L211 202C210.789 195.564 205.212 189.558 198.104 191.449C195.471 192.15 194.256 194.783 191.791 195.663C189.575 196.453 187.254 195.314 185.001 195.373C180.572 195.487 178.518 198.247 177 202M103 212C97.8858 210.405 92.9236 208.663 91 215C87.5861 214.299 83.676 212.358 80.1443 213.323C76.9529 214.195 74.9091 219.632 77.0378 222.377C79.2714 225.258 81.3587 221.929 82 220C87.0471 221.922 93.1351 222.196 96 217C101.095 219.557 107.891 221.946 110 215C111.284 215.949 112.553 217.088 114.045 217.727C116.24 218.667 123.776 219.123 120.914 214.529C117.886 209.67 105.335 204.966 103 212z"/>
</svg>