<?xml version="1.0" encoding="utf-8" standalone="yes"?>
<svg xmlns="http://www.w3.org/2000/svg" width="256" height="256">
	<path style="fill:#fff;" d="M38 108C38 125.218 38.4154 143.031 36.3248 160C35.7309 164.821 36.9734 170.237 35.6821 174.941C34.4195 179.541 29.4464 178.443 26.7423 181.514C24.1588 184.448 23.5223 193.052 23 197C19.7484 197 14.3898 196.077 11.9383 198.742C7.32038 203.762 9.29586 218.619 15.2631 221.983C18.4163 223.761 22.6168 222.188 26 222.039C34.6888 221.659 42.4275 222.323 51 222.91C66.9329 224.003 83.0797 221.535 99 222.043C112.454 222.472 126.6 221.783 140 222.88C152.111 223.871 163.763 225.161 176 224.996C183.758 224.891 191.079 222.708 199 222.92C206.376 223.117 213.578 221.837 220.91 221.959C226.319 222.049 231.485 223.526 236.985 222.891C242.188 222.291 244.554 217.231 240 214C242.069 213.223 244.689 212.666 245.974 210.685C248.114 207.387 247.807 197.676 244.436 195.179C241.787 193.217 237.101 194 234 194C234 189.687 235.275 180.191 231.4 177.179C228.838 175.187 224.04 176 221 176C220.224 157.928 216.172 140.189 216.749 122C216.917 116.72 218.335 111.26 219 106C222.44 108.37 227.529 111.937 231.957 110.378C235.196 109.237 236.797 105.853 238.24 103C241.714 96.1327 243.11 89.5703 237.292 83.3897C228.895 74.4712 215.735 69.5883 205 64.4753C189.585 57.1337 174.733 48.9225 159 42.1921C150.361 38.4963 141.974 30.7735 132 31.1096C121.04 31.4788 109.746 39.5051 100.17 44.0409C94.1418 46.8959 86.3123 46.535 80.0039 49.2276C76.8569 50.5708 74.758 53.2176 71.8302 54.8511C67.3086 57.3738 62.2336 59.438 57.5756 61.8511C47.9248 66.8508 37.8142 70.7482 28 75.4969C23.5052 77.6718 18.3079 78.8662 15.287 83.2099C10.5263 90.0552 14.3729 97.4148 17.3356 103.999C18.4996 106.586 19.3673 110.016 22.2245 111.243C27.2092 113.384 33.2441 109.075 38 108z"/>
	<path style="fill:#000;" d="M23 90C23.5708 94.1504 24.8035 97.4336 27 101C33.022 98.7075 39.846 93.5824 45.6821 99.419C50.2005 103.938 48.2822 116.226 47.4105 122C46.4 128.693 47.2555 135.267 46.9606 142C46.6239 149.689 45.7703 157.344 45.5856 165C45.46 170.212 46.9771 175.853 45.5664 181C43.8598 187.226 38.4974 188.626 33 190C33.4691 194.422 33.5436 200.204 29.7215 203.308C24.8522 207.262 20.2653 204.021 20 212C27.8913 212 35.2971 213.478 43 213.856C46.6678 214.037 50.3092 212.972 54 213.019C73.3814 213.263 92.5884 213.094 112 213.001C128.764 212.92 145.319 214.798 162 214.996C167.705 215.064 173.347 213.945 179 214.054C183.371 214.138 187.592 215.359 192 214.871C199.345 214.058 206.515 212.355 214 212.039C222.256 211.691 230.681 213 239 213C237.695 209.923 237.097 207.34 237 204C234.454 204.178 231.466 204.873 229.059 203.731C223.516 201.104 224.043 191.207 224 186C217.816 185.927 212.912 183.476 211.285 176.961C209.786 170.959 209.045 163.17 209.194 157C209.268 153.92 210.605 151.112 210.471 148C210.166 140.931 207.598 133.981 207.275 127C207.147 124.251 208.159 121.698 208.447 119C209.051 113.331 206.671 105.318 210.603 100.38C215.922 93.7007 222.795 97.4207 229 100C232.026 91.6174 227.197 89.7082 221 84.8002C210.176 76.2274 197.536 73.5127 186.015 66.5563C182.792 64.6104 180.444 61.5635 176.961 60.0586C171.126 57.5384 164.544 57.2859 159 54.0147C151.448 49.5592 144.246 41.7306 134.91 41.1867C131.758 41.0031 128.965 42.6702 126.004 43.4514C118.773 45.3589 112.076 48.4121 105.004 50.9005C95.6124 54.2049 84.9098 57.8628 76 62.2639C69.6588 65.3962 64.3488 70.5933 58 73.6914C50.7102 77.2486 42.1118 78.5682 35 82.1744C30.7442 84.3324 27.3387 87.8345 23 90z"/>
	<path style="fill:#fff;" d="M53 95C58.4687 94.761 62.0921 92.7553 67 90.6188C76.1478 86.6367 85.0108 82.1145 93.8696 77.5664C99.3087 74.7739 103.883 71.3105 110 70C108.439 76.3344 106.48 84.6519 108.894 91C110.176 94.3719 112.97 97.0715 115 100C109.292 101.114 102.839 100.194 97 100.05C82.303 99.6873 67.6806 98 53 98L53 104C65.0251 104.008 76.9829 105.995 89 106C100.943 106.005 113.137 104.003 125 104.545C138.588 105.165 152.212 106.855 166 105.91C174.71 105.314 183.243 105.018 192 105C194.33 104.995 199.297 105.696 200.248 102.741C201.958 97.4284 188.559 99 186 99C170.298 99 154.724 100 139 100C151.563 91.3246 149.552 79.4751 144 67C155.621 71.8382 167.729 76.4521 178.91 82.2585C188.242 87.1042 197.07 94.7442 208 95C207.763 87.7692 202.93 86.3613 197 83.5147C187.787 79.092 178.759 73.1943 169 70.1196C157.225 66.4097 147.33 58.9792 135.665 54.8843C133.695 54.1926 132.054 52.6697 129.91 52.4877C124.056 51.9904 118.887 57.4698 113.985 59.7909C103.81 64.6092 94.0445 70.4005 83.9606 75.2963C78.7866 77.8084 73.3138 79.2729 68.4244 82.4252C62.5954 86.1831 54.1895 87.2272 53 95z"/>
	<path style="fill:#000;" d="M125.039 66.8549C118.041 69.6823 112.469 79.49 114.438 86.9992C116.11 93.3798 126.026 97.2292 132 95.1782C141.3 91.9851 143.063 84.41 139.691 76C137.216 69.8295 132.581 63.8081 125.039 66.8549M143 66L144 67L143 66M110 69L111 70L110 69z"/>
	<path style="fill:#fff;" d="M182 107L181 172L187 172L188 107L182 107M71 108C67.9182 114.404 69 122.033 69 129C69 143.709 70 158.276 70 173L76 173C76 159.281 75 145.682 75 132C75 124.239 76.4298 115.127 73 108L71 108M92 109C88.1965 121.517 88.9378 135.768 89.1389 148.715C89.2598 156.504 89.0254 164.282 90 172L96 172C95.9995 167.452 94.7622 163.317 94.5448 158.91C94.0264 148.408 94.9061 137.56 94.7045 127C94.5816 120.566 95.9639 115.463 94 109L92 109M168 173C167.829 164.951 165.571 157.162 165.571 149C165.571 143.476 165.645 137.467 166.428 132C167.238 126.348 168.465 120.776 167.941 115.019C167.732 112.712 165.642 108.495 163.019 111.623C160.301 114.865 161.213 122.049 160.83 126C159.713 137.544 159.731 149.4 160.015 161C160.176 167.584 160.58 172.756 168 173M53.6227 178.023C50.4508 180.619 54.7511 182.731 57.0193 182.941C64.3289 183.619 71.65 184 79 184C91.9946 184 104.993 183.076 117.91 182.974C134.119 182.845 150.664 184 167 184C175.715 184 184.364 185.323 193 184.285C195.278 184.012 199.396 184.577 200.914 182.416C203.241 179.102 198.076 178.11 195.995 178.019C187.404 177.644 178.624 178 170 178L84 178C76.6117 178 69.343 177.088 62 177.004C59.5858 176.976 55.6427 176.37 53.6227 178.023z"/>
</svg>