<?xml version="1.0" encoding="utf-8" standalone="yes"?>
<svg xmlns="http://www.w3.org/2000/svg" width="256" height="256">
	<path style="fill:#fff;" d="M112 106C119.905 106.976 124.093 104.486 130.999 100.9C133.076 99.8214 136.366 99.1052 137.308 96.6975C139.313 91.5695 136.158 84.0079 135 79C142.869 78.3138 150.105 74.6449 158 74C158.296 77.3994 158.763 83.7199 161.728 85.9684C163.942 87.6481 167.452 86.4286 170 86.6335C178.18 87.2912 185.093 90.8159 187.995 80.9961C188.381 79.6882 188.747 78.3749 188.766 77C188.89 68.2208 179.639 58.7595 176.109 51C171.245 40.3104 168.528 29.1926 162.424 19.0147C160.172 15.2609 157.103 9.7832 152.871 8.03241C145.602 5.02531 136.331 8.05563 129 9.28549C124.065 10.1133 115.196 10.9509 111.564 14.6528C106.878 19.4295 110.399 29.0216 109.83 35C108.545 48.5137 108.723 63.4577 110.174 77C110.537 80.3917 111.893 83.6157 112.205 87C112.799 93.4281 110.758 99.3081 112 106M206 79C209.077 78.593 211.9 77.2392 215.015 77.0579C218.475 76.8564 223.513 78.6989 226.062 75.5517C229.497 71.3095 227.38 64.819 227.259 60C227.174 56.5937 228.382 53.3647 228.671 50C228.932 46.968 227.994 44.0243 228.224 41C228.633 35.6146 229.8 30.4758 230.039 25C230.219 20.8975 232.166 15.1147 229.062 11.5995C226.197 8.35556 218.889 9.02425 215 8.99924C212.042 8.98022 206.099 7.26401 203.603 9.06714C200.9 11.0204 202 17.1382 202 20C202 30.1169 200.888 40.9756 202.3 51C203.644 60.5384 203.077 69.6367 206 79z"/>
	<path style="fill:#000;" d="M118 100C122.939 98.4369 127.53 95.6115 132 93C130.861 88.8351 126.959 82.9506 128.31 78.5941C129.136 75.93 131.538 74.3982 134.015 73.4823C139.457 71.4701 145.409 70.2894 151 68.7099C153.714 67.943 157.039 66.6992 159.891 67.3573C165.946 68.7543 163.801 77.6064 167.728 81.0617C171.839 84.6795 179.197 81.1124 184 81C178.038 64.8384 169.338 49.7657 162.424 34C159.92 28.2909 155.649 17.073 149.895 14.0424C145.766 11.8676 139.275 14.8015 135 15.5756C130.137 16.4561 118.293 16.9254 115.434 21.4329C111.199 28.1096 115.344 38.0014 115.907 45C117.38 63.3296 116.555 81.6914 118 100M208 15C208 28.0902 206.431 42.0423 207.39 55C207.836 61.0339 209.738 66.8961 210 73C213.007 73 218.847 74.0707 220.972 71.3966C224.383 67.1037 222.285 57.991 222.459 53C222.588 49.2881 223.92 45.7358 223.921 42C223.923 37.9382 222.677 34.0857 223.326 30C224.084 25.2196 226.19 20.7666 227 16L208 15z"/>
	<path style="fill:#fff;" d="M56 54C52.9374 54.5835 48.7418 57.5247 45.6806 56.7662C42.8352 56.0612 41.4104 52.3631 40.3094 49.9992C37.7283 44.4576 36.6713 32.9267 30.6952 30.0285C24.7976 27.1684 13.6369 34.9953 8 37C8.12974 43.2859 8.12952 50.8901 9.52932 57C10.4743 61.1246 12.6086 64.8551 13.5718 69C15.9344 79.1671 17.7376 90.2352 21.6412 99.9606C23.0465 103.462 25.3348 106.508 26.7963 110.004C29.8975 117.422 32.5424 123.046 37.7654 129.169C39.2463 130.905 40.35 133.794 42.4144 134.914C45.7118 136.704 52.0134 132.292 55 130.819C58.7038 128.993 64.5301 126.598 66.2307 122.522C67.8519 118.636 65.613 115.39 64.0247 111.961L53 88C56.7401 87.7518 59.601 86.5074 63 85C65.5741 90.9433 70.0562 95.9411 72.6111 102C74.4514 106.364 75.2233 112.335 79.1528 115.389C85.5267 120.343 91.5395 116.723 97.0602 112.829C99.2229 111.303 102.498 109.662 103.218 106.866C104.393 102.296 97.8523 96.755 95.9444 92.9954C89.6569 80.6053 86.6078 67.6134 81.1528 55C79.303 50.7229 81.3166 44.5552 76 43C75.8796 37.1692 75.5016 25.8296 71.436 21.3179C66.8167 16.1919 57.2123 20.7906 52.0008 22.6212C49.8762 23.3674 46.6134 23.9895 45.6435 26.3133C44.5117 29.0251 46.2584 32.4667 47.1427 35C49.5513 41.8997 52.0632 47.8382 56 54z"/>
	<path style="fill:#000;" d="M62 60C57.6728 60.4399 52.2333 60.8766 48.0895 61.9198C46.0219 62.4403 44.2106 64.632 41.9537 64.2454C39.1021 63.7569 37.4432 60.2858 36.267 58C34.4146 54.4003 34.2489 50.7283 32.9406 47.0039C31.5963 43.177 29.5232 40.0833 29 36C24.3957 36.5616 15.7147 38.215 13.7963 43.1705C12.8856 45.5229 14.3427 47.8006 14.7407 50.0895C15.9185 56.8625 16.2025 61.4849 18.8819 68C21.1226 73.4483 20.7625 79.4496 22.5988 85C24.4268 90.5258 27.6272 95.3107 29.1798 101C31.1728 108.303 34.3458 114.733 38.4992 120.999C40.2732 123.676 41.4859 126.851 45.0193 127.473C50.652 128.465 60.1497 120.822 58.4769 114.996C56.3541 107.604 51.4023 101.353 49.0255 94C48.2699 91.6626 46.4963 87.928 47.9877 85.5849C50.1472 82.1918 59.345 80.6134 62.9954 79.9823C67.5037 79.2027 69.1629 82.3614 70.8549 86.0008C75.1032 95.1383 79.9896 103.265 85 112C88.2631 110.631 94.2203 108.308 93.8079 103.96C93.3714 99.358 89.3599 94.3324 87.7199 90C85.479 84.08 84.4559 77.8926 82.3511 72C79.9047 65.1512 76.3889 58.7296 73.8735 51.9105C71.3022 44.94 72.2162 35.4919 68.2762 29.1481C65.7165 25.0267 60.9858 26.0175 57.0193 27.3133C55.2815 27.8809 52.7794 28.6114 52.8133 30.8588C52.8512 33.3749 55.1555 36.6479 56.0494 39.0008C58.5658 45.6244 61.7892 52.8741 62 60z"/>
	<path style="fill:#fff;" d="M141 36.4282C137.249 36.9639 129.33 36.8605 127.028 40.3179C125.462 42.6696 126.001 46.3274 126 49C125.997 55.5428 124.934 63.2256 134 62.3202C139.363 61.7847 145.427 57.1377 149.985 54.4205C151.644 53.431 153.792 52.4185 154.716 50.6103C155.835 48.4203 154.628 46.1132 153.942 44.0008C151.606 36.8092 148.647 35.3362 141 36.4282z"/>
	<path style="fill:#000;" d="M132 56C135.647 54.4285 148.539 49.6255 147.168 44.3017C145.875 39.2789 136.018 42.2829 133.742 44.7647C131.183 47.5558 132 52.5164 132 56z"/>
	<path style="fill:#fff;" d="M211.005 81.483C204.406 82.951 202.411 91.5168 206.766 96.6204C209.971 100.377 218.359 101.016 222.852 99.6821C227.265 98.3719 227.465 85.7509 224.972 82.6034C222.605 79.6148 214.253 80.7604 211.005 81.483z"/>
	<path style="fill:#000;" d="M211 87L213 93L220 94L220 87L211 87z"/>
	<path style="fill:#fff;" d="M157 98.8403C147.814 101.602 138.211 101.575 129 105.22C124.522 106.992 120.404 109.708 116 111.694C111.417 113.762 106.274 115.125 102.17 118.108C96.2888 122.381 91.5896 128.655 86.7145 133.981C83.9716 136.978 80.1272 138.938 77.6528 142.129C75.8297 144.479 75.3395 147.379 74.0702 150C69.6626 159.102 66.1583 166.9 64.3789 177C63.4317 182.376 65.0795 188.621 65.7145 194C66.8699 203.787 66.5506 215.549 72.804 223.942C76.0876 228.349 81.9907 231.181 86.0039 235.039C89.9434 238.825 99.1066 250.018 105.771 246.716C108.709 245.26 108.854 241.792 106.667 239.648C100.743 233.843 91.3705 230.688 85.7269 224.455C83.8823 222.418 83.2427 219.36 81.875 217C77.729 209.845 72.9189 198.47 72.9815 190C73.0247 184.159 75.3098 177.771 76.3889 172C77.2277 167.514 77.1025 161.264 79.2238 157.209C80.7653 154.262 84.1862 152.791 85.9915 149.957C88.341 146.268 88.7504 142.474 92.0586 139.285C101.036 130.632 112.35 122.023 124 117.352C127.246 116.05 130.729 116.185 133.999 115.034C137.504 113.8 140.442 111.038 144.09 110.275C152.226 108.571 159.944 109.361 168 108.698C172.178 108.353 175.676 105.998 180 106.034C184.004 106.067 187.156 108.165 191 108.775C195.91 109.555 201.001 108.395 205.999 109.02C210.444 109.575 213.035 112.688 217.039 114.285C222.495 116.462 228.552 116.647 234 118.844C237.309 120.179 242.085 123.578 245.768 121.717C249.197 119.983 248.409 115.746 246.343 113.275C242.983 109.255 234.921 107.656 230 106.528C218.283 103.842 205.891 99.8621 194 98.2091C187.194 97.263 179.841 98.0074 173 98.2546C167.642 98.4482 162.239 97.2651 157 98.8403M240 139C241.483 143.218 244.963 142.963 249 143C248.758 135.71 243.552 135.985 238 132.855C228.416 127.451 219.997 126.416 209.17 126.081C204.772 125.945 201.267 125.482 197 127.118C193.364 128.512 188.066 130.599 185.323 133.417C183.441 135.351 182.694 138.948 186.149 139.577C189.787 140.239 193.825 137.235 197 135.873C203.808 132.951 210.736 130.525 218.17 132.6C225.447 134.631 232.419 138.334 240 139M123.004 140.429C113.119 141.91 103.406 149.439 96.4252 156.275C95.0542 157.617 85.8224 167.364 93.1435 167.364C96.1463 167.364 97.9101 164.28 99.7099 162.37C102.979 158.902 107.069 154.44 111.039 151.843C117.017 147.931 124.058 146.83 131 146.17C134.232 145.862 138.703 146.87 141.677 145.397C145.109 143.698 142.65 140.609 139.941 140.148C134.757 139.265 128.184 139.653 123.004 140.429M30 143L30 147C40.5924 149.598 49.8215 156.9 61 157C60.7697 150.07 56.9581 149.632 51.1698 147.545C43.5188 144.786 38.3394 143 30 143M104 178C112.295 180.044 120.75 181.638 128.83 184.459C132.037 185.579 134.501 187.94 138.001 188.289C156.541 190.137 172.716 185.373 190 179.218C195.949 177.099 202.3 175.788 208 173.019C215.481 169.384 221.684 163.734 229 160C229.369 164.206 231.105 167.881 231.805 172C232.86 178.214 233.227 185.004 235 191C225.79 191 214.95 190.359 206 192.609C189.372 196.789 174.998 209.508 170.171 225.961C168.755 230.79 163.093 237.407 165.606 242.677C168.468 248.678 173.079 238.079 173.846 235.91C175.003 232.645 174.751 229.193 176.239 226C185.411 206.32 208.313 192.57 229.984 197.483C235.697 198.778 234.503 202.359 233.904 207C233.039 213.707 232.328 217.823 229.12 224C227.867 226.411 224.701 232.002 229.217 233.248C231.19 233.793 232.854 232.387 233.861 230.851C236.575 226.71 239.475 219.896 239.995 215C241.314 202.597 240.369 191.382 239.17 179C238.379 170.836 237.907 162.16 232.876 155.214C228.343 148.956 222.967 155.676 218.91 158.666C211.81 163.898 203.137 166.633 195 169.812C189.945 171.786 185.328 174.349 180 175.576C169.201 178.062 158.266 183.163 147 182.981C141.294 182.888 134.513 180.347 129 178.809C122.31 176.944 115.752 175.227 109 173.462C106.698 172.861 103.755 171.086 101.514 172.733C98.1227 175.225 98.4518 183.211 98.0532 187C96.6659 200.188 93.3747 216.799 100.88 228.91C103.601 233.3 107.957 237.68 112.001 240.847C113.54 242.053 115.673 243.65 117.623 242.248C121.641 239.362 115.036 234.203 113.018 232.514C95.9876 218.263 103.609 196.955 104 178M33 166L33 172L51 172L51 166L33 166M38 185.763C32.5455 186.506 27.5375 186.899 22.0039 187.005C20.0844 187.041 17.4961 186.858 16.1983 188.599C14.7162 190.586 15.8113 193.08 18.1489 193.512C20.5973 193.965 23.5095 193.075 26 193.015C29.9502 192.92 34.0964 193.749 38 193.236C41.1321 192.825 48.134 192.738 50.3773 190.401C52.175 188.528 51.3098 185.946 48.8511 185.407C45.904 184.762 41.0048 185.354 38 185.763M44 221C49.2461 220.877 54.5586 219.537 58.3503 215.61C59.5147 214.405 61.7785 211.716 60.1103 210.043C58.5881 208.517 55.6228 209.706 53.9992 210.353C48.627 212.491 44.7994 215.072 44 221M63.9807 228.592C60.6893 229.122 57.9269 231.342 55 232.77C49.7574 235.328 43.8365 237.584 39.0586 240.969C36.9235 242.482 33.139 247.885 38.1489 248.469C41.2617 248.832 44.4658 246.353 47 244.909C52.9132 241.539 61.8655 239.014 66.6782 234.235C69.5584 231.376 68.1256 227.924 63.9807 228.592z"/>
</svg>