<?xml version="1.0" encoding="utf-8" standalone="yes"?>
<svg xmlns="http://www.w3.org/2000/svg" width="256" height="256">
	<path style="fill:#fff;" d="M151 13C142.889 8.67665 136.156 14.1993 128 14.7955C118.08 15.5208 107.872 15.0146 98 16.4282C91.1481 17.4094 83.6115 18.272 77 20.3287C73.2041 21.5096 69.9356 23.7282 66 24.5818C60.8137 25.7066 55.2877 25.126 50 25.8696C41.5369 27.0597 33.5722 29.2556 25.0046 30.0579C22.2838 30.3127 20.047 31.1694 19.3326 34.0586C18.2317 38.5105 20.8602 43.0291 22.4198 47C24.3888 52.0135 25.2639 57.2626 25.9961 62.5756C28.0705 77.6261 28.2059 93.025 30.7585 108C33.0457 121.418 37.6817 134.271 37.6605 148C37.6461 157.351 36.4864 166.764 36.3148 176C36.1913 182.647 37.8579 189.212 38.1119 195.83C38.4861 205.582 37.7532 215.308 37.0895 225C36.8411 228.628 37.4305 232.439 36.5262 235.996C35.7691 238.975 33.5444 241.261 32.7323 244.166C32.1445 246.268 32.5533 248.518 34.4344 249.821C41.9207 255.007 53.702 246.562 61 245.146C67.2895 243.925 72.737 240.419 79 239.081C85.9534 237.595 93.1381 237.519 100 235.211C103.569 234.01 106.357 231.253 110 230.299C115.698 228.808 121.257 229.303 127 228.882C131.13 228.579 135.151 227.001 139.285 226.461C143.751 225.877 148.543 224.463 153 224.354C157.338 224.248 161.612 225.266 166 224.943C173.321 224.403 180.678 222.699 188 222.379C195.928 222.032 204.159 223.182 212 224.154C216.456 224.707 220.199 224.144 224.576 224.123C229.792 224.098 233.415 226.432 235.987 219.995C238.034 214.87 234.659 207.984 233.138 203C230.294 193.679 228.948 184.312 226.432 175C225.579 171.842 223.573 169.166 222.719 166C221.486 161.426 222.394 156.629 221.525 152C220.27 145.31 219.269 138.622 217.629 132C216.896 129.042 215.35 126.332 214.966 123.285C214.047 115.987 215.474 108.344 214.827 101C213.469 85.586 210.153 70.428 209.09 55C208.284 43.3093 208.276 31.6179 206.382 20.0394C205.815 16.5719 207.216 12.4081 204.975 9.41435C201.673 5.00313 194.938 4.70473 190 5.28549C177.875 6.71144 160.858 4.30994 151 13z"/>
	<path style="fill:#000;" d="M31 38C31.4888 47.544 35.2113 57.4847 36.7415 67C39.3432 83.1783 39.2349 99.7697 41.1844 116C41.894 121.907 45.1871 127.119 45.9452 132.961C47.8967 147.997 45.7951 163.023 45.6304 178C45.5387 186.337 47.5548 194.666 47.9599 203C48.5455 215.047 47 226.969 47 239C53.4333 238.163 58.7724 234.907 65 233.286C69.1522 232.206 73.6831 232.732 77.7145 231.502C93.0653 226.816 107.968 221.987 124 219.39C127.049 218.896 129.975 219.971 133 219.647C136.106 219.315 138.888 217.626 141.996 217.177C145.439 216.681 148.697 217.832 152.039 217.507C154.823 217.236 157.212 215.524 160 215.144C164.039 214.593 168.023 215.926 172 215.556C174.807 215.295 177.203 213.598 180 213.263C185.138 212.649 191.76 212.945 197 213.054C206.327 213.248 215.584 215 225 215C222.636 196.709 215.75 179.009 212.054 161C211.098 156.343 211.501 151.635 210.741 147C209.198 137.598 206.31 128.52 205.184 119C204.171 110.428 204.753 101.653 203.826 93C202.043 76.3456 200.418 59.6777 198.83 43C198.037 34.6691 196.173 26.3763 196 18C190.206 16.8105 183.989 14.9039 178 15.0887C174.966 15.1824 171.973 16.7795 169 17.3843C162.956 18.6135 157.006 18.9135 151 19.7793C147.24 20.3214 143.846 22.2631 140 22.706C134.825 23.302 130.209 20.5192 125 21.2099C116.113 22.3882 107.741 25.9527 99 27.5748C76.3238 31.7829 53.6093 34.953 31 38z"/>
	<path style="fill:#fff;" d="M74 92C76.546 91.1599 77.3917 90.1771 79 88C80.6249 100.017 88.7295 109.64 94.716 120C96.5196 123.121 99.14 129.896 103.887 128.338C108.721 126.751 114.722 116.345 116.969 112C118.098 109.818 119.283 105.444 122.425 105.497C126.249 105.561 129.232 112.441 131.443 114.91C138.683 122.995 148.84 128.84 157 136C142.921 137.228 128.908 141.051 115 143.536C108.379 144.719 101.561 145.171 95 146.515C88.5288 147.84 82.4348 150.661 76 152L76 156C85.4239 156.918 93.8791 152.442 103 150.883C107.888 150.047 113.052 150.431 118 149.701C124.704 148.71 131.328 146.708 138 145.46C147.406 143.701 156.711 143.02 166 140.664C171.991 139.145 177.858 137.851 184 137.09C186.373 136.795 190.281 137.48 191.972 135.386C195.98 130.423 190.998 119.749 190.084 114.576C186.535 94.479 182.666 74.42 179.666 54C178.776 47.9449 178.667 40.9478 177.272 35.0586C176.82 33.1502 175.793 31.8568 173.867 31.3287C169.753 30.2013 164.986 31.7715 161 32.6674C154.301 34.1734 147.663 35.7823 141 37.4028C119.02 42.7479 95.955 41.291 74 46.321C67.0252 47.9189 56.8268 47.0217 51.3681 52.5494C49.5587 54.3815 49.7734 56.6637 50.2477 59C51.4054 64.7022 52.5139 70.245 53.4383 76C55.6984 90.0709 58.3954 103.942 60.6752 118C61.7701 124.752 60.8998 131.282 62.7323 138C63.8195 141.986 65.3057 145.886 65.831 150C66.1322 152.358 65.9161 155.519 68.2986 156.914C74.5871 160.593 71.8041 146.353 71.6049 144C70.7978 134.462 66.2091 125.852 66.8002 116C67.3053 107.58 72.833 100.19 74 92z"/>
	<path style="fill:#000;" d="M64 101C68.736 96.1771 69.7478 89.9834 72.338 84C73.274 81.8378 74.6694 78.1346 77.1698 77.3457C81.1655 76.085 83.3558 83.2702 83.9931 85.9606C85.3468 91.6761 88.855 96.1137 91.5471 101.285C95.0322 107.981 98.0155 114.536 102 121C106.82 115.331 110.73 102.032 118.015 99.6435C123.147 97.9615 127.376 102.954 131.035 105.671C136.41 109.663 140.237 115.065 145.285 119.403C151.492 124.736 159.125 128.253 164 135C170.668 132.905 180.177 130.433 187 132C185.76 122.201 184.848 111.56 182.529 102C180.985 95.634 178.406 89.493 177.182 83C174.376 68.1147 173.746 52.7915 171 38C163.021 38.8076 153.733 39.1282 146 41.1312C140.611 42.5268 135.574 44.8937 130 45.8056C123.496 46.8695 117.475 46.447 111 46.7994C102.765 47.2476 93.9855 49.1101 86 50.8272C79.7611 52.1687 73.3176 52.7005 67 53.5748C64.5178 53.9184 60.7708 53.5482 58.9437 55.6034C56.7406 58.0815 57.8996 63.9512 58.1806 67C58.6479 72.0721 60.3062 76.96 60.9985 82C61.8922 88.5074 61.6594 94.7611 64 101z"/>
	<path style="fill:#fff;" d="M137 57.6806C116.556 62.3209 128.152 94.4427 145.996 90.0926C161.623 86.2829 158.095 69.9141 148.05 62.0394C144.813 59.5018 141.373 56.688 137 57.6806z"/>
	<path style="fill:#000;" d="M145 86C146.45 84.3924 147.051 83.9357 149 83C149.309 79.8095 150.745 76.1968 149.748 73.0432C147.991 67.4909 136.926 61.6888 133.071 68.3943C129.081 75.3336 139.964 83.7011 145 86z"/>
</svg>