<?xml version="1.0" encoding="utf-8" standalone="yes"?>
<svg xmlns="http://www.w3.org/2000/svg" width="256" height="256">
	<path style="fill:#fff;" d="M60 203C53.4141 198.065 47.9429 191.342 42.625 185.173C40.1273 182.275 37.0292 180.062 34.7963 176.91C31.9735 172.924 29.8987 167.524 25.8156 164.603C21.619 161.602 14.6337 163.968 16.6181 169.911C17.8047 173.466 21.602 176.98 23.804 180.001C30.6689 189.417 38.9612 198.775 47.5764 206.61C51.3805 210.069 55.5988 211.847 58.8611 216.012C62.527 220.691 68.0029 226.127 74 227.58C76.8586 228.273 80.8958 228.155 82.0015 224.852C83.4393 220.557 79.1874 217.145 77.1697 213.91C72.8323 206.958 69.8545 199.139 65.7454 192C59.7372 181.561 55.5775 170.113 51.3364 159C50.1134 155.795 47.6658 153.243 46.5486 150C42.9755 139.629 40 126.898 40 116C47.1752 114.925 53.3864 111.068 60 108.285C68.1793 104.843 76.7327 102.226 85 98.8642L165 66.3951C174.217 62.64 182.627 57.5097 192 54.3279C202.908 50.6254 214.876 45.6502 224.999 40.2546C228.447 38.4171 234.867 34.0864 230.396 29.6042C226.617 25.8158 221.469 30.4333 217.961 32.0602C207.083 37.1035 195.594 40.103 185 45.8958C182.088 47.4883 179.012 47.6446 176 48.8495C164.29 53.5339 152.77 59.0496 141 63.6752C133.701 66.5436 127.22 71.2993 120 74.2222C103.096 81.0655 85.8992 87.0311 69 93.6443C59.0337 97.5444 48.9879 101.302 39 105.192C35.7797 106.447 30.1238 106.553 28.6073 110.148C26.1838 115.893 31.4358 123.856 32.3025 129.576C34.9196 146.848 39.349 163.279 47.4522 179C51.7205 187.281 57.8299 193.511 60 203M210 151C215.89 150.999 221.35 150.653 227 148.821C238 145.254 243.181 130.88 239.45 120C237.175 113.365 231.215 105.464 226.356 100.546C224.226 98.3899 222.708 95.6478 219.957 94.1782C209.942 88.829 193.035 93.0688 189 104L187 104C184.504 95.3345 179.818 81.8551 173.432 75.3179C169.335 71.1236 161.924 73.6534 163.532 80.0008C164.799 84.9971 169.238 89.3511 171.475 94C179.222 110.105 188.193 125.705 195.622 142C197.504 146.129 199.212 150.475 199.819 155C200.214 157.935 199.877 161.883 203.225 163.214C210.651 166.165 210 155.056 210 151z"/>
	<path style="fill:#000;" d="M205.001 102.92C197.095 106.048 198.909 109.141 198.135 116C197.866 118.385 196.496 120.434 196.863 122.91C198.354 132.964 211.477 144.707 221.999 140.36C236.631 134.314 229.338 119.867 222.194 110.846C217.941 105.477 212.625 99.903 205.001 102.92z"/>
	<path style="fill:#fff;" d="M152.059 117.747C144.545 120.743 149.355 132.224 156.772 129.218C163.196 126.613 159.659 114.716 152.059 117.747M113 160C99.6971 161.631 92.9879 171.864 91.2492 184C90.091 192.085 91.1983 198.762 99.2863 202.864C102.615 204.553 108.29 204.869 112 204.817C122.779 204.667 126.054 193.049 135.09 189.619C138.086 188.482 145.364 189.931 145.364 185C145.364 180.997 136.328 178.162 133.951 174.91C124.766 162.342 120.232 140.596 103 136.471C92.4428 133.945 81.7541 142.204 76.9236 151.004C74.9633 154.575 73.239 163.08 77.4329 165.806C84.4344 170.355 86.7278 155.808 89.6227 152.326C90.746 150.974 92.1377 149.765 93.591 148.779C103.034 142.378 108.777 153.238 113 160z"/>
	<path style="fill:#000;" d="M209 150L210 151L209 150M111.999 171.573C107.267 172.905 99.9785 178.96 99.071 184C97.8651 190.697 104.683 196.697 110.999 194.848C115.214 193.614 122.855 188.261 124.125 183.826C126.02 177.21 118.289 169.804 111.999 171.573z"/>
</svg>