<?xml version="1.0" encoding="utf-8" standalone="yes"?>
<svg xmlns="http://www.w3.org/2000/svg" width="256" height="256">
	<path style="fill:#fff;" d="M122 10.6373C108.209 14.2225 95.1264 20.776 82 26.1559C67.7554 31.994 53.0079 36.1959 39 42.7423C31.8036 46.1054 16.9256 49.582 13.0324 57.0548C11.2132 60.5467 13.4244 63.5714 14.0309 67C14.8971 71.8968 14.4299 77.9823 14.5448 83C15.1223 108.232 18.2565 133.82 15.2855 159C14.4303 166.248 15.9971 173.824 14.6605 181C13.9715 184.699 10.8144 189.007 13.0324 192.726C14.4483 195.1 17.6879 196.306 20 197.586C25.6842 200.735 31.4221 203.702 36.9105 207.199C58.471 220.937 84.3623 227.965 108 237.449C116.975 241.05 128.07 247.662 138 245.076C145.915 243.014 154.411 239.904 162 236.857C164.823 235.724 167.126 233.573 170 232.587C172.248 231.816 174.691 232.056 176.961 231.352C190.695 227.089 205.418 220.308 218 213.228C222.448 210.725 227.211 208.32 232 206.543C235.423 205.273 239.086 204.435 240.972 200.945C242.568 197.992 241.751 194.473 241.951 191.285C242.499 182.523 242.256 174.315 242.12 165.576C241.707 138.872 245.128 112.699 244.999 86C244.955 76.7738 245.778 61.9657 239.276 54.6096C237.082 52.1268 233.848 51.1038 231 49.6258C223.36 45.6614 216.086 43.2627 208 40.3079C198.754 36.9294 190.096 31.1984 181 27.3927C176.928 25.6889 172.313 25.107 168.09 23.8302C161.27 21.769 153.622 19.0446 147.09 16.1821C139.355 12.7929 130.858 8.33444 122 10.6373z"/>
	<path style="fill:#000;" d="M35 106C37.5542 103.065 44.4748 97.6056 48.6821 100.072C51.6638 101.82 51.1557 107.082 52.0941 110C54.7928 118.391 61.2155 126.002 61 135C63.8021 132.736 63.8265 129.297 64.9992 126C66.3309 122.257 68.2897 118.732 69.7099 115.005C71.6302 109.965 74.9888 108.421 78.7562 112.774C79.6482 113.805 80.426 115.009 81.135 116.17C82.2739 118.035 83.1162 120.021 84.0278 122C85.4192 125.021 86.9976 127.827 88 131C90.5507 128.038 93.2618 120.207 97.8565 120.207C101.488 120.207 101.185 126.615 101.594 129C103.119 137.898 107.366 144.635 107 154C109.39 150.862 112.435 147.177 114.32 143.742C115.528 141.542 116.06 138.365 119.057 137.917C121.537 137.546 124.052 139.782 126 141C125.226 133.681 125.291 125.177 127 118C118.266 114.308 108.776 112.297 100 108.652C89.6955 104.372 80.6737 98.1299 71 92.8048C64.4759 89.2134 57.579 86.5247 51 82.9799C44.8185 79.6494 39.4417 75.8044 33.0008 72.8565C30.8342 71.8649 27.3361 70.7258 26.9213 67.9553C26.4286 64.6645 30.0441 65.1154 32.0046 65.7083C36.8793 67.1826 40.8287 68.9596 44 73C49.6968 73.5656 53.8486 78.417 59 80.7917C64.1494 83.1654 68.0438 86.6244 73.0039 89.152C76.4811 90.924 80.4498 91.5748 84 93.2616C92.867 97.4744 101.515 103.15 111 105.845C115.397 107.094 121.474 110.717 126 110.15C135.54 108.955 144.414 102.411 153 98.5432C165.955 92.7077 179.73 89.3007 191.999 81.7323C201.855 75.6526 214.462 62.8475 227 66C223.131 72.9799 213.847 75.7914 207 79.2477C191.629 87.0063 177.18 96.7125 161 102.446C153.856 104.977 147.78 107.538 141 111.111C138.445 112.457 134.748 113.299 132.897 115.649C130.925 118.153 131.93 122.074 131.986 125C132.082 129.975 131.501 134.264 130 139L141 146C143.169 137.924 145.321 128.759 148.965 121.171C150.243 118.51 153.234 114.135 156.575 116.662C158.984 118.485 159.411 122.294 160.151 125C161.4 129.569 162.777 133.469 166 137C170.681 129.332 173.128 120.923 178.549 113.576C180.328 111.166 181.627 107.876 185.019 107.531C189.477 107.077 194.035 111.412 198 113C197.998 108.511 196.207 99.9619 199.603 96.3719C201.823 94.0238 204.665 95.5291 206.999 96.8202C211.825 99.4893 216.619 102.63 220 107C223.57 103.357 226.3 98.3307 228.996 93.9753C230.941 90.8332 233.627 87.6307 234.522 83.9853C235.757 78.9612 234.948 66.4179 231.436 62.4144C227.039 57.401 219.743 55.414 214 52.5571C209.938 50.5363 206.254 47.685 202 46.0494C198.753 44.8008 195.223 45.0232 192.004 43.6335C189.059 42.3621 186.787 39.8932 183.83 38.7261C180.696 37.4887 177.192 37.7475 174 36.4854C166.455 33.5017 158.344 31.2011 151 27.946C144.134 24.9029 137.793 21.0388 130 21.0293C118.453 21.0152 108.346 27.0001 98 31.1952C86.132 36.0075 74.0601 39.1733 62.0039 43.4452C56.3477 45.4494 51.5527 48.8355 46 51.0772C39.3842 53.748 29.592 56.3708 24.6034 61.7639C21.6889 64.9147 23.8307 70.2361 23.9568 74C24.324 84.9616 25.6711 98.5092 35 106M234 97C229.804 101.258 227.54 110.258 222.671 113.248C220.313 114.697 218.487 112.705 216.715 111.326C212.684 108.188 208.443 105.845 205 102C204.359 106.539 206.048 115.94 202.397 119.378C197.302 124.176 190.563 113.623 185.274 115.421C182.816 116.257 181.572 119.955 180.386 122C176.329 128.993 173.793 136.702 170.258 144C169.159 146.269 167.01 154.007 163.274 152.654C160.247 151.558 161.196 146.494 160.867 144.09C160.077 138.311 156.408 131.347 154 126C150.08 131.641 151.236 138.814 146 144C145.845 147.299 144.221 152.306 139.981 151.968C136.919 151.723 134.027 148.839 131 148C129.802 157.692 131.144 168.302 132.424 178C133.304 184.661 133.997 191.279 134 198C134.004 205.118 135.285 211.99 136.38 219C136.698 221.031 137.286 224.69 134.74 225.654C130.452 227.28 129.35 214.485 128.87 212C126.683 200.676 128.037 188.45 127.454 177C127.22 172.393 125.351 167.68 124.833 163C124.109 156.448 125.462 147.164 118 145C115.294 150.762 113.099 156.558 109.73 161.995C108.713 163.636 107.333 166.793 105.008 166.793C101.371 166.793 101.669 160.353 101.4 158C100.284 148.255 97.4009 138.818 97 129C95.9053 130.934 95.2072 133.112 93.9938 134.985C92.1285 137.865 88.8011 140.796 85.7431 137.663C80.5014 132.292 80.2241 123.915 74 119C70.804 123.651 69.0665 128.422 68.1451 134C67.6227 137.162 67.5699 142.222 64.5887 144.248C60.2567 147.193 58.875 138.279 57.7122 136C52.781 126.335 49.4841 116.733 47 106C42.6574 106.931 33.2976 114.331 29.5131 111.342C26.2463 108.762 27.2651 103.638 24 101C27.3216 121.783 26.528 142.994 25.0895 164C24.5415 172.003 25.8731 180.133 24 188C31.2335 191.183 37.4835 196.378 44.4236 200.12C52.8843 204.683 62.2562 209.159 71 213.081C80.2999 217.252 90.6158 219.013 100 223.043C107.93 226.449 115.825 229.44 124 232.305C127.232 233.437 131.537 235.619 135 235.438C137.929 235.284 140.405 233.108 143 231.961C148.107 229.704 153.705 227.729 159 225.954C167.302 223.17 175.655 220.337 184 217.633C187.309 216.56 190.764 216.231 193.91 214.621C206.712 208.07 218.067 199.488 232 195C234.877 172.233 233.453 148.942 234.015 126C234.164 119.917 234.179 114.059 234.179 108C234.179 104.116 235.541 100.707 234 97z"/>
</svg>