<?xml version="1.0" encoding="utf-8" standalone="yes"?>
<svg xmlns="http://www.w3.org/2000/svg" width="256" height="256">
	<path style="fill:#fff;" d="M93 25C106.014 28.9632 120.974 37.2597 135 34.7724C139.67 33.9442 142.84 30.2265 147 28.2785C149.896 26.9225 153.034 27.2927 156 26.277C161.782 24.2971 167.152 20.9908 173 19C173.985 24.3059 173.835 29.7885 175.3 35C177.348 42.284 181.447 48.9073 184.047 56C187.178 64.5388 191.559 73.101 193.26 82C195.017 91.1933 196.694 101.608 201.135 109.956C203.234 113.902 209.912 117.311 211.526 110.891C212.41 107.375 210.263 104.118 209.031 101C207.388 96.8414 206.224 92.281 204.897 88C202.947 81.7048 200.312 75.3131 198.612 69C197.631 65.3593 197.721 61.6022 196.452 58C192.788 47.5983 187.531 39.0509 185.388 28C184.188 21.807 181.653 18.9077 177.53 14.4105C175.47 12.1631 174.426 9.4592 170.981 9.25308C157.738 8.46088 147.062 21.6262 135 23.9552C121.28 26.6046 110.896 15.6998 98 16.044C95.0377 16.123 90.0255 16.1914 87.5602 18.0239C84.8472 20.0405 83.7673 25.1287 82.0779 28C74.5546 40.7872 72.2246 56.6846 68.7654 71C67.5831 75.8928 64.5586 80.2258 62.9537 85C60.9153 91.0636 60.5344 97.1109 57.6304 103C56.0331 106.239 52.0129 111.926 56.4344 114.806C59.5335 116.824 62.9304 114.55 64.6327 111.891C67.8933 106.799 66.815 100.373 69.7137 95C72.0015 90.7592 74.5335 86.8255 75.4684 82C76.1155 78.6595 75.4332 75.311 76.4028 72C77.7668 67.342 81.0043 63.5614 82.6512 59C84.3137 54.3954 84.0655 49.4912 85.588 45C87.9628 37.9945 92.5966 32.7754 93 25M237 113C236.887 122.568 230.085 123.33 222 125.235C209.487 128.182 197.679 130.614 185 132.282C180.299 132.9 175.685 134.454 171 134.896C165.015 135.46 158.965 134.551 153 135.104C149.939 135.388 147.081 136.731 144 136.806C140.313 136.897 136.727 135.796 133 136.058C111.262 137.583 88.8977 139.51 67 135.671C56.3158 133.799 47.0539 129.149 37 125.698C32.0582 124.002 26.904 124.092 22 122C23.7616 119.731 25.6843 114.975 28.6836 114.21C30.4545 113.758 32.3433 114.683 34.0147 115.128C37.4171 116.035 42.4839 116.868 45.8519 115.397C48.8183 114.101 49.7387 109.972 47.3958 107.603C45.5653 105.753 42.3847 105.992 40 105.719C33.719 104.999 23.613 102.446 18.3032 106.819C15.8418 108.846 15.4517 112.15 14.0054 114.83C12.2722 118.042 8.56538 121.799 11.0324 125.686C13.1305 128.992 18.685 128.641 21.9961 129.839C24.9755 130.917 27.2608 133.152 30.1698 134.313C36.1858 136.714 42.8513 137.476 48.9105 139.556C56.7343 142.24 64.5979 145.327 73 146.571C78.6657 147.41 84.3204 146.651 90 146.835C97.3466 147.072 104.543 148.278 112 147.961C116.777 147.757 121.304 146.382 126 145.764C131.745 145.007 138.139 145.491 144 145.09C148.984 144.748 154.026 145.358 159 144.896C164.067 144.425 168.831 142.785 174 142.594C183.173 142.256 191.561 142.084 200.424 139.339C210.385 136.254 221.785 136.599 232 133.961C235.692 133.007 241.792 131.439 244.396 128.49C245.962 126.716 245.776 124.475 246.026 122.285C246.638 116.932 248.223 106.681 242.683 103.028C238.883 100.522 232.953 103.078 229 103.92C225.558 104.653 219.28 105.441 217.786 109.224C216.486 112.517 218.912 115.214 222.044 115.767C227.104 116.66 231.999 113.45 237 113M72.3225 114.779C67.9412 116.695 72.8677 119.806 75.0193 120.572C81.6849 122.945 88.0629 124.476 95 125.803C104.652 127.65 113.391 126.125 123 125.924C137.068 125.629 152.124 127.784 166 125.196C171.264 124.214 182.367 124.247 186.214 120.15C189.235 116.931 184.946 114.581 181.999 115.012C178.824 115.475 176.148 117.413 172.961 117.885C158.104 120.085 142.983 119.807 128 120.004C121.579 120.088 115.489 121.48 109 120.829C100.444 119.971 91.4042 118.151 83 116.332C79.855 115.651 75.514 113.383 72.3225 114.779M58 203L57 202C52.9498 203.021 49.5606 204.843 46 207C44.8805 203.663 43.0834 200.463 42.3796 197C39.4487 182.577 41.0292 167.338 37 153C38.7519 154.091 47.8511 160.189 46.7585 153.937C46.0584 149.93 37.4525 138.877 32.6034 142.086C30.0507 143.775 30.9507 149.438 31.0756 152C31.4932 160.567 33.2466 168.584 34.561 177C35.2861 181.643 34.5536 186.377 35.3256 191C36.3853 197.346 39.4695 203.922 41.6806 209.956C45.4971 220.371 56.4065 209.069 58 203M208 182C212.017 179.661 211.961 176.203 213.11 172C214.946 165.285 220.082 153.475 211 150C215.31 135.286 194.347 143.735 187 145.579C172.859 149.129 158.353 148.684 144 150.125C127.403 151.791 108.391 155.636 91.7145 152.691C85.144 151.531 78.5622 151.594 72 150.71C67.9836 150.169 64.0706 148.031 60 148.159C56.7024 148.263 52.8847 149.836 51.608 153.105C50.2204 156.658 52.4357 159.741 53.456 163C55.1614 168.447 55.2847 173.61 57.6952 179C63.9314 192.945 72.6423 209.279 90 210.816C96.3004 211.374 105.954 208.237 112 206.319C118.015 204.411 123.404 200.172 128 195.978C130.97 193.268 136.026 188.575 140.447 188.637C142.835 188.67 144.604 192.239 146.13 193.715C149.564 197.036 153.785 200.328 158 202.596C171.418 209.816 187.67 208.156 199.166 198.579C204.324 194.281 209.044 189.165 208 182M216 144L217 148L224 148C224 159.627 224.661 171.537 226.443 183.004C227.007 186.632 230.447 193.03 228.058 196.433C225.534 200.028 219.355 192.082 217.019 191.086C215.499 190.437 213.321 190.382 212.752 192.322C211.102 197.939 223.032 204.037 227 205.694C229.375 206.687 232.914 207.65 234.346 204.721C235.807 201.734 235.061 196.233 234.946 193C234.534 181.381 230.001 170.819 230 159C230 154.651 231.537 146.242 228.142 142.858C224.692 139.42 219.527 142.437 216 144z"/>
	<path style="fill:#000;" d="M198 153C199.922 157.674 201.612 161.283 206 164C206 159.564 206.189 155.369 207 151C203.876 151.311 201.028 152.198 198 153M183 155C187.326 164.092 196.049 169.973 202 178C203.258 175.773 204.096 173.403 205 171C194.346 169.277 195.783 152.759 183 155M176 156C165.689 162.891 152.616 159.102 141 159.61C134.009 159.916 127.072 161.854 120 162C123.291 168.311 128.764 173.286 133 179C136.508 177.375 140.12 174.573 143.981 176.785C152.768 181.821 157.674 193.131 168 196.437C175.719 198.908 186.503 196.086 192.409 190.762C194.213 189.135 197.124 186.661 197.133 184C197.151 179.302 188.971 172.584 186.236 169C182.861 164.578 180.313 159.565 176 156M61 160C66.6068 175.766 73.0545 196.514 91 201.155C93.5946 201.826 96.2679 203.021 98.9961 202.527C102.152 201.955 104.629 199.559 107.17 197.786C111.458 194.794 115.994 192.384 120 189C116.009 182.899 110.97 178.446 106.414 172.91C104.057 170.046 102.939 166.072 99.696 163.988C96.2268 161.76 91.8641 162.677 88 162.321C78.9855 161.49 69.9622 157.351 61 160M108 162C109.866 168.844 117.052 178.833 124 181C124.593 184.402 125.558 185.138 129 185C127.834 180.844 125.145 178.327 122.478 175.004C118.25 169.738 115.394 162.57 108 162z"/>
	<path style="fill:#fff;" d="M205 203C199.319 205.327 198.738 209.904 196.19 215C192.587 222.204 188.712 228.911 183.761 235.17C182.321 236.989 178.175 242.895 182.319 244.263C187.832 246.083 189.93 237.824 191.671 234.576C196.504 225.562 209.088 213.865 205 203M89 247L95 247L95 241C87.1848 237.113 79.4241 228.645 75.3094 221C73.435 217.517 72.1704 208.938 67.8696 207.752C61.0314 205.866 67.5305 216.514 68.446 218C71.7391 223.344 73.6863 229.873 77.5486 234.83C81.0309 239.3 86.2912 241.925 89 247z"/>
</svg>