<?xml version="1.0" encoding="utf-8" standalone="yes"?>
<svg xmlns="http://www.w3.org/2000/svg" width="256" height="256">
	<path style="fill:#000;" d="M0 0L0 256L256 256L256 0L116 0C119.58 2.89206 124.125 4.05261 128 6.54861C134.397 10.6698 138.805 16.1658 142 23C148.738 20.8074 155.951 17.2311 163 16.365C174.661 14.9321 187.658 20.2763 194.347 30C199.299 37.1971 198.246 49.6215 206.133 54.9907C209.397 57.2134 213.28 56.7985 217 57.2894C221.179 57.8408 224.978 59.2688 229 60.4066C231.961 61.2443 236.112 61.4964 237.045 65.1088C237.958 68.6434 234.746 73.0019 233.247 76C230.355 81.7839 227.207 87.3857 224.001 93C222.33 95.925 219.759 99.4926 219.539 102.961C219.173 108.728 230.152 116.231 233.984 119.83C237.236 122.885 240.255 125.633 236.728 129.829C235.119 131.743 232.94 133.245 231.002 134.799C228.716 136.632 226.441 138.386 224 140C230.472 151.8 233.261 159.759 226 172C229.174 172.068 231.966 172.443 235 173.424C237.318 174.174 239.664 174.672 241.995 175.351C253.61 178.734 242.44 189.854 238.044 195C236.556 196.741 234.809 198.514 235.326 201C236.097 204.705 239.573 208.373 240.979 212C243.066 217.382 243.22 223.298 242.961 229C242.805 232.416 242.347 238.149 238.776 239.863C235.864 241.262 233.123 238.695 232.523 235.956C231.403 230.84 233.648 225.328 232.405 220C231.577 216.451 230.372 213.007 228.292 210C226.217 207.001 222.648 203.901 222.426 200.015C222.109 194.474 231.186 187.3 235 184C229.874 180.759 216.983 181.299 214.284 175.772C211.277 169.615 221.274 162.927 221.91 157.001C222.316 153.226 219.312 150.29 216.91 147.831C210.965 141.745 203.222 138.353 195 136C194.05 140 194.486 144.017 193.648 148C192.213 154.823 188.667 159.948 183.755 164.758C181.426 167.04 175.014 172.831 172.028 168.642C169.147 164.6 171.987 155.724 172 151C167.647 154.405 163.933 158.59 158.961 161.19C151.941 164.861 145.599 165.275 138 166.184C125.871 167.637 112.76 169.874 101 164.651C94.391 161.716 90.4406 156.386 85 152C86.1755 158.335 90.7274 180.25 78.0895 174.416C71.8294 171.526 68.692 164.441 63 161L63 169L57 169C57.5883 159.938 62.7369 150.028 61 141L58 141C54.5839 145.044 50.4046 148.588 45 149C44.9691 145.265 44.467 141.695 44 138C38.1928 138.879 33.9487 143.104 28 144C28.4429 148.449 29.5571 153.376 32.314 157C34.4785 159.845 38.4269 162.332 39.2523 166C40.0176 169.4 36.9157 172.575 34.9954 175C30.156 181.112 24.7712 187.78 19 193C24.2356 199.16 31.2949 201.074 38 205C45.4803 198.822 49.4324 188.72 58.0895 183.599C62.2093 181.161 69.2625 181.414 74 180.35C78.2271 179.4 82.6202 178.615 86.9799 178.724C88.8137 178.77 91.487 179.424 90.6543 181.914C89.2706 186.053 80.4789 185.654 77 186.05C67.289 187.156 58.5192 190.017 52.4753 198.001C48.234 203.603 42.6124 208.879 39.2623 215.039C36.1545 220.755 35.5517 226.99 33.3418 233C32.488 235.322 30.265 244.774 27.7477 245.218C23.9718 245.882 21.5164 239.57 20.2593 237C16.44 229.191 6.59053 209.623 21 208C17.7598 205.055 10.9439 201.5 9.96914 196.961C9.29363 193.815 12.1098 191.406 13.3773 188.83C17.3575 180.742 21.6009 174.548 28 168C26.9531 165.583 26.3042 162.646 24.8434 160.455C21.7135 155.761 13.2112 148.841 16.2832 142.109C17.9048 138.555 21.7578 138.686 24.7145 137.003C27.629 135.344 30.1479 132.826 33 131C28.2586 121.58 26.2403 107.223 37 101C35.6382 96.2819 32.8339 92.4821 30.9545 88C28.6194 82.4311 27.5042 75.914 26.3889 70C25.6912 66.3004 24.2777 61.8676 25.3187 58.1088C28.1575 47.858 39.659 63.0239 45.2978 58.1373C51.6425 52.6391 50.8033 41.3597 55.4336 35C63.5304 23.8791 78.0254 18.8957 91 17.8194C95.2756 17.4648 99.7119 16.3061 103.985 17.429C107.231 18.282 109.906 20.7123 113 22C111.064 14.6132 104.548 7.47195 111 1C107.301 -0.552032 102.983 0 99 0L77 0L0 0z"/>
	<path style="fill:#fff;" d="M113 22C110.418 20.4526 107.902 18.2176 104.961 17.429C100.452 16.2201 95.5327 17.3174 91 17.6759C78.3466 18.6767 63.4739 22.9966 55.4336 34.0008C50.6513 40.546 51.391 51.4232 45.2978 57.4676C40.1546 62.5697 28.178 47.8855 25.3179 57.2284C24.1105 61.1727 25.4484 66.0959 26.1968 70C28.3915 81.45 32.5668 90.4081 37 101C25.9635 105.183 27.6931 122.993 33 131C29.4936 132.555 27.1064 135.183 23.8302 137.003C20.9184 138.621 17.129 138.447 15.7855 142.109C13.2929 148.902 20.7132 155.855 24.2778 160.454C25.8567 162.492 26.397 164.978 28 167C21.625 173.527 17.2562 179.803 13.3773 187.91C12.1036 190.573 9.43979 192.858 9.45602 195.999C9.48259 201.144 16.7921 205.552 21 207C18.9836 207.714 16.3809 208.172 14.8179 209.739C9.2569 215.316 16.2705 229.123 18.8619 235C20.2609 238.173 23.1432 246.723 27.7832 245.94C30.7952 245.431 30.5117 241.182 31.2245 238.999C33.1513 233.099 34.7784 226.815 36.9514 221C39.4093 214.422 43.7797 210.122 48.1157 204.829C55.4537 195.873 60.108 189.594 72 187.015C76.9386 185.944 82.0435 185.92 86.9807 184.891C88.9813 184.474 91.3642 183.545 91.3642 181.09C91.3642 178.631 88.8411 178.397 86.9807 178.483C82.6512 178.684 78.2263 179.168 74 180.12C69.2866 181.181 62.284 180.882 58.0748 183.024C50.1346 187.064 43.1906 197.48 39 205C32.0677 200.941 25.2937 198.256 19 193C25.3327 188.934 31.18 180.969 35.7847 175C37.7509 172.451 40.2071 169.46 39.6242 166C38.919 161.814 34.7253 159.17 32.314 156C29.7398 152.616 28.6978 148.119 28 144C34.2104 143.454 38.2452 139.563 44 138L45 149C50.5308 148.817 55.2813 145.849 58 141L61 141C61.9231 150.376 57.275 159.688 57 169L63 169L63 161C67.8909 165.465 71.6823 172.252 78.0502 174.941C90.9896 180.406 86.5866 158.664 85 152C88.4042 155.894 91.5391 159.778 96 162.532C108.182 170.05 124.611 168.491 138 166.325C141.313 165.789 144.704 166.276 148 165.621C157.673 163.699 165.481 158.122 172 151C171.961 155.682 168.812 165.48 172.028 169.382C175.014 173.005 181.48 167.659 183.755 165.545C193.35 156.628 192.84 147.812 195 136C204.123 139.75 218.192 144.073 221.408 154.845C223.15 160.678 214.94 166.55 213.682 172C211.732 180.451 229.134 182.121 235 183C230.798 186.932 221.897 193.684 222.192 200.015C222.398 204.421 225.94 207.6 228.292 211C230.372 214.007 231.577 217.451 232.405 221C233.635 226.274 231.043 231.878 232.448 236.891C233.205 239.589 236 241.403 238.776 240.353C242.453 238.961 242.811 233.295 242.961 230C243.231 224.055 243.321 217.689 241.355 212C240.095 208.354 236.825 204.715 236.149 201C235.688 198.467 237.491 196.784 238.981 195C243.492 189.595 253.826 178.152 241.995 175.11C239.626 174.5 237.339 173.803 235 173.09C232.002 172.175 229.11 172.026 226 172C234.241 161.684 231.399 149.893 224 140C226.625 138.83 228.731 137.385 231.002 135.596C232.954 134.057 235.075 132.542 236.768 130.711C243.683 123.228 229.049 113.952 224.02 109.17C222.204 107.443 219.858 105.735 219.955 102.961C220.075 99.5426 222.943 95.8597 224.579 93C227.97 87.0719 231.201 81.1127 234.247 75C235.683 72.1189 238.13 68.4937 237.461 65.1088C236.74 61.4558 232.938 61.241 229.999 60.4066C225.979 59.2651 222.178 57.8407 218 57.2894C213.812 56.7368 209.671 57.1255 206.133 54.3472C198.441 48.3067 199.487 36.4478 194.347 29.0008C182.08 11.2284 158.703 15.5959 142 23C138.747 12.7231 130.591 6.63734 121 2.57947C115.993 0.461197 108.677 -1.65854 107.449 6.01543C106.666 10.9082 111.378 17.3615 113 22z"/>
	<path style="fill:#000;" d="M119 13C120.33 17.5974 127.021 29.8699 120.851 32.9136C116.253 35.1817 113.43 28.7161 109.871 27.1481C105.044 25.0215 94.1474 24.3428 89 25.3943C80.5955 27.1112 71.0406 34.2157 65.0039 40.0401C62.9187 42.052 60.4634 44.2575 59.3488 47C57.1766 52.3443 59.9966 58.8977 55.6821 63.6744C51.06 68.7917 41.4553 72.0903 36 67C33.2467 75.9513 39.1594 92.9671 47 98L47 91C54.1576 91.2342 57.8628 96.6577 62 102C65.0654 100.312 67.4964 99.2523 71 99C70.4744 105.889 65.3236 111.707 64.4645 119C63.6595 125.834 67.7197 130.865 69.3117 137C70.0895 139.997 68.3693 142.975 68.3557 146C68.3169 154.62 73.235 164.069 81 168C80.6705 160.325 79.9362 152.681 80.1289 145C80.2396 140.586 81.3943 136.456 80.6752 132C79.3848 124.005 78.7384 117.131 79.7145 109C79.9975 106.643 79.5786 103.389 81.0278 101.358C84.0922 97.0635 89.8836 103.759 94.0039 102.499C99.8612 100.708 102.686 94.5087 108.039 92.1435C119.749 86.97 126.813 102.99 127 112C137.181 111.074 141.811 99.5377 144.509 90.7145C145.335 88.0145 144.901 84.7942 146.858 82.5147C151.832 76.7209 156.025 84.723 156.999 89C157.842 92.7006 159.352 95.6063 161 99C165.181 97.6789 172.315 89.9362 176.644 92.213C178.686 93.2875 178.412 96.0683 178.576 98.0008C178.958 102.513 179.638 106.509 178.731 111C176.606 121.52 178.447 132.557 178.276 143C178.22 146.418 176.554 149.614 176.188 153C175.825 156.363 176.58 159.681 177 163C188.052 155.023 187.033 143.03 187 131L191 131C192.444 124.682 194.007 118.468 192.215 112C190.512 105.856 185.901 101.561 186 95C189.757 95.2888 193.528 99.4229 196.91 98.8256C199.476 98.3727 201.167 95.4636 203.039 93.9051C205.525 91.8363 207.853 91.2135 211 91L211 95C216.737 88.331 220.623 78.1118 224 70C216.236 67.538 206.034 66.4294 200.43 59.8148C196.602 55.2968 195.59 48.3073 192.806 43.1042C190.545 38.8768 185.926 34.7061 181.985 32.0579C178.311 29.5885 172.528 25.5471 168 25.5864C161.386 25.6438 154.19 29.2746 148 31.3333C145.273 32.2402 141.947 33.8671 139.019 33.0733C135.156 32.0263 133.915 28.0303 132.014 25C128.78 19.8447 124.941 14.803 119 13M149 90C149.099 92.6517 149.447 95.4752 148.62 98.0502C147.245 102.337 143.345 106.075 140.257 109.196C134.274 115.242 129.015 121.224 120 121C120.458 110.342 120.161 103.942 112 96C105.812 99.3413 100.254 110.261 92.9992 110.62C89.9349 110.772 86.7438 108.135 84 107C84.7842 113.205 85.9213 119.745 85.9213 126C85.9213 136.746 84.5682 145.31 93.1088 153.826C100.853 161.547 109.772 162.016 120 162C138.745 161.97 160.21 158.832 171.157 141.715C173.805 137.575 172.132 133.496 172.259 129C172.383 124.651 173.657 120.343 174 116L171 116L172 101C169.902 101.992 167.997 103.13 165.995 104.304C164.754 105.032 163.424 105.944 162.001 106.279C152.229 108.572 155.825 93.4445 149 90M52 101C50.4884 113.692 50 126.141 50 139C53.3113 137.184 56.4501 135.317 60 134C58.6625 129.24 56.7875 124.246 60 120C58.9887 115.631 59.1538 112.392 60 108C56.7575 106.266 54.6584 103.514 52 101M204 102C202.375 103.928 199.261 105.805 198.402 108.209C197.495 110.747 198.912 114.339 198.985 117C199.187 124.418 196.359 130.208 205 133C205 123.924 207.511 110.367 204 102M45 104C38.7883 109.867 35.7312 121.831 44 127C44 122.611 44.0112 118.34 44.7577 114C45.37 110.44 46.7725 107.271 45 104M211 111L211 140C216.479 135.083 222.079 130.389 228 126C223.945 120.243 217.947 112.95 211 111z"/>
	<path style="fill:#fff;" d="M91 166C89.6211 171.066 91.8342 175.078 93 180C99.2269 177.913 94.9378 170.372 93 166L91 166M158 166L157 182C173.153 186.407 195.471 182.709 206.572 197.004C213.452 205.864 220.708 218.714 222.112 230C222.913 236.444 222.082 246.836 230 248C230.051 228.872 225.122 209.098 212.988 193.961C210.214 190.499 207.806 185.446 203.896 183.164C197.414 179.38 189.103 180.194 182 179.792C175.618 179.43 169.423 178.018 163 178C163.51 173.963 163.989 170.08 164 166L158 166M174.742 195.086C170.839 197.828 175.416 204.089 178.105 205.697C183.456 208.896 190.446 207.758 195.91 210.573C205.321 215.42 205.435 228.441 201.856 236.961C200.718 239.668 198.207 241.431 197.071 244.07C195.842 246.926 197.977 249.321 200.915 247.914C202.963 246.933 204.173 244.825 205.409 243.035C211.06 234.847 209.614 230.32 208.279 221C207.742 217.257 208.214 213.23 205.657 210.129C200.552 203.934 192.98 203.653 186.005 201.442C182.918 200.464 177.915 192.856 174.742 195.086M67 205C63.0708 204.548 60.424 206.149 57.0039 208.074C53.0379 210.307 47.5376 214.772 45.7384 219.129C44.4584 222.228 45.476 225.413 45.7361 228.576C46.567 238.679 50.7558 247.478 62 248C60.5601 239.069 49.4332 233.655 51.3596 223.015C53.2216 212.73 70.6672 212.216 76.1057 203.946C77.8371 201.313 78.1927 194.624 73.1898 197.083C70.3111 198.498 68.3078 202.248 67 205z"/>
	<path style="fill:#000;" d="M22 218C22.2247 223.155 23.4691 227.504 26 232C28.9334 227.362 31.5513 221.944 34 217C29.9633 217.51 26.08 217.989 22 218z"/>
</svg>