<?xml version="1.0" encoding="utf-8" standalone="yes"?>
<svg xmlns="http://www.w3.org/2000/svg" width="256" height="256">
	<path style="fill:#fff;" d="M104 76C108.842 72.579 107.111 64.8965 105.481 60C102.162 50.022 103.251 33.7081 90.9992 29.5602C82.5696 26.7062 67.1346 26.9246 60.5293 33.5293C56.567 37.4913 55.8499 42.8342 54.5216 48C50.4802 63.7168 50.0657 81.7996 65.0147 91.7515C74.8909 98.3264 90.2285 95.7596 98.3349 87.6211C101.662 84.2813 104.414 80.7858 104 76M183 35.6381C172.006 38.8118 169.337 48.9532 168.324 59C167.785 64.3429 166.365 69.5909 167.259 75C169.7 89.7674 182.981 100.642 197.995 96.0571C202.441 94.6996 203.737 91.4637 206.552 88.1836C208.784 85.5847 211.808 83.8755 213.632 80.9066C216.599 76.0769 217.517 65.5951 216.772 60C216.239 56.002 213.645 53.1953 211.451 50C205.479 41.2998 194.452 32.3325 183 35.6381z"/>
	<path style="fill:#000;" d="M75 38.4676C65.3179 40.3002 61.5886 48.7274 63.1296 57.9105C63.5535 60.4362 65.234 62.5043 65.5316 65.0394C66.5526 73.7352 63.1631 84.3642 76 84.9529C78.0018 85.0447 80.0262 84.8913 82 84.5571C86.1502 83.8545 94.6169 81.4208 96.9329 77.5818C98.6177 74.789 96.944 70.1181 97.0432 67C97.1508 63.6205 98.013 60.3923 97.5455 57C95.8886 44.9757 87.478 36.1057 75 38.4676M185 45.8164C166.677 51.0342 173.333 91.7641 194 86.3866C209.017 82.4792 209.872 67.2575 203.074 56C199.107 49.4309 193.571 43.3755 185 45.8164z"/>
	<path style="fill:#fff;" d="M57 103.44C49.0426 104.718 39.5857 109.484 34.7384 116.144C32.0256 119.871 31.6816 125.676 30.2515 130C24.7539 146.621 24.9379 164.67 24.8557 181.985C24.8384 185.625 22.3318 188.416 22.1975 192.015C21.8254 201.99 22.1071 212.973 22.2785 222.985C22.3275 225.842 23.8094 228.543 27 228.543C32.9055 228.543 31.52 221.746 31.1698 218C30.3882 209.641 31.3602 201.311 31.7909 193C31.9491 189.947 31.0664 187.033 31.7639 184C34.5053 172.081 35.7786 160.223 36.8194 148.004C37.3576 141.686 36.9784 133.768 39.9738 128C46.9026 114.658 63.2979 111.491 77 112.429C80.7486 112.686 84.1564 113.975 88 113.999C95.1403 114.045 103.117 111.7 109.999 114.109C118.572 117.109 119.648 126.136 121.166 134C123.021 143.615 119.823 152.339 119.094 162C118.598 168.574 119.895 175.219 119.106 181.83C118.638 185.747 116.862 188.88 117.093 193C117.487 200.002 116.445 207.052 117.059 213.995C117.322 216.98 118.591 219.704 122.015 219.704C130.821 219.704 126.831 207.946 126.29 203C125.79 198.427 127.844 194.493 127.938 190C128.009 186.606 126.808 183.395 126.844 180C126.904 174.347 129.158 169.492 129.816 164C130.338 159.637 129.138 155.347 129.65 151C130.109 147.11 129.567 143.852 129.487 140C129.293 130.739 131.125 119.278 124.772 111.439C113.94 98.0737 94.7632 104.347 80 103.985C72.2857 103.796 64.7536 102.194 57 103.44M223 121C223.046 126.563 225.2 131.594 225.455 137C225.819 144.699 223.613 152.366 223.09 160C222.707 165.587 224.392 170.577 224.505 176C224.648 182.813 222.887 189.311 222.174 196C221.67 200.725 222.184 205.281 221.417 210C220.783 213.901 221.522 219.616 226.946 218.623C231.882 217.72 230.82 211.661 231.17 208C231.67 202.763 233.061 197.265 232.791 192C232.492 186.183 230.767 179.802 231.684 174C233.772 160.779 234.762 147.587 233.9 134.285C233.554 128.936 234.284 123.905 231.362 119.039C225.83 109.829 219.778 112.521 211 111.7C203.915 111.037 197.091 111.384 190 111.29C179.282 111.147 167.745 110.6 158.039 116.132C152.389 119.353 144.365 126.091 141.573 132C139.684 135.999 141.122 139.87 140.367 144C137.509 159.607 137.914 175.274 139.201 191C139.807 198.411 139.905 205.565 141.069 212.999C141.629 216.573 143.639 220.407 147.945 219.623C155.087 218.323 150.216 204.639 149.575 200C149.084 196.453 147.762 192.931 147.394 189.424C146.351 179.515 148.411 168.799 148.957 159C149.295 152.921 147.758 145.787 150.005 140C153.146 131.908 163.385 122.689 172 120.823C176.026 119.95 180.858 121.096 185 120.965C197.704 120.56 210.364 120.739 223 121z"/>
</svg>