<?xml version="1.0" encoding="utf-8" standalone="yes"?>
<svg xmlns="http://www.w3.org/2000/svg" width="256" height="256">
	<path style="fill:#fff;" d="M216 8.5108C210.867 9.44817 206.159 8.74451 201 9.08951C190.392 9.79887 179.548 11.1293 169 12.4159C136.457 16.3854 104.597 23.0909 72 25.625C57.8725 26.7233 44.1331 29.417 30 30.831C24.7747 31.3538 16.572 30.5727 12.5725 34.5725C8.7762 38.3692 10.1574 44.2811 10.7145 49C11.85 58.6182 13.3128 68.3875 14.26 78C16.0544 96.2095 15.0954 114.757 17.2855 133C17.9214 138.297 20.6993 142.056 21.838 147C22.5984 150.301 21.5086 153.701 21.3858 157C21.2534 160.555 21.9002 164.438 22.1937 168C23.0485 178.379 26.1916 188.512 26.9105 199C27.6976 210.483 27.9176 221.973 29.0656 233.285C29.5398 237.959 29.7016 244.139 34.3048 246.817C38.0488 248.996 43.0669 246.818 47 246.289C56.9817 244.944 67.0002 245.121 77 244.17C90.6211 242.874 104.367 242.726 117.961 240.783C126.281 239.594 134.687 238.901 143 237.7C146.385 237.211 149.601 235.738 153 235.414C167.685 234.015 182.418 233.684 197 230.319C204.806 228.519 213.999 225.568 221 221.637C242.785 209.406 249.499 180.192 246.715 157C245.754 148.996 241.881 141.949 240.464 134C239.344 127.722 239.595 121.28 238.7 115C236.697 100.952 233.052 86.1598 233 72C232.951 58.6022 228.602 46.149 227.174 33C226.673 28.3975 226.12 23.6227 225.899 19C225.782 16.5562 226.388 13.5304 225.386 11.2284C223.815 7.62158 219.209 7.92484 216 8.5108z"/>
	<path style="fill:#000;" d="M21 42C21 47.8906 20.1955 54.1665 20.6644 60C20.994 64.1011 23.1249 67.8336 23.3912 72C23.8347 78.9394 22.7376 86.1014 23.2948 93C25.9201 125.507 30.9119 157.877 36.5363 190C38.5294 201.384 37.4325 213.574 38.777 225C39.152 228.187 37.634 232.712 39.9529 235.397C41.9209 237.675 45.4439 236.708 48 236.439C52.7445 235.94 57.2446 235.862 62 235.209C70.829 233.996 80.1002 234.52 89 233.91C100.974 233.09 113.266 231.315 125 229.255C133.669 227.734 142.349 228.09 151 227.32C154.753 226.986 158.281 225.635 162 225.184C169.915 224.225 177.07 224.734 180.2 215.999C182.187 210.454 181.867 202.636 180.176 197C178.917 192.806 175.681 187.558 178.757 183.376C181.395 179.789 186.254 178.461 190 176.462C198.948 171.688 208.076 167.234 217 162.438C222.51 159.478 227.979 157.142 231.417 151.486C234.412 146.558 230.591 140.143 230.104 135C228.555 118.616 225.785 102.362 224.666 86C223.526 69.3387 220.205 53.5187 217.435 37C216.696 32.5902 217.423 22.002 213.436 19.1937C210.096 16.8413 202.759 19.2522 199 19.7153C186.276 21.2828 173.551 21.2652 161 23.6265C148.529 25.9729 135.58 26.7316 123 28.2863C107.693 30.1781 92.4004 33.274 77 34.4969C74.621 34.6858 72.3739 33.6348 70 33.8927C66.605 34.2617 63.4346 36.0753 60 36.5455C47.1357 38.3066 33.9918 39.588 21 42z"/>
	<path style="fill:#fff;" d="M162 37C161.321 41.3135 158.75 42.8268 156.323 46.2091C153.76 49.782 152.018 53.7535 151 58C159.807 60.3237 162.396 50.1751 166 44C169.886 54.4217 172.523 65.17 175 76L167 78L167 84C172.816 83.9352 176.594 81.3411 182 79.7894C186.642 78.457 192.181 78.3803 197 78L197 72C191.649 72 187.073 72.1511 182 74C180.674 64.9822 176.365 57.4244 173.255 49C172.153 46.0144 171.511 40.8897 169.258 38.6034C167.405 36.7218 164.407 37.0285 162 37M90.0147 42.8233C78.4272 48.0003 79.9001 67.3112 81.9853 77C82.7682 80.6376 82.8553 84.2738 85.0139 87.4244C88.9064 93.1057 92.8925 100.97 100.999 97.2276C117.888 89.432 114.187 67.641 105.715 55C102.289 49.8881 98.2315 39.1522 90.0147 42.8233M130 57C130.455 62.5731 131.77 68.4104 133.17 73.8302C133.767 76.1424 135.131 78.493 134.628 80.956C134.005 84.0028 126.729 86.0824 129.086 89.4151C130.378 91.2406 133.122 90.7922 135.001 90.5702C139.897 89.9917 150.667 89.9453 154.253 86.2593C159.091 81.2863 151.329 80.2838 148.002 81.206C145.636 81.8615 143.422 82.5883 141 83C139.472 72.6098 138.342 62.2655 135.884 52C135.057 48.5456 134.161 42.2648 129.028 43.7122C124.62 44.955 121.21 52.7541 120.758 56.956C120.315 61.0701 123.819 61.5389 126.67 59.7762C127.816 59.0675 128.965 57.8508 130 57z"/>
	<path style="fill:#000;" d="M92 50C86.7579 60.2467 82.8144 74.019 93 83C93.872 71.9512 93.773 61.0577 94 50L92 50z"/>
	<path style="fill:#fff;" d="M50 64C53.833 75.3226 54.5848 88.2048 56 100C53.777 100.229 43.6423 103.188 48.6227 106.937C50.7204 108.516 59.2762 107.713 61.8302 107.147C65.3925 106.357 78.372 103.571 76.6543 98.1628C75.2924 93.8751 65.8779 98.1157 63 99C60.2588 87.873 58.987 76.2928 57.0795 65C56.6044 62.1873 56.1069 54.6358 52.0108 54.6358C49.3796 54.6358 48.5224 58.12 47.6674 60.0046C45.8594 63.9903 43.9331 68.0227 41.5756 71.7145C40.0314 74.1328 37.6341 76.869 37.8241 79.9421C38.0178 83.0757 41.2017 84.2779 43.5849 82.3773C46.2512 80.2509 46.7996 76.0658 47.7199 73C48.6244 69.9868 49.54 67.115 50 64z"/>
	<path style="fill:#000;" d="M99 60C96.2354 69.3531 97.2627 82.3186 98 92L102 93C105.846 81.6136 111.855 68.1658 99 60z"/>
	<path style="fill:#fff;" d="M184.424 96.9035C161.951 106.775 177.148 151.904 201.999 140.28C216.657 133.424 208.564 111.648 200.363 102.228C197.475 98.9107 188.728 95.0132 184.424 96.9035z"/>
	<path style="fill:#000;" d="M191 104C188.839 104.711 186.178 105.098 184.393 106.6C174.175 115.195 183.946 126.872 188 135C192.896 128.843 189.637 120.333 190.043 113C190.214 109.911 191.538 107 191 104z"/>
	<path style="fill:#fff;" d="M134 124L140 124L142 118C144.987 125.976 146.783 137.414 146.822 145.957C146.837 149.385 141.106 152.322 143.712 155.654C146.158 158.782 149.66 155.827 152.285 154.814C155.104 153.727 158.111 154.284 161 153.582C164.81 152.656 168.277 150.29 172 149C169.711 142.173 159.034 146.866 154 148C153.497 140.084 151.098 131.939 150 124C149.404 119.69 149.477 113.15 147.294 109.314C145.52 106.196 141.367 106.963 139.329 109.344C135.665 113.624 134.061 118.485 134 124z"/>
	<path style="fill:#000;" d="M196 110C196 119.127 194.245 127.531 198 136C208.944 132.546 201.986 115.146 196 110z"/>
	<path style="fill:#fff;" d="M105 112C101.842 118.059 96.1039 123.094 94.4182 130C92.5277 137.746 96.6058 154.341 103.11 159.348C106.307 161.809 110.126 162.044 114 161.948C116.76 161.88 120.118 162.066 122.39 160.233C126.636 156.808 126.919 150.941 127.576 146C128.957 135.61 126.164 118.699 115.826 113.417C112.482 111.709 108.642 112.002 105 112z"/>
	<path style="fill:#000;" d="M108 119C105.6 121.452 102.903 123.904 101.318 127C97.8073 133.856 99.1121 146.835 106 151C106.107 145.044 105.738 138.89 106.579 133C107.201 128.651 109.274 123.195 108 119z"/>
	<path style="fill:#fff;" d="M63.0046 121.082C57.8601 123.341 56.3952 129.141 55 134C53.6723 138.624 51.715 144.135 52.3688 149C54.0214 161.297 66.8767 175.741 79.9992 170.081C96.2216 163.083 90.043 139.202 80.9043 129.004C77.2408 124.916 69.0146 118.442 63.0046 121.082z"/>
	<path style="fill:#000;" d="M115 121C112.542 132.916 110.745 143.851 113 156C118.41 155.145 119.453 151.949 120.73 147C123.328 136.927 120.67 129.425 115 121M70 163C68.0767 155.982 68.4225 147.22 69.2855 140C69.6377 137.054 71.5886 131.392 69.1682 128.942C64.3028 124.017 59.8903 132.211 58.8781 136C56.2172 145.96 60.145 158.735 70 163M76 134C75.5486 139.719 74.9334 145.234 75.0039 151C75.073 156.657 76.203 160.623 74 166C90.2697 164.507 83.665 141.554 76 134M236 161C225.573 168.373 215.48 174.365 204 180.086C199.755 182.202 192.423 183.677 190.028 188.059C187.23 193.177 190.344 198.815 190.701 204C191.051 209.084 189.991 215.991 189 221C212.647 217.816 232.932 203.838 236.579 179C237.399 173.41 238.224 166.297 236 161z"/>
	<path style="fill:#fff;" d="M101 191L108 191C108.218 186.957 109.663 183.765 111 180C116.563 191.364 116.522 204.235 120 216C118.09 216.479 115.16 216.669 113.621 218.008C111.728 219.657 112.867 222.183 115.149 222.553C117.679 222.964 120.591 221.442 123 220.829C128.681 219.382 135.604 219.565 140.891 217.005C144.108 215.448 146.066 210.165 140.941 209.823C136.646 209.537 128.755 212.965 125 215C124.996 208.587 122.599 204.09 121.494 198C120.092 190.275 121.307 180.11 116.062 173.319C113.692 170.249 109.815 171.432 107.727 174.148C104.48 178.371 101.17 185.709 101 191M72 180.833C65.1081 181.045 60.9276 190.289 59.8588 196.001C59.2383 199.317 57.6812 202.587 57.8287 206C58.2634 216.059 66.082 227.462 77 226.931C86.7708 226.455 90.0505 216.289 91.0162 208.285C91.98 200.297 93.5822 191.592 85.8256 186.283C83.7233 184.844 81.3319 184.132 79 183.181C76.7593 182.268 74.5064 180.755 72 180.833z"/>
	<path style="fill:#000;" d="M69 217C70.2162 207.019 72.6414 197.389 76 188C64.595 188.937 63.5712 197.102 64.9113 206.91C65.4698 210.998 65.406 214.445 69 217M81 192C77.8138 201.776 75.8714 210.926 74 221C86.2055 220.18 91.786 198.052 81 192z"/>
</svg>