<?xml version="1.0" encoding="utf-8" standalone="yes"?>
<svg xmlns="http://www.w3.org/2000/svg" width="256" height="256">
	<path style="fill:#fff;" d="M172 20L172 28L180 28L180 44L164 44L164 52L148 52L148 60L140 60L140 68L132 68L132 116L124 116L124 124L116 124L116 132L108 132L108 140L100 140L100 148L92 148L92 156L84 156L84 164L76 164L76 172L68 172L68 180L60 180L60 188L52 188L52 196L44 196L44 204L36 204L36 228L44 228L44 236L60 236L60 228L68 228L68 220L76 220L76 212L84 212L84 204L92 204L92 196L100 196L100 188L108 188L108 180L116 180L116 172L124 172L124 164L132 164L132 156L140 156L140 148L148 148L148 140L156 140L156 132L188 132L188 124L204 124L204 116L212 116L212 100L220 100L220 52L212 52L212 36L204 36L204 28L196 28L196 20L172 20z"/>
	<path style="fill:#000;" d="M140 68L140 124L124 124L124 132L116 132L116 140L108 140L108 148L100 148L100 156L92 156L92 164L84 164L84 172L76 172L76 180L68 180L68 188L60 188L60 196L52 196L52 204L44 204L44 228L60 228L60 220L68 220L68 212L76 212L76 204L84 204L84 196L92 196L92 188L100 188L100 180L108 180L108 172L116 172L116 164L124 164L124 156L132 156L132 148L140 148L140 140L148 140L148 132L140 132L140 124L188 124L188 100L172 100L172 84L156 84L156 68L140 68z"/>
</svg>