<?xml version="1.0" encoding="uft-8" standalone="yes"?>
<svg xmlns="http://www.w3.org/2000/svg" width="256" height="256">
	<path style="fill:#fff;" d="M210 14C207.996 18.4718 204.009 19.7976 201.031 23.3897C195.075 30.5725 189.653 38.9034 182 44.5015C179.453 46.3649 169.219 50.5101 173.786 55.2184C175.368 56.849 178.003 56.3026 180.001 56.1505C185.392 55.7399 190.603 54.149 196 54.0147C201.424 53.8797 206.683 54.266 212 53C213.113 61.2226 214.188 70.706 218 78C213.171 79.1471 209.425 82.0164 204.83 83.5162C192.604 87.5067 180.63 92.0135 168 95.3943C163.263 96.6623 152.906 95.8437 150.603 101.147C148.824 105.247 150.896 109.844 150.951 114C151.012 118.66 149.178 123.31 149.133 128C149.1 131.477 150.771 134.564 151.012 138C151.886 150.467 151.693 162.496 152.015 175C152.179 181.394 153.397 187.531 153.022 194C152.726 199.116 151 203.761 151 209C151 212.921 152.061 217.14 151.647 221C151.135 225.785 148.295 230.034 148.229 234.995C148.189 238.007 149.661 240.704 153.004 240.704C156.315 240.704 158.424 237.884 159.347 234.995C161.339 228.761 159.786 221.486 161.255 215C162.454 209.705 161.729 204.366 161.974 199C162.395 189.768 163.932 180.296 162.816 171C162.279 166.529 160.01 162.436 159.465 158C158.949 153.801 160.095 149.272 159.985 145C159.891 141.352 158.303 137.987 158.203 134.424C158.125 131.659 158.936 128.801 159 126C162.782 129.374 166.992 135.631 172 136.998C180.623 139.35 183.628 124.853 184 119C187.313 121.344 190.821 126.516 195 127.119C203.648 128.367 207.779 112.756 210 107C210.64 108.955 211.037 111.127 211.924 112.99C212.562 114.33 213.423 115.647 214.483 116.694C223.976 126.081 228.053 107.784 236 105C236.369 109.681 237.275 114.257 236.946 118.985C236.494 125.482 234.773 131.263 235.019 138C235.157 141.796 236.689 145.236 236.946 149C237.817 161.76 238.148 175.23 237.996 188C237.788 205.459 235.768 222.603 239 240L245 240C246.913 229.7 247.869 218.472 246.896 208C246.395 202.614 244.154 197.5 244.18 192C244.199 187.931 245.861 184.083 245.946 180C246.166 169.479 244.75 158.526 244.209 148C243.87 141.397 245.424 134.737 244.946 128.039C244.745 125.224 243.455 122.742 243.129 119.961C242.122 111.384 243.636 102.589 243.196 94C242.918 88.5637 243.044 84.2902 237 83C239.196 73.9632 231.609 76.7098 226.133 74.3966C223.815 73.4175 222.743 71.2186 221.88 68.9954C219.3 62.3425 219.324 54.9427 217.964 48C217.228 44.2457 215.421 40.8419 215.094 37C214.436 29.2749 215.427 21.686 214 14L210 14z"/>
	<path style="fill:#000;" d="M184 50C189.76 50.9167 194.403 48.7666 200 48.1289C202.627 47.8295 206.155 48.5649 208.4 46.821C210.488 45.2002 210.547 41.3887 211 39C208.362 35.5181 209 31.2392 209 27C203.725 28.5799 200.975 32.1292 196.985 35.7153C192.169 40.0446 186.783 44.0321 184 50M175 130C178.408 124.392 177.297 118.816 179.383 112.966C180.119 110.901 181.621 109.118 184.029 109.431C189.828 110.184 192.99 118.956 199 121C202.126 112.715 202.037 102.356 213 102C213.513 104.579 217.063 114.355 221.16 111.11C223.092 109.579 223.242 106.153 224.442 104.105C226.786 100.105 230.704 99.2233 235 99C234.064 94.1724 232.938 89.8844 234 85C228.096 85.5878 222.695 88.008 217 89.51C206.786 92.204 197.026 94.6616 187 98.0255C180.965 100.05 173.547 99.6886 168 102.843C165.492 104.269 162.666 106.358 160.819 108.594C153.204 117.813 167.353 127.422 175 130z"/>
	<path style="fill:#fff;" d="M13 144C20.5894 143.937 27.5454 141.321 35 140.206C49.2747 138.07 63.6408 135.79 78 134C77.9965 128.685 76.7652 123.265 77.2886 118C77.5071 115.802 78.4749 112.671 76.3927 111.032C72.5124 107.976 64.9238 112.806 61 113.831C49.0389 116.954 37.2274 118.934 25 120.7C21.0625 121.268 14.6559 120.509 11.608 123.639C9.54929 125.753 10.6938 128.554 11.2909 131C12.3094 135.172 12.6621 139.719 13 144z"/>
	<path style="fill:#000;" d="M54 121C55.488 124.986 56.8744 128.72 57 133C60.7057 132.041 67.5857 131.85 69.9722 128.487C71.9838 125.652 71 120.301 71 117C65.2213 118.137 59.906 120.726 54 121M33 125L38 135C42.3776 133.77 46.4456 133.038 51 133C50.1457 130.68 49.5212 126.56 47.412 125.042C44.4146 122.886 36.5637 124.7 33 125M16 127C16.916 129.39 17.5032 134.436 19.6026 135.933C22.1177 137.726 28.0015 136.025 31 136C29.9839 132.706 29.0671 129.455 29 126L16 127z"/>
	<path style="fill:#fff;" d="M19 206C21.0064 209.611 23.2093 213.984 27.0394 215.971C35.7437 220.488 39.7176 210.946 39 204C42.6544 207.194 45.1257 212.246 49.2608 214.785C59.2225 220.904 65.9799 209.36 68 201C75.6439 204.935 92.159 222.297 96.4668 205.004C96.959 203.028 96.957 201.019 97 199C102.383 201.571 103.396 208.352 108.325 210.712C110.164 211.593 111.947 210.918 113.316 209.551C115.111 207.758 116.027 205.187 117.694 203.26C120.565 199.941 123.33 198.598 124 194C117.612 194.279 113.152 196.045 109 201C107.538 198.567 106.712 197.823 104 197C103.805 193.091 99.4101 190.282 95.7022 193.029C93.3169 194.795 92.8988 198.607 91.1466 200.926C90.0788 202.339 88.8053 203.576 86.9599 203.763C79.4168 204.529 69.1264 190.054 62.0856 198.514C60.7979 200.061 60.3026 202.197 59.4869 203.999C58.4111 206.376 57.0991 208.635 56 211L54 211C52.0841 206.385 44.0238 192.513 37.3441 196.083C33.1751 198.311 31.6391 207.733 31 212C27.0102 209.166 24.0795 203.921 19 204C19.4659 198.097 20.3982 192.873 19 187C33.3315 185.869 47.6534 184.438 62 183.514C66.031 183.254 69.9481 184.23 74 183.711C85.5417 182.23 96.3762 181.47 108 180.961C114.892 180.659 121.136 179.366 128 181C124.732 192.051 126.155 202.214 125.684 213.424C125.345 221.475 121.905 229.053 121.2 236.999C120.789 241.632 124.495 247.432 129.427 243.254C131.551 241.455 131.905 238.528 132.576 236C134.686 228.049 134.092 220.456 134.304 212.424C134.621 200.382 135.267 188.012 134.617 176C134.449 172.886 132.788 170.162 132.803 167C132.859 155.695 134.999 144.353 135 133C129.772 133.001 125.096 134.34 120 134.701C114.026 135.125 104.111 132.265 100.653 139.109C97.5263 145.295 100.091 155.203 99.9961 162C99.9376 166.193 99.4714 170.257 94.956 171.771C88.7226 173.861 81.4779 171.52 75 172.171C69.7822 172.695 65.9178 175.619 61 176.698C53.5806 178.325 44.5844 177 37 177C30.3167 177 17.1448 176.178 12.5995 182.148C8.61489 187.382 10.1314 196.034 10.8449 202C12.0512 212.086 11.4067 222.815 10.9606 233C10.7634 237.503 8.26022 244.608 11.858 248.396C15.1333 251.844 18.9214 248.277 20.0802 244.981C22.2822 238.717 21 230.557 21 224C21 217.707 19.613 212.158 19 206z"/>
	<path style="fill:#000;" d="M126 170C126.03 159.302 130.325 149.494 129 139C122.146 138.428 109.452 138.177 105.457 145.133C103.317 148.859 104 153.882 104 158C104 161.278 102.87 167.597 105.742 169.976C110.538 173.948 120.425 170.016 126 170z"/>
	<path style="fill:#fff;" d="M169 151L169 153C171.201 153.481 171.799 153.481 174 153L174 151C171.799 150.519 171.201 150.519 169 151M222 158L222 162L226 162L226 158L222 158M181.622 205.028C178.259 207.703 183.625 211.163 186.378 208.972C189.741 206.297 184.375 202.837 181.622 205.028M43 224L43 231L49 231L49 224L43 224M93.6034 235.082C91.1317 236.872 93.9181 240.713 96.3966 238.918C98.8683 237.128 96.0819 233.287 93.6034 235.082z"/>
</svg>