<?xml version="1.0" encoding="utf-8" standalone="yes"?>
<svg xmlns="http://www.w3.org/2000/svg" width="256" height="256">
	<path style="fill:#fff;" d="M54.0039 29.483C41.4426 32.2336 42.5848 46.1528 41.9105 56C41.6327 60.0562 40.7864 63.9027 41.1698 68C41.453 71.0276 42.0799 73.9372 41.9066 77C41.2199 89.1359 41.9707 100.903 41.9707 113C41.9707 118.36 40.4001 123.622 40.5941 129C40.9111 137.788 42.9961 146.289 43 155C43.0041 164.017 41.909 173.087 42.0185 182C42.0721 186.363 43.2269 190.631 43.2145 195C43.2039 198.745 41.7033 202.22 42.3333 206C44.6273 219.764 58.0371 229.979 72 227.529C77.4968 226.564 85.0855 224.697 89.9961 222.08C93.0116 220.473 95.2191 217.795 98.1698 216.149C110.561 209.236 123.952 203.785 136 196.067C146.425 189.389 156.386 182.233 167 175.933C170.456 173.881 173.289 171.018 177 169.363C189.286 163.886 200.358 158.399 209.285 148.17C212.822 144.116 216.334 140.641 216.895 135C217.419 129.731 217.7 121.981 214.836 117.3C209.745 108.982 197.451 104.665 189.715 99.2739C186.378 96.9495 182.529 95.7988 179 93.8264C169.687 88.6209 160.553 83.0792 151 78.3897C147.154 76.5018 142.734 75.9905 139.039 73.7762C131.331 69.1563 124.789 63.5285 117.791 58.1042C108.142 50.6252 96.5455 43.8257 86 37.6667C75.6398 31.6158 66.6153 26.7214 54.0039 29.483z"/>
	<path style="fill:#000;" d="M51 42C51.8726 46.7001 52 51.2306 52 56C61.7344 58.8126 62.4887 66.7494 69.1844 72.9599C74.9322 78.2912 78.9885 84.1895 84.3218 89.7909C97.1801 103.296 110.106 117.685 124 130C133.657 116.831 149.721 108.167 158 94C143.673 87.7125 130.963 78.5163 118 70.01C108.962 64.0793 99.1379 59.4505 90.4244 52.9205C79.0327 44.3836 65.0373 34.642 51 42M51 63C52.4164 70.6293 50.9079 77.4277 51.054 85C51.1578 90.3809 52.4014 95.5625 51.8958 101C51.5468 104.754 50.1096 108.189 50.0162 112C49.8483 118.855 51.7451 125.301 52.5355 132C52.8888 134.994 51.9958 137.993 52.054 141C52.196 148.334 53.0114 155.61 53 163C52.9902 169.33 51.9979 175.701 52.0826 182C52.1199 184.78 53.2882 187.274 53.4961 190C53.6568 192.105 51.5674 196.336 53.6389 197.863C55.1583 198.983 56.9322 197.616 57.9861 196.562C61.6586 192.889 65.8287 188.879 69.1389 184.897C80.4361 171.307 94.8734 160.792 106.039 147.128C109.355 143.07 115.763 140.634 116.893 134.996C118.377 127.585 106.385 121.545 102.155 116.961C91.0116 104.883 79.59 93.1012 68.6003 80.8341C63.13 74.728 58.6083 66.4966 51 63M128 134C134.485 143.016 144.056 151.839 151.985 159.715C154.162 161.876 156.776 166.424 160.054 166.784C163.609 167.174 167.235 163.98 170 162.205C173.502 159.958 176.901 158.614 181 158C183.562 152.873 188.303 152.21 192.985 149.521C197.633 146.85 204.383 140.14 206.146 134.996C208.919 126.907 204.968 123.237 199.424 118.196C192.885 112.249 186.212 107.077 178 103.734C174.189 102.182 168.15 99.1964 164.039 100.499C160.375 101.66 157.683 105.173 154.845 107.576C145.321 115.641 138.943 127.627 128 134M123.17 141.331C116.973 142.871 112.578 151.545 107.88 155.356C104.635 157.989 102.573 161.272 99.5324 164.076C89.7893 173.064 80.4434 182.281 71.1157 191.704C66.6876 196.177 58.7815 200.122 56.2469 206.054C52.8623 213.975 64.9214 218.595 71 217.786C77.5261 216.918 84.2226 212.882 90 209.92C103.406 203.046 115.823 195.073 128.985 187.819C135.771 184.08 147.237 180.546 151.292 173.535C153.145 170.333 150.891 167.433 148.81 165C143.527 158.823 137.619 152.071 131.867 146.425C129.846 144.441 126.355 140.54 123.17 141.331z"/>
</svg>