<?xml version="1.0" encoding="utf-8" standalone="yes"?>
<svg xmlns="http://www.w3.org/2000/svg" width="256" height="256">
	<path style="fill:#fff;" d="M131 188C138.306 195.999 146.632 202.753 153.795 210.985C158.818 216.758 164.639 225.532 172.205 228.218C176.225 229.646 179.719 225.744 182.59 223.531C189.62 218.109 198.271 211.681 196 202C201.424 198.152 197.119 193.584 192 193C191.132 185.011 185.421 181.164 180.039 175.91C175.847 171.818 172.222 166.875 169 162C178.635 164.287 185.363 159.785 194 156.372C198.22 154.704 202.71 154.635 207 153.367C211.737 151.966 216.231 149.815 221 148.382C226.422 146.753 236.221 143.798 231.485 136.285C225.768 127.215 215.84 123.487 207 118.475C197.551 113.117 189.194 105.92 179.985 100.204C173.178 95.9795 165.826 93.9482 160.17 87.9892C152.487 79.8955 142.345 76.8909 133.001 71.49C125.271 67.0223 119.346 59.4673 111.961 54.483C109.537 52.8476 106.873 52.389 104.285 51.1759C91.3538 45.1131 80.4508 36.1111 69 27.939C63.3163 23.8828 56.812 20.8984 51 16.9236C45.8716 13.4163 41.0204 12.447 35 11.7153C32.2521 11.3813 28.931 10.4729 26.4336 12.1798C22.3523 14.9694 25.4082 21.2494 26.1312 25C27.1402 30.2342 29.2936 35.1482 30.2191 40.4244C31.5941 48.2625 31.7066 56.5093 34.5556 64C37.9948 73.0427 41.999 81.4727 44.3912 91C45.7852 96.5519 45.1341 102.418 46.7847 108C49.3765 116.764 54.8179 125.099 56.7593 134C57.4773 137.292 56.6961 140.694 57.3897 144C59.0098 151.722 62.512 159.163 63.8056 167C64.6116 171.883 64.2871 177.255 65.6373 182C67.563 188.768 71.4571 195.257 73.7716 202C77.2365 212.095 79.3921 222.6 81.6404 233C82.3951 236.491 82.5348 242.622 86.3025 244.397C93.9551 248 98.4084 238.883 101.835 234C103.801 231.198 106.435 228.893 108.263 226C109.846 223.496 110.371 220.62 112.275 218.285C119.72 209.153 129.652 200.489 131 188z"/>
	<path style="fill:#000;" d="M36 23C38.7322 32.5796 39.1476 42.404 41.6096 52C43.5371 59.5132 47.8125 66.3873 49.5409 74C50.7949 79.523 49.808 85.4992 51.0077 91C52.7612 99.0395 57.4801 107.318 60.5 115C61.9302 118.638 61.6306 122.303 62.6335 126C63.844 130.462 66.3022 134.583 67.4468 139.039C69.8342 148.336 69.0326 158.837 71.571 167.965C72.2972 170.576 74.1435 172.601 75.1404 175.09C77.5809 181.18 79.6079 187.742 81.642 194C85.4991 205.867 88.0083 218.212 92 230L94 230C101.105 215.41 112.087 203.462 121.063 190C124.591 184.709 130.502 178.045 137.91 181.282C144.558 184.186 146.604 191.708 150.72 196.83C154.981 202.133 160.636 205.644 165.985 209.633C169.428 212.201 172.786 218.273 177.626 214.971C181.232 212.512 188.994 204.758 188.283 200.042C187.68 196.043 182.5 192.809 179.954 189.985C175.001 184.49 171.719 177.864 167.24 172.015C165.07 169.181 159.627 165.941 159.832 161.99C160.13 156.229 167.645 154.496 172 153.338C176.072 152.255 179.845 150.253 184 149.468C188.073 148.698 192.041 149.003 196 147.535C203.393 144.795 210.444 139.939 218 138C212.686 131.274 202.35 127.686 195 123.405C188.751 119.766 183.895 114.506 177.91 110.63C170.603 105.898 162.515 102.15 155.004 97.7377C145.903 92.3914 138.645 83.8531 129.91 78.0455C125.569 75.1591 120.449 73.6411 116 70.9321C110.433 67.5424 105.489 63.2557 100 59.7994C90.2279 53.6466 79.7531 48.4115 69.9961 42.4406C64.2277 38.9105 59.6198 33.6822 54 29.9537C48.3819 26.2264 42.4232 24.7001 36 23z"/>
</svg>