<?xml version="1.0" encoding="utf-8" standalone="yes"?>
<svg xmlns="http://www.w3.org/2000/svg" width="256" height="256">
	<path style="fill:#fff;" d="M199 127C202.502 132.691 206.201 142.348 207.08 149C207.741 154.004 207.34 158.993 208.525 164C212.675 181.543 219.347 198.648 224.265 215.985C226.278 223.081 228.087 229.128 230.888 235.971C232.308 239.439 235.732 242.39 239.566 239.817C242.504 237.846 241.988 233.799 240.772 231C238.242 225.178 233.224 220.641 230.637 214.91C228.136 209.367 229.654 202.854 228.08 197C223.462 179.822 217.35 162.648 214.915 145C212.525 127.675 204.356 110.583 198.54 94C196.908 89.3468 197.202 84.6094 195.857 80C192.577 68.7556 187.401 57.8916 183.387 46.9606C182.078 43.3948 182.198 39.6332 181.236 36C180.445 33.0137 178.786 30.2949 178.123 27.2855C177.298 23.5364 178.26 19.313 174.722 16.6188C168.766 12.0831 167.988 20.5739 165.4 23.348C162.662 26.2831 153.995 30.7941 150 30.6821C137.822 30.3407 126.561 24.4696 115 21.598C94.1715 16.4243 69.317 18.2111 51.0895 30.463C42.7005 36.1018 35.9031 43.1994 30.9414 52C28.7024 55.9713 27.6597 60.1978 25.0486 64.0394C21.427 69.3675 14.734 75.031 15.1929 82C15.6371 88.746 20.3313 92.259 22.4869 98.0895C24.2276 102.798 22.6035 108.123 24.2485 113C26.9743 121.081 32.655 128.818 34.7477 136.961C35.5899 140.238 34.8946 143.681 35.6867 146.989C36.4765 150.288 38.6222 152.861 39.6721 156.039C41.8341 162.583 42.6114 169.567 45.0008 176C46.3068 179.517 46.822 185.871 50.2785 187.968C54.4242 190.482 58.3633 186.382 61.4244 184.1C69.3425 178.199 78.4132 173.702 85.9606 167.389C91.3909 162.847 97.0729 156.86 103.039 153.213C112.512 147.423 126.126 146.656 137 145.96C141.317 145.683 144.821 147.416 149 147.87C152.721 148.275 156.315 147.342 160 147.09C166.482 146.646 172.878 147.542 178.999 144.74C183.841 142.524 187.047 138.619 191.014 135.255C194.224 132.533 196.982 130.778 199 127z"/>
	<path style="fill:#000;" d="M47 44C46.3518 50.2944 48.5972 54.9984 50.1049 61C51.8575 67.9761 52.1906 74.3811 55 81C62.5414 77.1774 69.3177 71.6979 76.8302 67.7446C79.3618 66.4124 83.1241 64.0593 83.3534 60.8958C83.6419 56.9154 80.1102 53.2617 78.3519 50C75.6008 44.897 73.3706 37.7694 73 32C63.631 34.3319 55.7174 40.2153 47 44M171 32C159.074 40.1959 143.587 40.5947 130 37C132.638 43.4319 133.658 57.1 140.185 60.5664C148.733 65.1055 159.953 60.6317 168 57.4498C170.733 56.3692 175.936 55.7946 177.167 52.6968C179.122 47.7816 173.384 36.386 171 32M91 68L102 101C106.295 100.018 110.569 98.4938 115 98.2454C123.788 97.7526 133.425 98.8655 142 97C140.052 89.4725 138.039 81.3613 135.309 74C134.264 71.1848 133.824 67.1996 131.196 65.3326C128.676 63.5422 124.886 64.7903 122 64.5363C111.096 63.5768 101.701 67.9043 91 68M150 103C153.087 114.52 157.834 125.543 161 137C168.558 136.995 179.067 135.315 184.726 129.726C188.993 125.512 190.498 120.111 196 117C193.587 108.392 193.773 99.6712 191 91C185.973 92.9442 182.234 97.3366 177 98.76C168.199 101.154 158.604 100.457 150 103M52 93C47.5109 100.156 38.0784 102.499 35.6042 111C34.4423 114.992 37.2946 118.399 38.5224 122C40.2935 127.194 40.4142 132.601 41 138C43.8066 136.18 45.3976 133.259 47.9352 131.043C52.0002 127.493 60.3956 124.859 61.5972 118.985C62.6685 113.748 56.2655 106.427 54.2022 101.834C52.9132 98.9648 53.1735 95.8203 52 93M109 139C104.635 128.895 103.764 117.556 98 108C91.0197 109.502 84.3967 113.23 78 116.36C75.1917 117.734 71.6341 119.285 70.0278 122.13C66.506 128.366 71.9198 142.866 74.409 149C75.4438 151.55 76.8618 155.568 80.0941 155.897C83.3074 156.225 86.583 152.963 89 151.285C95.4796 146.79 102.209 142.964 109 139z"/>
</svg>