<?xml version="1.0" encoding="utf-8" standalone="yes"?>
<svg xmlns="http://www.w3.org/2000/svg" width="256" height="256">
	<path style="fill:#fff;" d="M79 61C73.7701 64.0423 71.7101 72.2936 70.7546 78C68.9212 88.9499 67.5769 100.479 61.5934 110C59.2658 113.704 57.8311 119.581 52.9599 120.643C49.6706 121.359 42.2222 120.631 39.2855 118.972C35.0822 116.597 33.3231 112.444 28 112.083C19.9694 111.539 9.56999 112.053 8.14429 122C7.3412 127.603 8.28157 137.332 13.2276 140.926C22.5579 147.706 41.0775 144.099 39 130C43.733 129.997 48.2975 129.247 53 129.039C56.0795 128.903 59.8659 129.56 62.6103 127.821C68.2562 124.243 70.843 115.947 72.5417 110C73.7226 105.865 75.9906 102.186 77.115 98C78.3564 93.378 78.2965 88.5519 79.4954 84C81.3503 76.957 84.6729 70.5359 84 63C89.8099 59.618 91.8647 49.3509 92 43C93.2696 47.2951 92.7573 51.5839 93.2855 56C94.3141 64.6005 95.8722 73.3276 95.9815 82C96.0277 85.6703 94.9549 89.3515 95.3403 92.9992C95.7233 96.6248 98.2015 99.5638 98.5563 103.09C99.3561 111.036 99.1913 118.96 100.615 127C101.531 132.175 103.981 136.948 104.865 142C105.615 146.288 104.423 150.729 105.568 155C108.978 167.722 114.134 180.259 117.61 193C119.397 199.547 119.043 206.402 120.68 213C122.164 218.984 125.283 224.479 127.096 230.285C128.007 233.2 126.366 236.831 128.746 239.258C131.671 242.24 138.653 241.475 141.367 238.682C147.636 232.229 151.094 221.449 153.576 213C155.32 207.061 155.65 200.878 157.443 195C158.918 190.165 161.769 185.948 162.96 181C164.926 172.827 165.579 164.254 167.361 156C171.673 136.025 176.829 116.656 177 96C180.086 102.93 182.216 110.103 185.424 117C187.057 120.512 188.719 124.626 192.13 126.772C199.094 131.153 210.087 130 218 131C220.095 147.002 244.494 148.715 248.525 133C249.367 129.721 249.695 124.293 248.397 121.104C247.255 118.3 244.425 117.043 242.208 115.231C236.574 110.624 231.2 107.834 224.329 112.995C221.653 115.004 220.288 118.023 219 121C211.996 118.93 200.959 122.058 196.275 114.786C191.032 106.646 187.474 95.3615 185.174 86C184.314 82.5012 184.454 76.3991 179.907 75.5424C175.361 74.6863 173.546 79.4129 173.09 83.0008C172.479 87.81 170.456 91.4114 169.259 96C167.974 100.928 167.648 106.092 166.392 111C164.602 117.996 164.357 125.005 162.66 132C160.387 141.375 157.024 150.418 155.439 160C151.737 182.376 148.284 206.563 136 226C134.733 222.249 133.887 217.757 132.031 214.285C130.481 211.388 128.161 209.333 127.394 205.999C126.556 202.356 127.466 198.668 127.251 195C126.937 189.66 125.528 183.151 124.062 178C122.276 171.725 117.722 166.228 116.128 160C115.158 156.207 116.242 151.895 115.906 148C115.625 144.743 114.058 142.112 113.319 139C112.549 135.761 113.074 132.299 112.561 129C111.11 119.669 107.48 110.897 105.584 101.83C105.111 99.5662 105.829 97.2804 105.737 95C105.6 91.616 104.333 88.3847 104.09 85C103.728 79.9491 104.936 75.0343 104.996 70C105.155 56.6074 104.104 43.787 100.681 31C99.5275 26.6935 101.001 19.9053 97.436 16.6042C92.8579 12.3649 89.2143 17.9207 88.4398 22.0008C85.9946 34.8817 77.7751 47.2827 79 61z"/>
	<path style="fill:#000;" d="M26 135C26.8439 133.29 28.2279 131.621 28.8603 129.826C32.6027 119.204 14.6949 119.056 18.8619 130.941C19.2883 132.158 20.2519 133.274 21.3194 133.972C22.7652 134.917 24.3561 134.873 26 135M228 122C227.688 124.816 227.358 128.202 229.014 130.721C230.787 133.42 234.885 134.426 237.062 131.667C238.707 129.582 238.793 126.515 239 124C235.108 123.909 231.739 122.989 228 122z"/>
</svg>