<?xml version="1.0" encoding="utf-8" standalone="yes"?>
<svg xmlns="http://www.w3.org/2000/svg" width="256" height="256">
	<path style="fill:#fff;" d="M147 10C144.62 22.8212 147.36 35.2979 149 48L155 48C154.911 37.2658 152 26.8233 152 16C158.124 14.9502 165.984 11.9788 172.246 13.2762C174.444 13.7317 176.151 15.4325 178.17 16.3202C183.718 18.76 189.516 20.3836 194.91 23.2863C199.834 25.9356 204.054 29.8241 209 32.436C214.156 35.1587 218.105 38.5054 223.039 41.4676C227.13 43.923 230.547 44.8437 233.367 49.0185C238.734 56.9655 236.239 67.2944 240 76C235.645 77.3708 231.487 78.3461 227 79.1698C222.893 79.9237 216.898 80.9588 213.434 83.3943C211.727 84.5945 210.556 87.4043 212.619 88.9329C214.815 90.5602 218.702 88.8061 221 88.2207C225.364 87.1091 229.597 85.5064 233.985 84.49C238.51 83.4419 242.687 83.7417 245.566 79.3812C248.662 74.6896 243.689 67.1746 243.171 62C242.633 56.633 243.113 51.8442 239.95 47.0934C233.762 37.7988 222.235 32.3223 212.985 26.7407C201.891 20.0456 190.555 10.2812 177 10L177 7C166.951 7.20741 157.043 9.56987 147 10M157 21C159.318 26.0678 163.744 29.9053 166.015 35C168.836 41.3249 168 50.2164 168 57L174 57L174 43C181.909 48.9557 192.324 53.7681 199 61C196.511 61.194 190.291 63.9266 195.323 66.3966C199.388 68.3922 204.731 65.8028 209 66.4097C214.611 67.2074 219.496 71.1369 224.995 72.3681C226.947 72.805 230.364 72.8185 230.364 69.9853C230.364 67.6166 227.777 66.8416 225.981 66.2106C221.9 64.7762 217.41 62.4929 214.304 59.3657C210.768 55.8052 212.963 49.5229 213 45L207 45C206.375 48.3632 206.028 51.5782 206 55C196.364 49.5163 187.564 45.4048 179 38L192 38L192 32C185.654 32 179.208 31.5221 173 33C169.996 27.2086 164.167 19.4219 157 21M113 49.429C87.8095 52.5179 63.9006 58.1502 43.8341 74.3673C39.4691 77.8949 34.1469 80.5851 30.6373 85.0934C22.9276 94.9969 14.8288 109.669 12.1235 122C10.019 131.592 10.453 142.226 10.2909 152C10.1416 160.999 9.26035 170.116 11.2238 179C12.9665 186.886 17.5257 194.017 21.2955 201C24.9151 207.705 27.8947 214.252 33.2994 219.871C38.4079 225.182 44.923 226.89 50.8302 230.778C56.6345 234.598 61.5293 238.82 68 241.687C86.0783 249.697 107.524 250.374 127 247.812C132.128 247.137 137.098 244.528 142 242.951C144.617 242.108 147.432 242.136 150 241.158C170.932 233.19 189.005 215.362 202.514 198.17C210.012 188.627 217.877 179.214 220.544 167C222.202 159.407 220.2 151.59 220.054 144C219.905 136.292 221.087 128.7 219.319 121C218.331 116.693 216.003 113.043 214.351 109C205.998 88.5578 192.01 72.2517 171.961 62.3264C165.9 59.3259 159.289 58.369 153 56.2006C149.603 55.0293 146.542 53.1606 143 52.3642C137.299 51.0823 131.707 51.8329 126 51.1119C121.521 50.5459 117.577 48.8677 113 49.429z"/>
	<path style="fill:#000;" d="M115 59.7099C106.738 60.5434 98.15 60.3218 90 62.1235C85.4139 63.1373 81.3411 65.6663 77 67.3858C60.9546 73.7412 42.7972 82.7644 33.3665 98.0895C21.4535 117.448 19.4355 139.123 20.6242 161C20.8657 165.445 19.5725 169.548 20.7083 174C29.2288 207.395 57.4447 234.304 92 238.173C97.0752 238.741 101.829 240.989 107 240.536C113.716 239.949 119.502 237.603 126 236.314C134.754 234.578 144.873 233.266 152.91 229.177C166.466 222.281 177.892 209.917 188.371 199.141C197.242 190.019 205.912 180.714 209.645 168C210.867 163.838 209.672 159.28 210.184 155C210.632 151.258 211.928 147.815 211.981 144C212.067 137.924 210.153 131.983 209.272 126C208.715 122.223 208.744 117.719 207.266 114.17C206.314 111.884 204.431 110.094 203.198 107.961C198.557 99.9392 194.365 92.0526 187.56 85.4676C174.537 72.8641 156.298 65.6247 139 62.1921C130.657 60.5365 123.59 58.8432 115 59.7099z"/>
	<path style="fill:#fff;" d="M119 80.5949C92.9971 81.451 64.2497 93.0817 49.3472 115.209C43.6789 123.625 41.1138 133.34 38.8657 143C38.143 146.106 36.3844 148.869 35.7978 152C34.0405 161.379 34.8001 172.889 37.6451 182C47.1194 212.343 81.8454 226.377 111 224.96C139.213 223.588 164.062 206.875 178.027 183.09C181.172 177.732 186.165 170.895 187.686 164.91C188.773 160.634 188 155.389 188 151C188 139.605 185.514 127.05 179.88 117.004C176.6 111.154 170.929 107.079 166.001 102.715C162.544 99.6531 159.691 95.775 155.91 93.108C151.032 89.6664 144.602 87.7285 139 85.7986C132.488 83.5551 126.081 80.3618 119 80.5949z"/>
	<path style="fill:#000;" d="M56 114C55.5605 122.79 49.0794 130.942 45.9267 139C42.3125 148.237 41.3062 161.187 42.1744 171C43.6325 187.481 53.8965 197.822 67.0039 206.742C72.5113 210.489 78.5367 215.45 85 217.367C94.5118 220.187 104.43 218.844 114 217.427C129.994 215.06 141.921 210.847 155 201.155C158.518 198.548 162.472 196.163 165.252 192.711C170.659 185.997 173.897 176.968 176.914 169C181.652 156.492 185.199 140.975 178.988 128C173.334 116.191 161.321 106.372 151.17 98.5941C137.386 88.0322 117.607 84.3582 101 89.6705C92.0451 92.5352 82.0666 95.3887 74 100.284C67.5743 104.183 62.25 109.78 56 114z"/>
</svg>