<?xml version="1.0" encoding="uft-8" standalone="yes"?>
<svg xmlns="http://www.w3.org/2000/svg" width="256" height="256">
	<path style="fill:#fff;" d="M47 164C36.166 163.047 30.7494 153.242 29.5594 143C29.0975 139.025 30.4136 135.03 29.7863 131C28.7085 124.077 23.6261 118.161 22.6983 111C22.3547 108.348 22.9539 105.671 22.6998 103C22.0781 96.4626 20.3095 89.5185 21.0795 82.9606C21.9137 75.8555 24.6876 69.2762 25 62C42.761 59.7534 58.8871 54.235 76 48.9884C79.5891 47.8881 83.3627 48.1544 87 47.3194C92.6643 46.0192 97.9846 43.1197 103 40.2801C109.911 36.3674 121.726 29.911 124 22C127.461 23.4368 131.004 25.322 133.505 28.2091C135.743 30.7915 136.798 34.1778 140.043 35.8056C144.543 38.0629 148.275 34.6607 147.346 29.9969C145.926 22.8645 140.035 22.39 135.594 17.8117C132.743 14.8723 130.644 10.2407 125.996 10.2168C122.077 10.1967 119.51 13.2123 116.855 15.6651C111.807 20.3286 106.565 24.7286 101.015 28.7948C83.0211 41.9765 58.4273 43.218 38 50.4552C30.7063 53.0394 20.8246 49.426 16.4329 58.0903C13.3219 64.2276 13.5477 72.3575 13.4259 79C13.3441 83.4676 11.0367 87.5356 11.213 92C11.4981 99.2215 12.7378 106.995 14.5147 114C15.3806 117.414 17.256 120.498 17.787 124C19.6862 136.526 19.7138 152.722 26.4097 163.83C28.2925 166.954 31.5406 171.076 35.0394 172.396C41.5995 174.871 46.7937 170.208 47 164M153 105C148.943 106.158 146.954 108.953 143.816 111.625C138.466 116.18 132.257 118.257 132 126C142.657 127.395 151.566 114.35 160 109C163.727 115.921 169.927 123.379 176.039 128.366C178.527 130.396 181.564 132.416 184.946 131.663C187.903 131.004 189.26 128.276 191.259 126.299C193.804 123.784 197.015 122.125 199.715 119.794C203.349 116.656 210.522 113.399 210.722 107.997C210.959 101.614 202.967 95.322 200 90C203.964 88.2185 206.637 85.2427 210.09 82.6744C220.208 75.1467 227.505 66.9956 235.431 57.2855C238.429 53.6121 242.485 50.767 245.233 46.9105C252.3 36.9926 250.075 26.2151 237 25.2508C228.939 24.6562 218.628 23.656 211.004 26.7793C206.389 28.6698 201.159 32.8914 197.259 36.0123C192.852 39.5394 188.285 43.8392 184.424 47.9614C182.177 50.3611 178.703 54.3201 175.105 54.473C172.195 54.5967 170.807 51.0548 169.552 48.9992C167.128 45.0298 163.119 32.526 157.961 32.3765C154.338 32.2716 152.535 35.4577 150.634 37.99C147 42.8321 143.213 46.4642 140.561 51.9954C138.01 57.3164 131.333 59.4385 129.738 65.0895C126.248 77.4553 139.081 85.222 145.621 93.2855C148.459 96.7845 150.531 101.204 153 105M56 162C57.1455 153.294 49.9993 144.55 48.1235 136C47.0322 131.026 47.4819 125.944 46.4861 121C45.0735 113.986 41.7687 107.182 41.3758 100C40.9838 92.836 43.4796 86.0074 41 79C52.1787 75.7809 63.2035 71.3064 74.0895 67.5556C85.8598 63.5 99.1262 60.3651 109.424 52.9198C114.179 49.4812 119.493 46.213 123.852 42.2955C125.46 40.8505 127.247 38.6431 126.338 36.3187C125.437 34.015 122.774 34.4802 120.999 35.3372C116.581 37.4707 112.542 41.9801 108.575 44.9498C92.4793 56.9996 72.0428 60.7248 53.9105 68.3272C48.746 70.4925 43.1488 68.9697 38.4745 72.7755C32.4318 77.6955 35.5183 87.3783 36.1698 94C37.0589 103.038 39.0803 112.003 39.9105 121C40.7172 129.742 40.4742 138.94 44.1644 147C47.1579 153.539 47.6421 161.722 56 162z"/>
	<path style="fill:#000;" d="M179 65C182.506 71.7946 188.686 76.7007 193 83C203.46 74.5472 213.255 65.9562 222.71 56.4105C224.792 54.3084 227.524 53.0878 229.518 50.8673C231.643 48.5004 239.126 38.7206 236.338 35.7816C233.931 33.2446 226.215 34.9494 223 35.0046C214.373 35.1527 210.242 39.5186 203.985 44.4599C195.578 51.0994 187.98 59.0626 179 65M156 42C153.539 46.5873 151.915 52.8461 151 58C154.64 60.2832 157.624 66.1727 159.698 69.9992C160.462 71.4102 161.73 73.8239 160.268 75.2492C158.49 76.9816 155.871 74.546 154.62 73.3611C150.822 69.7669 148.639 65.1224 148 60C145.262 62.3931 141.091 66.0562 140.944 70C140.806 73.6665 144.776 78.1033 146.734 81C150.72 86.8969 155.793 91.5085 160.177 97.0147C163.734 101.481 165.977 106.704 170.171 110.7C176.043 116.295 181.635 120.97 189 116C186.585 111.541 183.186 108.046 182 103C180.595 102.32 174.097 97.9931 178.372 96.3457C181.941 94.9702 188.646 104.61 191.285 106.602C192.621 107.611 194.69 108.974 196.379 107.863C197.991 106.803 197.392 104.552 196.664 103.165C194.555 99.1494 190.487 95.7885 187.888 92C185.045 87.8553 183.274 83.0745 180.363 79C176.102 73.0372 170.393 68.2575 166.465 62C162.651 55.9252 160.733 47.0289 156 42z"/>
	<path style="fill:#fff;" d="M62 95C59.7045 93.8044 56.8094 91.7293 54.1096 91.8488C50.457 92.0104 50.1158 96.1656 52.4491 98.2623C55.0636 100.612 59.6838 100.736 63 101C63.2607 104.197 63.8744 106.997 65 110L58 110L58 116C61.1754 116.002 64.9466 115.514 67.6103 117.6C70.5591 119.908 71.6304 124.098 75.9606 124.458C82.0083 124.96 79.8981 118.505 76 117L82 115C84.5562 119.79 89.4984 125.113 95 126C94.5782 120.404 91.0868 117.404 88 113L96 110L96 106C92.2479 106.306 88.6796 107.241 85 108L84 102C92.6606 100.833 104.37 98.1147 106 88C101.107 88.3683 98.4256 91.3654 94 92.9684C90.0188 94.4104 85.1902 94.4704 81 95C80.98 91.3866 81.6612 86.5836 80.6574 83.1096C80.0667 81.0651 77.6719 79.5413 76.0278 81.6227C72.4957 86.0939 81.5026 95.3472 72.0255 96.196C70.7564 96.3096 69.2603 96.069 68 96C68.01 92.3909 70.2932 84.5298 67.973 81.6227C66.2481 79.4615 63.9706 81.1885 63.2284 83.1489C61.8463 86.7992 62.0106 91.1646 62 95M224.029 82.9707C217.676 84.3746 220.935 90.8692 220.637 95C220.44 97.7206 219.242 100.248 219.054 103C218.552 110.351 220.25 118.097 217.015 125C214.87 129.578 213.775 134.54 211.61 139C207.92 146.605 203.004 153.57 199.16 161C198 163.24 197.681 165.783 196.265 167.91C192.335 173.819 186.563 178.079 181.898 183.224C170.305 196.008 158.864 209.55 145 219.764C141.348 222.454 134.518 226.503 132.194 230.389C130.292 233.57 132.337 237.442 136.044 237.559C139.465 237.666 142.494 235.228 145.285 233.59C154.342 228.277 160.18 220.67 167.184 213.039C171.603 208.225 177.133 204.663 181.711 200.046C197.66 183.962 212.187 164.026 220.789 143.285C222.405 139.388 225.261 136.103 226.437 132C227.534 128.171 229.177 123.074 228.853 119.09C228.57 115.614 227.065 112.586 227.005 108.999C226.924 104.174 226.387 98.7556 227.274 94C227.655 91.954 228.848 90.0748 229.088 88.0154C229.43 85.0748 227.176 82.2751 224.029 82.9707M24 232C27.8655 228.326 32.7505 225.697 36.4151 222.085C38.9649 219.571 40.0177 215.837 42.6698 213.235C45.0167 210.932 48.0673 209.62 50.5718 207.507C56.6466 202.383 61.6937 196.379 68.0247 191.445C70.4279 189.572 83.7531 180.788 77.5509 177.287C72.6788 174.537 63.8177 184.682 61.1427 187.846C53.0408 197.429 41.7346 204.005 32.5718 212.429C30.3247 214.495 29.7568 217.547 27.6867 219.741C25.5873 221.966 22.553 223.366 20 225C19.9248 221.695 19.4 218.099 20.7176 214.961C22.8942 209.776 28.0783 206.959 31.6713 202.91C36.5007 197.469 40.4874 192.523 45.9606 187.625C48.9846 184.919 50.8767 181.306 53.7685 178.479C57.5833 174.75 62.7525 173.052 66.8302 169.661C71.2388 165.995 74.0142 161.147 78.1327 157.375C81.3189 154.457 85.3685 152.602 88.7145 149.869C98.4633 141.905 107.752 132.811 115.799 123.224C118.2 120.364 122.072 119.285 124.996 117.025C129.004 113.93 132.065 109.892 136.014 106.745C139.211 104.198 144.341 100.957 143.458 96.1088C142.476 90.7224 136.099 92.4935 133.015 94.6528C123.535 101.288 114.857 110.629 106.374 118.465C100.606 123.794 95.4926 130.119 89.625 135.272C87.0663 137.518 83.7609 138.744 81.4144 141.259C77.986 144.935 75.7913 149.393 71.8302 152.712C69.5346 154.636 66.6586 155.532 64.2855 157.339C61.0646 159.791 57.204 162.46 54.4144 165.375C52.3477 167.534 51.2235 170.281 48.8673 172.211C36.677 182.197 23.2884 191.453 13.4336 204.09C10.3686 208.02 11.427 212.424 10.7909 217C9.78688 224.222 5.27524 233.611 7.3179 240.891C8.76791 246.059 15.0503 244.598 19 243.78C28.8259 241.745 42.4952 239.425 50.3704 232.895C66.3685 219.629 78.537 202.737 94.054 188.885C97.4569 185.847 101.629 183.972 104.985 180.892C108.196 177.946 110.587 174.103 114.039 171.43C116.734 169.343 120.198 168.75 122.826 166.57C128.593 161.789 134.973 154.207 139.17 148.035C144.715 139.882 153.879 135.018 159.606 127C161.388 124.506 165.072 118.699 161.397 116.068C157.951 113.601 153.301 118.114 151.08 120.289C142.977 128.229 135.938 136.898 128.296 145.17C122.358 151.597 117.141 158.446 110.385 164.164C106.914 167.102 102.609 168.765 99.0147 171.495C89.8075 178.485 81.9546 187.636 73.7407 195.625C71.0116 198.279 67.7306 200.206 65.1042 203.015C54.7149 214.129 40.8032 231.466 24 232z"/>
	<path style="fill:#000;" d="M69 102C69.3667 103.938 69.564 106.083 70.2284 107.946C74.3341 119.461 86.4359 102.968 74.0054 101.513C72.3307 101.317 70.6383 101.731 69 102M66 111L67 112L66 111z"/>
	<path style="fill:#fff;" d="M200 123C198.021 136.211 192.074 149.854 183.562 160C181.286 162.713 178.225 167.559 174.83 168.897C169.517 170.991 163.77 159.539 158.785 164.758C156.464 167.188 158.765 172.101 158.961 175C159.51 183.13 160.543 190.423 152.79 195.929C150.459 197.584 147.752 198.46 145.553 200.359C143.849 201.83 142.566 203.667 140.737 205.009C132.296 211.206 113.077 225.186 105 211C97.085 209.566 93.4395 201.871 85 203C85.0721 205.169 84.9502 207.369 86.6034 209.032C88.567 211.006 91.6106 211.538 93.9606 212.904C101.093 217.048 113.01 226.682 121.83 224.672C126.04 223.713 130.594 219.928 134.17 217.575C141.413 212.809 148.497 207.555 155.285 202.144C158.671 199.445 163.893 197.187 165.432 192.826C167.472 187.049 165.257 178.983 165 173C166.031 174.15 166.943 175.344 168.223 176.242C177.308 182.608 180.667 174.184 185.95 168C190.603 162.553 193.515 156.256 196.887 150C201.62 141.216 205.915 133.24 206 123L200 123M120.219 130.047C115.766 132.523 111.519 139.899 108.24 143.831C104.005 148.909 98.1981 152.596 94.3079 158.003C92.3197 160.766 92.0554 165.849 96.9799 164.338C99.8932 163.444 101.86 160.415 104.09 158.513C110.469 153.071 114.522 147.603 119.608 141.039C121.241 138.931 123.734 137.228 124.954 134.835C126.71 131.389 123.777 128.068 120.219 130.047M85.3032 168.086C82.1166 169.97 84.2524 174.951 87.6968 172.914C90.8834 171.03 88.7477 166.049 85.3032 168.086M76.2284 217.785C69.0032 220.662 76.9573 227.645 80.0039 229.806C88.5875 235.892 98.5352 238.535 108 242.792C111.308 244.28 116.06 247.325 119.682 244.968C122.647 243.039 122.314 238.12 119.566 236.175C117.682 234.841 115.069 234.829 113 233.843C104.622 229.853 96.0636 226.026 87.8696 221.59C84.6954 219.872 80.0115 216.279 76.2284 217.785z"/>
	<path style="fill:#000;" d="M19.3333 225.667C19.2778 225.722 19.2222 226.778 19.6667 226.333C19.7222 226.278 19.7778 225.222 19.3333 225.667z"/>
</svg>