<?xml version="1.0" encoding="utf-8" standalone="yes"?>
<svg xmlns="http://www.w3.org/2000/svg" width="256" height="256">
	<path style="fill:#fff;" d="M125 72C118.438 69.231 113.316 71.0374 106.576 71.1242C92.3838 71.307 78.1329 71.7407 64 71.9452C55.8203 72.0636 48.9436 67.4249 41.4637 73.3048C35.4699 78.0165 32.475 84.8049 28.4198 91C25.1063 96.062 20.5572 101.112 17.838 106.464C16.4208 109.253 16.0985 112.191 14.2361 114.83C11.2407 119.075 3.48268 125.746 7.18287 131.606C10.6051 137.026 22.5336 134 28 134C27.7176 147.681 25.3269 161.358 25.0147 175C24.8542 182.009 27.1779 189.043 26.5355 196C25.7845 204.134 21.5351 217.359 30.3758 222.821C34.8008 225.555 40.3454 222.302 45 222.043C50.6731 221.728 55.4894 223.383 61 223.896C66.5915 224.416 72.3858 224 78 224C77.9889 228.027 75.5718 236.153 79.4344 238.821C82.1797 240.717 85.9803 239.641 89 239.285C93.6214 238.742 98.354 239 103 239C121.09 239 139.027 242.797 157 241.25C161.348 240.876 166.858 241.966 170.941 240.258C179.198 236.803 170.152 223.443 180.019 222.162C183.771 221.675 187.34 223.361 191 223.816C197.634 224.642 204.499 223.766 211 224.819C216.742 225.749 224.815 227.807 229.682 223.347C232.319 220.931 231.902 217.527 231.861 214.285C231.776 207.629 231.823 201.546 230.633 195C229.251 187.392 231 177.842 231 170C231 158.836 229.204 148.269 230 137C233.048 136.992 235.977 136.828 239 136.424C246.291 135.452 253.911 131.416 250.412 122.285C248.865 118.249 244.88 115.214 242.255 111.911C238.239 106.857 234.747 101.072 230.95 95.831C228.163 91.9839 224.412 88.1043 222.135 83.9853C220.838 81.6391 220.582 78.597 218.487 76.7415C213.27 72.1207 203.49 72.0733 197 71.9961C184.165 71.8434 171.323 72.1503 158.424 72.1512C150.866 72.1518 142.279 70.8484 135 73C135 69.083 133.607 61.7789 136.028 58.473C137.806 56.0453 141.425 56.9371 144 56.6752C151.076 55.9555 157.134 50.9886 164 50.3356C168.567 49.9013 174.235 55.5448 178.397 51.3966C180.269 49.5299 179.983 46.415 179.999 44C180.042 37.7869 180.599 31.1894 179.891 25.0147C178.436 12.3109 161.427 13.8972 153 17.7076C149.792 19.1583 146.695 22.1217 143 22.0725C138.006 22.0061 131.539 14.0455 126.742 18.7461C124.001 21.4323 124.965 27.4871 124.59 31C124.051 36.0522 125.478 40.9518 125.316 46C125.219 49.0473 124.115 51.9287 124.019 55C123.842 60.6783 124.996 66.3016 125 72z"/>
	<path style="fill:#000;" d="M133 30C134.494 34.0988 133.49 42.13 136.028 45.2577C138.368 48.1427 143.203 46.4401 146 45.3812C154.253 42.257 160.9 37.8394 170 40C170.002 36.5603 171.515 30.4342 169.731 27.4336C167.453 23.6003 162.084 25.5687 159 26.9236C149.826 30.9544 142.708 34.1404 133 30M20 126C30.5889 126.425 41.4425 126.142 52 125.157C60.5511 124.359 69.5239 122.982 78 125C78.49 121.126 78.5549 116.256 81.3179 113.228C84.0979 110.18 88.6801 109.327 92 106.946C96.1287 103.985 99.2124 99.9511 103.209 96.9614C110.006 91.8775 116.27 89.5573 121 82C104.878 79.0069 88.2366 82.1847 72 80.8264C65.0424 80.2444 55.7131 77.3205 49.1698 81.0239C40.8099 85.7554 37.8611 96.6949 32.5448 104C27.5654 110.842 20.2135 117.172 20 126M137 82C141.585 90.1415 151.454 97.6121 159 103.026C166.182 108.18 173.722 112.252 172 122C178.037 123.785 184.739 123.583 191 124.169C207.709 125.733 223.224 126.72 240 126C236.135 118.883 231.326 113.39 226.546 107C222.789 101.978 220.201 96.2836 216.787 91.0895C214.367 87.4076 210.902 85.0504 209 81C200.738 82.9671 193.189 81.0488 185 80.8302C182.303 80.7583 179.716 81.8514 177 81.882C163.666 82.032 150.322 81.9912 137 82M88 229L114 229C115.4 221.458 115.169 213.654 114.985 206C114.922 203.383 113.485 198.76 115.643 196.693C118.216 194.228 124.813 196.304 128 196.405C131.195 196.507 136.724 194.187 138.972 197.357C142.269 202.006 138.632 209.973 138.383 215C138.229 218.102 139.445 220.959 139.816 224C140.09 226.255 139.35 230.201 141.603 231.651C143.096 232.612 145.33 232.165 147.001 232.24C153.105 232.514 158.857 231.004 165 231C163.331 223.739 166.466 217.173 166.295 210C166.049 199.68 164.263 189.329 164.015 179C163.904 174.381 165.225 170.477 165.651 166C166.222 160 165.258 153.079 165.035 147C164.85 141.974 164.025 137.031 164.001 132C163.985 128.688 164.698 124.41 163.397 121.285C161.403 116.499 155.881 113.466 151.985 110.447C146.741 106.382 141.861 101.544 137 97.0247C134.34 94.5518 130.985 90.7345 127 90.9375C120.451 91.2711 116.524 97.5354 112.405 101.625C105.75 108.233 93.5663 112.569 89.0239 121.039C86.7483 125.283 87.5733 130.443 87.51 135C87.3979 143.07 86.5254 150.912 86.7407 159C86.9619 167.309 86.1657 175.692 86.179 184C86.1902 190.933 88.4337 198.038 88.9105 205C89.464 213.083 88.0222 220.96 88 229z"/>
	<path style="fill:#fff;" d="M124 119.634C115.238 122.048 107.168 128.481 103.678 137C97.6557 151.701 101.971 169.085 120 169.96C123.332 170.122 126.765 170.141 130 169.265C138.261 167.03 146.46 162.884 149.351 154C154.62 137.808 143.609 114.233 124 119.634z"/>
	<path style="fill:#000;" d="M126.424 125.814C119.914 128.377 110.435 131.965 107.742 139C105.656 144.45 106.125 155.379 110.303 159.725C114.882 164.489 125.942 165.63 132 163.397C143.701 159.082 148.031 144.973 141.73 135C138.193 129.402 134.181 122.761 126.424 125.814M78 132C72.7194 134.818 67.7421 133.508 62 133.725C53.2541 134.055 44.7849 136 36 136C36.3878 145.032 37.3625 153.902 36.9606 163C36.7219 168.405 34.9499 173.556 35.0185 179C35.0903 184.695 36.8214 190.316 36.821 196C36.8206 202.018 35.0501 207.943 35 214C39.612 213.266 44.3256 214.02 49 213.999C59.0166 213.955 68.9334 214 79 214C78.9861 208.956 78.0077 204.028 78.0077 199C78.0077 195.318 78.9961 191.665 78.7901 188C78.5626 183.952 77.0803 180.082 77.0787 176C77.0731 161.456 78.6915 146.47 78 132M174 133C176.751 147.819 173.649 163.064 174.015 178C174.281 188.877 177.004 201.315 175 212C181.079 214.216 186.648 213.761 193 214.039C197.695 214.245 202.308 215.613 207 215.741C211.81 215.871 216.15 215.388 221 216C221.033 211.956 222.188 207.99 222.162 204C222.06 188.461 221.369 172.644 220.985 157C220.863 151.987 222.347 140.198 218.436 136.607C215.732 134.125 211.284 135.948 208 135.37C196.838 133.405 185.366 133.094 174 133z"/>
	<path style="fill:#fff;" d="M198.428 141.819C182.1 148.66 182.969 170.441 181.975 185C181.645 189.832 179.242 197.281 182.179 201.682C183.718 203.989 186.519 203.949 189.001 203.995C194.904 204.107 204.24 205.689 209.74 203.411C216.918 200.438 214.791 191.979 215.004 186C215.461 173.153 219.219 162.538 213.637 150C210.976 144.025 205.282 138.947 198.428 141.819M71 205C70.9811 195.966 71.9985 187.012 71.9985 178C71.9985 172.406 72.5079 166.529 72.2469 161C71.864 152.887 65.619 135.393 54.4823 144.359C51.4248 146.82 50.4408 150.685 48.652 154.001C43.0274 164.427 40.9115 177.105 42.1659 189C42.5515 192.657 42.1461 199.471 44.858 202.255C46.6737 204.118 49.6308 203.793 52 203.857C58.4373 204.031 64.649 204.813 71 205z"/>
	<path style="fill:#000;" d="M187 198C192.083 198 202.071 199.927 206.387 196.972C210.233 194.339 210.225 188.133 210.715 184C212.283 170.759 210.748 158.401 204 147C184.117 156.259 191.106 180.752 187 198M60 149C57.3549 152.49 53.9528 154.919 52.0316 159.005C46.1745 171.461 49.8912 185.86 50 199L64 197C63.7824 192.676 65.2024 189.198 65.7909 185C66.8842 177.2 66.859 168.674 65.3549 161C64.382 156.036 63.9916 152.436 60 149M119 202C119 212.009 118.994 221.229 121 231C125.533 229.933 129.435 230.64 134 231C132.78 221.348 134 211.75 134 202C128.955 201.467 124.057 201.986 119 202z"/>
</svg>