<?xml version="1.0" encoding="uft-8" standalone="yes"?>
<svg xmlns="http://www.w3.org/2000/svg" width="256" height="256">
	<path style="fill:#fff;" d="M231 11C224.831 14.0344 222.753 20.8918 220.471 27C217.72 34.3629 214.79 41.7302 211.796 49C210.658 51.764 205.167 59.3581 208.615 61.9282C213.197 65.3436 217.19 55.8203 218.304 53C221.809 44.123 223.671 34.8057 226.941 26C228.869 20.8072 232.187 16.7143 231 11M107 19C106.584 20.411 106.143 21.5578 106.109 23.044C106.08 24.2789 105.992 25.707 106.434 26.8904C109.098 34.0217 117.906 26.8877 111.491 21.2646C110.095 20.0415 108.709 19.5941 107 19M178.584 23.0864C175.463 25.2719 174.155 40.7365 180.783 36.2878C184.027 34.111 183.598 29.3895 182.89 26.0586C182.479 24.1237 180.937 21.4386 178.584 23.0864M86 42C86.1339 39.698 86.4877 37.2947 86.1458 34.9985C85.7216 32.1491 80.7303 22.9961 77.0432 27.6227C73.1518 32.5056 81.881 40.8257 86 42M146 40L152 40C151.903 31.2853 147.558 26.6638 139 30.7569C136.603 31.9034 130.636 33.631 130.636 36.9846C130.636 39.728 134.032 39.9686 136.005 39.5617C140.315 38.6727 144.269 33.7468 146 40M29 38C26.1305 48.4619 35.1926 61.5161 38.9252 71C39.9835 73.6892 43.0248 82.2779 47.3974 78.9529C50.6848 76.4531 47.054 70.6136 45.7515 68C42.5995 61.6748 39.1918 55.6059 36.615 49C34.7209 44.1443 34.2994 39.9312 29 38M95.0856 43.7184C89.6077 43.7222 81.3778 44.2959 78.858 50.0548C77.3023 53.6103 77.016 65.3642 82.9715 65.3642C88.8412 65.3642 84.351 55.4217 86.7569 52.5108C90.6808 47.7633 95.8218 53.2149 99.6389 50.2955C103.817 47.0998 98.1973 43.7162 95.0856 43.7184M103 127C106.027 135.687 115.651 133.365 123 136.17C130.173 138.908 136.493 139.399 144 140.285C147.755 140.729 152.246 141.824 155.891 140.258C159.668 138.635 160.335 133.738 162.708 130.715C169.793 121.69 174.918 112.247 179.894 102C181.229 99.2491 183.527 96.9585 184.431 94.0008C185.922 89.1217 181.59 84.5713 180.339 79.9992C177.856 70.9259 171.503 56.558 161.999 53.8765C157.198 52.5218 151.769 54.6252 147.285 52.9915C139.097 50.008 132.951 47.4689 124 47.4298C121.354 47.4182 118.577 46.6757 116.004 47.6073C107.669 50.6247 102.725 63.2065 97.2917 69.5062C93.4978 73.905 88.0037 76.9201 84.2276 81.4637C82.1414 83.974 81.1413 87.7379 81.3974 91C81.7298 95.2338 85.0597 99.161 86.7114 103C89.6159 109.751 90.1085 119.967 94.8434 125.682C97.081 128.383 100.05 127.838 103 127M56 50C56 52.6224 54.6927 62.3642 59 62.3642C63.3072 62.3642 62 52.6224 62 50L56 50z"/>
	<path style="fill:#000;" d="M104 124C110.883 123.82 116.476 126.967 123 128.53C126.634 129.401 130.347 129.307 134 130.294C139.234 131.708 147.594 133.419 152.502 129.976C155.182 128.095 156.306 123.752 157.873 121C161.827 114.054 166.12 105.428 172 100C171.523 96.3428 173.315 93.5435 173.208 90C173.056 85.0163 169.258 80.4177 167.337 76C165.684 72.198 164.846 67.3745 161.471 64.6034C158.845 62.4472 155.066 63.2106 152 62.1165C145.55 59.8149 139.736 59.0984 133 57.9159C129.823 57.3582 126.245 55.9102 123 56.5201C115.271 57.9728 113.625 64.6273 109.444 69.7762C104.499 75.8651 95.4082 81.0501 92.7816 89.0394C91.714 92.2868 93.4603 95.9203 94.4144 99C97.14 107.798 102.796 114.684 104 124z"/>
	<path style="fill:#fff;" d="M179 62C181.506 63.0671 185.346 63.5621 187.258 65.5887C189.155 67.5997 188.327 71.3204 190.598 72.9282C195.153 76.153 196.155 68.6778 195.941 66.0031C195.271 57.6345 182.223 53.2344 179 62M221 73C224.191 72.9253 226.906 72.2955 230 71.5941C232.337 71.0644 234.642 71.1696 236.999 70.892C239.443 70.6041 246.501 67.2284 242.377 64.0664C240.518 62.6404 237.046 63.6991 235 64.1196C228.818 65.3901 222.436 66.0547 221 73M139 86L140 87C148.533 84.0005 156.874 79.5401 159 70L158 69C149.169 70.7584 142.472 77.789 139 86M15 73C15.5963 80.9798 21.3916 82.9624 26.3349 88.1134C27.8643 89.7071 30.673 93.9013 33.392 91.9136C36.0531 89.9681 33.055 86.0075 31.517 84.4552C27.0074 79.904 21.5178 73.8736 15 73M60 92C62.3382 91.9935 64.6792 92.0301 67.0015 91.7099C71.1394 91.1393 79.1006 86.2814 72.6821 82.0285C68.9598 79.5622 55.5006 81.4763 53.0278 85.3032C51.4769 87.7034 52.0135 91.2905 51.9992 94C51.9709 99.3713 51.0086 104.621 51 110C50.9681 129.818 50.5972 149.313 50.9846 169C51.0968 174.702 49.8992 180.279 50.0046 186C50.0558 188.779 50.0868 192.188 53.1474 193.377C56.6141 194.724 59.3185 192.261 59.8519 188.981C60.8254 182.993 59.1327 176.959 59.0154 171C58.9227 166.285 60.0552 161.704 59.9807 157C59.9052 152.233 58.7116 147.821 59.0864 142.996C59.4531 138.277 60.8686 133.755 60.9853 129C61.29 116.596 60.0082 104.336 60 92M201 92C201.001 97.0302 202.645 102.114 202.432 107C202.106 114.492 199.984 121.675 199.13 129C197.658 141.612 196.868 154.304 197.665 167C198.005 172.407 195.917 180.995 197.782 185.891C198.888 188.798 202.716 190.72 205.682 189.381C208.08 188.299 207.843 185.482 207.856 183.285C207.894 177.219 208.642 170.806 207.326 164.83C205.4 156.09 207.902 148.63 208.871 140C209.557 133.887 207.916 128.009 208.063 122C208.193 116.673 209.483 111.372 209.683 106C209.914 99.7905 213.999 88.7798 209.397 83.3179C205.941 79.2168 195.029 80.9227 191.746 84.6528C188.475 88.3705 191.745 92.6299 195.991 92.8009C197.716 92.8704 199.343 92.3898 201 92M220 87C220.463 89.776 224.861 95.6232 228.427 92.848C231.558 90.4125 225.68 87.7631 224.04 87.3441C222.734 87.0105 221.33 87.0618 220 87M102 93C114.879 96.0748 125.049 94.8043 133.426 107C135.527 110.06 137.225 120.9 142.694 118.377C148.802 115.56 139.889 108.522 138.61 105.871C136.617 101.737 136.883 97.137 133.363 93.6381C128.339 88.645 120.428 89.5824 114 88.8441C111.182 88.5205 107.91 87.498 105.148 88.6026C102.992 89.4651 102.607 90.9998 102 93M81 119L81 115L75 115C77.4558 111.528 78.8679 109.355 79 105C73.8936 105.154 61.4591 111.923 68.4491 118.106C71.8166 121.086 77.0319 119.313 81 119M183.583 119.086C180.417 121.29 182.034 126.604 177.981 128.846C174.667 130.68 169.61 125.367 167.288 129.445C165.939 131.813 167.885 134.319 170.11 135.103C173.667 136.355 181.329 136.752 184.605 134.682C188.243 132.383 188.479 125.881 187.849 122.055C187.523 120.075 185.906 117.47 183.583 119.086M70 133C70.2336 144.317 72.4675 155.732 72.3349 167C72.2965 170.258 70.3533 177.983 72.6219 180.397C74.1858 182.06 76.9128 181.996 79 182.281C86.1485 183.258 92.8768 181.218 100 181.665C105.733 182.025 111.352 180.919 117 181.209C140.337 182.408 163.593 182.711 187 183C187 175.064 186.457 166.911 187.093 159C187.532 153.543 188.996 148.563 189 143L183 143C182.771 154.111 181 164.889 181 176C147.027 177.459 113.018 176 79 176C78.956 170.754 77.278 166.14 76.7052 161C76.2964 157.331 77.1795 153.684 76.8287 150C76.2831 144.271 74.4575 138.749 74 133L70 133M139 147C136.544 139.625 127.467 146.874 122.015 146.848C116.688 146.822 113.45 138.228 108.322 139.751C106.083 140.415 106.335 143.204 107.029 144.9C108.285 147.972 113.215 151.991 116.259 153.273C123.864 156.476 132.653 150.48 139 147M103 193.594C93.7181 195.697 85.3955 196.171 76 196.055C73.5206 196.024 69.6075 196.242 68.7515 199.17C68.0821 201.459 70.1472 202.492 72.0586 202.566C77.9376 202.796 84.0431 201.764 90 201.87C98.2614 202.019 106.439 198.668 115 199.039C129.512 199.669 143.349 203.235 158 202.995C164.662 202.887 171.38 201.102 178 200.286C180.454 199.984 184.341 200.643 186.377 198.977C192.043 194.339 178.835 194.065 177 194.285C165.211 195.699 154.074 198.265 142 196.816C129.264 195.287 116.028 190.643 103 193.594M233 218C231.544 211.153 224.36 208.427 219.285 204.381C216.106 201.846 213.425 198.395 209.019 198.192C201.559 197.849 204.44 206.288 208.055 209.215C210.147 210.909 212.391 212.323 214.424 214.106C217.104 216.455 219.867 218.404 223 220.114C224.595 220.985 234.381 225.733 229.909 228.496C227.603 229.921 221.824 227.953 219 228.287C214.239 228.85 209.684 231.356 205 231.617C197.716 232.023 190.29 229.961 183 230.018C173.415 230.092 163.536 229.483 154 230.09C146.93 230.541 139.983 232.568 133 232.957C125.685 233.364 118.31 232.574 111 233.09C104.634 233.539 99.4038 236.973 93 237.536C85.5049 238.196 76.5681 235.926 69 235.169C57.5732 234.026 45.0357 234.616 34 231.721C28.7853 230.353 24.7359 231.424 22 226C31.3428 221.968 39.5872 213.75 47.956 207.935C50.8049 205.956 54.7977 202.282 51.2539 198.746C46.1432 193.646 39.0067 202.638 35.5756 205.456C32.4254 208.043 28.4448 211.696 24.8302 213.49C21.5056 215.14 18.0004 215.333 15.3032 218.225C10.7572 223.099 10.8921 232.913 15.5579 237.683C19.3961 241.607 26.9643 241.013 32 240.999C40.3104 240.976 47.8036 243.357 56 243.791C59.3615 243.969 62.6312 242.956 66 243.104C80.1073 243.725 93.8262 244.887 108 243.816C117.079 243.13 125.93 240.015 135 239.584C138.05 239.439 140.933 240.881 144 240.917C149.934 240.988 156.037 239.81 162 239.594C172.366 239.22 182.621 239.804 193 239.09C199.628 238.633 205.524 239.34 212 239.621C215.984 239.794 219.973 238.707 224 238.877C228.641 239.072 233.406 241.587 237.941 239.482C243.79 236.768 241.179 230.723 240.039 226C239.497 223.758 239.389 220.588 237.436 219.028C236.162 218.01 234.516 218.118 233 218z"/>
</svg>