<?xml version="1.0" encoding="utf-8" standalone="yes"?>
<svg xmlns="http://www.w3.org/2000/svg" width="256" height="256">
	<path style="fill:#fff;" d="M124 19.598C109.975 22.9463 99.5147 34.2495 95.7924 48C94.9741 51.0228 95.7338 53.9795 95.2176 57C94.6082 60.5654 92.2385 63.5034 91.4151 67C89.2158 76.3402 92.1282 83.3375 96.2508 91.2855C97.5507 93.7916 98.0557 96.6153 99.7029 98.9568C102.259 102.59 106.423 104.577 109.999 107.029C116.783 111.679 123 117.672 132 115.698C139.273 114.102 144.346 108.076 149.463 103.284C151.574 101.307 154.261 100.208 156.034 97.8565C167.376 82.8138 168.303 54.975 159.01 39C156.325 34.3846 154.849 27.6085 151.436 23.6698C145.877 17.2539 131.676 17.7654 124 19.598z"/>
	<path style="fill:#000;" d="M137 28.7276C130.58 28.1208 120.382 29.1506 115.133 33.1443C109.612 37.345 107.739 44.8253 105.562 51C102.579 59.4592 102.849 67.2018 102.821 76C102.811 79.3173 101.307 82.702 102.133 86C105.094 97.8224 116.792 105.02 128 105.892C137.723 106.648 143.433 99.8358 147.397 91.9853C148.925 88.9604 151.219 86.2353 152.298 83C155.588 73.1309 154.724 58.0082 152.405 48C150.591 40.1715 146.455 29.6213 137 28.7276z"/>
	<path style="fill:#fff;" d="M213 38.8187C204.326 38.494 198.107 46.7134 195.005 53.9144C193.577 57.2281 191.555 60.3741 191.004 64.0008C189.58 73.3767 194.778 81.8018 199.9 88.9961C203.846 94.5397 207.503 99.1978 215 99.3511C222.651 99.5075 231.947 93.0545 234.804 86C235.983 83.0896 235.424 79.1257 235.921 76C237.079 68.7061 238.101 59.0801 235.143 52.0394C231.876 44.2654 221.07 39.1207 213 38.8187M32 41.8256C16.4289 44.2217 10.6368 66.9758 14.5494 80C15.8292 84.2602 19.0021 87.7852 21.929 90.9954C26.3398 95.833 32.0125 100.27 39 99.5208C49.2185 98.4255 58.9079 94.7247 63.3549 84.8341C69.1536 71.9376 61.1758 59.3551 52.2045 50.4398C47.2004 45.467 39.5907 40.6576 32 41.8256z"/>
	<path style="fill:#000;" d="M198 77C208.141 77.9672 204.85 92.3625 215.09 93.3673C223.319 94.1749 231.011 83.0985 231.671 76C231.982 72.6536 231.026 69.3518 231.05 66C231.08 61.8988 231.9 57.7752 229.272 54.2091C222.945 45.62 209.11 42.3056 202.48 52.1049C200.278 55.3586 199.647 58.4611 198.756 62.1698C197.367 67.9518 196.153 71.1203 198 77M20 76C28.9217 78.6416 28.6458 92.601 39.0039 94.3766C42.7555 95.0196 46.9545 93.4804 49.9961 91.348C62.6838 82.453 59.6248 66.6023 50.071 57.0039C43.3382 50.2396 34.5151 44.5386 26.6127 53.1736C24.306 55.6942 22.765 58.8394 21.5941 62.0147C19.8906 66.6346 20 71.149 20 76z"/>
	<path style="fill:#fff;" d="M78 103.637C61.8771 103.315 45.2981 108.936 31 115.737C26.1414 118.048 19.1838 119.315 17.1011 125.103C16.0754 127.954 17.2053 131.209 17.061 134.17C16.883 137.821 15.5468 141.333 15.909 145C16.665 152.655 21.1814 160.938 24.1535 168C25.5656 171.355 28.0894 180.516 32.9807 179.963C39.4591 179.23 33.602 170.545 32.1505 168C27.6852 160.171 25.4635 153.629 23.3341 144.999C21.6582 138.208 20.2273 132.448 24.99 126.299C30.9006 118.668 41.4085 117.074 50 114.957C57.912 113.007 65.6418 109.972 74 110.194C78.3356 110.309 84.0944 116.389 87.7207 115.249C90.4633 114.387 89.5765 110.835 88.392 109.104C86.1862 105.882 81.8543 103.714 78 103.637M189 103.764C181.154 104.004 172.114 103.713 165.26 108.21C163.102 109.626 157.215 116.629 162.265 118.249C166.237 119.524 171.059 110.829 175.285 109.993C181.218 108.819 186.186 110.207 191.996 111.015C194.732 111.395 197.465 110.78 200.17 111.413C207.203 113.059 216.246 117.943 221.826 122.49C226.2 126.054 231.619 131.667 233.593 137.001C234.981 140.749 234.128 144.155 234.054 148C233.896 156.146 233.099 162.294 230.209 170C229.304 172.414 227.239 181.364 232 181.364C235.805 181.364 235.46 173.518 235.934 171C237.976 160.152 242.64 148.178 241.312 137C239.425 121.109 218.49 113.647 206 108.691C200.76 106.612 194.768 103.587 189 103.764M83.0039 124.924C76.6491 127.546 71.3918 136.439 70.1991 143C68.6819 151.346 69.4244 159.603 68.9568 168C68.7667 171.414 67.2404 174.599 67.1975 178C67.1587 181.082 68.6706 183.93 68.6065 187C68.5277 190.77 66.4176 194.211 66.2168 198C66.0188 201.738 67.6471 205.345 68.2384 209C69.4879 216.723 66.8764 224.338 66.7685 231.995C66.7255 235.045 68.2485 238.352 71.875 237.623C74.5452 237.087 75.3224 234.318 75.8256 231.995C77.0639 226.281 75.9623 219.737 75.2855 214C73.3135 197.287 77.3959 180.416 78.8958 164C79.4531 157.901 76.8669 149.683 78.7809 144.004C81.0801 137.182 87.2884 133.759 94 134.039C106.054 134.543 117.948 137.709 130 137.985C136.615 138.137 142.895 136.362 149.424 135.951C155.669 135.557 162.623 136.839 168.715 138.084C176.839 139.745 178.811 148.984 178.985 156C179.188 164.162 177.618 171.912 177.09 180C176.359 191.197 176.87 202.771 177.004 214C177.043 217.298 177.921 220.729 177.535 224C177.176 227.044 175.749 229.836 176.164 232.981C176.56 235.982 178.743 238.21 181.946 237.623C188.467 236.43 186.862 220.02 186.985 215C187.32 201.32 186.275 187.62 186.34 174C186.395 162.585 189.733 151.177 185.466 140C182.665 132.663 178.8 131.461 172 129.039C156.683 123.582 142.717 128.03 127 128.064C121.455 128.076 115.598 126.367 110 125.83C101.757 125.039 91.0372 121.609 83.0039 124.924z"/>
</svg>