<?xml version="1.0" encoding="utf-8" standalone="yes"?>
<svg xmlns="http://www.w3.org/2000/svg" width="256" height="256">
	<path style="fill:#fff;" d="M28 92C25.2299 102.099 32.9076 115.453 35.9113 125C38.9617 134.696 43.8785 143.611 47.1505 153.09C49.1566 158.901 49.4326 165.214 51.929 171C57.4086 183.7 62.4061 195.294 65.2122 209C65.8079 211.91 67.5008 214.241 68.4807 217C71.1804 224.602 72.5809 240.502 82 242C84.62 250.631 98.5155 245.297 105.001 243.554C114.657 240.959 124.413 240.105 134 237.076C145.247 233.523 155.882 227.903 167.039 224.198C170.586 223.02 174.126 221.19 177.715 220.252C181.103 219.365 184.593 219.9 188 218.752C198.752 215.127 209.116 209.983 220 206.789C225.969 205.037 236.955 203.916 239.381 196.985C240.78 192.988 238.128 188.688 236.889 185C234.771 178.697 232.98 172.215 230.738 166.001C229.575 162.778 227.109 160.226 226.402 156.83C222.519 138.181 215.829 120.377 210.637 102C209.456 97.8169 209.828 93.2677 208.83 89C205.599 75.1758 201.388 62.4449 194.546 50C190.39 42.4414 192.404 29.6256 183.856 24.3441C175.345 19.0852 167.652 26.1768 159 27C157.187 16.5564 139.477 26.757 132.424 22.686C126.602 19.3251 122.537 12.9135 116 10.7029C104.034 6.65659 89.2041 8.81305 82.5486 20C79.3466 25.3821 78.8682 32.51 75.0162 37.5702C73.1184 40.0633 69.7391 40.257 67 41.2554C63.4833 42.5372 59.1089 44.5675 56.1481 46.8742C52.6681 49.5856 52.6176 54.2164 48.9414 56.9414C42.0246 62.0682 31.8041 61.3794 24.0008 64.7045C21.7677 65.656 18.5769 66.1018 17.1944 68.3164C15.1812 71.5412 17.6513 74.462 19.2199 77.1698C22.0576 82.0683 23.0713 88.7468 28 92z"/>
	<path style="fill:#000;" d="M64 53C64.576 57.2778 64.9698 65.6093 69.1481 67.9576C71.5821 69.3255 74.411 68.3679 77 68.2052C83.3098 67.8088 87.9563 66.4387 94 64.5656C114.801 58.1189 136.463 55.4984 157 48C154.973 42.7123 152.141 38.8393 152 33C144.208 33.0052 135.534 36.3874 128.001 33.4113C123.138 31.4903 121.332 26.5945 117.675 23.3179C112.851 18.9964 103.813 18.2726 98 20.3256C92.8321 22.1509 88.061 26.6364 86.51 32C85.5862 35.1948 86.5605 38.8127 84.821 41.7901C81.2036 47.9819 70.4836 51.3004 64 53M166 45C168.17 44.3377 170.642 43.2551 172.897 44.2122C175.996 45.5281 177.08 49.0964 178.049 52C180.044 57.9754 182.106 63.5586 183.066 69.8302C184.861 81.5717 191.009 91.7772 194.526 103C195.973 107.618 195.916 112.442 197.22 117C201.207 130.938 206.532 144.491 211.517 158C214.565 166.26 219.086 173.182 221.035 182C221.579 184.463 223.054 187.412 222.245 189.941C220.211 196.299 210.911 194.68 206 194.713C200.911 194.747 194.977 194.334 190 195.39C187.247 195.974 184.788 197.464 182 197.926C175.392 199.021 168.709 198.875 162.285 201.349C156.158 203.708 150.268 206.452 144 208.525C140.71 209.613 137.209 209.76 134 211.13C126.512 214.329 119.708 218.887 112.09 221.999C106.486 224.288 100.8 230.326 94.044 228.719C89.5506 227.651 89.6852 223.678 89.0957 220C88.2859 214.949 86.816 208.787 84.9807 204C77.3757 184.162 68.1673 164.816 63.4398 144C61.8807 137.135 58.5541 130.137 59 123C56.0373 119.878 55.394 115.984 53.946 112C51.619 105.597 48.9876 99.6481 47.4761 93C46.646 89.3489 44.7611 85.8381 46.0718 82.0332C47.9198 76.6682 62.0767 75.8868 58.392 68.4306C57.2063 66.0313 54.2156 66.2055 51.9992 66.7346C48.8496 67.4864 46.0617 69.3386 43 70.3704C38.6703 71.8295 34.2287 72.2054 30 74C35.6285 89.0736 39.5153 104.69 44.591 120C49.0628 133.488 55.5156 146.439 59.5162 160C61.1654 165.59 61.6461 171.437 63.6049 177C65.6757 182.881 69.3096 188.165 71.5324 194C73.7531 199.83 74.7486 206.147 76.8765 212C79.951 220.457 83.8509 228.616 87 237C91.8351 236.615 96.2501 234.871 101 234.209C104.306 233.748 107.769 234.43 111 233.441C113.448 232.691 115.511 231.089 118 230.425C124.222 228.766 130.85 228.562 137 226.387C140.556 225.13 143.396 222.525 147 221.387C156.16 218.495 165.83 217.299 174.83 213.86C177.833 212.712 180.024 210.224 183.004 209.008C198.344 202.748 214.758 198.899 230 192C226.506 184.48 223.183 177.025 220.919 169C220.082 166.033 220.871 162.872 219.751 160C216.916 152.73 214.799 145.385 212.186 138C210.157 132.266 207.218 127.017 205.823 121C204.325 114.535 204.597 107.363 202.823 101C202.028 98.1495 199.914 95.9505 199.275 93C197.843 86.3962 197.533 79.4892 195.402 73C193.943 68.5558 190.885 65.1715 188.981 61C187.194 57.086 186.3 52.9522 184.373 49C182.27 44.6887 181.219 38.1401 177.915 34.6042C174.603 31.0593 166.069 35.5364 164.706 39.385C163.991 41.4038 165.177 43.2625 166 45M167 51C165.448 56.1072 162.486 55.04 158 56.1234C153.679 57.1669 148.354 58.4544 144.285 60.2083C133.62 64.806 122.239 64.9812 111.17 68.1852C107.916 69.127 105.238 71.3478 101.999 72.3773C88.9384 76.5292 76.6405 79.4695 63 78C59.5295 81.508 54.8026 83.9011 50 85C51.4779 90.4764 54.44 94.8101 56.5571 100C60.0918 108.665 62.9567 118.046 65.8056 127C67.3616 131.891 67.1428 136.994 68.5201 141.754C71.2122 151.058 74.6139 160.793 77.6883 170.015C81.6519 181.903 87.5912 193.251 91.7546 205C93.965 211.238 93.7616 217.823 96 224C113.225 215.853 130.108 207.085 148 200.345C155.315 197.589 164.233 192.89 172 192.105C177.98 191.501 184.038 191.445 190 190.805C193.748 190.402 197.175 189.028 201 189.05C204.842 189.072 211.418 190.513 213.957 186.567C215.846 183.631 213.498 179.865 212.615 177C209.94 168.323 205.493 160.511 202.478 152C201.554 149.391 201.564 146.572 200.57 144C198.829 139.496 196.158 135.761 194.885 131C193.303 125.084 193.125 118.803 191.209 113C186.567 98.9399 180.546 85.29 176.584 71.0147C175.755 68.0255 176.184 64.9269 175.407 61.9606C174.402 58.1226 172 54.8834 171 51L167 51z"/>
	<path style="fill:#fff;" d="M166.956 87.8225C162.905 88.0229 158.969 90.0463 155 90.7446C150.352 91.5624 145.487 91.3907 141 93.0347C136.592 94.6499 132.515 97.8424 128 99.0123C124.367 99.9538 120.689 98.7303 117 99.9159C113.56 101.021 109.429 102.987 107.037 105.785C105.648 107.409 104.715 110.306 107.323 111.343C111.599 113.042 117.932 106.939 122.004 105.733C126.275 104.468 130.845 105.233 134.91 103.92C138.059 102.903 140.308 100.225 143.289 98.8974C146.913 97.2839 152.098 96.391 156 95.4699C160.062 94.5112 165.057 96.602 168.768 94.5039C172.518 92.3833 171.307 87.6073 166.956 87.8225M90 138C86.7081 135.702 82.7516 132.056 78.9653 130.757C77.2223 130.159 74.4406 130.087 73.7515 132.265C72.9102 134.924 76.1822 136.427 77.9298 137.535C81.3046 139.673 90.1536 149.826 93.9329 143.681C95.4006 141.295 94.1787 137.664 94.4784 135C95.6445 124.631 95.2057 114.433 96.5756 104C96.9002 101.528 98.301 93.6358 94 93.6358C90.1207 93.6358 90.7549 101.483 90.4244 104C89.7466 109.162 91.0052 113.901 90.8711 119C90.6953 125.687 89.1419 131.204 90 138M110 127C118.136 126.731 125.288 119.646 133 116.966C136.607 115.713 140.285 116.262 144 115.816C148.49 115.276 152.583 113.174 157 112.38C160.005 111.839 163.024 112.755 166 112.193C171.227 111.206 175.572 108.383 176 103C164.633 103.236 153.138 107.463 142 109.626C135.77 110.836 128.86 110.288 123.039 113.058C117.3 115.789 110.22 120.384 110 127M183.981 146.483C178.253 146.758 171.541 147.509 166.09 149.329C163.253 150.276 160.99 152.257 157.985 152.775C152.725 153.683 147.195 152.16 142 153.637C138.946 154.506 134.806 156.291 133.198 159.208C132.26 160.911 132.159 163.501 134.322 164.292C138.448 165.8 144.046 160.473 148 159.532C152.892 158.369 158.045 159.793 162.91 158.701C167.469 157.678 171.325 154.378 176 153.39C179.287 152.695 183.774 153.933 186.677 151.973C190.455 149.423 187.359 146.321 183.981 146.483M109 177C105.156 172.592 100.513 166.059 95.7917 162.747C92.2267 160.246 87.9208 162.479 90.1983 166.9C93.5618 173.43 103.79 174.937 106.686 182.09C109.42 188.842 103.066 197.567 106.603 204.677C107.976 207.438 110.903 206.367 111.686 203.851C113.247 198.832 113.585 192.256 114 187C117.387 188.799 120.911 190.994 123.914 193.399C125.867 194.962 127.558 197.399 130.085 198.069C132.905 198.816 136.66 196.545 134.914 193.371C131.209 186.639 120.1 185.65 116.009 178.791C111.942 171.971 118.641 164.872 115.397 158.323C114.039 155.58 111.071 156.611 110.318 159.149C108.752 164.424 109.703 171.437 109 177M144 171C142.655 173.815 136.609 179.035 139.785 182.215C143.768 186.2 148.553 176.539 152.174 175.474C157.557 173.89 162.747 175.932 168 175.206C172.164 174.63 175.286 171.701 179.17 170.495C184.356 168.883 190.626 167.91 196 167L196 161C184.841 161.092 174.576 165.968 164 168.867C160.63 169.791 157.406 168.88 154 169.119C150.604 169.357 147.399 170.662 144 171z"/>
</svg>