<?xml version="1.0" encoding="utf-8" standalone="yes"?>
<svg xmlns="http://www.w3.org/2000/svg" width="256" height="256">
	<path style="fill:#fff;" d="M104 38C101.123 47.8266 106.972 57.451 100.038 66.7909C98.3386 69.0797 95.8964 70.9623 93.7137 72.7747C91.959 74.2317 90.1248 75.5798 87.9992 76.4522C71.1835 83.3536 68.7848 60.4829 69 50C66.7774 49.0057 64.4899 47.3015 61.9606 47.3573C54.4266 47.5234 46.286 57.1484 42.696 63.0039C31.3146 81.5673 37.3949 99.5061 46.9761 116.961C50.8203 123.964 54.1984 128.603 53 137C46.8247 134.428 42.0873 131.418 39.3866 125C37.588 120.726 38.2171 112.836 32.9452 111.118C27.1227 109.221 25.0444 116.977 23.6705 121C21.0956 128.54 19.3894 136.526 23.5957 143.95C25.0424 146.503 27.2959 148.617 29 151C24.5381 152.172 16.0085 147.2 13.0633 151.518C12.0054 153.069 12.3517 155.238 12.2948 157.001C12.122 162.349 11.5243 167.736 14.0108 172.71C15.3739 175.437 18.979 179.713 22.3781 176.971C24.6561 175.134 22.4582 172.505 21.4151 170.715C19.7264 167.816 16.8787 160.62 20.4074 158.028C25.0119 154.645 36.1463 160.795 38.2485 152.809C39.1096 149.537 34.4023 146.317 32.7307 143.947C27.6746 136.779 24.9113 128.201 31 121C32.64 130.022 36.1577 137.799 45.0039 141.662C51.0266 144.292 58.844 145.36 60.213 136.999C60.7644 133.632 59.3497 130.211 58.5355 127C56.8125 120.204 54.635 114.145 51.0988 108.015C47.5974 101.945 43.4031 97.2565 42.1782 90C40.7671 81.6396 46.2697 71.5399 50.7353 64.8341C53.7267 60.3423 57.5708 57.0289 62 54C61.8407 61.9727 62.6584 72.0433 68.1335 78.5316C77.6 89.7502 97.6137 83.1282 104.728 72.8302C115.028 57.9225 108.627 37.0865 105 21C117.222 21.0337 132.146 23.8844 141.521 32.4985C144.296 35.0481 145.622 38.708 147.269 42C152.521 52.4991 154.322 60.252 154.007 72.0147C153.725 82.5066 140.51 105.741 157.286 111.486C173.385 116.999 178.188 96.8557 185.058 87.0895C195.038 72.9011 207.443 64.4109 225 64C219.073 66.3687 214.108 68.9885 211.103 75.0039C209.828 77.5568 209.605 80.4647 208.291 83C205.773 87.8591 201.519 91.533 199.189 96.5756C193.622 108.625 199.448 118.833 205 129C212.944 129.835 218.22 127.266 222 120L224 120C225.266 123.441 227.011 127.303 227.219 131C227.471 135.476 225.119 139.78 224.039 144C223.449 146.307 223.852 148.658 223.356 150.961C222.485 155.01 217.546 158.394 219.002 162.852C220.762 168.244 229.346 165.237 233 164C230.978 168.626 229.058 171.825 229 177L235 177C237.941 169.226 243.892 163.729 243 155C237.46 155.13 231.446 159.809 227 156C230.171 153.713 230.016 150.678 230.826 147C232.916 137.51 234.094 126.301 228.819 117.83C227.226 115.271 226.302 110.783 222.935 109.971C218.782 108.969 218.03 114.491 216.273 116.893C213.98 120.028 210.601 121.134 207 122C205.812 117.229 203.153 113.164 202.998 108.09C202.765 100.43 208.099 94.1528 211.9 88C213.619 85.2172 214.653 82.1697 216.684 79.5764C221.047 74.0042 226.17 69.6378 231.855 65.6019C233.584 64.3743 235.125 62.5615 234.199 60.3025C233.207 57.8822 230.153 58.0465 227.996 58.0046C222.532 57.8985 217.291 57.2296 212 58.814C206.775 60.3787 199.899 62.1184 195.464 65.3395C189.202 69.8872 185.976 76.9683 181.459 82.946C177.65 87.9864 172.253 90.8868 173 98C167.222 101.243 163.424 110.03 157.733 100.981C156.991 99.8004 156.381 98.3698 156.107 97C155.098 91.9545 158.977 86.059 159.7 81C161.745 66.6907 161.053 49.5962 153.471 37.0394C142.878 19.4974 124.05 15 105 15C101.187 15 90.5994 13.1664 88.0471 16.5988C86.9672 18.0509 87.4459 19.9633 88.608 21.186C91.3157 24.0346 95.9005 24.2124 98.5517 27.2747C101.467 30.6426 100.201 35.3264 104 38M66 116C65.9144 119.657 64.4869 123.401 64.8032 127C65.2895 132.532 67.8647 136.88 69.4406 142C70.3444 144.936 69.9753 148.05 70.9545 151C71.8879 153.812 75.7605 163.707 80.2145 159.214C82.914 156.49 79.26 152.429 77.9653 150C74.0225 142.603 73.5329 133.122 72 125C76.8055 128.204 86.19 137.891 92.686 135.343C94.8072 134.51 95.1612 131.885 95.8156 129.995C97.3871 125.458 98.115 120.381 99.9938 116.004C101.18 113.24 103.434 111.311 104.837 108.715C106.307 105.996 106.239 102.776 107.724 100.015C111.082 93.7691 118.17 87.8669 124 84C122.586 91.6152 123.531 98.3952 124.077 106C124.472 111.494 124.708 117.398 128.43 121.892C136.219 131.296 158.49 131.272 168.714 126.544C172.098 124.979 175.045 122.242 178 120C180.17 131.604 172.126 142.722 172 154C181.725 153.682 180.744 145.612 182.265 138C183.546 131.587 185.626 127.72 184.59 121C184.188 118.39 184.831 112.758 182.397 111.072C178.12 108.109 169.25 117.546 165.715 119.649C156.39 125.195 141.838 123.735 134.213 115.867C126.641 108.054 127.564 95.4573 131.093 86C132.195 83.045 135.401 76.4641 130.768 74.9167C125.994 73.3222 121.439 79.0682 117.985 81.4205C110.974 86.1957 103.202 93.1932 99.6914 101.169C97.6248 105.864 95.0847 111.159 93.4097 116C92.3401 119.092 92.4224 123.251 89.686 125.497C83.0296 130.96 76.5244 119.89 72.3681 117.028C70.5462 115.773 68.0927 116.025 66 116z"/>
	<path style="fill:#000;" d="M124 83L125 84L124 83z"/>
	<path style="fill:#fff;" d="M206 206C206.07 211.888 207.821 213.326 212 217C205.97 215.81 201.175 212.183 195 212C195.265 220.102 201.025 220.848 208 222C207.816 225.352 207.387 229.21 203.891 230.802C198.508 233.255 190.253 230.333 184.996 228.927C177.474 226.914 169.461 226.667 162 224.204C158.066 222.906 149.436 219.474 146.029 223.742C140.436 230.746 154.216 233.198 158 234.279C167.461 236.982 177.458 236.198 187 238.295C194.516 239.946 203.4 244.938 210.895 239.991C215.803 236.752 216.267 230.972 218.349 226C221.816 217.717 228.888 208.482 216.005 205.669C213.996 205.23 212.046 205.089 210 205C214.091 203.612 219.522 203.296 222.397 199.657C224.115 197.481 223.963 194.61 224.285 192C225.414 182.84 221.76 172.685 216.743 165C214.284 161.233 212.49 152.308 207 152.296C203.432 152.289 202.021 155.908 198.871 156.822C195.508 157.797 191.506 157.146 188 157.804C180.894 159.138 174.067 161.564 167 162.905C156.089 164.976 144.768 165.459 134 167.666C125.126 169.485 116.719 173.223 108 175.506C104.701 176.37 101.28 176.157 98 177.245C93.5197 178.732 89.5171 181.341 85 182.808C71.3764 187.233 57.3075 190.108 44.0039 195.605C40.0265 197.248 34.7283 199.98 32.8573 204.129C30.7077 208.895 33.1279 213.445 34.3665 218C36.3099 225.147 36.8182 234.631 44.2593 238.968C47.8402 241.056 52.2792 238.467 56 238.103C61.9151 237.525 68.1532 237.732 74 236.776C78.1138 236.104 81.8088 234.051 86 233.429C92.8277 232.416 99.2214 232.075 105.985 230.321C109.48 229.415 112.466 227.389 116.015 226.63C121.038 225.554 126.013 226.378 131 225.661C138.372 224.601 145.123 220.76 152.285 219.086C154.812 218.495 157.437 219.055 159.985 218.464C162.564 217.865 164.663 216.234 167.17 215.495C171.632 214.178 176.471 213.945 181 212.628C189.334 210.205 197.349 207.465 206 206M34 184C40.3469 182.467 44.8185 188.685 50.8511 187.578C53.945 187.01 53.8642 183.875 51.6775 182.228C48.3018 179.684 42.0699 178.011 38 177C38.9857 175.521 39 175.797 39 174C50.5469 176.271 60.0021 181.481 72 181L72 175C61.6833 174.473 51.761 171.002 42 168C54.0374 164.45 66.9166 170.879 78 174.231C81.8826 175.406 87.6584 179.586 91.6821 176.968C94.1167 175.385 94.3525 171.644 92.3958 169.589C90.0026 167.075 83.2699 165.494 80 164.121C77.4167 163.037 74.5856 163.126 72 162.078C61.9715 158.012 46.8747 153.667 36.108 158.843C32.4234 160.615 31.6448 164.441 30.4954 168C28.0979 175.424 20.3201 190.125 31.0185 193.941C32.561 194.491 34.2945 194.956 35.9414 194.628C43.2308 193.175 38.6113 185.338 34 184z"/>
	<path style="fill:#000;" d="M43 210C52.0444 211.418 59.5721 205.929 68 203.633C77.3403 201.09 87.5113 200.742 97 198.334C103.174 196.768 112.829 190.46 117 198C112.96 198.448 110.594 200.524 106.961 202.057C103.314 203.595 98.8627 204.052 95 204.962C78.0298 208.962 60.8886 211.629 44 216L47 228C57.7428 226.662 69.1734 227.553 80 226.15C87.709 225.152 95.3186 222.002 103 220.644C108.611 219.653 114.317 219.824 120 218.686C126.808 217.323 133.314 214.159 140 212.3C143.633 211.29 147.39 211.65 151 210.738C159.541 208.58 167.768 205.739 176 202.619C184.533 199.385 194.089 197.758 203 195.88C206.099 195.227 212.265 194.292 214.184 191.487C215.721 189.239 213.855 186.159 213 184C205.047 190.005 192.86 192.918 183 193L183 187C193.137 186.784 202.071 179.927 212 180L211 176C196.339 178.845 181.928 185.873 167.011 187C163.69 187.251 156.411 191.13 153.712 188.312C149.023 183.416 163.184 182.308 165.285 181.71C173.379 179.407 181.784 177.535 190 175.42C196 173.875 201.775 171.181 208 171C206.967 167.567 204.943 165.338 200.999 165.529C198.24 165.662 195.673 167.178 193 167.777C185.022 169.565 176.998 171.222 169 172.88C161.128 174.513 152.852 173.63 145 175.299C141.841 175.971 139.128 177.912 136 178.746C128.823 180.66 121.222 180.559 114 182.47C110.448 183.41 107.443 185.649 104 186.87C100.742 188.026 97.2696 187.75 94 188.799C86.2977 191.272 79.423 194.872 72 197.752C64.0533 200.834 45.8777 200.803 43 210z"/>
	<path style="fill:#fff;" d="M157 202L157 196C147.004 196.007 138.508 199.987 129 202.451C117.129 205.526 105.094 208.501 93 210.771C87.7281 211.76 82.3371 212.148 77.0586 213.144C75.1098 213.511 72.4406 215.071 74.0864 217.416C75.5279 219.47 78.5631 218.791 80.5756 218.329C84.8393 217.349 89.6421 216.622 94 216.129C97.9837 215.678 102.065 216.245 106 215.286C122.891 211.172 139.631 203.777 157 202z"/>
	<path style="fill:#000;" d="M207 205L208 206L207 205z"/>
	<path style="fill:#fff;" d="M201 228L201 222C194.564 221.67 187.262 220.302 181 218.731C178.529 218.111 173.949 216.315 171.623 218.063C168.421 220.469 172.791 223.346 175.019 223.772C183.589 225.408 192.174 227.994 201 228z"/>
</svg>