<?xml version="1.0" encoding="utf-8" standalone="yes"?>
<svg xmlns="http://www.w3.org/2000/svg" width="256" height="256">
	<path style="fill:#fff;" d="M39 217C37.1487 223.997 37.474 230.799 37.0949 238C36.945 240.847 37.1671 244.111 40.1481 245.396C45.4359 247.674 51.7479 243.619 57 243.103C64.7772 242.339 70.6364 239.744 78 237.455C91.6302 233.219 103.942 228.859 117 223.035C121.301 221.116 127.272 219.063 132 218.944C136.715 218.825 141.203 220.408 146 219.871C156.078 218.744 166.074 217.271 176 215.664C178.962 215.185 181.994 216.066 185 215.707C197.119 214.257 209.125 211.332 219.17 204.681C221.96 202.833 225.111 201.945 227.71 199.746C235.423 193.22 243.58 178.341 242 168C246.301 165.147 245.767 160.716 245.884 156C246.062 148.841 246.37 141.402 247.031 134.285C249.138 111.581 248.776 90.5844 245.764 68C245.407 65.3242 246.051 62.6699 245.529 60C243.31 48.6489 237.142 34.2242 228.572 26.2986C215.528 14.2357 196.207 16.4504 180 14.831C163.284 13.1607 146.781 12.6955 130 11.9606C98.1719 10.5669 62.8758 10.7362 36.0008 30.8434C17.7329 44.5109 14.4564 64.8577 11.8164 86C11.0997 91.7395 8.60381 97.1437 8.40046 103C7.63304 125.102 9 147.803 9 170C9 175.704 8.71827 181.407 10.0394 187C11.2994 192.335 13.9205 194.888 16.7307 199.255C22.2849 207.888 27.8213 216.078 39 217z"/>
	<path style="fill:#000;" d="M46 235C54.5172 235.667 59.9121 233.397 68 231.039C79.8515 227.585 91.6036 223.034 103 218.205C109.714 215.361 116.529 210.937 124 210.599C127.045 210.461 129.971 211.484 133 211.386C136.737 211.265 140.19 209.851 144 210.058C146.692 210.204 149.303 211.365 152 211.222C156.182 211.001 159.919 208.293 164 207.478C167.684 206.743 171.31 207.55 175 207.211C178.091 206.928 180.945 205.654 184 205.206C194.15 203.719 204.897 203.462 213.715 197.2C221.744 191.497 225.713 185.326 230.121 177C231.568 174.268 233.991 172.023 234.858 169C237.599 159.443 236.394 147.917 237.09 138C237.791 127.993 239.424 118.072 239.29 108C239.146 97.1759 237.361 86.6371 236.349 76C236.061 72.9777 237.154 70.0379 236.726 67C235.519 58.4253 231.856 50.3739 227.579 43C225.816 39.9617 224.442 36.3594 221.61 34.1296C216.531 30.1289 207.475 26.0438 201 25.6096C197.012 25.3421 193.017 26.184 189 25.9105C177.287 25.1129 165.688 23.5914 154 22.7955C122.404 20.644 88.6745 17.5466 59 30.6265C50.2351 34.4899 40.611 38.7001 34.4637 46.4784C30.2435 51.8183 25.6444 59.3025 24.0988 66C22.9171 71.1205 23.5236 76.7872 22.7909 82C21.3372 92.3425 18.7136 103.524 18.6335 114C18.5088 130.297 18.2764 146.778 18.9606 163C19.3718 172.747 18.425 182.525 22.189 191.826C24.4867 197.504 32.5599 204.064 38 206.583C41.1641 208.049 45.1958 208.046 47.3781 211.148C49.1639 213.686 48.019 216.231 47.7361 219C47.1832 224.411 45.4733 229.559 46 235z"/>
	<path style="fill:#fff;" d="M58 74L58 76C67.8111 79.1025 77.9397 77.2256 88 77.4552C99.2454 77.7119 110.868 76.6146 122 77.1042C131.58 77.5255 141.406 79.3653 151 78.9606C158.126 78.6601 164.997 76.5349 172 76.054C177.603 75.6693 183.524 74.9739 188.999 76.3796C192.9 77.3812 196.17 79.8647 200.035 80.7855C202.375 81.3431 205.936 81.2758 205.994 78.0208C206.055 74.599 201.457 74.0643 198.999 73.49C191.11 71.6464 182.189 69.2365 174 70.1296C170.231 70.5407 166.762 72.2967 163 72.8642C157.596 73.6794 152.408 72.8112 147 73.0394C141.277 73.2808 135.778 74.3062 130 73.9105C123.995 73.4993 118.015 72.3027 112 72.0394C103.652 71.6738 95.2957 72.7336 87 72.5448C77.377 72.3257 67.3382 71.047 58 74M206 109L206 107C192.487 103.006 176.515 106.836 163 108.316C157.549 108.912 151.521 108 146 108C142.025 108 128.207 105.428 128.207 111.957C128.207 113.613 129.548 114.678 131.063 114.941C135.341 115.685 141.467 114 146 114C157.152 114 167.952 112.524 179 112.039C188.346 111.63 197.378 113.319 206 109M66.0895 108.544C64.2985 108.764 53.5742 110.041 58.6227 113.962C61.2066 115.969 67.0674 113.986 70 113.58C77.8372 112.496 86.0767 114.09 94 113.975C96.5563 113.937 101.245 114.627 103.377 112.952C108.192 109.17 98.7972 108.17 97 108.117C87.1035 107.823 75.8418 107.344 66.0895 108.544M183 130.764C180.31 131.116 172.716 131.263 171.086 133.584C167.537 138.639 180.821 138.523 183 138.236C185.294 137.934 190.485 137.469 191.914 135.417C195.083 130.864 185.162 130.481 183 130.764M63 133L63 139C80.0441 139 96.9574 137.937 114 137.71C121.032 137.616 127.962 138.234 135 137.615C141.931 137.006 155.5 140.19 157 131C150.218 131 143.627 132.366 137 132.505C112.201 133.025 87.7592 133 63 133M187.999 156.924C180.733 158.234 173.584 160.066 166.17 160.942C163.425 161.266 160.717 160.327 157.996 160.809C151.043 162.042 144.081 165.591 137 166.187C129.031 166.858 120.978 165.439 113 166.093C109.116 166.412 105.771 168.257 102 168.986C97.5406 169.848 92.4573 169.01 88 168.424C80.4208 167.429 72.5892 168.42 65.0008 168.576C62.8549 168.62 58.6358 169.02 58.6358 171.999C58.6358 174.726 62.0359 174.962 64.0046 174.721C73.0035 173.621 80.8932 174.577 90 174.961C98.5489 175.321 106.64 172.881 115 172.104C124.54 171.217 134.651 173.403 144 172.228C147.412 171.799 150.087 169.915 153.285 168.958C158.646 167.354 164.519 166.138 170 164.76C174.193 163.706 179.676 163.034 184 163.102C186.856 163.147 190.058 165.123 192.677 163.201C197.429 159.716 191.746 156.248 187.999 156.924z"/>
</svg>