<?xml version="1.0" encoding="utf-8" standalone="yes"?>
<svg xmlns="http://www.w3.org/2000/svg" width="256" height="256">
	<path style="fill:#fff;" d="M66 100C68.6004 98.0819 71.6005 95.0102 75 94.8225C82.9423 94.3841 93.642 104.705 98.4861 110.174C104.294 116.73 109.193 124.381 115.553 130.436C118.666 133.399 122.683 134.77 125.714 138.005C135.044 147.959 145.154 161.57 158 167C156.406 178.808 171.801 184.144 178.545 191.198C185.919 198.911 193 206.707 201 213.834C204.019 216.524 207.708 220.503 211.996 220.793C215.574 221.035 217.814 218.526 220.076 216.15C225.325 210.635 231.386 204.538 235.08 197.83C240.614 187.782 234.216 183.108 227.459 176.407C223.104 172.087 218.716 167.669 214.741 162.995C209.738 157.114 203.71 152.803 198.21 147.535C195.808 145.235 194.383 141.977 191.671 140.008C188.806 137.928 185.12 137.83 182.286 135.606C177.915 132.177 175.716 127.178 171.802 123.455C167.373 119.242 162.151 117.634 157.375 114.225C150.955 109.644 145.5 103.977 139.375 99.1613C136.058 96.5533 133.577 92.6931 130.424 89.8187C127.555 87.2041 124.245 85.5511 121.17 83.2515C117.926 80.8257 116.129 78.642 112 78C111.453 73.1638 108.774 69.5285 104.914 66.5409C102.679 64.8115 98.2516 63.3613 99.5463 59.7106C100.707 56.4377 104.293 54.0661 107 52.1821C112.802 48.1444 118.914 44.62 125 41.0394C129.045 38.6595 134.496 35.6638 132.253 30.0579C130.271 25.1037 124.332 26.0003 120 26C107.241 25.9992 98.4953 27.526 87 33.3735C77.457 38.2278 68.2824 45.0607 60.4252 52.2855C55.5412 56.7764 50.9843 63.498 45.4105 67.0123C39.7118 70.6054 33.7858 60.3636 27 62.6219C23.4808 63.7931 20.9864 67.1559 18.8619 70C16.8936 72.6351 13.6916 75.7134 12.9545 79C12.2507 82.1379 14.455 85.2673 15.6674 88C19.4043 96.4225 25.5639 102.909 30.7917 110.258C35.7327 117.205 40.0652 123.538 46.5401 129.204C48.7929 131.176 50.8866 134.12 54.0355 134.627C58.9253 135.414 61.8239 129.65 65.0895 127C73.1485 120.461 84.319 111.586 72 102.804C70.0957 101.446 68.1954 100.701 66 100M213 47C207.475 52.8751 201.618 58.327 195.615 63.7137C191.909 67.0395 187.374 70.0279 185.773 75.0039C185.174 76.8674 184.988 78.9511 186.029 80.7014C187.201 82.6736 189.715 83.7563 191.421 85.2091C195.707 88.8586 202.46 99.3298 209.004 97.2137C212.556 96.0652 215.242 92.6998 217.714 90.0887C223.343 84.1425 227.685 77.2518 234 72C235.409 79.5872 235.923 90.617 230.235 96.6975C228.034 99.0515 224.766 100.071 222.285 102.123C218.871 104.947 214.512 109.814 209.985 110.596C203.141 111.78 195.23 105.299 189.09 107.608C186.225 108.685 184.1 111.671 182.069 113.831C180.422 115.583 178.457 117.393 178.457 119.995C178.457 129.728 188.446 120.829 191.184 119.218C192.339 118.539 193.725 118.543 195.004 118.707C200.913 119.465 207.984 123.637 214 122.473C218.759 121.552 221.376 116.767 224.665 113.708C230.914 107.898 239.823 105.224 243.824 97C245.243 94.084 244.802 90.8487 244.884 87.7145C245.066 80.8197 246.202 72.447 244.465 65.7153C243.569 62.242 240.884 58.5466 236.985 58.4421C227.519 58.1884 220.668 70.1009 215.356 76.1551C213.116 78.7075 210.762 82.8279 206.996 83.1929C203.234 83.5575 199.295 79.4597 196 78C204 70.6153 212.211 63.8961 219.729 55.9252C222.247 53.2557 226.66 49.9919 226.708 45.9853C226.774 40.3782 221.786 37.5154 216.999 36.8495C208.746 35.7014 199.713 33.6787 192.001 37.9846C187.716 40.3768 185.032 44.8008 181.536 48.115C176.141 53.2296 165.786 57.4869 163.573 65.0147C161.403 72.3931 164.466 79.7046 164.602 86.9992C164.761 95.5285 156.336 94.1227 153.032 99.3171C150.597 103.146 154.103 107.175 158.005 107.547C161.518 107.882 164.38 105.506 166.91 103.396C169.635 101.124 174.074 98.2971 175.394 94.8958C178.26 87.5107 171.351 78.7371 173.322 71.0903C174.183 67.75 177.458 65.8009 180.001 63.7901C184.73 60.0498 189.565 56.3013 193.718 51.9105C195.893 49.6116 197.853 46.6738 201.004 45.6427C204.668 44.444 209.307 46.5027 213 47z"/>
	<path style="fill:#000;" d="M23 80L23 83C27.6281 86.7511 27.4023 91.9502 30.8503 96.2901C37.8447 105.094 46.5014 112.774 53 122C57.5891 119.385 61.7131 116.079 66 113C64.5012 107.195 58.4487 101.124 58.8233 95.0008C59.0148 91.8708 61.6707 89.4757 64.0154 87.7199C72.506 81.3618 82.9509 84.5148 91 89.9637C102.586 97.8069 111.281 109.489 120.454 119.816C127.703 127.975 136.656 135.211 144.576 142.757C150.854 148.737 161.268 154.184 165 162C168.7 160.445 170.03 158.412 172.039 154.995C173.708 152.156 177.197 148.518 177.056 145.039C176.933 141.975 173.645 139.243 171.561 137.336C165.618 131.896 158.749 127.692 152.857 122.198C146.374 116.153 139.999 109.659 132.871 104.245C126.58 99.4654 119.123 95.6426 113.174 90.4707C110.311 87.9814 109.121 84.3488 106.454 81.7994C103.508 78.9824 99.8925 77.326 97.314 73.9961C95.5551 71.7246 95.1326 68.6768 93.2631 66.5448C91.2792 64.2822 87.7973 63.4978 87.5463 59.9815C87.2667 56.0639 91.2757 53.1911 93.9884 51.0895C100.285 46.2114 104.797 40.795 112 37C105.436 34.329 95.4301 40.1485 90 43.7685C80.6826 49.9801 71.9167 54.7419 64.1698 63.0108C60.773 66.6365 57.1298 70.1443 54.0147 74.0147C51.9312 76.6033 50.0268 80.4441 46.9066 81.9282C39.8766 85.2722 37.935 74.9057 32.8804 73.4614C29.747 72.5661 25.353 78.3355 23 80z"/>
	<path style="fill:#fff;" d="M137 166C146.547 160.426 137.213 150.576 130.514 158.224C129.032 159.915 128.551 161.896 128 164C123.349 160.668 119.794 156.198 115 153C117.697 150.357 122.026 147.541 123.392 143.91C124.844 140.052 122.444 135.637 117.995 136.377C114.737 136.918 112.666 139.751 110 141.402C108.094 142.582 106.022 142.751 104 143.584C96.725 146.581 92.4728 154.155 87.5054 159.671C85.4505 161.953 82.6161 163.309 80.3002 165.289C71.5798 172.745 62.1776 179.947 54.1088 188.17C52.0635 190.254 50.0317 192.874 50.5424 195.985C51.0868 199.302 54.2318 201.506 56.0887 204.09C61.7459 211.959 69.0433 223.441 79 226.276C89.7223 229.33 94.7698 220.519 101.59 214.313C103.69 212.402 106.456 211.644 108.545 209.73C115.454 203.397 121.4 195.953 127.718 189.039C134.958 181.116 140.552 177.204 137 166z"/>
	<path style="fill:#000;" d="M211 209C215.743 205.67 218.524 201.699 222.113 197.31C223.433 195.697 225.75 194.073 225.979 191.83C226.39 187.814 220.358 184.38 218.043 181.711C211.031 173.622 203.662 166.056 195.83 158.576C193.258 156.12 189.496 151.324 185.805 150.662C183.12 150.18 181.172 152.981 179.64 154.734C175.745 159.191 168.067 165.684 172.022 171.91C176.85 179.51 186.345 182.052 191.818 188.85C197.671 196.12 205.435 201.729 211 209M60 194L60 196C64.3259 199.106 68.9271 202.942 72.2901 207.089C74.9104 210.319 78.3207 215.767 82.9961 216.118C87.1467 216.43 89.9539 210.952 93.0355 208.894C102.899 202.308 109.267 193.516 117.3 184.925C119.777 182.276 124.942 179.006 125.052 174.985C125.141 171.744 122.016 169.137 119.999 167C116.109 162.877 112.238 158.652 109 154C100.617 157.736 94.0465 165.485 87.625 171.826C84.8712 174.546 81.2557 176.041 78.2855 178.49C72.0631 183.62 66.846 189.649 60 194z"/>
</svg>