<?xml version="1.0" encoding="utf-8" standalone="yes"?>
<svg xmlns="http://www.w3.org/2000/svg" width="256" height="256">
	<path style="fill:#fff;" d="M165 3C165 5.8833 164.288 10.0244 165.603 12.6775C168.4 18.3237 170.921 10.4061 171 8C175.187 8 179.81 8.55528 183.941 7.85185C185.709 7.55084 187.967 6.49298 187.248 4.25926C186.462 1.8157 183.008 2.0426 180.999 2.00462C175.583 1.90222 170.332 2.01007 165 3M74 9L86 10C86.2298 12.9833 92.008 22.0094 94.2886 15.6775C95.058 13.5414 93.5659 10.8754 92.6512 9.01929C89.5755 2.77751 74.0605 -0.290405 68.6034 4.85803C63.9909 9.20963 70.8737 18.5377 73.6821 12.0116C74.0238 11.2176 73.9424 9.73949 74 9M120 9C119.161 12.6604 116.934 17.1663 117.607 20.956C118.029 23.3315 120.222 25.8033 122.853 24.7438C127.391 22.9156 124.844 14.5925 124.954 11C125.003 9.40781 125.65 7.73795 125.438 6.14815C125.228 4.58183 124.326 3.759 122.851 3.3179C118.459 2.00394 105.248 1.63069 101.303 4.17902C97.8606 6.40292 96.5478 16.6247 101.321 18.2484C104.965 19.4879 105.129 11.7188 107.228 10.0988C110.296 7.7321 116.361 8.9996 120 9M130 23L136 23C136 19.6784 135.322 15.2235 137.179 12.2785C140.451 7.08853 150.801 9 156 9L156 15L162 15C162 12.0726 162.911 7.05098 160.972 4.60339C159.417 2.63945 156.209 3.01599 154 3.00076C148.523 2.96301 135.996 1.00899 131.938 5.59953C128.476 9.51692 130 18.1764 130 23M178 37C176.531 32.0305 178.708 24.6443 175.821 20.3179C172.198 14.8881 156.006 18.408 153.013 23.2137C149.9 28.2124 151.66 34.5984 151.66 40C151.66 43.6619 151.01 47.3131 151 51L147 51C147 46.183 146.36 41.8316 145.799 37.0895C145.534 34.8466 146.216 32.309 145.232 30.189C142.085 23.4058 130.19 29.2915 127 33C125.081 31.4206 123.19 30.0549 121.085 28.7307C119.406 27.6746 117.723 26.3544 115.83 25.7029C103.444 21.4391 106.036 43.3961 106 50C104.425 47.056 104.461 43.1476 102 41C104.127 37.9472 105.721 24.8274 102.397 22.179C100.931 21.0119 98.7585 21.0698 96.9992 20.8457C92.9431 20.3288 84.1403 18.0576 81.0131 21.7423C78.1413 25.1261 78.8667 32.1571 80 36C75.19 31.2896 78.6652 25.6758 76.3966 20.0586C74.8444 16.2151 71.324 16.5654 68 15.4205C63.5138 13.8754 58.3332 9.67075 53.2284 11.7816C49.615 13.2758 50.0853 17.8062 49.9653 21C49.6489 29.422 46.308 38.614 48.314 47C50.5123 56.1898 62.9269 57.4426 65.6466 66.0432C67.6633 72.4207 65.9256 81.3194 66.0108 87.9961C66.0962 94.6884 64.983 101.425 65.0965 108.004C65.194 113.662 67.028 119.112 66.5718 124.91C65.992 132.278 64.0209 139.444 64 147C56.3491 148.474 45.0141 152.164 41.8588 160C38.7589 167.698 40.593 176.207 39.8218 184C39.2917 189.357 33.5824 197.046 37.1937 202.566C38.8481 205.095 42.3635 204.942 44.9961 205.44C48.5037 206.103 51.8892 207.594 54.6644 209.884C63.8066 217.429 71.8866 226.676 82.0394 233.11C88.8601 237.432 96.958 239.641 103.999 243.504C110.595 247.122 115.469 252.288 123 254.362C127.864 255.701 131.688 253.302 136 251.39C142.907 248.328 149.488 244.966 155.925 241.046C158.442 239.513 160.335 237.251 163.039 235.99C177.335 229.322 191.107 220.615 203.996 211.397C208.567 208.128 216.214 202.993 218.817 197.957C220.513 194.675 219.189 191.401 218.835 188C218.429 184.103 218.911 179.921 219.015 176C219.17 170.127 222.693 163.709 219.543 158.109C217.393 154.285 213.525 154.516 210.039 152.701C206.158 150.681 203.057 147.636 198.999 145.796C196.462 144.645 192.657 144.172 191.028 141.686C185.85 133.787 195.094 120.189 186 114C189.094 106.699 186.848 99.8197 186.9 92.1698C186.928 87.9238 189.085 84.1672 189.699 80C190.321 75.779 189.236 71.1627 190.318 67.0394C192.174 59.9642 201.661 59.3638 204.258 52.9568C207.249 45.5752 204.579 34.6759 204.09 27C203.722 21.2211 204.731 15.8185 204 10C197.633 8.81795 185.645 6.86418 180.742 12.51C178.536 15.0513 179.067 18.8941 178.985 22C178.854 27.0308 178.003 31.9426 178 37z"/>
	<path style="fill:#000;" d="M167 29L159 30C158.931 33.3495 157.639 37.4884 158.599 40.7145C160.092 45.7325 165.358 51.4359 161.393 56.8519C158.309 61.0642 143.481 63.7665 139.742 59.5517C135.271 54.5132 136.647 43.5523 139 38C130.944 41.2822 123.878 42.3339 116 38C115.22 43.4655 117.724 50.9214 114.821 55.8526C111.597 61.3288 98.2626 61.3257 95.0278 55.8519C90.9708 48.9869 96.4079 38.5873 95 31L90 31C89.8578 34.1125 89.4173 37.0434 88.3657 40C85.0016 49.4588 74.2557 51.6141 69.1752 41.9846C66.5494 37.0078 68.3938 31.0334 66.3966 26.0586C65.2059 23.0927 62.8519 22.4453 60 22C58.5263 29.1824 55.8736 41.13 60.8935 47.6211C64.8236 52.703 73.0009 53.5346 75.3958 60.0046C77.4398 65.5267 75.9996 75.0366 76 81C76.0007 91.985 74.9534 103.081 75.0826 114C75.1548 120.106 76.0984 124.768 75.2894 131C74.5579 136.634 76.4896 144.796 73.973 149.91C70.2464 157.482 56.7752 161.813 49 162C48.131 173.027 46.9471 184.123 48 195C53.602 196.678 56.3011 200.517 60.456 204.309C64.6246 208.113 69.4113 211.477 74 214.752C87.1121 224.107 101.623 230.98 115.985 237.955C120.139 239.973 122.498 243.513 127 245C132.769 238.104 140.535 238.194 147.715 234.251C152.83 231.441 157.046 227.493 162.04 224.723C166.674 222.153 171.372 220.832 175.83 217.694C180.052 214.724 183.614 210.953 188 208.181C191.926 205.699 195.884 202.967 199.999 200.82C202.31 199.614 205.286 198.848 206.825 196.582C210.632 190.976 208.279 184.128 209.263 178.09C210.037 173.343 213.293 167.88 209.471 163.529C205.159 158.619 194.913 156.352 189 153.619C185.915 152.193 182.205 151.311 180.742 147.892C178.023 141.535 180.288 132.696 179.907 126C179.53 119.389 178.14 112.53 178.144 106C178.146 101.008 179.404 96.0383 179.251 91C178.957 81.3723 178.066 70.5065 180.88 61.0039C183.061 53.6418 189.282 54.1253 193.258 48.7755C195.514 45.7392 194.96 41.5514 195.004 38C195.087 31.2036 196.975 24.683 195 18C193.406 18.5704 191.734 19.0302 190.37 20.0887C182.68 26.0537 192.512 36.2262 188.215 42.811C185.076 47.6203 171.822 51.7296 168.179 45.7716C165.567 41.5005 167 33.8311 167 29z"/>
	<path style="fill:#fff;" d="M82.0193 62.696C79.7166 62.8539 76.3407 64.7239 78.0864 67.4591C79.9369 70.3584 85.6528 71.5048 88.385 73.7731C96.7188 80.6921 105.499 86.028 115 91.1227C118.673 93.0919 122.573 96.7737 127 96.537C131.158 96.3148 134.588 93.0843 138.17 91.3387C147.166 86.9551 155.803 82.6561 164 76.7647C166.098 75.2565 176.828 69.5779 172.377 66.0286C168.226 62.7178 161.986 69.6956 159 71.8302C153.788 75.5559 147.854 78.105 142.424 81.4745C137.909 84.2768 131.842 88.6879 126.166 88.1296C123.95 87.9117 121.982 86.3698 119.961 85.5432C110.891 81.8352 104.177 76.1339 96.4105 70.1798C92.603 67.2607 87.1319 62.3454 82.0193 62.696M99.169 95.8773C89.9008 95.3272 86.8419 109.155 86.7099 116C86.5804 122.71 83.6473 133.712 87.179 139.791C89.5331 143.843 95.0556 146.241 99 148.379C101.52 149.745 104.02 151.629 106.985 151.797C112.23 152.094 113.201 147.2 112.707 143C111.84 135.625 109.759 128.431 109.019 121C108.514 115.923 109.3 111.021 107.906 106C106.765 101.89 104.067 96.1681 99.169 95.8773z"/>
	<path style="fill:#000;" d="M107 146C106.183 139.57 104.118 133.434 103.144 127.09C102.452 122.591 103.294 117.621 102.914 113C102.717 110.596 102.444 104.207 98.9105 104.207C93.9296 104.207 93.3734 114.635 92.8657 118C92.0322 123.526 90.2539 131.274 92.9383 136.571C95.5485 141.721 102.014 143.927 107 146z"/>
	<path style="fill:#fff;" d="M178 178C175.625 186.218 164.713 189.224 158.039 193.351C150.942 197.741 144.378 202.955 136.961 206.941C134.241 208.403 131.182 210.531 128 210.688C123.481 210.912 118.79 206.657 115 204.594C111.146 202.497 106.654 201.932 103 199.525C96.1448 195.01 90.7784 188.305 84.1698 183.344C76.9996 177.961 69.626 172.505 61.9961 167.776C59.9269 166.494 56.1751 163.354 53.608 165.085C51.3147 166.631 52.7968 169.612 54.2292 171.099C58.0651 175.081 63.6777 178.124 68.1551 181.356C82.2617 191.539 95.6927 202.045 110.911 210.263C116.451 213.255 120.167 219.043 126.961 219.682C132.672 220.219 138.3 213.807 142.985 211.285C159.416 202.438 173.347 190.434 188.999 180.846C192.917 178.445 197.843 175.88 200.407 171.907C201.61 170.043 202.419 166.706 199.682 165.708C196.351 164.493 193.552 167.793 191.407 169.715C187.613 173.115 182.968 176.812 178 178z"/>
</svg>