<?xml version="1.0" encoding="utf-8" standalone="yes"?>
<svg xmlns="http://www.w3.org/2000/svg" width="256" height="256">
	<path style="fill:#fff;" d="M53 101C56.2691 100.923 58.9729 100.504 62 99.1944C64.4539 98.1331 70.3945 97.4984 71.9529 95.3873C73.9143 92.7304 71.1657 89.7056 68.9414 88.4529C61.6009 84.319 52.2552 82.453 50 73C55.7027 76.9308 61.9537 80.2354 67.561 84.2091C70.7509 86.4698 73.1172 89.7732 77.0147 90.9406C80.427 91.9627 84.4738 91.0288 88 91L88 85C80.3602 84.9309 77.6888 81.1554 71.561 77.4398C65.462 73.7418 59.662 70.2459 53.831 66.0887C51.4803 64.4128 48.7168 63.2155 47.0093 60.787C45.0488 57.9989 44.7982 54.2311 44 51C50.3819 55.9103 56.1744 61.6136 62.9992 65.9761C67.9172 69.1197 73.7447 71.2204 78.9606 73.8611C81.512 75.1528 90.5351 81.233 92.2485 75.7261C93.5481 71.5488 84.4934 69.8991 82.0895 68.1813C77.9573 65.2286 73.3353 64.0614 69.1698 61.321C61.4955 56.2723 52.9939 46.3867 43 47C43.1037 43.415 43.937 40.406 45 37C56.4795 45.3398 68.5606 53.4648 81.0147 60.2948C86.1382 63.1046 91.0419 66.4849 97 65C94.0754 57.6701 85.7432 54.4156 79.1698 50.892C75.8534 49.1142 73.8241 47.5557 70 48C67.052 42.5296 60.5228 38.6242 55 36C69.492 28.9971 77.5176 45.7917 89.0039 50.6049C92.208 51.9476 99.1918 51.3656 95.3812 46.4097C92.811 43.067 87.439 40.1932 84.0355 37.6713C80.6272 35.1459 77.5693 32.3134 74 30L84 28C85.5051 32.8136 95.3259 39.2716 100.677 37.2932C105.816 35.3935 98.8246 30.512 97 29.4298L91 26L101 24C102.983 30.4458 109.758 32.9298 116 33L116 27L108 23L114 21C118.014 28.519 128.537 34.9 137 35L137 29C131.756 26.6774 127.547 22.756 122 21C129.354 16.554 132.819 20.8309 138.424 26C143.178 30.3839 148.417 34.2388 153.886 37.6613C155.552 38.7037 157.26 40.8136 159.201 41.267C164.715 42.5555 162.984 31.6555 162.081 29.0394C161.182 26.4319 159.436 24.3277 158.173 21.9105C155.703 17.1838 153.542 11.2947 153 6C142.169 6.00716 134.937 10.7826 124.91 13.4167C119.634 14.8029 113.478 14.3814 108 15.5131C93.1199 18.5873 78.5879 22.3325 64 26.2431C56.9036 28.1454 49.6826 28.0777 43.0008 31.2199C40.5384 32.3779 36.9843 33.3671 35.9977 36.2245C34.4305 40.7634 38.9999 46.4915 39.696 51C40.3128 54.9951 39.0919 59.077 39.804 63C40.7418 68.1661 43.9428 73.2757 45.8333 78.1698C48.6497 85.4604 50.6352 93.5036 53 101z"/>
	<path style="fill:#000;" d="M146 13C142.602 14.3588 139.229 15.2068 136 17C141.696 21.4917 147.902 27.1518 155 29C152.774 23.627 149.801 17.4185 146 13z"/>
	<path style="fill:#fff;" d="M99 88L106 88C106.265 81.8219 107.95 76.054 108.791 70C109.393 65.6642 108.992 61.3443 109.804 57C110.354 54.0577 110.377 48.8296 112.742 46.6929C114.609 45.0057 117.748 45.8773 120 45.9614C127.096 46.2265 133.951 47.2256 141 48.0509C146.38 48.6809 151.594 50.3074 157 50.8302C160.492 51.168 164.124 50.4991 167.576 51.0579C171.16 51.6381 174.385 53.6694 178 54.2361C188.557 55.8912 200.321 55.5871 211 56.01C217.403 56.2636 223.694 57.5341 230 58.5617C232.831 59.023 236.036 58.8572 237.991 61.3179C243.542 68.3061 239.335 78.4277 238.428 86C235.832 107.672 232.722 129.183 231 151L196 150L196 156C210.129 156 223.913 157.883 238 158C237.784 140.552 239.023 122.315 241.185 105C242.104 97.6455 245.05 90.4355 246.121 83C247.536 73.1816 246.611 63.6715 245 54C236.002 52.8628 227.028 51.0324 218 50.1698C209.709 49.3775 201.289 49.9237 193 48.9105C176.616 46.9077 160.386 43.7288 144 41.7153C135.694 40.6947 127.3 40.5142 119 39.4244C115.773 39.0007 110.372 37.9865 107.514 40.0278C104.379 42.2664 104.473 48.5547 104 52C102.948 59.6562 102.428 67.3583 101.482 75C100.928 79.4773 99.1321 83.4306 99 88M122.104 56.7616C115.087 59.494 117.396 74.1896 125.907 71.392C134.927 68.4267 129.505 53.8796 122.104 56.7616M147 66C148.256 71.8596 154.958 67.4295 159 67.9722C161.879 68.3588 164.001 70.7841 167 70.8056C170.739 70.8323 174.197 68.0847 178 69.3611C182.748 70.9546 186.203 76.6993 191 77.4167C195.02 78.0177 198.657 76.2356 203 77.4722C206.242 78.3954 209.634 81.5 213 81.5C216.65 81.5 220.012 79.0168 224 79L224 73C219.421 73 214.509 73.5456 210 72.6744C202.639 71.252 194.517 68.0509 187 69C184.578 63.9281 179.88 60.5465 174.001 61.5239C171.425 61.9521 169.175 63.6656 166.576 63.8719C162.822 64.1697 157.826 62.3678 154 61.8681C150.021 61.3485 146.275 58.2961 142.174 59.7184C139.671 60.5865 134.95 65.5687 139.323 67.3434C141.668 68.2951 144.774 66.693 147 66M30.5872 73.0857C28.4922 74.5543 29.2053 78.1858 29.5802 80.2847C30.6792 86.4358 33.5993 93.1203 35.7901 98.9954C36.5389 101.003 38.2963 106.117 41.4151 103.914C43.1959 102.656 42.9053 99.8609 42.2685 98.0887C41.2111 95.1459 38.7103 93.061 37.8387 89.9853C36.6341 85.7341 37.1477 81.323 35.6906 77.0193C35.0246 75.0521 33.3589 71.1426 30.5872 73.0857M117 78L117 84C120.025 84.5621 122.922 84.9364 126 85L126 78L117 78M158 84.4244C134.216 87.5489 111.319 93.6151 88 98.4012C84.1201 99.1976 80.7675 101.606 77 102.779C71.903 104.367 66.2609 104.523 61 105.414C52.4954 106.853 44.5202 110.445 36 111.855C32.1183 112.497 26.43 112.616 24.0131 116.279C21.692 119.796 22.3998 125.025 22.2562 129C22.058 134.484 23.5559 138.723 24.6281 144C26.4321 152.879 27.8144 161.328 30.4699 170C31.6623 173.894 31.48 178.099 32.6335 182C33.9682 186.513 36.9672 190.34 37.9174 195C39.5224 202.871 39.167 210.981 41.1381 219C42.0318 222.636 44.5745 225.43 45.5748 228.999C46.2089 231.262 45.8374 234.192 48.3179 235.396C56.4133 239.325 65.1951 230.064 74 234.058C81.242 237.343 88.5281 250.414 97.0039 249.501C113.22 247.753 117.218 226.383 128.329 217.819C134.056 213.404 144.187 215.391 151 214.91C161.464 214.173 171.627 210.052 182 209.004C187.527 208.445 200.29 209.901 202.049 202.981C202.634 200.678 201.521 198.264 201.208 196C200.75 192.699 200.951 189.379 199.871 186.17C198.459 181.974 195.916 178.323 194.665 174C192.317 165.889 189.134 157.193 187.39 149C186.336 144.052 186.662 138.987 185.331 134.015C183.327 126.527 179.667 119.344 177.494 111.83C175.273 104.154 176.835 94.0016 171.991 87.1481C168.943 82.8354 162.564 83.8248 158 84.4244M17.3333 89.1366C15.0486 90.3723 15.6847 93.1701 16.7616 94.9861C18.4953 97.9099 27.0496 108.285 30.8519 106.744C33.3436 105.734 33.26 103.021 32.2029 100.999C30.3444 97.4444 22.2712 86.4659 17.3333 89.1366M180 93L180 99C184.079 99.7555 188.605 100.767 190 96C197.11 96.9252 206.125 102.373 211 94C215.312 97.1863 218.704 97.9819 224 98L224 92C220.676 91.4955 218.204 89.1728 214.961 88.7145C210.74 88.1181 207.039 90.3226 203 90.7454C199.053 91.1586 195.051 89.6851 191 90.108C187.167 90.5082 183.829 92.5017 180 93z"/>
	<path style="fill:#000;" d="M57 90C57.6836 91.58 57.8048 91.7772 59 93C58.3164 91.42 58.1952 91.2228 57 90M191 198C190.414 184.345 184.785 173.783 181.035 161C177.973 150.559 177.352 139.347 174.362 129C173.318 125.389 170.737 122.53 169.546 119C167.74 113.65 166.879 107.563 165.919 102C165.534 99.7677 165.383 96.5265 163.411 95.0278C160.72 92.9826 155.986 94.4311 153 94.9198C148.087 95.7238 142.797 95.2504 138 96.3025C135.468 96.8579 133.424 98.4558 131 99.277C128.062 100.272 125.003 99.7181 122 100.225C118.766 100.77 116.167 102.872 113 103.567C107.496 104.774 101.635 104.084 96 105.545C92.8204 106.369 90.1513 108.443 87 109.363C82.4439 110.692 77.5512 110.39 73 111.912C69.2231 113.175 65.8937 115.529 62 116.468C54.2863 118.33 46.6086 119.209 39 121.775C36.9031 122.482 33.4564 122.842 32.0432 124.738C30.0215 127.451 32.6359 132.19 33.3349 135C35.2715 142.784 36.2703 151.112 37.6782 159C38.4735 163.455 38.1834 168.383 39.4946 172.715C41.1024 178.026 44.8386 182.629 46.3627 188C47.8445 193.222 47.8936 199.576 48.8063 205C49.4953 209.095 50.701 212.945 51.537 217C51.9573 219.038 51.9016 221.814 53.6026 223.306C58.8363 227.897 67.7455 218.379 73.7145 221.728C78.0008 224.132 83.0654 227.245 86.8449 230.4C89.8022 232.868 92.6985 236.885 97 236.802C105.234 236.644 112.352 223.285 115.471 217C117.085 213.749 117.567 210.176 121.059 208.318C124.699 206.381 129.07 207.262 133 206.896C138.338 206.399 143.616 205.396 149 204.896C163.383 203.559 176.283 198.01 191 198z"/>
	<path style="fill:#fff;" d="M18 106C16.6327 103.66 9.6358 99.5374 9.6358 105.133C9.6358 111.19 19.4591 113.502 23.3773 109.926C27.4576 106.202 20.2265 105.457 18 106M199 113.63C196.147 113.652 190.801 113.349 188.229 114.654C186.211 115.678 185.786 118.506 187.608 119.973C190.271 122.117 198.634 121.447 202.039 121.381C207.646 121.273 213.394 120.856 218.941 120.632C220.536 120.567 222.364 119.909 222.364 118C222.364 115.27 218.934 115.123 216.995 114.85C211.155 114.025 204.887 113.586 199 113.63M114 124C113.494 127.009 113.702 130.215 112.312 133C110.557 136.519 107.383 139.295 105.973 143C103.575 149.301 105.455 157.889 107.387 163.995C108.007 165.957 109.156 171.202 112.416 168.914C117.511 165.336 111.277 155.32 111.039 151C110.653 144.036 118.565 136.923 120.281 130C121.069 126.821 121.893 123.991 119.551 121.228C116.618 117.766 111.276 117.004 107 117.032C95.4998 117.11 84.1525 124.914 82.7793 137C82.4269 140.102 83.4532 152.843 88.7006 151.248C90.564 150.682 90.7059 148.599 90.7307 146.981C90.7976 142.618 89.9276 138.304 91.3912 134.039C94.9335 123.719 105.208 123.819 114 124M189 131C189.325 140.9 195.881 138.087 203 138.289C205.733 138.366 208.28 139.574 211 139.776C214.704 140.051 218.41 138.741 222 138L222 134C211.323 132.018 199.85 131.007 189 131M115.163 181.346C110.598 182.798 114.935 189.351 118.678 188.248C122.78 187.04 118.762 180.201 115.163 181.346z"/>
</svg>