<?xml version="1.0" encoding="utf-8" standalone="yes"?>
<svg xmlns="http://www.w3.org/2000/svg" width="256" height="256">
	<path style="fill:#fff;" d="M188 101C183.203 99.0024 178.883 95.7028 174 94.0162C164.609 90.7725 155.632 90.968 146 89.8711C142.218 89.4404 138.801 87.5996 135 87.1744C127.156 86.2968 118.889 87 111 87C102.976 87 88.9025 84.9266 82.2986 90.564C75.4413 96.4178 75.1478 108.012 72.5748 116C69.4881 125.584 67.4254 135.448 64.4059 145C62.9017 149.759 60.3051 154.17 59.054 159C56.7974 167.713 55.7571 176.381 52.7948 185C50.6498 191.241 49.1953 197.551 47.8812 204C46.9978 208.335 45.7414 211.728 50.1096 214.485C61.336 221.571 75.0321 224.273 86.9105 229.703C90.3876 231.292 92.4479 234.769 96.0039 236.297C99.1365 237.643 102.74 237.808 106 238.77C119.988 242.899 133.583 244.821 148 246.17C155.648 246.885 163.309 246.765 171 246.924C175.43 247.015 178.812 248.188 182.995 246.021C189.972 242.408 190.576 232.806 193.343 226C196.57 218.065 197.453 209.338 199.461 201C202.996 186.319 206.592 171.951 209.015 157C210.038 150.686 212.715 145.094 214.367 139C215.187 135.971 215.383 133.083 213 131C215.249 121.693 203.27 117.775 203.343 109C203.41 100.909 206.906 91.8434 208.611 84C210.989 73.0622 211.986 62.2095 212 51C212.01 42.6364 212.096 35.2215 207.25 28.0008C203.437 22.3188 197.613 17.6125 192 13.7523C182.697 7.3544 172.72 7.68227 162 8.83411C156.301 9.44649 149.402 9.89558 144 11.8179C127.596 17.6552 113.432 32.6329 107.976 49C106.396 53.7405 102.85 59.8573 103.333 64.956C103.848 70.3992 112.47 72.7793 116.298 69.2577C122.147 63.8769 123.149 53.5603 127.423 47.0895C137.075 32.4746 153.709 24.8953 171 27.5903C175.215 28.2473 179.455 28.6982 182.996 31.2747C188.339 35.1616 189.305 39.1787 191.463 45C196.068 57.4213 193.936 66.4601 191.758 79C191.069 82.9662 191.436 87.0891 190.61 91C189.88 94.4599 188.365 97.4353 188 101M54 44C54.8476 54.6503 61.2641 64.2221 67.0293 72.9992C68.2614 74.875 73.0936 82.3397 75.9174 78.392C77.807 75.7504 72.9395 70.2421 71.669 67.9961C67.4223 60.4891 64.0462 44.78 54 44M85 57C83.7151 63.921 82.2081 79.0191 90 82C92.2252 74.4719 90.9348 64.8749 91 57L85 57M42.6227 81.0239C40.4135 82.8125 42.2785 84.9994 44.1489 85.8951C49.1724 88.3008 54.6535 90.259 60 91.8202C61.9074 92.3772 64.5802 93.3567 66.3773 91.9606C69.1302 89.8221 65.8688 87.0525 63.9414 86.0548C59.8537 83.9388 46.7883 77.6514 42.6227 81.0239z"/>
	<path style="fill:#000;" d="M198 123C193.264 126.018 186.334 130.723 181.604 124.721C177.608 119.652 185.063 114.139 180.667 109.394C175.858 104.202 164.728 101.736 158 100.594C142.643 97.9882 127.634 97 112 97C105.242 97 97.5915 96.29 91.0586 98.419C85.3942 100.265 85.6073 109.141 84.331 114C83.0371 118.926 79.9387 123.082 78.6057 128C76.5817 135.468 76.0611 143.788 73.4414 151C68.872 163.58 66.127 176.184 62.4483 189C61.223 193.269 57.1992 201.444 58.6968 205.775C59.5686 208.297 62.6333 209.23 64.7153 210.485C70.2402 213.817 76.3983 215.075 81.9105 218.313C84.7123 219.959 87.033 222.383 90.0147 223.722C92.8648 225.002 96.0059 224.886 99 225.594C105.426 227.115 111.575 229.359 118 230.899C130.275 233.841 141.378 237.024 154 237.36C159 237.494 164.008 236.699 169 237.17C171.596 237.415 175.064 238.645 177.415 236.972C181.152 234.314 181.224 228.03 182.545 224.17C183.758 220.626 186.26 217.516 187.651 214C189.596 209.084 188.408 204.057 189.376 199C190.838 191.355 195.024 184.545 196.536 177C197.923 170.082 196.904 162.841 198.39 156C199.625 150.322 201.402 144.729 202.68 139C203.23 136.531 204.704 133.741 204.052 131.17C203.285 128.141 199.932 125.35 198 123z"/>
	<path style="fill:#fff;" d="M94 104C94.0587 105.787 93.8712 107.918 95.0278 109.441C96.5823 111.487 99.8035 111.782 102 112.833C107.461 115.444 112.115 118.484 118 120.169C125.621 122.351 133.158 125.665 140.83 127.508C149.104 129.497 157.602 129.741 165.91 131.258C170.041 132.013 173.877 134.154 178 135.037C183.227 136.156 189.624 135.956 195 136L195 130C189.123 129.536 183.743 127.667 178 126.769C171.749 125.793 165.312 125.816 159 124.74C147.306 122.747 135.379 118.354 124 114.958C118.371 113.277 112.398 111.055 107.015 108.699C102.213 106.598 99.4622 104.132 94 104M112 178C108.866 179.474 106.959 181.402 104.576 183.915C101.78 186.862 95.8673 190.396 95.8673 194.96C95.8673 198.319 99.4727 200.126 102.004 201.486C109.248 205.378 116.506 210.13 124.001 213.408C127.793 215.067 137.775 217.437 140.972 213.397C143.436 210.282 141.156 205.29 140.455 202C139.3 196.581 140 190.521 140 185C155.557 183.643 166.007 173.936 160.273 158.116C159.295 155.416 158.897 152.937 156.605 150.954C146.191 141.942 133.086 143.674 121 146.765C116.215 147.988 109.649 149.377 107.028 154.105C102.564 162.155 108.741 171.209 112 178z"/>
	<path style="fill:#000;" d="M136 209C136 199.501 134 190.499 134 181C139.284 180.285 147.78 177.982 151.591 174.084C166.144 159.202 141.037 147.253 128.09 150.302C121.92 151.756 110.133 157.129 112.569 164.996C113.869 169.196 119.612 172.049 118.583 176.834C116.958 184.384 106.621 187.817 105.372 194.945C104.666 198.972 110.402 199.306 113 200.348C120.825 203.486 127.417 208.21 136 209z"/>
</svg>