<?xml version="1.0" encoding="utf-8" standalone="yes"?>
<svg xmlns="http://www.w3.org/2000/svg" width="256" height="256">
	<path style="fill:#fff;" d="M45 56C37.6359 57.149 25.9735 69.9799 30.9421 77.8148C33.8079 82.3338 39.6789 83.4891 43.9853 86.0702C47.2225 88.0105 49.597 91.0011 53.0394 92.6474C57.8077 94.9278 63.084 96.1955 67.9105 98.4267C70.5673 99.6549 72.8751 101.924 76.0108 101.472C81.9588 100.615 87.7158 93.859 93 91.1235C97.2609 88.9176 102.346 88.149 107 87.1991C110.845 86.4143 114.415 84.3427 118.17 83.6644C127.631 81.9552 144.835 84.3514 149.721 93.4252C154.265 101.864 141.588 108.604 135 110.49C130.631 111.741 125.498 110.904 121 111.015C114.575 111.173 104.898 112.51 99.0401 115.1C94.7427 117.001 92.6323 121.509 89.8333 125C86.1757 129.562 81.7261 134.544 79.456 140C76.419 147.3 76.1383 155.354 74.6211 163C73.5854 168.22 65.3374 180.851 69.7461 185.254C72.5343 188.038 80.211 186.008 84 186.566C96.5647 188.414 109.71 190.353 122 193.583C125.994 194.633 132.664 197.899 136.254 194.258C138.152 192.333 137.595 189.433 137.721 187C137.921 183.127 138.524 178.781 139.387 175C141.501 165.727 149.3 152.176 157.04 146.558C163.793 141.656 173.991 140.986 182 139.87C192.029 138.472 201.17 136.206 209.961 130.957C221.544 124.04 227.991 111.245 227.969 97.9992C227.963 94.4973 226.683 91.4132 226.209 88C225.473 82.6995 226.473 77.2967 225.536 72C223.205 58.8103 214.835 47.2193 206.25 37.2739C197.184 26.7711 184.646 22.4948 172 18.2623C156.054 12.9256 139.683 12.2301 123 12.9606C116.92 13.2269 110.948 12.6282 105 14.3002C92.5997 17.7862 80.964 24.8573 70.7145 32.186C61.4963 38.7772 47.2621 43.3259 45 56z"/>
	<path style="fill:#000;" d="M49 60C47.5012 65.3503 42.8877 69.2653 40 74C46.1917 77.918 52.662 81.0692 58.8302 84.8765C63.1638 87.5515 67.5288 91.2126 72.9853 91.1497C77.7667 91.0945 80.5944 85.8007 85.0008 84.3943C92.7614 81.9172 101.027 78.6764 109 76.963C111.639 76.3959 114.213 77.0211 116.83 76.6404C123.482 75.6729 128.872 73.133 136 74.5185C143.518 75.9798 152.8 80.0172 157.532 86.3295C164.377 95.4617 159.631 108.247 150.985 114.25C145.224 118.25 140.897 116.28 134.715 117.576C130.727 118.411 127.046 120.277 123 120.91C117.79 121.726 112.07 121.19 107 122.418C103.495 123.267 100.583 125.31 97 126C95.373 134.095 88.0452 140.053 85.9429 148C85.1584 150.965 86.125 153.995 85.7762 157C84.959 164.042 83.5487 171.382 81 178C88.3418 178.001 93.9512 180.193 101 181.628C109.194 183.296 118.691 184.62 127 185C128.745 178.405 129.929 171.22 132.799 165.004C134.974 160.292 138.46 156.446 141.073 151.999C144.146 146.771 145.31 141.349 151.001 138.135C172.658 125.904 204.79 133.761 217.056 107C220.234 100.066 217.023 89.2365 216.125 82C214.806 71.3788 211.591 64.1844 206.417 55.0008C205.226 52.8855 204.759 50.4071 203.262 48.4637C195.941 38.9539 183.918 33.242 173 29.3603C150.756 21.4523 125.749 18.8811 103 25.7708C93.1451 28.7554 80.0518 33.7293 72.1698 40.4591C67.2394 44.6687 61.9788 49.011 57.2091 53.375C54.2832 56.052 52.849 58.6209 49 60z"/>
	<path style="fill:#fff;" d="M91.0394 198.489C85.7766 199.206 79.4203 198.987 75.0548 202.433C66.82 208.933 65.0573 226.876 72.3032 234.786C79.0704 242.173 88.1278 241.807 97 243.259C101.845 244.052 105.967 245.498 111 244.791C125.014 242.821 141.175 226.228 130.775 212.093C126.775 206.656 121.898 206.675 116 204.871C108.054 202.441 99.6819 197.312 91.0394 198.489z"/>
	<path style="fill:#000;" d="M77 225C79.1285 226.88 80.8909 229.495 83.3002 231.012C91.541 236.204 101.935 235.456 111 234.13C117.478 233.182 126.391 227.902 123.141 220.015C119.613 211.452 111.277 212.733 104 211.552C95.8142 210.224 83.3072 202.812 78.6026 215.015C77.4492 218.007 77.5886 221.83 77 225z"/>
</svg>