<?xml version="1.0" encoding="utf-8" standalone="yes"?>
<svg xmlns="http://www.w3.org/2000/svg" width="256" height="256">
	<path style="fill:#fff;" d="M152 88C150.654 84.1713 147.674 84.1118 144 83.1427C136.178 81.0795 125.017 81.134 117 82.2099C105.821 83.71 94.1132 83.232 83 85.3758C75.8213 86.7605 69.1673 90.3957 62 91.6782C52.1716 93.437 41.9278 93.5822 33 98.2901C24.1349 102.965 16.1828 101.79 12.6991 113.17C11.8885 115.817 12.7428 118.325 12.6211 121C12.4515 124.731 11.0477 128.192 11.0039 132C10.9564 136.123 12.4082 139.99 12.4159 144C12.434 153.385 10.8258 163.525 12.2137 173C13.4964 181.757 17.6308 190.281 21.6273 197.996C24.6442 203.82 27.9208 210.937 34.1705 214.015C40.0195 216.896 47.8073 213.711 54 214.3C63.545 215.208 73.3855 216.789 83 215.896C86.1113 215.607 88.9133 214.142 92 213.814C96.2869 213.358 100.673 214.244 105 213.83C113.194 213.047 120.457 210.96 128.17 208.545C132.266 207.262 136.83 208.161 141.039 207.805C152.419 206.841 163.445 204.236 174 200.09C179.877 197.781 186.123 194.862 189 189C201.639 197.634 214.766 205.157 227.961 212.997C231.711 215.225 239.337 220.576 243.667 217.215C249.068 213.023 240.861 202.095 240.35 197C240.081 194.327 240.938 191.68 240.871 189C240.694 181.857 239.258 174.016 237.904 167C235.536 154.726 231.084 142.577 230.093 130C229.746 125.591 230.769 121.372 230.961 117C231.252 110.35 230.48 103.608 229.83 97C228.78 86.3204 225.279 75.7454 225.015 65C224.831 57.5141 225.573 50.9387 222.306 44.0008C221.385 42.0452 220.698 39.2219 218.687 38.0718C216.154 36.6234 213.122 38.3242 211.039 39.8032C206.171 43.2617 201.769 47.9238 198.718 53.0039C193.359 61.9273 184.965 67.6062 178.602 75.6651C176.002 78.9577 177.011 83.2995 172.891 85.6821C167.447 88.8308 158.127 88.1427 152 88z"/>
	<path style="fill:#000;" d="M214 51C210.15 54.2757 208.761 58.207 205.571 61.8526C203.412 64.32 200.089 64.9295 197.9 67.3133C192.688 72.9905 188.849 79.9292 183.698 85.7099C180.749 89.0196 180.378 94.3585 175.895 96.2577C171.164 98.2621 164.825 96.5422 160 95.7539C153.403 94.6761 146.498 94.6255 140 93.1775C135.583 92.193 131.603 89.5882 127 89.3943C123.896 89.2635 121.074 90.7052 118 90.8565C114.991 91.0045 111.99 89.8375 109 90.4684C105.803 91.1428 103.294 93.3837 100 93.8557C89.0944 95.4181 77.819 95.1199 67 97.2647C59.1047 98.8298 51.3515 101.804 44 104.879C37.6084 107.552 27.4126 106.774 22.9884 113.34C19.9448 117.858 20.6274 124.895 20.9144 130C21.2184 135.409 19.851 140.719 20.1443 146.09C20.3288 149.469 21.703 152.621 21.892 156C22.0613 159.026 21.2242 161.978 21.375 165C21.8947 175.415 25.7419 185.041 30.8495 194C33.153 198.041 34.8749 202.659 39 205C38.8096 196.063 34.7633 188.76 33.0069 180.285C32.3007 176.878 31.5271 172.277 33.8588 169.318C36.9645 165.377 43.7306 167.381 48 167.251C50.7026 167.168 53.3461 166.385 56 165.924C77.6061 162.166 101.034 162.295 122.09 155.91C128.335 154.017 134.648 153.27 141 151.881C143.074 151.428 146.546 150.231 148.387 151.893C150.086 153.427 149.471 159.631 150.096 162C151.751 168.282 152.631 174.754 154.43 181C155.718 185.475 157.835 189.269 158 194C168.375 191.987 175.721 188.364 184 182C182.566 175.729 182.019 169.182 180.53 163C179.461 158.562 177.091 154.551 176.326 150C174.706 140.375 175.183 130.445 172.715 121C171.395 115.946 170.272 111.223 169.803 106.002C169.688 104.717 168.979 101.943 170.573 101.207C172.401 100.362 174.316 102.765 175.142 104.039C177.324 107.402 177.845 112.78 178.1 116.715C178.322 120.141 177.733 123.578 178.209 127C180.619 144.33 187.636 161.376 188 179C197.446 180.82 204.432 187.501 212.09 192.672C218.025 196.681 225.397 199.291 232 202C231.994 192.633 229.49 184.137 228.015 175C224.774 154.931 221.751 134.214 220.093 114C218.786 98.0511 218.22 81.74 215.464 66C214.6 61.0692 215.941 55.6261 214 51M38 173C38.7669 180.652 41.0045 189.622 43.2832 197C44.1318 199.748 44.7939 203.288 47.3943 204.972C50.9757 207.292 56.1123 205.361 60 205.259C66.8285 205.08 72.1083 206.669 79 205.375C88.1786 203.652 97.7566 204.755 107 203.896C111.746 203.455 116.167 201.401 121 201.336C130.634 201.205 143.015 201.621 152 198C150.476 184.222 146.547 171.374 143 158C133.657 159.181 125.162 162.002 116.039 163.721C111.715 164.535 107.407 163.322 103 164.221C86.1823 167.651 70.0599 169.518 53 171.104C47.8603 171.582 43.2578 172.997 38 173z"/>
</svg>