<?xml version="1.0" encoding="utf-8" standalone="yes"?>
<svg xmlns="http://www.w3.org/2000/svg" width="256" height="256">
	<path style="fill:#fff;" d="M35 51C33.4598 56.2127 35.0607 60.748 34.7909 66C34.0305 80.8007 35.5062 95.218 35.8711 110C36.0982 119.197 35.0992 128.736 35.0039 138C34.8788 150.155 35.6309 162.478 34.6566 174.576C34.1897 180.373 31.2768 185.876 31.0401 192C30.8325 197.373 32.1055 202.601 32 208C27.5105 209.418 25.0639 215.965 31.1088 217.527C37.8967 219.281 46.1954 214.433 53 214.043C59.984 213.643 67.0182 212.446 74 212.259C86.207 211.934 98.7287 212.998 111 211.83C116.763 211.282 122.382 210.639 127.999 209.231C130.058 208.714 132.655 208.382 133.968 206.487C137.442 201.47 130.102 199.811 128.179 196.722C126.477 193.988 127.002 190.075 127 187C134.342 186.105 141.448 182.358 149 184.545C156.808 186.806 166.547 191.215 172.741 196.51C176.522 199.743 178.543 204.048 183 206.713C188.328 209.899 195.9 210.964 202 211.714C207.105 212.341 211.94 211.34 217 211.34C221.167 211.339 224.821 212.153 228.995 211.177C233.987 210.01 237.096 205.306 232 202C239.107 197.157 235.339 185.455 235.34 178C235.34 165.096 234.601 151.881 232.791 139C231.443 129.413 227.63 118.716 228.935 109C230.067 100.575 229.159 93.6473 228.376 85.2855C228.111 82.4587 229.528 79.0597 227.254 76.7423C224.81 74.252 220.074 74.9612 217 75.439C209.892 76.5437 203.164 77.8774 196 76.2415C189.042 74.6528 187.041 70.7204 181.791 66.7021C178.257 63.9971 172.154 61.4413 167.961 59.8526C158.105 56.1189 149.1 57.821 139 57.821C134.019 57.821 129.027 57 124 57L124 49C131.264 48.171 133.092 39.7537 124.985 38.2284C117.336 36.7894 109.175 38.505 101.576 39.0525C96.2522 39.4361 91.267 38.0866 86 38.0185C76.5733 37.8967 67.4214 41.4488 58 42.0764C49.7149 42.6283 41.2996 42.3242 33 42.7917C30.7345 42.9193 28.2502 42.2348 26.044 42.912C22.2683 44.071 19.9069 49.527 24.2323 51.7168C27.1496 53.1938 31.8378 51.1616 35 51z"/>
	<path style="fill:#000;" d="M58 66C63.2034 66.3032 67.8749 65.9651 73 65L73 52C69.6193 52.4273 63.2396 52.0574 60.7423 54.6034C58.2788 57.1149 58.4188 62.6894 58 66M79 53C78.9107 57.1939 77.9288 60.9368 77 65C81.634 63.8967 91.7819 65.9127 94.6821 61.6821C96.355 59.2418 95.9904 55.8024 96 53C90.16 52.9516 84.8367 52.2662 79 53M102 53C101.997 56.7325 102.303 59.9602 100 63C103.696 64.5508 108.049 64.0592 112 65L112 67C101.656 69.577 92.5231 69.3682 82 70.0895C69.2419 70.964 56.8589 72 44 72C44 91.6778 44.0072 111.371 44.4552 131C44.7201 142.602 45.6195 154.39 44.8596 166C44.4012 173.002 42.1668 179.837 42 187C50.0257 186.267 58.9556 186.179 66.8302 184.741C73.9786 183.435 80.5774 181.457 88 181.259C92.6931 181.134 97.3227 182.69 102 182.896C106.325 183.086 110.654 182.036 115 182C115.536 174.967 114.529 168.025 115.093 161C115.393 157.268 116.966 153.779 116.79 150C116.183 136.967 113.612 123.965 113.039 111C112.199 91.9653 114.462 72.8259 116 54C111.284 53.404 106.763 53.0005 102 53M43 67C46.694 66.1205 50.2143 66.0025 54 66C53.6264 63.0468 53.7644 57.9926 51.8218 55.6073C50.0352 53.4135 46.8133 54.4021 45.3943 56.4336C43.3022 59.4288 43.082 63.4947 43 67M124 67L124 73L131 73C130.948 70.4716 130.722 68.4181 130 66L124 67M137 66C137.11 75.3129 141.737 73.0288 149 75L149 67L137 66M155 68C155.37 75.9373 159.571 77.9947 167 79C165.502 71.1053 163.044 69.0441 155 68M172 74C173.959 82.1315 175.502 86.078 184 89C181.917 80.279 180.819 77.3184 172 74M125 163C140.855 163 158.925 160.161 173.985 166.483C181.632 169.693 186.195 178.671 193.001 183.377C203.067 190.337 214.54 189.448 226 188C226.076 184.337 226.995 180.647 226.79 177C226.487 171.6 224.468 166.404 224.09 161C223.037 145.985 222.841 130.959 222.275 116C221.858 104.967 219.314 96.1535 222 85C216.235 85.4709 210.841 86.9839 205 87L205 98C208.344 98.2768 212.734 97.0394 215.847 97.9028C218.373 98.6033 218.832 101.487 216.663 102.969C214.775 104.259 212.128 103.758 210 103.694C203.055 103.488 197.473 102.082 191 99.5725C181.333 95.8244 173.508 88.6532 164 84.9337C158.826 82.9097 152.429 83.3732 147 81.8495C140.66 80.07 131.995 76.4803 125.39 79.6034C118.785 82.7269 122.721 94.5825 122.961 100C123.373 109.324 124.725 118.735 124.907 128C125.057 135.614 123.092 143.38 123.183 151C123.231 155.046 124.814 158.922 125 163M189 84C189.936 90.3297 191.841 93.8237 198 96C200.258 88.3475 196.618 84.7804 189 84M151 175L151 168C148.305 167.66 144.785 166.514 142.164 167.618C139.78 168.622 139.296 171.401 141.453 172.974C143.782 174.672 148.213 174.482 151 175M125 169L124 176L133 175L133 169L125 169M156 169C157.279 175.421 159.62 177.483 166 179L165 171L156 169M172 173C172.839 176.323 172.335 180.593 173.613 183.664C175.8 188.924 181.882 193.99 187 196C184.466 185.714 181.184 179.126 172 173M166 181L167 182L166 181M79 189C80.2102 193.347 80.4876 197.545 81 202L98 202C96.7038 196.327 96.2151 192.642 98 187C91.464 186.309 85.1979 186.741 79 189M100 187C101.498 191.717 102.786 196.042 102 201C106.233 201 117.487 203.085 118.154 196.941C118.436 194.335 116.744 191.443 116 189C110.537 188.872 105.49 187.049 100 187M59 204L75 202C75.4376 197.556 74.1518 193.406 75 189C70.93 189.084 60.7134 189.23 58.6034 193.433C57.0899 196.448 58.4228 200.891 59 204M191 191C191.105 199.902 195.977 200.978 204 201L204 194C199.458 193.629 195.371 192.169 191 191M41 193C40.7892 197.125 39.429 200.878 40 205C44.3693 204.189 48.5637 204 53 204L53 192L41 193M210 194C211.643 205.856 219.252 201.448 228 201C224.974 192.623 217.315 195.742 210 194z"/>
</svg>