<?xml version="1.0" encoding="utf-8" standalone="yes"?>
<svg xmlns="http://www.w3.org/2000/svg" width="256" height="256">
	<path style="fill:#fff;" d="M188 184C197.008 184 206.038 182.874 215 183.39C218.421 183.587 221.491 185.007 225 184.981C228.309 184.956 235.689 185.102 238.012 182.397C241.359 178.498 238.818 173.073 237.619 169C235.585 162.092 234.378 154.76 232.498 147.83C231.691 144.855 232.661 141.986 232.741 139C232.9 133.024 232.838 127.015 232.985 121C233.135 114.857 231.624 109.063 231.456 103C231.163 92.3897 232.599 81.5946 232.78 71C232.942 61.5332 236.761 55.5627 239.397 46.9113C240.083 44.6567 239.533 42.2727 237.682 40.7423C235.313 38.783 231.876 39.0159 229 39.0008L210 39C199.942 39 189.987 41.0181 180 40.9699C175.865 40.95 172.1 39.2715 168 39.0432C156.686 38.4132 145.408 39.5312 134.17 39.8418C131.35 39.9198 128.794 38.3906 125.996 38.1073C117.581 37.2552 108.441 37.2443 100 37.0185C84.4608 36.6028 68.597 38.9008 53 38.5448C46.9013 38.4055 39.9091 38.0956 34 36.5093C30.9848 35.6998 27.5189 33.2023 24.4336 35.1944C21.3861 37.1622 21.9285 41.931 22.2855 45C23.1102 52.0899 25.3576 59.9213 24.9097 67C23.7171 85.8497 22.4224 104.228 21.1852 123C20.9133 127.125 23.1452 130.922 22.5015 135C21.0277 144.336 19.1399 153.622 17.7917 163C17.1789 167.262 15.179 170.827 17.4344 174.995C21.5986 182.691 30.5845 181.398 38 180.424C46.1806 179.35 53.0589 181.404 61 181.946C64.2757 182.17 69.3194 180.889 72.3187 182.362C75.7548 184.05 69.7313 188.615 68.723 190.09C67.2578 192.234 66.6715 194.813 65.277 197C62.7603 200.947 51.6776 210.283 60.1481 214.436C68.3493 218.457 78.281 217.256 87 218.285C94.3473 219.153 101.664 219.422 109 220.104C112.061 220.389 114.919 221.731 118 221.806C122.566 221.918 127.16 220.504 131.715 220.316C145.057 219.768 158.468 218.656 172 217.973C181.195 217.509 189.212 215.242 198 212.886C201.299 212.001 205.798 213.104 207.083 208.891C208.218 205.173 205.335 202.189 202.942 199.83C197.745 194.706 192.614 189.666 188 184z"/>
	<path style="fill:#000;" d="M27 171C32.653 171.004 36.761 173.157 42.0895 173.867C51.2243 175.085 61.783 174.463 71 174.165C75.4339 174.022 83.166 170.89 85.1528 177.109C86.2466 180.533 83.5688 184.175 82.0039 187C80.3908 189.912 79.4462 193.097 77.8681 196C75.7365 199.92 72.9065 202.505 72 207C76.8349 207.044 80.3909 208.857 85 209.726C92.6811 211.174 101.152 212.466 109 212.907C117.235 213.369 123.961 209.131 132 213C138.052 209.008 143.299 211.644 150 210.7C164.458 208.663 178.623 206.444 193 204C188.721 196.529 176.862 191.647 176.312 182.004C175.911 174.953 184.039 174.873 189 174.285C194.557 173.628 201.458 172.565 207 173.189C210.44 173.576 213.541 175.452 217 175.62C220.927 175.811 225.028 175.003 229 175C228.582 170.831 226.784 167.122 226.171 163C225.16 156.214 226.544 149.725 225.826 143C224.148 127.267 220.93 111.952 221.001 96C221.051 84.7883 225.192 74.9189 226.699 64C227.385 59.0341 226.041 53.9929 226 49C217.383 49 208.597 49.4992 200 48.9105C193.342 48.4546 186.684 46.997 180 47.0077C175.81 47.0145 172.106 48.5141 168 48.8958C159.578 49.6789 150.449 49.3442 142 48.9606C130.692 48.4473 119.461 45.313 108 45.6836C99.6896 45.9524 91.4254 48.2197 83 47.9645C71.267 47.6092 59.5488 50.1244 48 47.6613C44.1828 46.8471 36.073 43.3092 32.6034 46.0285C30.4519 47.7148 30.9941 51.5979 30.8696 54C30.442 62.2461 33.9654 69.8897 33.9915 78C34.0061 82.5401 32.223 86.5458 31.8619 91C31.1147 100.215 32.3766 109.755 31.6752 119C30.3693 136.211 25.6764 153.621 27 171z"/>
	<path style="fill:#fff;" d="M44 62C44 71.2717 43.4224 80.7507 44.054 90C44.2639 93.0741 45.65 95.9281 45.7014 99C45.7794 103.664 44.2437 108.334 44.0394 113C43.7038 120.662 44.5632 128.367 44.3164 136C43.9859 146.219 40.3828 153.876 44 164C51.8226 163.935 59.2603 161.632 67 161.09C74.766 160.545 82.2974 161.623 90 161.961C95.6766 162.209 101.393 161.136 107 161.379C142.155 162.905 177.681 170.464 213 166L213 161C221.719 159.576 216.599 152.145 214.75 146.715C213.903 144.226 213.93 141.545 213.29 139C212.156 134.488 212.64 130.536 212.165 126C211.479 119.443 209.631 112.541 209.495 106C209.397 101.332 210.593 96.6415 210.91 92C211.343 85.6855 210.586 79.3087 211.093 73C211.449 68.5748 212.904 64.4875 213 60C204.96 59.6779 198.739 62.1387 191 62.8951C182.659 63.7103 174.312 62.5208 166 63.0895C158.953 63.5717 151.962 65.7281 145 65.9815C124.437 66.7299 103.474 66.3125 83 64.9105C70.0495 64.0237 56.9805 62.0358 44 62z"/>
	<path style="fill:#000;" d="M48 158C58.8448 156.164 68.942 157.128 80 156.996C90.7476 156.868 101.223 155.905 112 156.66C118.313 157.103 124.613 158.713 131 158.871C134.027 158.946 136.97 158.021 140 158.213C148.322 158.74 156.711 161.003 165 161.571C180.783 162.652 197.131 161 213 161C209.403 153.845 209.06 146.677 207.625 139C203.502 116.94 201.684 91.0722 207 69C196.3 64.0928 180.275 69.0005 169 69.9066C160.061 70.6251 150.962 69.7526 142 70.0154C137.547 70.146 133.453 71.854 129 71.9846C114.959 72.3963 100.985 71.0054 87 71C78.3318 70.9967 69.4934 70.1802 61 68.4861C58.0819 67.9041 53.3949 65.8405 51.0278 68.7431C49.5296 70.5802 50.0045 73.8087 50 76C49.9897 80.9966 50.126 86.0087 49.8696 91C49.6071 96.1099 50.8207 100.949 50.821 106C50.8221 122.965 50.4934 141.229 48 158z"/>
	<path style="fill:#fff;" d="M126.999 77.1127C123.484 78.2344 120.866 81.4653 118 83.6211C112.587 87.6921 101.47 89.4879 98.6034 96.2091C97.1639 99.5838 98.6605 103.519 98.6605 107C98.6605 114.969 97.3595 122.982 98.0586 131C98.2952 133.713 99.1993 135.744 101.148 137.675C103.176 139.684 105.731 141.161 107.985 142.895C113.136 146.856 120.62 154.627 128.001 152.138C131.193 151.062 133.912 148.72 136.996 147.359C143.951 144.29 153.836 141.745 157.875 134.54C160.794 129.333 158.693 120.785 159.09 115C159.42 110.179 161.398 104.876 160.812 100.058C160.369 96.4055 156.694 95.0732 153.999 93.1821C148.006 88.9763 142.11 84.6236 136.17 80.3434C133.409 78.3541 130.646 75.949 126.999 77.1127z"/>
	<path style="fill:#000;" d="M107 99C112.695 102.886 119.052 109.414 126 110.836C133.291 112.328 146.316 105.128 151 100C144.881 95.3747 138.895 87.1115 131.715 84.1605C128.807 82.9658 126.148 85.4629 124 87.081C118.577 91.1664 110.136 92.759 107 99M103 104C103.118 109.699 104 115.274 104 121C104 124.429 103.339 128.779 105.028 131.91C108.179 137.751 117.196 142.286 123 145C123 137.318 125.43 127.229 122.736 120.004C120.202 113.209 109.426 106.72 103 104M153 105C146.754 111.779 137.067 116.277 128 118L129 143C137.606 141.472 143.784 134.245 152 133C153.059 127.296 152.625 121.729 153.17 116C153.536 112.154 154.532 108.658 153 105z"/>
</svg>