<?xml version="1.0" encoding="utf-8" standalone="yes"?>
<svg xmlns="http://www.w3.org/2000/svg" width="256" height="256">
	<path style="fill:#fff;" d="M108 153C102.306 153 86.0052 150.337 84.3611 158.058C83.7866 160.756 85.1008 163.532 86 166C79.5665 166.276 74.9164 168.169 69 170.282C65.8101 171.421 62.0754 171.284 60.0278 174.483C56.8401 179.463 60.1687 186.9 55.5664 191.57C49.7586 197.463 35.954 194.675 31.9383 202.329C29.2948 207.368 32.7668 214.65 33 220C26.9223 221.03 14.8224 222.367 10.7022 227.279C8.19959 230.262 8.02678 234.384 6.53318 237.83C5.09794 241.142 -2.53729 250.296 5.10957 252.029C13.0544 253.83 14.9792 239.357 19.3897 235.564C26.9307 229.08 42.8259 234.038 42.841 221C42.843 219.298 42.7871 217.645 42.3017 216C41.4928 213.259 39.9897 210.688 39 208C46.2343 207.535 56.317 204.076 62.9961 201.157C65.3051 200.147 67.7231 198.366 68.7122 195.96C71.2647 189.751 63.3292 186.798 70.0586 180.939C76.8248 175.048 86.123 177.49 93.9414 173.941C98.4848 171.879 98.9483 166.79 95 164C106.33 160.651 120.225 162.33 132 161.985C138.096 161.806 143.794 160.001 150 160C151.799 168.849 160.825 176.697 166.69 183.169C169.335 186.088 171.447 190.112 175.985 189.793C179.561 189.542 181.393 186.284 184.039 184.327C187.114 182.054 190.362 180.982 194 180C194.507 186.428 195.854 192.653 196.853 199C197.229 201.389 196.9 204.392 198.745 206.258C203.555 211.12 213.875 206.819 219 205C217.58 210.406 213.301 226.569 221.059 228.682C228.076 230.594 234.828 224.904 242 225C242.063 228.052 242.504 230.973 242.834 234C243.272 238.014 247.781 249.466 252.972 241.682C254.433 239.492 253.89 236.429 253.576 234C252.862 228.483 252.893 216.554 246.772 213.743C240.4 210.817 233.582 217.923 227 218C226.849 212.542 229.777 201.016 225.397 196.742C221.683 193.119 210.535 196.92 206 198C205.942 191.006 204.868 183.872 203.575 177.001C202.823 173.005 201.737 169.303 196.985 169.213C189.468 169.07 181.412 177.92 174.105 176.045C170.871 175.215 169.844 171.544 168.275 169.042C166.536 166.268 163.681 164.527 161.969 161.791C160.67 159.715 160.343 157.307 158.571 155.495C155.812 152.675 150.986 150.038 146.996 150.147C144.147 150.226 141.025 151.899 138.263 150.578C134.966 149 132.46 143.248 130.995 140.09C129.773 137.457 130.01 134.778 129.525 131.985C128.135 123.984 125.329 114.125 132.228 107.379C138.05 101.687 155.288 103.354 153 93C159.257 98.7345 161.375 109.123 170.001 111.941C182.582 116.052 201.463 112.943 212 105.105C215.065 102.825 219.496 100.959 220.552 96.9568C221.735 92.4702 219.258 87.3772 218.463 83C216.866 74.2048 216.03 64.8362 215.1 56C214.426 49.5928 211.746 44.9475 210.235 38.9105C209.03 34.0997 210.024 29.7968 209.87 25C209.772 21.931 209.045 17.9138 205.856 16.608C196.367 12.7234 193.237 30.2319 191 36C188.988 31.7541 187.153 25.4834 182.815 23.0285C178.246 20.4432 172.074 23.6324 167 21.8711C160.128 19.486 154.071 15.4031 147 13.5802C130.713 9.38167 105.195 14.0958 99 32C95.9792 23.9339 99.2238 13.3237 93.9946 6.15201C90.0069 0.683044 77.9987 4.42722 75.7816 10.1844C74.6812 13.042 75.786 17.0367 76.0756 20C77.0698 30.1724 79.8926 40.3112 82.9715 50C85.908 59.2409 87.4813 68.7227 90.1412 78C91.8999 84.134 94.7406 89.7428 96.115 96C97.5911 102.72 98.0847 109.293 99.6813 116C102.57 128.135 102.034 141.632 108 153z"/>
	<path style="fill:#000;" d="M87 14C85.0148 20.7162 86.6882 27.2952 87.9992 34C89.9812 44.136 91.7857 54.4807 96 64C97.3326 59.6117 94.5626 55.4395 94.2238 51C93.9928 47.9743 94.9609 45.0314 94.6605 42C93.9578 34.908 90.7452 28.6591 88.6875 22C87.8577 19.3144 88.0868 16.5842 87 14M101 39C104.711 50.5633 109.542 62.245 112.486 74C113.808 79.2772 113.192 84.7982 114.415 90C115.755 95.6969 118.882 101.509 121 107C126.839 103.945 129.845 98.2364 135.001 94.3171C137.51 92.4093 141.056 92.1273 143.116 89.6829C146.075 86.1714 146.658 79.4523 152.019 78.5424C155.813 77.8983 158.32 80.9511 160.421 83.591C164.379 88.567 168.434 99.1541 174.133 101.867C183.847 106.49 191.818 103.285 201 99.7029C204.105 98.4915 208.769 97.6518 209.643 93.8912C210.879 88.572 207.944 81.352 207.286 76C206.756 71.6808 207.262 67.3226 206.829 63C206.316 57.8674 204.293 53.0623 203.604 48C203.077 44.1266 203.989 39.9264 204 36C200.553 40.1764 199.347 50.896 192.989 51.534C184.614 52.3743 183.129 37.5341 177.61 34.0278C172.986 31.09 164.41 32.4112 159 30.4275C148.352 26.523 138.431 18.6329 126.17 21.2747C116.707 23.3135 108.234 33.2168 101 39z"/>
	<path style="fill:#fff;" d="M134 42L134 44C129.51 43.6352 125.659 39.1897 121.149 39.581C113.616 40.2346 124.057 47.9867 126 49C124.127 52.1779 118.86 56.1024 118.867 59.9051C118.873 62.7408 121.685 63.5529 123.925 62.5772C127.093 61.1975 129.359 57.8687 131 55L136 57C132.365 62.308 129.075 65.3007 129 72L135 72C136.173 67.8214 138.501 65.4935 142 63C142.637 64.3235 143.162 65.7609 144.139 66.8958C146.042 69.1066 151.133 70.8675 150.338 65.9568C149.852 62.9568 147.388 61.3624 145 60L149 57C151.007 60.9947 153.77 64.8123 158.01 66.7022C159.886 67.5384 163.346 67.9591 163.365 64.9406C163.388 61.2288 157.127 55.956 155 53C160.592 52.9494 164.489 52.425 164 46C157.618 46.0183 148.556 50.8906 145 44C148.721 43.9232 153.432 43.9233 156.851 42.2724C158.71 41.3748 160.612 38.7441 158.377 37.0633C154.501 34.1485 143.237 38.901 139 40C137.785 36.5906 132.045 29.3565 127.658 33.0432C123.649 36.4127 131.651 41.07 134 42z"/>
	<path style="fill:#000;" d="M136 50L141 54C142.27 53.0275 143.027 52.2699 144 51C141.052 48.1496 139.177 46.9655 136 50M101.333 75.6667C101.278 75.7222 101.222 76.7778 101.667 76.3333C101.722 76.2777 101.778 75.2223 101.333 75.6667M103 86C103.122 91.9088 105.123 97.2146 105.816 103C106.2 106.211 105.492 109.688 106.314 112.83C107.108 115.866 109.736 117.941 110.567 121.004C111.88 125.839 111.666 131.069 113.011 136C114.131 140.106 114.661 148.411 118.43 150.972C120.517 152.39 123.613 151.992 126 152C121.176 139.567 116.317 126.997 113.236 114C110.937 104.303 110.757 93.007 103 86z"/>
	<path style="fill:#fff;" d="M32 104C32.0253 111.373 35.4263 116.293 38.0386 123C39.2166 126.025 40.9989 129.396 40.1535 132.715C36.1556 148.41 15.8015 157.727 14 174L19 174C21.1659 166.288 29.5799 161.573 34.7731 155.83C38.4698 151.743 42.1596 144.649 44.7454 139.715C48.6204 132.32 45.46 127.088 42.811 120C41.779 117.239 39.7437 113.113 40.6258 110.109C41.5424 106.986 45.2958 106.079 48 105.168C55.6842 102.581 64.078 99.6325 72 98C72.5017 102.619 74.874 105.831 76.7029 110C78.4502 113.983 79.7045 119.065 83.2747 121.867C85.3269 123.477 95.3642 127.598 95.3642 121.995C95.3642 118.689 88.8319 116.54 86.8789 114.25C85.1173 112.185 84.6325 109.554 83.4753 107.169C80.884 101.828 77.4315 96.833 76 91C60.3212 91.0017 47.1121 100.886 32 104M135 136L141 136C141.596 131.284 141.999 126.763 142 122C149.717 122 157.306 123.033 165 122.999C168.326 122.985 172.919 121.787 175.867 123.693C181.087 127.068 183.009 139.243 184 145C188.757 145 193.296 144.841 198 144.08C200.832 143.622 203.993 142.698 206.482 144.618C212.792 149.485 215.457 158.965 219.286 165.575C220.484 167.641 222.649 172.198 225.726 171.248C228.223 170.478 227.893 167.25 227.022 165.424C224.442 160.018 219.835 155.549 217.495 150C215.693 145.727 215.014 140.804 211.239 137.603C206.73 133.78 194.078 137.281 189 139C187.386 131.465 182.949 124.749 182 117C170.93 117.221 160.04 116.004 149 116C145.757 115.999 139.359 114.862 137.028 117.742C134.214 121.22 135.012 131.609 135 136M65 156C59.247 154.129 55.034 153.254 49 154C47.6086 161.494 46.021 169.383 46 177C41.4037 176.545 36.5339 175.849 32 174.961C29.4072 174.454 25.9579 173.333 23.6034 175.18C21.6498 176.712 22.0161 179.811 22.0008 182.001C21.9664 186.919 22.5122 193.192 20.4113 197.791C18.2151 202.598 11.4854 203.692 9.08642 208.306C7.54523 211.27 10.3406 212.97 13.0193 212.214C18.1406 210.767 21.9688 205.935 27 204L28 180C30.6588 180.675 32.3117 180.592 35 180C38.6213 185.437 46.4706 183.027 52 182C52.0006 176.924 52.4649 172.041 53.0046 167.001C53.2441 164.765 53.4867 161.566 56.1389 160.863C60.5891 159.684 65.0265 166.795 69.4398 163.214C75.4368 158.347 71.0094 148.35 78.885 144.382C84.6214 141.491 88.4668 144.62 93.9954 145.59C95.7965 145.906 98.5854 145.896 99.2485 143.722C99.9546 141.408 97.5856 139.576 95.9414 138.468C91.643 135.572 86.0897 134.844 81.0147 135.779C70.6938 137.679 67.614 147.124 65 156M237 183C238.16 190.893 239.333 203.679 249 204C248.761 196.102 243.409 189.18 241.765 181.424C241.217 178.838 240.874 174.651 237.812 173.747C231.635 171.922 229.357 183.373 222.718 178.257C215.513 172.704 212.159 163.683 205.88 157.344C197.203 148.585 182.436 149.947 173 156C171.94 150.037 168.659 144.802 167 139C159.253 139 150.65 136.726 143.019 137.769C139.896 138.196 136.395 142.57 140.323 144.714C142.433 145.865 144.826 144.558 147 144.39C150.524 144.117 157.708 144.218 160.782 146.024C166.487 149.376 163.65 161.255 170.214 163.289C173.193 164.212 176.484 161.68 179 160.435C183.931 157.995 189.382 155.653 194.715 158.329C198.413 160.186 202.714 162.904 205.157 166.289C208.889 171.461 209.991 178.026 215.058 182.33C221.991 188.221 230.16 189.059 237 183M102 174C101.101 176.124 101.124 176.101 99 177C98.9991 185.377 97.4736 193.687 96.4344 201.996C96.0472 205.092 96.4194 208.999 93.6003 211.092C91.2601 212.829 87.7088 211.926 84.9961 212.173C81.6948 212.473 78.3344 213.612 75 213.324C68.192 212.735 61.9772 210.285 55 211C55.0103 214.094 54.5911 216.896 57 219C56.1627 228.676 62.8402 238.676 67.0432 246.985C68.3133 249.495 73.1067 255.188 75.7122 250.552C77.7108 246.995 72.6836 243.433 70.963 240.911C66.638 234.574 64.7192 224.428 63 217C69.6023 219.667 73.2686 217.653 80 217.456C86.9284 217.253 94.0306 217.996 101 218C101.149 210.563 102.842 203.36 103.715 196C104.202 191.888 103.922 188.041 105 184C108.197 187.262 111.563 190.569 114.239 194.285C115.868 196.547 117.003 199.448 119.468 200.972C128.935 206.824 139.589 191.662 146 187C148.832 194.485 153.238 201.413 155.949 209C156.994 211.923 158.138 217.007 161.299 218.382C164.026 219.568 167.513 218.167 170 217.019C175.941 214.276 182.317 212.231 188 209C188.15 216.251 191.344 221.266 193.186 228C194.547 232.976 194.878 239.802 195 245L201 245C201.241 232.914 196.228 223.762 194.325 212C193.81 208.822 195.208 202.293 190.891 201.376C188.286 200.822 186.124 202.76 183.91 203.745C179.904 205.526 169.494 210.842 165.228 208.902C162.415 207.623 161.772 203.542 160.663 201C158.255 195.482 155.239 190.214 152.795 184.718C151.863 182.623 151.51 179.597 148.852 178.971C145.788 178.249 143.191 181.135 141 182.77C138.505 184.632 135.683 185.934 133.17 187.759C130.006 190.056 126.859 192.579 125 196C122.631 193.223 119.178 191.563 116.994 188.726C112.245 182.557 111.184 174.305 102 174z"/>
</svg>