<?xml version="1.0" encoding="utf-8" standalone="yes"?>
<svg xmlns="http://www.w3.org/2000/svg" width="256" height="256">
	<path style="fill:#fff;" d="M45 64C34.9055 64.0278 22.2315 66.2433 14.8148 73.7238C11.6421 76.9237 10.1228 82.9035 8.42515 87C6.57265 91.4702 3.09204 104.354 8.43364 107.806C12.6692 110.542 21.8922 104.788 27 104.71C45.7438 104.423 64.2387 104 83 104C82.9633 117.28 82.1762 130.668 81.9961 144C81.9238 149.357 80.6424 153.645 81.6327 159C82.3834 163.059 82.2304 173.26 85.6134 175.972C87.9687 177.861 92.2301 176.798 95 176.951C103.312 177.41 110.615 179.431 119 178C119.028 186.007 121.854 189.774 130 191C130 202.717 130.244 214.287 130.014 226C129.93 230.272 128.82 237.139 131.742 240.682C136.066 245.925 148.243 242.291 154 242.039C159.77 241.787 165.285 242.781 171 242.957C174.225 243.056 177.249 242.032 180.424 241.99C189.001 241.878 197.329 242.515 206 242.035C211.71 241.72 220.389 243.493 225 240C229.405 242.351 242.336 244.357 246.401 240.397C248.625 238.23 249.538 232.972 249.871 230C251.126 218.801 249.528 207.167 249.039 196C248.456 182.674 248.622 169.3 248.039 156C247.749 149.363 247.801 142.64 247.846 135.996C247.864 133.296 248.567 129.714 246.972 127.318C245.444 125.022 242.47 125.005 240 125.019C233.999 125.054 228.045 125.99 222 126C211.042 126.018 200.037 127.271 189 127.286C178.801 127.301 168.293 126.237 158 125.985C151.663 125.831 139.635 121.637 134.318 125.858C130.47 128.912 132.416 134.904 132.671 139C132.869 142.169 131.637 144.917 131.209 148C130.531 152.883 131 158.076 131 163C128.011 163.033 124.787 162.908 122.313 164.894C119.63 167.047 119.517 170.583 115.941 171.837C108.032 174.612 97.1809 171.173 89 171C88.9544 154.463 88.2139 137.775 87.8835 121.17C87.7986 116.904 87.4906 105.582 91.3179 103.028C96.7358 99.4125 105.323 103.422 111 103.892C122.933 104.879 135.074 103.918 147 104.965C154.393 105.613 163.841 107.86 170.906 104.486C178.156 101.024 179.685 91.0741 178.891 84.0147C178.179 77.6827 171.851 66.2568 165.957 63.6304C161.706 61.7362 154.76 62.1782 151.56 58.6821C148.743 55.6042 148.313 50.6499 146.444 47.0147C144.381 43.0034 140.388 39.1137 136.961 36.2245C132.789 32.7079 127.707 33.7668 123.289 31.1011C118.596 28.2693 116.776 22.3913 111.946 19.8981C108.635 18.189 104.57 17.6876 101 16.7176C89.7375 13.6579 72.9203 11.094 63.0934 19.483C56.2768 25.3021 53.6528 35.8562 51.3665 44C49.3946 51.024 45.3282 56.4913 45 64z"/>
	<path style="fill:#000;" d="M16 97C21.8489 96.9961 27.2477 95.3857 33 95.1049C38.0185 94.86 42.9287 96.264 48 95.9105C52.0325 95.6294 55.9514 94.1858 60 94.179C73.7888 94.156 87.1255 96.3914 101 95.9846C105.109 95.8641 108.912 94.0994 113 94.1319C131.493 94.2794 150.617 97.3233 169 95C168.974 85.6003 168.339 75.757 158 72.1474C153.475 70.5677 144.941 71.565 141.782 67.5664C139.624 64.8356 141.361 61.2625 140.683 58.1698C139.995 55.0364 137.247 51.6917 135.215 49.2894C132.59 46.1854 128.981 43.5021 125 42.4745C122.406 41.805 119.519 42.307 117.105 40.9722C111.58 37.9171 108.581 30.2218 102.999 26.5031C99.6448 24.2682 96.7762 24.8712 93 24.8248C84.9418 24.7259 73.0951 22.8258 66.6844 29.3133C63.0597 32.9814 63.5128 37.4478 62.0949 42C61.0193 45.4532 59.0574 48.5496 57.9884 52C55.8754 58.8207 54.9424 65.3323 49.6211 70.7716C44.2772 76.2341 33.9125 74.1715 27.1289 77.0316C20.5241 79.8163 17.4667 90.6632 16 97M142 134C140.42 142.516 141.503 151.353 140.91 160C139.844 175.579 140.646 190.469 140.946 206C141.118 214.906 140 224.017 140 233C146.373 233.018 152.613 234.03 159 233.999C163.357 233.979 167.664 232.93 172 233.058C175.046 233.148 177.947 234.286 181 234.176C187.324 233.947 193.652 232.317 200 232.039C213.229 231.46 226.72 232 240 232C240.001 219.953 239.147 208.006 239.004 196C238.853 183.305 239.775 170.623 238.285 158C237.596 152.156 240.817 139.272 235.412 135.179C231.51 132.224 225.141 134.811 221 135.636C216.804 136.471 212.267 136.457 208 136.833C196.221 137.871 184.567 135.737 173 135.495C166.688 135.362 160.357 136.38 154 135.946C149.895 135.666 146.158 134.12 142 134z"/>
	<path style="fill:#fff;" d="M177.149 142.742C174.927 143.75 173.297 147.086 176.323 148.308C178.053 149.007 180.227 148.326 182 148.169C186.245 147.793 196.009 149.844 199.417 146.952C201.866 144.873 199.333 142.624 197.111 142.264C191.918 141.422 181.971 140.555 177.149 142.742M147 162L147 168C155.678 167.999 164.353 167.217 173 167.456C177.374 167.577 181.6 169.019 186 168.967C189.489 168.925 192.581 167.513 196 167.129C201.555 166.505 207.414 166.991 213 167C218.311 167.009 223.698 168.395 228.981 167.941C230.768 167.787 233.364 167.325 233.364 164.999C233.364 162.721 230.742 162.036 228.981 161.634C223.84 160.461 218.235 161 213 161C205.45 161 198.39 162.771 191 162.985C176.381 163.408 161.66 162.002 147 162z"/>
	<path style="fill:#000;" d="M130 185C130.001 179.653 130.445 174.332 130 169C122.384 171.405 124.028 181.649 130 185z"/>
	<path style="fill:#fff;" d="M178 175L178 179C184.369 179.131 190.581 180.365 196.995 179.956C198.817 179.84 202.364 179.571 202.364 177C202.364 174.429 198.817 174.16 196.995 174.044C190.581 173.635 184.37 174.869 178 175M238 206L238 200C214.969 200 191.985 200.921 169 202.039C163.601 202.301 157.357 202.246 152.059 203.148C150.291 203.449 148.033 204.507 148.752 206.741C149.44 208.879 152.185 208.9 154.005 208.981C159.379 209.218 164.675 208.916 170 208.285C192.28 205.648 215.572 206 238 206M177 211L177 217L203 217L203 211L177 211z"/>
</svg>