<?xml version="1.0" encoding="utf-8" standalone="yes"?>
<svg xmlns="http://www.w3.org/2000/svg" width="256" height="256">
	<path style="fill:#fff;" d="M133 13.7106C116.94 17.7659 99.9011 17.7501 84 22.6875C75.5114 25.3233 67.3942 30.916 60 35.6752C57.6741 37.1722 54.713 37.895 52.6343 39.723C46.806 44.8482 43.073 52.8297 38.0995 58.7407C29.9245 68.4568 21.4089 76.2304 17.6335 89C15.3968 96.5651 16.9296 104.435 15.5748 112C14.6612 117.102 12.672 121.723 12.1698 127C11.7465 131.448 12.7625 135.602 12.8711 140C12.954 143.356 11.8131 146.637 12.1543 149.996C13.5878 164.107 17.7055 180.747 25.0903 193C30.2511 201.563 37.8422 209.918 46 215.696C49.4152 218.115 53.3977 219.49 56.8302 221.876C60.9945 224.77 64.5399 228.674 69.0394 231.083C72.0051 232.671 75.297 232.119 78.196 233.483C80.7512 234.685 82.3617 237.202 85.0394 238.258C89.2075 239.903 94.5843 239.473 99 240.194C107.074 241.514 114.72 243.188 123 242.985C140.426 242.56 158.181 237.547 175 233.335C187.961 230.089 199.679 222.701 210.035 214.579C215.027 210.664 220.556 206.4 224.03 200.999C226.967 196.434 226.837 191.095 229.221 186.424C232.111 180.761 237.122 175.987 239.312 170C246.499 150.358 245.582 128.568 242.12 108.576C241.569 105.393 242.341 102.154 241.347 99.0039C240.205 95.384 237.175 93.1671 235.452 89.9105C233.951 87.0741 233.748 83.824 232.15 81C228.769 75.0234 224.016 70.5442 220.323 64.9568C216.632 59.3739 215.484 52.1056 211.683 47C200.193 31.567 184.724 22.2569 166 17.6096C162.697 16.7899 159.33 17.4241 156 16.8264C148.574 15.4938 140.56 11.8018 133 13.7106z"/>
	<path style="fill:#000;" d="M136 24.4244C126.134 25.7198 115.726 24.9285 106 27.0648C95.4889 29.3736 86.6239 34.0181 77 38.5509C71.6721 41.0604 65.1264 43.2724 60.3287 46.6373C57.0318 48.9497 55.3106 52.8776 52.686 55.831C44.1636 65.4208 34.5176 76.1948 29.1319 88C24.3156 98.5572 23.5126 111.782 22.6752 123C22.232 128.936 20.9392 135.05 21.054 141C21.1847 147.777 23.3394 153.552 24.7415 160C26.6319 168.693 28.562 177.992 32.5563 186C35.8772 192.658 40.956 196.752 45.9421 202.014C49.9149 206.206 52.6835 210.815 57.4244 214.352C60.7686 216.847 65.2999 217.723 69 219.699C73.316 222.004 77.4342 225.255 82 227.006C86.6083 228.773 92.1531 228.998 97 229.934C107.832 232.024 119.875 234.472 131 233.106C142.335 231.714 153.138 227.91 164 224.684C170.91 222.631 178.342 222.009 185 218.843C204.795 209.431 220.924 193.014 228.186 172C229.081 169.41 228.877 166.67 229.553 164.039C233.363 149.226 235.95 134.419 234.289 119C233.969 116.03 234.884 112.902 234.271 110C233.745 107.512 232.097 105.386 231.259 103C230.133 99.7921 230.211 96.186 228.545 93.1698C226.503 89.4749 223.097 86.8218 221.123 83C218.963 78.8161 217.851 74.0416 215.505 70C212.63 65.0444 208.644 60.7599 205.524 55.9606C203.743 53.2217 202.54 49.8931 200.352 47.4552C190.975 37.0095 177.959 31.9397 165 28.1273C161.553 27.1133 158.313 24.9995 154.83 24.2739C149.127 23.0857 141.742 23.6705 136 24.4244z"/>
	<path style="fill:#fff;" d="M203.995 137.891C199.418 138.798 195.069 142.927 191 145.113C182.673 149.588 173.499 153.588 164.91 157.471C159.144 160.078 152.117 160.202 146 161.677C133.422 164.709 121.597 169.151 108.424 169.151C97.6833 169.151 86.4855 168.079 76 165.664C71.3081 164.584 65.074 162.236 60.9468 166.032C56.9246 169.733 60.0109 172.911 62.6651 176.17C66.1259 180.418 69.9067 185.379 72.6898 190.09C77.0224 197.422 81.1165 198.649 87.9105 202.846C104.867 213.322 126.397 221.832 147.001 217.481C155.918 215.599 162.733 209.75 170.004 204.725C173.443 202.347 177.667 201.16 180.91 198.571C190.269 191.101 199.367 180.448 205.255 170C209.755 162.014 213.461 155.479 211.624 146C210.857 142.037 208.987 136.902 203.995 137.891z"/>
	<path style="fill:#000;" d="M205 145C193.898 152.905 180.687 157.421 168 161.94C154.167 166.867 139.622 171.42 125 173.346C120.662 173.917 116.36 172.646 112 173.129C108.929 173.469 106.102 174.734 103 174.946C95.8358 175.435 89.91 173.454 83 172.325C76.4933 171.261 72.0292 171.155 66 168C68.0964 183.646 84.0659 194.4 96.9961 200.785C100.322 202.427 102.84 205.19 106.09 206.836C108.854 208.237 112.065 207.912 114.985 208.799C117.472 209.555 119.617 211.191 122.17 211.726C145.679 216.656 169.681 201.637 184.576 184.986C193.48 175.031 211.402 160.256 205 145z"/>
</svg>