<?xml version="1.0" standalone="yes"?>
<svg xmlns="http://www.w3.org/2000/svg" width="64" height="64">
	<path style="fill:#ffffff; stroke:none;" d="M32 57C23.8809 57.8486 17.9654 49.7784 15.0895 42.9606C9.49321 29.6939 7.4422 13.954 23 7L26 20L32 20C31.698 15.501 29.6622 11.381 28.5718 7.00463C28.0918 5.0785 27.6303 2.51868 25.5702 1.64661C22.3095 0.266296 17.8985 3.10248 15.4676 5.01543C8.27139 10.6783 4.79251 17.932 5.01466 27C5.22765 35.6941 9.99654 49.9133 16.1049 56.2917C20.4681 60.8477 31.2393 66.7635 32 57M17 22C17.714 27.828 20.3682 33.3592 22 39C19.9966 40.734 20.077 42.3549 20 45C21.8782 44.8241 23.1994 44.5618 25 44C25.598 48.5998 25.945 52.157 31 53C30.6247 48.2842 28.2807 42.8644 28.9483 38.1844C29.4776 34.4736 31.877 32.0528 32 28C29.475 28.6835 27.3817 29.9288 25 31C23.8209 26.0019 22.5048 22.4289 17 22z"/>
	<path style="fill:#ffffff; stroke:none;" d="M40 18C37.2898 16.8513 34.9325 16.2539 32 16L32 20C34.3203 20.8899 37.4752 23.5521 39.9853 23.4051C43.7407 23.1852 48.452 16.01 50 13L52 13C55.7248 27.3971 52.7021 37.3091 43.3441 48.534C39.2448 53.4511 32.5361 55.0595 32 62C48.8221 57.3619 60.8676 38.0966 58.4205 21C57.8213 16.8132 57.8818 10.6295 54.429 7.60417C48.7133 2.59609 42.0544 13.7851 40 18M32 28L32 32C32.7102 30.2405 32.7102 29.7595 32 28M40 37C38.1745 35.6638 37.2472 35.3096 35 35C35.4784 40.3997 34.1654 44.6835 34 50L43 46C42.9326 40.5376 46.5996 37.2752 47 32C43.3581 32.5859 41.9393 33.8932 40 37z"/>
</svg>