<?xml version="1.0" encoding="utf-8" standalone="yes"?>
<svg xmlns="http://www.w3.org/2000/svg" viewBox="0 0 134.95 133.64">
	<defs>
		<style>.cls-A{fill:#fff;}</style>
	</defs>
	<g id="Layer_2" data-name="Layer 2">
		<g id="Layer_1-2" data-name="Layer 1">
			<path class="cls-A" d="M78.44,50.91H49.09V46.48a36.46,36.46,0,0,1,18.85-5.07,38.16,38.16,0,0,1,10.5,1.46Zm0,39.7a38.54,38.54,0,0,1-10.5,1.45A36.46,36.46,0,0,1,49.09,87V82.3H78.44Zm52.74-8.92-21.29-8.82V60.29l25-10.33c-.12-.31-.24-.62-.37-.93s-.17-.42-.26-.62a1.8,1.8,0,0,0-.08-.21,55.37,55.37,0,0,0-14-19.25h0V0h-52V10.34a85.55,85.55,0,0,0-9,.56V0h-52V31.65H15a57.36,57.36,0,0,0-6.65,8.2c-.53.8-1,1.61-1.52,2.43l-.71,1.24A47.29,47.29,0,0,0,6.09,90l.71,1.24c.49.82,1,1.63,1.52,2.43a57.7,57.7,0,0,0,6.3,7.84H7.21v32.18h52V122.58a85.56,85.56,0,0,0,9,.55v10.51h52V104.52h0l.39-.36.36-.33.5-.47c.12-.11.23-.22.34-.34l.5-.48.33-.34c.17-.16.33-.33.49-.5l.32-.33c.16-.17.33-.34.49-.52s.2-.21.29-.32.33-.35.49-.54l.27-.3.5-.57.21-.25.54-.63.08-.11c.67-.82,1.32-1.65,1.93-2.49a.18.18,0,0,0,0-.07l.48-.67.19-.26.42-.62.22-.32.39-.6c.08-.12.15-.24.23-.35l.37-.59c.07-.13.15-.25.23-.38l.35-.58c.07-.13.15-.26.23-.39l.33-.59c.07-.13.15-.26.22-.4l.32-.58.21-.41.3-.59.21-.42.29-.58a1.42,1.42,0,0,1,.08-.18c0-.09.08-.18.13-.27l.24-.53.22-.49.22-.51c.08-.19.16-.39.25-.59s.11-.27.16-.41c.14-.33.27-.67.39-1h0Z"></path>
			<path d="M104.7,75.21C100.07,87.25,85.83,96,69,96,48.37,96,31.66,82.91,31.66,66.73S48.37,37.45,69,37.45c16.94,0,31.24,8.86,35.79,21l24.91-10.31C120.44,28.18,96.75,14,69,14,33.16,14,4.12,37.6,4.12,66.73s29,52.76,64.86,52.76c27.68,0,51.31-14.11,60.62-34Z"></path>
			<polygon points="72.06 129.69 72.06 105.42 82.61 105.42 82.61 78.34 45.04 78.34 45.04 105.42 55.09 105.42 55.09 129.69 11.33 129.69 11.33 105.42 21.89 105.42 21.89 27.69 11.33 27.69 11.33 3.96 55.09 3.96 55.09 27.69 45.04 27.69 45.04 55.13 82.61 55.13 82.61 27.69 72.06 27.69 72.06 3.96 116.07 3.96 116.07 27.69 106.29 27.69 106.29 105.42 116.07 105.42 116.07 129.69 72.06 129.69"></polygon>
			<path class="cls-A" d="M55.09,27.69H45v13.6A46,46,0,0,1,69,34.81c16.63,0,30.86,8.26,36.74,19.95l19.91-8.24C116,28.91,94.28,16.62,69,16.62a75.93,75.93,0,0,0-13.89,1.27Z"></path>
			<path class="cls-A" d="M21.89,99.26V34.21C12.66,43,7.08,54.32,7.08,66.74s5.58,23.77,14.81,32.52"></path>
			<path class="cls-A" d="M69,98.66A46,46,0,0,1,45,92.18v13.24H55.09v10.16A75.93,75.93,0,0,0,69,116.85c25.27,0,47-12.27,56.62-29.85l-19.91-8.24C99.8,90.43,85.58,98.66,69,98.66"></path>
			<path style="fill:#036d00;" d="M21.89,39C14.61,46.76,10.3,56.35,10.3,66.73s4.31,20,11.59,27.71Z"></path>
			<path style="fill:#a00002;" d="M55.09,27.69H45v9.05A49.07,49.07,0,0,1,69,30.68c16.43,0,30.72,7.69,38,19l13.3-5.51C110.25,30,91,20.31,69,20.31a74,74,0,0,0-13.89,1.31Z"></path>
			<path style="fill:#011da4;" d="M69,102.79A49.07,49.07,0,0,1,45,96.73v8.69H55.09v6.43A74,74,0,0,0,69,113.16c22,0,41.25-9.62,51.27-23.85L107,83.81c-7.28,11.3-21.56,19-38,19"></path>
			<path class="cls-A" d="M13.91,108.06v18.73h38.6V108.06H42.21V75.44h43V93.12c1.15-.44,2.27-.92,3.35-1.44V72.27H38.86v39h10v11.87H16.74V111.22h11V21.63h-11V10.29H48.91V21.63h-10V60.92H88.53V41.79l-.25-.12c-1-.47-2-.92-3.1-1.32V57.76h-43V25.06h10.3V6.59H13.91V25.06H24.72v83Z"></path>
			<path class="cls-A" d="M109.89,25.06h3.35V6.59H75.14v7.63q1.56.12,3.09.3V10.29h31.66V21.63H102.6a67.47,67.47,0,0,1,6.13,3.43Z"></path>
			<path class="cls-A" d="M103.46,77.93a27.73,27.73,0,0,1-3.35,4.94V50.6a27.73,27.73,0,0,1,3.35,4.94Z"></path>
			<path class="cls-A" d="M109.29,108.06c-1.74,1.12-3.56,2.18-5.45,3.16h6v11.87H78.23V119q-1.53.18-3.09.3v7.54h38.1V108.06Z"></path>
		</g>
	</g>
</svg>