<?xml version="1.0" encoding="utf-8" standalone="yes"?>
<svg xmlns="http://www.w3.org/2000/svg" viewBox="0 0 1050 350">
	<rect width="1050" height="350" style="stroke: #000; visibility: hidden;">
		<title>devbacking</title>
	</rect>
	<g>
		<title>idle</title>
		<g transform="matrix(1, 0, 0, 1, -0.358431, -0.735437)">
			<title>01</title>
			<path style="fill:#fff;" d="M83 25C81.9814 30.4868 82.7132 35.5437 82.3395 41C82.107 44.3956 81.0188 47.5419 81.0077 51C80.9872 57.3924 80.1993 62.707 79.3002 69C78.6433 73.5975 77.7871 81.5313 79.7423 85.8519C81.7043 90.1874 87.2984 89.1731 88.5664 84.9414C90.8754 77.2354 88.4871 68.0673 89.2099 60.2855C89.4113 58.1172 90.5824 56.1637 90.8603 53.9854C92.1603 43.7986 92.3192 33.2894 93.5571 23C94.161 17.9799 95.4084 5.52374 87 7.55786C82.3421 8.68466 78.217 13.5228 74 15.841C57.662 24.8226 47.0436 41.3762 36.8056 56.7909C33.4576 61.8317 28.7821 65.5484 25.7917 71C22.0329 77.8522 17.6515 85.4037 15.6343 93C14.9216 95.6835 14.633 100.349 18.1443 101.248C21.1185 102.01 23.4176 99.0822 24.9059 96.9807C29.2018 90.9146 31.4141 83.7391 34.3634 77.0146C36.7627 71.5445 42.1136 67.5479 45.4799 62.5756C47.9557 58.9188 49.2672 54.6252 51.9051 51.054C54.1964 47.9519 57.6889 46.1415 59.8665 42.946C61.4781 40.581 62.093 37.6355 63.8426 35.3758C68.0762 29.908 76.176 25.3548 83 25M276 258C270.651 240.919 268.625 223.361 264.47 206C263.84 203.369 264.17 200.597 263.347 198.004C261.435 191.979 255.308 186.696 252.244 181C250.147 177.102 250.638 172.892 248.86 169C246.408 163.628 241.62 157.857 238.076 153.09C232.813 146.009 226.358 136.554 219.61 130.919C217.308 128.996 213.3 127.207 210.318 128.608C204.916 131.147 211.016 136.729 213.143 138.92C220.139 146.129 226.425 162.334 237 164C238.079 174.842 244.871 182.607 249.676 192C251.919 196.386 252.943 201.418 254.791 206C258.362 214.856 258.071 224.735 259.289 234C260.101 240.174 262.684 246 264.265 252C265.404 256.318 265.533 262.961 268.728 266.346C273.243 271.131 279.845 266.493 284 263.706C287.499 261.359 291.841 259.299 294.441 255.896C299.407 249.396 300.843 240.116 304.871 233C314.373 216.213 308.401 195.385 298.476 180.424C294.988 175.167 289.622 171.269 286.414 165.961C283.704 161.475 280.348 156.642 277.998 152C275.389 146.849 275.289 142.781 269 141C268.41 135.563 264.721 131.378 264.034 126C262.8 116.339 264.767 109.188 267.212 100.001C267.863 97.5552 267.501 94.9811 268.163 92.5756C270.057 85.695 275.344 76.3568 280 71C279.172 81.5062 276.217 91.5329 275.171 102C274.626 107.441 275.541 112.612 275.91 118C276.2 122.221 275.311 126.909 277.005 130.91C278.357 134.101 281.288 136.214 283.015 139.174C286.599 145.312 288.215 150.383 294.004 155.062C297.508 157.894 302.194 158.942 305.505 161.818C308.531 164.446 309.928 168.378 313.174 170.957C317.325 174.256 322.921 176.17 326.347 180.326C329.263 183.861 330.294 189.774 332.092 194C333.5 197.312 335.8 200.562 336.792 204C339.326 212.78 338.906 222.039 339.019 231C339.069 234.996 340.362 239.012 339.736 243C338.943 248.051 335.554 252.126 334.422 257C333.808 259.642 334.458 262.354 333.914 265C332.371 272.516 328.994 282.847 324.211 288.896C321.511 292.311 317.412 294.021 314.468 297.185C312.315 299.499 310.8 303.198 307.791 304.535C305.208 305.684 301.765 304.964 299 305.286C291.855 306.118 283.823 306.409 277 308.71C270.454 310.918 265.205 314.187 259 316.915C252.122 319.94 244.095 320.242 237 322.763C228.566 325.76 220.854 329.983 212 332.101C205.492 333.658 200.325 330.756 194 331.185C189.519 331.489 185.374 333.822 181 334.072C177.994 334.244 175.044 333.01 172 333.055C163.279 333.184 154.782 334.729 146 333.576C136.039 332.268 125.966 333.953 116 332.96C109.519 332.314 102.267 329.387 96 327.515C92.7973 326.559 82.7791 319.263 81.3765 326.129C80.3642 331.085 91.6091 334.069 95.1698 335.915C99.5571 338.189 104.34 337.537 109 338.594C122.315 341.616 135.346 344 149 344C155.278 344 161.758 344.453 168 343.715C172.944 343.129 178.132 341.088 183 340.904C186.042 340.789 188.91 342.026 192 341.815C196.155 341.531 199.945 339.924 204 339.259C207.955 338.611 212.022 339.229 216 338.711C224.228 337.639 232.939 335.188 241 333.251C249.244 331.269 255.114 325.018 263 323.135C266.946 322.193 271.1 322.532 275 321.582C278.504 320.728 281.352 318.541 285 318.058C294.056 316.859 302.289 317.934 310.996 314.12C319.411 310.435 330.136 298.985 334.583 290.985C338.269 284.353 338.928 275.261 341.198 268C346.242 251.871 350.482 234.196 348.151 217C347.542 212.506 345.161 208.423 344.195 204C343.54 200.998 344.123 197.984 343.574 195C342.206 187.562 337.248 178.948 332.491 173.184C329.986 170.15 326.206 168.553 323.301 165.96C320.475 163.438 318.678 159.977 315.806 157.545C312.917 155.099 309.216 153.714 306.271 151.316C297.78 144.401 286.67 133.033 284.39 122C283.501 117.696 284.879 113.322 284.985 109C285.398 92.1497 289.603 77.2011 293.884 61C295.015 56.7219 302.099 42.2963 292.995 42.2963C286.817 42.2963 282.671 51.8548 278.939 55.7145C261.842 73.3951 256.856 95.1532 254.289 119C253.606 125.347 255.342 134.356 258.569 139.907C260.214 142.737 263.192 144.388 264.84 147.184C269.897 155.761 272.687 165.617 278.645 173.83C285.772 183.655 296.439 192.447 299.836 204.754C302.782 215.423 294.336 229.683 290.35 239C286.875 247.12 282.881 252.396 276 258M137 86C141.171 71.7579 114.349 62.144 103.109 65.3179C98.8108 66.5316 98.1814 72.2546 102.228 74.2724C108.039 77.1693 115.334 75.6638 120.985 79.0586C126.016 82.0806 128.823 86.5341 135 87C132.336 89.5851 118.664 98.7039 128.148 102.377C134.912 104.997 144.448 94.1563 150 91.4529C156.13 88.4683 164.39 87.6882 171 85.4846C182.354 81.6992 193.948 74.7622 206 74C201.83 81.8301 197.258 89.6552 194.293 98C192.226 103.818 191.357 108.936 190.41 115C189.455 121.113 186.199 128.817 187.152 134.941C188.311 142.387 195.994 137.007 197.86 132.995C200.44 127.452 199.612 119.968 201.04 114C203.467 103.859 207.816 93.6095 211.812 84C213.735 79.3755 221.734 68.4337 215.566 64.179C208.946 59.6124 201.073 66.5526 195 68.3588C181.15 72.4779 166.92 75.3198 153 79.4182C147.018 81.1796 143.624 85.6556 137 86z"></path>
			<path style="fill:#000;" d="M 136 86 L 137 87 L 136 86 Z"></path>
			<path style="fill:#fff;" d="M51 232C47.5879 224.456 46.6291 216.46 43.3657 209C39.2382 199.564 33.6701 190.731 30.0586 181C28.7264 177.41 29.0536 173.561 27.6451 170C25.1823 163.773 20.3689 159.606 17.2994 153.91C14.616 148.931 12.9548 142.384 11.0656 137C9.45147 132.4 7.19449 128.012 8.56944 123.015C9.87094 118.284 13.9397 115.134 14.4738 110.005C14.82 106.679 12.7595 103.527 9.03858 104.662C0.366494 107.307 1.64011 126.122 2.57639 133C3.27804 138.154 3.14852 144.085 4.96991 148.985C6.29471 152.55 9.32189 154.749 11.0123 158.039C12.4608 160.859 11.9255 164.133 13.2145 167C14.8301 170.593 17.8227 173.387 19.4815 177C22.2843 183.104 23.4184 189.879 26.0046 195.985C27.8805 200.415 31.5147 203.071 32.5355 208.001C34.3464 216.746 37.6947 224.463 40.0802 233C41.1061 236.671 41.6556 241.482 46.0903 242.522C50.5905 243.578 53.15 239.333 56.1042 236.815C59.7006 233.75 63.7057 231.815 68 229.95C87.8604 221.323 103.658 206.941 119.957 193C122.883 190.497 125.027 187.141 128.104 184.849C132.657 181.457 138.04 176.599 143 174.023C145.909 172.512 149.817 172.905 150.638 168.942C151.517 164.7 147.56 159.959 143.169 162.071C136.596 165.232 130.662 173.14 125 177.773C121.058 180.998 116.055 182.283 112 185.454C103.959 191.742 95.7248 198.092 88.0008 204.729C76.262 214.816 62.9761 222.085 51 232M40.2091 119.786C33.231 122.462 31.8466 139.976 33.6489 146C34.4967 148.834 36.3915 151.196 37.3009 154C38.5628 157.891 37.2754 168.321 44.8526 165.377C48.7882 163.848 48.0301 158.367 47.9892 155C47.9074 148.266 47.1286 141.688 46.8758 135C46.7397 131.4 47.4629 127.606 46.7716 124.044C46.1609 120.897 43.5509 118.505 40.2091 119.786M88.0548 128.032C83.5343 130.417 83.1551 135.497 82.9892 140C82.8551 143.639 81.8048 147.387 82.544 151C83.3232 154.809 85.5107 158.073 85.8951 162C86.2997 166.135 85.0299 171.158 87.0278 174.981C89.5345 179.777 97.1298 181.753 101.853 178.972C104.892 177.183 105.462 173.067 106.539 170C110.099 159.87 108.136 145.615 103.601 136.001C100.986 130.458 94.7414 124.503 88.0548 128.032M103.313 229.047C99.0977 231.6 99.4023 241.739 96.6404 246C83.208 266.722 76.216 291.264 66.8758 314C65.2061 318.064 63.9566 323.682 65.7423 327.941C66.7527 330.351 69.1569 332.226 71.7901 330.914C77.6617 327.986 75.3685 318.01 78.2199 313C85.188 300.756 88.0395 286.92 93.2076 274C96.8917 264.79 102.675 256.359 106.038 247C107.401 243.207 109.796 236.041 109.423 232.059C109.144 229.081 105.884 227.49 103.313 229.047z"></path>
		</g>
		<path style="fill: #fff; stroke: none;" d="M 431.617 22.743 C 431.622 32.258 430.354 41.281 429.706 50.743 C 429.293 56.779 429.613 62.714 428.902 68.743 C 428.303 73.82 427.138 82.83 429.22 87.595 C 430.865 91.36 436.368 91.36 438.013 87.595 C 439.86 83.366 438.355 77.274 438.786 72.743 C 440.234 57.526 441.333 42.019 441.607 26.728 C 441.687 22.209 445.916 10.781 440.388 8.525 C 433.572 5.744 423.101 14.73 418.192 18.473 C 411.535 23.548 406.789 29.291 401.072 35.109 C 398.943 37.276 396.16 38.597 394.056 40.848 C 390.729 44.407 388.437 48.775 385.197 52.367 C 383.339 54.427 380.849 55.892 379.269 58.211 C 377.713 60.493 377.69 63.233 376.611 65.704 C 375.552 68.129 373.622 69.787 372.133 71.913 C 368.285 77.404 366.146 85.171 365.212 91.743 C 364.85 94.289 364.502 98.134 367.746 98.991 C 370.637 99.755 372.569 96.742 373.928 94.724 C 377.272 89.754 379.402 83.541 380.732 77.743 C 382.964 68.016 391.42 60.437 398.196 53.534 C 401.616 50.049 403.727 45.59 407.031 42.119 C 409.51 39.514 412.882 37.774 415.617 35.442 C 420.937 30.906 425.202 25.795 431.617 22.743 M 622.617 256.743 C 621.576 244.802 616.417 234.096 613.374 222.743 C 611.88 217.168 611.781 211.326 610.331 205.743 C 607.767 195.877 604.033 187.054 600.081 177.743 C 596.086 168.331 592.314 158.141 585.957 150.029 C 580.21 142.697 572.702 137.567 566.537 130.782 C 564.318 128.341 560.705 124.398 557.051 126.786 C 550.072 131.347 563.574 142.586 566.652 145.704 C 580.75 159.979 591.126 178.561 597.273 197.743 C 599.155 203.617 600.51 209.665 601.536 215.743 C 602.34 220.502 602.32 224.951 606.617 227.743 C 605.108 233.285 607.815 237.437 609.173 242.743 C 610.576 248.224 610.759 254.651 613.216 259.743 C 614.775 262.973 616.569 267.237 620.636 267.536 C 624.324 267.808 627.384 265.059 630.617 263.727 C 643.049 258.604 647.608 250.407 653.328 239.028 C 655.045 235.613 657.625 232.604 658.332 228.747 C 662.577 205.554 655.6 183.034 641.647 164.254 C 639.618 161.523 636.378 159.982 634.112 157.458 C 625.985 148.407 617.604 136.195 613.821 124.573 C 608.854 109.312 614.734 91.402 622.055 77.743 C 624.757 72.703 628.355 69.529 629.617 63.743 C 632.215 72.807 626.782 84.738 624.996 93.743 C 623.033 103.636 623.811 115.443 627.54 124.743 C 630.088 131.099 633.406 139.508 637.831 144.743 C 644.81 153.001 653.44 157.688 661.488 164.356 C 667.26 169.138 672.752 176.563 676.995 182.743 C 682.26 190.411 682.593 197.083 684.082 205.743 C 686.875 221.995 688.91 238.488 684.693 254.743 C 683.294 260.137 680.249 264.584 678.377 269.743 C 674.416 280.659 669.487 293.274 659.447 300.144 C 650.029 306.589 637.152 303.152 626.787 306.316 C 621.015 308.078 615.414 311.873 609.617 313.983 C 600.783 317.198 590.828 321.34 581.617 323.228 C 577.651 324.042 573.534 323.306 569.617 324.377 C 561.278 326.658 552.288 330.163 543.617 331.002 C 539.342 331.416 534.937 330.537 530.617 330.833 C 515.017 331.901 499.237 332.917 483.617 332.198 C 475.579 331.828 468.821 328.318 460.617 330.743 C 456.907 325.145 444.872 323.929 438.617 321.937 C 436.156 321.154 433.285 319.982 430.661 320.156 C 425.755 320.481 424.857 326.002 428.051 329.094 C 433.607 334.474 443.65 334.037 450.617 336.087 C 478.269 344.225 507.476 342.678 535.617 339.025 C 541.186 338.302 546.241 339.999 551.617 339.54 C 556.759 339.101 560.744 335.778 565.617 334.723 C 575.385 332.608 585.874 333.047 595.578 330.444 C 598.191 329.744 600.167 327.838 602.707 326.952 C 609.631 324.536 616.845 323.449 623.617 320.474 C 627.139 318.927 629.966 316.129 633.617 314.89 C 640.729 312.477 648.383 314.764 655.617 313.48 C 659.849 312.729 664.129 310.275 667.613 307.838 C 677.221 301.117 681.578 289.801 686.134 279.743 C 695.413 259.259 699.941 237.244 696.292 214.743 C 694.987 206.693 692.157 199.504 690.174 191.743 C 689.195 187.912 690.434 183.608 689.028 179.913 C 687.415 175.672 682.894 172.458 679.822 169.319 C 674.399 163.776 669.338 157.938 663.189 153.083 C 660.908 151.281 658.133 150.358 655.903 148.48 C 649.009 142.675 646.372 135.19 641.937 127.743 C 639.593 123.806 636.455 120.114 634.896 115.743 C 631.431 106.026 635.017 97.187 637.158 87.743 C 638.268 82.847 637.793 77.627 639.108 72.743 C 641.257 64.759 644.786 55.976 645.504 47.747 C 646.204 39.736 638.02 39.408 632.921 43.547 C 625.187 49.825 620.948 59.31 616.379 67.653 C 611.145 77.209 605.216 86.759 603.011 97.743 C 602.272 101.422 603.456 105.063 603.574 108.743 C 603.829 116.736 603.09 122.849 605.618 130.743 C 608.149 138.651 612.262 148.008 617.11 154.743 C 625.366 166.213 637.116 175.126 643.733 188.028 C 649.046 198.388 650.792 212.865 648.43 224.167 C 646.861 231.675 642.674 238.148 638.937 244.7 C 635.448 250.818 627.754 252.294 622.617 256.743 M 555.617 73.743 C 552.832 77.612 552.877 81.415 551.242 85.743 C 546.606 98.017 542.163 111.651 540.567 124.743 C 540.031 129.136 535.431 141.447 543.621 141.447 C 550.683 141.447 550.641 130.624 551.346 125.743 C 552.249 119.493 554.4 113.847 555.868 107.743 C 558.522 96.704 560.536 86.907 565.996 76.743 C 567.902 73.195 572.717 64.189 566.469 62.177 C 558.816 59.712 548.938 64.36 541.617 66.146 C 523.781 70.497 507.266 75.858 490.617 83.457 C 485.466 85.808 467.173 92.006 472.649 100.425 C 477.023 107.151 488.031 96.109 492.617 94.302 C 496.864 92.628 501.456 91.854 505.617 89.943 C 511.066 87.44 515.882 83.447 521.617 81.465 C 532.469 77.715 544.526 76.867 555.617 73.743 M 449.051 64.771 C 445.848 66.969 446.89 71.476 449.845 73.286 C 453.921 75.783 460.042 74.923 464.617 76.163 C 469.853 77.581 473.709 80.98 478.617 82.889 C 480.729 83.71 484.067 84.251 486.014 82.715 C 490.405 79.251 485.682 73.551 482.331 71.799 C 474.621 67.769 467.229 65.434 458.617 64.574 C 455.678 64.28 451.738 62.928 449.051 64.771 M 356.843 104.49 C 353.474 105.99 352.95 110.512 352.753 113.743 C 352.307 121.053 351.71 127.528 353.617 134.743 C 356.036 143.901 356.021 153.544 358.837 162.744 C 360.594 168.482 364.123 173.251 366.337 178.743 C 371.183 190.761 374.506 202.829 379.413 214.743 C 382.343 221.857 384.638 229.001 388.387 235.739 C 390.144 238.897 392.313 242.797 396.542 242.219 C 405.001 241.063 409.834 232.497 416.62 228.751 C 428.258 222.326 437.927 212.769 449.192 205.42 C 459.419 198.749 471.282 193.806 480.617 185.873 C 486.221 181.112 494.444 176.092 498.246 169.689 C 500.14 166.499 500.724 160.844 495.588 160.57 C 492.498 160.405 489.857 163.076 487.813 165.032 C 483.955 168.725 479.801 171.731 475.617 175.028 C 469.543 179.814 463.037 183.006 456.787 187.252 C 453.454 189.517 450.774 192.676 447.447 194.947 C 439.189 200.583 430.787 205.565 422.747 211.622 C 417.038 215.923 406.983 229.585 398.725 227.12 C 393.19 225.469 390.029 212.441 387.448 207.743 C 384.491 202.36 383.601 196.408 381.641 190.728 C 379.606 184.828 376.256 179.473 373.88 173.743 C 372.678 170.846 372.649 167.682 371.583 164.743 C 369.324 158.518 367.694 151.758 365.263 145.742 C 363.764 142.033 361.254 138.803 360.749 134.743 C 359.661 125.985 363.3 117.397 363.388 108.762 C 363.427 104.979 360.47 102.875 356.843 104.49 M 387.765 119.616 C 384.29 121.157 384.471 125.525 384.041 128.743 C 382.835 137.772 383.769 146.063 386.009 154.743 C 387.032 158.711 387.416 165.327 393.559 163.12 C 397.147 161.832 397.656 158.071 397.573 154.743 C 397.404 148.026 394.614 141.371 394.746 134.743 C 394.823 130.855 396.385 126.726 395.299 122.852 C 394.378 119.569 390.823 118.261 387.765 119.616 M 435.845 127.486 C 432.35 129.097 432.216 134.52 431.042 137.743 C 428.925 143.554 431.106 148.047 432.447 153.743 C 434.01 160.387 433.849 167.71 437.505 173.638 C 439.966 177.628 444.91 179.964 449.562 178.139 C 453.257 176.689 454.872 172.182 456.152 168.743 C 459.962 158.512 456.012 144.354 450.801 135.168 C 447.858 129.979 442.517 124.41 435.845 127.486 M 451.93 225.829 C 449.195 227.375 449.871 231.179 449.188 233.743 C 447.921 238.494 444.589 243.192 442.593 247.743 C 439.392 255.043 435.764 262.334 432.884 269.743 C 430.21 276.625 428.777 283.912 425.867 290.743 C 422.947 297.598 418.775 303.903 415.906 310.743 C 414.243 314.707 410.757 320.385 410.897 324.724 C 411.023 328.596 415.015 330.567 418.468 329.135 C 421.495 327.88 421.58 324.419 422.581 321.743 C 424.015 317.911 426.289 314.326 428.245 310.743 C 435.916 296.694 438.852 281.247 445.03 266.743 C 447.943 259.904 452.987 253.758 455.369 246.743 C 456.963 242.045 458.207 234.7 457.465 229.762 C 457.07 227.13 454.928 224.135 451.93 225.829 Z">
			<title>02</title>
		</path>
		<g transform="matrix(1, 0, 0, 1, 428.340168, -232.756922)">
			<title>03</title>
			<path style="fill:#fff; stroke:none;" d="M 355.534 253.217 C 353.388 262.233 353.889 271.158 351.218 280.217 C 349.472 286.137 352.131 291.869 351.515 297.793 C 350.861 304.08 347.258 313.041 348.856 319.159 C 349.781 322.7 354.147 324.273 356.945 321.613 C 358.933 319.724 359.501 315.791 360.02 313.217 C 362.447 301.193 359.524 289.182 360.566 277.217 C 361.003 272.195 363.405 267.969 364.745 263.217 C 366.162 258.197 365.628 252.393 365.529 247.221 C 365.486 244.918 365.602 242.156 363.216 240.96 C 356.953 237.822 350.753 245.369 345.53 247.519 C 322.129 257.152 308.664 282.979 297.648 304.217 C 294.469 310.347 289.382 316.66 287.708 323.387 C 286.989 326.282 286.582 330.495 289.766 332.131 C 292.561 333.567 295.17 331.301 296.73 329.159 C 300.232 324.351 301.67 318.257 304.94 313.217 C 312.369 301.768 317.001 288.247 326.029 277.642 C 334.504 267.687 345.173 260.863 355.534 253.217 M 546.534 490.217 C 548.816 482.423 544.563 477.301 543.457 470.047 C 542.302 462.472 541.211 455.481 538.049 448.217 C 536.506 444.672 533.719 441.888 532.363 438.232 C 528.345 427.401 527.836 415.62 522.238 405.217 C 518.372 398.031 511.896 393.356 507.094 387.047 C 501.309 379.446 496.467 370.879 490.444 363.261 C 488.213 360.438 483.803 356.485 480.277 359.963 C 478.003 362.206 478.801 365.801 480.277 368.217 C 483.896 374.14 489.247 381.764 494.445 386.352 C 499.535 390.844 502.363 396.483 506.218 401.932 C 513.986 412.909 520.928 423.297 525.014 436.217 C 526.273 440.196 525.674 444.25 526.766 448.217 C 528.949 456.144 532.772 463.369 535.078 471.217 C 537.69 480.106 534.621 501.648 548.534 500.087 C 557.334 499.099 560.263 492.513 565.017 486.387 C 572.953 476.16 581.229 463.074 580.235 449.217 C 579.924 444.871 577.914 440.535 577.149 436.217 C 575.879 429.046 574.592 414.656 566.534 412.217 C 566.295 404.139 561.463 400.306 557.218 394.047 C 554.536 390.094 553.391 385.236 550.816 381.217 C 547.119 375.449 542.434 370.186 539.053 364.217 C 535.349 357.68 535.484 350.327 536.34 343.178 C 538.043 328.946 541.649 314.664 552.534 304.217 C 551.145 314.529 549.995 324.889 548.6 335.217 C 547.499 343.365 545.948 353.286 549.097 361.178 C 550.513 364.725 553.519 367.09 555.572 370.232 C 558.349 374.482 559.098 379.93 562.323 383.841 C 568.28 391.067 576.255 395.108 583.364 400.927 C 589.989 406.35 595.324 413.255 600.23 420.217 C 604.327 426.032 604.562 432.493 605.987 439.217 C 607.133 444.626 610.112 449.639 610.426 455.217 C 611.173 468.49 606.915 483.394 604.048 496.217 C 602.204 504.464 600.514 510.507 596.924 518.217 C 595.635 520.983 594.929 524.392 592.953 526.762 C 589.476 530.931 583.745 536.75 578.534 538.514 C 567.447 542.266 554.535 537.633 543.573 541.016 C 531.572 544.721 521.747 553.844 509.534 557.293 C 496.801 560.89 484.358 561.197 471.534 563.445 C 468.677 563.945 466.366 565.994 463.534 566.398 C 460.869 566.779 458.246 565.404 455.534 565.56 C 447.392 566.026 438.955 567.26 430.819 567.273 C 425.778 567.281 420.77 565.277 415.534 565.213 C 408.742 565.13 402.227 563.376 395.534 562.506 C 385.689 561.228 377.145 560.534 367.534 557.776 C 364.084 556.786 354.029 553.854 352.911 559.346 C 351.713 565.224 362.563 567.693 366.534 568.988 C 372.92 571.071 379.064 570.321 385.534 571.1 C 396.718 572.447 407.115 575.349 418.534 575.213 C 448.351 574.858 479.217 577.227 508.534 568.584 C 515.622 566.494 523.858 562.766 530.364 559.287 C 535.384 556.603 539.984 552.466 545.573 550.925 C 549.574 549.822 554.408 548.343 558.534 548.155 C 567.505 547.747 577.99 549.595 586.549 546.131 C 594.067 543.089 600.424 534.784 604.551 528.047 C 606.326 525.151 608.41 520.548 609.03 517.217 C 609.534 514.51 608.845 511.89 609.797 509.217 C 611.511 504.403 613.985 500.346 615.02 495.217 C 616.456 488.102 616.543 480.447 617.534 473.217 C 618.346 467.292 619.769 461.223 619.491 455.218 C 619.183 448.56 617.099 442.634 615.873 436.217 C 614.218 427.557 612.557 417.626 607.256 410.218 C 592.854 390.087 563.054 381.878 557.91 355.217 C 556.159 346.145 558.207 337.083 559.42 328.217 C 561.3 314.472 562.19 302.196 567.523 289.217 C 569.162 285.23 573.873 273.514 565.529 273.514 C 559.144 273.514 556.002 283.119 552.275 287.008 C 538.324 301.568 524.793 321.811 525.578 343.217 C 525.87 351.187 525.929 361.845 529.242 369.217 C 531.738 374.769 536.312 378.269 539.465 383.256 C 543.044 388.919 545.334 395.34 548.843 401.047 C 552.231 406.559 557.201 411.135 560.529 416.476 C 562.634 419.853 563.59 424.506 565.074 428.217 C 567.345 433.895 569.878 438.979 570.349 445.217 C 571.149 455.811 565.832 467.799 560.174 476.387 C 556.165 482.471 552.257 485.69 546.534 490.217 M 480.534 298.217 C 469.966 295.921 458.878 302.918 449.534 306.944 C 437.802 312 424.056 313.233 413.11 319.819 C 408.98 322.303 390.713 326.048 395.728 333.784 C 399.588 339.737 411.427 332.933 415.534 330.506 C 421.993 326.69 429.554 325.288 436.534 322.798 C 442.4 320.706 447.764 316.958 453.624 314.915 C 461.05 312.326 469.02 310.962 476.534 308.217 C 470.873 318.272 469.673 330.343 466.925 341.217 C 465.452 347.047 461.651 352.348 460.708 358.232 C 460.212 361.32 458.933 366.08 460.152 369.069 C 461.646 372.733 466.58 372.635 468.934 369.899 C 473.292 364.836 471.909 353.53 473.357 347.217 C 474.2 343.544 476.391 340.696 477.66 337.217 C 480.772 328.679 482.628 319.899 485.308 311.217 C 486.392 307.704 489.212 304.031 489.093 300.261 C 488.924 294.952 482.971 294.472 480.534 298.217 M 372.852 296.96 C 369.766 298.534 370.198 303.403 372.852 305.19 C 376.039 307.337 380.949 306.222 384.533 307.167 C 389.226 308.404 394.916 312.957 398.789 315.909 C 401.159 317.715 404.052 320.017 407.1 318.023 C 412.406 314.552 406.549 308.913 403.441 306.714 C 397.959 302.835 391.696 300.877 385.534 298.382 C 381.783 296.863 376.865 294.913 372.852 296.96 M 320.534 465.217 C 318.749 456.569 315.175 449.303 311.924 441.217 C 309.359 434.839 308.458 427.861 305.727 421.387 C 302.69 414.186 298.453 408.008 294.719 401.217 C 291.578 395.503 290.876 384.975 285.534 381.217 C 286.932 375.414 283.038 369.43 283.101 363.217 C 283.176 355.865 287.442 347.321 286.29 340.261 C 285.744 336.91 282.266 334.154 278.963 336.261 C 276.791 337.646 276.082 340.915 275.407 343.217 C 273.414 350.013 273.884 356.286 273.967 363.217 C 274.127 376.688 279.518 387.121 284.662 399.217 C 291.168 414.516 297.336 429.651 302.894 445.217 L 311.356 469.216 C 312.535 472.532 313.425 476.501 317.578 476.93 C 324.553 477.65 331.954 469.19 337.624 466.104 C 349.74 459.509 360.113 450.823 370.663 442.235 C 381.126 433.716 392.698 426.501 403.535 418.438 C 409.701 413.851 417.887 410.203 423.216 404.688 C 425.165 402.672 426.596 398.507 423.931 396.396 C 421.35 394.353 417.164 395.503 414.534 396.749 C 408.049 399.822 401.517 404.426 396.11 409.112 C 382.721 420.717 369.284 431.957 355.159 442.353 C 350.658 445.666 345.056 446.658 340.534 449.773 C 333.599 454.552 328.238 461.826 320.534 465.217 M 309.852 353.96 C 307.207 355.291 307.679 358.596 307.08 361.048 C 304.607 371.157 307.182 378.417 309.235 388.217 C 310.043 392.072 309.673 400.203 316.387 397.594 C 320.341 396.058 319.533 390.591 319.534 387.217 C 319.538 378.157 320.701 368.167 319.09 359.232 C 318.28 354.736 314.586 351.579 309.852 353.96 M 360.539 360.686 C 353.205 362.096 354.534 368.172 354.534 374.217 C 354.534 384.694 355.281 397.382 359.088 407.213 C 360.865 411.803 365.216 415.847 370.519 414.601 C 377.079 413.061 379.493 406.123 379.533 400.217 C 379.605 389.741 378.346 380.924 374.767 371.217 C 372.185 364.213 368.938 359.072 360.539 360.686 Z"></path>
			<path style="fill:#fff; stroke:none;" d="M 374.723 461.249 C 368.992 464.457 367.953 476.544 365.492 482.217 C 357.166 501.404 347.935 519.084 341.932 539.217 C 340.221 544.956 336.282 551.23 335.816 557.212 C 335.524 560.968 338.573 564.037 342.401 562.594 C 348.462 560.311 350.388 546.672 352.194 541.217 C 355.702 530.621 359.118 520.418 363.728 510.217 C 368.552 499.546 375.063 489.388 378.713 478.217 C 379.93 474.491 382.413 469.141 382.256 465.236 C 382.098 461.301 378.107 459.356 374.723 461.249 Z"></path>
		</g>
	</g>
</svg>