<?xml version="1.0" encoding="utf-8"?>
<svg width="400" height="400" xmlns="http://www.w3.org/2000/svg">
	<defs>
		<style>
			.hand {
				animation: handWave .5s ease-in-out infinite;
			}
			@keyframes handWave {
				50% {
					transform: rotate(-30deg) translateX(-145px) translateY(0px);
				}
			}
		</style>
	</defs>
	<g transform="matrix(1, 0, 0, 1, 48.091568, 42.664562)">
		<title>idle</title>
		<path style="fill:#ffffff; stroke:none;" d="M83 25C81.9814 30.4868 82.7132 35.5437 82.3395 41C82.107 44.3956 81.0188 47.5419 81.0077 51C80.9872 57.3924 80.1993 62.707 79.3002 69C78.6433 73.5975 77.7871 81.5313 79.7423 85.8519C81.7043 90.1874 87.2984 89.1731 88.5664 84.9414C90.8754 77.2354 88.4871 68.0673 89.2099 60.2855C89.4113 58.1172 90.5824 56.1637 90.8603 53.9854C92.1603 43.7986 92.3192 33.2894 93.5571 23C94.161 17.9799 95.4084 5.52374 87 7.55786C82.3421 8.68466 78.217 13.5228 74 15.841C57.662 24.8226 47.0436 41.3762 36.8056 56.7909C33.4576 61.8317 28.7821 65.5484 25.7917 71C22.0329 77.8522 17.6515 85.4037 15.6343 93C14.9216 95.6835 14.633 100.349 18.1443 101.248C21.1185 102.01 23.4176 99.0822 24.9059 96.9807C29.2018 90.9146 31.4141 83.7391 34.3634 77.0146C36.7627 71.5445 42.1136 67.5479 45.4799 62.5756C47.9557 58.9188 49.2672 54.6252 51.9051 51.054C54.1964 47.9519 57.6889 46.1415 59.8665 42.946C61.4781 40.581 62.093 37.6355 63.8426 35.3758C68.0762 29.908 76.176 25.3548 83 25M276 258C270.651 240.919 268.625 223.361 264.47 206C263.84 203.369 264.17 200.597 263.347 198.004C261.435 191.979 255.308 186.696 252.244 181C250.147 177.102 250.638 172.892 248.86 169C246.408 163.628 241.62 157.857 238.076 153.09C232.813 146.009 226.358 136.554 219.61 130.919C217.308 128.996 213.3 127.207 210.318 128.608C204.916 131.147 211.016 136.729 213.143 138.92C220.139 146.129 226.425 162.334 237 164C238.079 174.842 244.871 182.607 249.676 192C251.919 196.386 252.943 201.418 254.791 206C258.362 214.856 258.071 224.735 259.289 234C260.101 240.174 262.684 246 264.265 252C265.404 256.318 265.533 262.961 268.728 266.346C273.243 271.131 279.845 266.493 284 263.706C287.499 261.359 291.841 259.299 294.441 255.896C299.407 249.396 300.843 240.116 304.871 233C314.373 216.213 308.401 195.385 298.476 180.424C294.988 175.167 289.622 171.269 286.414 165.961C283.704 161.475 280.348 156.642 277.998 152C275.389 146.849 275.289 142.781 269 141C268.41 135.563 264.721 131.378 264.034 126C262.8 116.339 264.767 109.188 267.212 100.001C267.863 97.5552 267.501 94.9811 268.163 92.5756C270.057 85.695 275.344 76.3568 280 71C279.172 81.5062 276.217 91.5329 275.171 102C274.626 107.441 275.541 112.612 275.91 118C276.2 122.221 275.311 126.909 277.005 130.91C278.357 134.101 281.288 136.214 283.015 139.174C286.599 145.312 288.215 150.383 294.004 155.062C297.508 157.894 302.194 158.942 305.505 161.818C308.531 164.446 309.928 168.378 313.174 170.957C317.325 174.256 322.921 176.17 326.347 180.326C329.263 183.861 330.294 189.774 332.092 194C333.5 197.312 335.8 200.562 336.792 204C339.326 212.78 338.906 222.039 339.019 231C339.069 234.996 340.362 239.012 339.736 243C338.943 248.051 335.554 252.126 334.422 257C333.808 259.642 334.458 262.354 333.914 265C332.371 272.516 328.994 282.847 324.211 288.896C321.511 292.311 317.412 294.021 314.468 297.185C312.315 299.499 310.8 303.198 307.791 304.535C305.208 305.684 301.765 304.964 299 305.286C291.855 306.118 283.823 306.409 277 308.71C270.454 310.918 265.205 314.187 259 316.915C252.122 319.94 244.095 320.242 237 322.763C228.566 325.76 220.854 329.983 212 332.101C205.492 333.658 200.325 330.756 194 331.185C189.519 331.489 185.374 333.822 181 334.072C177.994 334.244 175.044 333.01 172 333.055C163.279 333.184 154.782 334.729 146 333.576C136.039 332.268 125.966 333.953 116 332.96C109.519 332.314 102.267 329.387 96 327.515C92.7973 326.559 82.7791 319.263 81.3765 326.129C80.3642 331.085 91.6091 334.069 95.1698 335.915C99.5571 338.189 104.34 337.537 109 338.594C122.315 341.616 135.346 344 149 344C155.278 344 161.758 344.453 168 343.715C172.944 343.129 178.132 341.088 183 340.904C186.042 340.789 188.91 342.026 192 341.815C196.155 341.531 199.945 339.924 204 339.259C207.955 338.611 212.022 339.229 216 338.711C224.228 337.639 232.939 335.188 241 333.251C249.244 331.269 255.114 325.018 263 323.135C266.946 322.193 271.1 322.532 275 321.582C278.504 320.728 281.352 318.541 285 318.058C294.056 316.859 302.289 317.934 310.996 314.12C319.411 310.435 330.136 298.985 334.583 290.985C338.269 284.353 338.928 275.261 341.198 268C346.242 251.871 350.482 234.196 348.151 217C347.542 212.506 345.161 208.423 344.195 204C343.54 200.998 344.123 197.984 343.574 195C342.206 187.562 337.248 178.948 332.491 173.184C329.986 170.15 326.206 168.553 323.301 165.96C320.475 163.438 318.678 159.977 315.806 157.545C312.917 155.099 309.216 153.714 306.271 151.316C297.78 144.401 286.67 133.033 284.39 122C283.501 117.696 284.879 113.322 284.985 109C285.398 92.1497 289.603 77.2011 293.884 61C295.015 56.7219 302.099 42.2963 292.995 42.2963C286.817 42.2963 282.671 51.8548 278.939 55.7145C261.842 73.3951 256.856 95.1532 254.289 119C253.606 125.347 255.342 134.356 258.569 139.907C260.214 142.737 263.192 144.388 264.84 147.184C269.897 155.761 272.687 165.617 278.645 173.83C285.772 183.655 296.439 192.447 299.836 204.754C302.782 215.423 294.336 229.683 290.35 239C286.875 247.12 282.881 252.396 276 258M137 86C141.171 71.7579 114.349 62.144 103.109 65.3179C98.8108 66.5316 98.1814 72.2546 102.228 74.2724C108.039 77.1693 115.334 75.6638 120.985 79.0586C126.016 82.0806 128.823 86.5341 135 87C132.336 89.5851 118.664 98.7039 128.148 102.377C134.912 104.997 144.448 94.1563 150 91.4529C156.13 88.4683 164.39 87.6882 171 85.4846C182.354 81.6992 193.948 74.7622 206 74C201.83 81.8301 197.258 89.6552 194.293 98C192.226 103.818 191.357 108.936 190.41 115C189.455 121.113 186.199 128.817 187.152 134.941C188.311 142.387 195.994 137.007 197.86 132.995C200.44 127.452 199.612 119.968 201.04 114C203.467 103.859 207.816 93.6095 211.812 84C213.735 79.3755 221.734 68.4337 215.566 64.179C208.946 59.6124 201.073 66.5526 195 68.3588C181.15 72.4779 166.92 75.3198 153 79.4182C147.018 81.1796 143.624 85.6556 137 86z"/>
		<path style="fill:#000000; stroke:none;" d="M 136 86 L 137 87 L 136 86 Z"/>
		<path style="fill:#ffffff; stroke:none;" d="M51 232C47.5879 224.456 46.6291 216.46 43.3657 209C39.2382 199.564 33.6701 190.731 30.0586 181C28.7264 177.41 29.0536 173.561 27.6451 170C25.1823 163.773 20.3689 159.606 17.2994 153.91C14.616 148.931 12.9548 142.384 11.0656 137C9.45147 132.4 7.19449 128.012 8.56944 123.015C9.87094 118.284 13.9397 115.134 14.4738 110.005C14.82 106.679 12.7595 103.527 9.03858 104.662C0.366494 107.307 1.64011 126.122 2.57639 133C3.27804 138.154 3.14852 144.085 4.96991 148.985C6.29471 152.55 9.32189 154.749 11.0123 158.039C12.4608 160.859 11.9255 164.133 13.2145 167C14.8301 170.593 17.8227 173.387 19.4815 177C22.2843 183.104 23.4184 189.879 26.0046 195.985C27.8805 200.415 31.5147 203.071 32.5355 208.001C34.3464 216.746 37.6947 224.463 40.0802 233C41.1061 236.671 41.6556 241.482 46.0903 242.522C50.5905 243.578 53.15 239.333 56.1042 236.815C59.7006 233.75 63.7057 231.815 68 229.95C87.8604 221.323 103.658 206.941 119.957 193C122.883 190.497 125.027 187.141 128.104 184.849C132.657 181.457 138.04 176.599 143 174.023C145.909 172.512 149.817 172.905 150.638 168.942C151.517 164.7 147.56 159.959 143.169 162.071C136.596 165.232 130.662 173.14 125 177.773C121.058 180.998 116.055 182.283 112 185.454C103.959 191.742 95.7248 198.092 88.0008 204.729C76.262 214.816 62.9761 222.085 51 232M40.2091 119.786C33.231 122.462 31.8466 139.976 33.6489 146C34.4967 148.834 36.3915 151.196 37.3009 154C38.5628 157.891 37.2754 168.321 44.8526 165.377C48.7882 163.848 48.0301 158.367 47.9892 155C47.9074 148.266 47.1286 141.688 46.8758 135C46.7397 131.4 47.4629 127.606 46.7716 124.044C46.1609 120.897 43.5509 118.505 40.2091 119.786M88.0548 128.032C83.5343 130.417 83.1551 135.497 82.9892 140C82.8551 143.639 81.8048 147.387 82.544 151C83.3232 154.809 85.5107 158.073 85.8951 162C86.2997 166.135 85.0299 171.158 87.0278 174.981C89.5345 179.777 97.1298 181.753 101.853 178.972C104.892 177.183 105.462 173.067 106.539 170C110.099 159.87 108.136 145.615 103.601 136.001C100.986 130.458 94.7414 124.503 88.0548 128.032M103.313 229.047C99.0977 231.6 99.4023 241.739 96.6404 246C83.208 266.722 76.216 291.264 66.8758 314C65.2061 318.064 63.9566 323.682 65.7423 327.941C66.7527 330.351 69.1569 332.226 71.7901 330.914C77.6617 327.986 75.3685 318.01 78.2199 313C85.188 300.756 88.0395 286.92 93.2076 274C96.8917 264.79 102.675 256.359 106.038 247C107.401 243.207 109.796 236.041 109.423 232.059C109.144 229.081 105.884 227.49 103.313 229.047z"/>
	</g>
	<g style="opacity: 0;" transform="matrix(1, 0, 0, 1, 108.922661, 66.783714)">
		<title>look</title>
		<path style="fill:#ffffff; stroke:none;" d="M76 18C76.5623 31.0965 79.0778 42.9377 76.8858 55.9606C75.971 61.3959 70.2455 68.0097 74.0278 73.6821C75.7737 76.3005 79.2613 75.9268 82 76.0139C87.8418 76.1995 93.2284 78.3623 99 79.0039C104.202 79.5821 109.808 86.6155 114.853 83.8056C120.077 80.8952 118.999 71.0107 119 66C119.001 59.5135 118.705 52.381 119.313 46C119.701 41.9298 121.959 38.1217 122.571 34C123.478 27.8854 122.479 22.0738 122 16C128.576 23.8481 135.242 31.5607 140.934 40.1698C144.587 45.6958 147.376 51.759 151.518 56.9992C153.92 60.0378 157.031 62.3406 159.505 65.2855C162.01 68.2664 163.439 71.8889 166.301 74.625C173.477 81.4852 178.225 87.1136 182.931 96C184.175 98.3475 187.068 101.61 186.677 104.424C186.23 107.641 182.656 110.357 180.989 113C176.803 119.64 173.642 126.548 169.089 132.985C167.226 135.618 163.446 138.736 163.206 142.1C162.583 150.843 172.323 147.11 176 144C178.613 150.736 183.011 156.333 185.651 163C187.984 168.889 188.011 175.831 189.669 181.985C190.658 185.658 193.25 188.432 194.351 192.015C195.648 196.238 194.697 200.763 196.263 204.985C197.617 208.634 200.607 211.141 201.521 215.015C202.619 219.669 202.626 225.494 204.6 229.852C207.573 236.42 220.947 233.604 222 227C230.595 228.19 237.853 221.425 243.715 215.87C246.695 213.045 251.175 210.626 253.03 206.895C256.051 200.819 255.402 192.453 254.196 186C253.241 180.887 253.233 174.21 250.772 169.59C248.776 165.842 245.16 163.346 242.633 160C236.576 151.977 231.683 143.98 227.59 135C225.3 129.976 222.313 125.743 222.109 120C221.907 114.327 225.64 110.821 227.869 106C229.966 101.463 231.345 96.5577 233.494 92C234.852 89.12 237.163 86.8761 238.526 84C242.328 75.9811 241.14 67.9469 238 60C246.775 69.4895 243.258 80.5745 241.17 92C238.882 104.518 237.844 118.808 242.246 131C247.722 146.167 261.478 157.751 270.204 171C276.689 180.845 279.688 193.374 281.081 205C282.099 213.498 278.814 222.488 275.313 230C273.314 234.29 272.225 238.864 269.649 242.91C264.425 251.116 256.959 258.521 249.884 264.938C238.951 274.852 225.846 279.651 213.039 286.529C210.499 287.893 208.539 290.109 205.91 291.305C201.193 293.452 195.81 294.128 191 296.094C188.301 297.198 185.849 299.029 183 299.734C175.184 301.667 166.884 301.938 159 303.23C156.506 303.638 154.416 305.032 152 305.657C147.872 306.724 143.239 306.395 139 307.17C133.637 308.15 128.419 310.116 123 310.819C117.73 311.504 113.179 310.323 108 310.043C100.261 309.625 92.7607 310.551 85 309.914C73.4508 308.967 62.2149 305.423 51 302.749C47.0526 301.808 42.8095 302.396 39.0895 300.583C32.544 297.391 22.9629 287.822 15.8935 296.419C9.99897 303.587 19.0792 310.456 26 310.3C29.1032 310.23 31.8322 308.815 35 309.406C37.8191 309.932 40.2682 311.563 43 312.367C52.6927 315.217 62.1424 315.119 72 316.285C81.6158 317.424 91.3237 319.537 101 319.961C109.748 320.344 119.309 318.727 128 317.576C134.761 316.68 148.906 319.32 153 313C158.806 314.382 162.383 312.651 168 311.918C171.778 311.425 175.254 311.722 178.985 310.557C181.773 309.687 184.229 307.862 187.09 307.274C195.867 305.471 204.618 304.603 212.91 300.54C218.14 297.978 222.706 293.884 228 291.178C238.358 285.883 248.73 280.753 257.871 273.455C262.925 269.421 266.66 263.313 270.615 258.285C283.595 241.789 292.731 220.629 290.826 199C289.867 188.123 286.536 175.228 280.579 166C270.753 150.775 254.447 138.433 250.106 120C245.438 100.182 259.271 79.7575 252.031 60C245.673 42.6492 224.222 36.2237 209 30.4205C204.663 28.7672 192.487 23.074 189.747 29.2284C186.673 36.1325 195.42 38.7068 200 40.7153C211.963 45.9615 226.667 56.595 230.454 70C232.653 77.7857 224.639 84.549 221.542 91C215.684 103.205 213.629 116.576 214.383 130C215.322 146.738 230.755 157.239 238.812 170.043C245.986 181.444 244.234 192.609 243 205C235.931 206.626 229.201 212.942 223.575 217.385C220.569 219.758 217.229 223.122 213.634 219.681C207.405 213.72 208.114 207.487 206.316 200C205.127 195.052 201.869 190.961 200.595 186C199.02 179.864 199.162 172.97 196.353 167.17C194.617 163.587 191.844 160.75 190.277 157C188.788 153.438 188.423 149.587 186.978 146C185.581 142.529 182.782 138.904 183.048 135C183.268 131.765 185.58 128.737 187.131 126C191.82 117.73 200.141 106.39 196.435 96.2847C194.033 89.7339 186.466 86.1147 182.704 80.4205C177.939 73.2075 172.651 66.7368 167.545 59.8302C162.625 53.1757 158.86 45.4644 153.483 39.054C148.455 33.0596 142.347 27.8927 137.419 21.7145C135.308 19.0681 135.243 15.981 133.914 13C132.087 8.89948 128.766 5.80151 125.169 3.24768C122.962 1.68097 120.093 -0.441986 117.224 0.647369C110.802 3.08557 113.831 14.1119 113.505 19C112.343 36.4529 109 53.4429 109 71C103.564 70.2927 98.5352 68.0215 93 67.2816C90.6425 66.9665 87.4247 67.1332 85.6427 65.2577C83.5403 63.0449 84.92 58.7177 84.9853 56C85.2112 46.6101 84.8744 37.312 85.054 28C85.1888 21.0139 86.0135 13.9761 86.5309 7.00385C86.7458 4.10815 86.1093 1.24402 82.8912 0.477631C77.1962 -0.878662 68.0216 9.63635 64.169 13.3001C58.8898 18.3206 55.239 24.4975 50.5571 29.9854C44.0117 37.6575 36.1801 44.9538 28.8302 51.882C22.9917 57.3855 14.7443 63.0575 13.527 71.9846C12.8555 76.9094 17.9873 78.9492 21.7106 76.4074C27.8503 72.2161 32.6165 64.6958 37.2461 59C41.6986 53.5222 45.5006 47.5569 49.8843 42.0008C54.2545 36.4616 59.7072 33.2084 64.9961 28.7407C68.9419 25.4076 71.9462 21.2273 76 18z"/>
		<path style="fill:#ffffff; stroke:none;" d="M11.3179 81.0324C7.73758 83.3382 8.79825 90.4986 9.51466 94C11.9241 105.776 15.8961 117.475 19.294 129C21.3136 135.85 25.605 140.755 28.1103 147.09C29.4914 150.581 28.545 154.449 29.6528 158C31.0737 162.555 34.9614 165.722 36.9259 170C39.5746 175.768 39.959 182.348 43.4028 187.83C46.2599 192.379 50.9395 195.409 53.8264 200C57.6195 206.033 61.0973 212.286 65.3781 217.999C67.3931 220.688 69.5146 223.896 73.0147 224.664C81.4212 226.508 93.552 216.778 100.004 212.415C107.176 207.565 112.22 200.446 118.375 194.594C122.438 190.731 126.486 187.821 129.576 183.004C132.311 178.739 137.604 176.369 139.806 171.958C142.949 165.659 135.774 162.612 131.209 166.434C129.073 168.224 127.785 170.807 125.791 172.741C113.893 184.274 102.025 195.944 90.2901 207.682C88.0906 209.882 79.4839 213.513 76.4282 212.49C73.7689 211.599 71.6272 208.42 69.8179 206.424C64.0418 200.053 59.7725 193.583 55.919 186C52.09 178.465 46.5295 171.528 43.0548 163.985C35.2662 147.079 30.979 128.98 26.0039 111.004C24.9874 107.331 25.2867 103.622 24.3796 99.9853C23.265 95.5167 20.9183 91.4101 19.5903 87.0008C18.5016 83.3864 16.2429 77.8607 11.3179 81.0324M62.2245 108.032C58.8722 109.982 58.3274 114.63 57.3356 118C54.7805 126.682 49.1855 136.764 51.7886 146C53.416 151.775 57.0341 161.378 64.787 156.821C74.2961 151.231 71.2519 134.636 70.6605 126C70.4549 122.998 71.109 120.023 70.8295 117C70.4225 112.599 68.573 104.341 62.2245 108.032M121.109 108.747C117.239 110.327 116.28 115.414 115.202 119C112.146 129.173 112.703 137.513 113.015 148C113.162 152.911 115.524 159.716 121.91 157.381C135.885 152.271 133.076 130.086 131.868 118.996C131.29 113.686 127.721 106.047 121.109 108.747M31.2276 189.032C24.7636 192.822 24.7372 208.17 24.0602 214.715C23.5657 219.495 23.5113 225.397 22.3866 230C18.3464 246.535 9.20491 261.547 4.88426 278C3.58338 282.954 -0.00917086 289.97 0.256173 294.981C0.438868 298.43 3.57738 300.598 6.89198 299.377C9.66635 298.355 10.6104 295.47 11.6914 292.999C14.0969 287.5 15.7048 281.828 17.1165 276C18.8636 268.787 22.0805 262.103 24.061 255C26.3091 246.936 27.182 238.22 29.1736 230C30.8041 223.27 33.311 216.814 34.7886 209.999C35.8854 204.941 39.2522 198.095 38.7978 193.019C38.4572 189.214 34.6557 187.023 31.2276 189.032z"/>
		<g class="hand" transform="matrix(1, 0, 0, 1, -110, 0)" style="transform-origin: 51.942px 46.486px;">
			<title>hand</title>
			<path style="fill:#ffffff; stroke:none;" d="M71 35C67.0144 27.9966 64.0848 19.9313 62.615 12C61.6617 6.85597 61.278 1.09869 54.9599 0.144287C48.4537 -0.838524 43.1676 1.36595 37 2.62192C34.3493 3.16171 31.5494 2.86959 29.0895 4.17824C25.3571 6.16386 22.4157 10.0817 18.9992 12.6211C15.8951 14.9284 12.2503 16.629 9.42438 19.2739C6.2673 22.2287 -2.84657 31.2702 1.06713 36.3781C3.90271 40.0789 10.8436 33.9053 12.8264 31.8958C21.1331 23.4773 26.3693 16.6382 38 12.7755C41.4908 11.6161 46.1473 9.84816 49.8951 10.4877C54.113 11.2074 56.4375 17.5584 57.9606 21C60.4295 26.5783 62.9784 32.9377 63.8403 39C64.7021 45.062 64.664 55.0163 70.4985 58.9715C74.6808 61.8066 77.9518 57.7533 79.9807 54.571C84.5415 47.4173 79.1023 38.0488 81.179 30.0586C82.2759 25.8385 90.5532 26.0432 89.2485 21.1289C88.1548 17.0097 75.5934 14.7499 72.7423 17.6073C69.2876 21.0695 71.1011 30.4633 71 35z"/>
			<path style="fill:#ffffff; stroke:none;" d="M60 88L58 88C54.2525 79.8693 44.6287 74.6946 38.7145 68C34.5133 63.2444 30.0182 58.7051 25.7145 54.0394C21.8288 49.8267 16.1991 43.4958 11.0008 41.0432C7.72544 39.4979 2.80887 41.3434 4.62268 45.6366C6.19349 49.3546 12.0777 52.0469 14.8302 55.0147C19.5386 60.0911 23.3155 65.9832 28.0903 70.9846C32.5166 75.621 38.059 79.5815 43 83.6752C46.9953 86.9853 56.7438 97.4825 61 91C68.7696 94.336 78.5013 88.1715 86 85.9352C90.6059 84.5616 95.6157 84.306 99.9552 82.081C104.723 79.6365 105.354 74.7403 100 73C101.114 59.6507 101.102 44.3547 99.8302 31C99.5638 28.202 99.6065 23.696 97.973 21.3225C96.5003 19.1827 93.4914 19.0868 92.0424 21.3225C90.0615 24.379 91.9824 30.5007 91.9992 34C92.0525 45.0393 95.1055 61.9161 89.5255 71.8557C87.9082 74.7365 84.969 75.2412 82.1698 76.5093C75.0321 79.7426 63.9211 80.4585 60 88z"/>
		</g>
	</g>
</svg>
