<?xml version="1.0" encoding="utf-8" standalone="yes"?>
<svg xmlns="http://www.w3.org/2000/svg" width="2200" viewBox="0 0 2200 700">
	<defs>
		<linearGradient id="gradient-0" pinned="true">
			<title>fade</title>
			<stop offset="0" style="stop-color:#5462a0;"></stop>
			<stop offset="1" style="stop-color:#0000;"></stop>
		</linearGradient>
		<linearGradient id="gradient-0-0" href="#gradient-0" gradientUnits="userSpaceOnUse" x1="1096.782" y1="0" x2="1096.782" y2="680.009" gradientTransform="matrix(0.999874, 0.015829, -0.001683, 0.106273, 1.442466, 451.00345)"></linearGradient>
		<linearGradient id="gradient-0-1" href="#gradient-0" gradientUnits="userSpaceOnUse" x1="566.381" y1="436.816" x2="566.381" y2="1105.346" gradientTransform="matrix(0.999826, -0.01811, 0.013757, 0.71705, -15.10807, 323.015513)"></linearGradient>
		<linearGradient id="gradient-0-2" href="#gradient-0" gradientUnits="userSpaceOnUse" x1="495.06" y1="585.222" x2="495.06" y2="741.204" gradientTransform="matrix(0.999998, 0.001806, -0.00388, 2.028404, 2.271807, -602.738757)"></linearGradient>
		<linearGradient id="gradient-0-3" href="#gradient-0" gradientUnits="userSpaceOnUse" x1="2148.291" y1="408.243" x2="2148.291" y2="852.271" gradientTransform="matrix(0.999991, -0.00433, 0.001402, 0.305823, -4.133379, 600.255983)"></linearGradient>
		<linearGradient id="gradient-0-4" href="#gradient-0" gradientUnits="userSpaceOnUse" x1="1374.135" y1="456.043" x2="1374.135" y2="888.608" gradientTransform="matrix(0.999967, 0.007967, -0.008509, 1.008438, 6.468521, 240.763948)"></linearGradient>
		<filter id="opacity-filter-0" preset="opacity 1 0.5" color-interpolation-filters="sRGB" x="-50%" y="-50%" width="200%" height="200%">
			<feComponentTransfer>
				<feFuncA type="table" tableValues="0 0.5"></feFuncA>
			</feComponentTransfer>
		</filter>
		<linearGradient id="gradient-0-5" href="#gradient-0" gradientUnits="userSpaceOnUse" x1="1940.82" y1="134.97" x2="1940.82" y2="266.97" gradientTransform="matrix(0.999982, 0.005894, -0.010785, 1.835328, 4.540396, -67.655778)"></linearGradient>
	</defs>
	<path style="stroke: none; fill: url(#gradient-0-0);" d="M -6.436 316.761 C 3.469 311.842 12.072 301.78 19.849 294.046 C 32.836 281.131 63.067 251.185 77 239.295 C 93.409 225.292 110.165 211.669 126 196.919 C 139.099 184.718 151.108 171.423 164.015 159.098 C 189.258 134.993 215.96 112.277 240.961 87.92 C 248.874 80.21 255.868 71.673 264 64.099 C 274.517 54.302 285.899 45.263 295.961 34.994 C 305.864 24.887 312.945 12.983 325 5.009 C 333.504 25.736 342.443 46.296 350.989 67.009 C 357.016 81.616 362.301 96.87 369.37 111.009 C 377.755 127.779 388.252 143.74 397.579 160.009 C 417.854 195.375 438.113 230.751 458.576 266.009 C 471.708 288.636 484.718 311.338 497.775 334.009 C 504.609 345.875 510.508 358.946 518.606 370.009 C 530.874 386.771 546.801 401.783 560.911 417.009 C 585.426 443.463 609.637 470.26 633.83 497.009 C 664.685 531.124 695.381 565.563 726.964 599.009 C 734.08 606.544 740.865 614.406 747.911 622.009 C 753.656 628.208 758.702 634.28 767 637.009 C 765.423 631.579 760.219 627.265 756.572 623.009 C 747.474 612.394 737.531 602.495 728.286 592.009 C 693.952 553.066 657.969 515.537 623.17 477.009 C 601.446 452.957 579.553 429.06 557.83 405.009 C 546.577 392.55 533.545 380.701 523.788 367.009 C 518.901 360.152 515.251 352.265 510.989 345.009 C 501.051 328.088 491.339 311.033 481.579 294.009 C 457.282 251.628 432.494 209.517 408.424 167.009 C 397.132 147.065 384.52 127.509 374.27 107.009 C 364.287 87.043 356.953 65.522 348.15 45.009 C 343.595 34.393 339.377 23.637 334.85 13.009 C 333.03 8.734 331.678 2.522 326.957 0.501 C 319.683 -2.611 311.53 9.63 307.001 13.585 C 299.369 20.249 294.012 28.797 286.961 35.994 C 276.425 46.747 264.734 56.453 254 67.012 C 223.283 97.228 192.568 127.593 161 156.955 C 132.543 183.423 103.13 209.055 74.985 235.919 C 60.728 249.529 28.644 279.513 13.564 292.171 C 5.538 298.908 -4.354 305.845 -6.436 316.761 M 1505.249 576.26 L 1505.249 578.26 L 1506.249 579.26 C 1519.479 575.714 1565.46 525.932 1576 517.893 C 1581.17 513.951 1586.98 510.749 1592 506.669 C 1599.34 500.696 1605.21 493.141 1612.13 486.813 C 1617.39 482.006 1623.7 478.573 1629 473.88 C 1639.39 464.673 1648.97 454.64 1659 445.048 C 1683.45 421.668 1709.15 399.208 1731.83 374.009 C 1751.86 351.754 1769.1 326.659 1787.43 303.009 C 1820.64 260.136 1854.25 217.127 1884.33 172.009 C 1893.86 157.714 1901.86 142.527 1911.05 128.009 C 1922.22 110.384 1934.11 93.37 1944.14 75.009 C 1953.11 58.586 1956.56 38.887 1971 26.009 C 1977.32 41.215 1986.99 51.868 1997.83 64.009 C 2010.82 78.547 2024.41 91.268 2039 104.164 C 2068.04 129.845 2099.4 152.463 2129 177.448 C 2144.57 190.593 2160.2 203.559 2176 216.434 C 2183.97 222.931 2191.41 230.329 2200 236.009 C 2199.75 228.423 2193.38 224.865 2188 220.281 C 2176.67 210.619 2165.56 200.796 2154 191.398 C 2119.39 163.261 2083.53 136.676 2050 107.164 C 2038.5 97.043 2025.89 87.595 2015.51 76.291 C 2007.86 67.951 2000.37 59.453 1992.83 51.009 C 1988.36 45.993 1982.94 41.049 1979.84 35.009 C 1977.68 30.807 1974.71 18.635 1967.3 22.289 C 1963.54 24.141 1960.57 31.528 1958.58 35.009 C 1952 46.478 1946.7 58.534 1940.15 70.009 C 1916.18 111.996 1890.7 152.611 1864.24 193.009 C 1841.53 227.692 1814.79 259.623 1789 292.009 C 1767.95 318.459 1748.45 346.876 1725.83 372.009 C 1698.41 402.47 1668.34 429.729 1638 457.179 C 1631.6 462.97 1626.12 469.699 1619.83 475.57 C 1614.32 480.714 1607.67 484.258 1602 489.124 C 1594.87 495.242 1588.74 502.253 1581.83 508.545 C 1575.69 514.143 1529.849 555.984 1523.249 561.009 C 1516.959 565.796 1512.319 572.592 1505.249 576.26 M 41 680.009 C 45.44 678.611 46.267 675.186 47.667 671.009 C 50.024 663.974 52.609 657.03 55.003 650.009 C 65.143 620.277 75.424 590.435 86.424 561.009 C 97.682 530.896 108.112 500.38 118.656 470.009 C 123.948 454.766 128.509 438.764 135.039 424.009 C 143.668 404.513 154.965 385.951 164.742 367.009 C 191.265 315.621 218.893 264.729 244.753 213.009 C 261.14 180.235 277.435 146.925 295.424 115.009 C 299.695 107.432 302.991 99.193 307.908 92.009 C 309.053 90.337 312.892 86.096 310.353 84.095 C 307.427 81.79 304.211 87.127 303.066 89.014 C 298 97.36 294.366 106.51 289.576 115.009 C 269.898 149.919 251.712 186.183 233.753 222.009 C 211.218 266.964 187.687 311.533 164.219 356.009 C 153.575 376.182 141.739 396.246 132.312 417.009 C 125.363 432.315 120.945 449.171 115.308 465.009 C 103.578 497.966 91.398 530.823 80.333 564.009 C 71.964 589.113 63.029 614.153 53.947 639.009 C 49.36 651.562 41.314 666.575 41 680.009 M 2179.361 598.107 C 2177.401 587.843 2172.031 577 2168.411 567.107 C 2161.151 547.222 2128.83 459.048 2122 439.009 C 2094.56 358.459 2064.58 278.736 2037.67 198.009 C 2028.84 171.542 2018.83 145.475 2010 119.009 C 2007.8 112.414 2006.24 105.598 2004.06 99.068 C 2003.49 97.373 2001.8 94.362 1999.6 96.095 C 1997.91 97.424 1998.65 100.285 1999.11 102.01 C 2000.72 108.033 2003.59 114.1 2005.69 120.009 C 2014.34 144.302 2022.66 168.715 2031.31 193.009 C 2061.5 277.85 2090.08 363.282 2120.59 448.009 C 2127.88 468.278 2160.411 556.716 2167.361 577.107 C 2169.681 583.935 2171.701 595.511 2179.361 598.107 M 204 160.009 C 203.187 151.961 207.39 141.46 210.38 134.009 C 211.573 131.035 214.545 127.479 214.339 124.158 C 214.152 121.151 211.118 121.394 208.999 122.162 C 205.014 123.606 202.852 125.981 202 130.009 C 204.301 129.612 205.905 129.052 208 128.009 C 202.714 143.898 197.686 160.696 194 177.009 C 201.878 175.724 205.194 164.137 208.927 158.009 C 212.214 152.612 217.131 148.921 220.907 143.97 C 227.761 134.981 233.965 126.111 242 118.009 C 244.355 136.641 240.601 155.476 238.83 174.009 C 238.137 181.26 235.636 191.05 237 198.009 C 243.442 194.618 242.809 180.772 242.64 174.009 C 242.39 164.012 244.985 154.803 245.896 145.009 C 246.895 134.266 246 122.838 246 112.009 C 239.026 112.642 235.569 116.799 231.289 122.009 C 227.683 126.4 225.087 131.493 221.525 135.92 C 215.417 143.509 207.963 150.996 204 160.009 M 311 174.009 C 305.907 167.811 303.728 160.173 300.297 153.01 C 299.287 150.901 297.935 146.645 294.996 146.645 C 290.027 146.645 285.966 157.362 284.269 161.009 C 278.854 172.651 269.26 184.031 261.195 194.009 C 257.324 198.799 250.924 203.362 252 210.009 C 257.598 207.342 260.031 201.889 263.536 197.009 C 270.935 186.709 278.678 176.503 285.783 166.009 C 289.04 161.199 290.693 154.837 296 152.009 C 296.653 156.366 298.266 160.11 300.298 164.009 C 301.678 166.658 302.989 169.321 304.298 172.005 C 308.242 180.096 315.453 178.524 318.197 170.008 C 321.572 159.532 322.07 148.869 323.42 138.009 C 324.082 132.684 322.928 128.723 326 124.009 C 327.809 134.51 333.585 143.801 336.406 154.009 C 341.881 173.825 346.835 194.737 356.258 213.009 C 360.345 220.933 362.069 235.961 372 238.009 C 375.882 228.481 376.266 218.198 377.086 208.009 C 377.731 199.987 379.36 192.047 379.91 184.009 C 380.462 175.949 379.371 168.051 380 160.009 C 387.75 161.787 392.585 168.549 400 171.009 C 398.951 164.519 390.426 159.79 385 156.711 C 382.537 155.313 378.216 154.058 376.603 157.327 C 375.528 159.507 376.001 162.658 376 165.009 C 375.997 171.004 376.132 177.016 375.985 183.009 C 375.587 199.28 373.624 216.156 370 232.009 C 359.815 214.496 353.993 196.053 347.645 177.009 C 343.879 165.71 339.453 154.62 336.654 143.009 C 335.034 136.294 333.091 129.43 329.32 123.589 C 328.127 121.741 326.269 117.752 323.414 119.185 C 319.242 121.28 320.134 131.189 319.961 135.009 C 319.55 144.056 318.91 154.289 316.363 163.009 C 315.223 166.911 312.709 170.348 311 174.009 M 2053 125.009 C 2057.07 136.055 2063.82 145.489 2068.83 156.009 C 2075.05 169.069 2080.42 183.714 2088 196.009 C 2082.03 191.806 2077.21 186.11 2072 181.024 C 2064.22 173.435 2056.49 166.195 2049.29 158.009 C 2043.28 151.181 2037.4 141.926 2029 138.009 C 2026.71 146.42 2033.7 157.564 2035.58 166.009 C 2036.49 170.129 2036.67 173.585 2041 175.009 C 2038.9 165.161 2036.13 154.623 2033 145.009 C 2047.38 159.388 2059.57 176.372 2075 189.581 C 2079.51 193.442 2086.84 201.922 2093 201.009 C 2087.19 187.397 2081.23 173.325 2074.57 160.009 C 2068.6 148.052 2060.08 137.297 2057 124.009 L 2053 125.009 Z">
		<title>front</title>
	</path>
	<g transform="matrix(0.556471, 0, 0, 0.572703, 338.502502, -42.303509)" style="filter: url(#opacity-filter-0);">
		<title>backing</title>
		<path style="stroke: none; fill: url(#gradient-0-1);" d="M 297.549 659.608 L 299.549 659.608 C 309.848 642.922 322.896 626.838 335.239 611.608 C 340.036 605.69 343.606 598.447 349.549 593.608 C 351.173 601.185 358.318 589.757 360.549 587.636 C 370.452 578.219 379.945 568.377 389.549 558.608 C 388.141 564.525 389.781 569.727 389.365 575.608 C 388.903 582.153 389.411 589.185 388.441 595.647 C 388.033 598.369 386.334 600.84 386.112 603.549 C 385.911 606.007 387.828 607.841 390.306 606.946 C 394.371 605.476 396.384 598.227 397.726 594.608 C 400.26 587.777 405.509 578.797 410.549 573.608 C 409.837 583.69 411.133 592.8 412.63 602.608 C 414.623 615.662 415.117 629.404 416.599 642.608 C 417.181 647.793 416.954 653.548 418.233 658.589 C 418.669 660.306 419.745 663.716 422.224 662.856 C 424.648 662.016 424.326 658.571 424.105 656.607 C 423.464 650.913 422.139 645.308 421.499 639.608 C 418.765 615.27 416.474 591.001 414.549 566.608 C 400.779 566.771 400.234 583.663 392.549 591.608 C 394.176 586.102 392.899 581.189 392.653 575.608 C 392.442 570.789 393.193 565.434 393.58 560.608 C 393.759 558.374 395.006 555.232 393.507 553.216 C 390.261 548.848 383.493 556.497 381.469 558.697 C 376.259 564.36 370.187 569.132 364.992 574.778 C 360.12 580.072 356.584 585.406 350.549 589.608 C 358.495 581.49 364.355 571.678 371.259 562.697 C 384.731 545.175 397.568 527.133 411.049 509.608 C 420.807 496.922 429.725 483.814 438.743 470.608 C 443.094 464.239 449.106 457.972 451.549 450.608 L 453.549 450.608 C 455.676 458.048 459.54 464.628 462.757 471.608 C 469.249 485.691 476.143 499.572 482.768 513.608 C 501.198 552.652 519.264 591.946 538.58 630.608 C 553.069 659.608 565.627 689.535 579.922 718.608 C 592.955 745.114 606.178 771.734 618.518 798.608 C 626.822 816.693 635.648 834.597 644.151 852.608 C 647.543 859.794 650.173 867.882 654.543 874.569 C 658.168 880.116 664.119 884.234 668.175 889.608 C 686.905 914.422 706.244 938.754 724.924 963.608 C 741.039 985.049 757.551 1006.53 774.28 1027.52 C 786.066 1042.3 798.622 1056.98 809.343 1072.57 C 815.411 1081.39 820.323 1090.88 826.844 1099.59 C 829.048 1102.54 833.05 1107.2 837.23 1104.57 C 840.784 1102.32 838.454 1098.15 836.726 1095.61 C 831.729 1088.25 826.331 1079.03 819.473 1073.32 C 807.864 1063.66 799.249 1049.63 790.175 1037.61 C 779.193 1023.06 767.647 1008.89 756.429 994.519 C 750.022 986.31 744.34 977.466 737.496 969.608 C 721.835 951.628 708.606 931.401 693.814 912.698 C 684.89 901.413 674 890.225 666.608 877.879 C 662.767 871.465 660.593 863.434 657.291 856.608 C 646.838 835.003 636.923 813.203 626.441 791.608 C 594.665 726.145 563.564 660.379 532.438 594.608 C 514.588 556.89 496.713 519.187 478.53 481.608 C 473.752 471.734 468.92 461.687 464.549 451.608 C 462.736 447.426 460.217 440.135 456.16 437.64 C 450.382 434.086 446.485 442.957 444.11 446.608 C 435.625 459.648 425.989 472.019 416.843 484.608 C 385.531 527.71 352.238 569.365 321.129 612.608 C 314.31 622.087 306.937 631.148 300.129 640.608 C 298.001 643.565 293.711 647.752 293.673 651.608 C 293.645 654.436 296.127 657.324 297.549 659.608 Z">
			<title>leftOutline</title>
		</path>
		<path style="stroke: none; fill: url(#gradient-0-2);" d="M 474.549 632.608 C 471.524 629.365 468.158 626.625 464.834 623.703 C 463.481 622.513 461.842 620.765 459.823 621.36 C 455.764 622.555 454.797 631.242 454.5 634.608 C 453.302 648.179 444.839 660.999 444.549 674.608 C 449.22 672.971 449.906 666.954 451.379 662.608 C 455.397 650.756 457.684 638.642 460.549 626.608 C 466.075 631.456 469.578 638.344 477.549 638.608 C 482.308 626.687 484.172 612.518 482.549 599.608 C 487.381 609.477 489.61 621.189 493.244 631.608 C 498.049 645.383 504.638 658.134 510.096 671.608 C 513.76 680.653 515.405 690.772 519.278 699.593 C 520.886 703.256 523.767 706.182 525.771 709.623 C 530.7 718.083 533.068 726.827 537.095 735.604 C 538.105 737.806 539.888 742.33 543.159 740.946 C 545.209 740.079 545.384 737.506 545.505 735.603 C 545.85 730.194 544.755 724.977 544.56 719.608 C 543.99 703.95 542.377 688.259 541.506 672.608 C 541.131 665.873 540.007 660.476 540.549 653.608 L 534.549 653.608 C 534.549 669.878 536.834 686.372 538.379 702.608 C 539.08 709.97 537.821 717.35 539.549 724.608 C 537.314 721.917 536.573 718.733 535.031 715.608 C 531.717 708.89 528.235 702.48 525.11 695.647 C 518.488 681.171 511.146 666.629 505.653 651.608 C 501.704 640.808 499.554 629.196 494.779 618.608 C 491.085 610.418 488.173 601.226 485.591 592.608 C 484.924 590.379 484.522 584.227 480.769 585.36 C 476.666 586.598 477.605 593.516 477.97 596.608 C 479.332 608.176 476.672 621.212 474.549 632.608 Z">
			<title>leftInner</title>
		</path>
		<path style="stroke: none; fill: url(#gradient-0-3);" d="M 2197.55 417.608 C 2200.78 426.436 2207.25 433.996 2212.5 441.697 C 2221.71 455.228 2230.5 469.049 2239.66 482.608 C 2251.48 500.085 2262.01 519.038 2275.07 535.608 C 2284.68 547.805 2296.82 558.17 2307.27 569.647 C 2333.63 598.614 2360.2 627.349 2387.13 655.778 C 2397.68 666.911 2408.09 678.239 2418.38 689.608 C 2423.16 694.89 2427.6 701.279 2432.93 705.971 C 2441.62 713.623 2455.28 718.563 2465.55 723.866 C 2473.36 727.9 2480.93 733.541 2489.55 735.608 C 2490.73 733.28 2491.77 731.097 2492.55 728.608 C 2480.28 722.76 2468.57 715.672 2456.55 709.298 C 2450.38 706.024 2443.13 703.41 2437.55 699.19 C 2432.41 695.301 2428.35 689.983 2423.94 685.326 C 2416.75 677.744 2409.46 670.284 2402.38 662.593 C 2383.68 642.292 2364.9 622.072 2346.38 601.608 C 2320.53 573.041 2291.17 547.16 2270.24 514.608 C 2252.69 487.313 2233.79 460.904 2216.24 433.608 C 2212.12 427.195 2207.79 420.945 2203.55 414.608 C 2202 412.305 2199.88 408.243 2196.64 408.243 C 2193.91 408.243 2192.06 411.78 2190.59 413.612 C 2186.28 418.98 2182.07 424.455 2177.5 429.608 C 2171.49 436.393 2164.61 442.679 2158.9 449.651 C 2145.98 465.422 2134.56 482.506 2121.97 498.607 C 2103.57 522.151 2085.14 545.817 2066.02 568.778 C 2059.66 576.418 2054.4 585.106 2047.74 592.479 C 2041.93 598.921 2034.64 604.279 2028.59 610.608 C 2010.03 630.017 1991.46 649.419 1972.83 668.778 C 1945.52 697.162 1919.33 726.692 1891.55 754.608 C 1868.12 778.156 1846.06 803.094 1822.55 826.608 C 1817.07 832.089 1810.49 837.38 1805.87 843.608 C 1804.14 845.933 1802.79 849.624 1805.87 851.565 C 1808.81 853.421 1812.27 851.241 1814.55 849.38 C 1821 844.106 1826.67 837.512 1832.55 831.608 C 1856.97 807.066 1880.35 781.402 1904.54 756.608 C 1931.26 729.214 1956.68 700.527 1983.3 673.033 C 2004.52 651.123 2027.95 630.151 2047.32 606.608 C 2050.09 603.25 2051.05 599.006 2053.76 595.608 C 2072.34 572.331 2090.89 548.994 2109.34 525.608 C 2122.44 509.001 2135.17 492.12 2148.44 475.647 C 2154.22 468.465 2160.95 462.114 2166.39 454.608 C 2172.91 445.616 2178.97 437.105 2186.26 428.608 C 2189.8 424.487 2192.56 419.986 2197.55 417.608 Z">
			<title>rightOutline</title>
		</path>
		<path style="stroke: none; fill: url(#gradient-0-4);" d="M 2328.55 888.608 C 2338.44 882.923 2334.31 873.353 2331.38 864.608 C 2325.05 845.71 2319.11 825.961 2314.32 806.608 C 2305.23 769.87 2292.12 733.968 2281.59 697.608 C 2273.09 668.256 2264.1 638.974 2255.59 609.608 C 2249.52 588.678 2244.27 567.201 2237.13 546.608 C 2229.27 523.967 2224.13 500.358 2216.55 477.608 C 2214.67 471.98 2214.13 466.254 2212.49 460.627 C 2211.89 458.573 2210.91 456.36 2208.5 456.074 C 2205.21 455.683 2204.58 459.115 2204.66 461.612 C 2204.83 467.217 2206.13 474.187 2207.57 479.608 C 2214.38 505.279 2222.15 531.398 2230.55 556.608 C 2237.46 577.352 2242.58 598.721 2249.06 619.608 C 2265.33 672.083 2280.91 724.806 2295.98 777.608 C 2302.74 801.291 2309.54 825.157 2317.05 848.608 C 2321.08 861.188 2327.4 875.444 2328.55 888.608 M 420.549 816.608 C 424.419 785.986 427.174 755.215 430.834 724.608 C 432.789 708.262 435.819 691.998 437.379 675.608 C 439.973 648.366 442.407 620.701 446.278 593.608 C 448.037 581.301 449.787 568.952 451.264 556.608 C 451.78 552.286 451.263 547.912 451.992 543.608 C 452.791 538.89 455.924 535.171 456.852 530.613 C 457.636 526.763 454.483 523.838 450.653 525.231 C 444.42 527.497 444.576 536.294 444.548 541.608 C 444.47 556.721 441.136 572.644 438.97 587.608 C 430.706 644.677 426.354 702.392 418.831 759.608 C 417.386 770.598 416.948 781.609 415.419 792.608 C 414.711 797.696 412.632 804.534 413.871 809.593 C 414.737 813.131 417.62 814.894 420.549 816.608 M 2116.55 583.608 L 2114.55 583.608 C 2112.1 573.204 2119.57 566.424 2119.4 556.627 C 2119.34 552.825 2115.63 550.047 2112.44 553.212 C 2110.22 555.416 2109.61 559.737 2108.55 562.608 C 2100.2 562.956 2094.82 572.656 2090.11 578.569 C 2084.14 586.053 2076.03 592.379 2068.55 598.269 C 2066.01 600.274 2055.73 606.814 2060.17 610.946 C 2063.82 614.341 2071.06 604.55 2073.38 602.337 C 2085.55 590.738 2097.85 579.598 2110.55 568.608 C 2110.55 574.249 2110.17 579.11 2109.01 584.608 C 2108.14 588.666 2108.76 598.437 2115.44 595.231 C 2118.7 593.667 2120.45 589.309 2122.63 586.608 C 2129.4 578.22 2133.8 568.318 2138.28 558.608 C 2140.79 553.144 2141.17 549.245 2145.55 544.608 C 2150.71 564.407 2154.49 585.315 2156.71 605.608 C 2158.17 618.87 2157.29 632.401 2160.06 645.608 C 2161.19 650.961 2164.22 655.423 2165.55 660.608 C 2168.34 660.72 2171.83 661.602 2174.44 660.339 C 2177.07 659.068 2178.31 656.236 2179.26 653.647 C 2181.46 647.647 2184.2 641.689 2186.11 635.608 C 2188.04 629.483 2191.44 623.788 2193.09 617.608 C 2196.52 604.793 2197.41 591.647 2199.02 578.608 C 2199.84 572.025 2202.64 566.014 2203.55 559.608 C 2208.29 564.07 2211.44 570.418 2215.44 575.608 C 2219.93 581.436 2226.54 587.041 2227.55 594.608 C 2231.19 594.489 2235.44 593.703 2234.02 588.889 C 2232.93 585.216 2229.28 581.844 2227.26 578.608 C 2223.38 572.411 2218.92 566.616 2214.77 560.609 C 2212.92 557.938 2211.48 554.642 2208.45 553.104 C 2205.69 551.709 2202.49 552.402 2199.55 552.608 C 2198.17 558.091 2195.02 562.955 2193.93 568.608 C 2192.67 575.097 2190.94 582 2190.4 588.608 C 2190.08 592.635 2190.89 596.571 2190.26 600.608 C 2188.81 609.975 2185.27 618.848 2181.87 627.608 C 2178.28 636.857 2177.86 646.199 2169.55 652.608 C 2169.16 643.556 2166.01 634.617 2164.84 625.608 C 2162.12 604.651 2160.55 584.307 2155.97 563.608 C 2154.38 556.401 2152.08 549.614 2149.8 542.608 C 2148.97 540.081 2148.02 536.28 2145.17 535.27 C 2140.91 533.757 2137.24 539.333 2136 542.608 C 2134.63 546.236 2134.81 550.045 2133.02 553.608 C 2128 563.579 2119.53 572.784 2116.55 583.608 M 2258.55 554.608 C 2267.96 565.646 2275.81 578.417 2283.61 590.593 C 2287.24 596.254 2291.54 600.318 2294.2 606.607 C 2295.69 610.145 2302.89 621.368 2307.95 617.565 C 2310.25 615.833 2309.32 611.98 2308.96 609.608 C 2307.74 601.71 2307.57 593.139 2305.61 585.438 C 2304.95 582.836 2304.44 577.596 2300.64 578.074 C 2297.65 578.449 2297.34 582.244 2297.34 584.609 C 2297.35 590.949 2300.92 597.242 2301.55 603.608 C 2295.97 598.502 2295.67 593.611 2291.94 587.608 C 2284.56 575.762 2275.55 564.96 2267.41 553.604 C 2264.71 549.842 2258.93 535.357 2252.15 540.637 C 2250.03 542.296 2250.03 547.138 2249.64 549.608 C 2248.47 557.116 2251.99 564.408 2252.97 571.608 C 2253.32 574.216 2252.63 576.985 2252.56 579.608 C 2252.49 582.541 2251.43 590.774 2256.46 590.142 C 2260.23 589.668 2259.56 584.276 2259.55 581.608 C 2259.52 572.22 2256.28 564.123 2258.55 554.608 Z">
			<title>rightInner</title>
		</path>
	</g>
	<path style="stroke: none; fill: url(#gradient-0-5);" d="M 1958.82 134.97 C 1952.36 142.86 1950.32 153.57 1946.76 162.97 C 1939.25 182.75 1935.12 203.2 1930.82 223.97 C 1928.5 235.2 1926.75 247.19 1922.82 257.97 C 1917.14 248.74 1915.05 236.5 1913.02 225.97 C 1909.17 206.01 1905.82 186.33 1905.82 165.97 C 1900.06 167.94 1895.2 178.13 1891.47 182.97 C 1881.78 195.55 1872.07 207.03 1858.82 215.97 C 1864.03 219.42 1869.97 212.56 1873.82 209.24 C 1885.54 199.16 1892.81 185.54 1902.82 173.97 C 1902.88 181.37 1904.67 188.65 1905.69 195.97 C 1907.99 212.44 1910.64 228.79 1914.47 244.97 C 1916.25 252.48 1920.19 259.21 1920.82 266.97 L 1923.82 266.97 C 1924.02 258.45 1929.02 250.39 1930.82 241.97 C 1935.57 219.79 1939.18 196.77 1945.38 174.97 C 1948.68 163.36 1955.04 151.89 1956.82 139.97 C 1962.18 144.58 1964.77 154.51 1967.82 160.97 L 1971.82 159.97 L 1969.82 154.97 C 1974.22 152.1 1977.04 145.83 1978.82 140.97 C 1994.94 150.29 2004.47 169.48 2021.82 176.97 L 2022.82 172.97 C 2012.22 167.69 2003.32 157.06 1994.82 148.93 C 1991.28 145.55 1987.04 139.18 1981.82 138.58 C 1974.8 137.77 1971.07 146.75 1968.82 151.97 L 1966.82 151.97 C 1964.56 146.52 1962.56 139.48 1958.82 134.97"></path>
</svg>