<?xml version="1.0" encoding="utf-8" standalone="yes"?>
<svg width="2200" height="2200" xmlns="http://www.w3.org/2000/svg" xmlns:xlink="http://www.w3.org/1999/xlink">
	<defs>
		<linearGradient id="gradient-1" pinned="true">
			<stop offset="0" style="stop-color: #fff"/>
			<stop offset="1" style="stop-color: #fff0"/>
		</linearGradient>
		<linearGradient id="gradient-1-0" gradientUnits="userSpaceOnUse" x1="1099.882" y1="206.802" x2="1099.882" y2="2200" gradientTransform="matrix(1, -0.000377, 0, 0.401365, 0.118185, 817.410572)" xlink:href="#gradient-1"/>
	</defs>
	<path style="fill: #fff" d="M 0 0 L 0 116.479 C 27.722 111.333 56.3 117.749 84 118.961 C 96.123 119.491 108.917 120.49 121 119.961 C 133.024 119.435 144.989 117.773 157 117.093 C 160.711 116.883 164.308 117.98 168 117.791 C 184.685 116.934 201.293 115.693 218 114.961 C 226.292 114.597 234.718 112.958 243 112.17 C 248.648 111.632 254.361 112.407 260 111.714 C 268.724 110.642 277.321 108.223 286 107.184 C 300.946 105.396 316.153 104.755 331 102.295 C 349.44 99.241 368.374 95.033 387 93.17 C 396.509 92.22 406.446 93 416 93 C 431.395 93 446.596 92.608 462 92.985 C 475.045 93.305 488.008 91.76 501 92.015 C 514.512 92.281 527.602 94.533 541 95.83 C 548.648 96.571 556.38 96.408 564 97.17 C 568.103 97.581 571.956 99.02 576 99.675 C 579.97 100.319 584.017 99.818 588 100.439 C 600.727 102.423 613.322 105.472 626 107.679 C 631.301 108.602 636.764 108.15 642 109.094 C 652.381 110.964 662.533 114.336 673 115.791 C 680.85 116.882 689.119 116.269 697 116.595 C 704.721 116.914 712.378 118.773 720 119.869 C 727.306 120.919 734.731 121.024 742 122.322 C 768.059 126.974 793.461 132.094 820 133.911 C 837.903 135.136 856.096 133.544 874 133.571 C 887.536 133.592 901.557 135.255 915 133 C 914.356 118.224 905.738 106.591 896.513 95.914 C 893.041 91.896 889.922 87.169 885.875 83.704 C 868.795 69.077 845.283 60.679 823 60.129 C 818.979 60.03 815.053 61.118 811 60.96 C 802.967 60.647 795.096 59.437 787 60.169 C 782.03 60.618 772.484 62.696 768.3 59.513 C 763.649 55.973 760.142 49.596 756.576 45 C 749.182 35.47 741.387 26.372 733.803 17 C 729.165 11.268 722.949 2.845 715.915 0 C 710.23 -2.299 0 0 0 0 Z"/>
	<path style="fill: url(&quot;#gradient-1-0&quot;);" d="M 1898 364 C 1866.09 364 1830.42 357.288 1803 378.529 C 1796.83 383.308 1793.28 389.721 1788.95 396 C 1785.28 401.305 1781.42 405.946 1779 412 C 1783.9 413.448 1788.96 412.739 1794 413.425 C 1805.38 414.975 1816.6 417.542 1828 419.13 C 1849.55 422.133 1871.2 426.737 1893 426.996 C 1921.1 427.33 1948.24 421.616 1976 418.286 C 2022.57 412.697 2069.36 407.272 2116 402.83 C 2144.54 400.112 2171.17 391.459 2200 393.735 C 2200 393.735 2201.69 281.257 2200 278.742 C 2196.73 273.881 2186.92 271.186 2182 268.29 C 2172.39 262.637 2164.21 254.766 2155 248.495 C 2142.35 239.88 2130.06 231.233 2117 223.255 C 2104.78 215.79 2093.63 208.941 2079 207.184 C 2069.92 206.094 2060.96 207.571 2052 208.714 C 2025.84 212.054 2002.79 221.702 1980 234.576 C 1967.66 241.546 1954.04 249.495 1944.6 260.289 C 1930.78 276.088 1923.29 295.986 1915.15 315 C 1908.31 330.975 1898.05 346.002 1898 364 M 0 219 L 0 496.96 C 22.891 496.503 45.446 500.508 68 503.714 C 89.268 506.738 110.669 509.291 132 511.845 C 154.942 514.592 178.036 515.947 201 518.17 C 247.338 522.655 293.574 527.728 340 530.911 C 380.086 533.659 420.039 527.242 460 526.71 C 489.014 526.323 518.009 527.23 547 525.961 C 568.025 525.04 588.974 521.96 610 521.039 C 653.007 519.156 696.134 521.017 739 521 C 760.365 520.992 781.558 518.1 803 519.039 C 840.593 520.686 878.361 525.998 916 526 C 929.714 526.001 943.326 527.833 957 527.996 C 960.92 528.043 968.285 529.275 970.243 524.772 C 973.067 518.275 965.652 507.587 959.996 505.089 C 953.292 502.127 945.975 503.977 939 503.999 C 929.417 504.03 916.33 501.707 908 496.776 C 887.516 484.651 872.539 467.412 848 463.326 C 840.395 462.059 829.425 462.378 822 464.48 C 817.62 465.72 810.633 470.794 806.039 468.926 C 802.186 467.358 799.519 462.274 797.011 459.171 C 791.833 452.766 786.31 446.079 780.714 440.043 C 776.988 436.025 772.125 433.293 768 429.711 C 755.483 418.839 741.742 409.004 726 402.978 C 717.329 399.658 708.012 398.432 699 396.526 C 695.258 395.734 691.791 394.079 688 393.443 C 684.353 392.831 680.629 393.302 677 392.625 C 650.365 387.659 623.258 381.755 596 386.259 C 569.094 390.705 542.937 397.88 516 402.443 C 512.579 403.022 509.411 404.618 506 405.126 C 502.687 405.619 499.337 404.84 496 405.301 C 482.382 407.181 468.88 409.378 455 407.826 C 451.522 407.436 448.417 405.841 445 405.26 C 440.357 404.47 435.598 404.816 431 403.52 C 411.742 398.091 397.375 383.154 383 370.17 C 368.257 356.853 353.177 344.719 335 336.309 C 318.615 328.729 302.397 322.569 284 324.63 C 275.56 325.575 266.242 325.532 258 327.553 C 253.493 328.658 249.614 329.589 245 330.208 C 242.888 330.492 240.418 331.67 238.326 330.763 C 235.469 329.526 233.575 325.419 231.86 323 C 227.802 317.279 224.049 311.948 219 307.015 C 202.797 291.183 183.894 275.51 164 264.515 C 156.432 260.332 147.867 257.841 140 254.266 C 117.064 243.844 94.846 234.598 70 229.515 C 64.504 228.39 58.596 228.648 53 227.87 C 35.205 225.396 17.462 223.206 0 219 M 2035 563 C 2026.48 554.841 2016.7 545.471 2006 540.259 C 1973.17 524.274 1937.65 530.613 1903 534.714 C 1885.56 536.78 1868.06 538.018 1851 542.91 C 1838.01 546.635 1825.06 552.724 1813 558.753 C 1795.75 567.381 1777.2 578.932 1763.91 593.015 C 1758.83 598.408 1753.35 603.451 1752 611 C 1744.93 609.914 1739.79 603.547 1733 601.09 C 1715.31 594.696 1696.39 588.563 1678 584.669 C 1667.39 582.423 1655.66 584.276 1645 585.011 C 1625.54 586.351 1607.58 590.69 1589 596.641 C 1585.4 597.795 1581.55 597.844 1578 599.133 C 1570.36 601.909 1561.86 606.332 1555 610.695 C 1536.53 622.436 1523.66 637.999 1511.92 656 C 1508.34 661.491 1504.64 666.998 1501.94 673 C 1500.77 675.593 1499.88 679.561 1496.81 680.583 C 1493.66 681.631 1489.14 678.643 1486 678.03 C 1480.16 676.889 1471.93 676.607 1466 677.171 C 1454.29 678.285 1441.43 682.714 1431.17 688.37 C 1424.97 691.788 1419.34 696.432 1413 699.573 C 1398.73 706.638 1380.37 704.311 1372 721 C 1370.29 724.416 1369.72 728.285 1369 732 C 1376.17 732 1383.96 730.509 1391 731.29 C 1404.66 732.805 1417.28 737.459 1431 738.831 C 1466.45 742.375 1503.44 744.346 1539 741.911 C 1584.99 738.76 1630.5 732.002 1676 725.299 C 1687.29 723.637 1698.8 724.175 1710 722.572 C 1773.53 713.474 1836.85 703.611 1901 702.456 C 1905.7 702.371 1910.26 703.992 1915 703.992 C 1950.18 703.992 1985.74 703.586 2021 704.96 C 2038.12 705.627 2055.84 704.455 2073 706.171 C 2091.46 708.016 2109.72 712.715 2128 715.675 C 2145.53 718.514 2163.45 720.084 2181 722.184 C 2187.38 722.948 2193.52 725.25 2200 725.529 L 2200 446.485 C 2190.93 448.022 2181.89 450.442 2173 452.849 C 2143.53 460.83 2114.3 472.264 2091.42 493.379 C 2079.07 504.781 2067.03 518.439 2057.15 532 C 2049.57 542.404 2043.39 553.187 2035 563 M 0 2200 L 2200 2200 C 2200 2200 2201.26 987.222 2200 983.59 C 2197.96 977.686 2191.72 974.988 2187.29 971.366 C 2178.44 964.142 2170.04 957.743 2160 952.138 C 2135.4 938.408 2106.08 931.604 2078 937.478 C 2062.6 940.7 2048.46 950.601 2035 958.215 C 2023.84 964.529 2013.23 969.348 2003 977.456 C 1999.38 980.325 1997.09 984.229 1993.79 987.385 C 1989.13 991.845 1983.62 995.341 1979.17 1000.04 C 1973.43 1006.11 1967.79 1013.63 1960 1017.29 C 1954.52 1019.87 1947.29 1013.28 1943 1010.28 C 1931.78 1002.43 1920.99 997.048 1907 996.089 C 1896.33 995.358 1884.65 993.106 1874 994.171 C 1865.62 995.008 1857.98 998.168 1850 1000.49 C 1837.87 1004.01 1824.85 1007.31 1814 1014.13 C 1802.34 1021.46 1792.56 1033.53 1785.24 1045 C 1774.57 1061.71 1770.86 1081.99 1763 1100 C 1749.07 1096.48 1735.35 1104.81 1724 1111.42 C 1712.87 1117.9 1701.25 1123.58 1690 1129.86 C 1681.37 1134.68 1673.22 1140.51 1664 1144.24 C 1640.9 1153.61 1615.08 1160.41 1590 1159.74 C 1568.63 1159.17 1548.39 1152.71 1527 1158.78 C 1508.2 1164.12 1490.58 1170.64 1476.09 1184.29 C 1469.29 1190.69 1463.53 1198.27 1457.04 1205 C 1454.11 1208.03 1451.25 1211.68 1447.09 1213.05 C 1442.83 1214.45 1438.46 1209.43 1435 1207.43 C 1425.28 1201.82 1415.52 1195.8 1405 1191.81 C 1394.22 1187.73 1381.56 1183 1370 1182.38 C 1354.64 1181.54 1338.21 1184.31 1323 1186.29 C 1290.09 1190.58 1259.91 1203.52 1234 1224.46 C 1220.65 1235.25 1208.75 1247.96 1195 1258.16 C 1190.47 1261.52 1185.68 1266.88 1180 1268.24 C 1176.29 1269.13 1173.74 1266.53 1171.29 1264.15 C 1167.1 1260.08 1162.68 1256.25 1158 1252.75 C 1152.44 1248.58 1147.07 1243.85 1141 1240.44 C 1128.03 1233.16 1112.15 1228.07 1098 1223.52 C 1079.26 1217.49 1059.19 1219.19 1040 1220.68 C 1032.9 1221.22 1026.07 1220.53 1019 1222.24 C 1007.68 1224.98 996.509 1227.11 985 1229.26 C 981.377 1229.94 975.781 1232.49 972.213 1230.8 C 968.88 1229.23 967.304 1224.17 966.062 1221 C 963.101 1213.44 959.728 1206.07 955.719 1199 C 943.15 1176.84 927.099 1155.33 907.996 1138.29 C 895.495 1127.13 881.876 1117.68 868 1108.33 C 860.25 1103.11 852 1096.95 843 1094.05 C 809.315 1083.19 765.048 1094.96 748 1128 C 715.854 1087.5 666.888 1064.79 617.001 1055.01 C 606.481 1052.94 595.576 1052.44 585 1050.54 C 576.59 1049.02 568.504 1046.31 560 1045.29 C 543.361 1043.29 525.959 1041.95 510 1036.3 C 497.789 1031.98 486.698 1023.62 476 1016.48 C 466.921 1010.43 457.143 1004.09 449 996.826 C 436.599 985.758 426.309 972.953 414.947 961.015 C 408 953.715 400.143 947.143 393 940 C 375.039 922.038 355.449 903.047 331 893.951 C 326.501 892.278 321.594 891.765 317 890.34 C 294.376 883.326 272.873 878.112 248.985 881.765 C 237.481 883.524 225.821 884.525 215 889.012 C 211.71 890.376 205.265 895.024 201.681 893.018 C 197.498 890.677 194.599 882.774 191.6 879 C 180.622 865.187 171.755 849.617 160.535 836.001 C 145.855 818.185 126.606 806.254 106 796.705 C 90.567 789.553 74.137 781.746 57 780.171 C 52.929 779.796 49.042 780.782 45 780.961 C 40.082 781.178 34.805 780.548 30 781.813 C 21.273 784.111 11.573 789.428 4.059 794.352 C -2.329 798.538 0 809.334 0 816 L 0 2200 Z"/>
</svg>