<?xml version="1.0" encoding="utf-8" standalone="yes"?>
<svg xmlns="http://www.w3.org/2000/svg" width="2200" viewBox="0 0 2200 1024">
	<defs>
		<linearGradient id="gradient-1" pinned="true">
			<title>bush1</title>
			<stop offset="0" style="stop-color: #3ca370;"></stop>
			<stop offset="1" style="stop-color: #3d6e70;"></stop>
		</linearGradient>
		<linearGradient id="gradient-2" pinned="true">
			<title>bush2</title>
			<stop offset="0" style="stop-color: #332947;"></stop>
			<stop offset="0.692" style="stop-color: #323e4f;"></stop>
			<stop offset="1" style="stop-color: #3d6e70;"></stop>
		</linearGradient>
		<linearGradient id="gradient-3" pinned="true">
			<title>rock1</title>
			<stop offset="0" style="stop-color: #67839d;"></stop>
			<stop offset="1" style="stop-color: #475b75;"></stop>
		</linearGradient>
		<linearGradient id="gradient-4" pinned="true">
			<title>rock2</title>
			<stop offset="0" style="stop-color: #475b75;"></stop>
			<stop offset="1" style="stop-color: #253145;"></stop>
		</linearGradient>
		<linearGradient id="gradient-5" pinned="true">
			<title>rock3</title>
			<stop offset="0" style="stop-color: #253145;"></stop>
			<stop offset="1" style="stop-color: #0f142d;"></stop>
		</linearGradient>
		<linearGradient id="gradient-1-1" href="#gradient-1" gradientUnits="userSpaceOnUse" x1="1651.915" y1="527.404" x2="1651.915" y2="997.017" gradientTransform="matrix(0.95579, -0.29405, 0.226363, 0.766401, -46.353585, 608.947111)"></linearGradient>
		<radialGradient gradientUnits="userSpaceOnUse" cx="2012.312" cy="1078.63" r="538.607" id="gradient-2-1" href="#gradient-2" gradientTransform="matrix(-0.162603, -1.078212, 2.281901, -0.344129, -121.80691, 3619.514997)"></radialGradient>
		<linearGradient id="gradient-1-0" href="#gradient-1" gradientUnits="userSpaceOnUse" x1="1733.177" y1="605.725" x2="1733.177" y2="887.316" gradientTransform="matrix(0.930053, -0.367425, 0.286958, 0.726368, -92.17905, 809.335216)"></linearGradient>
		<radialGradient id="gradient-2-0" href="#gradient-2" gradientUnits="userSpaceOnUse" cx="20.206" cy="1078.622" r="519.519" gradientTransform="matrix(0.393628, -1.063869, 2.234031, 0.826582, -1898.20343, 315.506382)"></radialGradient>
		<linearGradient id="gradient-1-2" href="#gradient-1" gradientUnits="userSpaceOnUse" x1="525.827" y1="433.011" x2="525.827" y2="942.735" gradientTransform="matrix(0.947988, 0.318305, -0.227766, 0.656514, 196.456635, 25.801367)"></linearGradient>
		<linearGradient id="gradient-1-3" href="#gradient-1" gradientUnits="userSpaceOnUse" x1="636.846" y1="709.298" x2="636.846" y2="861.298" gradientTransform="matrix(0.931132, 0.364683, -0.281638, 0.719097, 266.116953, -43.778807)"></linearGradient>
		<linearGradient id="gradient-1-4" href="#gradient-1" gradientUnits="userSpaceOnUse" x1="73.332" y1="527.404" x2="73.332" y2="602.279" gradientTransform="matrix(0.871517, 0.490365, -0.888054, 1.578323, 529.754308, -340.716129)"></linearGradient>
		<linearGradient id="gradient-3-0" href="#gradient-3" gradientUnits="userSpaceOnUse" x1="1132.659" y1="-136.877" x2="1132.659" y2="511.448" gradientTransform="matrix(0.967081, 0.252987, -0.168162, 0.569176, 63.061674, -363.333979)"></linearGradient>
		<linearGradient id="gradient-4-0" href="#gradient-4" gradientUnits="userSpaceOnUse" x1="1147.748" y1="-109.765" x2="1147.748" y2="511.473" gradientTransform="matrix(0.974314, 0.223878, -0.161177, 0.561638, 36.598462, -263.055704)"></linearGradient>
		<linearGradient id="gradient-5-0" href="#gradient-5" gradientUnits="userSpaceOnUse" x1="796.43" y1="-67.748" x2="796.43" y2="281.163" gradientTransform="matrix(0.922397, 0.383992, -0.434513, 1.031631, 95.735831, -269.946556)"></linearGradient>
		<linearGradient id="gradient-5-1" href="#gradient-5" gradientUnits="userSpaceOnUse" x1="1350.191" y1="214.319" x2="1350.191" y2="521.367" gradientTransform="matrix(0.919652, 0.390446, -0.224585, 0.522739, 179.494448, -358.046036)"></linearGradient>
	</defs>
	<g>
		<title>bushLeft</title>
		<path style="stroke: none; fill: url(#gradient-1-2);" d="M 0.303 930.972 C 41.407 936.167 1038.97 946.298 1045.21 941.462 C 1053.9 934.718 1051.7 927.037 1050.46 917.972 C 1048.95 906.913 1046.9 895.067 1046.34 883.972 C 1046.07 878.681 1044.89 874.06 1043.41 868.977 C 1042.9 867.205 1042.27 864.237 1040.04 863.893 C 1037.92 863.569 1036.24 865.6 1035.06 867.031 C 1031.76 871.038 1029.94 875.333 1025.3 877.972 C 1022.55 866.467 1023.87 854.488 1021.84 842.972 C 1021.28 839.801 1020.63 832.987 1017.74 831.039 C 1015.36 829.435 1010.99 830.887 1008.3 830.957 C 998.911 831.202 989.617 832.795 980.303 833.972 C 979.457 825.699 974.948 815.219 970.863 807.973 C 969.204 805.029 967.184 801.267 963.288 801.511 C 958.372 801.818 952.502 806.033 948.303 808.399 C 945.889 809.759 943.23 811.831 940.307 810.909 C 936.849 809.817 933.846 806.041 931.214 803.687 C 925.63 798.694 919.849 793.944 914.288 788.921 C 911.444 786.352 908.128 782.8 904.304 781.758 C 896.614 779.664 895.154 793.435 888.017 794.639 C 879.902 796.009 874.504 782.36 866.303 782.475 C 862.805 782.524 859.257 785.354 856.303 786.972 C 848.156 791.434 839.519 798.214 830.303 799.972 C 830.018 787.805 823.002 775.905 818.212 764.972 C 816.7 761.522 815.593 755.368 811.245 754.579 C 800.824 752.69 789.758 767.599 780.303 761.315 C 769.659 754.242 760.287 743.967 751.303 734.972 C 748.706 732.372 744.448 725.992 740.229 726.438 C 736.317 726.852 735.03 730.997 733.568 733.972 C 730.328 740.567 725.453 746.005 721.303 751.972 C 717.739 747.668 714.111 737.434 709.014 735.147 C 706.346 733.951 703.298 737.172 701.264 738.516 C 694.082 743.259 687.068 748.654 680.303 753.972 C 678.792 742.274 675.344 730.705 674.396 718.972 C 674.131 715.69 675.379 708.054 671.114 706.72 C 667.503 705.59 660.282 712.047 657.303 713.972 C 657.881 706.643 658.782 699.21 660.106 691.972 C 660.541 689.597 661.764 685.869 659.546 684 C 657.981 682.681 655.212 682.934 653.317 682.991 C 647.007 683.183 639.556 684.975 633.303 686.257 C 629.912 686.953 625.978 688.83 623.298 685.65 C 621.123 683.07 620.366 679.097 619.3 675.972 C 617.138 669.631 615.171 663.386 613.267 656.972 C 611.931 652.475 611.105 647.527 606.303 645.972 C 602.188 652.415 595.761 656.72 590.303 661.972 C 589.988 654.642 589.434 645.853 586.828 638.973 C 585.894 636.509 584.982 633.047 582.078 632.329 C 578.317 631.399 573.927 633.714 570.303 634.457 C 567.693 634.992 564.974 634.75 562.392 635.386 C 557.591 636.571 555.597 638.23 551.629 633.913 C 542.043 623.485 535.807 610.411 529.418 597.972 C 528.165 595.532 525.573 585.413 521.642 586.724 C 518.535 587.76 519.307 593.527 519.303 595.972 C 519.287 605.699 519.084 615.381 517.303 624.972 C 510.926 621.439 507.159 613.904 503.21 607.976 C 501.006 604.668 497.706 600.942 493.303 601.359 C 487.156 601.942 481.252 608.777 475.303 610.972 C 474.713 607.194 473.302 604.295 471.433 600.972 C 469.621 597.749 468.397 592.197 465.715 589.715 C 462.377 586.627 456.921 589.221 453.304 590.397 C 445.784 592.843 439.037 598.378 432.303 602.467 C 429.408 604.225 425.846 607.014 422.303 606.941 C 418.843 606.87 415.368 604.381 412.303 602.997 C 403.375 598.964 395.174 593.739 386.303 589.663 C 382.687 588.002 377.601 584.161 373.411 585.619 C 369.973 586.815 368.784 591.168 367.031 593.972 C 363.911 598.963 359.554 603.057 356.303 607.972 C 352.413 603.695 350.156 594.656 345.118 592.019 C 341.877 590.323 338.861 592.698 336.303 594.517 C 330.794 598.432 325.453 602.114 319.303 604.972 C 319.303 594.731 318.834 584.149 317.742 573.972 C 317.445 571.205 318.721 566.788 316.66 564.575 C 312.393 559.993 300.933 565.952 296.307 567.622 C 294.328 568.337 292.114 569.948 289.969 568.965 C 284.782 566.587 281.383 558.61 278.724 553.972 C 273.113 544.185 267.163 534.609 261.3 524.972 C 258.322 520.076 254.601 515.629 253.303 509.972 C 245.412 510.572 243.011 518.468 240.303 524.972 C 235.363 517.413 231.521 508.395 228.264 499.972 C 226.947 496.567 225.921 490.196 222.793 488 C 219.556 485.727 213.851 487.305 210.303 487.892 C 200.239 489.555 190.204 491.586 180.303 493.972 C 178.86 487 176.41 480.261 173.04 473.977 C 171.559 471.215 169.819 468.33 166.288 468.46 C 158.403 468.753 148.384 479.465 140.342 476.116 C 136.382 474.466 133.315 470.105 130.585 466.972 C 125.279 460.885 119.836 454.816 114.264 448.972 C 111.959 446.554 109.245 442.809 106.022 441.595 C 97.238 438.285 100.324 455.284 93.209 455.856 C 89.97 456.116 86.812 452.57 84.303 450.974 C 78.983 447.592 72.867 445.179 67.303 442.18 C 64.539 440.691 61.596 438.235 58.303 438.264 C 48.161 438.352 44.354 453.45 35.307 455.279 C 32.212 455.905 29.922 453.025 28.188 450.931 C 22.426 443.974 16.36 428.24 5.322 434.42 C 3.627 435.369 1.751 436.519 0.906 438.351 C -0.684 441.801 0.303 447.255 0.303 450.972 L 0.303 478.972 L 0.303 578.972 L 0.303 930.972 Z">
			<title>backing</title>
		</path>
		<g transform="matrix(0.544098, 0, 0, 0.547286, -28.713612, 552.36377)" style="">
			<title>rock</title>
			<path style="stroke: none; fill: url(#gradient-3-0);" d="M 1221.87 111.916 C 1221.8 103.721 1218.11 97.613 1216.64 89.901 C 1215.67 84.857 1217.5 79.865 1216.26 74.916 C 1212.64 60.515 1204.62 46.275 1198.36 32.916 C 1188.72 12.354 1180.84 -8.274 1174.58 -30.084 C 1171.07 -42.292 1166.8 -54.544 1164.68 -67.084 C 1163.86 -71.998 1165.15 -78.658 1160.59 -82.075 C 1153.8 -87.16 1142.61 -84.748 1134.87 -86.693 C 1115.45 -91.573 1094.93 -93.166 1074.87 -94.87 C 1070.71 -95.222 1066.94 -97.077 1062.87 -97.758 C 1057.3 -98.688 1051.48 -98.67 1045.87 -99.37 C 1038.57 -100.28 1031.22 -101.66 1023.87 -101.98 C 1017.78 -102.25 1012.02 -101.51 1005.87 -102.37 C 996.421 -103.69 987.551 -107 977.871 -107.91 C 973.161 -108.36 968.521 -107.07 963.871 -107.55 C 959.971 -107.96 956.611 -109.6 952.871 -110.53 C 947.161 -111.95 940.721 -112.36 934.871 -112.91 C 929.411 -113.43 924.211 -111.73 918.831 -112.15 C 910.701 -112.8 902.941 -114.84 894.871 -115.8 C 884.576 -117.02 874.178 -117.08 863.868 -118.25 C 853.044 -119.48 842.811 -125.2 831.868 -126.78 C 813.051 -129.5 793.816 -129.29 774.868 -130.12 C 762.885 -130.65 750.8 -132.99 738.868 -133.08 C 735.347 -143.69 728.191 -129.12 726.552 -125.08 C 720.409 -109.98 718.425 -93.341 712.317 -78.084 C 708.577 -68.742 703.981 -59.471 700.628 -50.045 C 699.217 -46.078 699.814 -41.634 698.332 -37.813 C 695.67 -30.954 690.585 -25.329 688.112 -18.084 C 687.075 -15.046 687.448 -11.755 686.332 -8.798 C 683.965 -2.525 678.96 2.678 676.333 8.916 C 673.345 16.009 672.276 23.995 669.068 30.912 C 666.059 37.401 660.27 42.517 656.729 48.916 C 652.624 56.335 649.418 64.322 645.621 71.916 C 642.702 77.755 638.906 83.709 636.859 89.916 C 635.684 93.479 635.687 97.301 634.531 100.916 C 631.925 109.061 629.787 118.123 626.072 125.826 C 622.15 133.96 617.12 141.469 613.444 149.916 C 611.477 154.436 604.943 162.566 608.051 167.522 C 610.504 171.434 618.033 174.028 621.868 176.583 C 633.83 184.553 645.685 192.712 657.868 200.34 C 699.665 226.512 741.196 252.575 783.868 277.34 C 826.237 301.93 868.747 327.309 912.871 348.658 C 955.231 369.157 998.891 385.75 1042.87 402.34 C 1066.41 411.22 1089.89 421.259 1113.87 428.887 C 1203.39 457.369 1296.31 473.146 1387.87 493.34 C 1453.86 507.894 1522.09 503.731 1588.87 510.086 C 1605.37 511.656 1621.42 512.195 1637.87 509.916 C 1642.7 509.246 1652.79 508.837 1655.12 503.691 C 1656.29 501.131 1658.63 492.55 1657.98 489.955 C 1657.16 486.667 1653.46 484.446 1651.48 481.877 C 1647.31 476.481 1643.93 469.94 1640.76 463.916 C 1623.53 431.227 1607.29 398.251 1587.55 366.916 C 1550.91 308.746 1509.71 253.403 1467.75 198.916 C 1460.55 189.572 1452.81 180.522 1445.97 170.916 C 1441.9 165.203 1438.55 159.115 1433.58 154.045 C 1430.69 151.102 1427 149.111 1423.97 146.322 C 1420.15 142.808 1418.33 136.468 1413.76 133.944 C 1409.16 131.397 1401.99 132.564 1396.87 131.319 C 1388.83 129.364 1380.89 128.643 1372.87 127.07 C 1363.28 125.192 1353.15 121.343 1343.87 118.249 C 1319.22 110.033 1295.53 99.146 1269.87 93.877 C 1262.76 92.418 1255.49 86.588 1247.91 88.654 C 1242.75 90.059 1240.91 94.917 1237.37 98.297 C 1232.43 103.029 1227.03 107.37 1221.87 111.916 Z">
				<title>light</title>
			</path>
			<path style="stroke: none; fill: url(#gradient-4-0);" d="M 1453.42 378.962 C 1451.4 373.216 1442.23 375.132 1437.42 371.788 C 1425.49 363.502 1411.77 356.062 1398.42 350.298 C 1389.79 346.577 1380.42 343.779 1372.59 338.43 C 1364.17 332.679 1354.83 327.98 1345.42 324.002 C 1341.48 322.34 1337.21 321.909 1333.42 319.907 C 1327.11 316.576 1320.3 312.94 1314.55 308.72 C 1311.26 306.312 1309.08 303.201 1305.41 301.224 C 1272.03 283.254 1236.31 269.539 1202.42 252.592 C 1165.69 234.231 1132.42 210.565 1095.42 192.962 C 1104.28 181.814 1115.08 170.73 1126.42 161.981 C 1132.45 157.321 1139.27 153.698 1145.42 149.089 C 1155.01 141.893 1163.68 133.891 1173.43 126.897 C 1177.2 124.197 1181.2 123.592 1185.42 122.011 C 1188.9 120.706 1191.97 118.538 1195.42 117.174 C 1198 116.151 1201.71 116.187 1203.39 113.645 C 1206.9 108.325 1201.45 99.655 1199.06 94.962 C 1191.99 81.134 1189.09 65.535 1184.06 50.962 C 1182.44 46.276 1179.4 37.445 1174.37 35.57 C 1170.66 34.185 1167.6 36.503 1164.42 38.037 C 1157.04 41.595 1149.57 45.785 1142.42 49.962 C 1143.07 44.923 1144.76 40.007 1145.24 34.962 C 1145.71 29.952 1144.17 25.011 1144.51 19.962 C 1145.78 0.942 1147.8 -18.029 1149.33 -37.038 C 1149.9 -44.089 1152.48 -50.686 1152.27 -57.753 C 1152.2 -60.249 1152.38 -63.3 1149.98 -64.845 C 1143.74 -68.862 1136.3 -58.228 1131.38 -55.823 C 1119.16 -49.851 1109.81 -39.084 1099.42 -30.502 C 1093.21 -25.375 1085.78 -22.633 1079.56 -17.691 C 1077.39 -15.964 1076.11 -13.586 1074.12 -11.703 C 1070 -7.806 1064.81 -4.977 1060.51 -1.234 C 1052.58 5.657 1045.81 13.57 1038.33 20.858 C 1032.57 26.468 1025.96 30.888 1020.52 36.962 C 1016.45 41.509 1014.07 47.299 1010.04 51.907 C 1006.97 55.425 1002.48 57.117 999.763 61.006 C 997.087 64.843 998.153 69.393 995.157 73.052 C 982.217 88.87 966.747 102.155 954.847 118.962 C 941.327 138.06 927.007 156.593 913.867 175.962 C 907.397 185.487 903.327 197.288 892.427 202.962 C 900.467 189.181 907.047 174.594 915.437 160.977 C 917.727 157.265 921.037 154.524 923.467 150.947 C 928.667 143.301 933.677 134.336 937.597 125.962 C 939.287 122.355 938.937 118.575 940.157 114.872 C 942.277 108.493 945.317 102.255 947.747 95.966 C 949.637 91.074 952.757 86.899 954.607 81.962 C 955.697 79.068 955.667 75.312 957.267 72.707 C 959.187 69.588 964.107 66.545 962.707 62.19 C 961.337 57.909 952.057 58.282 948.427 57.719 C 935.397 55.699 924.257 53.769 914.597 43.872 C 909.177 38.321 904.327 32.2 898.427 27.105 C 894.547 23.761 890.107 21.649 886.437 17.957 C 863.777 -4.848 842.177 -29.109 817.427 -49.814 C 807.777 -57.884 797.027 -64.754 787.423 -73.038 C 783.241 -76.645 778.44 -80.026 774.813 -84.208 C 769.642 -90.172 765.963 -97.158 760.448 -103.04 C 757.531 -106.15 753.623 -111.81 748.683 -109.01 C 743.244 -105.93 743.426 -99.93 741.718 -94.869 C 739.014 -86.86 734.53 -78.576 730.68 -71.038 C 728.155 -66.094 727.087 -61.038 725.002 -56.038 C 723.647 -52.788 720.988 -50.384 719.751 -47.038 C 717.955 -42.178 717.201 -36.748 715.149 -32.038 C 712.646 -26.297 707.84 -21.792 705.413 -16.038 C 702.854 -9.974 702.208 -3.182 699.902 2.962 C 696.687 11.53 691.429 19.52 687.76 27.962 C 684.542 35.365 683.387 43.332 680.964 50.962 C 676.741 64.262 669.365 75.698 663.323 88.052 C 657.8 99.344 653.67 111.419 648.562 122.962 C 645.471 129.948 640.013 135.894 637.389 142.962 C 632.628 155.781 1513.978 514.891 1522.768 511.448 C 1539.498 504.893 1660.482 502.133 1658.092 483.92 C 1656.942 475.154 1464.82 379.238 1453.42 378.962 Z">
				<title>mid</title>
			</path>
			<path style="stroke: none; fill: url(#gradient-5-0);" d="M 838.576 -3.016 C 837.728 -10.608 831.025 -13.911 826.152 -19.105 C 812.379 -33.785 794.35 -45.161 777.576 -56.179 C 774.421 -58.251 770.736 -59.625 767.705 -61.83 C 763.882 -64.613 757.871 -72.335 754.317 -63.958 C 753.131 -61.161 753.431 -57.925 752.304 -55.056 C 745.624 -38.042 738.377 -20.958 731.148 -4.016 C 724.759 10.957 718.719 26.093 712.151 40.984 C 710.162 45.492 707.069 49.396 705.286 53.984 C 703.502 58.574 703.117 63.345 701.672 67.984 C 696.865 83.417 688.777 98.052 682.662 112.984 C 677.826 124.794 675.397 137.345 670.292 148.984 C 667.909 154.417 665.267 160.141 661.791 164.969 C 659.171 168.609 655.637 171.303 654.921 175.988 C 654.123 181.199 657.106 186.467 659.332 190.984 C 664.426 201.318 670.917 210.015 678.066 218.98 C 693.066 237.792 714.103 254.428 736.576 263.531 C 748.781 268.475 761.871 271.191 774.576 274.462 C 788.292 277.994 802.014 284.08 816.467 279.551 C 820.595 278.258 820.094 274.381 821.274 270.984 C 822.754 266.727 825.859 262.825 828.177 258.984 C 838.101 242.54 848.655 226.469 858.51 209.984 C 860.62 206.455 861.661 202.468 863.821 198.984 C 870.47 188.26 879.774 180.176 886.855 169.984 C 889.73 165.846 891.374 161.253 893.96 156.984 C 902.181 143.411 911.281 130.046 920.291 116.984 C 925.261 109.791 927.661 101.408 932.451 94.168 C 934.621 90.895 938.871 88.456 937.941 83.984 C 936.351 76.25 925.441 71.449 919.751 67.184 C 916.491 64.746 914.271 61.217 911.151 58.621 C 906.351 54.626 900.76 51.473 895.951 47.479 C 889.114 41.798 883.546 34.627 876.576 28.984 C 870.998 24.467 867.209 19.186 862.317 14.127 C 859.932 11.662 856.695 10.358 854.195 8.011 C 849.169 3.293 845.741 -1.631 838.576 -3.016 Z">
				<title>dark1</title>
			</path>
			<path style="stroke: none; fill: url(#gradient-5-1);" d="M 1192.56 520.984 C 1189.34 523.077 1629.56 515.962 1627.95 515.016 C 1621.15 511.054 1614.85 506.36 1607.56 503.015 C 1589.44 494.689 1570.78 487.502 1553.56 477.228 C 1546.82 473.2 1541.76 467.799 1535.47 463.448 C 1526.43 457.194 1515.56 451.353 1505.56 446.783 C 1482.65 436.294 1460.28 423.853 1438.58 410.83 C 1434.93 408.63 1432.25 405.325 1428.52 403.246 C 1416.52 396.535 1403.79 391.033 1391.56 384.726 C 1359.26 368.045 1326.74 351.705 1294.56 334.722 C 1254.53 313.583 1216.43 289.235 1176.56 267.675 C 1150.61 253.633 1125.31 238.479 1099.56 223.988 C 1093.69 220.677 1086.87 217.278 1080.56 214.908 C 1078.16 214.002 1075.2 213.911 1073.59 216.302 C 1071.53 219.385 1072.57 224.843 1073.94 227.983 C 1075.53 231.669 1078.54 233.923 1080.74 237.154 C 1083.72 241.558 1086.92 247.858 1088.28 252.984 C 1090.94 262.906 1097.75 270.625 1101.51 279.984 C 1110.42 302.143 1118.51 324.661 1127 346.984 C 1131.84 359.731 1137.59 372.048 1141.91 384.984 C 1152.12 415.661 1161.08 446.9 1173.02 476.984 C 1178.93 491.868 1187.04 505.996 1192.56 520.984 Z">
				<title>dark2</title>
			</path>
		</g>
		<path style="stroke: none; fill: url(#gradient-2-0);" d="M 0 451.325 L 0 986.325 C 28.807 988.598 1026.34 938.706 1035.85 932.526 C 1039.55 930.122 1039.01 926.265 1039.01 922.325 C 1039.01 914.643 1037.72 906.971 1038.04 899.325 C 1038.19 896.189 1040.23 890.397 1036.69 888.411 C 1032.81 886.235 1025.49 892.617 1022.01 894.325 C 1021.01 881.678 1016.18 867.093 1009.84 856.155 C 1008 852.969 1006.77 846.781 1002.87 845.643 C 996.313 843.734 988.613 847.942 982.003 848.349 C 979.623 848.495 976.673 849.221 974.633 847.632 C 969.653 843.757 965.823 833.973 963.233 828.325 C 962.083 825.826 960.843 820.883 957.793 820.077 C 952.033 818.555 948.733 829.485 942.003 828.634 C 938.093 828.141 934.183 825.088 931.003 822.97 C 924.703 818.781 918.563 814.435 912.413 810.066 C 909.563 808.041 905.323 801.963 901.313 803.077 C 899.453 803.592 898.893 805.885 898.043 807.344 C 895.663 811.439 892.853 814.908 891.003 819.325 C 884.953 815.005 879.853 809.305 874.003 804.661 C 871.683 802.822 869.053 799.701 866.003 799.205 C 862.133 798.579 857.223 802.934 854.003 804.696 C 845.193 809.521 835.993 816.4 826.003 818.325 C 824.343 805.89 816.703 792.917 812.013 781.325 C 810.603 777.843 809.643 771.274 804.953 770.906 C 801.923 770.669 798.703 772.917 796.003 774.013 C 791.053 776.018 780.353 779.464 775.173 777.451 C 769.303 775.17 765.383 768.95 761.623 764.325 C 757.973 759.842 753.593 755.437 749.003 751.92 C 745.993 749.618 741.203 745.195 737.147 747.372 C 734.532 748.777 734.07 751.87 732.716 754.235 C 731.191 756.899 728.889 759.116 726.831 761.364 C 723.386 765.128 720.883 768.58 719 773.325 L 717 773.325 C 714.565 768.471 710.725 764.774 707.643 760.34 C 706.423 758.585 705.348 756.055 702.886 755.921 C 699.297 755.727 696.324 760.307 693.946 762.409 C 687.529 768.082 680.805 773.736 673 777.325 C 672.82 768.898 669.101 761.451 667.478 753.325 C 665.82 745.016 666.832 735.732 667 727.325 C 658.987 727.391 651.421 729.392 644 732.325 C 644.001 722.305 645.213 712.298 646 702.325 C 634.983 702.325 623.863 702.308 613 704.325 C 612.68 699.502 610.199 695.89 608.927 691.325 C 606.87 683.936 605.961 675.922 605 668.325 C 595.078 668.415 588.226 675.178 579 677.325 C 578.927 669.17 574.795 663.017 572.884 655.324 C 572.112 652.217 571.673 647.502 567.811 646.813 C 560.678 645.539 549.81 653.381 543.275 649.421 C 534.98 644.395 537.35 626.047 527 624.325 C 525.534 631.462 522.218 638.166 521 645.325 C 510.56 640.454 504.159 626.582 492.83 623.107 C 485.34 620.809 478.443 633.694 470.21 628.552 C 464.81 625.179 460.617 614.857 457.755 609.326 C 456.335 606.581 454.731 602.454 450.958 602.787 C 447.749 603.071 445.09 606.048 442.754 607.981 C 437.103 612.655 431.306 617.302 426 622.364 C 423.359 624.884 420.067 629.589 416 629.509 C 405.353 629.298 398.518 616.462 393.115 609.325 C 391.126 606.697 388.443 601.934 385.001 601.077 C 381.098 600.105 378.021 606.421 375.83 608.749 C 370.733 614.168 365.877 618.287 360 622.735 C 357.566 624.578 355.215 627.707 352.171 628.55 C 344.12 630.781 344.726 612.82 338.862 611.073 C 335.249 609.996 331.397 615.582 328.83 617.374 C 321.768 622.306 312.735 624.55 305 628.325 C 304.627 611.601 309 595.17 309 578.325 C 300.117 578.896 294.242 584.883 290 592.325 C 280.095 580.244 271.592 566.888 263.85 553.325 C 261.348 548.944 257.537 538.546 252.672 536.501 C 247.51 534.332 242.974 544.713 242 548.325 C 233.495 540.468 228.757 526.273 222.8 516.325 C 220.566 512.594 218.395 506.82 213.957 505.237 C 209.364 503.6 203.413 507.607 199 508.717 C 194.401 509.873 189.637 508.826 185 509.585 C 181.428 510.169 177.759 512.256 174.264 510.146 C 168.501 506.667 167.957 495.249 166.985 489.325 C 166.56 486.733 165.864 481.986 162.829 481.077 C 159.93 480.208 157.722 484.492 156.36 486.33 C 152.546 491.477 148.642 500.206 141 497.378 C 131.661 493.922 123.648 481.897 117.665 474.325 C 115.525 471.617 113.054 466.264 109.668 464.987 C 106.727 463.879 105.252 467.035 103.791 468.906 C 101.115 472.333 95.708 478.538 90.96 476.174 C 82.975 472.198 75.798 464.282 69 458.572 C 66.654 456.6 63.143 451.995 59.83 451.957 C 56.924 451.924 54.025 454.849 52.003 456.616 C 46.201 461.684 41.283 468.182 36.665 474.325 C 35.063 476.455 32.992 481.097 30.039 481.555 C 26.733 482.069 22.882 473.641 21.501 471.311 C 18.276 465.869 13.834 453.161 7.814 450.538 C 5.427 449.497 2.379 450.79 0 451.325 Z">
			<title>front</title>
		</path>
		<path style="stroke: none; fill: url(#gradient-1-4);" d="M 70.105 527.404 C 66.849 540.619 65.689 554.219 74.508 565.404 C 76.671 568.147 78.832 571.411 82.144 572.84 C 89.568 576.044 98.291 572.954 106.105 574.404 C 106.105 569.612 106.877 564.048 105.56 559.404 C 100.952 543.163 87.033 529.732 70.105 527.404 M 55.105 600.404 C 56.296 591.022 57.782 584.43 54.105 575.404 C 44.531 577.633 44.138 582.841 41.811 591.404 C 41.092 594.046 38.936 599.23 41.712 601.362 C 44.68 603.641 51.768 601.033 55.105 600.404 Z">
			<title>petals</title>
		</path>
		<path style="stroke: none; fill: url(#gradient-1-3);" d="M 522.342 709.298 C 522.333 722.842 517.383 736.986 520.401 750.294 C 523.232 762.784 540.771 766.331 551.342 767.464 C 554.619 767.815 559.824 769.502 562.753 767.27 C 564.707 765.782 564.92 762.532 565.175 760.298 C 565.806 754.774 566.035 749.817 565.512 744.298 C 564.917 738.02 566.539 731.042 563.253 725.299 C 557.574 715.375 544.302 714.751 534.342 712.482 C 530.232 711.546 526.561 709.73 522.342 709.298 M 723.342 861.298 C 727.602 859.95 731.355 857.553 735.342 855.546 C 743.108 851.635 752.475 849.028 754.085 839.298 C 755.005 833.687 752.155 828.711 751.345 823.298 C 739.49 823.431 731.564 833.638 726.453 843.298 C 723.094 849.647 719.968 854.278 723.342 861.298">
			<title>alsopetals</title>
		</path>
	</g>
	<g>
		<title>bushRight</title>
		<path style="stroke: none; fill: url(#gradient-1-1);" d="M 1884.3 597.972 C 1880.52 597.332 1876.16 595.153 1872.34 596.579 C 1868.16 598.14 1865.57 603.413 1863.32 606.972 C 1856.3 618.056 1850.5 631.911 1845.3 643.972 C 1839.86 641.388 1834.57 638.106 1829.3 635.162 C 1827.05 633.908 1824.24 631.846 1821.51 632.683 C 1816.96 634.077 1813.77 642.921 1812.3 646.972 C 1805.36 642.706 1793.98 631.193 1785.3 632.551 C 1776.19 633.978 1767.86 644.559 1758.3 644.279 C 1755.3 644.191 1752.68 641.604 1750.3 640.051 C 1745.22 636.73 1736.45 629.876 1730.3 629.534 C 1726.77 629.337 1722.64 631.456 1719.3 632.467 C 1712.17 634.627 1706.01 636.467 1699.3 639.872 C 1695.48 641.812 1692.62 644.318 1688.3 644.972 C 1687.51 638.883 1685.96 632.912 1684.43 626.973 C 1683.91 624.96 1683.46 621.405 1681 620.804 C 1677.76 620.01 1674.99 624 1673.13 625.987 C 1667.83 631.666 1662.55 639.447 1655.59 643.109 C 1650.17 645.956 1645.04 644.263 1639.3 644.011 C 1628.67 643.546 1617.94 643.972 1607.3 643.972 C 1607.85 651.374 1612.31 658.28 1613.3 665.972 C 1605.26 666.317 1597.4 667.156 1589.3 666.957 C 1584.88 666.849 1580.45 665.248 1576.3 667.403 C 1568.68 671.359 1563.06 678.492 1557.72 684.971 C 1555.17 688.069 1552.45 692.356 1548.86 694.354 C 1543.03 697.602 1533.57 690.044 1528.18 696.29 C 1523.75 701.418 1522.89 710.661 1521 716.972 C 1520.23 719.509 1519.82 722.517 1517.73 724.369 C 1515.3 726.512 1511.3 726.029 1508.3 725.957 C 1502.6 725.82 1496.96 725.971 1491.3 725.843 C 1489.07 725.793 1486.59 724.926 1484.41 725.665 C 1480.19 727.093 1480.98 731.488 1480.85 734.972 C 1480.5 743.944 1475.71 751.997 1475.3 760.972 C 1467.9 758.662 1454.74 754.319 1447.34 758.15 C 1444.21 759.772 1441.94 762.926 1439.26 765.164 C 1434.86 768.837 1429.89 771.786 1425.31 775.241 C 1422.56 777.325 1419.79 780.43 1416.26 781.075 C 1412.36 781.788 1408.05 779.995 1404.3 779.102 C 1398.04 777.61 1392.28 776.698 1386.3 774.121 C 1378.81 770.894 1372.69 766.339 1364.3 765.972 C 1364.67 773.121 1366.36 781.064 1368.3 787.972 C 1352.03 784.613 1336.32 780.159 1320.3 775.821 C 1313.53 773.986 1305.51 769.944 1298.36 771.121 C 1294.55 771.748 1294.27 775.076 1292.43 777.883 C 1291.01 780.042 1289.07 781.759 1287.85 784.062 C 1285.77 788.019 1285.25 793.477 1281 795.94 C 1277.57 797.92 1272.88 795.969 1269.3 795.411 C 1263.17 794.457 1252.04 793.253 1246.39 796.136 C 1242.59 798.075 1239.31 802.036 1236.3 804.987 C 1229.22 811.93 1222.76 819.451 1216.3 826.972 C 1213.43 830.316 1210.95 834.234 1207.3 836.783 C 1199.56 842.183 1189.04 838.863 1180.3 837.817 C 1177.27 837.454 1173.47 836.273 1170.53 837.576 C 1167.66 838.846 1167.11 842.355 1166.04 844.972 C 1163.61 850.956 1160.55 857.335 1157.4 862.971 C 1150.44 875.384 1134.03 869.888 1123.64 877.2 C 1120.66 879.301 1120.42 882.844 1119.09 885.972 C 1116.04 893.191 1114.76 901.025 1111.13 907.972 C 1107.75 914.462 1099.08 925.347 1106.36 931.578 C 1111.84 936.265 2154.24 998.951 2200.3 996.971 L 2200.3 535.972 C 2197.13 535.686 2194.07 533.828 2191.02 533.72 C 2184.57 533.492 2183.35 541.229 2183.3 545.972 C 2175.03 545.143 2168.06 540.525 2160.3 538.101 C 2153.25 535.9 2145.53 535.419 2138.3 533.972 C 2133.61 533.034 2124.86 529.698 2121.22 534.29 C 2117.52 538.974 2118.96 544.632 2118.96 549.972 C 2118.96 554.264 2118.08 558.762 2117.3 562.972 L 2115.3 562.972 C 2112.63 558.475 2108.49 555.874 2104.47 552.656 C 2102.62 551.179 2100.88 549.207 2098.28 549.684 C 2093.86 550.494 2089.52 559.719 2084.69 556.376 C 2079.57 552.828 2076.91 542.308 2073.88 536.973 C 2072.64 534.795 2071.33 531.678 2068.91 530.579 C 2066.05 529.282 2062.27 530.678 2059.3 530.883 C 2052.85 531.326 2046.69 531.933 2040.3 533.056 C 2036.4 533.742 2032.3 535.307 2028.3 534.733 C 2019.25 533.435 2011.02 524.921 2001.3 528.117 C 1992.5 531.009 1987.1 541.795 1978.34 544.098 C 1975.68 544.798 1973.44 542.981 1971.21 541.832 C 1965.89 539.098 1961.23 536.073 1956.3 532.697 C 1954.11 531.199 1951.31 529.038 1948.47 529.423 C 1944.4 529.977 1941.38 536.055 1939.09 538.972 C 1931.97 548.058 1925.31 558.217 1917.76 566.808 C 1911.01 574.479 1903.47 560.64 1896.58 562.709 C 1893.29 563.694 1892.68 569.218 1891.88 571.972 C 1889.36 580.566 1885.61 589.09 1884.3 597.972 Z">
			<title>backing</title>
		</path>
		<path style="stroke: none; fill: url(#gradient-2-1);" d="M 1894.01 626.27 C 1889.95 623.493 1884.3 616.623 1879.01 616.866 C 1874.56 617.071 1872.86 621.868 1871.43 625.27 C 1867.65 634.188 1860.58 641.111 1855.48 649.27 C 1853.24 652.837 1851.18 662.67 1845.97 663.183 C 1843.95 663.381 1841.69 661.496 1839.97 660.655 C 1835.83 658.631 1828.9 655.176 1824.16 655.797 C 1817.96 656.61 1821.16 671.266 1812.97 669.692 C 1806.44 668.437 1799.86 662.3 1795.01 658.136 C 1792.47 655.955 1789.48 652.09 1785.92 651.706 C 1777.19 650.765 1771.07 663.05 1762.01 661.183 C 1753.98 659.529 1744.61 654.943 1737.01 651.792 C 1732.35 649.865 1729.2 647.435 1724.01 647.27 C 1721.43 651.556 1716.34 652.698 1712.01 654.819 C 1702.66 659.389 1694.83 666.774 1684.01 667.27 C 1683.47 661.098 1680.55 656.092 1678.78 650.271 C 1678.2 648.318 1678.11 644.753 1675.74 644.022 C 1673 643.18 1671.53 646.425 1670.51 648.289 C 1667.97 652.91 1665.53 656.944 1665.01 662.27 C 1657.16 662.27 1649.72 661.923 1642.01 660.255 C 1637.94 659.375 1632.41 656.956 1628.3 658.873 C 1624.68 660.569 1624.41 665.877 1623.9 669.27 C 1622.62 677.786 1619.07 685.509 1619.01 694.27 C 1609.87 694.082 1600.05 692.776 1591.01 691.551 C 1587.46 691.07 1582.77 688.845 1579.44 690.633 C 1575.86 692.552 1574.84 696.136 1572.67 699.256 C 1568.75 704.866 1561.91 713.166 1556.01 716.627 C 1550.12 720.079 1544.78 712.751 1539.32 714.927 C 1535.86 716.307 1537.12 722.404 1536.97 725.27 C 1536.46 734.286 1532.02 742.084 1532.01 751.27 C 1519.51 749.69 1506.58 748.27 1494.01 748.27 C 1493.11 759.437 1490.45 771.461 1487.45 782.27 C 1486.47 785.815 1485.77 791.97 1480.97 791.859 C 1473.81 791.694 1465.28 785.095 1459.01 782.048 C 1456.42 780.786 1453.02 778.326 1450.01 779.243 C 1443.27 781.295 1436.08 791.231 1431.71 796.439 C 1429.48 799.095 1428.03 802.852 1423.99 802.527 C 1412.77 801.627 1400.55 793.781 1390.02 790.001 C 1387.97 789.263 1380.82 784.248 1379.19 786.928 C 1377.65 789.437 1381.84 793.381 1383.04 795.27 C 1386.96 801.465 1390.59 809.364 1393.01 816.27 C 1379.95 813.013 1366.36 805.472 1353.01 804.27 C 1350.57 812.37 1345.83 810.477 1339.01 808.745 C 1329.2 806.257 1321.88 801.279 1313.01 796.792 C 1310.21 795.376 1306.4 791.654 1303.06 792.177 C 1299.77 792.695 1298.88 796.61 1298.12 799.27 C 1295.55 808.241 1289.91 815.659 1287.01 824.27 C 1280.92 823.139 1274.9 822.972 1269.01 820.834 C 1265.16 819.435 1260.24 816.033 1256.01 816.889 C 1248.52 818.404 1244.23 827.649 1240.28 833.27 C 1233.28 843.256 1222.54 855.308 1212.01 861.653 C 1206.19 865.158 1192.37 861.25 1186.01 859.819 C 1183.79 859.321 1181.47 858.154 1179.13 858.642 C 1175.7 859.364 1175.15 863.374 1174.62 866.27 C 1173.91 870.218 1174.48 874.271 1173.75 878.18 C 1172.82 883.059 1170.43 887.159 1170.01 892.27 C 1164.95 892.669 1160.11 893.595 1155.01 892.985 C 1151.7 892.589 1146.47 890.704 1143.34 892.387 C 1140.12 894.128 1139.32 899.177 1138 902.27 C 1135.02 909.159 1132.52 916.529 1128.88 923.1 C 1127.18 926.19 1124.11 928.858 1123.06 932.271 C 1122.08 935.465 1123.86 939.327 1126.3 941.42 C 1134.63 948.579 2191.59 1033.34 2200 1033.27 L 2200 554.27 C 2194.67 555.539 2189.73 557.93 2185 560.722 C 2181.57 562.753 2178.25 565.711 2174 565.013 C 2169.59 564.289 2165.98 561.483 2162 559.68 C 2157.05 557.43 2152.67 556.184 2148 553.167 C 2145.86 551.782 2140.21 546.909 2137.53 548.442 C 2135.13 549.81 2134.63 554.885 2133.78 557.27 C 2130.92 565.341 2127.55 572.784 2123.52 580.285 C 2122.25 582.656 2120.82 587.02 2117.84 587.728 C 2114.98 588.406 2112.65 585.107 2111.13 583.23 C 2108.02 579.407 2104.59 570.543 2099.71 568.932 C 2094.59 567.249 2092.11 573.816 2089.46 576.674 C 2087.55 578.727 2085.09 580.389 2083 582.27 C 2077.65 572.561 2068.67 565.117 2061.02 557.27 C 2058.27 554.444 2055.23 549.333 2051 548.773 C 2042.19 547.608 2032.9 557.004 2024.01 556.484 C 2016.03 556.017 2013.02 542.776 2004.01 546.144 C 1993.59 550.033 1987.73 564.061 1977.01 566.942 C 1971.54 568.409 1962.52 562.722 1958.01 560.07 C 1955.38 558.527 1951.65 555.598 1948.49 557.342 C 1945.11 559.199 1943.78 564.256 1941.52 567.177 C 1938.98 570.435 1935.73 573.052 1933.18 576.31 C 1929.52 580.971 1927.01 586.307 1922.01 589.822 C 1916.77 593.506 1912.63 589.594 1908.01 586.945 C 1906.15 585.883 1902.92 583.886 1901.02 585.927 C 1899.65 587.419 1899.48 590.422 1898.69 592.27 C 1894.01 603.084 1894.91 614.793 1894.01 626.27 Z">
			<title>front</title>
		</path>
		<path style="stroke: none; fill: url(#gradient-1-0);" d="M 2152.32 606.345 C 2144.59 609.994 2134.78 622.282 2132.03 630.388 C 2130.03 636.232 2131.05 645.222 2139.34 642.006 C 2148.34 638.521 2155.91 627.543 2157.84 618.297 C 2158.64 614.402 2159.53 602.953 2152.32 606.345 M 1983.35 608.298 C 1983.41 616.478 1985.06 630.764 1990.64 637.114 C 1995.18 642.261 2002.61 645.379 2008.35 648.979 C 2014.77 653.001 2020.59 657.211 2028.35 657.298 C 2026.81 651.175 2023.19 645.936 2020.45 640.298 C 2017.21 633.641 2014.08 625.431 2009.37 619.677 C 2003.57 612.552 1992.18 608.322 1983.35 608.298 M 1518.35 785.298 C 1520.5 795.362 1524.4 800.7 1532.35 807.101 C 1535.09 809.312 1537.83 812.116 1541.35 812.981 C 1548.09 814.637 1555.57 812.438 1562.35 812.298 C 1555.42 793.438 1536.83 786.808 1518.35 785.298 M 1588.35 853.298 C 1597.56 851.19 1615.36 843.145 1616.7 832.298 C 1617.11 828.917 1614.88 825.302 1613.62 822.298 C 1611.69 817.677 1610.46 812.851 1608.35 808.298 C 1604.25 809.07 1598.83 809.244 1595.94 812.692 C 1593.45 815.668 1593.66 820.67 1592.85 824.298 C 1590.74 833.692 1588.76 843.659 1588.35 853.298 M 1316.35 851.298 C 1313.53 855.009 1309.43 858.543 1308.58 863.298 C 1307.56 868.895 1308.11 875.62 1308.36 881.297 C 1308.44 883.26 1308.52 886.117 1310.66 887.043 C 1313.92 888.446 1318.08 884.074 1320.35 882.298 C 1326.97 877.102 1334.82 872.173 1332.93 862.337 C 1331.69 855.84 1321.67 853.195 1316.35 851.298">
			<title>petals</title>
		</path>
	</g>
</svg>