<?xml version="1.0" encoding="utf-8"?>
<svg viewBox="0 0 2200 2200" xmlns="http://www.w3.org/2000/svg" xmlns:xlink="http://www.w3.org/1999/xlink" xmlns:bx="https://boxy-svg.com">
	<defs>

		<!-- Gradients -->
		<linearGradient id="gradient-1-0" gradientUnits="userSpaceOnUse" x1="1097.335" y1="1053.073" x2="1097.335" y2="2250.332" gradientTransform="matrix(0.979205, 0, 0, 0.956757, -1.286736, 97.310493)" xlink:href="#gradient-1"/>
		<linearGradient id="gradient-1" bx:pinned="true">
			<stop offset="0" style="stop-color: rgb(187, 250, 125);"/>
			<stop offset="1" style="stop-color: rgb(156, 242, 113);"/>
		</linearGradient>
		<linearGradient id="gradient-2-0" gradientUnits="userSpaceOnUse" x1="1758.799" y1="1614.873" x2="1758.799" y2="2266.01" gradientTransform="matrix(0.991191, -0.132443, 0.087077, 0.651676, -181.823837, 1022.246002)" xlink:href="#gradient-2"/>
		<linearGradient id="gradient-2" bx:pinned="true">
			<stop offset="0" style="stop-color: rgb(156, 242, 113);"/>
			<stop offset="1" style="stop-color: rgb(124, 230, 100);"/>
		</linearGradient>
		<linearGradient id="gradient-0-0" gradientUnits="userSpaceOnUse" x1="787.854" y1="1422.561" x2="787.854" y2="2223.021" gradientTransform="matrix(0.905853, 0.423593, -0.445324, 0.952322, 735.751195, -137.456921)" xlink:href="#gradient-0"/>
		<linearGradient id="gradient-0" bx:pinned="true">
			<stop offset="0" style="stop-color: rgb(124, 230, 100);"/>
			<stop offset="1" style="stop-color: rgb(85, 210, 76);"/>
		</linearGradient>

		<!-- Styles -->
		<style>
				/* Color Palette */
			.g1 { fill: #bbfa7d; }
			.g2 { fill: #9cf271; }
			.g3 { fill: #7ce664; }
			.g4 { fill: #55d24c; }
		</style>
	</defs>


	<!-- Hill - Back -->
	<g class="hill_back" transform="matrix(0.9999999999999999, 0, 0, 0.9999999999999999, 0, 0)">
		<path style="fill: url('#gradient-1-0');" d="M 2208.335 1104.846 L 2205.83 2204.691 L -5.64 2205.485 L -13.044 1268.931 L 100.073 1310.775 L 211.286 1343.817 L 305.982 1365.566 L 374.754 1388.634 L 499.687 1411.052 L 578.811 1426.758 L 671.614 1431.712 L 717.5 1437.244 L 854.664 1434.843 L 935.506 1427.601 L 1018.045 1412.534 L 1072.502 1405.934 L 1170.811 1383.968 L 1297.739 1355.943 L 1417.259 1310.737 L 1511.696 1270.977 L 1589.247 1244.253 L 1689.459 1214.263 L 1814.289 1177.166 L 1925.406 1149.161 L 2068.244 1119.278 L 2173.036 1104.123 L 2208.335 1104.846 Z"/>
		<path class="g2" d="M0 1271C0.00862741 1273.44 -0.354414 1276.45 1.02778 1278.61C5.13047 1285.02 18.2915 1287.7 25 1290.3C40.8907 1296.46 57.6735 1299.33 74 1304.16C81.6402 1306.42 88.536 1310.73 96 1313.54C102.459 1315.96 109.393 1317.42 116 1319.44C139.78 1326.68 164.11 1331.63 188 1338.43C195.48 1340.56 202.617 1344.03 210 1346.48C222.608 1350.68 236.092 1354.02 249 1357.25C258.913 1359.74 269.161 1361.07 279 1363.78C301.622 1370.02 324.522 1375.83 347 1382.57C356.976 1385.56 366.875 1389.77 377 1392.11C387.304 1394.5 397.601 1394.69 408 1396.3C423.627 1398.72 439.433 1401.64 455 1404.46C471.154 1407.4 486.836 1412.2 503 1415.31C521.297 1418.84 539.661 1421.4 558 1424.61C567.3 1426.25 576.56 1429.85 585.985 1430.56C588.691 1430.77 591.363 1429.91 594.089 1429.98C603.217 1430.22 612.903 1431.3 622 1432.17C627.935 1432.73 633.238 1434.92 639 1435.79C644.776 1436.66 651.146 1436.51 657 1436.91C667.962 1437.66 679.038 1436.33 690 1437.09C697.356 1437.6 704.602 1439.8 712 1439.95C730.828 1440.31 750.069 1439 769 1439C796.473 1439 823.636 1438.24 851 1437.04C862.715 1436.53 874.306 1436.95 886 1435.83C892.71 1435.19 899.316 1433.59 906 1432.97C926.621 1431.06 947.646 1430.24 968 1425.78C985.621 1421.91 1002.92 1416.19 1021 1414.05C1040.22 1411.78 1059.76 1411.56 1079 1408.73C1115.81 1403.31 1151.74 1394.11 1188 1385.89C1232.71 1375.75 1277.21 1365.75 1321 1351.78C1354.02 1341.26 1387.56 1329.32 1419 1314.65C1424.23 1312.21 1428.65 1308.59 1434 1306.28C1454.18 1297.57 1474.64 1290.34 1495 1282.18C1511.71 1275.47 1528.02 1267.83 1545 1261.79C1583.44 1248.11 1623.16 1237.7 1662 1225.25C1681.28 1219.08 1700.57 1212.72 1720 1207.04C1725.58 1205.4 1731.48 1204.81 1737 1203.1C1752.72 1198.22 1768.11 1192.15 1784 1187.75C1816.49 1178.73 1849.13 1171.62 1882 1164.49C1892.61 1162.19 1902.5 1157.63 1913 1154.92C1923.71 1152.17 1935.12 1150.92 1946 1148.49C1968.39 1143.47 1990.51 1136.95 2013 1132.29C2045.17 1125.61 2077.56 1120.71 2110 1115.7C2140.13 1111.05 2169.43 1107 2200 1107L2200 1101C2188.16 1101 2175.71 1099.43 2164 1100.09C2138.76 1101.52 2112.76 1105.64 2088 1110.63C2081.9 1111.86 2076.16 1114.45 2070 1115.54C2066.02 1116.24 2062 1115.75 2058 1116.17C2046.12 1117.45 2033.73 1119.63 2022 1122C2004.19 1125.61 1986.66 1130.32 1969 1134.5C1952.04 1138.51 1934.78 1141.61 1918 1146.38C1910.94 1148.38 1904.18 1151.58 1897 1153.39C1877.34 1158.34 1856.61 1160.08 1837 1165.63C1766.87 1185.47 1697.39 1207.62 1628 1230.11C1591.71 1241.88 1554.93 1251.7 1519 1264.54C1488.45 1275.46 1459.86 1290.46 1430 1302.96C1425.74 1304.75 1421.26 1304.5 1417 1306.04C1388.8 1316.23 1361.18 1328.25 1333 1338.53C1301.75 1349.93 1270.64 1361.51 1238 1368.48C1213.79 1373.66 1189.18 1377.26 1165 1382.67C1141.38 1387.95 1117.81 1394.53 1094 1398.68C1072.51 1402.42 1050.35 1401.79 1029 1406.1C1025.46 1406.81 1022.46 1408.7 1019 1409.6C1005.72 1413.05 991.54 1415.51 978 1417.71C973.287 1418.48 968.698 1417.77 964 1418.17C948.087 1419.55 931.805 1422.14 916 1424.43C904.282 1426.13 892.842 1430.01 881 1431.7C875.388 1432.5 869.642 1431.7 864 1432.09C851.346 1432.96 838.671 1434.41 826 1434.96C805.749 1435.85 785.272 1435 765 1435C750.518 1435 735.417 1436.24 721 1434.9C708.672 1433.75 696.312 1430.25 684 1429.1C654.348 1426.35 624.568 1430.04 595 1425.79C584.926 1424.34 575.178 1419.77 565 1418.3C549.465 1416.06 533.453 1415.32 518 1412.54C504.91 1410.18 492.127 1405.95 479 1403.75C460.259 1400.63 441.703 1397.01 423 1393.61C416.059 1392.35 408.853 1391.82 402 1390.15C397.548 1389.07 393.477 1386.85 389 1385.75C381.77 1383.98 374.21 1383.57 367 1381.71C343.099 1375.58 319.777 1367.18 296 1360.59C268.608 1353 240.289 1349.66 213 1341.7C203.069 1338.81 193.876 1333.7 184 1330.72C159.17 1323.23 133.745 1318.07 109 1310.23C101.402 1307.82 94.7684 1302.79 87 1300.63C74.8436 1297.27 62.1326 1295.34 50 1291.47C33.0155 1286.06 16.9319 1276.77 0 1271z"/>
		<path class="g2" d="M2116 1124C2109.46 1123 2107.4 1136.76 2109.65 1141.66C2112.03 1146.85 2113.79 1138.65 2113.86 1137C2113.93 1135.32 2114.03 1133.66 2114.29 1132C2114.71 1129.31 2115.45 1126.67 2116 1124M2097 1124C2097.02 1130.27 2095.04 1139.38 2103 1140C2102.05 1134.47 2100.05 1129.73 2100 1124L2097 1124M2119 1130C2119 1133.49 2119.01 1136.65 2120 1140L2122 1140C2123.25 1135.76 2123.78 1131.58 2119 1130M1905 1206C1905 1211.76 1905.55 1217.28 1906 1223L1910 1223L1909 1206L1905 1206M1926 1208C1925.92 1209.96 1923.69 1219.91 1927.83 1219.08C1931.3 1218.38 1929.1 1210.34 1929 1208L1926 1208M1915 1209C1914.61 1213.99 1912.71 1220.66 1920 1219C1919.06 1215.66 1918.28 1212.46 1918 1209L1915 1209M1680 1274C1679.23 1280.15 1679.98 1285.84 1680 1292L1683 1292C1683 1285.91 1682.54 1280.08 1683 1274L1680 1274M1671 1275C1670.92 1278.58 1667.74 1286.45 1670.02 1289.34C1671.49 1291.19 1673.19 1289.4 1673.7 1287.85C1674.97 1283.96 1675.64 1279.08 1676 1275L1671 1275M1660 1278C1660 1283.26 1657.98 1292 1664 1294L1665 1278L1660 1278M1472 1354C1468.59 1341.88 1471.47 1330.29 1472 1318C1467.27 1319.57 1468.05 1323.63 1468 1328C1467.93 1333.3 1467.28 1338.7 1466.91 1344C1466.73 1346.65 1465.45 1350.14 1466.62 1352.68C1467.73 1355.11 1469.96 1354.46 1472 1354M1489 1349L1489 1339L1489 1332C1489 1330.47 1489.5 1320.67 1485.54 1323.18C1483.36 1324.56 1484 1328.85 1484 1331C1483.99 1337.57 1482.63 1345.08 1489 1349M1786 1324C1785.52 1330.09 1786.48 1335 1787 1341L1790 1341L1790 1324L1786 1324M1767 1328L1767 1344C1773.48 1342.11 1770.16 1333.05 1770 1328L1767 1328M1774 1330C1774.11 1334.99 1773.07 1340.01 1779 1341L1777 1330L1774 1330M1475 1333C1473.43 1336.71 1471.62 1341.84 1471.95 1345.94C1472.1 1347.88 1474.04 1350.57 1476.2 1348.91C1478.88 1346.84 1477.57 1336.39 1478 1333L1475 1333M46 1354C46.0545 1358.46 46.0805 1364.56 51 1366L50 1354L46 1354M65 1355L66 1371L71 1371C70.8608 1365.68 69.9472 1360.24 69 1355L65 1355M56 1359C55.6796 1360.35 55.2943 1361.66 55.179 1363.04C55.0989 1364.01 54.977 1365.02 55.0733 1365.98C55.2415 1367.67 56.663 1372.12 58.9915 1369.34C61.945 1365.82 59.194 1360.76 56 1359M255 1428C255 1433.99 254.024 1440.09 255 1446L259 1446C259 1440.49 261.317 1430.1 255 1428M247 1429L247 1443L250 1443L252 1429L247 1429M263 1432L263 1449L266 1449L266 1432L263 1432M532 1434C531.955 1439.47 528.393 1448.81 535 1451C535 1445.36 535.607 1439.44 534 1434L532 1434M548 1434C548 1439.51 545.683 1449.9 552 1452L552 1434L548 1434M538 1438L538 1450C543.511 1448.17 543.511 1439.83 538 1438M201 1451C198.305 1456.17 197.435 1463.16 198.137 1469C198.394 1471.13 199.751 1475.65 202.758 1475.08C205.647 1474.53 203.514 1469.64 203.258 1468C202.293 1461.79 206.261 1455.62 201 1451M189 1453C189 1458.56 186.228 1473.04 195 1471C193.729 1464.86 192.017 1459.33 192 1453L189 1453M211 1454C209.479 1459.15 210 1464.66 210 1470L214 1470C214 1464.66 214.521 1459.15 213 1454L211 1454M1311 1479C1311.03 1476.26 1311.38 1473.71 1311.74 1471L1312.13 1467C1312.29 1465.57 1312.3 1457.31 1308.88 1461.5C1307.72 1462.93 1308.05 1465.3 1307.87 1467C1307.39 1471.45 1305.54 1477.4 1311 1479M1318 1460C1316.26 1463.54 1316.37 1467.03 1317.13 1470.94C1317.39 1472.27 1318 1474.44 1319.83 1474.08C1325.56 1472.94 1320.11 1461.95 1318 1460M2143 1465C2141.51 1470.05 2140.87 1476.13 2143 1481C2146.7 1477.27 2146.11 1469.1 2143 1465M2151 1465C2150.01 1470.35 2150 1475.57 2150 1481L2155 1481L2155 1465L2151 1465M1299.54 1467.18C1297.04 1468.76 1298.16 1476.08 1301.7 1474.65C1304.96 1473.34 1302.71 1465.17 1299.54 1467.18M2158 1468L2158 1479L2162 1479L2163 1468L2158 1468M1047 1497C1051.94 1497.76 1051.97 1494.21 1052 1490C1052.04 1484 1052 1478 1052 1472C1044.78 1474.4 1048.54 1490.51 1047 1497M1034 1481C1034 1485.42 1034.45 1489.62 1035 1494L1038 1494C1038.42 1488.68 1040.96 1482.16 1034 1481M1024 1484C1022.8 1489.79 1022 1495.07 1022 1501L1027 1501L1027 1484L1024 1484M756 1506C754.487 1511.17 756.495 1514.07 757.68 1519.01C758.086 1520.7 758.084 1523.59 760.227 1524.1C761.995 1524.52 764.459 1522.68 766 1522L766 1506C760.891 1507.66 761.04 1512.24 761 1517C759.877 1513.31 759.517 1509.59 758 1506L756 1506M771 1509L772 1523L776 1523C776 1517.65 777.658 1510.16 771 1509M1674 1531L1679 1531C1678.65 1523.78 1678.66 1517.2 1680 1510C1671.12 1507.93 1673.67 1525.21 1674 1531M1401 1512L1401 1528L1405 1528L1406 1512L1401 1512M1389 1514C1389 1520.08 1388.89 1526 1390 1532L1394 1532C1393.57 1526.61 1394.83 1515.93 1389 1514M1413 1515C1411.32 1520.55 1411.86 1525.4 1413 1531C1419.53 1528.8 1416.57 1520.15 1415 1515L1413 1515M1699 1515C1698.49 1521.43 1697 1527.5 1697 1534L1701 1534C1701.05 1527.49 1701.51 1521.51 1701 1515L1699 1515M1685 1517L1685 1533L1689 1533L1688 1517L1685 1517M2032 1558C2032.13 1563.96 2032.22 1576.87 2039 1578C2038.58 1574.58 2037.3 1571.41 2036.81 1568C2036.12 1563.18 2037.93 1558.99 2032 1558M2044 1559C2044 1566.06 2041.62 1580 2050 1583C2049.95 1578.67 2048.2 1575.95 2047.3 1571.91C2046.39 1567.84 2047 1563.15 2047 1559L2044 1559M2055 1578L2058 1578C2058.87 1573.99 2059.51 1569.15 2058.85 1565.06C2058.63 1563.72 2057.99 1561.56 2056.17 1561.92C2051.94 1562.76 2054.39 1575.19 2055 1578M648 1567L647 1584L651 1584C651.001 1578.05 652.144 1572.82 653 1567L648 1567M666 1578C670.802 1576.33 670.903 1571.55 671 1567C665.04 1568.03 665.711 1572.98 666 1578M657 1569C656.493 1571.07 655.747 1573.56 656.682 1575.66C658.019 1578.67 660.462 1576.36 660.258 1573.97C660.12 1572.34 659.412 1570.58 659 1569L657 1569M1517 1578C1517 1584.05 1514.3 1595.71 1522 1597C1522 1590.49 1521.56 1584.35 1520 1578L1517 1578M1529 1580L1529 1592C1535.04 1590.04 1535.95 1581.16 1529 1580M1541 1594L1545 1594L1545 1583C1540.02 1584.65 1541 1589.48 1541 1594M1197 1602C1196.67 1609.65 1195.77 1618.57 1194 1626C1203.64 1628.19 1201 1608.18 1201 1602L1197 1602M1182 1611C1176.83 1611.4 1172.85 1618.46 1175.28 1623.64C1177.08 1627.48 1180.27 1622.99 1180.78 1620.96C1181.09 1619.69 1181.02 1618.3 1181.17 1617L1182 1611M1187 1611L1186 1629L1190 1629C1190.02 1622.85 1191.73 1617.1 1192 1611L1187 1611M1776 1686C1774.9 1691.69 1770.65 1703.56 1778 1706C1778 1700.49 1781.95 1688 1776 1686M1026 1687C1023.84 1693.81 1021.59 1703.72 1029 1708C1028.1 1700.87 1030.16 1693.9 1028 1687L1026 1687M1012 1688C1010.81 1693.48 1012.88 1698.48 1013 1704L1017 1704C1016.88 1698.41 1016.7 1693.37 1015 1688L1012 1688M1787 1703C1790.77 1701.67 1793.66 1693.23 1790.95 1689.66C1788.69 1686.68 1787.46 1691.47 1787.48 1693.02C1787.5 1694.35 1787.78 1695.65 1787.74 1697C1787.68 1699 1787.25 1701.02 1787 1703M1033 1689L1033 1705C1039.01 1703.01 1038 1694.34 1038 1689L1033 1689M1798 1691L1797 1704L1801 1704L1800 1691L1798 1691M1278 1743C1278 1748.61 1277.23 1754.85 1284 1756C1283.35 1750.83 1283.65 1744.79 1278 1743M1292 1743L1292 1756C1298.3 1753.91 1295.07 1747.8 1294 1743L1292 1743M1302 1745L1302 1756L1306 1756C1305.92 1752.09 1305.37 1748.67 1304 1745L1302 1745M1487 1814L1487 1825L1491 1825L1491 1814L1487 1814M1495 1825C1492.3 1827.49 1494.29 1829.51 1497 1831C1499.03 1825.96 1498.95 1819.45 1499 1814C1493.09 1815.03 1493.85 1820.17 1495 1825M1502 1816C1500.74 1820.26 1501 1824.58 1501 1829L1505 1829C1505 1824.56 1505.03 1820.34 1504 1816L1502 1816M1382 1891C1382.05 1896.92 1383.4 1902.32 1385 1908C1391.53 1905.83 1387.98 1896.25 1387 1891L1382 1891M1402 1894L1402 1909L1407 1909L1407 1894L1402 1894M1396 1898C1395.49 1902.04 1395.01 1905.92 1395 1910L1399 1910L1399 1898L1396 1898z"/>
	</g>

	<!-- Hill - Middle -->
	<g class="hill_mid" transform="matrix(0.9999999999999999, 0, 0, 0.9999999999999999, 0, 0)">
		<path style="fill: url('#gradient-2-0');" d="M 2216.537 1662.884 L 2093.215 1696.62 L 1991.707 1729.417 L 1897.182 1768.156 L 1753.994 1829.655 L 1629.335 1882.798 L 1545.359 1921.551 L 1443.303 1982.648 L 1348.637 2038.126 L 1342.752 2206.107 L 2206.43 2205.251 L 2216.537 1662.884 Z"/>
		<path class="g3" d="M2200 1666C2189.77 1667.5 2180.06 1671.23 2170 1673.49C2147.03 1678.63 2124.53 1684.78 2102 1691.66C2076.11 1699.56 2049.51 1706.45 2024 1715.54C1990.7 1727.4 1958.11 1741.53 1925 1753.94C1834.49 1787.85 1745.68 1827.48 1658 1868.07C1624.13 1883.75 1587.64 1894.98 1555 1912.86C1533.92 1924.4 1511.46 1934.36 1491.04 1947.01C1477.4 1955.46 1464.36 1965.32 1451 1974.26C1435.34 1984.73 1419.01 1994.29 1403 2004.19C1390.95 2011.65 1378.95 2019.18 1367 2026.78C1365.32 2027.85 1354.8 2032.9 1358.8 2035.92C1361.69 2038.1 1367.7 2032.77 1370 2031.32C1380.07 2024.98 1390.29 2018.86 1400.28 2012.42C1442.35 1985.33 1484.4 1957.54 1529 1934.92C1546.94 1925.82 1564.06 1914.78 1582.04 1905.89C1611.3 1891.41 1642.52 1879.4 1673 1867.97C1703.82 1856.41 1733.88 1841.44 1764 1828.14C1813.11 1806.44 1862.44 1785.62 1912 1764.99C1951.45 1748.57 1991.24 1731.76 2032 1718.74C2074.31 1705.23 2116.81 1691.77 2160 1681.5C2169.35 1679.27 2178.6 1676.28 2188 1674.29C2193.89 1673.04 2199.45 1673.06 2200 1666M2171 1700C2168.99 1708.77 2169 1717.02 2169 1726C2174.1 1722.69 2171.55 1714.37 2172.18 1709C2172.57 1705.78 2173.48 1703.23 2173 1700L2171 1700M2141 1707C2140.48 1711.89 2141.16 1716.15 2141.97 1720.98C2142.21 1722.43 2142.6 1725.53 2144.83 1725.08C2147.02 1724.63 2146.48 1721.69 2146.29 1720.17C2145.72 1715.61 2145.18 1711.46 2144 1707L2141 1707M2157 1718L2160 1718C2161.9 1709.62 2155.1 1709.62 2157 1718M2010 1798C2008.41 1803.38 2005.67 1817.9 2012 1820C2012 1813.56 2014 1803.28 2010 1798M1982 1801C1982 1806.89 1980.14 1817.73 1987 1820C1987 1814 1989.03 1803.31 1982 1801M1996 1801L1996 1817C2001.94 1815.03 2001.94 1802.97 1996 1801M1840 1917C1841.92 1923.07 1842 1928.68 1842 1935L1845 1935C1845 1929.21 1849.22 1914.91 1840 1917M1815 1919C1813.43 1924.3 1814 1929.62 1815 1935L1818 1935C1819.05 1929.34 1819.55 1924.31 1817 1919L1815 1919M1828 1920C1827.74 1926.14 1825.98 1931.84 1827 1938L1831 1938L1831 1920L1828 1920M1616 1957L1621 1957C1621.3 1953.25 1624.8 1942.81 1621.99 1939.89C1619.96 1937.79 1618.17 1941.6 1617.63 1943.02C1615.93 1947.57 1616 1952.23 1616 1957M1625 1949L1625 1963C1631.79 1961.87 1630 1954.46 1630 1949L1625 1949M1633 1949C1632.95 1951.78 1631.9 1956.05 1633.41 1958.55C1634.61 1960.54 1637.63 1960.39 1637.97 1957.84C1638.33 1955.11 1635.68 1951.66 1635 1949L1633 1949M2084 1964C2082.5 1970.89 2083.56 1981.4 2086.7 1987.82C2087.73 1989.92 2093.4 1995.58 2095.84 1992.44C2097.51 1990.29 2093 1986.56 2092.05 1984.91C2088.48 1978.71 2088.15 1970.75 2086 1964L2084 1964M2093 1966C2093.06 1972.32 2092.95 1985.01 2100 1987C2099.95 1980.92 2100.21 1967.25 2093 1966M2111 1969C2109.67 1979.59 2115.09 1986.92 2117 1997C2121.13 1995.61 2120.7 1992.79 2119.34 1989C2116.94 1982.34 2114.15 1976.19 2114 1969L2111 1969M1421 2041L1421 2064L1425 2064C1424.99 2059.95 1424.23 2056.02 1424.13 2052C1424.02 2047.4 1426.45 2042.81 1421 2041M1442 2046C1439.81 2053.4 1438.36 2064.67 1441.35 2072C1442.19 2074.05 1444.54 2079.89 1447.68 2078.65C1450.39 2077.59 1448.47 2073.68 1447.74 2072C1444.31 2064.19 1447 2052.6 1442 2046M1435 2048L1434 2067L1437 2067C1437 2060.57 1437.5 2054.39 1438 2048L1435 2048M1836 2080C1836 2087.85 1834.64 2099.24 1844 2102C1843.1 2094.62 1840.34 2087.48 1840 2080L1836 2080M1819 2082L1820 2103C1826.63 2100.8 1826.58 2083.31 1819 2082M1847 2105C1852.35 2103.22 1849.76 2098.54 1850.53 2094C1850.84 2092.13 1852.13 2089.45 1850.9 2087.66C1848.21 2083.78 1847.03 2091.76 1847 2093L1847 2098L1847 2105M1518 2141C1516.67 2146.59 1517 2152.28 1517 2158L1522 2158C1522 2152.28 1522.33 2146.59 1521 2141L1518 2141M1534 2166L1538 2166C1538.02 2159.15 1540.67 2151.62 1539 2145C1532.62 2149.34 1534 2159.15 1534 2166M1545 2145L1545 2166L1550 2166C1550 2158.58 1547.94 2152.25 1547 2145L1545 2145M2047 2150L2047 2170L2051 2170L2050 2150L2047 2150M2024.56 2155.18C2023.3 2156.02 2023.46 2157.73 2023.65 2159.02C2024.24 2162.98 2024.96 2168.07 2026.28 2171.85C2026.72 2173.11 2027.88 2174.87 2029.44 2173.82C2030.7 2172.98 2030.55 2171.27 2030.34 2169.98C2029.7 2165.95 2028.69 2161.07 2027.61 2157.15C2027.25 2155.87 2026.12 2154.13 2024.56 2155.18M2061 2175L2065 2175L2064 2156C2057.59 2158.13 2061.13 2169.37 2061 2175z"/>
	</g>

	<!-- Hill - Front -->
	<g class="hill_front" transform="matrix(0.9999999999999999, 0, 0, 0.9999999999999999, 0, 0)">
		<path style="fill: url('#gradient-0-0');" d="M -30.848 1422.561 L 176.222 1474.888 L 320.781 1516.608 L 448.171 1559.689 L 620.362 1622.162 L 732.625 1670.374 L 881.868 1741.439 L 962.618 1784.385 L 1040.239 1834.419 L 1267.016 1968.965 L 1405.373 2067.794 L 1544.571 2171.167 L 1606.556 2223.021 L -20.17 2218.589 L -30.848 1422.561 Z"/>
		<path class="g4" d="M0 1426C0.347972 1436.6 13.9938 1435.09 22 1437.04C44.5582 1442.54 66.6387 1450.06 89 1456.25C117.698 1464.21 147.127 1469.15 176 1476.76C200.944 1483.32 225.429 1492.56 250 1500.41C267.09 1505.86 284.817 1509.46 302 1514.62C328.527 1522.58 354.564 1531.93 381 1540.19C388.951 1542.68 396.174 1546.2 404 1548.92C422.595 1555.39 441.496 1560.98 460 1567.71C484.199 1576.52 507.847 1587 532 1595.97C545.073 1600.83 558.837 1604.1 572 1608.86C597.421 1618.05 621.852 1629.94 647 1639.82C673.576 1650.25 701.01 1659.69 726.961 1671.94C734.087 1675.3 740.875 1679.8 748 1683.33C770.619 1694.56 793.336 1705.7 816 1716.84C832.261 1724.83 849.494 1730.45 866 1737.63C879.63 1743.57 892.842 1751.29 906 1758.22C919.928 1765.55 934.173 1772.27 948 1779.79C975.259 1794.62 1001.93 1812.13 1028 1828.95C1032.94 1832.14 1036.93 1836.36 1042 1839.4C1071.88 1857.29 1102.81 1873.5 1133 1890.62C1162.32 1907.25 1190.51 1926.11 1219 1944.05C1233.73 1953.32 1249.15 1961.54 1264 1970.59C1278.33 1979.33 1291.49 1990.1 1305.17 1999.78C1316.66 2007.92 1328.88 2015.45 1339.95 2024.16C1343.6 2027.03 1346.2 2030.82 1350 2033.56C1396.48 2066.95 1444.15 2098.28 1488.71 2134.29C1504.11 2146.73 1519.92 2158.57 1536 2170.11C1539.68 2172.75 1544.11 2173.98 1547.58 2176.86C1557.26 2184.9 1568.83 2199.88 1582 2200C1574.31 2191.2 1563.91 2184.13 1555 2176.56C1551.17 2173.31 1548.62 2168.99 1544.87 2165.75C1531.9 2154.52 1516.62 2146.04 1503.01 2135.63C1476.63 2115.43 1451.16 2093.72 1424 2074.55C1402.47 2059.35 1380.91 2044.03 1359 2029.35C1347.25 2021.49 1334.86 2015 1323.29 2006.68C1302.82 1991.98 1282.74 1976.18 1261.83 1962.23C1228.29 1939.85 1192.43 1920.5 1158 1899.49C1147 1892.78 1136.85 1884.74 1126 1878C1099.05 1861.28 1071.04 1844.87 1043 1830.05C1039.78 1828.35 1036.2 1827.81 1033 1826.07C1004.81 1810.79 978.571 1791.78 950.911 1775.58C938.38 1768.24 924.786 1762.74 912 1755.88C894.309 1746.39 876.769 1736.22 859 1726.98C844.613 1719.51 828.781 1714.37 814 1707.69C788.637 1696.22 764.321 1682.47 739 1670.96C734.177 1668.77 728.918 1667.71 724 1665.71C706.275 1658.52 688.602 1651 671 1643.5C663.11 1640.14 655.76 1635.88 648 1632.4C624.028 1621.64 599.388 1611.79 575 1602.01C563.919 1597.57 552.204 1594.63 541 1590.47C516.843 1581.5 493.172 1571.15 469 1562.18C444.154 1552.96 418.203 1545.97 392.961 1538.24C372.437 1531.96 352.369 1524.2 332 1517.59C308.223 1509.88 283.956 1504 260 1496.96C237.867 1490.46 216.101 1482.8 194 1476.21C177.246 1471.21 159.732 1468.73 143 1463.66C126.331 1458.6 109.842 1453.03 93 1448.49C80.4434 1445.1 67.4472 1443.16 55 1439.43C41.8929 1435.5 28.4217 1431.1 15 1428.68C9.8062 1427.74 5.36801 1426.04 0 1426z"/>
		<path class="g4" d="M32 1474C33.5094 1479.32 34.1285 1485.23 40 1487C39.7957 1482.25 38.6067 1477.7 38 1473C35.7951 1473.09 34.1059 1473.36 32 1474M49 1479C49 1487.68 48.4499 1496.61 51 1505C55.8183 1498.67 53.7369 1486.3 52 1479L49 1479M60 1490L64 1490C64.5621 1486.97 64.9364 1484.08 65 1481C60.5997 1482.43 60.1998 1485.7 60 1490M390 1580C390.097 1584.55 390.198 1589.33 395 1591C394.439 1586.56 394.741 1581.57 390 1580M417 1581C417 1585.06 416.238 1590.01 417.318 1593.94C417.753 1595.53 419.372 1598.09 421.377 1596.82C422.916 1595.85 422.378 1593.46 422.266 1592C421.987 1588.33 422 1584.68 422 1581L417 1581M401 1583L402 1597L406 1597C405.999 1591.66 407.05 1584.96 401 1583M285 1646L285 1627C278.843 1629.04 278.843 1643.96 285 1646M257 1629L256 1641C261.102 1639.31 260.902 1633.74 261 1629L257 1629M269 1649C275.568 1646.82 273 1634.75 273 1629C266.432 1631.18 269 1643.25 269 1649M620 1759L623 1759L623 1741C616.64 1743.11 619.999 1753.49 620 1759M610 1743L610 1753L614 1753L615 1743L610 1743M631 1745L631 1751L634 1751L634 1745L631 1745M389 1800C387.289 1806.09 387 1811.71 387 1818C394.124 1815.75 392 1806.07 392 1800L389 1800M370 1803L371 1823L374 1823L375 1803L370 1803M401 1803C401 1809.08 398.901 1819.57 406 1822C406 1815.59 406.174 1809.32 405 1803L401 1803M198 1905C196.708 1911.96 197 1918.95 197 1926L200 1926L201 1905L198 1905M215 1909L216 1927L219 1927C219.459 1921.18 222.988 1910.39 215 1909M867 1910C867 1918.09 866.985 1925.97 868 1934L871 1934L871 1910L867 1910M206 1911C205.706 1917.86 201.136 1931.23 211 1932C210.101 1924.89 208.876 1918.18 209 1911L206 1911M857 1911C857 1918.1 857.443 1924.94 858 1932L861 1932C860.715 1925.35 860.873 1917.34 859 1911L857 1911M878 1915L877 1935C883.359 1932.76 881.569 1920.31 880 1915L878 1915M1234 1996L1234 2013L1239 2013L1239 1996L1234 1996M1261 1996L1261 2019L1264 2019L1264 1996L1261 1996M1247 1997C1247 2003.8 1245.57 2012.48 1247.65 2019C1248.23 2020.78 1250.8 2025.64 1253.3 2023.25C1255.21 2021.43 1253.02 2017.96 1252.48 2016C1250.78 2009.82 1251 2003.34 1251 1997L1247 1997M969 2023L969 2043L973 2043L972 2023L969 2023M985 2023C984.944 2029.75 980.487 2043.24 989 2046L989 2023L985 2023M995 2026C995 2034.43 995.338 2042.62 996 2051L999 2051C999.662 2042.62 1000 2034.43 1000 2026L995 2026M38 2075C37.9064 2072.67 37.5711 2070.33 37.571 2068C37.5709 2066.33 37.8723 2064.67 37.8951 2063C37.9163 2061.45 37.3987 2056.38 34.5448 2058.18C32.8208 2059.26 32.96 2062.25 32.7191 2064C31.9378 2069.68 31.1161 2074.46 38 2075M52 2081L55 2081C55 2073.47 56.6761 2066.43 57 2059C49.4625 2061.48 52 2074.6 52 2081M43 2064L43 2088L46 2088C46.6422 2079.86 46 2072.16 46 2064L43 2064M662 2092L662 2112L667 2112C666.943 2105.21 665.005 2098.83 665 2092L662 2092M670 2098L670 2115L674 2115L674 2098L670 2098M651 2100C651 2104.99 649.33 2112.12 655 2114C655 2109.23 654.873 2104.7 654 2100L651 2100M373 2140C371.835 2149.23 372.419 2159.01 375 2168C376.181 2172.11 376.656 2175.59 381 2177C380.982 2170.77 379.267 2165.11 378.247 2159C377.203 2152.75 376.802 2146.04 375 2140L373 2140M385 2147C384.951 2152.9 383.09 2159.13 384.344 2164.98C384.695 2166.62 386.082 2170.29 388.451 2168.82C390.203 2167.74 389.994 2164.74 389.981 2163C389.941 2157.57 388.046 2152.47 388 2147L385 2147M1413 2153L1413 2172L1416 2172L1416 2153L1413 2153M1396 2155C1396 2162.05 1393.83 2173.51 1403 2175C1402.12 2171.95 1400.39 2169.09 1399.73 2166C1398.74 2161.39 1401.63 2156.87 1396 2155M398 2156L397 2169C401.107 2166.35 400.906 2160.56 401 2156L398 2156M1429 2161L1429 2180L1432 2180C1433.11 2173.46 1434 2167.7 1434 2161L1429 2161z"/>
	</g>
</svg>