<?xml version="1.0" encoding="utf-8" standalone="yes"?>
<svg xmlns="http://www.w3.org/2000/svg" width="2200" height="2200">
	<path style="fill:#1f1731; stroke:none;" d="M0 0L0 2200L443 2200C441.717 2184.29 435.845 2168.3 432.13 2153C425.259 2124.71 418.602 2096.34 411.884 2068C402.171 2027.02 393.644 1985.58 382.255 1945C362.345 1874.06 339.746 1803.9 319.71 1733C314.152 1713.33 312.205 1692.12 308.576 1672C300.335 1626.31 292.161 1580.63 283.611 1535C280.319 1517.43 278.282 1499.36 274.101 1482C270.256 1466.04 263.826 1450.68 259.039 1435C246.697 1394.56 233.862 1354.13 220.485 1314C213.037 1291.66 204.349 1268.88 198.748 1246C193.667 1225.24 193.954 1202.23 191.831 1181C186.61 1128.78 183.802 1076.01 176.711 1024C175.303 1013.67 172.767 1003.39 171.271 993C165.172 950.677 159.827 908.32 153.729 866L146.729 817C145.254 806.765 143.029 796.356 143 786C154.786 792.951 166.919 799.363 179 805.78C184.857 808.891 191.913 812.975 198.945 811.593C202.549 810.884 203.969 806.939 205.409 804C209.137 796.392 212.386 788.507 216.298 781C224.654 764.965 232.246 748.388 239.886 732C243.324 724.624 247.617 717.598 250.573 710C253.752 701.827 256.304 693.879 260.247 686C261.529 683.438 262.814 679.38 265.39 677.817C268.154 676.14 271.541 678.705 274 679.892C280.357 682.96 286.617 686.332 293 689.309C303.128 694.033 315.111 695.422 326 697.6C337.088 699.818 348.578 703.191 359.995 701.891C367.554 701.031 370.746 688.013 373.753 682C375.804 677.898 378.754 674.009 380.53 669.83C383.286 663.348 383.8 655.776 385.583 649C388.933 636.275 393.237 623.029 395 610C409.815 614.358 422.899 625.381 437 631.688C446.629 635.994 457.834 637.045 468 639.594C473.379 640.943 478.548 642.228 484 643.245C486.231 643.661 488.659 644.892 490.957 644.268C495.839 642.942 498.826 634.964 501.2 631C509.14 617.74 518.676 604.011 523 589C537.728 595.967 551.079 606.462 565 614.932C569.804 617.855 579.154 623.609 584.982 622.589C588.863 621.909 590.404 617.95 592.38 615.039C596.665 608.727 599.692 603.041 602.719 596C609.556 580.097 615.726 563.903 622.568 548C628.382 534.487 635.837 519.646 638 505C649.337 509.885 659.972 516.685 671 522.248C675.055 524.293 680.177 528.163 684.96 526.392C688.929 524.923 690.64 520.531 692.294 517C696.101 508.871 699.939 500.436 703 492C710.699 496.387 717.118 502.611 725 506.745C728.004 508.32 731.447 510.84 735 510.052C744.463 507.955 754.349 500.104 763 495.752C766.032 494.227 770.259 490.837 773.714 492.721C786.69 499.797 792.664 515.67 803.224 524.985C810.081 531.034 818.487 535.822 826 541.025C841.765 551.942 857.951 562.16 874 572.656C883.794 579.061 893.202 584.893 904 589.424C908.348 591.249 913.129 594.119 918 593.848C924.804 593.469 928.904 586.493 933.089 582C936.972 577.832 941.941 574.12 944.61 569C953.393 552.149 961.531 534.908 970.258 518C977.69 503.601 985.956 489.475 991 474C1001.07 476.404 1011.75 476.98 1022 478.424C1025.01 478.848 1030.7 480.79 1033.42 478.933C1036.4 476.895 1038.49 469.279 1039.98 466C1044.85 455.236 1049.97 444.569 1055.25 434C1060.8 422.887 1067.24 411.468 1071.91 400C1076.76 388.087 1079.29 375.19 1083.35 363C1088.66 347.071 1095.03 330.458 1098.49 314C1100.67 303.59 1101.66 292.56 1103 282C1108.43 284.306 1114.28 285.001 1120 286.336C1130.69 288.833 1141.19 291.177 1152 293.17C1156.98 294.089 1163.8 297.965 1168.91 296.307C1174.64 294.445 1179.16 283.759 1182.33 279C1190.68 266.483 1197.52 253.452 1204.25 240C1207.3 233.892 1211.78 227.756 1213 221C1229.55 233.718 1247.85 246.391 1266 256.713C1288.22 269.35 1312.09 279.665 1335 290.975C1345.89 296.352 1357.49 298.933 1369 302.67C1372.18 303.704 1378.41 307.099 1381.7 305.712C1385.9 303.945 1388.31 293.897 1390 290C1395.42 277.575 1401.35 265.203 1407.26 253C1409 249.407 1411.46 241.951 1415.38 240.241C1419.08 238.626 1426.43 243.416 1430 244.656C1440.36 248.255 1450.65 252.058 1461 255.691C1465.48 257.264 1471.92 259.578 1476.62 257.397C1480.28 255.699 1481.28 250.251 1483.05 247C1487.79 238.276 1492.85 229.334 1498.24 221C1507.6 206.546 1515.64 191.514 1523.26 176C1525.72 170.987 1529.17 166.28 1531.03 161C1535.15 149.349 1536.72 136.033 1539.88 124C1543.19 111.414 1548.43 99.1599 1549 86C1559.14 89.2078 1567.64 96.1897 1577 101.019C1594 109.789 1612.11 116.177 1629 125.309C1635.7 128.934 1641.92 132.754 1648 137.345C1650.69 139.38 1654.17 142.339 1657.83 141.627C1664.04 140.423 1670.26 130.113 1674.58 125.756C1688.8 111.391 1705.76 99.3079 1719 84C1728.36 93.7834 1734.93 105.42 1743.21 116C1761.55 139.444 1780.16 162.873 1797.58 187C1804.08 196.013 1810.66 204.965 1817.14 214C1820.71 218.978 1823.84 224.271 1830 226C1831.02 218.599 1835.56 212.317 1839.34 206C1844.09 198.071 1848.23 189.778 1853.24 182C1856.34 177.193 1860.62 173.202 1863 168C1872.12 172.177 1878.26 179.761 1885.39 186.276C1889.46 189.996 1894.55 192.901 1899 196.151C1902.68 198.835 1907.4 204.181 1912 204.987C1914.89 205.494 1917.69 203.391 1920 201.946C1926.38 197.951 1931.69 193.309 1937 188C1950.12 174.88 1963.86 162.191 1976.71 148.83C1982.45 142.859 1986.75 135.463 1993 130C1993.94 136.396 1996.85 141.968 1998.99 148C2002.49 157.894 2005.66 167.877 2008.35 178C2009.42 182.032 2012.63 189.94 2017.84 189.549C2023.99 189.089 2031.88 180.011 2036 175.985C2044.12 168.052 2052.58 160.446 2061 152.83C2065.71 148.567 2069.79 143.668 2075 140C2084.52 159.691 2094.39 180.956 2106.65 199.015C2110.12 204.139 2113.99 214.405 2120.02 216.864C2122.93 218.05 2125.75 216.164 2128 214.467C2132.92 210.755 2137.44 206.157 2142 202C2157.65 187.724 2172.83 172.61 2186 156C2190.17 150.743 2197.53 144.476 2199.49 137.961C2200.77 133.7 2200 128.407 2200 124L2200 95L2200 0L0 0z"/>
</svg>