<?xml version="1.0" encoding="utf-8" standalone="yes"?>
<svg xmlns="http://www.w3.org/2000/svg" width="2200" height="2200">
	<path style="fill:#2b1f45;" d="M0 0L0 566L0 731L0 779C0 785.119 -1.672 794.172 0.603395 799.911C2.3914 804.42 8.28603 807.583 12 810.373L39 830.627L104 879.373C118.879 890.533 132.85 902.596 150 910C161.587 915.003 172.985 921.327 185 925.231C190.829 927.125 195.247 929.441 200.867 925.647C205.001 922.857 206.994 917.187 209.424 913C214.832 903.681 220.232 894.36 225.568 885C238.521 862.278 250.514 840.054 260.869 816C265.332 805.633 270.223 795.41 274.551 785C277.218 778.585 279.532 770.955 283.275 765.103C286.521 760.026 291.55 765.007 295 767.33C301.485 771.696 308.207 777.816 315.285 781.076C317.937 782.297 322.03 782.519 324.301 780.397C328.515 776.458 330.744 767.263 332.999 762C338.729 748.629 344.782 735.407 350.424 722C355.756 709.332 362.584 697.006 367.049 684C369.83 675.899 371.47 667.224 374.025 659C380.865 636.991 388.561 615.191 394.745 593C397.259 583.982 400.043 574.856 403.079 566C405.127 560.026 408.06 554.276 409 548C420.698 558.692 429.477 575.108 438.71 588C450.956 605.099 463.457 622.005 475.849 639C487.322 654.735 498.252 670.118 512 684C520.631 692.715 528.457 702.217 537.015 711C539.963 714.026 543.581 719.289 548.089 719.833C552.724 720.391 555.979 716.965 559 713.995C564.893 708.203 570.156 701.846 576 696C591.838 680.156 607.276 663.917 623.004 648C632.972 637.912 644.846 627.575 653 616C671.98 634.992 689.981 655.708 707.576 676C712.241 681.381 717.072 686.606 721.729 691.999C723.599 694.165 725.884 697.706 729.004 698.079C733.319 698.594 736.579 692.913 738.695 690C744.734 681.689 751.707 673.922 758.25 666C773.669 647.332 789.269 628.785 804.54 610C812.29 600.467 820.159 591.505 828.83 582.83C832.904 578.755 836.247 574.349 841 571C846.481 583.719 854.1 595.815 860.691 608C877.586 639.235 894.738 669.93 913.681 700C919.905 709.88 925.571 720.157 931.799 730C933.725 733.042 936.875 737.83 941.015 737.433C949.05 736.661 950.475 726.083 952.424 720C958.364 701.469 965.925 683.379 972.343 665C981.677 638.271 992.386 611.93 1001.11 585C1008.98 560.723 1016.26 536.209 1024.33 512C1029.54 496.393 1034.16 480.599 1039.33 465C1043.77 451.629 1049.11 438.032 1051 424C1062.81 425.472 1075.26 433.055 1086 438C1090.82 440.22 1096.36 444.316 1101.91 443.826C1108.59 443.236 1110.07 433.138 1111.58 428C1116.59 410.87 1124.89 394.295 1129 377C1139.15 381.802 1148.55 388.74 1158 394.783C1169.62 402.21 1181.62 409.103 1193 416.897C1200.37 421.944 1207.83 425.53 1216 429.14C1218.9 430.419 1222.73 432.795 1226 432.469C1229.3 432.141 1231.79 429.165 1234 426.995C1239.38 421.714 1244.67 416.332 1250 411C1264.1 396.899 1277.12 382.108 1290.13 367C1297.76 358.143 1306.29 349.56 1313 340C1330.85 357.849 1348.16 376.156 1366 394C1373.55 401.55 1380.42 410.516 1389 416.857C1395.16 421.413 1401.07 426.392 1407 431.249C1409.09 432.96 1411.92 436.106 1414.91 435.883C1419.5 435.538 1422.77 426.394 1424.8 423C1433.35 408.716 1441.67 394.295 1450.2 380C1458.68 365.792 1469.29 351.201 1475.79 336C1477.3 332.471 1477.8 328.593 1479.2 325C1487.78 303.061 1495.77 280.892 1504.45 259C1509.58 246.052 1514.34 232.966 1519.43 220C1524.82 206.25 1530.82 191.774 1533 177C1559.85 207.739 1584.59 240.728 1612.84 270.17C1619.08 276.669 1624.37 284.679 1629.61 292C1631.52 294.677 1633.21 300.029 1637.06 300.164C1642.9 300.369 1647.38 293.632 1651 290C1660.44 280.514 1669.04 268.72 1680 261C1691.61 290.926 1693.02 324.467 1703.09 355C1716.51 395.688 1732.67 435.807 1747.53 476C1753.46 492.049 1760.7 507.733 1766 524C1775.39 522.105 1778.32 512.632 1782.26 505C1791.77 486.576 1801.97 468.546 1811.25 450C1838.16 396.164 1864.45 342.254 1894.43 290C1902.82 275.37 1912.23 260.721 1922.04 247C1928.13 238.481 1935.26 231.525 1940 222C1949.05 225.904 1954.94 233.333 1962 239.911C1974.09 251.176 1986.06 262.618 1998 274.039C2003.1 278.916 2007.9 284.104 2013 288.981C2014.85 290.747 2017.15 293.364 2019.95 293.364C2023.28 293.364 2024.43 289.498 2025.42 286.999L2033.2 267C2040.82 247.785 2050.92 229.937 2061.15 212C2065.38 204.579 2068.86 194.971 2075 189C2076 198.801 2082.87 209.539 2087.66 218C2095.92 232.569 2105.26 247.017 2112.73 262C2115.96 268.478 2116.4 275.077 2120.85 280.995C2122.15 282.731 2123.72 285.759 2126.13 286.079C2128.46 286.388 2130.44 284.351 2132 282.941C2136.29 279.07 2140.9 275.223 2144.83 270.985C2153.29 261.86 2160.78 251.556 2170 243.17C2176.91 236.887 2183.59 230.745 2190.04 224C2193.02 220.887 2197.02 217.914 2198.97 214C2201.52 208.897 2200 200.579 2200 195L2200 153L2200 0L0 0z"/>
	<path style="fill:#2b1f45;" d="M0 2200L1356 2200C1349.79 2193.03 1339.88 2188.51 1332 2183.58C1316.97 2174.16 1301.95 2164.68 1287 2155.14C1253.41 2133.69 1219.59 2112.6 1186 2091.14C1174.34 2083.69 1162.75 2076.11 1151 2068.81C1146.23 2065.85 1141.35 2061.48 1136 2059.7C1125.16 2056.09 1113.01 2070.33 1106 2077.04C1101.39 2081.45 1097.47 2088.06 1091 2083.21C1045.14 2048.81 1004.53 2007.11 962 1968.83C948.381 1956.57 935.485 1942.74 921 1931.53C915.102 1926.96 908.308 1923.29 902 1919.32C887.02 1909.88 871.618 1900.89 857 1890.91C853.265 1888.36 847.48 1878.64 842.974 1878.64C840.68 1878.64 839.913 1881.29 839.299 1883.02C837.547 1887.96 836.309 1893.06 834.575 1898C827.5 1918.16 817.108 1937.24 809 1957C800.003 1951.87 792.242 1944.69 784 1938.47C766.168 1925.02 748.633 1911.14 731 1897.42C685.851 1862.3 639.801 1828.2 595.17 1792.43C575.707 1776.82 555.255 1762.38 536 1746.54C527.796 1739.78 519.484 1727.86 509 1725C503.334 1735.22 498.326 1745.75 492.694 1756C489.208 1762.35 484.496 1768.18 482 1775C470.032 1767.08 459.066 1756.89 448 1747.75C442.677 1743.35 437.589 1737.61 430 1739.3C426.007 1740.19 422.949 1743.27 419.715 1745.58C412.165 1750.95 405.044 1757.42 397 1762C396.089 1750.85 391.329 1739.63 388.025 1729C383.097 1713.14 378.976 1696.98 374.421 1681C358.531 1625.26 342.109 1569.69 326.141 1514C320.627 1494.77 315.541 1475.4 310.626 1456C309.438 1451.31 308.053 1446.63 306.61 1442.02C306.003 1440.08 305.262 1437.74 302.895 1437.47C299.964 1437.12 297.765 1440.09 296.08 1442.02C291.394 1447.39 287.036 1452.94 281.999 1458C260.876 1479.23 240.182 1500.82 219 1522C207.543 1490.52 185.229 1463.24 173.166 1432C170.11 1424.09 165.293 1416.41 161.138 1409C159.856 1406.72 157.998 1402.36 155.025 1401.92C151.735 1401.43 147.055 1408.93 144.999 1411C134.916 1421.15 125.432 1431.18 116.374 1442.12C88.2623 1476.07 60.7426 1510.57 33.1998 1545L10.6011 1573C7.27533 1577.13 1.81713 1581.83 0.418981 1587.09C-1.18713 1593.13 0 1600.77 0 1607L0 1647L0 1778L0 2200M2038 1696C2031.68 1687.31 2027.03 1677.33 2021.72 1668C2015.61 1657.26 2008.93 1646.82 2003 1636C2000.22 1630.93 1997.19 1625.97 1994.22 1621.02C1993.05 1619.08 1991.58 1616.64 1989 1616.64C1986.46 1616.64 1984.94 1619.03 1983.91 1621.02C1981.12 1626.36 1979.54 1632.42 1977.31 1638C1968.14 1660.9 1955.78 1682.37 1946 1705C1935.49 1729.31 1922.39 1752.49 1910.26 1776C1885.94 1823.11 1861.1 1869.92 1836.74 1917C1826.3 1937.18 1813.77 1957.05 1805 1978C1797.92 1968.34 1788.3 1957.17 1784 1946C1776.03 1946.6 1774.5 1953.55 1771.72 1960C1764.97 1975.66 1757.24 1990.24 1748.6 2005C1721.62 2051.07 1694.4 2097.21 1668.69 2144C1661.66 2156.8 1654.09 2169.31 1646.85 2182C1643.58 2187.72 1638.72 2193.68 1637 2200L2200 2200L2200 1604L2200 1463C2200 1456.98 2201.02 1449.88 2199.58 1444C2198.29 1438.7 2194.36 1433.72 2191.73 1429C2189.97 1425.83 2187.81 1419.45 2183.92 1418.35C2178.31 1416.75 2176.4 1429.49 2175.58 1433C2173.12 1443.58 2168.84 1452.98 2164.82 1463C2161.77 1470.61 2159.44 1478.85 2155.38 1486C2139.44 1514.1 2121.32 1541.03 2105.29 1569C2092.36 1591.55 2081.06 1615.13 2068.69 1638C2058.41 1657 2046.3 1676.06 2038 1696z"/>
</svg>