<?xml version="1.0" encoding="utf-8" standalone="yes"?>
<svg xmlns="http://www.w3.org/2000/svg" width="512" height="512">
	<path style="fill:#fff;" d="M52 133C47.5793 135.866 48.7143 143.214 49.1698 148C49.8001 154.624 49.367 161.427 50.1852 168C50.6067 171.386 52.5989 174.576 52.5309 178C52.4771 180.704 51.2396 183.279 51.054 186C49.9894 201.605 50.3542 218.376 51.0394 234C51.2011 237.688 52.4046 241.322 52.4282 245C52.453 248.852 50.0486 252.077 50.0586 256C50.0776 263.363 53.168 270.651 52.7909 278C52.116 291.154 49.3721 305.092 46.4861 318C45.2677 323.45 44.8347 330.951 42.4861 335.946C40.5197 340.128 35.4202 340.507 33.1829 344.264C31.5568 346.995 32.6453 350.071 32.7909 353C33.1192 359.606 30.1604 366.752 34.0895 372.891C40.3328 382.646 52.2163 370.848 59.6705 375.449C62.756 377.354 63.7839 381.084 65.6088 383.986C68.2513 388.188 72.8189 393.293 77.0895 395.865C92.8767 405.372 117.083 406.596 129.44 389.91C133.287 384.716 135.186 377.299 136 371C145.331 370.257 154.569 367.728 164 367.785C174.992 367.851 186.12 370.069 197 370.871C208.608 371.727 220.409 370.72 232 370.455C239.982 370.273 248.048 371.766 256 371.867C259.117 371.907 261.822 370.631 264.83 370.093C269.095 369.331 274.394 369.68 278.715 369.951C294.494 370.939 310.234 372.654 326 373.263C330.053 373.42 333.902 374.883 338 374.985C343.495 375.122 349.558 375.608 355 374.787C358.42 374.271 361.48 372.204 364.985 372.164C373.391 372.067 375.371 384.077 381.019 388.2C395.32 398.639 416.675 398.955 431.961 390.966C437.571 388.034 443.517 382.614 447.316 377.575C449.274 374.977 450.035 370.768 453.214 369.312C461.133 365.687 473.033 372.426 478.806 362.624C480.555 359.655 479.003 356.086 478.464 353C477.837 349.414 477.843 345.62 478.169 342C478.396 339.479 479.211 336.723 477.806 334.39C475.516 330.586 471.048 330.024 470.068 325.086C467.769 313.503 467.965 300.818 467.375 289C467.091 283.31 468.34 278.325 465.351 273C460.515 264.387 450.374 258.838 442.741 253.002C440.334 251.162 437.053 250.575 435.5 247.772C431.304 240.199 434.231 227.404 433.985 219C433.874 215.235 432.208 211.718 432.208 208C432.208 203.094 435.071 198.983 432.566 194.105C429.426 187.99 423.01 189.91 417.576 188.814C403.395 185.955 389.371 185.305 375 185C375.235 180.42 377.162 176.482 377.829 172C379.672 159.632 380.37 145.757 379.019 133.424C378.145 125.449 378.896 117.879 372.277 111.742C368.568 108.302 356.914 110.006 352 110C335.156 109.979 317.693 109.175 301 111.13C298.192 111.458 295.753 112.875 293 113.357C290.057 113.873 286.964 113.086 284 113.015C272.689 112.742 261.224 111.03 250 111.029C239.03 111.029 227.965 111.921 217 111.921C211.308 111.921 205.757 110.748 200.001 111.042C189.689 111.57 179.027 113.103 168.715 113.062C153.853 113.002 138.904 111 124 111C117.419 111 111.433 112.629 105 112.956C100.617 113.179 96.363 112.122 92 112.015C84.9995 111.843 77.9805 112.486 71 112.13C66.6373 111.908 62.3297 112.729 58 112.487C55.5139 112.348 52.6049 111.617 50.6034 113.604C46.7069 117.474 50.5047 128.557 52 133z"/>
	<path style="fill:#000;" d="M58 122C59.4665 127.531 58.8993 131.577 59.3596 137.015C59.7401 141.511 61.2793 145.338 60.9066 150C60.2628 158.055 58.519 165.789 58.5718 174C58.6138 180.541 61.5192 186.29 60.8958 193C60.2709 199.726 56.8143 206.158 57.1042 213C57.6064 224.852 57.6423 237.228 58.8943 249C59.47 254.413 61.7428 259.437 61.9599 265C62.2344 272.035 61.5378 279.969 60.8958 287C60.6926 289.226 59.5792 291.622 59.8086 293.852C60.1531 297.199 64.4387 297.341 67.0008 298.003C72.3873 299.394 77.0112 301.212 80.1566 306.171C85.6014 314.753 78.8936 325.045 81 334C86.9117 332.258 92.8987 334.225 99 333.961C103.378 333.771 107.585 332.794 112 333.09C118.766 333.542 125.329 335.307 132 335.895C136.707 336.31 141.325 334.597 146 335.214C149.095 335.622 151.881 337.243 155 337.502C168.67 338.641 182.415 336.02 196 335.09C206.314 334.383 216.691 334.62 227 333.91C230.996 333.635 234.994 332.237 239 332.299C244.318 332.381 249.518 334 255 334C257.34 330.293 260.048 331.343 264 331.806C270.327 332.548 276.628 333 283 333C303.073 333 322.922 335 343 335C351.018 335 360.283 336.281 368 334C366.188 324.241 366.956 314.792 366.999 305C367.061 291.052 366.844 276.936 368.17 263C368.797 256.404 371.56 249.397 371.701 243C371.885 234.619 373.513 224.286 372.221 216C371.033 208.373 366.737 200.86 367.069 193C367.214 189.564 368.843 186.442 368.904 183.001C369.076 173.165 367.996 162.96 368 153C368.003 146.051 369.275 139.724 367 133C370.74 129.732 369.32 120.68 363.945 119.488C360.129 118.641 355.967 121.105 352 120.906C340.041 120.306 326.934 118.455 315 119.545C306.557 120.316 298.427 119.958 290 120.375C281.696 120.786 273.296 122.821 265 122.821C242.393 122.821 219.654 120.46 197 120.633C190.987 120.68 185.16 122.205 179 121.981C171.681 121.716 164.393 120.363 157 120.039C148.235 119.656 139.697 120.772 131 120.985C122.656 121.19 115.132 119.609 107 119.054C99.3605 118.533 91.6717 120.036 84 119.999C75.1072 119.956 66.6265 119.08 58 122z"/>
	<path style="fill:#fff;" d="M137 161C140.382 168.799 146.694 169.362 154 171.525C158.428 172.837 162.715 174.888 167 176.6C180.775 182.106 194.927 189.037 209 193.471C218.378 196.426 228.417 196.37 237.985 198.616C244.489 200.142 250.227 202.895 257 203.869C266.583 205.247 276.568 205.167 286 207.12C288.288 207.593 294.126 210.268 295.248 206.722C296.537 202.652 290.438 202.174 288 201.926C279.038 201.014 269.937 198.561 261 197.08C250.31 195.31 239.592 194.776 229 192.385C210.407 188.188 192.707 181.678 175 174.6C168.468 171.989 161.326 170.018 155.09 166.769C148.873 163.529 144.472 158.917 137 161z"/>
	<path style="fill:#000;" d="M378 195C378.221 200.134 380.006 204.935 380.432 210C380.661 212.727 379.65 215.286 379.633 218C379.597 224.018 380.791 230.021 380.867 236C380.907 239.118 379.514 241.925 379.379 245C378.827 257.608 377.963 270.251 377.09 283C376.294 294.61 378.171 305.314 376 317C381.892 315.276 386.606 309.392 392 306.223C401.464 300.662 415.013 300.166 425 304.484C431.256 307.189 438.197 312.709 441.03 319C443.252 323.935 443.251 330.759 448.213 334.061C451.73 336.401 456.099 335.297 460 335L460 341C457.7 340.825 454.518 339.908 452.318 340.832C447.39 342.901 451.181 353.392 452 357C457.467 355.744 462.57 356.977 468 358C468 352.541 469.594 344.2 467.667 339.083C466.475 335.919 462.536 334.964 460.944 331.972C457.715 325.902 459.556 316.535 459.556 310C459.556 305.8 459.44 294.951 455 294C457.252 292.142 459.108 290.225 461 288C458.564 284.287 459.732 279.546 457.357 276.274C455.436 273.627 451.542 272.09 449 270.062C441.841 264.349 432.379 256.801 423.715 253.584C419.013 251.838 410.005 252.076 405 252.455C401.938 252.687 398.118 253.917 395.603 251.4C393 248.794 393.486 243.359 393.444 240C393.353 232.707 387.013 218.418 395 214C394.476 207.948 399.01 208.01 404 208C411.605 207.984 418.628 207.928 426 210C425.915 206.387 425.778 202.325 422.606 199.934C418.017 196.477 411.349 197.195 406 196.961C396.409 196.54 387.448 192.873 378 195z"/>
	<path style="fill:#fff;" d="M187 197L187 201C209.746 202.795 229.928 213.034 253 211.53C257.402 211.243 268.786 215.869 271.914 211.416C273.542 209.097 270.912 207.474 268.941 207.149C262.863 206.146 257.227 207.832 251 206.269C238.683 203.179 225.542 202.34 213 200.711C204.035 199.546 196.14 197 187 197z"/>
	<path style="fill:#000;" d="M396 214C397.383 220.281 397.927 227.546 398.486 234C398.756 237.112 397.955 240.736 399.518 243.61C402.791 249.629 412.523 247.039 417.999 246.999C421.063 246.977 424.547 247.179 425.951 243.852C427.49 240.202 425.273 235.654 424.616 232C423.613 226.424 424 220.643 424 215C414.666 213.82 405.406 214 396 214z"/>
	<path style="fill:#fff;" d="M115 241C114.857 242.879 114.506 244.723 115.832 246.306C117.713 248.551 121.487 249.491 124 250.864C130.09 254.193 135.773 258.313 142 261.36C148.768 264.673 155.149 268.832 162 271.969C167.476 274.477 173.423 275.925 178.996 278.207C182.104 279.479 184.891 281.638 188.09 282.621C202.587 287.078 218.078 285.826 233 286.004C242.664 286.119 252.274 287.066 262 286.999C264.021 286.985 271.83 286.738 268.914 282.584C266.669 279.388 257.409 281 254 281C239.699 281 226.104 283.12 212 279.579C198.07 276.083 184.42 275.88 171 270.254C161.414 266.235 151.477 260.569 143 254.576C134.293 248.42 126.151 241.238 115 241M158 285L158 289C169.794 291.519 181.799 295.468 194 296L194 292C181.568 290.326 170.699 285.001 158 285M331 305C331.415 311.984 331.999 318.997 332 326L339 326C338.826 317.565 337.495 308.299 336 300C340.383 302.447 343.976 304.265 349 303C346.973 297.24 341.096 291.412 334.285 293.529C331.453 294.409 329.12 296.988 327.015 298.951C325.494 300.369 323.306 301.988 322.752 304.111C321.244 309.883 329.18 306.195 331 305z"/>
	<path style="fill:#000;" d="M60 303C58.0738 313.339 58.1206 324.017 52 333C52.5773 334.114 53.7212 335.707 53.8071 337.044C54.2774 344.369 44.9368 344.841 42.0278 350.105C39.6211 354.46 41.9605 361.23 42 366C47.4225 365.572 56.1774 365.551 60.5702 361.992C63.2158 359.848 64.0664 355.735 66.0579 353C70.218 347.287 75.1505 343.744 81 340C74.2097 338.94 65.931 340.611 59 341C60.7489 335.459 67.6597 333.957 73 334C74.4936 327.796 78.5681 314.031 74.821 308.314C72.3206 304.499 64.1904 303.217 60 303z"/>
	<path style="fill:#fff;" d="M349 313C350.016 317.671 346.144 326.765 349.027 330.377C351.174 333.067 353.447 330.046 354.022 327.941C355.452 322.7 354.055 317.328 355 312C355.798 312.567 357.044 313.784 358.141 314.073C361.429 314.935 363.676 312.471 361.953 309.285C360.655 306.886 357.683 304.821 355 304.408C352.271 303.988 349.334 305.275 347.005 306.569C345.215 307.562 342.947 308.915 342.346 311.034C340.882 316.196 346.906 314.353 349 313z"/>
	<path style="fill:#000;" d="M415 389C418.457 384.638 422.297 384.756 426.999 382.468C432.709 379.689 438.373 373.706 441.076 367.961C445.914 357.674 443.809 350.674 439.511 340.91C435.834 332.56 433 321.602 425.27 315.89C422.777 314.047 419.92 313.699 416.999 312.958C414.045 312.208 411.089 310.44 408 310.423C401.666 310.389 393.632 315.857 389.025 319.809C382.057 325.787 375.122 334.647 373.768 344C373.15 348.264 374.407 352.767 374.831 357C375.687 365.553 377.929 372.723 385.019 378.154C390.065 382.02 396.727 385.274 403 386.61C407.226 387.511 410.912 387.268 415 389z"/>
	<path style="fill:#fff;" d="M404.019 334.761C394.675 338.113 392.413 355.617 398.029 362.772C401.369 367.028 410.096 368.025 414.985 366.281C421.523 363.949 421.234 356.888 420.285 351.285C418.946 343.379 415.659 330.584 404.019 334.761z"/>
	<path style="fill:#000;" d="M112 339C117.491 343.661 125.593 344.94 130.772 350.224C133.337 352.841 133.509 358.565 137.228 359.681C143.975 361.706 153.018 357.989 160 358.128C178.286 358.491 196.614 358.97 215 359C224.68 359.016 234.337 360.906 244 360.981C247.871 361.011 251.223 359.475 255 359.144C261.21 358.598 268.721 359.66 275 360.09C284.361 360.731 293.699 362.703 303 363.34C306.979 363.612 310.987 362.771 315 363.093C318.397 363.366 321.592 364.742 325 364.867C333.285 365.171 342.704 365.754 351 364.826C356.201 364.244 360.667 362.059 366 362C363.395 354.851 364.095 349.202 366 342C332.718 341.908 299.3 339.159 266.039 338.224C258.531 338.013 250.603 340.898 243 340.802C238.269 340.743 233.834 338.332 229 338.545C215.274 339.148 200.741 340.635 187 342.173C183.29 342.588 179.759 343.868 176 343.946C162.806 344.221 149.03 341.373 136 340.103C127.958 339.32 120.036 340.016 112 339M403 341C402.061 344.292 400.317 347.5 400.545 351C400.874 356.071 407.805 364.806 413.258 359.393C417.578 355.105 414.187 346.444 412 342C408.581 342.58 406.272 342.072 403 341M85 392C92.1181 392.02 98.989 393.839 106 391.829C110.103 390.653 115.07 388.546 118.571 386.077C127.49 379.787 128.421 360.164 120.387 352.698C106.725 340.004 86.2026 343.562 75.4144 358.001C71.3475 363.444 71.9134 368.694 73.2122 375C74.7573 382.502 81.9387 385.58 85 392z"/>
	<path style="fill:#fff;" d="M93.0039 358.143C78.7565 364.263 86.4356 386.002 101.815 378.606C113.455 373.008 105.93 352.591 93.0039 358.143z"/>
	<path style="fill:#000;" d="M93 374C99.3617 373.515 101.193 369.811 99 364C93.3952 365.8 92.067 368.226 93 374z"/>
</svg>