<?xml version="1.0" encoding="utf-8"?>
<svg viewBox="0 0 616 154" xmlns="http://www.w3.org/2000/svg" xmlns:xlink="http://www.w3.org/1999/xlink" xmlns:bx="https://boxy-svg.com">
	<defs>
		<linearGradient id="gradient-2-0" gradientUnits="userSpaceOnUse" x1="308.617" y1="6.817" x2="308.617" y2="147.289" xlink:href="#gradient-2"/>
		<linearGradient id="gradient-2" bx:pinned="true">
			<title>Arrow Tint</title>
			<stop offset="0" style="stop-color: rgb(207, 207, 207);"/>
			<stop offset="1" style="stop-color: rgb(125, 112, 171);"/>
		</linearGradient>
	</defs>
	<path style="stroke: none; fill: url('#gradient-2-0');" d="M 197.944 15.039 C 196.396 17.591 198.526 49.181 193.411 55.787 C 186.744 64.399 158.226 55.252 162.125 69.551 C 165.807 83.055 225.455 145.631 233.583 146.171 C 241.213 146.678 304.988 79.393 301.242 71.224 C 299.638 67.726 272.989 56.301 269.179 54.683 C 266.238 53.434 264.991 7.444 260.412 8.253 M 347 96 C 347.014 101.203 349.97 129.719 354.109 137.895 C 357.932 145.448 403.081 154.171 415.298 137.302 C 420.448 130.191 419.15 102.976 421.603 100.133 C 426.613 94.327 449.535 88.997 455.106 84.264 C 456.797 82.827 423.139 54.542 384.777 8.185 C 380.982 3.6 312.411 79.674 315.513 87.134 C 316.696 89.981 339.588 95.999 347 96 M 517 43 C 508.332 43.684 481.6 45.1 477.228 48.109 C 470.768 52.556 468.699 96.962 483.44 106.57 C 489.552 110.554 515.759 111.011 518.4 113.603 C 521.128 116.281 528.355 143.225 531.376 146.203 C 535.722 150.488 613.708 82.742 609.551 73.015 C 607.587 68.42 531.564 3.615 527.108 9.746 C 525.217 12.348 518.167 34.34 517 43 M 100 114 C 106.68 113.713 135.892 111.491 140.134 106.815 C 147.91 98.244 144.903 54.282 141.629 49.267 C 133.471 36.772 109.531 47.581 99.214 37.725 C 92.082 30.913 96.712 8.024 87.083 6.833 C 76.545 5.529 -11.937 82.735 11.438 78.896 C 15.19 78.28 72.538 143.726 82.271 147.239 C 86.265 148.681 99.766 118.572 100 114 Z" transform="matrix(1, 0, 0, 1, 0, -1.7763568394002505e-15)">
		<title>color</title>
	</path>
	<g transform="matrix(1, 0, 0, 1, 0, -1.7763568394002505e-15)">
		<title>outline</title>
		<path style="stroke: none; fill: rgb(46, 46, 89);" d="M 104 119 C 114.596 118.912 129.52 119.024 139 114.356 C 142.078 112.84 145.319 111.861 147.411 108.941 C 152.593 101.712 150.533 85.257 149 77 L 141 77 C 139.617 84.451 142.345 95.067 138.312 101.671 C 136.147 105.215 132.605 105.491 129 106.622 C 125.943 107.581 123.208 109.303 120 109.787 C 115.626 110.447 111.348 109.23 107 109.039 C 103.749 108.897 98.255 108.074 95.434 110.028 C 92.459 112.089 93.686 115.985 93.313 119 C 92.682 124.113 89.823 129.175 88.101 133.998 C 87.398 135.969 86.535 138.67 84.316 139.419 C 82.136 140.155 78.044 138.279 76.104 137.312 C 69.991 134.262 67.598 125.843 62.816 121.213 C 56.312 114.916 48.912 109.491 42.259 103.32 C 36.59 98.062 32.372 92.105 26 87.445 C 21.076 83.845 17.727 75.843 11.239 75.682 C 9.374 75.636 5.577 73.997 4.358 75.743 C 2.781 78.001 5.466 83.708 7.228 85.125 C 9.886 87.263 13.313 88.1 15.957 90.343 C 19.861 93.657 22.414 98.347 26.015 101.995 C 33.41 109.485 41.945 115.865 49.405 123.336 C 56.107 130.047 61.335 138.085 69.004 143.629 C 73.829 147.117 79.382 154.113 86 152.521 C 93.763 150.654 96.724 139.554 99.576 133 C 101.585 128.382 103.556 124.056 104 119 M 159 77 C 162.638 84.313 168.686 88.8 173.726 95 C 178.621 101.023 183.563 106.433 188.716 112.209 C 190.831 114.58 191.956 117.607 194.144 119.942 C 196.537 122.497 199.869 123.774 202.239 126.299 C 204.603 128.816 205.875 132.186 208.379 134.586 C 210.301 136.428 212.823 137.438 214.961 138.988 C 220.016 142.655 224.721 151.343 231.015 152.642 C 236.574 153.789 241.172 149.419 245 146.169 C 249.423 142.414 253.897 139.501 257.594 134.961 C 261.734 129.878 267.183 127.189 271.83 122.79 C 280.562 114.524 287.762 104.073 294.184 94 C 297.804 88.321 303.824 78.365 305.702 71.784 C 302.542 71.784 298.884 73.503 296.008 75.075 C 292.546 76.966 288.923 84.047 286.691 87 C 281.722 93.575 277.212 100.268 272.459 107 C 265.241 117.224 257.18 124.16 247 131.191 C 243.133 133.861 236.829 140.436 232 140.547 C 223.725 140.738 218.835 130.321 213.892 125.579 C 202.581 114.729 192.494 102.675 182.12 90.83 C 178.696 86.921 171.067 71.506 166.18 69.29 C 162.939 67.822 162.489 77 159 77 M 426 102 C 436.242 101.789 447.367 99.266 455.701 93.066 C 459.705 90.088 463.296 81.253 457.852 78.028 C 454.222 75.878 448.072 77 444 77 C 445.013 78.825 446.649 80.915 447.071 82.989 C 447.93 87.215 443.236 88.985 439.999 89.956 C 432.889 92.089 421.505 89.114 417.179 97.058 C 411.287 107.878 420.703 121.662 413.695 132.91 C 410.802 137.552 406.712 138.206 402 140.041 C 395.937 142.401 390.781 145.74 384 144.696 C 380.448 144.149 377.452 142.215 374 141.414 C 366.05 139.571 357.751 139.64 354.564 129.996 C 352.227 122.923 352.196 112.437 352.545 105 C 352.7 101.68 355.232 97.469 352.396 94.603 C 349.721 91.901 344.789 93.405 341.424 92.851 C 333.868 91.608 327.051 88.648 320 86 C 322.459 83.123 328.062 77.51 329.19 73.904 C 315.596 74.03 308.117 76.222 309.635 86.996 C 309.815 88.275 310.148 89.659 310.703 90.83 C 314.155 98.115 326.037 97.78 333 99.339 C 335.587 99.918 338.567 100.147 340.397 102.317 C 342.303 104.576 342.288 108.229 342.884 111 C 344.079 116.553 345.207 122.389 346.026 128 C 346.951 134.339 346.264 139.199 351.468 143.945 C 361.725 153.298 371.536 151.132 384 151.004 C 398.122 150.859 413.824 153.071 422.451 139 C 425.084 134.704 424.744 129.815 425.09 125 C 425.657 117.088 426.022 109.96 426 102 M 466 77 C 466.765 80.659 468.239 84.169 468.907 87.83 C 470.17 94.757 470.13 102.949 474.394 108.985 C 478.532 114.842 481.859 113.669 488 114.799 C 496.399 116.346 505.544 119.5 514 117 C 514.191 125.962 516.172 135.311 520.718 143 C 523.216 147.224 525.533 151.401 531 151.756 C 538.846 152.266 542.78 144.048 549.004 140.951 C 557.375 136.784 564.77 130.548 572.17 124.823 C 576.727 121.296 581.897 118.122 585.896 113.957 C 589.702 109.993 592.149 104.972 596.09 101.104 C 598.334 98.902 601.282 97.343 603.161 94.791 C 605.131 92.113 605.993 88.793 608.055 86.129 C 610.661 82.763 613.774 81.253 615 77 C 614.177 75.811 607.265 75.451 604.458 76.683 C 596.748 80.067 594.312 92.056 588.776 97.699 C 585.888 100.643 582.1 102.496 579.015 105.209 C 570.917 112.33 562.827 119.78 553.911 126.002 C 547.051 130.788 539.333 135.407 534 142 C 529.972 137.369 528.499 132.668 526.14 127.17 C 525.233 125.055 523.416 123.263 522.983 120.961 C 522.339 117.539 525.337 113.571 522.396 110.603 C 520.243 108.431 516.34 109.177 513.576 108.715 C 507.813 107.75 501.829 106.677 496.004 106.181 C 493.388 105.958 490.451 106.615 487.924 105.762 C 483.44 104.251 481.91 99.024 480.576 95.001 C 478.365 88.337 476.001 84.238 476 77 L 475.464 76.164 L 466.726 76.039 C 466.58 75.924 465.854 76.885 466 77 Z">
			<title>outeline-bottom</title>
		</path>
		<path style="stroke: none; fill: rgb(46, 46, 89);" d="M 4 77 L 15 77 C 17.273 72.031 21.203 65.149 25.213 61.38 C 28.383 58.399 32.608 56.978 35.715 53.87 C 51.015 38.567 66.257 24.952 85 14 C 86.188 20.989 89.491 27.239 91.366 34 C 92.098 36.641 91.509 40.319 93.603 42.396 C 96.408 45.177 102.395 43.219 106 43.899 C 110.594 44.766 115.644 44.859 120 46.634 C 126.145 49.136 132.381 53.12 139 54 C 139.005 62.159 142.511 68.856 141 77 L 149 77 C 147.273 67.694 152.421 58.819 147.196 50.015 C 141.771 40.875 130.167 40.342 121 38.1 C 117.05 37.134 113.767 35.042 110 33.659 C 107.289 32.664 103.836 32.647 101.728 30.436 C 97.075 25.557 96.578 15.267 95.381 9 C 94.752 5.707 93.776 1.293 89.896 0.539 C 86.455 -0.13 83.523 2.459 80.83 4.15 C 75.524 7.484 69.982 9.799 65 13.644 C 58.931 18.329 53.784 23.729 47.961 28.625 C 40.5 34.898 32.364 40.822 25.471 47.705 C 23.405 49.767 22.38 52.588 20.388 54.698 C 18.454 56.747 15.685 57.572 13.59 59.429 C 8.647 63.812 4.71 70.426 4 77 M 171 77 C 170.251 74.646 169.398 73.051 168 71 C 174.343 69.851 178.848 65.088 185 63.281 C 188.712 62.19 194.551 62.375 197.397 59.411 C 200.109 56.586 198.994 50.57 199 47 C 199.009 41.475 200.695 36.439 200.96 31 C 201.129 27.514 200.041 22.877 201.167 19.558 C 202.446 15.785 209.684 14.82 213 13.865 C 217.061 12.696 220.859 13.138 225 12.9 C 233.821 12.392 250.803 6.38 257.012 16.189 C 263.177 25.93 260.837 39.329 262.772 50 C 263.249 52.631 262.683 56.271 264.193 58.567 C 266.62 62.259 273.042 61.675 276.83 61.935 C 284.475 62.461 296.12 68.528 294 77 C 296.805 76.998 300.332 77.465 302.852 75.972 C 306.79 73.639 306.846 66.944 303.486 64.074 C 298.144 59.51 290.214 59.328 284.039 56.715 C 279.986 54.999 277.441 51.9 273 51 C 272.956 46.165 271.143 42.609 270.274 38 C 268.848 30.436 269.314 22.569 267.8 15 C 267.205 12.026 266.801 8.69 264.567 6.43 C 260.404 2.217 253.411 2.354 248 1.83 C 234.976 0.569 222.816 2.752 210 4.921 C 204.742 5.81 196.475 7.467 192.657 11.51 C 189.787 14.549 191.082 18.462 191.066 22.17 C 191.046 26.777 190.137 31.434 190.259 36 C 190.368 40.065 191.707 43.994 189.991 47.946 C 187.609 53.431 181.183 55.052 176 56.558 C 170.154 58.257 163.074 60.914 158.434 64.99 C 153.473 69.348 159.616 83.189 165.523 83.453 C 168.176 83.572 168.345 77 171 77 M 519 17 C 512.273 21.258 513.329 30.135 511 37 C 504.731 35.508 500.155 36.935 494 37.791 C 485.408 38.985 476.168 37.442 470.742 46.005 C 465.394 54.444 466 67.436 466 77 L 476 77 C 476.083 66.998 479.301 58.568 481 49 C 490.697 48.8 500.326 46.367 510 46.108 C 513.251 46.021 517.568 48.122 520.258 45.396 C 523.42 42.19 521.405 36.374 522.059 32.424 C 522.537 29.534 524.067 26.884 524.69 24.004 C 525.393 20.751 526.135 16.225 530.094 15.306 C 532.375 14.776 534.233 16.434 536 17.593 C 540.498 20.546 544.78 23.536 548.999 26.881 C 557.968 33.992 564.911 43.333 574 50.482 C 584.405 58.667 598.065 64.256 604 77 L 615 77 C 614.552 71.07 611.087 69.688 607.089 65.871 C 603.303 62.256 599.889 58.375 596.004 54.831 C 586.731 46.372 577.679 37.21 568 29.228 C 565.304 27.005 561.89 26.007 559.286 23.698 C 550.394 15.814 542.783 5.657 531 1.607 C 523.123 -1.1 517.505 10.811 519 17 M 313 77 C 317.387 77 322.961 77.884 326.985 75.821 C 337.699 70.329 341.967 54.833 349.861 46.274 C 353.284 42.563 358.11 40.071 361.845 36.625 C 369.665 29.411 378.818 20.629 385 12 C 391.533 18.809 394.997 26.692 400.761 33.911 C 406.315 40.867 413.863 46.251 419.71 53 C 423.02 56.821 425.453 61.385 429.054 64.942 C 431.372 67.232 434.218 68.53 436.715 70.544 C 439.168 72.523 442.162 76.643 445.224 77.785 C 449.057 79.213 454.924 79.047 458.96 79.047 C 455.204 74.245 447.632 69.626 443.299 65.406 C 440.781 62.954 439.431 59.587 436.943 57.054 C 431.493 51.507 424.669 47.3 419.184 41.816 C 412.513 35.144 408.693 26.081 401.91 19.576 C 397.091 14.953 392.33 2.66 384.999 2.434 C 376.208 2.163 372.176 11.206 366.024 15.974 C 358.09 22.123 351.634 31.026 345.201 38.629 C 334.461 51.322 323.081 63.672 313 77 Z">
			<title>outline-top</title>
		</path>
	</g>
</svg>