<?xml version="1.0" encoding="utf-8" standalone="yes"?>
<svg xmlns="http://www.w3.org/2000/svg" viewBox="0 0 16 16">
	<path style="fill: #fff;" d="M 16 14 L 15 15 L 1 15 L 0 14 L 0 2 L 1 1 L 15 1 L 16 2 L 16 12 L 14 12 L 14 9 L 11 10 L 11 6 L 14 7 L 14 4 L 9 4 L 9 12 L 7 12 L 7 9 L 4 10 L 4 6 L 7 7 L 7 4 L 2 4 L 2 12 L 16 12 L 16 14 Z"></path>
	<ellipse style="fill: #fff; transform-origin: -0.345px 2px;" cx="1" cy="2" rx="1" ry="1"></ellipse>
	<ellipse style="fill: #fff; transform-origin: 13.655px 2px;" cy="2" rx="1" ry="1" cx="15"></ellipse>
	<ellipse style="fill: #fff; transform-origin: -0.345px 14px;" cx="1" rx="1" ry="1" cy="14"></ellipse>
	<ellipse style="fill: #fff; transform-origin: 13.655px 14px;" rx="1" ry="1" cx="15" cy="14"></ellipse>
</svg>